<?xml version="1.0" encoding="utf-8"?>
<!-- Generator: Adobe Illustrator 19.2.0, SVG Export Plug-In . SVG Version: 6.00 Build 0)  -->
<svg version="1.1" id="Layer_1" xmlns="http://www.w3.org/2000/svg" xmlns:xlink="http://www.w3.org/1999/xlink" x="0px" y="0px"
	 viewBox="0 0 382.2 116.1" style="enable-background:new 0 0 382.2 116.1;" xml:space="preserve">
<style type="text/css">
	.Arched_x0020_Green{fill:url(#SVGID_1_);stroke:#FFFFFF;stroke-width:0.25;stroke-miterlimit:1;}
	.st0{fill:#08958F;}
	.st1{fill:#465661;}
</style>
<linearGradient id="SVGID_1_" gradientUnits="userSpaceOnUse" x1="-109.3516" y1="459.627" x2="-108.6445" y2="458.9199">
	<stop  offset="0" style="stop-color:#20AC4B"/>
	<stop  offset="0.9831" style="stop-color:#19361A"/>
</linearGradient>
<g>
	<path class="st0" d="M22.9,22.9C22.9,10.2,33.1,0,45.8,0c12.6,0,22.9,10.2,22.9,22.9H22.9"/>
	<path class="st0" d="M0,45.8c0-12.6,10.2-22.9,22.9-22.9c0,12.6,10.2,22.9,22.9,22.9c-12.6,0-22.9,10.2-22.9,22.9
		C10.2,68.6,0,58.4,0,45.8"/>
	<path class="st0" d="M68.6,68.6c0,12.6-10.2,22.9-22.9,22.9c-12.6,0-22.9-10.2-22.9-22.9H68.6"/>
	<path class="st0" d="M68.6,22.9c12.6,0,22.9,10.2,22.9,22.9c0,12.6-10.2,22.9-22.9,22.9c0-12.6-10.2-22.9-22.9-22.9
		C58.4,45.8,68.6,35.5,68.6,22.9"/>
	<polyline class="st0" points="162.9,68.6 152.4,68.6 152.4,37.9 139,68.6 124.8,37.8 124.8,68.6 115,68.6 115,22.9 129,22.9 
		139.1,46.6 148.7,22.9 162.9,22.9 	"/>
	<polyline class="st0" points="175.8,22.9 194.5,22.9 194.5,30.9 178.4,30.9 178.4,41.4 193.9,41.4 193.9,49.2 178.4,49.2 
		178.4,60.9 194.5,60.9 194.5,68.6 168.1,68.6 168.1,22.9 	"/>
	<path class="st0" d="M270.4,25.2c-13.5-8-36.5,0.8-36.5,20.6c0,17,17.8,30.7,36.5,21.5v-9.8c-14.4,10.1-27,0-26.8-11.4
		c0.1-7.5,5.2-14.7,15-15.2c4.8-0.3,8.1,0.9,11.8,4.5V25.2"/>
	<rect x="274.7" y="23.3" class="st0" width="9.7" height="45.3"/>
	<polyline class="st0" points="302.4,68.6 285.4,44.1 300,23.4 311.4,23.4 296.7,44.1 313.5,68.6 	"/>
	<path class="st0" d="M199.1,22.9h18c10.6,0,15,8.5,15,13.7c0,5.2-2,10.4-8.2,12.8l13.4,19.2h-10.9l-17-24.6v24.6h-10.3V22.9
		 M214.9,43.8c3.9,0,6.9-3,6.9-6.5c0-1.8-0.4-6.8-8-6.8h-4.5v13.4H214.9z"/>
	<path class="st1" d="M272.5,98.4c-0.3,0-0.5,0.5-0.1,0.6c1.5,0.6,3.2,1.5,4.3,2.4c1.1,1,2,2.7,2,4.9c0,3.5-2.3,6.1-5,7.5
		c-1.9,1-5.9,1.7-10,1.7c-2.7,0-4.1-0.2-6.1-0.2c-0.5,0-4.2,0.2-5.8,0.2c-0.6,0-1.3-0.2-1.3-0.6c0-0.4,0.4-0.6,1.4-0.8
		c3.2-0.4,3.4-1.2,4.7-4.4c1.1-2.6,5.5-17.4,6.3-20.8c0.3-1.4,0.5-2.4-0.9-2.6c-0.4,0-1.3-0.1-2.1-0.2c-0.7-0.1-1.4-0.4-1.4-0.7
		c0-0.4,0.6-0.6,1.4-0.6h5.4c0.5,0,3.6-0.4,6.1-0.4c2.5,0,4.9,0.2,6.5,1.2c1.8,1.3,2.7,3,2.7,4.8C280.7,94.8,277,97.2,272.5,98.4
		 M270.8,101c-1.3-1.2-2.9-1.7-5-1.7c-0.2,0-0.5,0.2-0.7,0.7c-0.7,1.6-2.7,8.1-3.2,10.7c-0.2,1.2,0,1.8,0.6,2.4
		c0.9,0.9,2.5,1.2,2.8,1.2c1.3,0,3.7-1,5.4-2.9c1.1-1.4,2-3.6,2-5.2C272.8,104.2,271.9,101.9,270.8,101 M270.1,85.8
		c-0.5,0-0.9,0.4-1.2,1.4c-0.5,1.7-2.2,7.7-2.9,10.3c-0.1,0.2,0.2,0.5,0.5,0.5c1.8,0,3.8-0.2,4.8-0.8c1.7-0.8,4-3.3,4-6.4
		C275.2,88.4,273.4,85.8,270.1,85.8"/>
	<path class="st1" d="M298.6,99c0,2.3-1.9,4-4.3,5.1c-1.8,0.9-4.6,1.6-6.2,2c-0.4,0.1-0.5,0.3-0.7,0.8c-0.2,0.6-0.4,1.7-0.4,2.9
		c0,1.9,1.1,2.8,2.3,2.8c1.4,0,3.1-0.7,5.1-2.4c0.4-0.3,0.8-0.7,1.2-0.7c0.2,0,0.3,0.2,0.3,0.3c0,0.3-0.3,1.1-0.6,1.4
		c-2,2.5-5.4,4.7-8.9,4.7c-1.5,0-4.4-2.1-4.4-5.6c0-3.4,2.3-8.1,4.9-10.8c2.5-2.5,5.5-3.8,7.8-3.8C297.5,95.7,298.6,97.6,298.6,99
		 M288.1,104.3c-0.1,0.2,0,0.6,0.3,0.5c4.2-1.5,6.4-4.7,6.4-6.4c0-0.9-0.4-1.3-0.9-1.3C291.8,97,289,101,288.1,104.3"/>
	<path class="st1" d="M317.6,96.6c0.5,1.1-0.1,2.8-0.2,3.3c-1.2,3.1-3.1,7.8-3.7,9.6c-0.6,1.6-0.5,3.1,0.3,3.1
		c1.2,0,3.6-1.5,5.9-5.1c0.5-0.7,0.8-1.4,1.1-2.2c0.4-1.3,0.8-3.2,1.3-4.5c0.4-1.1,0.6-1.7,1.3-2.4c0.5-0.5,1.8-1.2,3.2-1.2
		c1.5,0,1.2,1.9,0.6,3.7c-0.8,2-1.9,3.9-2.6,5.2c-0.4,0.8-0.9,2.4-0.9,3.2c-0.2,1.6,0,3.5,1.6,3.5c1.2,0,2.8-1,3.6-2
		c2.8-3,3.8-6.4,3.8-8.4c0-1.5-0.5-2.7-0.8-3.4c-0.1-0.3-0.1-0.6,0-0.9c0.6-1,2.5-2.5,3.6-2.5c0.9,0,1.2,1.3,1.2,3
		c0,5.6-6.1,13.5-10.7,16.1c-1.4,0.9-2.7,1.2-4.1,1.2c-2,0-3-2.5-2.3-5.8c0-0.3-0.2-0.4-0.4-0.1c-1.4,1.6-3.9,3.6-4.5,4
		c-1.6,1.2-2.8,1.8-4.4,1.8c-1.3,0-2.3-1.3-2.2-3.4c0-0.8,0.5-2.8,1.2-4.3c1-2.7,2.2-5.8,3-8c0.2-0.3,0-0.5-0.2-0.5
		c-0.6,0-2.5,1.1-3.8,2.2c-0.3,0.2-0.5-0.1-0.5-0.3c0-0.4,0.2-0.8,0.5-1.2c1.3-1.7,5.4-4.7,8-4.7C316.8,95.7,317.4,96.1,317.6,96.6"
		/>
	<path class="st1" d="M354.2,99c0,2.3-1.9,4-4.3,5.1c-1.8,0.9-4.6,1.6-6.2,2c-0.4,0.1-0.5,0.3-0.7,0.8c-0.2,0.6-0.4,1.7-0.4,2.9
		c0,1.9,1.1,2.8,2.3,2.8c1.3,0,3.1-0.7,5.1-2.4c0.4-0.3,0.8-0.7,1.2-0.7c0.2,0,0.3,0.2,0.3,0.3c0,0.3-0.3,1.1-0.6,1.4
		c-2,2.5-5.3,4.7-8.9,4.7c-1.5,0-4.4-2.1-4.4-5.6c0-3.4,2.3-8.1,4.9-10.8c2.5-2.5,5.5-3.8,7.8-3.8C353.2,95.7,354.2,97.6,354.2,99
		 M343.7,104.3c0,0.2,0,0.6,0.3,0.5c4.2-1.5,6.4-4.7,6.4-6.4c0-0.9-0.4-1.3-0.9-1.3C347.4,97,344.7,101,343.7,104.3"/>
	<path class="st1" d="M374.7,82.6c0.5-0.1,4.4-0.7,5.8-1c0.6-0.1,1.2-0.3,1.4-0.3c0.5,0,0.5,0.9,0.2,1.5
		c-3.3,8.8-9.5,26.5-10.5,29.2c-0.3,1.1-0.1,1.7,0.3,1.7c1,0,4.3-3.7,5.3-4.6c0.3-0.2,0.6,0,0.6,0.2c0,0.3-0.2,1.2-0.4,1.5
		c-1.7,3.3-5.5,5.3-8.4,5.3c-1.4,0-2.6-1.3-2.6-2.1c0-0.4,0.4-1.9,1.4-4.7c1.9-5.5,5.2-14.6,8-22.8c0.7-1.9,0.4-2.1-1.2-2.5
		c-0.7-0.2-1.1-0.4-1.1-0.7C373.7,83.1,374.1,82.7,374.7,82.6"/>
	<path class="st1" d="M362.4,82.6c0.5-0.1,4.4-0.7,5.8-1c0.6-0.1,1.2-0.3,1.4-0.3c0.5,0,0.5,0.9,0.2,1.5
		c-3.3,8.8-9.5,26.5-10.5,29.2c-0.3,1.1-0.1,1.7,0.3,1.7c1,0,4.3-3.7,5.3-4.6c0.3-0.2,0.6,0,0.6,0.2c0,0.3-0.2,1.2-0.4,1.5
		c-1.7,3.3-5.5,5.3-8.4,5.3c-1.4,0-2.5-1.3-2.5-2.1c0-0.4,0.4-1.9,1.4-4.7c1.9-5.5,5.2-14.6,8-22.8c0.7-1.9,0.4-2.1-1.2-2.5
		c-0.7-0.2-1.1-0.4-1.1-0.7C361.4,83.1,361.8,82.7,362.4,82.6"/>
</g>
</svg>
