<?xml version="1.0" encoding="utf-8"?>
<!-- Generator: Adobe Illustrator 15.1.0, SVG Export Plug-In . SVG Version: 6.00 Build 0)  -->
<!DOCTYPE svg PUBLIC "-//W3C//DTD SVG 1.1//EN" "http://www.w3.org/Graphics/SVG/1.1/DTD/svg11.dtd">
<svg version="1.1" id="Layer_1" xmlns="http://www.w3.org/2000/svg" xmlns:xlink="http://www.w3.org/1999/xlink" x="0px" y="0px"
	 width="100px" height="100px" viewBox="0 0 100 100" enable-background="new 0 0 100 100" xml:space="preserve">
<path fill-rule="evenodd" clip-rule="evenodd" fill="#F9F948" stroke="#F9F948" stroke-miterlimit="10" d="M25.297,72.057
	c1.215,3.325-0.495,7.006-3.821,8.221c-3.327,1.216-7.005-0.494-8.221-3.819c-1.215-3.324,0.494-7.006,3.82-8.222
	C20.401,67.021,24.083,68.732,25.297,72.057z"/>
<path fill-rule="evenodd" clip-rule="evenodd" fill="#F9F948" stroke="#F9F948" stroke-miterlimit="10" d="M51.35,59.297
	c0.881,2.41-0.358,5.073-2.768,5.954s-5.072-0.356-5.953-2.767c-0.88-2.407,0.355-5.074,2.765-5.954
	C47.804,55.649,50.47,56.89,51.35,59.297z"/>
<path fill-rule="evenodd" clip-rule="evenodd" fill="#F9F948" stroke="#F9F948" stroke-miterlimit="10" d="M60.332,13.564
	c0.724,3.466-1.501,6.86-4.967,7.583c-3.468,0.724-6.861-1.499-7.584-4.965c-0.723-3.465,1.499-6.862,4.966-7.585
	C56.213,7.874,59.609,10.099,60.332,13.564z"/>
<path fill-rule="evenodd" clip-rule="evenodd" fill="#F9F948" stroke="#F9F948" stroke-miterlimit="10" d="M87.952,4.695
	c0.524,2.512-1.085,4.969-3.598,5.493c-2.512,0.524-4.968-1.084-5.491-3.596c-0.523-2.509,1.084-4.97,3.596-5.493
	C84.971,0.575,87.43,2.187,87.952,4.695z"/>
</svg>
