<svg id="Layer_1" data-name="Layer 1" xmlns="http://www.w3.org/2000/svg" width="5.69444in" height="2.19444in" viewBox="0 0 409.99999 158">
  <defs>
    <style>
      .cls-1 {
        fill: #d03027;
      }

      .cls-2 {
        fill: #004977;
      }
    </style>
  </defs>
  <title>capital-one</title>
  <g>
    <path id="Icon" class="cls-1" d="M266.9385,113.2002a0.3565,0.3565,0,0,1-.0498.03613C251.0322,124.46094,232.2471,136.2539,212.04,148.6299l-0.79688.4639a0.60113,0.60113,0,0,0-.14453.8417,0.59344,0.59344,0,0,0,.835.1446l0.67481-.3526c17.1377-8.9453,36.8223-19.56344,56.6309-30.458,0.1074-.05859.2119-0.11719,0.3183-0.17578A24.73407,24.73407,0,0,1,266.9385,113.2002Zm104.081-84.2564c-24.9961-27.5693-185.833-2.77-254.2309,12.1719l-1.5933.3452a0.60529,0.60529,0,1,0,.209,1.1924l1.5801-.3086c56.6679-10.0884,174.5097-24.0781,199.8691,1.0664,7.7363,7.6704,5.8906,17.5542-3.0771,29.2115a23.13167,23.13167,0,0,1,9.83,14.1088C358.6279,63.4346,382.1563,41.228,371.0195,28.9438Z"/>
    <g id="Wordmark">
      <path class="cls-2" d="M277.0518,105.9619c0.3261,9.70314,6.4589,17.6465,14.4658,17.6465,15.5146,0,22.1172-19.0488,21.6582-31.7764-0.3281-9.7265-6.625-17.6518-14.6182-17.6518C285.2119,74.1802,276.5977,93.1465,277.0518,105.9619Zm-8.1944-.5185c-0.5752-16.5557,12.3946-33.4839,31.2354-33.4839,12.6006,0,20.8496,8.396,21.3086,21.2553,0.6025,17.459-11.5137,33.48637-31.2344,33.48637C277.5625,126.70117,269.3164,118.32227,268.8574,105.4434Z"/>
      <path class="cls-2" d="M90.3896,101.0693a18.181,18.181,0,0,1-2.621.7295q-1.61355.3648-5.8931,1.042a10.22875,10.22875,0,0,0-4.1069,1.2783,3.0402,3.0402,0,0,0-1.3067,2.0059,1.94791,1.94791,0,0,0,.8667,2.0723,6.86812,6.86812,0,0,0,3.7974.7968,12.935,12.935,0,0,0,3.9131-.6201,9.52375,9.52375,0,0,0,3.1963-1.6992,5.08669,5.08669,0,0,0,1.3735-2.0049A26.45515,26.45515,0,0,0,90.3896,101.0693Zm16.3765-10.1855a40.44929,40.44929,0,0,1-.7363,5.1787l-2.7725,15.5527a2.87639,2.87639,0,0,0,1.5576,3.20609l-0.0864.60742-15.8667-.02148-0.1406-3.95413a31.56981,31.56981,0,0,1-7.6226,3.25881,27.8308,27.8308,0,0,1-7.6015.92969c-5.1255,0-8.0625-.53223-10.086-2.30859-2.0595-1.833-3.0556-3.04591-2.957-5.56741a8.59827,8.59827,0,0,1,1.9175-4.6152,11.688,11.688,0,0,1,4.2231-2.9492,22.48888,22.48888,0,0,1,6.3662-1.7881c2.8067-.4551,6.7134-0.9092,11.9473-1.3467a17.29321,17.29321,0,0,0,5.2139-1.1797,2.178,2.178,0,0,0,1.6821-1.7842c0.2939-1.5996-.2163-2.5097-2.3394-2.9316-5.7177-1.124-16.4292.7256-21.9502,2.1074l3.002-8.0957a145.082,145.082,0,0,1,21.2905-1.7422C103.2266,83.4404,106.8813,86.6982,106.7661,90.8838Z"/>
      <path class="cls-2" d="M152.7529,115.42871l5.5078-31.07421h15.191l-5.5064,31.07421H152.7529Zm6.3496-38.271c0.4546-2.5532,4.4864-4.6274,8.9903-4.6274,4.5117,0,7.8042,2.0742,7.3681,4.6274-0.4751,2.5562-4.4985,4.6275-9.0151,4.6275C161.9199,81.7852,158.6445,79.7139,159.1025,77.1577Z"/>
      <path class="cls-2" d="M227.40039,101.1445c-0.68066.2315-1.5625,0.4825-2.63574,0.7295-1.06543.253-3.0332,0.5694-5.90234,1.0362a10.03551,10.03551,0,0,0-4.08886,1.2802,3.16527,3.16527,0,0,0-1.31836,1.9991,1.96351,1.96351,0,0,0,.86816,2.0683,6.97666,6.97666,0,0,0,3.82227.7822,12.88375,12.88375,0,0,0,3.89648-.5986,9.60776,9.60776,0,0,0,3.21094-1.6992,5.251,5.251,0,0,0,1.35059-2.0176A27.21084,27.21084,0,0,0,227.40039,101.1445Zm16.373-10.2011a37.78494,37.78494,0,0,1-.7509,5.1748l-2.751,15.5713a2.91039,2.91039,0,0,0,1.5469,3.21675l-0.0938.53711-15.86132.03125-0.12207-3.96391a31.10447,31.10447,0,0,1-7.625,3.25492,27.29727,27.29727,0,0,1-7.63184.93555c-5.11917,0-8.03467-.51562-10.06587-2.30273-2.0674-1.83794-3.0664-3.04594-2.9541-5.55954a8.31077,8.31077,0,0,1,1.9101-4.6182,11.56524,11.56524,0,0,1,4.2334-2.9531,23.74073,23.74073,0,0,1,6.34132-1.8028c2.82129-.4375,6.74121-0.9121,11.96973-1.3486a17.83842,17.83842,0,0,0,5.18359-1.1494,2.21317,2.21317,0,0,0,1.709-1.8008c0.2793-1.5674-.22166-2.5029-2.32908-2.9287-5.74414-1.1357-16.42871.7275-21.95022,2.0996l2.9873-8.0928a144.63649,144.63649,0,0,1,21.295-1.75C240.2256,83.4941,243.8662,86.7686,243.7734,90.9434Z"/>
      <path class="cls-2" d="M58.3774,104.2598a55.622,55.622,0,0,1-12.6162,1.3574c-7.2568,0-13.021-3.6035-12.7104-10.207,0.2226-4.3985,5.435-13.6827,18.6772-13.6827a21.61818,21.61818,0,0,1,11.8081,3.2344L65.459,74.1675a36.47383,36.47383,0,0,0-15.0195-2.5332c-17.3506.186-34.0264,8.0796-36.0909,24.1216-2.1035,16.3037,17.8091,20.40426,26.6509,20.36519,5.105-.01464,10.4092-0.22265,15.3618-0.73632Z"/>
      <path class="cls-2" d="M181.8223,84.1758l1.0923-6.3272,15.8876-3.4594-1.6894,9.7866h7.7793l-1.478,6.2588-7.5479-.0186-4.5854,24.99123s-15.2974-.10157-15.3511,0l4.5664-24.93063h-5.7764l1.1743-6.3008h5.9283Z"/>
      <polygon class="cls-2" points="259.194 115.407 243.722 115.429 251.505 72.073 266.574 72.498 259.194 115.407"/>
      <path class="cls-2" d="M132.6621,91.6387a8.73363,8.73363,0,0,0-5.3935,1.8076,8.13276,8.13276,0,0,0-3.0049,5.3203c-0.4776,2.7129-.1978,4.6582.8759,5.8652a6.02235,6.02235,0,0,0,4.6958,1.792,9.14034,9.14034,0,0,0,3.8667-.7656,7.614,7.614,0,0,0,2.9732-2.5566A10.2331,10.2331,0,0,0,138.3447,99c0.4365-2.4541.0674-4.293-1.0693-5.5049A5.829,5.829,0,0,0,132.6621,91.6387ZM105.002,126.1582l7.393-41.6514h13.3404l-1.0323,5.3174a12.69461,12.69461,0,0,1,5.5581-3.9531,22.72654,22.72654,0,0,1,8.6182-1.834c3.4814,0,5.6289.1875,8.2349,1.5371a11.00376,11.00376,0,0,1,5.3823,5.8985,15.46438,15.46438,0,0,1,.6655,8.4609,18.36958,18.36958,0,0,1-7.5078,12.1553c-4.0737,2.97165-7.7354,3.7529-12.9688,3.7734a19.8517,19.8517,0,0,1-4.6904-.50683,10.74531,10.74531,0,0,1-3.0249-1.21485,14.08325,14.08325,0,0,1-2.5005-2.25782l-2.4863,14.2754H105.002Z"/>
      <path class="cls-2" d="M380.7861,95.4521c-0.0869-2.5048-1.3457-4.1884-3.9306-4.1884-6.2305,0-12.8575,12.2031-14.001,17.1259C373.0771,108.3896,381.0332,102.3018,380.7861,95.4521Zm1.333,19.129,1.2051,0.81543c-3.039,6.1875-9.2353,11.169-16.5019,11.169-5.9463,0-10.8194-3.957-11.0772-11.38867-0.4805-13.31936,11.9971-25.69336,22.2168-25.69336,4.3848,0,8.4473,1.915,8.6299,6.6348,0.376,10.5898-14.498,13.831-24.2959,14.0498a11.96738,11.96738,0,0,0-.3809,3.913c0.1621,4.39258,2.8204,8.08692,8.3135,8.08692C374.9746,122.168,379.7197,118.34668,382.1191,114.58105Z"/>
      <path class="cls-2" d="M321.1758,95.1035c1.0556-.1416,2.7539-0.3262,3.4873-0.3262,1.1201,0,2.1699.212,2.2217,1.3155,0.0205,0.6582-1.1641,5.375-1.4151,6.4717l-2.3691,10.4472c-0.957,4.27541-1.9951,8.752-2.9141,12.28908h6.0879l3.4199-16.55178c10.4434-10.873,14.459-14.4199,16.9248-14.4199a1.76953,1.76953,0,0,1,1.9248,1.9102c0.0616,1.914-1.125,6.2597-1.5361,7.5048l-3.4932,12.07133a25.07731,25.07731,0,0,0-1.3261,6.90723c0.1084,2.65234,1.7099,3.82812,4.0879,3.82812,4.4492,0,7.6767-4.63672,10.5019-9.18945l-0.8271-1.4961c-1.1465,1.834-3.7803,5.83106-5.8623,5.83106a1.339,1.339,0,0,1-1.3018-1.542,18.03755,18.03755,0,0,1,.9443-4.92285l3.879-14.13865a35.06318,35.06318,0,0,0,1.5117-7.7373,3.62843,3.62843,0,0,0-4.001-3.876c-4.002,0-9.3242,2.9267-20.582,15.8857h-0.1592l1.416-6.3252c0.7705-3.457,1.5215-7.0664,2.2529-9.5605a101.76251,101.76251,0,0,1-12.9248,3.6396Z"/>
    </g>
    <path id="Trademark" class="cls-2" d="M387.5273,83.8516a5.47237,5.47237,0,1,1,5.4913,5.4287A5.38555,5.38555,0,0,1,387.5273,83.8516Zm5.4913,4.5332a4.51194,4.51194,0,1,0-4.4082-4.5332A4.36492,4.36492,0,0,0,393.0186,88.3848Zm-1.1456-1.3975h-0.9628V80.752h2.3837c1.4766,0,2.2081.5429,2.2081,1.7656a1.62793,1.62793,0,0,1-1.6221,1.7246l1.7783,2.7451h-1.0654l-1.6397-2.7061H391.873v2.7061Zm1.1133-3.501c0.8155,0,1.5186-.0586,1.5186-1.0254,0-.7714-0.6875-0.916-1.3574-0.916H391.873v1.9414h1.1133Z"/>
  </g>
</svg>
