<svg id="Layer_1" data-name="Layer 1" xmlns="http://www.w3.org/2000/svg" width="320" height="56" viewBox="0 0 320 56">
  <defs>
    <style>
      .cls-1 {
        fill: #695e4a;
      }

      .cls-2 {
        fill: #8a7967;
      }

      .cls-3 {
        fill: #6db440;
      }
    </style>
  </defs>
  <title>eatstreet</title>
  <g>
    <path class="cls-1" d="M48.99951,14.22021H70.94678v5.70557H55.32959v5.91357H69.07275v5.70557H55.32959V37.666H71.15527v5.70605H48.99951V14.22021Z"/>
    <path class="cls-1" d="M86.89746,14.01172H92.811l12.49414,29.36035H98.6001L95.93457,36.834H83.60742l-2.66553,6.53809H74.40332ZM93.644,31.16992l-3.873-9.45361-3.873,9.45361H93.644Z"/>
    <path class="cls-1" d="M116.59131,20.13379H107.7207V14.22021h24.15479v5.91357h-8.87061V43.37207h-6.41357V20.13379Z"/>
    <path class="cls-2" d="M147.49268,43.78809a16.32678,16.32678,0,0,1-6.30957-1.166,19.37171,19.37171,0,0,1-5.43506-3.498l1.416-1.624a20.58669,20.58669,0,0,0,2.39453,1.93652,13.30185,13.30185,0,0,0,5.06006,2.124,15.52188,15.52188,0,0,0,2.99854.27051,9.833,9.833,0,0,0,2.999-.4375,7.12135,7.12135,0,0,0,2.332-1.207,5.59716,5.59716,0,0,0,1.499-1.833,5.01675,5.01675,0,0,0,.5415-2.31152V35.959a5.74508,5.74508,0,0,0-.354-2.082,4.00994,4.00994,0,0,0-1.291-1.666,9.39856,9.39856,0,0,0-2.51953-1.35352,26.11279,26.11279,0,0,0-4.08154-1.10352,28.23362,28.23362,0,0,1-4.49756-1.27,11.09777,11.09777,0,0,1-3.061-1.70752,5.86594,5.86594,0,0,1-1.72852-2.26953,7.58986,7.58986,0,0,1-.5415-2.957v-0.0835a6.57428,6.57428,0,0,1,.708-3.019,7.66966,7.66966,0,0,1,1.95752-2.43652,9.23046,9.23046,0,0,1,2.957-1.624,11.533,11.533,0,0,1,3.748-.583,15.47131,15.47131,0,0,1,5.47656.87451,16.43765,16.43765,0,0,1,4.51855,2.665l-1.374,1.70752a12.51308,12.51308,0,0,0-8.7041-3.29,9.25583,9.25583,0,0,0-2.93652.4375,7.20423,7.20423,0,0,0-2.24854,1.187,5.211,5.211,0,0,0-1.437,1.749,4.68889,4.68889,0,0,0-.49951,2.124v0.083a5.90883,5.90883,0,0,0,.354,2.10352,4.105,4.105,0,0,0,1.291,1.70752,9.176,9.176,0,0,0,2.60254,1.395,29.70636,29.70636,0,0,0,4.248,1.166q5.08081,1.0415,7.33008,2.936A6.32849,6.32849,0,0,1,157.1543,35.751v0.083a7.205,7.205,0,0,1-.72852,3.22754,7.512,7.512,0,0,1-1.999,2.51953,9.33833,9.33833,0,0,1-3.04053,1.624A12.38653,12.38653,0,0,1,147.49268,43.78809Z"/>
    <path class="cls-2" d="M174.4375,16.17725H164.27539v-1.957h22.48926v1.957H176.60254V43.37207h-2.165V16.17725Z"/>
    <path class="cls-2" d="M195.42676,14.22021H207.6709a13.76625,13.76625,0,0,1,4.78906.77,9.32692,9.32692,0,0,1,3.415,2.10352,7.51375,7.51375,0,0,1,1.625,2.436,7.66519,7.66519,0,0,1,.583,2.978v0.083a7.90834,7.90834,0,0,1-.64551,3.26953,7.44993,7.44993,0,0,1-1.791,2.478,9.227,9.227,0,0,1-2.707,1.686,13.69649,13.69649,0,0,1-3.39453.89551L219.165,43.37207h-2.748l-9.28711-12.07715h-9.53711V43.37207h-2.166V14.22021ZM207.4209,29.33789a12.02441,12.02441,0,0,0,3.39453-.45947A8.20573,8.20573,0,0,0,213.502,27.5625a6.24855,6.24855,0,0,0,1.76953-2.08936,5.99549,5.99549,0,0,0,.64551-2.82031v-0.0835a5.62229,5.62229,0,0,0-2.18652-4.67871,9.81928,9.81928,0,0,0-6.18457-1.71338h-9.95312V29.33789h9.82813Z"/>
    <path class="cls-2" d="M227.61914,14.22021h20.74023v1.957H229.78516V27.71338h16.7002v1.95654h-16.7002V41.415h18.78223v1.957H227.61914V14.22021Z"/>
    <path class="cls-2" d="M257.60449,14.22021h20.74023v1.957H259.77051V27.71338h16.7002v1.95654h-16.7002V41.415h18.78223v1.957H257.60449V14.22021Z"/>
    <path class="cls-2" d="M295.66992,16.17725H285.50781v-1.957h22.48926v1.957H297.835V43.37207h-2.165V16.17725Z"/>
  </g>
  <polygon class="cls-3" points="11 11.109 11 45.776 22.854 45.776 22.854 39.859 18.354 39.859 18.354 39.692 18.354 33.984 18.354 16.526 21.104 16.526 21.104 33.984 24.042 33.984 24.042 16.526 26.792 16.526 26.792 33.984 29.729 33.984 29.729 16.526 32.479 16.526 32.479 33.984 32.479 39.692 32.479 39.859 27.979 39.859 27.979 45.776 39.667 45.776 39.667 11.109 11 11.109"/>
</svg>
