<svg id="Layer_1" data-name="Layer 1" xmlns="http://www.w3.org/2000/svg" width="1000" height="400" viewBox="0 0 1000 400">
  <defs>
    <style>
      .cls-1 {
        fill: #1f70c1;
      }
    </style>
  </defs>
  <title>ibm</title>
  <path class="cls-1" d="M27.5,11V36.86182H211.44277V11H27.5Zm210.0041,0V36.86182H499.63086S472.85605,11,437.39375,11H237.5041Zm313.548,0V36.86182H709.635L700.22188,11H551.05215Zm272.27813,0-9.41309,25.86182H971.06035V11H823.33027ZM27.5,61.295V87.1568H211.44277V61.295H27.5Zm210.0041,0.03663V87.1568H530.048s-3.41674-19.90436-9.37617-25.82518H237.5041Zm313.548,0V87.1568H727.02148l-8.71172-25.82518H551.05215Zm253.452,0L795.79238,87.1568h175.268V61.33162H804.5041ZM80.36093,111.59v25.89844h79.66055V111.59H80.36093Zm210.00411,0v25.89844h79.66055V111.59H290.365Zm157.14316,0v25.89844h79.66055s5.05723-13.677,5.05723-25.89844H447.5082Zm156.40488,0v25.89844h141.2332L735.7332,111.59H603.91309Zm183.24141,0-9.45,25.89844H919.63906V111.59H787.15449ZM80.36093,161.9216v25.86179h79.66055V161.9216H80.36093Zm210.00411,0v25.86179H493.83535S510.856,174.51345,516.2791,161.9216H290.365Zm313.548,0v25.86179h79.66055V173.38724l5.05723,14.39615H834.55215l5.42637-14.39615v14.39615h79.66055V161.9216H770.1002l-7.93652,21.9056-7.97344-21.9056H603.91309Zm-523.55215,50.295v25.86179h79.66055V212.21659H80.36093Zm210.00411,0v25.86179H516.2791c-5.42429-12.55081-22.44375-25.86179-22.44375-25.86179H290.365Zm313.548,0v25.86179h79.66055V212.21659H603.91309Zm94.13086,0,9.63457,25.86179H817.0918l9.15469-25.86179H698.04395Zm141.93457,0v25.86179h79.66055V212.21659H839.97852Zm-759.61758,50.295v25.86182h79.66055V262.51157H80.36093Zm210.00411,0v25.86182h79.66055V262.51157H290.365Zm157.14316,0v25.86182H532.226c0-12.205-5.05723-25.86182-5.05723-25.86182H447.5082Zm156.40488,0v25.86182h79.66055V262.51157H603.91309Zm112.21875,0,9.33926,25.86182h73.34824l9.41309-25.86182H716.13184Zm123.84668,0v25.86182h79.66055V262.51157H839.97852Zm-811.03887,50.295V338.705H212.88242V312.80658H28.93964Zm208.56446,0V338.705H520.67188c5.95943-5.93019,9.37617-25.89842,9.37617-25.89842H237.5041Zm314.9877,0V338.705H683.57363V312.80658H552.4918Zm181.76484,0L743.8543,338.705h37.32012l9.007-25.89842h-55.9248Zm105.72188,0V338.705H972.5V312.80658H839.97852ZM28.93964,363.13818V389H212.88242V363.13818H28.93964Zm208.56446,0v25.82519H437.39375c35.4623,0,62.23711-25.82519,62.23711-25.82519H237.5041Zm314.9877,0V389H683.57363V363.13818H552.4918Zm199.96348,0,9.22852,25.78854,1.5873,0.03665,9.37617-25.82519h-20.192Zm87.52324,0V389H972.5V363.13818H839.97852Z"/>
</svg>
