<svg id="Layer_1" data-name="Layer 1" xmlns="http://www.w3.org/2000/svg" width="21.59cm" height="14.2581cm" viewBox="0 0 612 404.16667">
  <defs>
    <style>
      .cls-1 {
        fill: #0e7dc2;
      }
    </style>
  </defs>
  <title>intel</title>
  <g>
    <path class="cls-1" d="M291.09719,348.12519c-112.5508,10.3828-229.86089-5.9707-246.292-93.9297-8.0381-43.3603,11.7422-89.3398,37.9458-117.9194V121.01489C35.5469,162.4143,9.96533,214.7981,24.7002,276.676c18.8227,79.3672,119.4766,124.3125,273.1558,109.3877,60.82859-5.8945,140.38129-25.4541,195.72309-55.8525V287.0588C443.35159,316.9856,360.292,341.7063,291.09719,348.12519ZM587.59379,119.9836C560.89649-10.3577,307.82229-18.6199,144.687,80.6833V91.6516C307.63569,7.8772,538.77149,8.3865,559.81539,128.4543c7.06061,39.7183-15.3125,81.0977-55.2822,104.9229v31.1543C552.61519,246.8957,601.93258,189.8537,587.59379,119.9836Z"/>
    <path class="cls-1" d="M484.47949,101.0032h-29.5098V232.4348c0,15.4033,7.44631,28.7978,29.5098,30.9385V101.0032Z"/>
    <path class="cls-1" d="M133.1001,148.9914H103.5356l-0.0151,85.8692c0,15.457,7.4692,28.8369,29.5796,30.9385V148.9914Z"/>
    <rect class="cls-1" x="103.5356" y="105.0012" width="29.4717" height="27.97269"/>
    <path class="cls-1" d="M309.83009,264.4387c-23.8853,0-33.9937-16.6006-33.9937-32.9551V117.4695h29.253v31.5219h22.0307v23.628h-22.0307V229.676c0,6.668,3.1655,10.3828,10.11861,10.3828h11.91209v24.3799h-17.29"/>
    <path class="cls-1" d="M363.65919,215.8645c0,14.9707,9.3623,25.9717,25.92481,25.9717,12.97849,0,19.376-3.6006,26.86809-11.001l18.0772,17.21869c-11.5889,11.44931-23.7324,18.40921-45.1611,18.40921-27.99519,0-54.8184-15.2793-54.8184-59.82321,0-38.08109,23.4395-59.607,54.169-59.607,31.24021,0,49.1933,25.19971,49.1933,58.27891v10.5527h-74.2529m23.7783-44.6362c-10.0127,0-17.7061,5.1567-20.9668,12.1132a30.22733,30.22733,0,0,0-2.8115,12.5767h45.084C408.17189,183.3415,402.46969,171.2283,387.43749,171.2283Z"/>
    <path class="cls-1" d="M212.55219,172.6194c8.5782,0,12.1436,4.2407,12.1436,11.124v80.8662h29.2593V183.5735c0-16.42-8.7486-34.5513-34.4429-34.5513l-60.4409-.0308V264.6096h29.2705V172.6194h24.2104Z"/>
    <path class="cls-1" d="M516.23049,124.488a11.74249,11.74249,0,1,1,11.7881-11.7427A11.68442,11.68442,0,0,1,516.23049,124.488Zm0-21.5268a9.76083,9.76083,0,1,0,9.81051,9.7841A9.86764,9.86764,0,0,0,516.23049,102.9612Zm5.206,16.82169h-2.1943a0.49447,0.49447,0,0,1-.4473-0.29339l-2.9668-5.0449a0.88068,0.88068,0,0,0-.417-0.2315h-1.3593v5.02879a0.51681,0.51681,0,0,1-.4942.541h-1.9785a0.53789,0.53789,0,0,1-.49409-0.541V106.5578a0.93774,0.93774,0,0,1,.89549-1.1396c0.7109-.0772,2.5654-0.1699,3.6006-0.1699,3.6611,0,5.8095,1.0781,5.8095,4.47259v0.24761a3.55729,3.55729,0,0,1-2.64159,3.75l3.08989,5.2607a0.94413,0.94413,0,0,1,.07711.3716A0.41785,0.41785,0,0,1,521.43649,119.78289Zm-2.8427-10.062c0-1.417-.8809-1.86519-2.7657-1.86519H513.958v4.0244c0.294,0,1.62309.0615,1.87009,0.0615,1.8848,0,2.7657-.6289,2.7657-1.9731v-0.24761Z"/>
  </g>
</svg>
