<svg id="Layer_1" data-name="Layer 1" xmlns="http://www.w3.org/2000/svg" width="202" height="204" viewBox="0 0 202 204">
  <defs>
    <style>
      .cls-1 {
        fill: #fff;
      }

      .cls-2 {
        fill: #ed2224;
      }
    </style>
  </defs>
  <title>l-3</title>
  <circle class="cls-1" cx="100.55519" cy="102.06398" r="93.47998"/>
  <g>
    <path class="cls-2" d="M7.07369,102.06541a93.05282,93.05282,0,0,0,20.2657,58.0869V43.978A93.05323,93.05323,0,0,0,7.07369,102.06541Z"/>
    <path class="cls-2" d="M100.55519,8.584A93.08534,93.08534,0,0,0,40.09909,30.79h31.2847V137.09961h55.4873c-11.6968-3.5391-19.72409-12.457-18.89009-27.3638h17.67529c-0.2247,9.229,4.3378,13.7847,13.9003,13.7847,6.4473,0,12.5606-2.7783,12.5606-9.56151,0-8.56059-6.2246-10.55959-13.78319-10.55959-1.66991,0-3.33791.1094-5.00781,0.2217V90.5c1.6699-.10939,3.3379.22311,5.00781,0.11231,5.55659,0,12.56049-1.44431,12.56049-8.1167,0-5.0029-5.0019-7.7827-11.1172-7.7827-7.6738,0-12.1191,4.0029-12.0078,11.0078h-17.6782c0.4443-17.3462,13.0083-26.3516,29.5728-26.3516,13.455,0,28.9101,5.67089,28.9101,21.4585,0,6.7828-3.6699,13.8985-10.7851,15.1216v0.2237c8.8925,2.333,13.2304,8.6713,13.2304,17.78609,0,17.56831-16.0097,24.90821-31.3554,24.90821a49.5874,49.5874,0,0,1-5.0157-.2754v35.1426H40.55569A93.4752,93.4752,0,1,0,100.55519,8.584Z"/>
  </g>
</svg>
