<svg id="Layer_1" data-name="Layer 1" xmlns="http://www.w3.org/2000/svg" viewBox="0 0 344.06358 135.83399">
  <defs>
    <style>
      .cls-1 {
        fill: #231f20;
      }

      .cls-2 {
        fill: #556757;
      }

      .cls-3 {
        fill: #00a85d;
      }
    </style>
  </defs>
  <title>linode</title>
  <g>
    <path class="cls-1" d="M3181.72659,4686.15077l8.969-2.1527v43.19746q0,7.10343,4.234,8.46624-2.08026,3.95053-7.10372,3.94877-6.10019,0-6.09932-8.468v-44.99178h0Z" transform="translate(-3042.38601 -4644.798)"/>
    <path class="cls-1" d="M3208.88714,4685.57759a5.20591,5.20591,0,1,1-3.6774,1.52384,5.0131,5.0131,0,0,1,3.6774-1.52384h0Zm-4.628,53.31494v-31.07111h-4.91556v-7.3549H3213.337v38.426h-9.07782Z" transform="translate(-3042.38601 -4644.798)"/>
    <path class="cls-1" d="M3248.49629,4738.89253v-22.20911q0-4.91469-1.88269-7.17545-1.88584-2.26081-6.15253-2.26051a9.54225,9.54225,0,0,0-4.21667,1.112,9.72522,9.72522,0,0,0-3.49861,2.76269v27.77036h-8.969v-38.426h6.458l1.65009,3.58838q3.66152-4.30625,10.79966-4.30568,6.85259,0,10.81756,4.10666,3.96441,4.11193,3.96381,11.46325v23.5734h-8.9696Z" transform="translate(-3042.38601 -4644.798)"/>
    <path class="cls-1" d="M3273.97142,4719.589q0,12.70289,9.149,12.702a7.86938,7.86938,0,0,0,6.65591-3.30077q2.45691-3.30048,2.45662-9.40125,0-12.51972-9.11253-12.52032a7.90855,7.90855,0,0,0-6.67325,3.30077q-2.476,3.29961-2.47575,9.21955h0Zm-9.3295,0q0-8.78968,5.077-14.31446,5.07786-5.52548,13.40149-5.52532,8.75239,0,13.59762,5.31008,4.84352,5.30958,4.845,14.5297,0,9.18547-4.93583,14.60264-4.932,5.418-13.5068,5.4189-8.755,0-13.61613-5.471-4.86092-5.47185-4.86236-14.55055h0Z" transform="translate(-3042.38601 -4644.798)"/>
    <path class="cls-1" d="M3333.45631,4709.65143a9.4711,9.4711,0,0,0-5.99057-2.29575q-5.38156,0-8.28632,3.28223-2.90731,3.284-2.90848,9.41859,0,11.98167,11.55469,11.98341a8.713,8.713,0,0,0,3.17518-.77181,5.78722,5.78722,0,0,0,2.45549-1.561v-20.05567h0Zm0,29.2411v-2.33163a9.07012,9.07012,0,0,1-3.76594,2.13494,16.71985,16.71985,0,0,1-5.48894.9147q-8.039,0-12.64875-5.09433-4.60833-5.09433-4.61008-14.20918,0-9.11253,5.29394-14.83521a17.29587,17.29587,0,0,1,13.2551-5.72259,17.55417,17.55417,0,0,1,7.96467,1.79335v-15.3918l8.97018-2.1527v54.89446h-8.97018Z" transform="translate(-3042.38601 -4644.798)"/>
    <path class="cls-1" d="M3358.57333,4715.67961h18.87189q-0.93381-8.43216-9.32773-8.43215-7.67969,0-9.54416,8.43215h0Zm27.12465,6.745H3358.2499a9.74537,9.74537,0,0,0,3.15726,7.13961,11.45094,11.45094,0,0,0,7.82345,2.54743q6.13239,0,9.32664-3.19257l3.48186,6.85091q-4.73848,3.84374-14.138,3.84055-8.79148,0-13.902-5.15045-5.11515-5.1464-5.11517-14.3683,0-9.07521,5.61676-14.70966a18.34513,18.34513,0,0,1,13.4733-5.63292q8.35744,0,13.41708,4.98666a17.07013,17.07013,0,0,1,5.05849,12.70142,25.1142,25.1142,0,0,1-.75161,4.9873h0Z" transform="translate(-3042.38601 -4644.798)"/>
    <path class="cls-2" d="M3070.68581,4705.86236l-5.15416-35.18664-21.15465-13.15357,6.87037,33.19056,19.43844,15.14965h0Zm5.88548,40.238-3.631-24.81269-18.55873-15.4624,4.98229,24.06461,17.20745,16.21047h0Zm-14.413-2.73318,3.6729,17.74717,15.3213,16.26254-2.62231-17.90744-16.37189-16.10227h0Zm49.61526-7.69387-7.82925-5.97551,0.05959,1.40074a0.80945,0.80945,0,0,1-.35814.70932l-5.90452,3.97828,6.42119,5.24131,0.01272,0.01271c0.01678,0.01448.03009,0.03183,0.04571,0.04742a0.76471,0.76471,0,0,1,.08968.10357c0.01447,0.02085.026,0.04223,0.03877,0.06482a0.77241,0.77241,0,0,1,.05554.11456c0.00926,0.0243.01678,0.04859,0.02373,0.07405a0.80032,0.80032,0,0,1,.02371.1296c0.00174,0.01619.00753,0.03182,0.00868,0.04859l0.2621,6.13463,7.20266,6.06286-0.15216-18.14695h0Zm26.8406-19.20285-1.53148,17.69741-5.0712-3.52872,0.54849-9.02575c0.00057-.00983-0.00231-0.01969-0.00231-0.0295,0-.01156.00405-0.02315,0.00347-0.03471a0.79588,0.79588,0,0,0-.015-0.10531c-0.00405-.02546-0.00463-0.05092-0.011-0.07522a0.80625,0.80625,0,0,0-.06885-0.18109l-0.00636-.01561a0.82122,0.82122,0,0,0-.12844-0.17185c-0.01041-.01042-0.02256-0.01851-0.03356-0.02834a0.78636,0.78636,0,0,0-.10241-0.08795l-10.91016-7.20558,0.15853-7.90678,17.17032,10.699h0Z" transform="translate(-3042.38601 -4644.798)"/>
    <g>
      <path class="cls-3" d="M3100.69739,4691.78931l-1.4289-33.40728-32.08565,12.32911,5.24327,35.79,28.27129-14.71178h0Zm1.6605,38.92279-1.04952-24.62814-26.72142,15.20955,3.747,25.603,24.02392-16.18443h0Zm0.54039,12.48271-22.72533,16.25908,2.76085,18.843,20.75771-16.53679-0.79322-18.56527h0Zm10.50515-7.50931,0.15159,18.21639,16.196-12.91781,1.07962-17.76452-17.42721,12.46594h0Zm40.39426-28.89627-2.27727,16.8521-12.77316,10.18173,1.49966-17.3352,13.55077-9.69862h0Z" transform="translate(-3042.38601 -4644.798)"/>
      <path class="cls-1" d="M3104.461,4741.62282c-0.00115-.01677-0.00694-0.0324-0.00868-0.04859a0.80032,0.80032,0,0,0-.02371-0.1296c-0.00695-.02546-0.01447-0.04976-0.02373-0.07405a0.77241,0.77241,0,0,0-.05554-0.11456c-0.01273-.02258-0.0243-0.044-0.03877-0.06482a0.76471,0.76471,0,0,0-.08968-0.10357c-0.01563-.01559-0.02893-0.03295-0.04571-0.04742l-0.01272-.01271-6.42119-5.24131,5.90452-3.97828a0.80945,0.80945,0,0,0,.35814-0.70932l-0.05959-1.40074,7.82925,5.97551,0.15216,18.14695-7.20266-6.06286-0.2621-6.13463h0Zm-31.52073-20.3351,3.631,24.81269-17.20745-16.21047-4.98229-24.06461,18.55873,15.4624h0Zm29.41762,9.42438-24.02392,16.18443-3.747-25.603,26.72142-15.20955,1.04952,24.62814h0Zm-3.0894-72.33007,1.4289,33.40728-28.27129,14.71178-5.24327-35.79,32.08565-12.32911h0Zm-33.73683,12.2937,5.15416,35.18664-19.43844-15.14965-6.87037-33.19056,21.15465,13.15357h0Zm0.29958,90.43867-3.6729-17.74717,16.37189,16.10227,2.62231,17.90744-15.3213-16.26254h0Zm37.86027,0.64569-20.75771,16.53679-2.76085-18.843,22.72533-16.25908,0.79322,18.56527h0Zm26.05952-20.776-16.196,12.91781-0.15159-18.21639,17.42721-12.46594-1.07962,17.76452h0Zm2.26049-10.3449,0.54849-9.02575c0.00057-.00983-0.00231-0.01969-0.00231-0.0295,0-.01156.00405-0.02315,0.00347-0.03471a0.79588,0.79588,0,0,0-.015-0.10531c-0.00405-.02546-0.00463-0.05092-0.011-0.07522a0.80625,0.80625,0,0,0-.06885-0.18109l-0.00636-.01561a0.82122,0.82122,0,0,0-.12844-0.17185c-0.01041-.01042-0.02256-0.01851-0.03356-0.02834a0.78636,0.78636,0,0,0-.10241-0.08795l-10.91016-7.20558,0.15853-7.90678,17.17032,10.699-1.53148,17.69741-5.0712-3.52872h0Zm6.73575,3.18387,1.49966-17.3352,13.55077-9.69862-2.27727,16.8521-12.77316,10.18173h0Zm16.92212-28.84129c-0.00058-.01561-0.00637-0.0295-0.00811-0.04513a0.86642,0.86642,0,0,0-.0162-0.0862,0.85478,0.85478,0,0,0-.04108-0.13076,0.71616,0.71616,0,0,0-.03471-0.07405,0.807,0.807,0,0,0-.07984-0.11918c-0.0162-.02025-0.03066-0.0405-0.0486-0.059a0.82751,0.82751,0,0,0-.125-0.103c-0.01446-.00983-0.02429-0.02371-0.03934-0.0324l-0.01156-.00463a0.11507,0.11507,0,0,0-.01331-0.00985l-18.54617-10.27639a0.81308,0.81308,0,0,0-.81868.01864l-15.65331,9.56925a0.79268,0.79268,0,0,0-.06828.055,0.813,0.813,0,0,0-.081.0648,0.82423,0.82423,0,0,0-.06943.08622,0.93332,0.93332,0,0,0-.05786.07753,0.81875,0.81875,0,0,0-.04744.1082,0.73168,0.73168,0,0,0-.03413.08272,0.86683,0.86683,0,0,0-.0191.12324c-0.00289.02717-.01156,0.05264-0.01215,0.07983l-0.16664,8.31007-6.36778-4.20568a0.81275,0.81275,0,0,0-.87422-0.01617l-9.16056,5.60059-0.39749-9.3133c-0.00115-.01967-0.00751-0.03759-0.00983-0.0567a0.84014,0.84014,0,0,0-.02141-0.12093,0.64918,0.64918,0,0,0-.03067-0.085,0.88209,0.88209,0,0,0-.04571-0.10124,0.95463,0.95463,0,0,0-.05553-0.081,0.87225,0.87225,0,0,0-.06538-0.081,0.82433,0.82433,0,0,0-.07926-0.06884c-0.01795-.01446-0.0324-0.0324-0.0515-0.04513l-9.53373-6.40395,8.92391-4.64374a0.81685,0.81685,0,0,0,.43683-0.7577l-1.49851-35.05674a0.82688,0.82688,0,0,0-.02083-0.12561,0.53147,0.53147,0,0,0-.00869-0.05259,0.79376,0.79376,0,0,0-.08331-0.19915c-0.00636-.01128-0.01561-0.02047-0.02256-0.03142a0.80646,0.80646,0,0,0-.11225-0.13763c-0.01562-.015-0.03239-0.0276-0.04917-0.04143a0.72349,0.72349,0,0,0-.06943-0.05855,0.67993,0.67993,0,0,0-.06364-0.03159c-0.01041-.00573-0.01851-0.01481-0.0295-0.02014l-24.04482-11.60226a0.8091,0.8091,0,0,0-.59611-0.04463l-32.79448,10.21515-0.00689.0033c-0.01321.00427-.02477,0.01324-0.03782,0.01816a0.80973,0.80973,0,0,0-.173.08627l-0.00487.00243c-0.01831.01278-.0306,0.03084-0.04762,0.04484a0.81537,0.81537,0,0,0-.11715.1104,0.79807,0.79807,0,0,0-.0607.09771,0.49917,0.49917,0,0,0-.0939.23166,0.79376,0.79376,0,0,0-.02218.07984,0.022,0.022,0,0,0,.00064.00794,2.64886,2.64886,0,0,0,.00768.24183c0.00108,0.00608-.00023.012,0.001,0.01805l7.31752,35.343a0.81443,0.81443,0,0,0,.29688.47662l9.93138,7.74091-7.18,3.41867c-0.01292.00636-.0231,0.01621-0.0356,0.02257-0.01082.00637-.023,0.00752-0.03362,0.0139-0.01568.00925-.0262,0.02371-0.04107,0.03411a0.82755,0.82755,0,0,0-.114.09549,0.71034,0.71034,0,0,0-.05735.0619,0.79854,0.79854,0,0,0-.08828.13885c-0.00931.01852-.02142,0.03471-0.02933,0.05324a0.81351,0.81351,0,0,0-.059.21349l0.00041,0.00577c-0.00168.01448,0.00053,0.026-.00028,0.03763a0.80471,0.80471,0,0,0,.00971.19728c0.00147,0.00867-.00051.01736,0.00122,0.026l5.50519,26.59933a0.81222,0.81222,0,0,0,.23872.42756l6.91309,6.51128-4.58068,2.802a0.78487,0.78487,0,0,0-.15963.1296c-0.0125.01273-.02205,0.02779-0.03356,0.04107a0.81111,0.81111,0,0,0-.1016.1516c-0.00925.01794-.0185,0.0353-0.02638,0.05382a0.71711,0.71711,0,0,0-.05288.45591c0.00152,0.0081-.00069.01677,0.00111,0.02546l4.26528,20.60068a0.8132,0.8132,0,0,0,.20453.39226l17.25034,18.31359a0.84372,0.84372,0,0,0,.08493.07232c0.01053,0.00869.0195,0.01794,0.03038,0.026a0.81971,0.81971,0,0,0,.17184.096l0.00787,0.00406,0.016,0.00346a0.81759,0.81759,0,0,0,.28264.05382,0.80723,0.80723,0,0,0,.23872-0.04052c0.01811-.00577.03517-0.01156,0.05294-0.0185a0.632,0.632,0,0,0,.06259-0.02257,0.7537,0.7537,0,0,0,.08772-0.06134,0.71664,0.71664,0,0,0,.06514-0.03644l22.18991-17.67772a0.81826,0.81826,0,0,0,.30665-0.67115l-0.519-12.13846,7.41327,6.23932c0.0133,0.0116.03009,0.015,0.044,0.02546a0.79449,0.79449,0,0,0,.13017.08678c0.01562,0.007.03239,0.00983,0.048,0.01621,0.02024,0.0081.03934,0.01448,0.06017,0.02083a0.71761,0.71761,0,0,0,.47847.00231c0.01851-.00579.03587-0.01158,0.05381-0.01852,0.0191-.0075.03818-0.011,0.05612-0.01909a0.79805,0.79805,0,0,0,.11051-0.07349c0.0162-.011.03471-0.015,0.04975-0.02719l17.78767-14.18545a0.81686,0.81686,0,0,0,.30491-0.589l0.54154-8.90136,5.412,3.76708c0.011,0.00752.02431,0.00984,0.0353,0.01679,0.01562,0.0104.02777,0.02431,0.044,0.033a0.79264,0.79264,0,0,0,.09893.03759c0.02256,0.00869.044,0.01909,0.06711,0.02546a0.80357,0.80357,0,0,0,.21813.0324,0.81522,0.81522,0,0,0,.23779-0.03934c0.01851-.00581.03587-0.011,0.05323-0.01794,0.01851-.007.03761-0.0104,0.05555-0.0185a0.89132,0.89132,0,0,0,.1215-0.0787c0.01273-.00867.02777-0.01215,0.03991-0.022l14.5112-11.56453a0.81957,0.81957,0,0,0,.29912-0.52938l2.57407-19.04608c0.0029-.02023-0.00173-0.03992-0.00057-0.06017a0.89472,0.89472,0,0,0,.00637-0.096h0Z" transform="translate(-3042.38601 -4644.798)"/>
    </g>
  </g>
</svg>
