<svg id="Layer_1" data-name="Layer 1" xmlns="http://www.w3.org/2000/svg" width="296.99993mm" height="102.65833mm" viewBox="0 0 841.88958 291">
  <defs>
    <style>
      .cls-1 {
        fill: #ee7917;
      }

      .cls-2 {
        fill: #dc5809;
      }

      .cls-3 {
        fill: #f9b500;
      }

      .cls-4 {
        fill: #b5b6b6;
      }

      .cls-5 {
        fill: #85888c;
      }

      .cls-6 {
        fill: #e8e9e8;
      }

      .cls-7 {
        fill: #e2a200;
      }

      .cls-8 {
        fill: #ffd600;
      }

      .cls-9 {
        fill: #f7b700;
      }

      .cls-10 {
        fill: #3a3c42;
      }
    </style>
  </defs>
  <title>optum</title>
  <g>
    <path class="cls-1" d="M171.998,171.2412c-3.8271,14.791-7.5922,30.0733-11.2675,45.626,16.5039,10.6611,32.6753,21.1748,48.7934,30.1797-12.3364-23.3867-24.7143-49.1406-37.52589-75.8057"/>
    <path class="cls-2" d="M171.998,171.2412c14.754,10.5215,29.168,21.1865,43.35649,31.0488-1.9219,14.4131-3.876,29.3682-5.8306,44.7569-12.3364-23.3867-24.7143-49.1406-37.52589-75.8057"/>
    <path class="cls-2" d="M171.998,171.2412c-3.8271,14.791-7.5922,30.0733-11.2675,45.626-16.4829-10.6358-33.2979-21.4365-50.1949-31.0606a376.99628,376.99628,0,0,1,61.4624-14.5654"/>
    <path class="cls-3" d="M171.998,171.2412c-14.7421-10.5298-29.8281-20.9287-45.0693-30.2578-5.6133,14.7334-11.083,29.7705-16.3931,44.8232a376.99628,376.99628,0,0,1,61.4624-14.5654"/>
    <path class="cls-1" d="M188.792,110.6191q-3.77341,12.6915-7.5591,26.2671c13.2261,10.6241,26.0786,21.5142,38.6323,31.9947-10.2021-18.3018-20.4653-37.9766-31.07319-58.2618"/>
    <path class="cls-2" d="M188.792,110.6191c11.89839,10.7344,23.40329,21.8096,34.55569,32.7037-1.1265,8.2475-2.2818,16.7905-3.4825,25.5581-10.2021-18.3018-20.4653-37.9766-31.07319-58.2618"/>
    <path class="cls-3" d="M171.998,171.2412c3.0567-11.792,6.1333-23.2681,9.2227-34.355,13.2339,10.6158,26.0869,21.5142,38.6406,31.9947a241.08265,241.08265,0,0,0-47.86329,2.3603"/>
    <path class="cls-1" d="M171.998,171.2412c14.754,10.5215,29.168,21.1865,43.35649,31.0488q2.3166-17.2206,4.5068-33.4091a241.08265,241.08265,0,0,0-47.86329,2.3603"/>
    <path class="cls-4" d="M188.792,110.6191q3.13469-10.5468,6.228-20.396c10.73049,10.8082,21.07569,21.9693,31.02,33.1094a164.08229,164.08229,0,0,0-37.248-12.7134"/>
    <path class="cls-5" d="M188.792,110.6191c11.89839,10.7344,23.40329,21.8096,34.55569,32.7037q1.4076-10.28835,2.69231-19.9903a164.08229,164.08229,0,0,0-37.248-12.7134"/>
    <path class="cls-5" d="M188.792,110.6191q3.13469-10.5468,6.228-20.396c-10.7348-10.8081-21.8667-21.248-33.3061-30.9458,9.2719,17.2247,18.2773,34.4942,27.0781,51.3418"/>
    <path class="cls-6" d="M188.792,110.6191c-11.898-10.7304-24.1733-21.125-36.7354-30.684,3.2041-7.125,6.4288-14.0288,9.6573-20.6578,9.2719,17.2247,18.2773,34.4942,27.0781,51.3418"/>
    <path class="cls-2" d="M81.2695,116.9941c-7.1582,14.9346-14.0654,29.9834-20.8545,44.7168,16.2657,6.023,33.2325,14.4717,50.1123,24.0996-9.6484-23.5874-19.4658-46.708-29.2578-68.8164"/>
    <path class="cls-1" d="M81.2695,116.9941a347.917,347.917,0,0,1,45.6631,23.9893c-5.6133,14.7373-11.0747,29.7744-16.4053,44.8271-9.6484-23.5874-19.4658-46.708-29.2578-68.8164"/>
    <path class="cls-7" d="M81.2695,116.9941c-7.1582,14.9346-14.0654,29.9834-20.8545,44.7168-16.2412-6.0268-31.7988-9.624-45.352-9.5913a209.42331,209.42331,0,0,1,66.2065-35.1255"/>
    <path class="cls-8" d="M81.2695,116.9941c-15.0122-6.3584-29.6884-10.792-43.1557-12.4433-8.0225,16.0693-15.6226,32.1103-23.0508,47.5688a209.42331,209.42331,0,0,1,66.2065-35.1255"/>
    <path class="cls-8" d="M113.8218,54.2168c-5.0972,8.8955-10.0952,18.1182-14.9956,27.5254C84.9199,74.8423,71.1411,69.5078,58.0713,66.3774a159.00116,159.00116,0,0,1,55.7505-12.1606"/>
    <path class="cls-9" d="M113.8218,54.2168A224.62632,224.62632,0,0,0,75.6074,36.3535c-6.0439,9.7266-11.8906,19.7852-17.5361,30.0239a159.00116,159.00116,0,0,1,55.7505-12.1606"/>
    <path class="cls-9" d="M81.2695,116.9941c5.6953-11.8984,11.5459-23.7226,17.5606-35.2519C84.9282,74.8379,71.1494,69.5078,58.0674,66.3774c7.6201,16.0367,15.4053,33.003,23.2021,50.6167"/>
    <path class="cls-7" d="M81.2695,116.9941c-15.0122-6.3584-29.6884-10.792-43.1557-12.4433,6.3755-12.8037,13.021-25.6192,19.9536-38.1734,7.6201,16.0367,15.4053,33.003,23.2021,50.6167"/>
    <path class="cls-5" d="M113.8218,54.2168c4.228-7.3911,8.5141-14.5654,12.853-21.4609a373.27458,373.27458,0,0,1,35.043,26.5127,170.28774,170.28774,0,0,0-47.896-5.0518"/>
    <path class="cls-4" d="M113.8218,54.2168a363.58433,363.58433,0,0,1,38.2348,25.7227c3.2002-7.125,6.4288-14.0332,9.6612-20.6709a170.28774,170.28774,0,0,0-47.896-5.0518"/>
    <path class="cls-9" d="M113.8218,54.2168c4.228-7.3911,8.5141-14.5654,12.853-21.4609A250.62739,250.62739,0,0,0,91.0454,12.8848c7.6289,13.2993,15.2378,27.1435,22.7764,41.332"/>
    <path class="cls-7" d="M113.8218,54.2168A224.62632,224.62632,0,0,0,75.6074,36.3535c5.0274-8.0801,10.169-15.9346,15.438-23.4687,7.6289,13.2993,15.2378,27.1435,22.7764,41.332"/>
    <path class="cls-10" d="M311.59769,260.4287c-31.72069,0-53.8374-24.0498-53.8374-53.2471,0-29.205,22.4116-53.5459,54.1362-53.5459,31.7041,0,53.8369,24.0381,53.8369,53.251,0,29.1963-22.41939,53.542-54.1357,53.542m0-90.1299c-20.5108,0-34.8101,16.3809-34.8101,36.5879,0,20.1914,14.6025,36.8828,35.1089,36.8828,20.5024,0,34.8056-16.3808,34.8056-36.5879,0-20.2197-14.59809-36.8828-35.1044-36.8828"/>
    <path class="cls-10" d="M421.19339,225.4629H400.687v33.1875H382.54489V155.3975H423.25c24.04689,0,39.24709,13.5781,39.24709,34.666,0,23.3135-18.5928,35.3994-41.3037,35.3994m0.5898-53.5415H400.687v37.1782h21.09619c13.7139,0,22.2686-7.5234,22.2686-18.5937,0-12.2422-8.711-18.5845-22.2686-18.5845"/>
    <polygon class="cls-10" points="522.521 258.659 504.231 258.659 504.231 172.221 471.486 172.221 471.486 155.401 555.266 155.401 555.266 172.221 522.521 172.221 522.521 258.659"/>
    <path class="cls-10" d="M659.69528,213.959c0,30.8271-17.40428,46.3066-44.3974,46.3066-26.8448,0-43.9463-15.4795-43.9463-45.414V155.3975h18.1347v58.7168c0,19.167,9.89071,29.4834,26.1231,29.4834,16.0605,0,25.9433-9.7266,25.9433-28.7461V155.3975h18.1426V213.959"/>
    <polygon class="cls-10" points="730.2 233.289 729.626 233.289 697.316 184.901 697.316 258.659 679.469 258.659 679.469 155.398 698.799 155.398 730.2 204.231 761.617 155.398 780.939 155.398 780.939 258.659 762.797 258.659 762.797 184.606 730.2 233.289"/>
  </g>
</svg>
