<svg id="state_u" data-name="state u" xmlns="http://www.w3.org/2000/svg" width="20.44365pc" height="9.05276pc" viewBox="0 0 245.32374 108.63309">
  <defs>
    <style>
      .cls-1 {
        fill: #231f20;
      }

      .cls-2 {
        fill: #e31837;
        fill-rule: evenodd;
      }
    </style>
  </defs>
  <title>rdcs</title>
  <g>
    <path class="cls-1" d="M82.77139,81.83207L82.725,81.76713q0.019-.55371.02783-1.126,0.00952-.572.00928-1.26416,0-.99683-0.00439-1.64746-0.00513-.65039-0.01855-1.06152-0.01392-.41016-0.02783-0.70117-0.01392-.29077-0.03223-0.61377l0.05518-.06445,1.35693-.02783h0.28613c0.09229-.00635.18457-0.00928,0.27686-0.00928a7.20683,7.20683,0,0,1,1.26416.09668,2.66952,2.66952,0,0,1,.96924.374,2.225,2.225,0,0,1,.67822.65039,2.76126,2.76126,0,0,1,.36475.77539,3.9387,3.9387,0,0,1,.13818.67822q0.02783,0.28638.02783,0.5542a4.16653,4.16653,0,0,1-.249,1.50391,2.9334,2.9334,0,0,1-.51709.89551,2.60372,2.60372,0,0,1-.68262.56738,3.10106,3.10106,0,0,1-.74316.30469,4.84476,4.84476,0,0,1-.78906.13379c-0.08643.00635-.1709,0.0127-0.25391,0.01855s-0.17676.01221-.28125,0.01855H83.38955Zm1.02441-.78467h0.41553a7.55843,7.55843,0,0,0,.83984-0.0415,2.41827,2.41827,0,0,0,.69678-0.18457,1.913,1.913,0,0,0,.59961-0.41992,2.11821,2.11821,0,0,0,.44775-0.729,3.7882,3.7882,0,0,0,.22168-1.36621q0-.19336-0.01416-0.3877a2.91363,2.91363,0,0,0-.07812-0.46143,2.18408,2.18408,0,0,0-.208-0.53027,1.68758,1.68758,0,0,0-.37354-0.46631,1.6452,1.6452,0,0,0-.41992-0.26318,2.12116,2.12116,0,0,0-.44775-0.13818,3.045,3.045,0,0,0-.40137-0.05078q-0.18018-.00952-0.3833-0.00928c-0.20264,0-.46143.00635-0.7749,0.01855H83.7958q-0.00952.18457-.01367,0.40137-0.00513.2168-.00488,0.44775-0.00952.52588-.00928,1.44873,0,1.03418.00488,1.47217,0.00439,0.43872.01367,1.01074C83.79287,80.87846,83.7958,80.96147,83.7958,81.04741Z"/>
    <path class="cls-1" d="M95.997,81.04741c-0.00635.09229-.01221,0.16455-0.01855,0.2168-0.00586.05225-.01221,0.14307-0.01855,0.27246,0,0.043-.00293.11084-0.00879,0.20313l-0.06494.06445q-1.3938,0-2.85156.01855l-0.98779.00928-0.0459-.06494,0.00928-.23047c0.00586-.1416.01221-0.30762,0.01807-0.49854q0.00952-.28564.01855-0.5166,0.00952-.67383.00928-1.67041,0-1.385-.00928-1.9292c-0.00586-.314-0.01221-0.58887-0.01855-0.82617q-0.00879-.35522-0.03662-0.74268l0.05518-.06445H92.767q1.79956-.019,3.15625-0.02783l0.05518,0.06445c-0.00586.07373-.01221,0.13867-0.01855,0.19385-0.01221.08008-.02148,0.15869-0.02734,0.23535Q95.923,75.87016,95.914,76.045l-0.05518.06494q-0.35083-.00952-0.62793-0.01855-0.27686-.00879-0.646-0.00928-0.35962-.00879-1.1626-0.01855H93.099q-0.00952.25854-.01367,0.52637c-0.00342.17822-.00781,0.3291-0.01416,0.45215v0.9873q1.01514,0,1.41211-.00439t1.19971-.01416l0.04639,0.06494q-0.02783.2124-.03223,0.32275c-0.00342.07422-.00781,0.17871-0.01416,0.314v0.07373l-0.05518.06494q-0.323-.00952-0.65088-0.01416c-0.21826-.00293-0.4043-0.00781-0.55811-0.01367H93.07119q0,0.22119-.00928.646v0.877q0.00952,0.46143.00928,0.68262,1.11694,0,1.51367-.00928c0.17822,0,.354-0.00293.52637-0.00928q0.25781-.00879.83057-0.02734Z"/>
    <path class="cls-1" d="M100.8793,81.80424h-0.51709q-0.074.00879-.498,0.02783l-0.05566-.06494q0.01831-.4519.02344-0.918,0.00439-.46582.00439-1.19531,0-1.43994-.01367-2.395-0.01392-.95508-0.06934-1.90576l0.0459-.06445c0.043,0,.20312-0.00342.48-0.00928,0.28906-.00635.46484-0.00928,0.52637-0.00928l0.60889-.01855q0.572,0,.8999.02295a2.76427,2.76427,0,0,1,.623.11523,1.96037,1.96037,0,0,1,.623.32324,1.61442,1.61442,0,0,1,.397.45215,1.95436,1.95436,0,0,1,.20752.51709,2.23848,2.23848,0,0,1,.06445.52588,1.97063,1.97063,0,0,1-.27686,1.03369,1.92436,1.92436,0,0,1-.4751.54,2.2095,2.2095,0,0,1-.62793.33691,3.4849,3.4849,0,0,1-.729.166,7.00869,7.00869,0,0,1-.835.0459c-0.08008,0-.15723-0.00293-0.231-0.00928H100.87v0.15723q0.00879,0.821.01855,1.061c0.00586,0.1665.01221,0.33691,0.01855,0.5127q0.00879,0.26294.02734,0.6875Zm0.23047-3.23926q0.50757-.00952.69238-0.02783A2.45916,2.45916,0,0,0,102.08828,78.5a2.13942,2.13942,0,0,0,.32764-0.09229,1.24337,1.24337,0,0,0,.34619-0.19385,1.04751,1.04751,0,0,0,.27686-0.332,1.32873,1.32873,0,0,0,.15674-0.66455,1.38992,1.38992,0,0,0-.11084-0.57227,1.0725,1.0725,0,0,0-.28125-0.35986,1.10889,1.10889,0,0,0-.35986-0.19873,1.66764,1.66764,0,0,0-.36475-0.07373q-0.175-.01392-0.3877-0.01367c-0.17236,0-.30127.00146-0.3877,0.00439q-0.12891.00513-.31348,0.02344l-0.12939.00928v0.63672q-0.00952.35962-.00928,0.65527,0,0.10181.00928,0.61816v0.62744Q100.87026,78.57377,101.10976,78.565Z"/>
    <path class="cls-1" d="M110.31143,75.482q0.25854,0.8584.49854,1.64307,0.2395,0.78442.43359,1.39355c0.08594,0.271.13867,0.43066,0.15674,0.48q0.71118,2.20605.86768,2.71338l-0.03662.07373c-0.21582.00635-.38623,0.01074-0.51221,0.01416-0.12646.00293-.3125,0.01025-0.55859,0.02295l-0.06445-.06494q-0.03735-.14722-0.09717-0.36426-0.06006-.2168-0.15674-0.56787-0.09668-.3501-0.16162-0.56738c-0.043-.14453-0.06787-0.229-0.07373-0.25391l-0.05518-.19385c-0.062,0-.24316-0.00293-0.54492-0.00928h-1.18115q-0.498.00952-.57227,0.00928-0.09229.2959-.16162,0.54-0.06885.24463-.11084,0.3877-0.041.14282-.0874,0.30908-0.04614.16626-.12012,0.4248c-0.01855.07959-.04,0.16309-0.06445,0.249l-0.06445.06445c-0.21582,0-.37549.00146-0.48,0.00488q-0.15747.00439-.4707,0.02295l-0.03711-.06445a2.85034,2.85034,0,0,1,.10156-0.28613q0.52588-1.49561,1.02441-2.99023,0.35083-1.02466.41553-1.22754,0.06445-.20288.189-0.57715,0.12451-.37354.23535-0.71533,0.1106-.34131.18457-0.59961l0.07373-.06445h0.11084q0.397-.00952.61377-0.01416,0.2168-.00439.59521-0.02295l0.06494,0.06445Zm-1.82715,3.59033h0.44287q0.36914,0.00952.44287,0.00928c0.04932,0,.209-0.00293.48-0.00928h0.48926L109.453,75.95268Z"/>
    <path class="cls-1" d="M116.79922,81.80424h-0.52588q-0.074.00879-.48926,0.02783l-0.05566-.06494q0.03735-1.19019.03711-2.69482,0-.80273-0.00488-1.3335-0.00439-.531-0.01807-0.92285-0.01392-.39258-0.03223-0.75244-0.019-.35962-0.03711-0.71045l0.05518-.06445h0.563q0.37866-.00952.6001-0.00928l0.563-.00928q0.50757,0,.82617.02734a2.72138,2.72138,0,0,1,.62256.12939,1.72583,1.72583,0,0,1,.8584.58594,1.68768,1.68768,0,0,1,.30469,1.04785,1.74422,1.74422,0,0,1-.37354,1.09326,2.21186,2.21186,0,0,1-1.20459.71533c0.01221,0.0127.05225,0.06787,0.12012,0.1665q0.10107,0.14722.2168,0.31348,0.115,0.16626.50293,0.729l0.20313,0.29541,0.01855,0.02783q0.304,0.43359.37842,0.53516,0.07324,0.10181.28564,0.3833,0.2124,0.28125.30469,0.40137l-0.03662.09229q-0.37866,0-.563.00928-0.38818.01831-.58154,0.03662l-0.06445-.0459-0.11084-.19385q-0.19409-.35083-0.62793-0.99658-0.14722-.2124-0.249-0.36914-0.04614-.06445-0.23975-0.36035-0.05566-.08276-0.17578-0.26758-0.11938-.18457-0.17529-0.26758-0.1106-.16626-0.23975-0.332h-0.22168c-0.1416.00586-.28906,0.00928-0.44287,0.00928q0,0.62769.00928,1.25488,0.00879,0.43433.02295,0.82129,0.01392,0.38818.03223,0.62793Zm1.19971-3.59473a1.36318,1.36318,0,0,0,.68311-0.291,0.96332,0.96332,0,0,0,.35059-0.7749,1.195,1.195,0,0,0-.17529-0.63672,0.8774,0.8774,0,0,0-.53516-0.397,4.14025,4.14025,0,0,0-.95068-0.083q-0.28638,0-.6001.00928v0.73828q-0.00952.22119-.00928,0.39648,0,0.1853.00928,0.40625v0.70166A8.21155,8.21155,0,0,0,117.99893,78.20951Z"/>
    <path class="cls-1" d="M127.7084,76.08207q-0.62842-.01831-0.84912-0.01855h-0.84912q-0.019.7478-.01855,0.99219v0.8999q0,0.75659.00439,1.4165,0.00513,0.66064.01416,1.09375,0.00879,0.43433.02295,0.71094,0.01392,0.27686.02295,0.563l-0.05518.06445h-0.53564q-0.08276.00879-.52588,0.02783l-0.0459-.06494q0.05493-1.55054.05518-3.876,0-.5354-0.00439-0.8584-0.00513-.323-0.01416-0.73828c-0.00635-.06787-0.00928-0.14453-0.00928-0.231h-0.11963q-0.665.00952-.76611,0.00928-0.249.00952-.41553,0.01367c-0.11084.00342-.249,0.00781-0.415,0.01416l-0.05566-.06445q0.00952-.16626.01855-0.3418,0.00879-.175.01855-0.34131l0.0459-.06445q1.72632,0,2.39063-.00928,0.71045,0,2.13184-.01855l0.04639,0.06445v0.01855q-0.02783.28638-.03271,0.38281c-0.00293.06494-.00439,0.16162-0.00439,0.291Z"/>
    <path class="cls-1" d="M137.63906,75.32524q0.074,3.46069.24023,6.41455l-0.04639.06445q-0.33179,0-.70117.01855-0.09229,0-.29541.00928l-0.05518-.06494q0-.895-0.00928-1.375,0-.42407-0.01855-1.00586l-0.01855-.97852q0-.47974-0.00928-1.541v-0.877q-0.02783.12012-.10156,0.374-0.074.25342-.15674,0.53955-0.0835.28638-.41553,1.40283l-0.42432,1.33838q-0.09229.27686-.20752,0.62744-0.11572.35083-.15234,0.4707c-0.0249.08008-.06787,0.21729-0.12939,0.41064q-0.09229.29077-.17529,0.58643l-0.05518.06445h-0.52637a1.493,1.493,0,0,1-.15674.00928c-0.04932,0-.17871.00586-0.3877,0.01855l-0.05518-.06494q-0.093-.31348-0.13867-0.46143-0.02783-.1106-0.08789-0.31348t-0.17041-.59082q-0.1106-.38745-0.208-0.70605c-0.06445-.2124-0.09961-0.33057-0.106-0.35547l-0.36914-1.292q-0.18457-.65552-0.24463-0.88135c-0.04-.15088-0.07812-0.29395-0.11523-0.4292s-0.06787-.2583-0.09229-0.36914c-0.0249-.11084-0.05225-0.23682-0.083-0.37842q-0.00952.60938-.01416,0.80273-0.00439.19409-.02295,0.90479l-0.00928.34131L132.05557,79.691c-0.00635.17188-.01221,0.34131-0.01855,0.50732s-0.00928.35059-.00928,0.55371q-0.00879.41528-.01855,0.76611v0.22168l-0.0459.06445q-0.34131,0-.48.00439c-0.09229.00342-.22754,0.01074-0.40625,0.02344l-0.0459-.06494q0.00879-.04614.02783-0.28613,0.0271-.23.02734-0.27686,0.06445-.72876.13867-2.19629,0.03662-.72876.05518-1.09814l0.01855-.33252q0.02783-.38745.04639-0.77051,0.01831-.38306.02734-0.55859,0.00952-.36914.00928-0.895l0.05566-.06445q0.44238,0,.60449-0.00488,0.16113-.00439.58594-0.01367c0.01221,0,.08887-0.00342.23047-0.00928l0.06494,0.06445q0.1106,0.48926.22607,0.9043,0.115,0.416.28125,0.99707l1.00635,3.72852,1.17188-3.84863q0.08276-.28564.17529-0.563,0.1106-.37793.18457-0.60889c0.04932-.15381.08447-0.27246,0.10645-0.35547,0.02148-.083.0415-0.1582,0.05957-0.22607l0.05566-.06445q0.51636,0,1.02441-.01855l0.36914-.00928Z"/>
    <path class="cls-1" d="M146.07461,81.04741c-0.00635.09229-.01221,0.16455-0.01855,0.2168-0.00586.05225-.01221,0.14307-0.01855,0.27246,0,0.043-.00293.11084-0.00879,0.20313l-0.06494.06445q-1.3938,0-2.85156.01855l-0.98779.00928-0.0459-.06494,0.00928-.23047c0.00586-.1416.01221-0.30762,0.01807-0.49854q0.00952-.28564.01855-0.5166,0.00952-.67383.00928-1.67041,0-1.385-.00928-1.9292c-0.00586-.314-0.01221-0.58887-0.01855-0.82617q-0.00879-.35522-0.03662-0.74268l0.05518-.06445h0.72021q1.79956-.019,3.15625-0.02783l0.05518,0.06445c-0.00586.07373-.01221,0.13867-0.01855,0.19385-0.01221.08008-.02148,0.15869-0.02734,0.23535q-0.00952.11572-.01855,0.29053l-0.05518.06494q-0.35083-.00952-0.62793-0.01855-0.27686-.00879-0.646-0.00928-0.35962-.00879-1.1626-0.01855h-0.32324q-0.00952.25854-.01367,0.52637c-0.00342.17822-.00781,0.3291-0.01416,0.45215v0.9873q1.01514,0,1.41211-.00439t1.19971-.01416l0.04639,0.06494q-0.02783.2124-.03223,0.32275c-0.00342.07422-.00781,0.17871-0.01416,0.314v0.07373l-0.05518.06494q-0.323-.00952-0.65088-0.01416c-0.21826-.00293-0.4043-0.00781-0.55811-0.01367h-1.34766q0,0.22119-.00928.646v0.877q0.00952,0.46143.00928,0.68262,1.11694,0,1.51367-.00928c0.17822,0,.354-0.00293.52637-0.00928q0.25781-.00879.83057-0.02734Z"/>
    <path class="cls-1" d="M155.02676,81.73979l-0.0459.06445h-0.563q-0.09229.00879-.57227,0.02783l-0.07373-.06494q-1.08911-1.938-1.64307-2.90723l-1.458-2.60254,0.09229,3.16553q0.00879,0.25854.01855,0.57227c0.00586,0.21582.01221,0.40918,0.01855,0.58154l0.00879,0.249q0.02783,0.67383.03711,0.91406l-0.05518.06445q-0.31421,0-.44775.00439c-0.08936.00342-.23535,0.01074-0.43848,0.02344l-0.05518-.06494q0.04614-1.0979.0459-2.63916,0-2.27051-.05518-3.7749l0.0459-.06445H150.08c0.27686-.00635.45361-0.01074,0.53076-0.01416,0.07715-.00293.23242-0.00781,0.46631-0.01367l0.09229,0.06445q0.07324,0.12964.50732,0.91357,0.91406,1.64282,1.37549,2.45508l1.144,2.02148-0.07373-3.06445q-0.01831-.58154-0.02295-0.84912-0.00513-.26733-0.01855-0.57227-0.01392-.304-0.01855-0.46143-0.00439-.15674-0.02295-0.415l0.05518-.06445q0.22192,0,.34619-0.00488c0.083-.00293.20459-0.00781,0.36475-0.01367a1.31058,1.31058,0,0,1,.166-0.00928l0.05518,0.06445q-0.03662,2.2522-.03662,3.415,0,1.3103.02783,2.61182Z"/>
    <path class="cls-1" d="M163.01016,76.08207q-0.62842-.01831-0.84912-0.01855h-0.84912q-0.019.7478-.01855,0.99219v0.8999q0,0.75659.00439,1.4165,0.00513,0.66064.01416,1.09375,0.00879,0.43433.02295,0.71094,0.01392,0.27686.02295,0.563l-0.05518.06445H160.767q-0.08276.00879-.52588,0.02783l-0.0459-.06494q0.05493-1.55054.05518-3.876,0-.5354-0.00439-0.8584-0.00513-.323-0.01416-0.73828c-0.00635-.06787-0.00928-0.14453-0.00928-0.231h-0.11963q-0.665.00952-.76611,0.00928-0.249.00952-.41553,0.01367c-0.11084.00342-.249,0.00781-0.415,0.01416l-0.05566-.06445q0.00952-.16626.01855-0.3418,0.00879-.175.01855-0.34131l0.0459-.06445q1.72632,0,2.39063-.00928,0.71045,0,2.13184-.01855l0.04639,0.06445v0.01855q-0.02783.28638-.03271,0.38281c-0.00293.06494-.00439,0.16162-0.00439,0.291Z"/>
    <path class="cls-1" d="M172.5624,81.03813a3.583,3.583,0,0,1-.78467-2.4458,4.59,4.59,0,0,1,.20313-1.40723,3.14578,3.14578,0,0,1,.59082-1.08936,2.56614,2.56614,0,0,1,.95508-0.70117,3.17453,3.17453,0,0,1,1.269-.24463,2.75349,2.75349,0,0,1,2.17822.91357,3.67372,3.67372,0,0,1,.80273,2.51025,3.5409,3.5409,0,0,1-.80762,2.49658,2.8528,2.8528,0,0,1-2.20117.87256A2.80288,2.80288,0,0,1,172.5624,81.03813Zm3.08252-.07812a1.69056,1.69056,0,0,0,.59082-0.57715,2.69629,2.69629,0,0,0,.33643-0.83984,4.60608,4.60608,0,0,0,.10645-1.01514c0-.09814-0.00488-0.22168-0.01416-0.36914a4.81864,4.81864,0,0,0-.05518-0.48,3.77984,3.77984,0,0,0-.12012-0.51221,1.89848,1.89848,0,0,0-.20752-0.457,1.55282,1.55282,0,0,0-.812-0.68262,1.76315,1.76315,0,0,0-.374-0.09229,2.67163,2.67163,0,0,0-.2998-0.01855,1.678,1.678,0,0,0-.92773.23535,1.759,1.759,0,0,0-.55811.54883,2.27383,2.27383,0,0,0-.208.44336,3.01535,3.01535,0,0,0-.12891.498c-0.02783.1665-.04785,0.32617-0.06006,0.48s-0.01855.28955-.01855,0.40625a5.54632,5.54632,0,0,0,.083.92285,2.47481,2.47481,0,0,0,.29541.84912,1.6778,1.6778,0,0,0,1.51367.86768A1.6932,1.6932,0,0,0,175.64492,80.96Z"/>
    <path class="cls-1" d="M184.98525,78.96147q-0.28638-.00879-0.57715-0.01807-0.29077-.00952-0.39209-0.00928-0.323,0-1.00586-.00928h-0.22168V79.128c-0.00635.20264-.00928,0.36279-0.00928,0.47949q0,0.49878.01367,1.0752,0.01392,0.57715.05078,1.05713l-0.0459.06445q-0.38745,0-.79395.01855l-0.27686.00928-0.0459-.06494q0.00879-.249.02295-0.53027,0.01392-.282.02295-0.688,0.00952-.84888.00928-2.74072,0-.84961-0.01367-1.37549-0.01392-.52588-0.0415-1.07959l0.0459-.06445q0.99683,0,2.21533-.00928,0.76538-.00952,1.043-0.00928c0.18457,0,.33789-0.00342.46143-0.00928l0.0459,0.06445c-0.01855.1416-.0293,0.249-0.03223,0.32324-0.00293.07373-.00781,0.17822-0.01367,0.31348a0.50976,0.50976,0,0,0-.00928.10156l-0.05566.05566-0.18457-.00928q-0.33179,0-.71973-0.00928-0.38745-.00952-0.45215-0.00928-0.46143-.00879-1.22754-0.00928-0.00952.44312-.01855,0.97363-0.00952.531-.00928,0.88135v0.2124q0.7478-.00879,1.19043-0.01855,0.30469-.00879,1.09863-0.02783l0.0459,0.05566-0.02734.35986c-0.0127.14746-.0249,0.27393-0.03711,0.37842Z"/>
    <path class="cls-1" d="M87.55215,91.63334c-0.01855.19727-.03223,0.3584-0.0415,0.48486q-0.01392.189-.02295,0.4292l-0.05566.06445a3.88758,3.88758,0,0,1-.71533.28125,3.66155,3.66155,0,0,1-1.02881.125,3.59752,3.59752,0,0,1-1.34766-.24023,2.75971,2.75971,0,0,1-1.01514-.6875,2.99579,2.99579,0,0,1-.63232-1.0752,4.24677,4.24677,0,0,1-.2168-1.39355q0-.24023.02295-0.50293a3.995,3.995,0,0,1,.10645-0.6001,3.28877,3.28877,0,0,1,.2583-0.6875,2.8943,2.8943,0,0,1,.45215-0.65527,2.65887,2.65887,0,0,1,.6001-0.49854,2.89018,2.89018,0,0,1,.64111-0.29053,3.35019,3.35019,0,0,1,.60938-0.12939,5.31509,5.31509,0,0,1,.58594-0.03223,4.72235,4.72235,0,0,1,.95068.083,5.00276,5.00276,0,0,1,.73828.2124l0.03711,0.07373c-0.0249.166-.0415,0.30176-0.05078,0.40625s-0.02.24316-.03223,0.415l-0.0835.03711a2.7586,2.7586,0,0,0-.59521-0.291,2.606,2.606,0,0,0-.87207-0.12451,2.10019,2.10019,0,0,0-1.68408.69238,2.77621,2.77621,0,0,0-.5957,1.87354,2.67766,2.67766,0,0,0,.61377,1.90576,2.11307,2.11307,0,0,0,1.61084.65088,2.50751,2.50751,0,0,0,.96875-0.1665,3.92461,3.92461,0,0,0,.72949-0.39648Z"/>
    <path class="cls-1" d="M91.61318,92.11332a3.583,3.583,0,0,1-.78467-2.4458,4.59,4.59,0,0,1,.20313-1.40723,3.14578,3.14578,0,0,1,.59082-1.08936,2.56614,2.56614,0,0,1,.95508-0.70117,3.17453,3.17453,0,0,1,1.269-.24463,2.75349,2.75349,0,0,1,2.17822.91357,3.67372,3.67372,0,0,1,.80273,2.51025,3.5409,3.5409,0,0,1-.80762,2.49658,2.8528,2.8528,0,0,1-2.20117.87256A2.80288,2.80288,0,0,1,91.61318,92.11332Zm3.08252-.07812a1.69056,1.69056,0,0,0,.59082-0.57715,2.69629,2.69629,0,0,0,.33643-0.83984,4.60608,4.60608,0,0,0,.10645-1.01514c0-.09814-0.00488-0.22168-0.01416-0.36914a4.81868,4.81868,0,0,0-.05518-0.48,3.77983,3.77983,0,0,0-.12012-0.51221,1.89848,1.89848,0,0,0-.20752-0.457,1.55282,1.55282,0,0,0-.812-0.68262,1.76314,1.76314,0,0,0-.374-0.09229,2.67163,2.67163,0,0,0-.2998-0.01855,1.678,1.678,0,0,0-.92773.23535,1.759,1.759,0,0,0-.55811.54883,2.27382,2.27382,0,0,0-.208.44336,3.01534,3.01534,0,0,0-.12891.498c-0.02783.1665-.04785,0.32617-0.06006,0.48s-0.01855.28955-.01855,0.40625a5.54632,5.54632,0,0,0,.083.92285,2.47481,2.47481,0,0,0,.29541.84912,1.6778,1.6778,0,0,0,1.51367.86768A1.6932,1.6932,0,0,0,94.6957,92.0352Z"/>
    <path class="cls-1" d="M105.91836,92.815l-0.0459.06445h-0.563q-0.09229.00879-.57227,0.02783l-0.07373-.06494q-1.08911-1.938-1.64307-2.90723l-1.458-2.60254,0.09229,3.16553q0.00879,0.25854.01855,0.57227c0.00586,0.21582.01221,0.40918,0.01855,0.58154l0.00879,0.249q0.02783,0.67383.03711,0.91406l-0.05518.06445q-0.31421,0-.44775.00439c-0.08936.00342-.23535,0.01074-0.43848,0.02344l-0.05518-.06494q0.04614-1.0979.0459-2.63916,0-2.27051-.05518-3.7749l0.0459-.06445h0.19385c0.27686-.00635.45361-0.01074,0.53076-0.01416,0.07715-.00293.23242-0.00781,0.46631-0.01367l0.09229,0.06445q0.07324,0.12964.50732,0.91357,0.91406,1.64282,1.37549,2.45508l1.144,2.02148-0.07373-3.06445q-0.01831-.58154-0.02295-0.84912-0.00513-.26733-0.01855-0.57227-0.01392-.304-0.01855-0.46143-0.00439-.15674-0.02295-0.415l0.05518-.06445q0.22192,0,.34619-0.00488c0.083-.00293.20459-0.00781,0.36475-0.01367a1.31058,1.31058,0,0,1,.166-0.00928l0.05518,0.06445q-0.03662,2.2522-.03662,3.415,0,1.3103.02783,2.61182Z"/>
    <path class="cls-1" d="M113.90176,87.15727q-0.62842-.01831-0.84912-0.01855h-0.84912q-0.019.7478-.01855,0.99219v0.8999q0,0.75659.00439,1.4165,0.00513,0.66064.01416,1.09375,0.00879,0.43433.02295,0.71094,0.01392,0.27686.02295,0.563l-0.05518.06445h-0.53564q-0.08276.00879-.52588,0.02783l-0.0459-.06494q0.05493-1.55054.05518-3.876,0-.5354-0.00439-0.8584-0.00513-.323-0.01416-0.73828c-0.00635-.06787-0.00928-0.14453-0.00928-0.231h-0.11963q-0.665.00952-.76611,0.00928-0.249.00952-.41553,0.01367c-0.11084.00342-.249,0.00781-0.415,0.01416l-0.05566-.06445q0.00952-.16626.01855-0.3418,0.00879-.175.01855-0.34131l0.0459-.06445q1.72632,0,2.39063-.00928,0.71045,0,2.13184-.01855l0.04639,0.06445V86.419q-0.02783.28638-.03271,0.38281c-0.00293.06494-.00439,0.16162-0.00439,0.291Z"/>
    <path class="cls-1" d="M118.55361,86.40043q-0.019.49878-.03223,1.1582-0.01392.65991-.01416,1.77686,0,1.25537.01855,2.04883,0.00879,0.37866.02295,0.70117c0.00928,0.21582.02,0.4585,0.03223,0.72949l-0.05518.06445c-0.08643,0-.17236.00293-0.2583,0.00928q-0.46143.00879-.76611,0.01855l-0.05518-.06494V92.75q0.01831-.47974.02734-0.92725,0.00952-.44751.00928-1.22314,0-2.77734-.06445-4.16211l0.0459-.07373q0.34131,0,.52637-0.00488,0.18457-.00439.498-0.02295Z"/>
    <path class="cls-1" d="M128.06826,92.815l-0.0459.06445h-0.563q-0.09229.00879-.57227,0.02783l-0.07373-.06494q-1.08911-1.938-1.64307-2.90723l-1.458-2.60254,0.09229,3.16553q0.00879,0.25854.01855,0.57227c0.00586,0.21582.01221,0.40918,0.01855,0.58154l0.00879,0.249q0.02783,0.67383.03711,0.91406l-0.05518.06445q-0.31421,0-.44775.00439c-0.08936.00342-.23535,0.01074-0.43848,0.02344l-0.05518-.06494q0.04614-1.0979.0459-2.63916,0-2.27051-.05518-3.7749l0.0459-.06445h0.19385c0.27686-.00635.45361-0.01074,0.53076-0.01416,0.07715-.00293.23242-0.00781,0.46631-0.01367l0.09229,0.06445q0.07324,0.12964.50732,0.91357,0.91406,1.64282,1.37549,2.45508l1.144,2.02148L127.164,88.72612q-0.01831-.58154-0.02295-0.84912-0.00513-.26733-0.01855-0.57227-0.01392-.304-0.01855-0.46143-0.00439-.15674-0.02295-0.415l0.05518-.06445q0.22192,0,.34619-0.00488c0.083-.00293.20459-0.00781,0.36475-0.01367a1.31058,1.31058,0,0,1,.166-0.00928l0.05518,0.06445q-0.03662,2.2522-.03662,3.415,0,1.3103.02783,2.61182Z"/>
    <path class="cls-1" d="M137.372,86.40043l-0.00928.43359q-0.019.7478-.01855,1.35693,0,0.69214.00928,1.38428l0.00928,0.83057c0,0.19727-.00342.36768-0.00928,0.51221a3.11371,3.11371,0,0,1-.06006.4707,2.18289,2.18289,0,0,1-.166.49854,1.81688,1.81688,0,0,1-.30029.44775,2.00211,2.00211,0,0,1-.81641.51221,3.3038,3.3038,0,0,1-1.08447.1709,3.58015,3.58015,0,0,1-.75684-0.07422,2.72385,2.72385,0,0,1-.58643-0.189,2.18685,2.18685,0,0,1-.40576-0.24023,2.16089,2.16089,0,0,1-.27246-0.24463,1.859,1.859,0,0,1-.28613-0.42871,1.90622,1.90622,0,0,1-.14746-0.4707,3.65741,3.65741,0,0,1-.05566-0.52637q-0.00879-.27173-0.00879-0.77979V87.72026q-0.00952-.22119-0.00928-0.41992,0-.19849-0.01855-0.87207l0.06445-.06445h0.13867q0.60864-.019.895-0.02783l0.04639,0.06445q-0.00952.30469-.01855,0.79395-0.00952.48926-.00928,0.99658-0.00952.646-.00928,1.73535a8.84972,8.84972,0,0,0,.06006,1.2041,1.28347,1.28347,0,0,0,.28125.66016,1.19032,1.19032,0,0,0,.43408.31836,1.69581,1.69581,0,0,0,.71973.13379,2.43145,2.43145,0,0,0,.29053-0.01855,1.60711,1.60711,0,0,0,.34619-0.08789,1.30524,1.30524,0,0,0,.374-0.21191,1.1254,1.1254,0,0,0,.2998-0.3833,1.5908,1.5908,0,0,0,.1709-0.60889q0.03223-.35083.03223-1.02441,0-.97852-0.01367-1.87354-0.01392-.895-0.06006-1.606l0.0459-.06445h0.12012l0.729-.02783Z"/>
    <path class="cls-1" d="M142.82607,86.40043q-0.019.49878-.03223,1.1582-0.01392.65991-.01416,1.77686,0,1.25537.01855,2.04883,0.00879,0.37866.02295,0.70117c0.00928,0.21582.02,0.4585,0.03223,0.72949l-0.05518.06445c-0.08643,0-.17236.00293-0.2583,0.00928q-0.46143.00879-.76611,0.01855l-0.05518-.06494V92.75q0.01831-.47974.02734-0.92725,0.00952-.44751.00928-1.22314,0-2.77734-.06445-4.16211l0.0459-.07373q0.34131,0,.52637-0.00488,0.18457-.00439.498-0.02295Z"/>
    <path class="cls-1" d="M152.34072,92.815l-0.0459.06445h-0.563q-0.09229.00879-.57227,0.02783l-0.07373-.06494q-1.08911-1.938-1.64307-2.90723l-1.458-2.60254,0.09229,3.16553q0.00879,0.25854.01855,0.57227c0.00586,0.21582.01221,0.40918,0.01855,0.58154l0.00879,0.249q0.02783,0.67383.03711,0.91406l-0.05518.06445q-0.31421,0-.44775.00439c-0.08936.00342-.23535,0.01074-0.43848,0.02344l-0.05518-.06494q0.04614-1.0979.0459-2.63916,0-2.27051-.05518-3.7749l0.0459-.06445h0.19385c0.27686-.00635.45361-0.01074,0.53076-0.01416,0.07715-.00293.23242-0.00781,0.46631-0.01367l0.09229,0.06445q0.07324,0.12964.50732,0.91357,0.91406,1.64282,1.37549,2.45508l1.144,2.02148-0.07373-3.06445q-0.01831-.58154-0.02295-0.84912-0.00513-.26733-0.01855-0.57227-0.01392-.304-0.01855-0.46143-0.00439-.15674-0.02295-0.415l0.05518-.06445q0.22192,0,.34619-0.00488c0.083-.00293.20459-0.00781,0.36475-0.01367a1.31058,1.31058,0,0,1,.166-0.00928l0.05518,0.06445q-0.03662,2.2522-.03662,3.415,0,1.3103.02783,2.61182Z"/>
    <path class="cls-1" d="M161.6625,89.73246q-0.02783.47021-.03662,0.9873-0.00952.51709-.00928,1.03369,0,0.323.00928,0.67383a1.09747,1.09747,0,0,1,.00928.14746l-0.05566.06494a5.2116,5.2116,0,0,1-.95508.28613,5.28844,5.28844,0,0,1-1.00146.09229,4.55933,4.55933,0,0,1-1.43066-.22168,2.69847,2.69847,0,0,1-1.15332-.73828,2.92224,2.92224,0,0,1-.59082-0.99707,3.88977,3.88977,0,0,1-.22168-1.35645,4.049,4.049,0,0,1,.23535-1.41211,3.33993,3.33993,0,0,1,.6416-1.08887,2.80174,2.80174,0,0,1,1.292-.83105,3.472,3.472,0,0,1,.59082-0.11963,4.99379,4.99379,0,0,1,.5166-0.02783,4.33835,4.33835,0,0,1,1.09863.12012,4.63248,4.63248,0,0,1,.78418.27686l0.04639,0.06445q-0.03735.26807-.05566,0.4292-0.01831.16187-.0459,0.46631l-0.07373.01807A4.05083,4.05083,0,0,0,160.518,87.208a2.54887,2.54887,0,0,0-.95947-0.16162,3.06041,3.06041,0,0,0-.36475.02295,2.22564,2.22564,0,0,0-.42432.10156,1.83135,1.83135,0,0,0-.47559.24951,2.04305,2.04305,0,0,0-.44287.43848,2.31023,2.31023,0,0,0-.40625.89941,4.59829,4.59829,0,0,0-.10156.94629,2.68651,2.68651,0,0,0,.59082,1.83643,2.12549,2.12549,0,0,0,1.689.67383,2.47082,2.47082,0,0,0,.48926-0.0415q0.20288-.04175.43359-0.106l0.02783-.00928,0.00928-.69238q0-.61816-0.04639-1.46729c-0.00586-.07373-0.00928-0.12012-0.00928-0.13867l0.05566-.06445h0.54443c0.09814,0,.26123-0.00586.48926-0.01855Z"/>
    <path class="cls-1" d="M173.42959,89.18754h0.00928q0.34131,0.14795.58154,0.28174a2.61078,2.61078,0,0,1,.4707.34131,1.524,1.524,0,0,1,.36914.51709,1.7577,1.7577,0,0,1,.13867.72412,1.831,1.831,0,0,1-.61377,1.39844,2.49849,2.49849,0,0,1-1.7583.56787,3.90932,3.90932,0,0,1-1.08008-.12939,4.81765,4.81765,0,0,1-.74756-0.27686l-0.03662-.06445q0.01831-.17578.03223-0.30469c0.00928-.08643.0166-0.19092,0.02295-0.314,0-.01221.00635-0.08887,0.01855-0.23047l0.09229-.03711a0.114,0.114,0,0,1,.02783.01855,3.93946,3.93946,0,0,0,.6875.36914,2.34977,2.34977,0,0,0,.90918.15674,1.49359,1.49359,0,0,0,1.01025-.29541,0.95051,0.95051,0,0,0,.33691-0.74756,0.831,0.831,0,0,0-.28613-0.67383,2.97331,2.97331,0,0,0-.84912-0.45215l-0.46143-.20312-0.01807-.00879c-0.23437-.11084-0.42627-0.20947-0.57715-0.29541a2.51258,2.51258,0,0,1-.44775-0.33252,1.50971,1.50971,0,0,1-.355-0.498,1.66356,1.66356,0,0,1-.13379-0.69238,1.63973,1.63973,0,0,1,.28613-0.96924,1.68164,1.68164,0,0,1,.80762-0.61816,3.16606,3.16606,0,0,1,1.13037-.19385,4.12786,4.12786,0,0,1,.83984.07373q0.35083,0.074.82129,0.22168l0.04639,0.07373q-0.019.16626-.03223,0.35059c-0.00928.12354-.02,0.231-0.03271,0.32324l-0.00879.13818-0.07422.03711a5.36434,5.36434,0,0,0-.729-0.314,2.52431,2.52431,0,0,0-.79346-0.11035,1.51962,1.51962,0,0,0-.90918.24414,0.77446,0.77446,0,0,0-.33691.66016,0.66619,0.66619,0,0,0,.13379.43848,1.41417,1.41417,0,0,0,.33691.29053,1.36609,1.36609,0,0,0,.19385.106q0.1106,0.05127.5166,0.22656Z"/>
    <path class="cls-1" d="M182.49307,87.15727q-0.62842-.01831-0.84912-0.01855h-0.84912q-0.019.7478-.01855,0.99219v0.8999q0,0.75659.00439,1.4165,0.00513,0.66064.01416,1.09375,0.00879,0.43433.02295,0.71094,0.01392,0.27686.02295,0.563l-0.05518.06445H180.2499q-0.08276.00879-.52588,0.02783l-0.0459-.06494q0.05493-1.55054.05518-3.876,0-.5354-0.00439-0.8584-0.00513-.323-0.01416-0.73828c-0.00635-.06787-0.00928-0.14453-0.00928-0.231h-0.11963q-0.665.00952-.76611,0.00928-0.249.00952-.41553,0.01367c-0.11084.00342-.249,0.00781-0.415,0.01416l-0.05566-.06445q0.00952-.16626.01855-0.3418,0.00879-.175.01855-0.34131l0.0459-.06445q1.72632,0,2.39063-.00928,0.71045,0,2.13184-.01855l0.04639,0.06445V86.419q-0.02783.28638-.03271,0.38281c-0.00293.06494-.00439,0.16162-0.00439,0.291Z"/>
    <path class="cls-1" d="M191.00283,86.40043l-0.00928.43359q-0.019.7478-.01855,1.35693,0,0.69214.00928,1.38428l0.00928,0.83057c0,0.19727-.00342.36768-0.00928,0.51221a3.11369,3.11369,0,0,1-.06006.4707,2.18289,2.18289,0,0,1-.166.49854,1.81689,1.81689,0,0,1-.30029.44775,2.00211,2.00211,0,0,1-.81641.51221,3.3038,3.3038,0,0,1-1.08447.1709,3.58015,3.58015,0,0,1-.75684-0.07422,2.72385,2.72385,0,0,1-.58643-0.189,2.18685,2.18685,0,0,1-.40576-0.24023,2.16088,2.16088,0,0,1-.27246-0.24463,1.859,1.859,0,0,1-.28613-0.42871,1.90622,1.90622,0,0,1-.14746-0.4707,3.65741,3.65741,0,0,1-.05566-0.52637q-0.00879-.27173-0.00879-0.77979V87.72026q-0.00952-.22119-0.00928-0.41992,0-.19849-0.01855-0.87207l0.06445-.06445h0.13867q0.60864-.019.895-0.02783l0.04639,0.06445q-0.00952.30469-.01855,0.79395-0.00952.48926-.00928,0.99658-0.00952.646-.00928,1.73535a8.84974,8.84974,0,0,0,.06006,1.2041,1.28347,1.28347,0,0,0,.28125.66016,1.19032,1.19032,0,0,0,.43408.31836,1.69581,1.69581,0,0,0,.71973.13379,2.43145,2.43145,0,0,0,.29053-0.01855,1.60711,1.60711,0,0,0,.34619-0.08789,1.30524,1.30524,0,0,0,.374-0.21191,1.1254,1.1254,0,0,0,.2998-0.3833,1.5908,1.5908,0,0,0,.1709-0.60889q0.03223-.35083.03223-1.02441,0-.97852-0.01367-1.87354-0.01392-.895-0.06006-1.606l0.0459-.06445h0.12012l0.729-.02783Z"/>
    <path class="cls-1" d="M195.40469,92.90727l-0.04639-.06494q0.019-.55371.02783-1.126,0.00952-.572.00928-1.26416,0-.99683-0.00439-1.64746-0.00513-.65039-0.01855-1.06152-0.01392-.41016-0.02783-0.70117-0.01392-.29077-0.03223-0.61377l0.05518-.06445,1.35693-.02783h0.28613c0.09229-.00635.18457-0.00928,0.27686-0.00928a7.20292,7.20292,0,0,1,1.26416.09668,2.67532,2.67532,0,0,1,.96973.374,2.22867,2.22867,0,0,1,.67773.65039,2.76315,2.76315,0,0,1,.36523.77539,4.04109,4.04109,0,0,1,.13867.67822c0.01758,0.19092.02734,0.37549,0.02734,0.5542a4.16586,4.16586,0,0,1-.25,1.50391,2.92119,2.92119,0,0,1-.51562.89551,2.6312,2.6312,0,0,1-.68359.56738,3.093,3.093,0,0,1-.74316.30469,4.85379,4.85379,0,0,1-.78906.13379c-0.08643.00635-.1709,0.0127-0.25391,0.01855s-0.17676.01221-.28125,0.01855h-1.19092Zm1.02441-.78467h0.41553a7.55843,7.55843,0,0,0,.83984-0.0415,2.41507,2.41507,0,0,0,.69629-0.18457,1.90746,1.90746,0,0,0,.59961-0.41992,2.12031,2.12031,0,0,0,.44922-0.729,3.81051,3.81051,0,0,0,.2207-1.36621c0-.12891-0.00391-0.2583-0.01367-0.3877a2.971,2.971,0,0,0-.07812-0.46143,2.16827,2.16827,0,0,0-.209-0.53027,1.6858,1.6858,0,0,0-.373-0.46631,1.63683,1.63683,0,0,0-.41992-0.26318,2.11721,2.11721,0,0,0-.44727-0.13818,3.0617,3.0617,0,0,0-.40186-0.05078q-0.18018-.00952-0.3833-0.00928c-0.20264,0-.46143.00635-0.7749,0.01855H196.4291q-0.00952.18457-.01367,0.40137-0.00513.2168-.00488,0.44775-0.00952.52588-.00928,1.44873,0,1.03418.00488,1.47217,0.00439,0.43872.01367,1.01074C196.42617,91.95366,196.4291,92.03666,196.4291,92.1226Z"/>
    <path class="cls-1" d="M205.75967,86.40043q-0.01758.49878-.03223,1.1582-0.01318.65991-.01367,1.77686,0,1.25537.01855,2.04883,0.00879,0.37866.02344,0.70117c0.00879,0.21582.01953,0.4585,0.03223,0.72949l-0.05566.06445c-0.08594,0-.17187.00293-0.25879,0.00928q-0.46143.00879-.76562,0.01855l-0.05566-.06494V92.75c0.0127-.31982.02148-0.62891,0.02832-0.92725q0.00879-.44751.00879-1.22314,0-2.77734-.06445-4.16211l0.0459-.07373c0.22754,0,.40332-0.00146.52637-0.00488q0.18457-.00439.498-0.02295Z"/>
    <path class="cls-1" d="M214.09463,92.1226c-0.00684.09229-.0127,0.16455-0.01855,0.2168-0.00684.05225-.0127,0.14307-0.01855,0.27246,0,0.043-.00391.11084-0.00977,0.20313l-0.06445.06445q-1.39307,0-2.85156.01855l-0.9873.00928-0.04687-.06494,0.00977-.23047c0.00586-.1416.01172-0.30762,0.01855-0.49854,0.00586-.19043.01172-0.36279,0.01855-0.5166q0.00879-.67383.00879-1.67041,0-1.385-.00879-1.9292c-0.00684-.314-0.0127-0.58887-0.01855-0.82617-0.00684-.23682-0.01855-0.48437-0.03711-0.74268l0.05566-.06445h0.71973q1.79883-.019,3.15625-0.02783l0.05566,0.06445c-0.00684.07373-.0127,0.13867-0.01855,0.19385-0.0127.08008-.02148,0.15869-0.02832,0.23535-0.00586.07715-.01172,0.17383-0.01855,0.29053l-0.05469.06494q-0.35156-.00952-0.62793-0.01855c-0.18457-.00586-0.40039-0.00928-0.64551-0.00928q-0.36035-.00879-1.16309-0.01855h-0.32324c-0.00586.17236-.01074,0.34766-0.01367,0.52637-0.00293.17822-.00781,0.3291-0.01367,0.45215v0.9873q1.01514,0,1.41211-.00439,0.39551-.00439,1.19922-0.01416l0.0459,0.06494c-0.01758.1416-.0293,0.249-0.03223,0.32275-0.00293.07422-.00781,0.17871-0.01367,0.314v0.07373l-0.05469.06494q-0.32373-.00952-0.65137-0.01416c-0.21777-.00293-0.4043-0.00781-0.55859-0.01367h-1.34668c0,0.14746-.00391.36279-0.00977,0.646v0.877c0.00586,0.30762.00977,0.53516,0.00977,0.68262q1.11621,0,1.51367-.00928c0.17773,0,.35352-0.00293.52539-0.00928,0.17285-.00586.44922-0.01514,0.83105-0.02734Z"/>
    <path class="cls-1" d="M220.2499,89.18754h0.00879q0.34131,0.14795.582,0.28174a2.62231,2.62231,0,0,1,.46973.34131,1.52628,1.52628,0,0,1,.37012.51709,1.76589,1.76589,0,0,1,.1377.72412,1.82884,1.82884,0,0,1-.61328,1.39844,2.49734,2.49734,0,0,1-1.75879.56787,3.90431,3.90431,0,0,1-1.0791-.12939,4.78752,4.78752,0,0,1-.748-0.27686l-0.03711-.06445q0.019-.17578.03223-0.30469,0.01465-.12964.02344-0.314c0-.01221.00586-0.08887,0.01855-0.23047l0.0918-.03711a0.11821,0.11821,0,0,1,.02832.01855,3.93946,3.93946,0,0,0,.6875.36914,2.34806,2.34806,0,0,0,.90918.15674,1.49414,1.49414,0,0,0,1.01074-.29541,0.95051,0.95051,0,0,0,.33691-0.74756,0.83246,0.83246,0,0,0-.28613-0.67383,2.99754,2.99754,0,0,0-.84961-0.45215l-0.46094-.20312-0.01855-.00879q-0.35156-.16626-0.57715-0.29541a2.50991,2.50991,0,0,1-.44727-0.33252,1.51091,1.51091,0,0,1-.35547-0.498,1.65586,1.65586,0,0,1-.13379-0.69238,1.63632,1.63632,0,0,1,.28613-0.96924,1.67936,1.67936,0,0,1,.80762-0.61816,3.16144,3.16144,0,0,1,1.12988-.19385,4.12452,4.12452,0,0,1,.83984.07373c0.23438,0.04932.50781,0.123,0.82227,0.22168l0.0459,0.07373q-0.019.16626-.03223,0.35059c-0.00977.12354-.02051,0.231-0.03223,0.32324l-0.00977.13818-0.07324.03711a5.3683,5.3683,0,0,0-.72949-0.314,2.52754,2.52754,0,0,0-.79395-0.11035,1.52166,1.52166,0,0,0-.90918.24414,0.77446,0.77446,0,0,0-.33691.66016,0.66889,0.66889,0,0,0,.13379.43848,1.45348,1.45348,0,0,0,.33691.29053,1.37318,1.37318,0,0,0,.19434.106c0.07324,0.03418.24609,0.10938,0.5166,0.22656Z"/>
  </g>
  <g>
    <path class="cls-2" d="M78.05512,56.22716l1.5581-.4678V29.55866c0-6.34131,0-6.602,2.0254-6.81006l1.8706-.15527V21.47614H70.88762v1.11719l1.8677,0.15527c2.0278,0.208,2.0278.46875,2.0278,6.81006v21.106a12.49675,12.49675,0,0,1-9.4028,4.1582c-8.0503,0-9.2974-4.9375-9.2974-12.3716V29.55866c0-6.34277,0-6.60254,2.0259-6.81006l1.8701-.15527V21.47614h-12.624v1.11719L49.226,22.7486c2.0249,0.20752,2.0249.46729,2.0249,6.81006v13.7251c0,7.0684.8833,13.2544,11.6362,13.2544,6.9097,0,11.2207-3.2734,11.9473-3.2734,0.7788-.0015,1.1953.727,1.9209,1.4541Z"/>
    <path class="cls-2" d="M91.97012,55.75936h14.3887v-1.1196l-1.8706-.1543c-2.9082-.2085-2.9082-0.4668-2.9082-6.8096V22.93024h2.7002c7.3247,0,7.4282.77979,8.5708,6.80962h1.2456c0-.2085-0.2583-7.12065-0.4663-8.26372H84.69672c-0.2085,1.14307-.4668,8.05522-0.4668,8.26372H85.476c1.1416-6.02983,1.2456-6.80962,8.5708-6.80962h2.7026V47.67586c0,6.3428,0,6.6011-2.8569,6.8096l-1.9224.1543v1.1196Z"/>
    <path class="cls-2" d="M146.07562,48.92146c0-5.0566,0-5.3159.9868-5.5254l1.8706-.1562v-1.1167h-13.1948v1.1167l1.8711,0.1562c3.6333,0.2095,3.6333.4688,3.6333,6.8291v3.9224a26.56656,26.56656,0,0,1-6.0752.6753c-10.1807,0-14.6997-8.229-14.6997-17.0879,0-9.7134,5.3501-15.32376,13.8667-15.32376,8.8833,0,9.5581,6.337,10.0791,8.41556l1.4028-.312c-0.229-2.5625-.5034-5.4727-0.832-7.68852-1.3501-.83008-5.2974-2.13037-10.5957-2.13037-8.2085,0-19.375,4.15629-19.375,18.02539,0,13.2378,9.3496,17.8169,19.791,17.8169a34.43294,34.43294,0,0,0,11.3711-2.0708S146.07562,50.48546,146.07562,48.92146Z"/>
    <path class="cls-2" d="M152.12592,55.75936h23.7915a85.84014,85.84014,0,0,0,1.7129-8.624l-1.2964-.208c-1.0415,4.2612-1.5591,7.3774-9.833,7.3774a29.92718,29.92718,0,0,1-5.6465-.6753V38.66906h4.6118c4.042,0,4.9756.0522,5.2847,2.1821l0.2627,1.7637h1.3701v-9.3472h-1.3701l-0.2627,1.7661c-0.3091,2.1294-1.2427,2.1807-5.2847,2.1807h-4.6118V22.93024h4.3008c7.333,0,7.437.77881,8.5815,6.33792l1.2466-.209c0-.4663-0.2617-6.44-0.4697-7.583h-22.3877v1.11719l1.8711,0.15527c2.0249,0.208,2.0249.46875,2.0249,6.816v18.1001c0,6.353,0,6.6123-2.0249,6.8208l-1.8711.1543v1.1196Z"/>
    <path class="cls-2" d="M181.70112,55.75936h12.5708v-1.1196l-1.8711-.1543c-1.9712-.2085-1.9712-0.4678-1.9712-6.8164V40.798h1.9214a5.17224,5.17224,0,0,1,3.2207.6777,23.54585,23.54585,0,0,1,3.2163,5.1006l2.0781,4.0073c1.5586,2.8604,3.9463,5.1758,7.375,5.1758h4v-1.1196a5.4152,5.4152,0,0,1-2.5986-.5171c-1.2969-.7295-3.584-3.7998-5.7627-7.7036-1.4043-2.4976-3.1211-5.8296-3.9004-7.2837,2.8584-1.3511,7.1699-4.2129,7.1699-9.0508,0-7.89748-6.9609-8.60842-11.8901-8.60842h-13.5581v1.11719l1.8706,0.15527c2.0249,0.208,2.0249.46875,2.0249,6.81546v18.105c0,6.3486,0,6.6079-2.0249,6.8164l-1.8706.1543v1.1196Zm8.7285-32.15431a16.57637,16.57637,0,0,1,3.2197-.415c4.0513,0,8.0469,1.87015,8.0469,7.94775,0,5.8687-3.9453,8.2061-8.3076,8.2061h-2.959V23.60505Z"/>
    <path class="cls-2" d="M223.55952,34.46056c-2.8057-1.6602-5.0381-3.3228-5.0381-6.3877a5.51052,5.51052,0,0,1,5.6621-5.66166c5.86721,0,6.69921,4.52006,7.2168,7.11576h1.3008c-0.1221-1.5122-.251-5.3208-0.5215-7.16947a14.49686,14.49686,0,0,0-7.166-1.66162c-5.50589,0-10.8047,2.65039-10.8047,8.98779,0,3.8936,2.7529,7.1143,5.7129,8.7261l3.3252,1.8174c4.05271,1.8169,7.22071,4.4155,7.22071,8.2075,0,4.0508-2.65041,6.3882-6.23341,6.3882-7.1172,0-9.0381-6.1797-9.6094-9.9209l-1.6621.416c0.5879,3.562,1.167,7.1802,1.6621,9.1426a14.90049,14.90049,0,0,0,8.1553,2.0776c5.5039,0,11.9951-2.7026,11.9951-9.7129,0-6.2358-4.2549-8.4155-8.3623-10.7529Z"/>
    <path class="cls-2" d="M35.41352,35.96786c0.5913,3.2925,5.1782,11.7466,6.9375,14.8887,3.979,7.3374,14.1709,22.1782,21.7993,21.6997l0.8799,0.0039-0.0093,1.2046-1.3369.0459c-10.7803.4204-20.4121-11.5879-26.0166-21.2168-2.2788-3.9165-4.4873-8.4624-6.458-12.5415a4.711,4.711,0,0,0-1.7959-2.146,7.86244,7.86244,0,0,0-3.59428-.5542c-0.66553-.0059-2.64209,0-3.67041,0l-0.00391,8.6543c0,1.5913-.12109,5.5332.31055,7.0825,0.34082,1.2217,1.07959,1.3799,2.30371,1.5088l2.11133,0.1748v0.9795H12.1459v-0.9795l2.11377-.1748c1.25244-.1289,2.00976-0.2832,2.36035-1.5083,0.439-1.5347.31934-5.5015,0.31934-7.083V23.74128c0-1.57764.11963-5.54541-.31934-7.07959-0.35059-1.22461-1.10791-1.37891-2.36035-1.5083l-2.11377-.17383v-0.981l10.03955,0.00147c8.83647,0.002,20.76367-1.25879,20.76367,11.16849,0,5.0283-3.4189,8.3032-7.5981,10.3569C35.36762,35.72956,35.41352,35.96786,35.41352,35.96786Zm-13.26469.0093c1.59082,0.0835,3.29834-.0459,4.88969-0.0459,6.1499,0,9.9082-3.3003,9.9082-9.4458,0-6.68461-3.8125-10.78666-10.62846-10.78666a21.36632,21.36632,0,0,0-4.16113.54541Z"/>
  </g>
</svg>
