<svg id="Layer_1" data-name="Layer 1" xmlns="http://www.w3.org/2000/svg" viewBox="0 0 360.52197 108.48783">
  <defs>
    <style>
      .cls-1 {
        fill: #e12429;
      }
    </style>
  </defs>
  <title>twilio</title>
  <g>
    <path class="cls-1" d="M3389.45809,4198.38507h-19.20141a0.96919,0.96919,0,0,0-.96619.96642v11.10782a0.96919,0.96919,0,0,0,.96619.96642h19.20141a0.96928,0.96928,0,0,0,.96663-0.96642v-11.10782a0.96928,0.96928,0,0,0-.96663-0.96642h0Z" transform="translate(-3135.3072 -4177.1532)"/>
    <path class="cls-1" d="M3389.09936,4214.93348H3352.277a1.32225,1.32225,0,0,0-1.21092.93505l-4.72689,18.09481h0l-0.24425.93511-5.749-19.21955a1.38136,1.38136,0,0,0-1.24334-.92564H3324.757a1.37782,1.37782,0,0,0-1.242.92631l-5.38439,18.113v0.00044l-0.27535.9261-0.23839-.93646h0l-2.27986-8.95626-2.27985-8.95636a1.3115,1.3115,0,0,0-1.20458-.93655h-28.94723v-15.582a1.01142,1.01142,0,0,0-1.27445-.8643l-18.17391,5.67412a1.09476,1.09476,0,0,0-.96619.96638v9.80584h-4.78953a0.9692,0.9692,0,0,0-.9662.96642v13.8057a0.96916,0.96916,0,0,0,.9662.9662h4.78953v16.90757c0,11.96122,6.47453,17.5376,18.52632,17.5376a29.44466,29.44466,0,0,0,13.04008-2.78819v-14.48758a0.73751,0.73751,0,0,0-1.02163-.76926,12.14713,12.14713,0,0,1-5.18385,1.04688c-3.2375,0-4.94637-1.34881-4.94637-5.036v-12.411h10.36591a0.96917,0.96917,0,0,0,.96621-0.9662v-11.65636l13.62682,45.42239a1.38187,1.38187,0,0,0,1.24425.92563h15.06487a1.41432,1.41432,0,0,0,1.26138-.92024l6.45018-20.12432,3.28255,10.52228,2.99458,9.5998a1.401,1.401,0,0,0,1.25463.92248h15.155a1.3879,1.3879,0,0,0,1.247-.92427l13.83141-45.55417v45.53073a0.96935,0.96935,0,0,0,.96666.96664h18.48261a0.96926,0.96926,0,0,0,.96619-0.96664v-47.54961a0.96925,0.96925,0,0,0-.96619-0.96647h0Z" transform="translate(-3135.3072 -4177.1532)"/>
    <path class="cls-1" d="M3413.42288,4198.38507h-18.48261a0.96919,0.96919,0,0,0-.96619.96642v64.09806a0.96924,0.96924,0,0,0,.96619.96664h18.48261a0.96926,0.96926,0,0,0,.96619-0.96664v-64.09806a0.96921,0.96921,0,0,0-.96619-0.96642h0Z" transform="translate(-3135.3072 -4177.1532)"/>
    <path class="cls-1" d="M3438.08576,4198.38507h-19.20141a0.96921,0.96921,0,0,0-.96622.96642v11.10782a0.96921,0.96921,0,0,0,.96622.96642h19.20141a0.9693,0.9693,0,0,0,.96663-0.96642v-11.10782a0.9693,0.9693,0,0,0-.96663-0.96642h0Z" transform="translate(-3135.3072 -4177.1532)"/>
    <path class="cls-1" d="M3437.72659,4214.93348h-18.4822a0.96934,0.96934,0,0,0-.96663.96647v47.54961a0.96935,0.96935,0,0,0,.96663.96664h18.4822a0.96935,0.96935,0,0,0,.96663-0.96664v-47.54961a0.96934,0.96934,0,0,0-.96663-0.96647h0Z" transform="translate(-3135.3072 -4177.1532)"/>
    <g>
      <path class="cls-1" d="M3476.2231,4239.66547c0,4.67641-3.32714,8.54391-7.91392,8.54391-4.49657,0-8.09417-3.8675-8.09417-8.72419v-0.1798c0-4.67687,3.32717-8.54393,7.91436-8.54393,4.497,0,8.09373,3.86706,8.09373,8.72373v0.18027h0Zm-7.91392-25.90121c-16.1879,0-27.69978,11.87149-27.69978,25.72094v0.18027c0,13.84945,11.42131,25.54116,27.52,25.54116,16.18836,0,27.69981-11.87153,27.69981-25.72143v-0.1798c0-13.8499-11.42177-25.54114-27.52-25.54114h0Z" transform="translate(-3135.3072 -4177.1532)"/>
      <path class="cls-1" d="M3189.55135,4271.34543a39.94829,39.94829,0,1,1,39.94808-39.9481,39.94837,39.94837,0,0,1-39.94808,39.9481h0Zm0-94.19222a54.24391,54.24391,0,1,0,54.24368,54.24413,54.24409,54.24409,0,0,0-54.24368-54.24413h0Z" transform="translate(-3135.3072 -4177.1532)"/>
    </g>
    <path class="cls-1" d="M3191.78116,4217.88773a11.27893,11.27893,0,1,1,11.27894,11.2789,11.2791,11.2791,0,0,1-11.27894-11.2789h0Z" transform="translate(-3135.3072 -4177.1532)"/>
    <path class="cls-1" d="M3191.78116,4244.9061a11.27893,11.27893,0,1,1,11.27894,11.27894,11.27928,11.27928,0,0,1-11.27894-11.27894h0Z" transform="translate(-3135.3072 -4177.1532)"/>
    <path class="cls-1" d="M3164.76325,4244.9061a11.27891,11.27891,0,1,1,11.27892,11.27894,11.2791,11.2791,0,0,1-11.27892-11.27894h0Z" transform="translate(-3135.3072 -4177.1532)"/>
    <path class="cls-1" d="M3164.76325,4217.88818a11.27891,11.27891,0,1,1,11.27892,11.27888,11.27892,11.27892,0,0,1-11.27892-11.27888h0Z" transform="translate(-3135.3072 -4177.1532)"/>
  </g>
</svg>
