<svg id="Layer_1" data-name="Layer 1" xmlns="http://www.w3.org/2000/svg" width="280.5812" height="89.31482" viewBox="0 0 280.5812 89.31482">
  <defs>
    <style>
      .cls-1 {
        fill: red;
      }
    </style>
  </defs>
  <title>verizon</title>
  <g>
    <path class="cls-1" d="M258.65753,17.27908c1.90114-.1194,3.80229-0.08266,5.708-0.06888-5.71262,11.92119-11.214,23.93881-16.81181,35.91511q-2.32133.03444-4.63806-.01378c-2.57619-6.02948-5.5473-11.89364-8.22911-17.87719,1.85522-.03674,3.71045-0.05511,5.56567-0.00459,1.60725,3.68749,3.49921,7.24639,4.97328,10.989C249.712,36.57524,254.33174,26.99145,258.65753,17.27908Z"/>
    <g>
      <path d="M115.18539,22.39472c3.6783,0.03674,7.3566.02755,11.03491,0.00459-0.05511,3.27879-.03214,6.55757-0.023,9.83636-3.68289-.05511-7.37038-0.00918-11.05327-0.02755C115.19457,28.93851,115.13487,25.66432,115.18539,22.39472Z"/>
      <path d="M59.68482,36.45125c7.51274-4.2615,18.42365-2.8012,23.50256,4.54622,3.11347,4.34875,3.99516,9.86391,3.963,15.10354-8.624.07347-17.24807-.00918-25.8721,0.04133,0.39492,2.668,1.543,5.47383,4.00434,6.85606,3.49,2.03891,9.00977,1.4603,10.77315-2.59915,3.53595-.1148,7.08108-0.08725,10.62161.00918a15.33318,15.33318,0,0,1-7.79286,9.42766,20.65383,20.65383,0,0,1-13.28505,1.87359,17.554,17.554,0,0,1-11.75128-7.38875,20.85777,20.85777,0,0,1-2.99867-14.55248A17.89878,17.89878,0,0,1,59.68482,36.45125Zm5.86875,6.23612c-2.45679,1.17559-3.67371,3.82984-4.211,6.3647q7.3566-.03444,14.71321,0a9.05567,9.05567,0,0,0-2.49812-5.38658C71.45906,41.64037,68.1068,41.58067,65.55357,42.68737Z"/>
      <path d="M175.24136,34.54551c5.92386-1.06538,12.486.17909,17.03224,4.29824,7.77449,6.89739,8.10512,20.29265.89547,27.709-5.69425,5.94223-15.26886,7.05352-22.58872,3.69208a18.11693,18.11693,0,0,1-10.17618-14.456,21.40958,21.40958,0,0,1,1.35927-10.5114A17.79806,17.79806,0,0,1,175.24136,34.54551Zm1.26284,8.16482c-3.11806,1.08834-4.54622,4.47733-5.00084,7.50814-0.36278,3.82066-.31227,8.1189,2.17667,11.28288,2.64966,3.45329,8.50923,3.35685,11.16808-.03674,2.22719-2.76447,2.53486-6.52543,2.32362-9.93739-0.16991-2.99867-1.18936-6.22694-3.71963-8.05A7.81456,7.81456,0,0,0,176.5042,42.71033Z"/>
      <path d="M214.62812,36.60279c3.64156-2.87468,8.86282-3.17776,13.07381-1.45112a11.61516,11.61516,0,0,1,6.29582,7.026c1.18018,3.1548.83118,6.57135,0.8771,9.86391,0.023,6.305-.04592,12.61.03674,18.915-3.66912.06888-7.33824-.00918-11.00735,0.03674-0.01378-7.21884.00459-14.44227-.00918-21.65652a6.19371,6.19371,0,0,0-2.25474-5.01921,6.30514,6.30514,0,0,0-7.78826.71178,8.54767,8.54767,0,0,0-2.25474,6.1305c-0.01378,6.61727.01837,13.22995-.01378,19.84722-3.6232-.06888-7.251,0-10.87418-0.03214,0-11.92578.02755-23.85156-.01378-35.77734,3.54054,0.03674,7.08567-.04133,10.6308.04592-0.04133,1.64858-.05511,3.29256-0.08725,4.94114A22.36286,22.36286,0,0,1,214.62812,36.60279Z"/>
      <path d="M16.21565,35.216q5.71032-.02755,11.41146,0C29.9094,42.9078,32.38,50.54911,34.55664,58.26849,37.19712,50.68228,39.236,42.88483,41.702,35.23433c3.68289-.0597,7.36579-0.01837,11.04868-0.02755C48.54429,47.11419,44.416,59.04916,40.283,70.97953c-3.81607.023-7.63213-.05051-11.44361,0.04592C24.50445,59.13641,20.62869,47.07746,16.21565,35.216Z"/>
      <path d="M89.6531,35.21137c3.513-.01837,7.03056.00459,10.54814-0.01378-0.03214,2.00676-.00918,4.01812-0.11021,6.02488,0.923-1.00568,1.56133-2.23178,2.5119-3.21909a9.88059,9.88059,0,0,1,9.61594-2.77365q-0.04822,4.72531,0,9.446c-2.714-.31686-5.69884-0.19746-7.9995,1.44652a9.28406,9.28406,0,0,0-3.52217,7.75153c-0.02755,5.69884-.00918,11.40228-0.00459,17.10112-3.68289.023-7.3612-.02755-11.0395,0.02755Q89.7151,53.10693,89.6531,35.21137Z"/>
      <path d="M115.14406,35.22515c3.69208-.05051,7.38416.00459,11.07624-0.02755-0.06429,11.93037-.023,23.86534-0.023,35.8003-3.68289-.03214-7.37038-0.01837-11.05327-0.00918Q115.19916,53.10693,115.14406,35.22515Z"/>
      <path d="M129.20518,35.18841c9.96494,0.04592,19.92988-.00918,29.89481.03214-0.101,2.73232.00459,5.46464-.04592,8.197a10.06781,10.06781,0,0,1-1.42815,1.79093c-5.134,5.67588-10.144,11.462-15.31478,17.1103,5.86416,0.1148,11.72832.01378,17.59248,0.05511-0.01378,2.87927.00459,5.75395-.01378,8.63322q-15.34-.06888-30.68007,0c-0.01378-2.76447.01378-5.53353-.01378-8.298q8.011-9.00977,16.11381-17.94148c0.15613-.31227.80822-0.61075,0.473-1.01027-5.51056.16072-11.03031,0-16.54088,0.08725C129.18222,40.96073,129.219,38.07228,129.20518,35.18841Z"/>
    </g>
  </g>
</svg>
