<?xml version="1.0" standalone="no"?>
<!DOCTYPE svg PUBLIC "-//W3C//DTD SVG 20010904//EN"
 "http://www.w3.org/TR/2001/REC-SVG-20010904/DTD/svg10.dtd">
<svg version="1.0" xmlns="http://www.w3.org/2000/svg"
 width="1280.000000pt" height="1000.000000pt" 
 viewBox="0 0 1280.000000 800.000000"
 preserveAspectRatio="xMidYMid meet">
 <style type="text/css">
	.st0{fill:#5FFFDC;}
</style>
<g transform="translate(0.000000,800.000000) scale(0.100000,-0.100000)"
fill="#000000" stroke="none">
<path class="st0" d="M29 7891 l-29 -29 0 -2122 c0 -2334 -5 -2166 61 -2189 44 -15 914
-15 958 0 65 23 61 -96 61 1699 l0 1630 340 0 340 0 0 -1633 c0 -1797 -5
-1658 60 -1692 44 -23 837 -22 880 0 64 33 60 -87 60 1700 l0 1625 335 0 335
0 0 -1615 c0 -1735 -2 -1654 50 -1700 21 -19 38 -20 484 -23 448 -2 462 -2
494 18 67 41 63 -98 60 1928 -4 2060 4 1874 -78 2037 -72 143 -179 249 -325
321 -164 80 17 74 -2133 74 l-1924 0 -29 -29z"/>
<path class="st0" d="M5209 7891 l-29 -29 0 -2121 c0 -1564 3 -2127 11 -2145 27 -59 -60
-56 1559 -56 1643 0 1531 -5 1564 65 23 47 24 900 2 944 -31 60 32 56 -982 61
-927 5 -933 5 -961 26 -15 11 -33 36 -40 55 -9 26 -12 414 -12 1602 l-1 1569
-29 29 -29 29 -512 0 -512 0 -29 -29z"/>
<path class="st0" d="M9023 7896 l-28 -24 -3 -2136 -2 -2136 29 -32 29 -33 503 -3 c366 -2
511 1 532 9 60 25 57 -16 57 814 0 583 3 766 13 784 6 13 25 34 40 45 28 21
36 21 680 24 432 2 664 -1 688 -7 20 -6 44 -20 55 -32 18 -20 19 -51 24 -795
l5 -774 33 -32 32 -33 501 -3 c489 -2 502 -2 534 18 18 11 38 33 44 48 8 20
11 589 9 2145 l-3 2119 -33 29 -32 29 -508 0 c-557 0 -535 2 -567 -60 -13 -25
-15 -131 -15 -755 0 -806 2 -777 -65 -809 -29 -14 -112 -16 -684 -16 -726 0
-709 -1 -736 64 -13 30 -15 148 -15 776 l0 742 -29 29 -29 29 -516 0 -515 0
-28 -24z"/>
<path class="st0" d="M1875 3208 c-3 -7 -6 -123 -7 -258 l-3 -245 -75 0 -75 0 -5 85 -5 85
-85 0 -85 0 -3 -134 c-4 -208 3 -214 275 -209 l185 3 29 33 29 33 -2 307 -3
307 -83 3 c-60 2 -84 -1 -87 -10z"/>
<path class="st0" d="M3987 3213 c-4 -3 -7 -159 -7 -345 l0 -338 228 2 227 3 3 82 3 82
-138 3 -138 3 -3 250 c-2 184 -6 251 -15 257 -15 9 -151 11 -160 1z"/>
<path class="st0" d="M5990 3207 c-19 -7 -44 -27 -57 -46 -22 -33 -23 -40 -23 -283 0 -361
-11 -348 290 -348 225 0 246 5 274 64 13 29 16 61 14 173 l-3 138 -85 0 -85 0
-5 -100 -5 -100 -105 0 -105 0 0 165 0 165 175 5 175 5 0 85 0 85 -210 2
c-143 1 -221 -2 -245 -10z"/>
<path class="st0" d="M12301 3207 c-19 -7 -44 -25 -55 -40 -20 -27 -21 -40 -21 -298 l0
-269 33 -32 32 -33 210 -3 c300 -4 302 -2 298 231 l-3 142 -85 0 -85 0 -5
-100 -5 -100 -102 -3 c-123 -3 -115 -18 -111 188 l3 145 175 5 175 5 0 85 0
85 -210 2 c-143 1 -221 -2 -244 -10z"/>
<path class="st0" d="M0 2870 l0 -341 88 3 87 3 3 253 2 252 50 0 50 0 0 -255 0 -255 80 0
80 0 0 255 0 255 50 0 50 0 2 -252 3 -253 88 -3 87 -3 0 302 c0 327 -3 343
-57 368 -16 7 -135 11 -343 11 l-320 0 0 -340z"/>
<path class="st0" d="M900 3182 c-38 -39 -41 -69 -38 -382 l3 -265 87 -3 87 -3 3 103 3
103 107 3 107 3 3 -103 3 -103 88 -3 87 -3 0 307 0 306 -34 34 -34 34 -222 0
-222 0 -28 -28z m360 -212 l0 -80 -110 0 -110 0 0 80 0 80 110 0 110 0 0 -80z"/>
<path class="st0" d="M2237 3190 c-15 -12 -31 -38 -37 -58 -5 -20 -10 -140 -10 -265 0
-248 5 -276 55 -315 26 -21 37 -22 234 -22 188 0 209 2 239 20 18 11 37 32 42
46 6 14 10 139 10 281 0 277 -4 298 -57 322 -15 7 -105 11 -237 11 -200 0
-215 -1 -239 -20z m353 -320 l0 -170 -110 0 -110 0 0 170 0 170 110 0 110 0 0
-170z"/>
<path class="st0" d="M2915 3197 c-3 -7 -4 -158 -3 -337 l3 -325 88 -3 87 -3 0 101 0 100
59 0 60 0 56 -100 56 -100 95 0 c74 0 94 3 94 14 0 8 -22 51 -49 97 l-48 82
39 38 39 37 -3 177 -3 177 -33 29 -32 29 -250 0 c-192 0 -252 -3 -255 -13z
m395 -227 l0 -80 -110 0 -110 0 0 80 0 80 110 0 110 0 0 -80z"/>
<path class="st0" d="M4530 2870 l0 -340 260 0 261 0 -3 83 -3 82 -172 3 -173 2 0 50 0 50
150 0 150 0 0 70 0 70 -150 0 -150 0 0 55 0 55 175 0 175 0 0 80 0 80 -260 0
-260 0 0 -340z"/>
<path class="st0" d="M5229 3181 l-29 -29 0 -311 0 -311 85 0 84 0 3 103 3 102 107 3 107
3 3 -103 3 -103 88 -3 87 -3 0 307 0 306 -34 34 -34 34 -222 0 -222 0 -29 -29z
m361 -211 l0 -80 -110 0 -110 0 0 80 0 80 110 0 110 0 0 -80z"/>
<path class="st0" d="M6627 3203 c-11 -10 -8 -544 3 -584 6 -19 22 -46 36 -60 25 -24 29
-24 237 -27 198 -2 214 -1 245 18 18 11 37 32 42 46 6 14 10 153 10 320 l0
294 -90 0 -90 0 -2 -252 -3 -253 -105 0 -105 0 -3 253 -2 252 -84 0 c-45 0
-86 -3 -89 -7z"/>
<path class="st0" d="M7350 2870 l0 -340 260 0 261 0 -3 83 -3 82 -172 3 -173 2 0 50 0 50
150 0 150 0 0 70 0 70 -150 0 -150 0 0 55 0 55 175 0 175 0 0 80 0 80 -260 0
-260 0 0 -340z"/>
<path class="st0" d="M8345 3197 c-3 -7 -4 -158 -3 -337 l3 -325 87 -3 87 -3 3 128 3 128
105 0 105 0 5 -125 5 -125 85 0 85 0 3 338 2 337 -90 0 -89 0 -3 -122 -3 -123
-105 0 -105 0 -3 123 -3 122 -85 0 c-59 0 -86 -4 -89 -13z"/>
<path class="st0" d="M9100 3182 c-38 -39 -41 -69 -38 -382 l3 -265 87 -3 87 -3 3 103 3
103 105 0 105 0 5 -100 5 -100 85 0 85 0 0 308 0 309 -33 29 -32 29 -221 0
-221 0 -28 -28z m360 -212 l0 -80 -110 0 -110 0 0 80 0 80 110 0 110 0 0 -80z"/>
<path class="st0" d="M9818 3181 l-33 -29 -3 -266 c-4 -376 -20 -358 305 -354 l218 3 0 80
0 80 -170 5 -170 5 -3 168 -2 167 170 0 c195 0 184 -7 178 105 l-3 60 -227 3
-227 2 -33 -29z"/>
<path class="st0" d="M10450 2870 l0 -340 90 0 90 0 0 91 0 90 44 47 44 47 17 -30 c9 -17
44 -78 76 -137 l60 -108 99 0 c68 0 100 4 100 11 0 6 -49 92 -110 191 -60 98
-110 183 -110 188 0 4 52 69 115 144 63 74 115 137 115 140 0 3 -46 6 -102 6
l-103 0 -120 -142 -120 -142 -3 142 -3 142 -89 0 -90 0 0 -340z"/>
<path class="st0" d="M11190 2870 l0 -340 85 0 85 0 0 340 0 340 -85 0 -85 0 0 -340z"/>
<path class="st0" d="M11510 2870 l0 -341 88 3 87 3 3 253 2 252 105 0 105 0 2 -252 3
-253 88 -3 87 -3 0 301 c0 313 -2 328 -44 362 -19 16 -49 18 -273 18 l-253 0
0 -340z"/>
<path class="st0" d="M4848 1429 c-144 -19 -273 -85 -383 -194 -128 -129 -185 -259 -193
-442 -9 -211 50 -365 192 -509 91 -91 170 -140 286 -176 107 -33 283 -33 390
0 116 36 195 85 286 176 94 95 152 199 180 322 24 109 15 272 -20 372 -107
309 -412 495 -738 451z m260 -102 c295 -86 481 -391 418 -687 -57 -272 -309
-480 -581 -480 -141 0 -296 64 -403 165 -228 215 -255 544 -66 794 145 192
399 275 632 208z"/>
<path class="st0" d="M4781 885 c-67 -53 -71 -55 -81 -35 -24 44 -68 60 -167 60 l-93 0 0
-150 0 -150 73 0 c86 1 143 19 177 57 l25 29 73 -58 73 -58 77 60 77 60 3 -45
3 -45 105 0 104 0 0 50 0 50 -50 0 -50 0 0 100 0 100 -55 0 -55 0 0 -49 c0
-49 -1 -50 -64 -100 -35 -28 -67 -51 -70 -51 -19 0 1 23 59 68 l65 50 -31 26
c-35 29 -32 30 -116 -36 -34 -27 -64 -45 -67 -40 -3 5 24 32 59 61 36 28 65
55 65 60 0 10 -45 41 -59 41 -5 0 -41 -25 -80 -55z"/>
<path class="st0" d="M5250 760 l0 -150 105 0 105 0 0 50 0 50 -50 0 -50 0 0 100 0 100
-55 0 -55 0 0 -150z"/>
<path class="st0" d="M6650 755 c0 -668 0 -675 20 -675 20 0 20 7 20 675 0 668 0 675 -20
675 -20 0 -20 -7 -20 -675z"/>
<path class="st0" d="M8470 1250 c-146 -22 -266 -39 -267 -40 -2 0 -3 -99 -3 -220 l0 -220
295 0 295 0 0 260 0 260 -27 -1 c-16 0 -147 -18 -293 -39z"/>
<path class="st0" d="M7953 1178 l-213 -31 0 -188 0 -189 225 0 225 0 0 220 c0 170 -3 220
-12 219 -7 0 -109 -15 -225 -31z"/>
<path class="st0" d="M10920 980 l0 -131 -28 21 c-71 53 -179 43 -243 -21 -92 -92 -92
-289 0 -372 67 -60 172 -62 236 -5 l35 30 0 -31 c0 -30 2 -31 40 -31 l40 0 0
335 0 335 -40 0 -40 0 0 -130z m-61 -165 c77 -39 83 -218 10 -279 -63 -53
-140 -39 -182 32 -25 42 -26 145 -3 189 35 68 109 93 175 58z"/>
<path class="st0" d="M9100 1062 c0 -4 40 -145 89 -312 l88 -305 47 -3 c31 -2 48 1 51 10
2 7 33 116 67 242 l64 228 58 -208 c33 -115 63 -224 68 -241 8 -31 11 -33 56
-33 l47 0 84 303 c46 166 86 308 89 315 3 8 -9 12 -41 12 -35 0 -47 -4 -51
-17 -13 -45 -126 -473 -127 -480 0 -4 -25 82 -55 192 -30 110 -61 224 -70 253
l-15 53 -41 -3 -41 -3 -68 -240 c-38 -131 -70 -243 -72 -248 -1 -5 -34 104
-71 242 l-69 251 -44 0 c-23 0 -43 -4 -43 -8z"/>
<path class="st0" d="M805 972 c-77 -37 -108 -98 -108 -212 0 -152 67 -230 197 -230 132 0
199 75 200 225 0 97 -24 158 -78 200 -49 37 -151 45 -211 17z m165 -40 c51
-27 80 -89 80 -172 -1 -123 -55 -190 -155 -190 -101 0 -155 66 -155 187 0 121
58 193 155 193 22 0 56 -8 75 -18z"/>
<path class="st0" d="M360 755 c0 -218 1 -225 20 -225 19 0 20 7 20 95 l0 95 69 0 c54 0
75 5 102 23 58 39 74 101 44 173 -20 48 -63 64 -170 64 l-85 0 0 -225z m163
184 c72 -20 88 -115 26 -161 -16 -12 -50 -22 -87 -25 l-62 -6 0 102 0 101 43
0 c23 0 59 -5 80 -11z"/>
<path class="st0" d="M1144 964 c3 -9 32 -110 63 -225 45 -167 60 -209 74 -209 15 0 45 95
123 384 1 5 26 -80 56 -188 44 -157 58 -196 72 -196 12 0 21 13 28 43 7 23 34
122 61 220 27 98 49 181 49 183 0 3 -10 4 -22 2 -19 -3 -27 -23 -67 -175 -25
-95 -48 -170 -51 -165 -4 4 -21 59 -39 122 -66 235 -60 220 -87 220 -17 0 -25
-7 -30 -27 -35 -137 -93 -325 -97 -313 -3 8 -25 88 -49 178 -40 153 -44 162
-66 162 -18 0 -23 -4 -18 -16z"/>
<path class="st0" d="M1740 755 l0 -225 125 0 c118 0 125 1 125 20 0 19 -7 20 -105 20
l-105 0 0 90 0 90 100 0 c93 0 100 1 100 20 0 19 -7 20 -100 20 l-100 0 0 80
0 80 105 0 c87 0 105 3 105 15 0 13 -21 15 -125 15 l-125 0 0 -225z"/>
<path class="st0" d="M2080 755 c0 -218 1 -225 20 -225 19 0 20 7 20 100 l0 100 49 0 49 0
58 -100 c48 -81 63 -100 83 -100 29 0 27 6 -41 119 -39 64 -48 86 -37 90 7 2
26 17 41 32 24 24 28 35 28 86 0 98 -37 123 -181 123 l-89 0 0 -225z m199 168
c29 -23 40 -78 21 -113 -16 -30 -69 -50 -130 -50 l-50 0 0 96 0 97 66 -6 c44
-3 75 -12 93 -24z"/>
<path class="st0" d="M2450 755 l0 -225 125 0 c118 0 125 1 125 20 0 19 -7 20 -105 20
l-105 0 0 90 0 90 100 0 c93 0 100 1 100 20 0 19 -7 20 -100 20 l-100 0 0 80
0 80 105 0 c87 0 105 3 105 15 0 13 -21 15 -125 15 l-125 0 0 -225z"/>
<path class="st0" d="M2790 754 l0 -227 93 5 c173 9 238 64 246 206 8 177 -56 241 -241
242 l-98 0 0 -226z m175 185 c83 -21 132 -100 123 -199 -11 -111 -65 -160
-184 -168 l-74 -5 0 192 0 191 46 0 c25 0 65 -5 89 -11z"/>
<path class="st0" d="M3390 755 l0 -225 83 0 c104 0 149 13 181 51 36 42 37 125 3 157 -13
12 -29 22 -35 22 -7 0 -12 5 -12 10 0 6 4 10 10 10 24 0 50 45 50 88 0 89 -38
112 -185 112 l-95 0 0 -225z m185 181 c43 -18 62 -56 49 -94 -13 -38 -48 -52
-131 -52 l-73 0 0 80 0 80 60 0 c33 0 76 -7 95 -14z m39 -215 c28 -26 34 -67
15 -103 -16 -30 -70 -48 -144 -48 l-65 0 0 91 0 91 84 -3 c73 -4 88 -7 110
-28z"/>
<path class="st0" d="M3710 977 c0 -2 34 -66 75 -142 l75 -138 0 -84 c0 -76 2 -83 20 -83
19 0 20 7 20 89 l0 90 70 129 c39 71 70 132 70 136 0 3 -9 6 -20 6 -14 0 -32
-24 -69 -92 -79 -148 -67 -147 -135 -19 -49 93 -63 111 -82 111 -13 0 -24 -1
-24 -3z"/>
<path class="st0" d="M11226 895 c-57 -20 -88 -46 -115 -95 -29 -51 -39 -154 -22 -218 13
-46 59 -105 100 -127 43 -22 116 -28 172 -15 64 16 132 78 148 136 15 52 14
147 -1 198 -32 106 -165 163 -282 121z m151 -81 c39 -24 56 -61 60 -132 3 -52
0 -75 -14 -101 -65 -124 -232 -94 -259 47 -27 144 102 256 213 186z"/>
<path class="st0" d="M12289 900 c-69 -21 -99 -61 -99 -135 0 -56 23 -83 115 -133 66 -35
70 -40 70 -72 0 -59 -67 -75 -147 -36 -17 9 -33 16 -35 16 -1 0 -3 -20 -3 -44
0 -43 0 -44 44 -55 82 -20 152 -6 198 39 24 24 28 36 28 83 0 70 -21 97 -111
143 -75 37 -85 49 -75 89 12 48 54 52 159 18 14 -4 17 1 17 35 0 39 -2 42 -37
51 -43 12 -87 13 -124 1z"/>
<path class="st0" d="M10270 884 c-14 -10 -31 -24 -37 -32 -11 -14 -13 -12 -13 11 0 25 -3
27 -40 27 l-40 0 0 -225 0 -225 39 0 40 0 3 164 c3 159 4 165 27 190 50 53
121 51 159 -4 20 -31 22 -44 22 -191 l0 -159 41 0 41 0 -4 183 c-3 168 -5 185
-25 218 -12 19 -34 41 -48 47 -39 18 -136 15 -165 -4z"/>
<path class="st0" d="M11540 889 c0 -6 27 -101 61 -212 33 -111 62 -210 65 -219 6 -22 82
-26 89 -5 2 6 26 82 52 167 l49 155 32 -115 c19 -63 40 -139 49 -168 l15 -53
40 3 41 3 63 210 c35 116 64 218 64 228 0 13 -8 17 -38 17 l-38 0 -43 -165
c-24 -91 -47 -165 -50 -165 -4 0 -27 74 -51 165 l-44 165 -37 0 -37 0 -22 -72
c-12 -40 -36 -119 -53 -176 l-31 -102 -33 122 c-68 250 -58 228 -103 228 -22
0 -40 -5 -40 -11z"/>
<path class="st0" d="M9960 665 l0 -225 40 0 40 0 0 225 0 225 -40 0 -40 0 0 -225z"/>
<path class="st0" d="M7740 570 l0 -189 33 -6 c53 -9 391 -55 404 -55 10 0 13 50 13 220
l0 220 -225 0 -225 0 0 -190z"/>
<path class="st0" d="M8200 537 l0 -222 283 -39 c155 -21 288 -41 295 -43 9 -4 12 52 12
261 l0 266 -295 0 -295 0 0 -223z"/>
</g>
</svg>
