<?xml version="1.0" encoding="utf-8"?>
<!-- Generator: Adobe Illustrator 22.0.1, SVG Export Plug-In . SVG Version: 6.00 Build 0)  -->
<svg version="1.1" id="Layer_2" xmlns="http://www.w3.org/2000/svg" xmlns:xlink="http://www.w3.org/1999/xlink" x="0px" y="0px"
	 viewBox="0 0 800 800" style="enable-background:new 0 0 800 800;" xml:space="preserve">
<style type="text/css">
	.st0{fill:#FF80CF;}
	.st1{fill:#5FFFDC;stroke:#000000;stroke-width:0.75;stroke-miterlimit:10;}
</style>
<g>
	<g>
		<path class="st0" d="M208.4,621.8c9.7,7.3,12.4,21.5,6.2,32.1c1.7-0.4,3.4-0.9,5.1-1.3c-2.8-1.2-4.8-2.7-5.2-5.9
			c-0.2-1.2,0-2.3,0.2-3.5c0.1-0.5,1.1-2.6,0-1.3c-2.1-0.9-4.3-1.8-6.4-2.7c-0.2-1.4-0.4,1-0.7,1.9c-0.6,2.1-1.1,4.3-1.5,6.4
			c-1.1,5.9-1.6,11.9-1.2,17.8c0.4,6.9,1.6,13.7,4,20.2c7.3,20.3,24.2,32.8,45.5,35.2c-1.1-1.9-2.2-3.8-3.2-5.6
			c-3.2,6.6-9.9,6-15.1,2.1c-2.6-1.9-6.6,1.3-5.5,4.2c5,13.8,20,19.8,33.5,14.7c-1.5-0.9-3.1-1.7-4.6-2.6
			c3.1,8.1,6.4,16.1,10.2,23.8c1.9,3.8,3.9,7.7,6.8,10.9c3.8,4.2,9.2,7.4,14.6,9.2c4.2,1.4,8.8-0.4,13-1.2c5-0.9,10-1.9,15-2.8
			c1.3-0.2,2.3-1.4,2.6-2.6c5.4-17.6,6.1-36.1,2.3-54.1c-1.8,1.4-3.7,2.8-5.5,4.2c15,9.5,23.8-7.9,23.6-21c-0.1-3.8-5-5-7-1.9
			c-2.5,3.9-9,7.1-13.5,4.4c-4.7-2.8-2.4-7.5-1-11.2c1.5-4,2.1-8.7,2.6-12.9c1.6-12.1-1.6-23-2.4-34.9c-0.2-3.6-0.8-8-0.2-11.6
			c0.5-2.8,2.1-5.6,2.9-8.4c2.2-7.4,3.2-15.1,2.9-22.8c-0.4-12.9-4.3-25.6-10.9-36.6c-2.1-3.5-8.3-1.2-6.9,2.9
			c3.4,9.3,2.3,18.9-3.7,26.9c2.3,1,4.6,1.9,6.9,2.9c1.8-7,2.4-14.4,0.5-21.4c-1.7-6.5-5.4-11.5-9.5-16.6
			c-4.3-5.4-6.9-11.5-7.6-18.3c-0.7-6.2-0.1-15.5,7.8-16.5c2-0.3,3.7-1.5,3.8-3.8c0.1-18.7-9.8-35.4-25.6-45.1
			c0.6,1.1,1.2,2.2,1.9,3.2c2.2-20.8,0.1-42-6.7-61.8c-3.2-9.4-7.4-17.6-10.7-26.3c-10-26.6-17.7-55.1-19-83.6
			c-1.2-26.5,2-54.6,14-78.6c14.3-28.5,45.3-52.1,78.6-46.6c30.4,5,55.3,33.3,66.2,60.8c6.7,17.1,9.2,35.7,8.5,54
			c-0.6,15.6-4,30.8-5.4,46.3c-3.1,33.8,0.8,69.9,16.8,100.3c13.9,26.4,38.5,45.4,64.9,58.3c45.8,22.3,98.7,29.6,148.7,18.2
			c3.1-0.7,7.1-1.2,8.4-4.5c0.6-1.6-0.5-3.3-1.7-4.2c-1.8-1.3-5.4-1.5-7.5-1c-2.9,0.7-3.5,4.3-1.7,6.3c2.2,2.4,7.8,2.9,10.7,3.6
			c7.4,1.7,14.9,2.8,22.4,3.3c14,0.9,28.1-0.9,41.6-4.8c4.6-1.3,2.7-8.5-2-7.2c-14.8,4.1-30.8-0.1-39.3-13.5
			c-0.7,1.8-1.5,3.7-2.2,5.5c27.7-8,51.4-25.2,68-48.7c-1.1,0.6-2.2,1.2-3.2,1.9c26.9,1.5,50.5-16.3,57.8-42c1-3.5-3.8-6.5-6.3-3.6
			c-7.9,9.1-19,14.1-31,13.9c0.9,2.1,1.8,4.3,2.7,6.4c20-20.3,31-47.2,31.7-75.6c0.1-4.6-0.5-9.1-0.4-13.7c0.1-2.4,1.4-4.2,2.3-6.4
			c1.3-3,2.4-6.1,3.3-9.2c3.6-13,3.1-26.9-1-39.8c-2.9-9.2-7.5-17.8-13.3-25.5c-2.9-3.7-9.3-0.2-6.5,3.8c6.8,9.5,6.7,22.2-1.3,31
			c2.1,0.6,4.2,1.1,6.3,1.7c-9.4-33.6-30.9-62.3-60-81.3c0.6,1.1,1.2,2.2,1.9,3.2c-0.3-26.7-16.3-50.8-40.6-61.7
			c-4.3-1.9-8.1,4-3.8,6.5c10.6,6.2,14.5,19.6,8.5,30.4c1.7-0.4,3.4-0.9,5.1-1.3c-33.5-24.5-71.9-41.6-112.5-50.5
			c0.9,0.9,1.7,1.7,2.6,2.6c-5.8-18-20-31.5-38-36.7c-4.1-1.2-6.6,4.8-2.9,6.9c7.9,4.4,10.4,15.1,4.4,22.3c1.2-0.3,2.4-0.6,3.6-1
			c-25.1-8.5-52-7.8-76.9,0.9c1.6,1.2,3.2,2.4,4.7,3.6c-1.3-9.5-5.5-17.9-13.2-23.9c-4.7-3.7-12.1-7.9-18.5-7.4
			c-2.3,0.2-4.5,1.6-4.4,4.2c0.1,3,3.2,4.2,5.3,5.8c5,3.9,5.1,8.6,1.8,13.9c-1.5,2.4-3.5,5.4-6,6.9c-3,1.8-7.1,2.7-10.4,3.9
			c1.4,0.6,2.8,1.1,4.2,1.7c-11-17.7-24.2-35.3-39.7-49.3c-16.6-15-36.5-25.5-58-31.5c0,2.4,0,4.8,0,7.2c10.7-3.5,22-2.5,31.8,3.1
			c3.7,2.1,7.7-2.9,4.5-5.9c-11.4-11-26.6-19.7-42.3-22.8c-17.8-3.5-34.7,2.2-47.5,14.7c1.5-0.2,3-0.4,4.5-0.6
			c-13.1-7.1-13.1-21.9-5.6-33.3c2.5-3.8-2.8-7.2-5.9-4.5c-11.4,9.7-21.4,21.1-29.3,33.9c-8.9,14.5-13.4,30.9-21,46
			c-0.8,1.7-1.7,3.4-2.7,5c-0.3,0.4-0.5,0.8-0.5,0.8c-0.3,1.5-0.6-0.8,0.5,0c1,0.7,3.1,1.6,3.6,1c0.1-0.2,0-1.2,0-1.5
			c0-1.8,0.2-3.5,0.5-5.2c0.6-4.1,1.4-8.2,2.7-12.1c1.1-3.4,6.3-10.3,4.2-14c-2.4-4.4-7.2-0.7-9.6,1.5c-8.6,8-15.2,18.8-18.4,30
			c-1.9,6.8-2.8,13.9-2.8,21c0,4.2,1.2,8.5-0.7,12.4c-2,4.1-3.9,8.2-5.7,12.3c-15.2,34.6-24.9,71.3-28.8,108.8
			c-1.9,17.8-2.4,35.7-1.7,53.5c0.3,7.8,0.8,15.5,1.6,23.2c1,10-0.7,20.1-1.7,30.1c2.5-0.3,4.9-0.7,7.4-1c-4.5-12.9-5.3-25.6-5.3-39
			c0-3.1-0.7-7.6-5.1-6.6c-3.5,0.9-4.5,6.2-5.4,9c-7.6,26.1-4.3,53.3,6.2,78.1c0.1-1,0.3-1.9,0.4-2.9c-2.4,3.7-4.7,7.5-7.2,11.1
			c-2.6,3.7-6.6,5.8-10.3,8.3c-6.5,4.4-13,8.8-19.5,13.2c-9.4,6.4-18.8,12.9-28,19.6c-16,11.4-30.9,25.1-48.6,33.6
			c-6.4,3.1-12.7,5.9-18.3,10.3c-6,4.7-11,10.4-15.1,16.8c-2.3,3.6,2.9,7.5,5.9,4.5c6.9-6.8,15.7-10.9,25.4-11.6
			c-0.9-2.1-1.8-4.3-2.7-6.4C33,519.6,25.2,535.9,23,552.8c-2.2,17.4,2.9,35.1,12.9,49.3c3.7,5.2,7.9,9.9,12.7,13.9
			c3.2,2.7,6.6,5.2,10.3,7.3c2.9,1.7,6.5,2.6,8.2,5.5c9.5,15.5,25.2,27.7,42.7,32.8c2,0.6,4.7,1.5,6.8,0.9c2.8-0.8,3.9-3.8,2.2-6.2
			c-1.4-2-4.4-3-6.2-4.5c-4.8-3.8-7.6-9.1-8.2-15.2c-1.6,1.2-3.2,2.4-4.7,3.6c37.8,14.2,83.6,10.4,113.2-19c3.4-3.4-1.9-8.7-5.3-5.3
			c-27.9,27.6-70.7,30.3-106,17c-2.1-0.8-5,1.3-4.7,3.6c0.7,6.5,2.8,12.5,7.2,17.4c1.7,1.9,3.6,3.5,5.7,5c0.7,0.5,1.5,1,2.2,1.5
			c0.3,0.2,1.8,1.4,1.2,0.8c-0.4-0.9-0.7-1.8-1.1-2.7c0,0,0,0.1,0,0.1c0.4-0.9,0.7-1.8,1.1-2.7c1.3-1,2.3-0.2,1.3-1.1
			c-0.4-0.3-1.7-0.4-2.3-0.6c-2.7-0.8-5.3-1.8-7.9-2.9c-7.4-3.3-14.2-7.8-20.1-13.4c-4.7-4.5-8.2-9.6-11.8-15
			c-2.7-4-9.5-5.9-13.5-8.7c-20.2-13.7-32.4-39-28.2-63.4c2.4-14.2,9.1-28.1,18.1-39.4c1.8-2.3,0.9-6.6-2.7-6.4
			c-11.7,0.8-22.4,5.5-30.7,13.8c2,1.5,3.9,3,5.9,4.5c5.4-8.4,12.6-15.3,21.4-20c9.1-4.8,18.4-8.7,26.8-14.7
			c9.4-6.7,18.2-14.1,27.5-20.8c13.4-9.7,27.1-19.1,40.8-28.4c5-3.4,9.9-6.7,14.9-10.1c1.8-1.2,4.1-2.3,5.6-3.9c2.3-2.3,4-6,5.7-8.7
			c1.3-2.1,3.6-4.5,4.3-6.8c0.7-2.2-0.5-4-1.3-6c-2.3-5.7-4.2-11.6-5.7-17.5c-2.4-9.7-3.5-19.6-3-29.6c0.3-5.4,1-10.8,2.1-16.1
			c0.6-2.7,1.2-5.3,2-7.9c0.2-0.7,0.4-1.5,0.7-2.2c0.8-2.2,1.5-1.7-0.8-1c-1-0.1-1.9-0.3-2.9-0.4c-0.9-0.6-0.9-2.8-1.5-1.7
			c-0.2,0.3,0,1,0,1.4c-0.2,1.3-0.1,2.6-0.1,3.9c-0.1,4.2,0,8.4,0.4,12.6c0.8,8.4,2.5,16.6,5.3,24.5c1.4,4.1,7,3.2,7.4-1
			c1-10.5,2.6-20.9,1.5-31.4c-0.8-8.2-1.3-16.5-1.6-24.8c-0.6-19.8,0.3-39.6,2.8-59.2c3-23,8.3-45.8,15.7-67.8
			c3.8-11.1,8.1-22,12.9-32.7c1.8-4,5.2-8.6,6.1-12.9c0.5-2.3-0.3-5-0.4-7.3c-0.1-3-0.1-6,0-9c0.5-8,2.3-16.2,5.9-23.4
			c2-4,4.5-7.9,7.3-11.4c1.4-1.7,2.9-3.4,4.5-5c0.6-0.6,1.4-1.1,1.9-1.8c1.1-1.5,2.4-0.1-0.7-0.8c-0.7-0.6-1.5-1.1-2.2-1.7
			c-1.3-2.2,0.1-2.6-1.2-0.4c-0.7,1.2-1.3,2.7-1.8,4c-1.6,3.8-2.7,7.6-3.6,11.6c-1,4.9-3,12.2-1.2,17.2c3.2,8.7,10-0.8,11.9-4.4
			c7.6-14.4,11.8-30.4,20-44.5c7.8-13.5,18-25.3,29.9-35.4c-2-1.5-3.9-3-5.9-4.5c-9.7,14.8-8.3,34.6,8.3,43.5
			c1.5,0.8,3.3,0.6,4.5-0.6c11.7-11.5,27.1-16.2,43.2-12.1c13.3,3.4,26.1,10.7,36,20.2c1.5-2,3-3.9,4.5-5.9c-11.5-6.5-25-8-37.6-3.8
			c-3.4,1.1-3.7,6.2,0,7.2c20.9,5.8,40,15.9,55.9,30.6c14.6,13.4,26.9,29.9,37.3,46.7c0.8,1.3,2.7,2.3,4.2,1.7
			c5.7-2.2,12-3.4,16.2-8.1c3.5-3.9,6.8-8.4,7.9-13.6c0.9-4.4,0-8.6-2.7-12.2c-1.1-1.5-2.4-2.6-3.8-3.8c-0.6-0.5-1.6-1.4-2.3-1.7
			c-2-0.8-0.3-1.9-0.4,1.3c-0.4,0.9-0.7,1.8-1.1,2.7c-2,1.9-1.6,0.2-0.8,0.8c0.6,0.5,2.5,0.6,3.2,0.8c2.8,0.9,5.5,2.2,7.9,3.9
			c6.6,4.4,10.8,11.3,11.9,19.1c0.3,2.2,2.2,4.5,4.7,3.6c23.8-8.3,49-9,73-0.9c1.2,0.4,2.8,0,3.6-1c9-10.7,6.5-27.1-6-34
			c-1,2.3-1.9,4.6-2.9,6.9c12.3,3.5,22.9,11.6,29.1,22.9c1.5,2.8,2.3,5.8,3.6,8.6c1.4,2.9,3.7,2.8,6.7,3.5c6.5,1.5,13,3.2,19.5,5.2
			c31.3,9.5,60.8,24.3,87.2,43.7c1.6,1.2,4.2,0.3,5.1-1.3c8-14.3,3-32.4-11.2-40.7c-1.3,2.2-2.5,4.3-3.8,6.5
			c10.6,4.7,20,12.1,26.5,21.7c4.9,7.2,8.2,15.4,9.6,24c0.5,3.1,0.1,6.5,0.8,9.5c0.6,2.8,2.4,3.6,4.6,5.1
			c26.2,17.8,45.2,44.5,53.8,75c0.7,2.6,4.3,3.8,6.3,1.7c10.1-11.1,11.3-27.7,2.5-40c-2.2,1.3-4.3,2.5-6.5,3.8
			c6.5,8.4,11.4,18.1,13.9,28.4c2,8.1,2.5,16.7,1,25c-0.7,3.9-1.8,7.8-3.2,11.6c-1.2,3.2-4,6.7-4.3,10.1c-0.5,5,0.7,10.7,0.6,15.8
			c-0.2,7.4-1.1,14.8-2.8,22.1c-4.3,18.3-13.5,34.8-26.7,48.2c-2.3,2.3-0.6,6.3,2.7,6.4c13.9,0.2,27.2-5.6,36.3-16.1
			c-2.1-1.2-4.2-2.4-6.3-3.6c-2.2,7.7-6.2,15.1-11.6,21c-5,5.5-11.2,9.9-18.2,12.5c-6.9,2.6-13.2,2.4-20.3,3c-4.3,0.4-7.4,6.9-10,10
			c-4.1,4.9-8.6,9.5-13.5,13.7c-12.7,10.9-27.7,18.8-43.7,23.4c-2.3,0.7-3.6,3.4-2.2,5.5c10.3,16.2,29.7,21.9,47.8,16.9
			c-0.7-2.4-1.3-4.8-2-7.2c-12.2,3.5-24.8,5.2-37.5,4.6c-6.6-0.3-13.2-1.2-19.7-2.6c-2.4-0.5-4.8-1-7.2-1.7
			c-0.9-0.2-1.8-0.6-2.7-0.8c-1.3-0.3-1.7-1.3-0.4,0.2c-0.6,2.1-1.1,4.2-1.7,6.3c-0.3,0.1,1.8,0.2,1.7,0.2c-0.6-1.4-1.1-2.8-1.7-4.2
			c1.1-2.7,2.2-1.9,0.9-1.8c-0.8,0-1.7,0.5-2.4,0.7c-2.8,0.7-5.7,1.2-8.5,1.7c-9,1.6-18.2,2.5-27.3,3c-15.9,0.9-32.1,0.6-47.7-2.1
			c-19.1-3.3-38-9.2-55.7-17.2c-27.2-12.3-52.9-30.7-67.3-57.5c-16.4-30.6-19.1-67-15.7-100.9c1.6-16,5-31.4,5.2-47.6
			c0.2-18.3-3-36.9-10.1-53.8c-11.1-26.5-33.9-52.7-62-61.3c-31.9-9.7-65.8,6.5-85.2,32c-17.9,23.5-24.4,54-25.2,83
			c-0.8,26.1,3.9,51.8,11.2,76.8c8.1,27.7,23.1,53.4,25.6,82.4c0.8,9.4,0.6,18.7-0.4,28.1c-0.1,1.3,0.8,2.6,1.9,3.2
			c13.6,8.3,22,22.5,21.9,38.6c1.3-1.3,2.5-2.5,3.8-3.8c-16.4,2.1-17.4,20.2-13.6,33.1c2.2,7.4,6.7,12.3,11.1,18.4
			c5.8,8,6.4,17.6,4,26.9c-1.1,4.3,4.4,6.2,6.9,2.9c7-9.5,8.4-21.7,4.4-32.7c-2.3,1-4.6,1.9-6.9,2.9c5.9,10,9.5,21.2,9.9,32.9
			c0.2,7.5-0.8,15-3.1,22.2c-0.7,2.3-2,4.5-2.6,6.9c-0.7,3.1-0.3,6.9-0.2,10c0.3,10.4,3.5,20.5,3.2,30.9c-0.2,7.3-1.7,14-4.1,20.9
			c-1.9,5.4-1.1,11.6,3.1,15.7c7.9,7.6,20.9,2.8,26.2-5.3c-2.3-0.6-4.7-1.3-7-1.9c0.1,7.1-2.8,20.5-12.3,14.5
			c-2.9-1.9-6.2,1.2-5.5,4.2c3.5,16.7,2.7,33.8-2.3,50.2c0.9-0.9,1.7-1.7,2.6-2.6c-4.4,0.8-8.7,1.6-13.1,2.5
			c-3.3,0.6-7.6,2.3-10.9,1.6c-4.2-0.9-9-4.4-11.7-7.8c-2.3-2.8-3.9-6.3-5.5-9.5c-3.4-7-6.4-14.1-9.1-21.4c-0.7-1.8-2.6-3.4-4.6-2.6
			c-9.4,3.6-20.6,0.7-24.3-9.4c-1.8,1.4-3.7,2.8-5.5,4.2c8.4,6.2,20.5,5.3,25.4-4.8c1.3-2.7-0.3-5.3-3.2-5.6
			c-19.6-2.3-34.3-15.1-39.6-34.1c-1.6-5.9-2.4-11.9-2.5-18c0-5.2,0.6-10.3,1.9-15.3c0.5-1.9,2-4.7,1.7-6.8
			c-0.3-2.8-4.1-5.5-6.4-2.7c-5.9,7.5-1.6,19,6.5,22.5c1.9,0.8,4,0.6,5.1-1.3c8.5-14.3,4.3-32.5-8.9-42.4
			C208.3,612.5,204.5,619,208.4,621.8z"/>
	</g>
</g>
<g>
	<g>
		<path class="st0" d="M388.8,208.6c-20.1,23.8-41.6,46.3-64.3,67.6c2.1,0.6,4.2,1.1,6.3,1.7c-2.6-8.9,0.5-17.7,7.7-23.3
			c2.5-1.9,0.5-6.8-2.7-6.4c-19.3,2.2-32.2,19.4-29.1,38.6c0.3-1.2,0.6-2.4,1-3.6c-19.7,19.5-39.4,38.9-59.1,58.4
			c-3.4,3.4,1.9,8.7,5.3,5.3c19.2-19,38.9-37.6,57.7-57c2.6-2.7,2.3-4,2.2-6.8c-0.2-3.5,0.1-7,1.2-10.3c2.9-9.2,11.3-15.8,20.8-17
			c-0.9-2.1-1.8-4.3-2.7-6.4c-9.2,7.2-12.9,19.4-9.6,30.6c0.8,2.8,4.2,3.6,6.3,1.7c22.7-21.3,44.2-43.8,64.3-67.6
			C397.2,210.2,391.9,204.9,388.8,208.6L388.8,208.6z"/>
	</g>
</g>
<g>
	<g>
		<path class="st0" d="M412.3,289.2c-11.7,11.2-23.2,22.6-34.3,34.3c-10.1,10.7-20.5,21-32.3,29.9c-23.2,17.5-49.9,31.3-76.9,42.2
			c-4.4,1.8-2.5,9,2,7.2c20.6-8.3,40.9-18.2,59.7-30c11.6-7.2,22.6-15.2,32.8-24.2c7.9-7,15-14.7,22.3-22.4
			c10.3-10.8,21-21.4,31.8-31.7C421.1,291.1,415.8,285.8,412.3,289.2L412.3,289.2z"/>
	</g>
</g>
<g>
	<g>
		<path class="st0" d="M284.1,479.9c6.5-7.8,10.7-17.5,19-23.8c11.7-8.8,30.1-9.6,44-7.5c20.5,3.1,40.8,12.3,55.7,26.8
			c17.5,17,28.5,39.8,34.8,63.2c3.6,13.3,5.6,27,6.4,40.7c0.8,13.7,1.4,26.3,6.6,39.3c13.3,32.9,45.7,64.4,83.8,51.1
			c18.4-6.4,34.6-21.4,43.2-38.8c4.6-9.3,7.3-19.3,8.2-29.6c0.2-2.6,0.9-6.2-0.2-8.6c-1.3-2.9-4.5-5.7-6.5-8.2
			c-2.5-3.1-4.9-6.2-7.4-9.2c-6.5-8.1-12.7-17.5-20.7-24.2c-5.8-4.9-13.5-5.2-20.6-2.9c-22.8,7.4-34.8,36.3-19.6,56.2
			c2.8,3.6,6.2,6.6,10,8.9c1-2.3,1.9-4.6,2.9-6.9c-14.8-4.3-26.3-15.6-28.9-31.1c-1.6-9.1-0.3-19.3,3.2-27.9
			c-0.9,0.9-1.7,1.7-2.6,2.6c9.7-3.9,19.4-7.8,29-11.7c5.4-2.2,9.7-4.3,15.6-3.6c5.4,0.6,10.8,1.2,16.2,1.7
			c5.5,0.6,9.9,3.5,14.5,6.5c6.3,4.2,12.1,9.1,17.2,14.7c12.6,14,19.4,30.9,21.1,49.5c1.6,17.3,2.2,35.5,7,52.3
			c2.1,7.4,2.2,14.6-0.1,22c-1.2,3.8-2.8,7.4-4.8,10.8c-0.7,1.2-1.4,2.3-2.3,3.4c-0.2,0.2-0.8,0.8-0.9,1c-0.4,1.3-2.5,0.1,1,0.1
			c0.9,0.4,1.8,0.7,2.7,1.1c1,1,0,3.3,1.2,2c0.2-0.3,0.4-1.3,0.5-1.6c0.4-1.4,0.9-2.8,1.2-4.2c1.1-4.2,1.8-8.6,2.1-13
			c0.6-9.7-1.1-19.5-4.6-28.6c-1.1-3-6.7-4.1-7.2,0c-1.9,13.8-7.1,27-15.5,38.1c-3.5,4.6-7.7,8.2-11.7,12.4c-2.1,2.2-2,4.7-2.8,7.6
			c-1.1,3.7-2.9,7.1-5.3,10.1c-3.5,4.3-8.1,7.7-13.1,9.9c-1.8,0.8-3.6,1.1-5.4,1.8c0.1,0-1.3,0.2-1.3,0.2c-2.2-0.1-1.6,1.6,1.8,5.1
			c0.2-0.2,0.4-0.4,0.7-0.6c1.5-0.5,3.6-3.1,4.7-4.2c2.1-2.1,3.9-4.5,5.5-7c3.6-5.8,5.3-12.3,5.8-19c0.3-3.3-4.3-4.9-6.4-2.7
			c-11.4,12.3-26.8,19.9-43.6,20.6c-14.1,0.6-28.2-3-40.9-9c-20.3-9.6-35.9-26.9-44-47.8c-1.5-3.9-7.1-3.4-7.4,1
			c-0.8,16.3,3.6,32.4,12.7,46c2-1.5,3.9-3,5.9-4.5c-8.3-7.6-15-16.9-18.9-27.4c-2.9-7.7-4.4-15.9-4.5-24.2c0-2.9,0.1-5.9,0.5-8.8
			c0.3-2.4,1.1-4.8,0.6-7.1c-0.7-3-2.9-6.1-4.1-8.9c-1.7-3.9-3.2-7.9-4.6-11.9c-2.9-8.4-5.3-16.9-7-25.6c-3-14.6-4.1-29.5-3.7-44.4
			c0.1-3-3.2-4.5-5.6-3.2c-8,4.3-12.9,12.5-12.9,21.6c2.5-0.3,4.9-0.7,7.4-1c-3.6-13.3-2.8-27.5,2.7-40.2c3.9-9-1.5-21.2-8.1-27.9
			c-15.6-15.8-43.5-13.1-62.4-5.7c-10.3,4-17.8,9.9-23.4,19.5c2.2,1.3,4.3,2.5,6.5,3.8c0,0,0-0.1,0.1-0.1c2.4-4.2-4.1-8-6.5-3.8
			c0,0,0,0.1-0.1,0.1c-2.4,4.2,4,7.9,6.5,3.8c2.4-4,5.3-8.4,9.1-11.1c4.8-3.5,11.1-5.7,16.8-7.3c12.2-3.6,26.6-4.9,38.7,0
			c4.9,2,9.4,5.2,12.3,9.7c1.6,2.4,2.6,5,3.4,7.8c0.5,1.8,1.4,4.5,1.1,6.3c-0.2,1.2-1.2,2.7-1.7,3.9c-5.5,13.7-6.1,29-2.3,43.2
			c1.1,4.1,7.4,3.3,7.4-1c0-6.5,3.4-12,9.1-15.1c-1.9-1.1-3.8-2.2-5.6-3.2c-0.9,32.6,6.1,64.8,20.2,94.2c-0.1-1-0.3-1.9-0.4-2.9
			c-5.1,26.7,4,54.1,24.1,72.4c3,2.7,8.4-0.8,5.9-4.5c-8.4-12.6-12.4-27.1-11.6-42.2c-2.5,0.3-4.9,0.7-7.4,1
			c7.6,19.5,20.8,36.8,38.8,47.7c18.3,11.1,41,17.1,62.3,13.7c15.4-2.5,29.3-10.5,39.9-21.9c-2.1-0.9-4.3-1.8-6.4-2.7
			c-0.7,8.7-4.4,16.4-10.8,22.3c-2.5,2.3-7.9,5.7-4.3,9.6c2.2,2.3,6.2,1.3,8.8,0.5c5.5-1.6,10.6-4.5,15-8
			c5.9-4.8,10.4-11.3,12.6-18.7c1-3.3,0.8-4.1,3.2-6.3c2.5-2.3,4.9-4.8,7.1-7.5c10.6-12.6,17.5-27.9,19.7-44.2c-2.4,0-4.8,0-7.2,0
			c3,7.7,4.7,15.7,4.5,24c-0.1,6.7-1.9,12.7-3.6,19.1c-0.8,3.2,0.1,7.6,4.5,6.5c3.3-0.8,5.8-5.5,7.4-8.1c6.5-10.9,9.6-24.3,6.2-36.7
			c-4.4-15.8-5.4-32.2-6.9-48.5c-0.8-7.9-1.3-15.4-3.6-23c-2.6-8.4-6.3-16.5-11.1-23.8c-7.8-11.9-18.3-21.9-30.5-29.3
			c-4.4-2.7-8.4-5-13.6-5.6c-4.8-0.5-9.5-1-14.3-1.5c-5.3-0.6-9.2-1.4-14.1,0.6c-9.4,3.8-18.8,7.5-28.1,11.3c-3,1.2-8.4,2.2-10.4,5
			c-0.5,0.8-0.8,2.1-1.1,3c-3.9,11.6-4.7,25-0.7,36.6c5.2,14.8,17.5,25.2,32.4,29.5c4.1,1.2,6.5-4.7,2.9-6.9
			c-11.2-6.9-15.8-20.1-11.5-32.5c3.5-10.2,14.2-20,25.4-20c6.7,0,10,4.7,14.2,9.6c9.2,10.9,18,22.1,26.9,33.3
			c-0.4-0.9-0.7-1.8-1.1-2.7c0.1,28.2-17,56-43.4,66.9c-31.1,12.9-58.3-9.1-72.7-35.3c-7.4-13.5-10.2-27.5-10.8-42.7
			c-0.7-19.9-4-40-10.5-58.9c-10.7-30.9-30.6-60-61.2-73.6c-17.6-7.8-36.7-12.6-56.1-9.9c-11.2,1.6-22.2,5.2-30.2,13.5
			c-5.8,6-9.5,13.6-14.8,20C275.7,478.3,281,483.6,284.1,479.9L284.1,479.9z"/>
	</g>
</g>
<g>
	<g>
		<path class="st0" d="M425.1,149.5c10.9,18.3,25.7,34.5,30.2,55.8c0.6,3,0.6,4.7,3.4,6.2c2.1,1.1,4.2,2,6.2,3.1
			c5.8,3.4,11,7.7,15.2,13c6.3,7.8,10.1,17.3,11.7,27.1c2.1-1.2,4.2-2.4,6.3-3.6c-8.3-9.8-18.1-18-29.1-24.7c-3.3-2-6.8,1.9-5.1,5.1
			c10.5,20,15.1,41.5,15.4,64.1c0.3,22.2-0.9,44.4-3.8,66.4c-0.2,1.7,1.3,3.1,2.8,3.6c10.8,3.6,18.7,13.1,19.8,24.5
			c2.3-0.6,4.7-1.3,7-1.9c-6.2-8.7-15-14.8-25.4-17.2c-1.8-0.4-4.2,0.6-4.6,2.6c-4.4,24.1,3.1,51.4,23.3,66.4
			c14.9,11.1,35.5,14.8,53.7,12.1c1.8-0.3,2.6-2.1,2.8-3.6c1-7.9,5.7-14.5,12.6-18.4c2.7-1.5,5.5-2.5,8.5-3.2
			c1.8-0.4,5.2,0.1,6.8-0.7c0.1-0.1,0.5,0.2,0.6,0.1c-0.3,0.3-1.1-4.8-1.1-4.8c-0.2-0.1-2.2,1.5-2.4,1.6c-2.3,1.7-4.5,3.7-5.9,6.2
			c-3.5,6.1-2.2,15.1,2.6,20.2c19.7,21.2,51.8,16.9,74.8,4.5c16.6-9,30.8-22.1,42.7-36.7c0.8-1,1.5-2.4,1-3.6
			c-2.3-5.6-3.8-11.4-3.7-17.5c0.1-3.7,0.7-7.3,1.8-10.8c0.4-1.5,0.9-2.9,1.6-4.3c0.6-1.2,1.9-2,0.5-1.8c-1.2-0.3-2.4-0.6-3.6-1
			c-1.3-1.2-0.5-1.1-0.6,0.4c0,0.9,0.2,1.9,0.3,2.9c0.5,2.3,1.4,4.4,2.8,6.3c2.6,3.4,6.6,5.2,10.6,6.3c1.6,0.4,3.4-0.3,4.2-1.7
			c32.1-52.7,4.7-118.7-42.4-151.9c-1.4-1-3-2.4-4.5-3c-1.7-0.6-3.8-0.2-5.6-0.1c-5.3,0.1-10.5-0.4-15.6-1.7
			c-8-1.9-15.5-5.4-22.3-10.1c-1,2.3-1.9,4.6-2.9,6.9c10.9,4.4,23.3,1.8,31.4-6.7c1.6-1.7,1.4-4.7-0.8-5.9
			c-40.3-23.2-87.5-35-133.7-26c-15.7,3.1-30.8,8.5-45.1,15.5c-4.3,2.1-0.5,8.6,3.8,6.5c29.5-14.6,62.3-20.5,95-16.3
			c26.8,3.4,52.9,13.4,76.2,26.8c-0.3-2-0.5-3.9-0.8-5.9c-6.4,6.8-15.6,8.2-24.1,4.8c-4.2-1.7-6.2,4.6-2.9,6.9
			c11.6,8,25.3,12.5,39.4,12.7c3.9,0.1,5.4-0.2,8.6,2.1c2.9,2,5.6,4.2,8.3,6.4c5.7,4.8,10.9,10,15.7,15.6c16,19,27.7,43.9,28.9,68.9
			c0.9,17.9-3.9,35.4-13.2,50.7c1.4-0.6,2.8-1.1,4.2-1.7c-4.2-1.1-7.5-3.1-8.2-7.6c-0.3-2.1,0.2-4.4-1.4-6.1
			c-3.4-3.6-7.1,0.6-8.7,3.5c-6.3,11.9-5.8,26.6-0.8,38.8c0.3-1.2,0.6-2.4,1-3.6c-18.7,23-47.3,47.4-79.1,44.9
			c-6.8-0.5-13.3-2.6-19.1-6.1c-3.8-2.3-8.7-5.3-10.2-9.7c-1.6-4.7-0.3-8.6,3.4-11.5c2.7-2.1,8.2-5.2,4.3-9.2
			c-2.6-2.6-7.7-1.8-10.9-1.4c-15.6,2.4-27.5,13.6-29.5,29.4c0.9-1.2,1.8-2.4,2.8-3.6c0.2,0,0,0-1.1,0.1c-1.2,0.1-2.4,0.2-3.6,0.3
			c-3.8,0.2-7.6,0.1-11.4-0.2c-10.4-0.9-20.9-4-29.6-9.9c-18.7-12.7-26-38-22-59.5c-1.5,0.9-3.1,1.7-4.6,2.6
			c8.4,2,15.9,6.7,20.9,13.7c1.9,2.7,7.4,2.2,7-1.9c-1.5-14.8-11.1-27-25.3-31.7c0.9,1.2,1.8,2.4,2.8,3.6c3-23,4.3-46.5,3.7-69.7
			c-0.6-22.7-5.8-44.4-16.4-64.5c-1.7,1.7-3.4,3.4-5.1,5.1c10.5,6.3,19.7,14.2,27.6,23.5c2.7,3.2,6.8-0.4,6.3-3.6
			c-3.4-21.4-17.6-39.7-37.6-48.1c0.6,0.7,1.1,1.5,1.7,2.2c-2-10.9-5.7-21.5-11.8-30.8c-6.7-10.1-13.6-19.9-19.8-30.3
			C429.2,141.5,422.7,145.3,425.1,149.5L425.1,149.5z"/>
	</g>
</g>
<g>
	<g>
		<path class="st0" d="M161.4,408.9c0.9,17.4,4.6,34.3,11.2,50.4c2.5,6.2,5.5,12.1,8.6,18.1c4.4,8.5,5.8,17.3,3.5,26.7
			c2.1-0.6,4.2-1.1,6.3-1.7c-7.4-9-11.8-20.1-12.8-31.7c-0.3-4-6.2-5.3-7.4-1c-3.3,12.1-3.8,24.3-2.2,36.7
			c1.4,11.6,4.8,23.7,13.7,31.8c4.4,4.1,12,6.2,14.9,11.5c3.5,6.4-0.9,14.4-1.6,21c-1.4,11.9,1.7,24,6.2,34.9
			c2.7,6.6,5.8,14.2,10.5,19.8c2.5,3.1,7-0.3,6.3-3.6c-1.3-5.7-4.3-11.4-6.3-16.9c-1.7-4.5-8.9-2.5-7.2,2c2.1,5.4,5,11.2,6.3,16.9
			c2.1-1.2,4.2-2.4,6.3-3.6c1,1.2,0.1,0-0.3-0.5c-0.7-1.1-1.3-2.2-2-3.3c-2.1-3.7-4-7.5-5.7-11.4c-4.5-10.2-7.7-21.6-6.6-32.9
			c0.6-5.9,3.3-11.4,3.1-17.5c-0.2-6.1-3.2-11.3-8.1-14.7c-5.4-3.8-10.9-6.4-14.7-12.1c-3.2-4.9-5-10.4-6.2-16.1
			c-2.7-13.2-2.5-27,1.1-40c-2.5-0.3-4.9-0.7-7.4-1c1.1,13.7,6.3,26.4,15,37c1.8,2.2,5.6,0.9,6.3-1.7c2-8.2,2.1-16.9-0.8-24.9
			c-2.5-6.9-6.5-13.1-9.5-19.8c-7.5-16.6-11.7-34.4-12.7-52.6C168.6,404.1,161.1,404,161.4,408.9L161.4,408.9z"/>
	</g>
</g>
<g>
	<g>
		<path class="st0" d="M173.5,453.2c-17.9,12.5-35.6,25.6-52.2,39.8c-10.4,9-20.9,18.8-29.2,29.8c-10.5,14-7.6,32.9,1,47.1
			c10.8,17.8,30.7,27.2,51,20.6c12.3-4,23.4-11.7,33.5-19.6c9-7,16.7-15.3,23.2-24.6c2.8-4-3.7-7.7-6.5-3.8
			c-11.1,15.9-26.9,28.7-44.2,37.4c-9.9,5-21.1,7.5-31.7,3.2c-8-3.2-14.5-9.6-18.9-16.9c-4.3-7.1-7-15.3-6.8-23.6
			c0.1-7.1,2.9-12.5,7.4-17.9c7.6-9.1,16.3-17.6,25.3-25.4c16.4-14.3,34.1-27.2,51.9-39.7C181.2,457,177.5,450.5,173.5,453.2
			L173.5,453.2z"/>
	</g>
</g>
<path class="st1" d="M268.1,685.4c-1-1.8-3.8-6.6-9.6-9.6c-8.1-4.1-15.8-1.7-17.4-1.1c0.3,1.7,1.6,6.8,6.2,10.3
	C252.9,689.2,261.1,689.4,268.1,685.4z"/>
<path class="st1" d="M286.6,680.6c0.8-2.2,2.1-5.5,4.6-8.8c4.4-5.8,12.2-11.9,15.4-9.9c2.7,1.7,1,8.7,0.8,9.6
	c-0.4,1.6-2.6,10.2-10,11.8C292,684.5,287.4,681.2,286.6,680.6z"/>
<g>
	<g>
		<path class="st0" d="M235.7,720.7c-20.9,0.4-43.5,0.9-62.5-9.3c-17-9-27.9-24.9-25.9-44.6c1.1-11,5.3-21.5,9.2-31.7
			c4-10.3,8-20.7,11-31.4c5.2-18.5,9.3-41-3.9-57.2c-11.7-14.3-35.9-14.4-43.3,4.3c-2.4,6,7.3,8.6,9.6,2.7c2.7-6.9,12-9.1,18.4-6.4
			c7.9,3.3,12.3,11.8,13.7,19.9c1.7,10.4-0.8,21.4-3.4,31.4c-2.7,10.1-6.2,20-10,29.7c-7.1,18.3-15.5,38.6-9.6,58.5
			c4.7,15.7,17.3,27.8,31.8,34.8c20.1,9.7,43,9.7,64.9,9.3C242.1,730.5,242.1,720.5,235.7,720.7L235.7,720.7z"/>
	</g>
</g>
<g>
	<g>
		<path class="st0" d="M332.4,723.3c21.7,11.7,42.6-10.8,49.2-29.6c8-22.9,2.4-47.3-7.7-68.5c-11.7-24.4-29.5-45.3-40.9-69.9
			c-11.1-23.9-16.3-51.1-15.9-77.4c0.2-13.9,2.2-27.8,6.7-41c2.9-8.5,11.7-32.4,24.1-28.8c6.2,1.8,8.8-7.9,2.7-9.6
			c-23.2-6.7-35.7,30.5-39.6,46.9c-5.7,24-4.6,49.1,0,73.2c5.2,26.7,16.6,50.1,31.2,72.9c14,21.8,30.2,44.8,33,71.3
			c1.3,12.5-0.6,25.7-7,36.6c-5.6,9.7-18.6,21.9-30.7,15.4C331.7,711.6,326.7,720.2,332.4,723.3L332.4,723.3z"/>
	</g>
</g>
<g>
	<g>
		<path class="st0" d="M332.5,67.6c-26.5-4.2-49.4,10.6-70.1,25.2c-2.6,1.8-0.1,6.2,2.5,4.3c19.4-13.6,41.3-28.6,66.3-24.7
			C334.3,72.9,335.7,68.1,332.5,67.6L332.5,67.6z"/>
	</g>
</g>
<g>
	<g>
		<path class="st0" d="M245.4,613.9c-16-18.1-23.2-43.2-18.9-67c3.8-20.5,14.3-45.3-2.7-63c-1.2,1.2-2.4,2.4-3.5,3.5
			c14.8,14,21.9,33,21.3,53.2c-0.6,17.6-3.6,37.7,10.4,51.3c2.3,2.2,5.9-1.3,3.5-3.5c-15.8-15.3-7.4-39.5-9.2-58.7
			c-1.7-17.5-9.8-33.8-22.5-45.8c-2.3-2.2-5.8,1.2-3.5,3.5c18.2,18.9,0.9,48.3,0,70.2c-0.8,21.9,7.1,43.4,21.5,59.8
			C244,619.9,247.5,616.3,245.4,613.9L245.4,613.9z"/>
	</g>
</g>
<g>
	<g>
		<path class="st0" d="M254.9,507.6c-4.2-20.7-15.4-39.5-31.7-52.9c-0.6,1.4-1.2,2.8-1.8,4.3c11.2-0.3,20,8,26.9,16
			c6.9,8,12,17.4,15.5,27.4c1,3,5.9,1.7,4.8-1.3c-3.9-11.4-9.9-21.8-17.9-30.8c-7.6-8.5-17.3-16.6-29.3-16.2c-2,0.1-3.5,2.8-1.8,4.3
			c15.7,13,26.4,30.7,30.4,50.7C250.7,512.1,255.5,510.8,254.9,507.6L254.9,507.6z"/>
	</g>
</g>
<g>
	<g>
		<path class="st0" d="M212.7,440.7c-7.4-8.9-9.3-20.5-5.8-31.4c3-9.5,7.8-18.7,4.5-28.8c-1.4,0.8-2.8,1.6-4.2,2.4
			c4.1,3.6,7,8,8.3,13.3c1.5,5.9,0.1,11.7-1,17.5c-1.6,8.4-2.2,17.5,4.4,23.9c2.3,2.3,5.8-1.3,3.5-3.5c-8.6-8.5-1.3-21.7-1.2-31.9
			c0.1-8.8-3.9-17.1-10.5-22.9c-1.8-1.5-5-0.1-4.2,2.4c3.9,12-5.3,23.3-6.3,35.1c-0.8,10,2.6,19.6,9,27.3
			C211.2,446.7,214.7,443.2,212.7,440.7L212.7,440.7z"/>
	</g>
</g>
<g>
	<g>
		<path class="st0" d="M264.4,166.3c1.6-11,15.5-10.5,23.8-11.9c8-1.4,15.5-4,22-9.1c-1.2-1.2-2.4-2.4-3.5-3.5
			c-7.8,7.9-16.8,13.2-26.5,18.4c-6.1,3.3-13.5,6.8-13.7,14.6c-0.1,3.2,4.9,3.2,5,0c0.2-7.1,13.8-11.6,18.9-14.4
			c7.3-4.1,13.9-9.1,19.8-15.1c2.3-2.4-1.1-5.5-3.5-3.5c-8.6,6.8-19.2,7.5-29.6,9.2c-7.9,1.3-16.2,5.3-17.5,14
			C259.1,168.1,263.9,169.5,264.4,166.3L264.4,166.3z"/>
	</g>
</g>
<g>
	<g>
		<path class="st0" d="M48.8,527.7c-4.8,9.7-2.9,21.3,4.9,28.8c1.8,1.8,4.8,0,4.2-2.4c-1.9-7.9,0.1-15.9,5.6-22
			c2.2-2.4-1.4-5.9-3.5-3.5c-6.7,7.4-9.2,17.1-6.9,26.8c1.4-0.8,2.8-1.6,4.2-2.4c-6.2-5.9-8-15-4.1-22.8
			C54.5,527.3,50.2,524.8,48.8,527.7L48.8,527.7z"/>
	</g>
</g>
<g>
	<g>
		<path class="st0" d="M531.5,166.7c-11.9,3.7-24.2,4.1-36.3,1.1c-2-0.5-4.1,1.8-2.8,3.7c5.7,8.7,15.6,12.9,25.9,11.3
			c3.2-0.5,1.8-5.3-1.3-4.8c-8,1.3-15.8-2.3-20.2-9c-0.9,1.2-1.9,2.4-2.8,3.7c12.9,3.3,26.2,2.9,39-1.1
			C535.9,170.6,534.6,165.8,531.5,166.7L531.5,166.7z"/>
	</g>
</g>
<g>
	<g>
		<path class="st0" d="M341.1,306.4c-7.2,6.6-14.4,13.3-21.6,19.9c-1.4,1.3-0.7,3.7,1.1,4.2c11.1,2.8,22.6-0.4,30.7-8.4
			c2.3-2.3-1.2-5.8-3.5-3.5c-6.9,6.8-16.5,9.5-25.9,7.2c0.4,1.4,0.7,2.8,1.1,4.2c7.2-6.6,14.4-13.3,21.6-19.9
			C347,307.8,343.5,304.3,341.1,306.4L341.1,306.4z"/>
	</g>
</g>
<g>
	<g>
		<path class="st0" d="M432.6,420.5c4.2,13.1,13,23.9,24.9,30.7c2.5,1.4,4.9-1.8,3-3.9c-3.7-4-6-8.8-6.7-14.3c-0.4-3.2-5.4-3.2-5,0
			c0.8,6.9,3.4,12.7,8.1,17.8c1-1.3,2-2.6,3-3.9c-10.8-6.1-18.8-15.8-22.6-27.7C436.5,416.1,431.6,417.4,432.6,420.5L432.6,420.5z"
			/>
	</g>
</g>
<g>
	<g>
		<path class="st0" d="M467.2,673.8c6.8,10.3,17.4,16.6,29.6,18c2.8,0.3,3.4-4.4,0.7-4.9c-5.7-1.1-7.5-6.4-9.2-11.3
			c-1-3-5.8-1.7-4.8,1.3c2.2,6.6,5.2,13.3,12.7,14.8c0.2-1.6,0.4-3.3,0.7-4.9c-10.4-1.2-19.5-6.9-25.3-15.6
			C469.8,668.6,465.5,671.1,467.2,673.8L467.2,673.8z"/>
	</g>
</g>
</svg>
