<?xml version="1.0" encoding="utf-8"?>
<!-- Generator: Adobe Illustrator 22.0.1, SVG Export Plug-In . SVG Version: 6.00 Build 0)  -->
<svg version="1.1" id="Layer_2" xmlns="http://www.w3.org/2000/svg" xmlns:xlink="http://www.w3.org/1999/xlink" x="0px" y="0px"
	 viewBox="0 0 800 800" style="enable-background:new 0 0 800 800;" xml:space="preserve">
<style type="text/css">
	.st0{fill:#FF80CF;}
	.st1{fill:none;stroke:#000000;stroke-width:0.5;stroke-miterlimit:10;}
	.st2{fill:none;stroke:#000000;stroke-width:0.25;stroke-miterlimit:10;}
</style>
<g>
	<g>
		<path class="st0" d="M250.3,748.5c-31.9-72.3-63.8-144.7-95.7-217c-9.1-20.7-18.2-41.3-27.3-62c0.2,1.3,0.3,2.6,0.5,3.9
			c11-30,22-60,33-90c-2.1,1.2-4.1,2.3-6.2,3.5c18.9,2.6,37.7,5.2,56.6,7.8c4.6,0.6,9.1,1.3,13.7,1.9c2.2,0.3,5.8,0.1,7.8,1.1
			c1.5,0.7,2.3,2,3.4,3.3c6.1,7.2,12.2,14.4,18.3,21.7c2,2.4,6.4,1.7,7.9-1c5.3-10,10.7-20,16-30c-1.4,0.8-2.9,1.7-4.3,2.5
			c11,0,22,0,33,0c3.3,0,5.7-3.2,4.8-6.3c-6.3-23.3-12.7-46.7-19-70c-0.2,1.3-0.3,2.6-0.5,3.9c14.3-31.3,28.7-62.7,43-94
			c-1.4,0.8-2.9,1.7-4.3,2.5c34.7,1.7,69.3,3.3,104,5c-1.6-1.2-3.2-2.4-4.8-3.7c4.4,11.2,8.7,22.5,13.1,33.7
			c4.4,11.5,9.9,22.9,12.2,35c4.6,24.1,9.1,48.2,13.7,72.3c0.7,3.5,6,5,8.4,2.2c13.3-16,26.7-32,40-48c-2,0.3-4,0.5-6.1,0.8
			c23.7,16.7,47.3,33.3,71,50c-0.8-1.4-1.7-2.9-2.5-4.3c-2,56.7-4,113.3-6,170c-0.1,2.3,1.6,4.2,3.7,4.8c20.3,6.7,40.7,13.3,61,20
			c-1.2-1.2-2.3-2.3-3.5-3.5c0.9,4.7,2.9,10.5,2.6,15.3c-0.3,5.7-2.5,11.9-3.7,17.4c-2.4,11.6-4.9,23.3-7.3,34.9
			c-4.9,23.3-9.8,46.5-14.6,69.8c1.2-1.2,2.3-2.3,3.5-3.5c-20.7,3-41.3,6-62,9c1.3,0.2,2.6,0.3,3.9,0.5
			c-9.4-6.1-18.7-12.2-28.1-18.3c-4.4-2.9-8.8-5.9-13.2-8.6c-4.9-3-10-0.6-15.3,0.5c-21.8,4.6-43.7,9.2-65.5,13.8
			c-4.8,1-10.8,1.4-15.3,3.3c-4.7,2.1-9.1,6.5-13.2,9.5c-8.9,6.5-17.9,13.1-26.8,19.6s-17.9,13.1-26.8,19.6
			c-2.2,1.6-3.4,2.5-6.2,2.6c-2.6,0.1-5.3-0.2-7.9-0.3c-5.9-0.2-11.9-0.5-17.8-0.7c-25.1-1-50.2-1.9-75.3-2.9c-6.4-0.2-6.4,9.8,0,10
			c18.5,0.7,37,1.4,55.5,2.1c9.6,0.4,19.2,0.7,28.7,1.1c4.3,0.2,8.6,0.3,12.9,0.5c5,0.2,8.6,0.9,12.8-2.1
			c14.7-10.8,29.5-21.6,44.2-32.4c7.5-5.5,14.9-12.1,22.9-16.8c3.8-2.2,8.9-2.4,13.1-3.3c4.9-1,9.8-2.1,14.7-3.1
			c20.9-4.4,41.7-8.8,62.6-13.2c-1.3-0.2-2.6-0.3-3.9-0.5c8.3,5.4,16.5,10.8,24.8,16.2c4.4,2.9,8.8,5.7,13.2,8.6
			c1.8,1.2,4,3.2,6.2,3.7c1.8,0.4,3.8-0.2,5.6-0.4c19.7-2.9,39.4-5.7,59.1-8.6c1.6-0.2,3.2-2,3.5-3.5c5.1-24.2,10.2-48.4,15.2-72.7
			c2.5-11.9,5-23.9,7.5-35.8c1.1-5.3,3.4-11.4,3.4-16.8c0-5.6-2.2-11.9-3.2-17.3c-0.3-1.7-1.9-3-3.5-3.5c-20.3-6.7-40.7-13.3-61-20
			c1.2,1.6,2.4,3.2,3.7,4.8c1.2-34.3,2.4-68.5,3.6-102.8c0.6-17.1,1.2-34.3,1.8-51.4c0.2-4.3,0.3-8.6,0.5-12.8
			c0.2-4.9-0.8-6.2-4.8-9c-7-4.9-14-9.8-21-14.8c-15.9-11.2-31.7-22.3-47.6-33.5c-1.7-1.2-4.7-0.8-6.1,0.8c-13.3,16-26.7,32-40,48
			c2.8,0.7,5.6,1.5,8.4,2.2c-4.6-24.1-9.1-48.2-13.7-72.3c-2.2-11.8-7.5-22.9-11.9-34.1c-4.5-11.5-8.9-23.1-13.4-34.6
			c-0.8-2.2-2.4-3.6-4.8-3.7c-34.7-1.7-69.3-3.3-104-5c-1.6-0.1-3.6,1-4.3,2.5c-12.7,27.7-25.4,55.4-38,83.2
			c-1.5,3.3-3.1,6.6-4.5,9.9c-1.5,3.3-0.8,5.2,0.1,8.5c2.1,7.6,4.1,15.1,6.2,22.7c3.9,14.5,7.9,29,11.8,43.5
			c1.6-2.1,3.2-4.2,4.8-6.3c-11,0-22,0-33,0c-1.7,0-3.5,0.9-4.3,2.5c-5.3,10-10.7,20-16,30c2.6-0.3,5.2-0.7,7.9-1
			c-6.1-7.2-12.2-14.4-18.3-21.7c-1.4-1.6-2.8-4-4.7-5.1c-2-1.1-4.9-1-7-1.3c-4.9-0.7-9.8-1.3-14.6-2c-19.8-2.7-39.7-5.5-59.5-8.2
			c-2.9-0.4-5.1,0.7-6.2,3.5c-9.2,25-18.3,50-27.5,75c-1.1,3.1-2.3,6.3-3.4,9.4c-0.9,2.4-2.4,5-2.2,7.6c0.2,2.5,2,5.1,3,7.3
			c1.6,3.6,3.2,7.3,4.8,10.9c5.4,12.2,10.7,24.3,16.1,36.5c21.2,48,42.3,96,63.5,144.1c12.1,27.4,24.1,54.7,36.2,82.1
			C244.3,759.4,252.9,754.3,250.3,748.5z"/>
	</g>
</g>
<g>
	<g>
		<path class="st0" d="M248,411.1c18.7,33.5,37.3,66.9,56,100.4c29.6,53,59.1,106,88.7,159c6.8,12.2,13.7,24.5,20.5,36.7
			c1.6,2.8,5.9,0.3,4.3-2.5c-18.7-33.5-37.3-66.9-56-100.4c-29.6-53-59.1-106-88.7-159c-6.8-12.2-13.7-24.5-20.5-36.7
			C250.8,405.7,246.4,408.3,248,411.1L248,411.1z"/>
	</g>
</g>
<g>
	<g>
		<path class="st0" d="M304.9,381c3.6,10.8,7.3,21.7,10.9,32.5c8.7,26,17.4,52.1,26.2,78.1c10.5,31.3,21,62.6,31.5,94
			c9.1,27.2,18.2,54.5,27.4,81.7c3,9,6,18,9,26.9c1.4,4.2,2.4,8.8,4.3,12.8c0.1,0.2,0.1,0.4,0.2,0.6c1,3,5.8,1.7,4.8-1.3
			c-3.6-10.8-7.3-21.7-10.9-32.5c-8.7-26-17.4-52.1-26.2-78.1c-10.5-31.3-21-62.6-31.5-94c-9.1-27.2-18.2-54.5-27.4-81.7
			c-3-9-6-18-9-26.9c-1.4-4.2-2.4-8.8-4.3-12.8c-0.1-0.2-0.1-0.4-0.2-0.6C308.7,376.6,303.9,377.9,304.9,381L304.9,381z"/>
	</g>
</g>
<g>
	<g>
		<path class="st0" d="M468.3,364.8c4.7,36.1,9.3,72.3,14,108.4c7.4,57.2,14.8,114.3,22.2,171.5c1.7,13.1,3.4,26.3,5.1,39.4
			c0.4,3.1,5.4,3.2,5,0c-4.7-36.1-9.3-72.3-14-108.4c-7.4-57.2-14.8-114.3-22.2-171.5c-1.7-13.1-3.4-26.3-5.1-39.4
			C472.8,361.6,467.8,361.6,468.3,364.8L468.3,364.8z"/>
	</g>
</g>
<g>
	<g>
		<path class="st0" d="M577.2,541.2c-18.7,16.7-37.3,33.3-56,50c-2.4,2.1,1.1,5.7,3.5,3.5c18.7-16.7,37.3-33.3,56-50
			C583.2,542.6,579.6,539.1,577.2,541.2L577.2,541.2z"/>
	</g>
</g>
<g>
	<g>
		<path class="st0" d="M514.5,684c3.2-26.5,6.4-53.1,9.6-79.6c0.5-3.8,0.9-7.6,1.4-11.4c0.4-3.2-4.6-3.2-5,0
			c-3.2,26.5-6.4,53.1-9.6,79.6c-0.5,3.8-0.9,7.6-1.4,11.4C509.1,687.2,514.1,687.2,514.5,684L514.5,684z"/>
	</g>
</g>
<line class="st1" x1="-124" y1="271" x2="-120" y2="273"/>
<g>
	<g>
		<path class="st0" d="M240.1,190.5c7.3,7.3,14.7,14.7,22,22c-0.3-2-0.5-4-0.8-6.1c-6.2,11.1-12.4,22.2-18.7,33.3c2.9,0,5.8,0,8.6,0
			c-7.3-11.3-14.7-22.7-22-34c-0.3,2-0.5,4-0.8,6.1c6.2-7.1,12.4-14.2,18.7-21.3c4.2-4.8-2.8-11.9-7.1-7.1
			c-6.2,7.1-12.4,14.2-18.7,21.3c-1.4,1.6-2,4.1-0.8,6.1c7.3,11.3,14.7,22.7,22,34c2,3.1,6.7,3.4,8.6,0
			c6.2-11.1,12.4-22.2,18.7-33.3c1.1-1.9,0.8-4.5-0.8-6.1c-7.3-7.3-14.7-14.7-22-22C242.6,178.9,235.6,186,240.1,190.5z"/>
	</g>
</g>
<g>
	<g>
		<path class="st0" d="M502.1,121.2c8.9,9.3,17.8,18.7,26.7,28c-0.3-2-0.5-4-0.8-6.1c-7.8,12.4-15.6,24.9-23.3,37.3
			c2.9,0,5.8,0,8.6,0c-8.4-12.4-16.9-24.9-25.3-37.3c-0.3,2-0.5,4-0.8,6.1c7.3-9.3,14.7-18.7,22-28c3.9-5-3.1-12.1-7.1-7.1
			c-7.3,9.3-14.7,18.7-22,28c-1.3,1.7-2.1,4.1-0.8,6.1c8.4,12.4,16.9,24.9,25.3,37.3c2.1,3.1,6.6,3.3,8.6,0
			c7.8-12.4,15.6-24.9,23.3-37.3c1.2-1.9,0.7-4.5-0.8-6.1c-8.9-9.3-17.8-18.7-26.7-28C504.8,109.5,497.7,116.5,502.1,121.2z"/>
	</g>
</g>
<g>
	<g>
		<path class="st0" d="M210.7,39.8c-5.3,7.8-10.7,15.6-16,23.3c-0.9,1.4-0.9,3.7,0,5c5.6,8,11.1,16,16.7,24c2.2,3.1,6.5,3.3,8.6,0
			c4.9-7.6,9.8-15.1,14.7-22.7c0.9-1.5,0.9-3.6,0-5c-5.1-8.2-10.2-16.4-15.3-24.7c-3.4-5.5-12-0.4-8.6,5
			c5.1,8.2,10.2,16.4,15.3,24.7c0-1.7,0-3.4,0-5c-4.9,7.6-9.8,15.1-14.7,22.7c2.9,0,5.8,0,8.6,0c-5.6-8-11.1-16-16.7-24
			c0,1.7,0,3.4,0,5c5.3-7.8,10.7-15.6,16-23.3C223,39.5,214.3,34.5,210.7,39.8z"/>
	</g>
</g>
<g>
	<g>
		<path class="st0" d="M594.7,472.3c-0.4,8.2-0.9,16.4-1.3,24.7c-0.1,1.7,1,3.5,2.5,4.3c9.8,5.1,19.6,10.2,29.3,15.3
			c3.1,1.6,7.8-0.3,7.5-4.3c-0.7-9.6-1.3-19.1-2-28.7c-0.1-1.6-0.8-3.6-2.5-4.3c-8.7-3.8-17.3-7.6-26-11.3c-5.8-2.5-10.9,6.1-5,8.6
			c8.7,3.8,17.3,7.6,26,11.3c-0.8-1.4-1.7-2.9-2.5-4.3c0.7,9.6,1.3,19.1,2,28.7c2.5-1.4,5-2.9,7.5-4.3c-9.8-5.1-19.6-10.2-29.3-15.3
			c0.8,1.4,1.7,2.9,2.5,4.3c0.4-8.2,0.9-16.4,1.3-24.7C605,465.9,595,465.9,594.7,472.3z"/>
	</g>
</g>
<g>
	<g>
		<path class="st0" d="M111.5,328.8c-5.3,6.4-10.7,12.9-16,19.3c-1.1,1.3-2,3.2-1.3,4.9c4.4,10.9,8.9,21.8,13.3,32.7
			c1.7,4.1,6.5,4.9,9.1,1.2c5.8-8,11.6-16,17.3-24c1.1-1.5,0.8-3.6,0-5c-4.9-9.3-9.8-18.7-14.7-28c-3-5.7-11.6-0.7-8.6,5
			c4.9,9.3,9.8,18.7,14.7,28c0-1.7,0-3.4,0-5c-5.8,8-11.6,16-17.3,24c3,0.4,6.1,0.8,9.1,1.2c-4.4-10.9-8.9-21.8-13.3-32.7
			c-0.4,1.6-0.9,3.2-1.3,4.9c5.3-6.4,10.7-12.9,16-19.3C122.6,330.9,115.6,323.8,111.5,328.8z"/>
	</g>
</g>
<g>
	<g>
		<path class="st0" d="M420.8,10.1c-6,7.3-12,14.7-18,22c-1.4,1.7-2,4-0.8,6.1c6.4,10.7,12.9,21.3,19.3,32c1.9,3.1,6.8,3.4,8.6,0
			c5.3-10,10.7-20,16-30c0.8-1.5,1-3.6,0-5c-5.8-8-11.6-16-17.3-24c-3.7-5.2-12.4-0.2-8.6,5c5.8,8,11.6,16,17.3,24c0-1.7,0-3.4,0-5
			c-5.3,10-10.7,20-16,30c2.9,0,5.8,0,8.6,0c-6.4-10.7-12.9-21.3-19.3-32c-0.3,2-0.5,4-0.8,6.1c6-7.3,12-14.7,18-22
			C431.9,12.3,424.9,5.1,420.8,10.1z"/>
	</g>
</g>
<g>
	<g>
		<path class="st0" d="M123,473.3c28,0.1,56,0.2,84,0.3c1.6,0,1.6-2.5,0-2.5c-28-0.1-56-0.2-84-0.3
			C121.4,470.7,121.4,473.2,123,473.3L123,473.3z"/>
	</g>
</g>
<g>
	<g>
		<path class="st0" d="M352.1,754.4c-16.3-31.9-32.5-63.8-48.8-95.8c-25.9-50.8-51.7-101.6-77.6-152.3
			c-5.9-11.5-11.7-23.1-17.6-34.6c-0.7-1.4-2.9-0.2-2.2,1.3c16.3,31.9,32.5,63.8,48.8,95.8c25.9,50.8,51.7,101.6,77.6,152.3
			c5.9,11.5,11.7,23.1,17.6,34.6C350.7,757.1,352.8,755.8,352.1,754.4L352.1,754.4z"/>
	</g>
</g>
<line class="st2" x1="186.3" y1="275" x2="185" y2="276.3"/>
<g>
	<g>
		<path class="st0" d="M208.2,472.7c9.6-24.1,19.1-48.2,28.7-72.3c0.6-1.5-1.8-2.1-2.4-0.7c-9.6,24.1-19.1,48.2-28.7,72.3
			C205.2,473.5,207.6,474.1,208.2,472.7L208.2,472.7z"/>
	</g>
</g>
<g>
	<g>
		<path class="st0" d="M259,427.8c12.7,5.4,25.4,10.8,38.1,16.3c1.5,0.6,2.7-1.5,1.3-2.2c-12.7-5.4-25.4-10.8-38.1-16.3
			C258.8,425,257.5,427.2,259,427.8L259,427.8z"/>
	</g>
</g>
<g>
	<g>
		<path class="st0" d="M310.6,393.5c-4.7,16.4-9.5,32.8-14.2,49.2c-0.4,1.5,2,2.2,2.4,0.7c4.7-16.4,9.5-32.8,14.2-49.2
			C313.5,392.6,311.1,391.9,310.6,393.5L310.6,393.5z"/>
	</g>
</g>
<g>
	<g>
		<path class="st0" d="M292.3,322.8c25.7,3.2,51.4,6.3,77.1,9.5c3.6,0.4,7.3,0.9,10.9,1.3c1.6,0.2,1.6-2.3,0-2.5
			c-25.7-3.2-51.4-6.3-77.1-9.5c-3.6-0.4-7.3-0.9-10.9-1.3C290.7,320.1,290.7,322.6,292.3,322.8L292.3,322.8z"/>
	</g>
</g>
<g>
	<g>
		<path class="st0" d="M433.9,229.4C418,259.3,402,289.1,386,319c-2.3,4.2-4.5,8.5-6.8,12.7c-0.8,1.4,1.4,2.7,2.2,1.3
			c16-29.9,31.9-59.8,47.9-89.7c2.3-4.2,4.5-8.5,6.8-12.7C436.8,229.2,434.7,227.9,433.9,229.4L433.9,229.4z"/>
	</g>
</g>
<g>
	<g>
		<path class="st0" d="M379.1,332.7c2.9,12,5.9,23.9,8.8,35.9c7.1,28.7,14.1,57.5,21.2,86.2c8.5,34.6,17,69.2,25.5,103.8
			c7.4,30.1,14.8,60.2,22.2,90.2c2.4,9.9,4.9,19.8,7.3,29.8c1.1,4.4,1.5,10,3.5,14.1c0.1,0.2,0.1,0.4,0.2,0.6
			c0.4,1.6,2.8,0.9,2.4-0.7c-2.9-12-5.9-23.9-8.8-35.9c-7.1-28.7-14.1-57.5-21.2-86.2c-8.5-34.6-17-69.2-25.5-103.8
			c-7.4-30.1-14.8-60.2-22.2-90.2c-2.4-9.9-4.9-19.8-7.3-29.8c-1.1-4.4-1.5-10-3.5-14.1c-0.1-0.2-0.1-0.4-0.2-0.6
			C381.2,330.4,378.7,331.1,379.1,332.7L379.1,332.7z"/>
	</g>
</g>
<g>
	<g>
		<path class="st0" d="M522.4,594.1c15.3,6.9,30.7,13.8,46,20.7c1.5,0.7,2.7-1.5,1.3-2.2c-15.3-6.9-30.7-13.8-46-20.7
			C522.2,591.3,520.9,593.4,522.4,594.1L522.4,594.1z"/>
	</g>
</g>
<g>
	<g>
		<path class="st0" d="M639.5,590.4c-9.1,7.5-18.3,14.9-27.4,22.4c-1.2,1,0.5,2.8,1.8,1.8c9.1-7.5,18.3-14.9,27.4-22.4
			C642.6,591.2,640.8,589.4,639.5,590.4L639.5,590.4z"/>
	</g>
</g>
<g>
	<g>
		<path class="st0" d="M569,614.9c14.7,0,29.3,0,44,0c1.6,0,1.6-2.5,0-2.5c-14.7,0-29.3,0-44,0C567.4,612.4,567.4,614.9,569,614.9
			L569,614.9z"/>
	</g>
</g>
<g>
	<g>
		<path class="st0" d="M556.2,712.3c4.1-28.7,8.2-57.3,12.2-86c0.6-4.1,1.2-8.2,1.8-12.3c0.2-1.6-2.2-2.3-2.4-0.7
			c-4.1,28.7-8.2,57.3-12.2,86c-0.6,4.1-1.2,8.2-1.8,12.3C553.6,713.2,556,713.9,556.2,712.3L556.2,712.3z"/>
	</g>
</g>
<g>
	<g>
		<path class="st0" d="M611.8,613.3c-4.3,25.7-8.6,51.4-12.8,77.1c-0.6,3.6-1.2,7.3-1.8,10.9c-0.3,1.6,2.1,2.3,2.4,0.7
			c4.3-25.7,8.6-51.4,12.8-77.1c0.6-3.6,1.2-7.3,1.8-10.9C614.5,612.4,612.1,611.7,611.8,613.3L611.8,613.3z"/>
	</g>
</g>
<g>
	<g>
		<path class="st0" d="M296.6,443.6c12.4,28.2,24.9,56.3,37.3,84.5c19.7,44.5,39.4,89.1,59,133.6c4.5,10.3,9.1,20.6,13.6,30.9
			c0.6,1.5,2.8,0.2,2.2-1.3c-12.4-28.2-24.9-56.3-37.3-84.5c-19.7-44.5-39.4-89.1-59-133.6c-4.5-10.3-9.1-20.6-13.6-30.9
			C298.1,440.9,295.9,442.2,296.6,443.6L296.6,443.6z"/>
	</g>
</g>
<g>
	<g>
		<path class="st0" d="M471.8,378.7c20,14.9,39.9,29.8,59.9,44.7c1.3,1,2.5-1.2,1.3-2.2c-20-14.9-39.9-29.8-59.9-44.7
			C471.8,375.6,470.5,377.8,471.8,378.7L471.8,378.7z"/>
	</g>
</g>
<g>
	<g>
		<path class="st0" d="M584.1,372.1c-17.6,16.4-35.1,32.9-52.7,49.3c-1.2,1.1,0.6,2.9,1.8,1.8c17.6-16.4,35.1-32.9,52.7-49.3
			C587.1,372.8,585.3,371,584.1,372.1L584.1,372.1z"/>
	</g>
</g>
<g>
	<g>
		<path class="st0" d="M541.9,577.2c-2.4-45.3-4.9-90.6-7.3-135.9c-0.3-6.3-0.7-12.7-1-19c-0.1-1.6-2.6-1.6-2.5,0
			c2.4,45.3,4.9,90.6,7.3,135.9c0.3,6.3,0.7,12.7,1,19C539.5,578.8,542,578.8,541.9,577.2L541.9,577.2z"/>
	</g>
</g>
<g>
	<g>
		<path class="st0" d="M506.8,124.3c0,7.1,0,14.2,0,21.3c0,1.6,2.5,1.6,2.5,0c0-7.1,0-14.2,0-21.3
			C509.3,122.7,506.8,122.7,506.8,124.3L506.8,124.3z"/>
	</g>
</g>
<g>
	<g>
		<path class="st0" d="M492.3,161.2c5.5-4.9,11.1-9.8,16.6-14.7c1.2-1.1-0.6-2.8-1.8-1.8c-5.5,4.9-11.1,9.8-16.6,14.7
			C489.3,160.5,491.1,162.3,492.3,161.2L492.3,161.2z"/>
	</g>
</g>
<g>
	<g>
		<path class="st0" d="M104.2,342.8c5.6,9.2,10.8,18.6,15.6,28.3c0.7,1.4,2.9,0.2,2.2-1.3c-4.8-9.7-9.9-19.1-15.6-28.3
			C105.6,340.1,103.4,341.4,104.2,342.8L104.2,342.8z"/>
	</g>
</g>
<g>
	<g>
		<path class="st0" d="M241,191c0.1,2.6,0.3,5.3,0.4,7.9c0.1,2.2,0.8,5.1,0.4,7.2c-0.4,2.5-3.9,1.6-6.1,1.6c-2.7,0-5.4-0.1-8.1-0.1
			c-1.6,0-1.6,2.5,0,2.5c3.6,0.1,7.2,0.2,10.8,0.1c1.6,0,4.1,0.4,5.3-1c1.5-1.8,0.4-5.6,0.3-7.7c-0.2-3.5-0.4-7-0.6-10.5
			C243.4,189.4,240.9,189.4,241,191L241,191z"/>
	</g>
</g>
<g>
	<g>
		<path class="st0" d="M213,49.7c0.3,11.6,0.6,23.1,0.9,34.7c0,1.6,2.5,1.6,2.5,0c-0.3-11.6-0.6-23.1-0.9-34.7
			C215.5,48.1,213,48.1,213,49.7L213,49.7z"/>
	</g>
</g>
<g>
	<g>
		<path class="st0" d="M411.9,26c6.6,7.7,13.1,15.3,19.7,23c1,1.2,2.8-0.6,1.8-1.8c-6.6-7.7-13.1-15.3-19.7-23
			C412.6,23.1,410.9,24.8,411.9,26L411.9,26z"/>
	</g>
</g>
<g>
	<g>
		<path class="st0" d="M621.9,484.6c-1.7,1.4-3.4,2.9-5.2,4.3c-0.8,0.6-2.4,2.2-3.4,2.1c-0.7-0.1-2.1-2.6-2.5-3.1
			c-2.9-3.6-5.7-7.1-8.6-10.7c-1-1.3-2.8,0.5-1.8,1.8c2.2,2.7,4.4,5.4,6.6,8.2c1.4,1.7,3.5,5.7,5.7,6.6c1.2,0.4,2-0.1,3-0.7
			c2.9-1.7,5.4-4.5,8-6.6C624.9,485.3,623.1,483.6,621.9,484.6L621.9,484.6z"/>
	</g>
</g>
<g>
	<g>
		<path class="st0" d="M179.8,556.5c12.1,27.1,24.2,54.3,36.3,81.4c1.7,3.9,3.5,7.8,5.2,11.8c0.7,1.5,2.8,0.2,2.2-1.3
			c-12.1-27.1-24.2-54.3-36.3-81.4c-1.7-3.9-3.5-7.8-5.2-11.8C181.3,553.8,179.1,555.1,179.8,556.5L179.8,556.5z"/>
	</g>
</g>
<g>
	<g>
		<path class="st0" d="M391.8,337.3c4.9,21,9.8,42,14.7,63c0.4,1.6,2.8,0.9,2.4-0.7c-4.9-21-9.8-42-14.7-63
			C393.8,335.1,391.4,335.8,391.8,337.3L391.8,337.3z"/>
	</g>
</g>
<g>
	<g>
		<path class="st0" d="M423.6,286.4c-10.6,16.7-21.1,33.3-31.7,50c-0.9,1.4,1.3,2.6,2.2,1.3c10.6-16.7,21.1-33.3,31.7-50
			C426.6,286.3,424.5,285,423.6,286.4L423.6,286.4z"/>
	</g>
</g>
<g>
	<g>
		<path class="st0" d="M521.8,448c1.3,25.5,2.7,50.9,4,76.4c0.1,1.6,2.6,1.6,2.5,0c-1.3-25.5-2.7-50.9-4-76.4
			C524.2,446.4,521.7,446.4,521.8,448L521.8,448z"/>
	</g>
</g>
<g>
	<g>
		<path class="st0" d="M545.4,591.1c7.7,4.2,15.3,8.3,23,12.5c1.4,0.8,2.7-1.4,1.3-2.2c-7.7-4.2-15.3-8.3-23-12.5
			C545.2,588.2,544,590.3,545.4,591.1L545.4,591.1z"/>
	</g>
</g>
<g>
	<g>
		<path class="st0" d="M601.4,601.2c-10.8,0-21.6,0-32.4,0c-1.6,0-1.6,2.5,0,2.5c10.8,0,21.6,0,32.4,0
			C603,603.7,603,601.2,601.4,601.2L601.4,601.2z"/>
	</g>
</g>
</svg>
