<?xml version="1.0" standalone="no"?>
<!DOCTYPE svg PUBLIC "-//W3C//DTD SVG 20010904//EN"
 "http://www.w3.org/TR/2001/REC-SVG-20010904/DTD/svg10.dtd">
<svg version="1.0" xmlns="http://www.w3.org/2000/svg"
 width="519.000000pt" height="149.000000pt" viewBox="0 0 519.000000 149.000000"
 preserveAspectRatio="xMidYMid meet">
 <style type="text/css">
	.st0{fill:#5FFFDC;}
</style>
<g transform="translate(0.000000,149.000000) scale(0.100000,-0.100000)"
fill="#ffffff" stroke="none">
<path class="st0" d="M3666 1459 c-63 -54 -57 -151 10 -191 28 -16 34 -26 34 -52 0 -25 6
-35 24 -44 30 -14 36 -8 36 37 0 31 4 38 30 48 85 32 92 175 10 218 -49 25
-104 20 -144 -16z"/>
<path class="st0" d="M2313 1455 c-55 -23 -74 -78 -61 -167 2 -9 -26 -53 -61 -97 -49 -61
-70 -81 -89 -81 -44 0 65 -76 131 -90 38 -9 57 -18 57 -28 0 -8 -9 -69 -20
-135 -20 -116 -21 -155 -1 -106 5 13 25 62 45 109 20 46 36 95 36 107 0 13 5
23 10 23 16 0 33 52 20 60 -8 5 -8 29 1 89 12 78 14 82 46 98 85 40 85 176 -1
217 -41 19 -70 20 -113 1z"/>
<path class="st0" d="M1149 1375 c-38 -20 -59 -58 -59 -105 0 -75 7 -80 120 -80 88 0 100
2 110 19 15 29 12 104 -6 129 -34 48 -112 66 -165 37z"/>
<path class="st0" d="M4234 1339 c-46 -13 -76 -51 -81 -103 -5 -37 -3 -46 10 -46 30 0 47
12 47 35 0 45 69 75 104 46 8 -7 18 -26 21 -42 6 -24 12 -29 37 -29 29 0 30 1
23 36 -3 21 -13 47 -21 59 -26 39 -88 59 -140 44z"/>
<path class="st0" d="M1568 1274 c-32 -17 -58 -62 -58 -99 0 -14 2 -25 5 -25 12 0 55 24
55 32 0 4 9 17 20 28 24 24 63 26 80 5 15 -18 80 -20 80 -2 -1 16 -20 39 -50
60 -30 21 -95 21 -132 1z"/>
<path class="st0" d="M1635 1137 c-68 -18 -105 -39 -149 -84 -66 -68 -85 -191 -43 -273 40
-81 88 -107 319 -171 115 -32 138 -71 62 -108 -53 -26 -203 15 -296 81 -17 13
-14 15 -109 -99 -21 -26 -36 -51 -32 -56 11 -18 109 -74 165 -95 135 -50 322
-48 421 5 141 77 181 262 81 372 -41 46 -117 81 -249 116 -136 35 -159 51
-135 95 23 43 148 30 251 -27 27 -14 51 -24 53 -22 24 29 106 155 106 163 0
17 -97 72 -160 91 -74 22 -222 28 -285 12z"/>
<path class="st0" d="M3419 1136 c-119 -33 -217 -118 -272 -234 -30 -63 -32 -73 -32 -182
0 -108 2 -119 32 -183 103 -219 373 -309 599 -197 56 27 154 116 154 140 0 4
-39 36 -86 70 l-87 62 -36 -36 c-20 -19 -53 -42 -73 -51 -199 -82 -358 190
-205 350 82 85 189 82 275 -6 23 -23 35 -29 44 -22 7 5 48 37 91 71 l78 61
-41 45 c-80 86 -181 127 -314 125 -45 0 -102 -7 -127 -13z"/>
<path class="st0" d="M4170 1134 c-132 -35 -200 -122 -200 -256 0 -136 66 -195 284 -253
127 -33 156 -48 156 -81 0 -19 -8 -28 -36 -40 -62 -26 -174 -2 -264 56 -26 17
-49 30 -52 30 -8 0 -128 -147 -128 -157 0 -9 78 -63 125 -86 99 -49 298 -66
406 -34 67 20 144 84 170 142 27 59 25 158 -3 215 -29 56 -95 102 -186 129
-229 68 -251 79 -226 118 28 45 126 39 234 -14 30 -16 58 -29 61 -31 4 -2 32
34 64 78 65 94 65 94 -28 142 -110 55 -264 72 -377 42z"/>
<path class="st0" d="M550 877 c0 -294 7 -352 54 -429 63 -106 163 -153 326 -152 208 1
332 82 375 245 11 41 15 122 15 327 l0 272 -119 0 -120 0 -3 -272 c-3 -249 -5
-276 -22 -301 -26 -39 -66 -57 -125 -57 -42 0 -56 5 -85 31 -20 17 -40 47 -46
67 -5 21 -10 147 -10 285 l0 247 -120 0 -120 0 0 -263z"/>
<path class="st0" d="M2474 1103 c-9 -21 -84 -198 -166 -393 -83 -195 -154 -365 -159 -378
l-9 -23 126 3 126 3 28 70 28 70 153 0 154 0 29 -72 30 -73 128 0 128 0 -15
37 c-9 21 -87 207 -174 413 l-158 375 -117 3 -117 3 -15 -38z m206 -455 c0 -5
-36 -8 -81 -8 -61 0 -80 3 -76 13 3 6 22 54 42 105 l38 93 38 -98 c22 -54 39
-101 39 -105z"/>
<path class="st0" d="M2850 968 c21 -51 42 -93 47 -93 4 0 12 14 17 31 9 29 15 32 84 49
127 30 137 34 161 66 12 17 21 33 18 35 -2 3 -63 -9 -134 -26 l-130 -31 -33
31 c-17 16 -40 30 -50 30 -17 0 -14 -10 20 -92z"/>
<path class="st0" d="M62 1034 c-18 -9 -40 -30 -48 -45 -19 -38 -18 -104 3 -136 18 -27 68
-53 104 -53 35 0 89 31 104 60 l14 28 113 -29 c62 -16 119 -29 126 -29 7 0 12
12 12 29 0 29 -1 29 -117 58 -64 15 -120 33 -124 38 -48 63 -77 87 -114 91
-26 3 -52 -1 -73 -12z"/>
<path class="st0" d="M970 970 c-41 -58 -50 -66 -85 -70 -37 -5 -40 -8 -43 -38 -3 -31 -2
-33 20 -27 32 10 30 10 56 1 36 -12 47 -54 24 -85 -16 -21 -27 -26 -61 -24
-39 2 -41 0 -41 -27 0 -16 5 -32 10 -35 6 -3 7 -17 4 -31 -4 -17 -1 -31 11
-44 28 -31 42 -24 48 22 3 24 11 44 17 46 6 2 24 15 40 28 50 43 60 113 23
170 -12 18 -11 24 7 47 17 21 20 38 18 79 l-3 53 -45 -65z"/>
<path class="st0" d="M4620 931 c-6 -12 -8 -26 -5 -31 3 -5 80 -71 170 -146 163 -134 165
-136 165 -175 0 -54 22 -93 64 -113 88 -42 176 12 176 109 0 95 -92 153 -174
110 l-28 -15 -164 135 c-91 75 -171 138 -179 141 -7 3 -18 -4 -25 -15z"/>
<path class="st0" d="M3033 528 c69 -164 91 -214 99 -219 5 -3 90 -37 189 -74 168 -64 181
-71 196 -103 55 -116 233 -77 233 52 0 47 -23 88 -45 81 -49 -16 -47 -13 -30
-39 22 -33 16 -65 -16 -88 -48 -36 -101 12 -85 77 6 24 5 25 -46 24 -76 -2
-170 24 -238 65 -19 12 -64 33 -100 48 -55 22 -65 30 -62 49 4 37 -17 87 -49
114 -33 27 -54 33 -46 13z"/>
<path class="st0" d="M2559 377 c-90 -19 -97 -23 -107 -51 -7 -16 -10 -31 -8 -34 4 -3 288
56 292 61 1 1 -2 12 -7 25 -10 28 -38 28 -170 -1z"/>
<path class="st0" d="M1309 345 c-36 -7 -90 -27 -120 -44 -86 -48 -154 -61 -314 -59 -155
1 -189 -8 -215 -58 -8 -15 -15 -47 -14 -72 2 -88 101 -140 184 -97 51 27 76
106 49 157 -6 11 -9 22 -6 24 6 6 474 94 498 94 11 0 19 -6 19 -14 0 -8 14
-26 31 -40 41 -35 113 -36 154 -4 l28 22 -28 12 c-16 6 -46 9 -66 7 -32 -5
-39 -2 -55 23 -22 34 -55 64 -69 63 -5 -1 -40 -7 -76 -14z"/>
<path class="st0" d="M4510 277 c-14 -6 -26 -12 -28 -13 -2 -1 6 -12 17 -23 26 -26 27 -65
1 -91 -25 -25 -55 -25 -80 0 -22 22 -25 51 -9 82 10 19 9 20 -12 15 -13 -4
-33 -7 -45 -7 -19 0 -20 -4 -14 -49 8 -65 31 -98 80 -112 56 -17 114 1 140 44
24 39 26 109 4 142 -18 28 -19 28 -54 12z"/>
</g>
</svg>
