<svg xmlns="http://www.w3.org/2000/svg" xmlns:xlink="http://www.w3.org/1999/xlink" version="1.1" id="Layer_2" x="0" y="0" viewBox="0 0 800 800" xml:space="preserve" enable-background="new 0 0 800 800">
  <!-- <style type="text/css">.st0{fill:#FFFFFF;}</style> -->
  
  <g stroke="currentColor" stroke-width="7" fill="rgba(0, 0, 0, 0.05)">
  <path class="st0" d="M554.5 128.8c-4.3 3-8.6 9.5-14.4 6.4 -4.7-2.5-7.9-7.7-12.3-10.8 -9.5-6.8-21.8-6.7-32.8-4.3 -11.6 2.6-23 7.9-32.7 14.7 -9.4 6.6-16.1 17.2-26.7 21.9 -10.1 4.5-22.5 4.3-33.3 5.3 -11.9 1-22.7 1.3-33.3-4.9 -2.8-1.6-6.3-5-9.8-4.6 -3.6 0.4-4.7 3.9-4.1 7 1 5.1 4.4 9.9 7.3 14.1 3 4.4 6.4 8.6 10.2 12.4 9.4 9.3 19.9 17.8 30.5 25.7 9.6 7.2 21.4 11 33.2 12.7 -0.9-1.5-1.7-3.1-2.6-4.6 -7.5 25.5-9.2 52.2-5.2 78.5 1.2-1.6 2.4-3.2 3.6-4.7 -4.9 0-9.9 0-14.8 0 1.1 0.6 2.2 1.2 3.2 1.9 -11.7-22-26.9-40.5-45.2-57.3 -11.2-10.3-22.6-20.4-34-30.4 -9.9-8.7-20-17-31.4-23.7 -23.1-13.5-49.2-20.6-72.2-34.3 -24.5-14.5-44.5-34-62.7-55.7 -21.8-26.1-42.5-53.3-60.5-82.2 -1.8-2.9-5.8-2.1-6.9 0.9 -10.2 29.3-13.4 60.6-9 91.3 3.5 25.1 12 49 23 71.7 22.9 47.3 56.2 87.1 98.8 118 15.7 11.4 32.5 21.5 49.9 30.2 0.3-2.3 0.6-4.6 0.9-6.9 -21.2 4.5-43-1.8-59-16.4 -2.6-2.4-7.4-0.1-6.3 3.6 17.1 55 58.8 98.1 109.1 124.5 18.3 9.6 37.8 16.8 57.8 21.6 -0.3-2.3-0.6-4.6-0.9-6.9 -28.3 12.9-51.5 34.6-66.1 62 -13.5 25.5-21.7 55.2-25.6 83.7 -4.1 29.9-3.3 60.3 1.8 90 0.9 5.6 2.9 11.4 3.4 17 0.6 6.7-6.7 13.6-12.1 16.5 -11 5.8-25.3 4.6-37.4 4 -13.2-0.6-26.8-2.9-37.8-10.7 -12.3-8.8-18.9-23.4-20.1-38.2 -0.9-11.9 0.9-21.6 7.6-31.6 4.9-7.3 10.6-14.2 16-21.1 9.6-12.2 19.3-24.4 28.7-36.7 7.2-9.4 14.9-19 19.8-29.9 4.2-9.4 6.1-20.3 6.4-30.6 0.4-15.5-5-29.8-15.7-41 -6.5-6.8-20.1-15.7-16.8-26.9 0.6-1.9 1.6-3.6 2.2-5.6 0.9-3.2 1.2-6.7 1.4-10 0.3-6.7-0.4-13.6-2-20.1 -1.6-6.8-4.1-13.5-7.9-19.4 -3.3-5.2-8.3-8.6-11.8-13.4 -3.3-4.5-3.6-10.9-3.1-16.3 0.3-3.9-5.2-4.9-7-1.9 -7.6 12.3-11.2 26.5-10.1 41 2.5 0 5 0 7.5 0 -2.8-26.2-15-49.7-34.8-67.1 -13.7-12-29.9-21-46.9-27.2 -6.9-2.5-14.2-3.9-20.2-8.4 -5.2-4-8.8-9.5-11-15.6 -1-2.7-1.4-6.2-3-8.6 -2.2-3.2-6.2-2.2-7.5 1.2 -1.2 3.4-0.6 7.8-0.2 11.3 1.7 13.7 7.2 26.5 16.1 37 20.8 24.8 47.5 50.7 41 86.1 0.6-0.7 1.1-1.5 1.7-2.2 -15.6 8.2-17.5-22.7-16.2-31.4 0.6-4-4.5-6.8-6.9-2.9 -13.6 22.2-11.1 48.2 5.1 68.3 12.7 15.7 31.2 27 51.1 30.3 11.3 1.9 22.9 1.6 34.1-0.8 -1-0.1-1.9-0.3-2.9-0.4 14.7 10.2 24.2 26.3 24 44.4 -0.2 16.9-6.7 34.5-15.5 48.6 -7.7 12.3-18 23-29.5 32 -4.1 3.2-8.4 6.2-12.8 8.9 -1.4 0.9-3.2 1.6-4.4 2.8 -2.6 2.5-4.6 6.4-6.4 9.5 -16.1 27.9-17 65.8 2.6 92.2 14 18.8 36 30.5 58.6 35.9 29.1 7 60 1.3 85.3-14.2 -1.5-0.2-3-0.4-4.5-0.6 2.5 3.2 4.9 6.4 7.4 9.6 2.3 2.9 4.7 7.7 7.8 9.9 2.4 1.7 6.7 2 9.5 2.7 4.2 1 8.5 2 12.8 2.9 16.3 3.5 32.7 6.2 49.2 8.1 32.1 3.7 64.5 4.3 96.8 1.9 15.2-1.1 30.4-3 45.4-5.4 1.2-0.2 2.4-1.5 2.6-2.6 0.8-4 1.7-10.4 4.3-13.1 -1.1 1.1-1.1-0.3-0.3 1.4 0.5 1.1 1.8 2.3 2.6 3.2 2 2.3 4.4 4.3 7 5.8 8.2 4.5 18.7 4.2 27.8 4.4 12.8 0.3 25.7 0 38.5-0.3 8.8-0.2 17.7-0.6 26.5-1 7.9-0.4 15.3-7.5 21.8-11.7 1.6-1.1 3.6-2.9 5.5-3.1 2-0.3 4.7 0.8 6.5 1.6 3.6 1.5 6.6 4 8.8 7.3 2.4 3.5 3.9 7.6 4.6 11.8 0.5 3.6 5.2 3.2 6.9 0.9 11.4-15.4 6.9-36-8-47.2 -15.6-11.7-36.7-7.2-50.9 4.4 0.9-0.4 1.8-0.7 2.7-1.1 -6.9 0.3-14.6-1-17.2-8.4 -1.5-4.2-0.9-8.7-0.6-13.1 0.5-8.3 0.6-16.6 0.6-24.9 0.2-29-0.2-58-0.7-87 -0.1-8.9-0.7-17.4 3-25.7 2.8-6.4 7.5-11.8 13.2-15.7 -1.8-0.7-3.7-1.5-5.5-2.2 1.6 5.7 2.1 11.5 1.1 17.4 -0.4 2.6-1.4 5-2 7.6 -0.8 3.5 3.6 6.5 6.3 3.6 1.1-1.2 1.7-3 2.3-4.5 1.6-3.6 3-7.2 4.4-10.9 5-13.3 9.1-27 12.4-40.8 6.8-28.4 15.2-60.4 8-89.5 -3.7-14.9-12.2-27.5-24.3-36.8 -1.3 2.2-2.5 4.3-3.8 6.5 7.8 4.1 15.7 8.1 23.5 12.2 2.5 1.3 5.6-0.3 5.6-3.2 0.7-23.4-2.2-47.3-7.1-70.2 -5.5-25.6-14.3-54-33.6-72.7 -4.4-4.3-9.5-8.1-15-10.7 -6.7-3.2-15-4.8-20.2-10.5 -5.8-6.4-3.8-15.8 0.5-22.5 4.7-7.4 13.6-11.7 22.3-11.8 4.2 0 8.1 1.1 11.6 3.3 2.7 1.7 4.7 4.3 7.4 6 4.1 2.7 8.5 1.8 11.6-2 3.6-4.5 4.7-10.9 5.2-16.5 0.9-8.5-0.1-17.4-2.3-25.6 -5.2-18.7-18.6-33.7-35.8-42.4C584.6 125.9 567.2 121 554.5 128.8c-4.1 2.5-0.3 9 3.8 6.5 11-6.8 26.9-1.1 37.1 4.5 15.5 8.5 26.8 22.2 30.8 39.6 1.8 7.7 2.3 15.9 0.9 23.7 -0.5 2.5-1.1 5.3-2.3 7.6 -1.1 1.9-1.1 2.2-2.5 1.7 -2-0.8-4.1-3.6-5.9-4.9 -3.1-2.3-6.7-4.1-10.5-4.9 -7.2-1.6-14.8-0.4-21.5 2.6 -13 6-23.2 22.2-17.8 36.6 5.2 14 22.1 15.2 33 22.8 21.2 14.7 30.6 43.3 36.5 67.2 6 24.6 9.3 50.7 8.6 76 1.9-1.1 3.8-2.2 5.6-3.2 -7.8-4.1-15.7-8.1-23.5-12.2 -4.4-2.3-7.5 3.6-3.8 6.5 30 23 24.4 63.4 17.7 95.9 -3.7 17.8-7.9 35.5-13.7 52.7 -1.9 5.6-3.9 11.2-6.1 16.7 -0.6 1.4-1.2 2.9-1.8 4.3 -0.3 0.7-1.5 2.3-0.3 1 2.1 1.2 4.2 2.4 6.3 3.6 0.7-3.4 1.9-6.5 2.3-10 0.8-6.4 0.2-12.7-1.5-18.9 -0.6-2.2-3.5-3.6-5.5-2.2 -7.5 5.1-13.4 12-16.9 20.5 -4.6 11.1-3.2 23.3-3 35 0.3 23.3 0.6 46.6 0.6 70 0 13.1-0.5 26.1-1 39.2 -0.4 9.2 3 18.3 12 22.1 3.9 1.7 8.9 2.6 13.1 2.1 2.7-0.3 4-1.9 6.3-3.4 2.7-1.8 5.6-3.4 8.7-4.5 11.5-4.2 24.5-2.6 33.2 6.5 9.2 9.7 10.2 23.3 2.2 34 2.3 0.3 4.6 0.6 6.9 0.9 -1.6-10.7-8.6-20.7-18.9-24.5 -2.8-1.1-6.8-2.1-9.9-1.7 -4.2 0.5-8.9 5.1-12.4 7.4 -3.9 2.6-8.5 6.8-13.2 7.5 -5.2 0.8-10.8 0.5-16 0.6 -15.6 0.5-31.3 0.9-46.9 0.7 -11.1-0.2-24.2 0.8-32.1-8.5 -3-3.6-6.7-8.4-11.7-4.8 -4.9 3.5-6 11.8-7 17.1 0.9-0.9 1.7-1.7 2.6-2.6 -59.1 9.5-119.9 8.8-178.7-2.8 -8.3-1.6-16.6-3.5-24.9-5.5 -2.2-0.5-3.5-0.8-5-2.5 -1.4-1.6-2.7-3.4-4-5.2 -3-3.9-6.1-7.8-9.1-11.8 -1-1.3-3.3-1.4-4.5-0.6 -28.6 17.5-63.2 20.8-94.5 8.9 -17-6.5-33.1-17.4-42.8-33.1 -11.9-19.3-12.6-43.8-5.5-65 2.7-8 7.3-19.4 13.9-23.5 5.7-3.6 11.2-7.5 16.5-11.8 16-13 29.5-29.3 37.4-48.5 9-21.8 12.5-47.3-0.8-68.1 -2.6-4.1-5.8-8-9.3-11.4 -2.5-2.4-6.7-7.1-10.2-7.9 -2.3-0.5-5.5 0.7-7.8 1.1 -4.4 0.6-8.9 0.8-13.3 0.8 -20.5-0.4-39.4-9.1-53.7-23.6 -7.7-7.8-13.8-17.3-16.2-28.2 -2.8-12.8 0.4-25.8 7.2-36.7 -2.3-1-4.6-1.9-6.9-2.9 -1.7 11.7-0.6 26.9 7.1 36.6 3.9 4.9 9.7 6.9 15.8 5.1 2.4-0.7 5-1.7 6.1-4.1 1.5-3.5 1.3-8.8 1.4-12.6 0.6-31.8-23.4-56.6-42.8-79 -6.3-7.3-10.9-15.5-13.6-24.9 -1.1-3.8-1.8-7.7-2.1-11.7 -0.1-1.4 0.1-3-0.1-4.4 -0.2-2.1 1.4-1.6-1.1 0 -1 0.1-1.9 0.3-2.9 0.4 -2.9-0.5-1.7-2.6-1.6-0.5 0.1 0.8 0.5 1.8 0.8 2.5 0.8 2.5 1.7 4.9 2.7 7.2 2.8 6.2 7 11.7 12.5 15.8 7 5.2 15.4 6.8 23.4 9.8 20.6 7.7 40.1 19.8 54.2 36.8 11.8 14.2 18.9 31.6 20.9 49.9 0.5 4.7 7.9 4.9 7.5 0 -1.1-13.3 2.1-25.9 9.1-37.2 -2.3-0.6-4.7-1.3-7-1.9 -0.4 5.2 0 10.9 1.9 15.8 2.3 6.1 7.6 9.2 11.5 14.1 9 11.1 12.5 27.4 11.2 41.4 -0.5 5.3-3.4 9.8-3.7 14.9 -0.4 5.5 1.4 11 4.6 15.5 7.9 11.3 20.1 17.9 25.2 31.4 4.9 13 3.4 27.9-0.4 41 -2.9 10.1-9.2 18.7-15.4 27.1 -16 21.6-33.9 41.8-49.4 63.8 -6.7 9.4-10.2 19-10.5 30.6 -0.7 28.1 15.2 53.1 43 60.6 12 3.2 24.7 3.4 37 3.3 13.2-0.1 27.5-2.2 36.3-13.1 4-5 7.3-11.2 5.9-17.6 -1.3-5.7-2.4-11.4-3.4-17.1 -2.4-14.4-3.8-28.9-4-43.5 -0.6-33.6 5.3-66.6 16.3-98.3 10.5-30.3 28.4-57.1 55.7-74.7 5.9-3.8 12.2-7.2 18.6-10.1 3-1.4 2.1-6.1-0.9-6.9 -52.6-12.7-103.3-43.3-135.2-87.7 -11.6-16.2-20.6-34.1-26.6-53.2 -2.1 1.2-4.2 2.4-6.3 3.6 18 16.5 42.3 23.4 66.3 18.4 3.1-0.6 3.7-5.4 0.9-6.9 -35.3-17.6-67.9-40.9-94.9-69.8 -19-20.3-34.7-43.2-47.3-68 -10.3-20.3-18.9-41.4-23.6-63.7 -7.1-33.7-4.8-68.7 6.6-101.2 -2.3 0.3-4.6 0.6-6.9 0.9 15.7 25.3 33.7 48.9 52.3 72.2 17.1 21.3 35.2 41.8 57.5 57.8 12.2 8.8 25.2 16.1 38.9 22.3 11.7 5.2 23.7 9.7 35.2 15.1 25.8 12.2 46.1 31.6 67.2 50.5 9.5 8.6 19.4 17 28 26.6 10.7 11.8 19.5 25 27 39 0.6 1.2 2 1.9 3.2 1.9 4.9 0 9.9 0 14.8 0 2.7 0 4-2.4 3.6-4.7 -3.8-24.9-1.9-50.4 5.2-74.5 0.5-1.8-0.6-4.3-2.6-4.6 -10.4-1.4-20.8-4.5-29.5-10.5 -9.3-6.4-17.9-14.2-26.3-21.6 -7.7-6.8-15.1-15.1-19.2-24.6 -0.1-0.2-0.7-2.4-0.9-2.5 -1.1 0.7-2.2 1.3-3.3 2 0.3 0.1 0.5 0.2 0.8 0.4 0.7 1 3.1 2 4.2 2.7 4.8 2.9 10.1 5.3 15.7 6.4 10.6 2 21.8 0.3 32.4-0.7 9.6-0.9 19.4-1.6 28.2-5.8 9.7-4.7 15.6-14 24.1-20.3 9.4-6.9 20.4-12.2 31.8-14.9 6.1-1.4 12.7-2.1 18.8-0.7 6.5 1.5 10.8 5.5 15.4 10.1 3.5 3.4 7.4 6.7 12.5 6.8 6.8 0.1 10.2-4.8 15.3-8.4C562.1 132.5 558.4 126 554.5 128.8z"/>
  <path class="st0" d="M526.8 741.6c-21.2-27.3-56.8-34.3-89.6-30.3 0.4 1.6 0.8 3.1 1.3 4.7 51.5-35.3 54.4-103.3 43.8-159.2 -1.7-8.8-3.7-17.6-6.2-26.3 -0.9-3.1-5.7-1.8-4.8 1.3 12.2 43.5 18.2 94.9-0.5 137.4 -7.5 17.2-19.4 31.7-34.9 42.4 -1.8 1.2-1.4 5 1.3 4.7 31.6-3.9 65.6 2.4 86.1 28.8C525.2 747.7 528.8 744.1 526.8 741.6L526.8 741.6z"/>
  <path class="st0" d="M526.8 151.3c-7.3-3.6-14.7-4.4-22.3-1.1 -9.1 4-17.5 9.1-27.1 12.1 -2.5 0.8-2.3 4 0 4.8 11.5 4.2 23.8 5.6 36 3.9 8.8-1.2 14.3-8.7 14.7-17.6 0.1-3.2-4.9-3.2-5 0 -0.2 4.3-2.2 9.2-6.1 11.5 -2.9 1.7-7.1 1.6-10.4 1.7 -9.5 0.5-18.9-1.1-27.8-4.4 0 1.6 0 3.2 0 4.8 8.1-2.5 15.7-6 23.2-10 7.7-4.1 14.1-5.4 22.4-1.5C527.1 157.1 529.7 152.7 526.8 151.3z"/>
  </g>
</svg>