<?xml version="1.0" encoding="utf-8"?>
<!-- Generator: Adobe Illustrator 22.0.1, SVG Export Plug-In . SVG Version: 6.00 Build 0)  -->
<svg version="1.1" id="Layer_2" xmlns="http://www.w3.org/2000/svg" xmlns:xlink="http://www.w3.org/1999/xlink" x="0px" y="0px"
	 viewBox="0 0 800 800" style="enable-background:new 0 0 800 800;" xml:space="preserve">
<style type="text/css">
	.st0{fill:#FFFFFF;}
</style>
<g>
	<g>
		<path class="st0" d="M288.3,53.5c2.6,13,8.3,24.5,16.4,34.9c10,12.8,20.4,25.2,30.1,38.3c1.8,2.4,6.1,2.5,6.9-0.9
			c2-8.7,1.5-17.5-1.7-25.8c-2.3,1-4.6,1.9-6.9,2.9c21.6,31.5,43.1,63,64.7,94.5c1,1.4,2.5,2.1,4.2,1.7c15.3-3.4,26.8,3.9,38.9,12
			c9.8,6.5,19.4,13.2,29.1,19.8c6.5,4.4,13.1,8.7,20.1,12.4c10.2,5.4,21.5,8.1,31.8,13.5c14.9,7.8,28.3,18.4,39.8,30.7
			c1.3,1.4,4,1.5,5.3,0c12.9-14.7,15.6-33.8,14.4-52.8c-2.1,0.9-4.3,1.8-6.4,2.7c13.6,11.2,16.9,29.3,13.5,45.9
			c-0.6,2.7,1.7,5.5,4.6,4.6c10.8-3.3,21.7-1.1,31.2,4.8c2.4,1.5,5.7-0.4,5.6-3.2c-0.1-5.1-1.1-9.8-2.6-14.7c-0.6-1.9,0-2.5-2.1-0.3
			c2.3-2.4-1.8,2.6-2.1,1.5c0.1,0.4,3.4,2.1,3.7,2.4c3.8,2.8,7.3,5.9,10.7,9.2c1.9,1.8,3.8,4.5,6,5.9c2.1,1.3,5.3,1.3,7.6,1.7
			c1.9,0.3,4.2-0.5,4.6-2.6c4.9-26.6-7.9-50.9-26.4-69.3c-1.5,2-3,3.9-4.5,5.9c14,6.5,28.1,14.6,39.8,24.7
			c11.8,10.2,18.6,23.6,19.5,39.2c0.1,1.7,1.1,3.1,2.8,3.6c2.8,0.8,5.6,2.1,7.6,4.2c1.3,1.4,2,3.4,3.4,4.7c2.3,2.2,5.6,1.8,7.1-1.1
			c1.9-3.7,0.6-9.2-0.2-13c-1-5-3-9.9-5.6-14.3c-1.7,1.7-3.4,3.4-5.1,5.1c10.7,7.4,16.1,17.9,17.7,30.5c0.5,4.2,6.2,9,10.5,8.6
			c6.7-0.6,16.4-7.5,19.3,1.8c1.6,5.2,5,7.9,9.9,9.7c4.7,1.7,11.2,4.3,16.2,3.1c10.4-2.4,8-19.1,6.2-26.5c-2.3,1-4.6,1.9-6.9,2.9
			c3.6,7.7,7.5,15.3,11.2,22.9c1.9,3.9,3.6,7.9,4.9,12.1c1.1,3.6,4.4,12.2,0.9,15c-2.2,1.8-6.4,1.5-9.1,1.3c-0.5,0-1.7-0.2-3-0.7
			c-1.7-0.6-3.1-1.6-4.7-2.3c-6.5-2.9-12.9,0.4-19.1,2.5c-3.8,1.3-5.2,1.8-8.8,0c-3.3-1.6-6.8-1.6-10.1,0.1c-4.1,2-5.1,4.8-8.9,5.4
			c-4.9,0.7-10.4-0.9-15.1-2.3c-4.1-1.2-8.2-2.7-12.1-4.2c-3.6-1.4-9-5.4-12.9-3.8c-4.3,1.8-8.1,5.2-12.4,7.1
			c-5.8,2.6-12.1,4.4-18.4,5.5c-9.5,1.6-19.3,1.3-28.7-0.6c-0.3,2.5-0.7,4.9-1,7.4c13.8-0.3,27.1-5.4,36.7-15.6
			c2.5-2.6,0.1-7.4-3.6-6.3c-3.5,1.1-7.3,1.9-10.5-0.3c-2.6-1.8-4.3-4.4-7.3-5.7c-7.3-3.1-15.7,2.8-22.9,4.3
			c-12.9,2.7-27.1,2.2-39.8-0.9c0,2.4,0,4.8,0,7.2c10-2.8,14.7-12.2,8.6-21.2c-5.2-7.5-13.8-11.4-22.9-10.9c0.3,2.5,0.7,4.9,1,7.4
			c4.9-0.8,14.4-2.8,12.3-9.9c-1.3-4.3-6.6-7-10.3-8.8c-8-4.1-16.7-7.1-25.2-10.1c-2.7-0.9-5.7-2.3-8.5-2.8
			c-2.9-0.4-6.2-0.1-9.2-0.1c-6.7,0-13.5,0-20.2,0c-3.5,0-4.6,4-2.7,6.4c25.5,31.6,51,63.3,76.5,94.9c3.1,3.9,6.2,7.7,9.3,11.6
			c3,3.8,7,7.5,9.4,11.7c3.7,6.4,6.8,11.8,13.2,16.1c11,7.3,25.7,8.4,38.3,5.7c-1.5-0.9-3.1-1.7-4.6-2.6c2.6,7.6,5.4,15.1,8.3,22.5
			c1,2.5,1.8,4.7,1.7,7.5c-0.2,12.3-8.2,24.7-14.3,34.8c2.3,1,4.6,1.9,6.9,2.9c5.1-15.3,4.7-31.9-1.2-46.9c-0.9-2.3-4.3-4.1-6.3-1.7
			c-3.8,4.7-6.9,9.9-8.3,15.9c-1,4.3,0,9.5-1.8,13.4c-3.8,8.6-17.9,11.6-25.8,13.6c0.7,2.4,1.3,4.8,2,7.2c11-4.6,20-13,21.7-25.3
			c1.7-12.7-4.4-25.1-13.1-34c-6.6-6.8-19.2-4.6-19.4,5.8c-0.2,11.5,7.6,24,12.9,33.7c1.7-1.7,3.4-3.4,5.1-5.1
			c-6.5-3.1-12.2-7.2-17.5-12.1c-1.5-1.4-2.9-3.2-4.5-4.4c-2-1.5,0.9,0.2-0.5,0.6c2.6-0.9,3.8-4.2,1.7-6.3c-3.3-3.2-4-10.4-2.8-14.5
			c0.5-1.6-0.3-3.4-1.7-4.2c-66.2-40.7-129.4-86.1-189.2-135.8c-1.7-1.4-3.6-1.4-5.3,0c-52.3,43.4-111.8,75.8-175.4,99.3
			c-3.4,1.3-4.9,3.8-6.9,6.8c-2.6,3.7-5.1,7.4-7.4,11.3c-4.1,6.7-7.9,13.6-11.3,20.7c-4.9,10.3-8.3,22.3,0,32
			c4,4.7,9.7,7.9,14.8,11.3c5.3,3.6,10.5,7.3,15.8,10.9c6.8,4.7,13.5,9.5,20.2,14.4c6.6,4.7,16.3,4.8,24.3,5.2
			c9.2,0.5,18.4,0,27.5-1.3c4.3-0.6,8.5-1.4,12.7-2.4c2.9-0.7,7.4-1.1,9.9-2.8c2.7-1.8,3.7-6.7,5.7-9.3c2.5-3.3,5.7-6.1,9.1-8.3
			c5.1-3.3,10.8-5.4,16.6-6.8c-1-2.3-1.9-4.6-2.9-6.9c-4.7,2.7-8.3,7.3-9.2,12.6c-0.8,4.4,0.7,13.2,5.6,15.3
			c3.4,1.4,9.9-0.7,13.5-1.2c5.1-0.6,9.2,0.2,14,1.9c5.6,2,11.1,4.8,16,8.3c9.4,6.7,17.7,15.2,26,23.2c6.5,6.4,12.9,12.9,19.1,19.4
			c3.5,3.6,6.9,7.3,10.3,11c2.9,3.2,6.4,4.4,10.1,6.5c15.8,9.3,26.8,24.6,30.2,42.5c2.1-1.2,4.2-2.4,6.3-3.6
			c-4.8-3.8-9.6-7.6-14.4-11.4c-2.6-2.1-7.6-0.3-6.3,3.6c10.3,30.4,12,62.7,5.2,94.1c2.3-0.3,4.6-0.6,6.9-0.9
			c-2.1-4-4.2-7.9-6.3-11.9c-1.6-3-5.9-2-6.9,0.9c-8.4,24.2-27,43.4-49.8,54.6c-1.4,0.7-3.6,2.3-5.2,2.4c-1.3,0.1-4.8-1.4-6.6-2
			c-5.8-2.2-11.3-5.3-16.1-9.2c-2.4-2-4.8-3.6-7.7-5c-11.3-5.6-23.6-9.2-35.5-12.8c-10.4-3.2-20.8-6.1-31.3-9
			c-6.6-1.8-13.2-3.5-19.8-5.3c-6.8-1.8-13.5-4.5-20.5-2.8c-5.7,1.4-10,5.4-11.2,11.2c-0.7,3.5-0.6,7.2-1.5,10.7
			c-0.9,3.7-2.6,7.2-4.7,10.4c-7.4,11.5-17.2,20.3-29.3,26.4c-1.2,0.6-1.8,2-1.9,3.2c-0.2,4.7-0.2,12.7-3.9,16.1
			c-3,2.8-8.5,3.1-12.4,3.3c-8.8,0.5-17.6-2.3-25.7-5.5c-13.8-5.3-27-12.5-39.5-20.3c-1,2.3-1.9,4.6-2.9,6.9
			c7.9,2.1,15.8,4.1,23.7,6.2c2.4,0.6,4.7-1.2,4.7-3.6c0-3.1,0-6.2,0-9.3c-2.1,0.9-4.3,1.8-6.4,2.7c5.8,6.4,13.6,11.8,21.9,14.3
			c4.8,1.5,10,1.7,15,0.6c4.6-1,7.5-2.2,9.3-6.6c4.7-11,13.7-16.1,22.8-23.1c7.6-5.8,13.8-13.1,18.9-21.2c1.6-2.6-0.6-5.4-3.2-5.6
			c-6.2-0.6-12.4-1.8-18.3-3.8c-2-0.7-3.9-1.5-5.7-2.4c-0.7-0.3-1.4-0.7-2.1-1.1c-0.5-0.3-1-0.6-1.5-0.9c-1-0.8-1.2-0.8-0.4,0
			c-0.3,1.2-0.6,2.4-1,3.6c-1.3,1.3,0.8,0.6,1.8,0.6c1.6,0.1,3.2,0.3,4.8,0.4c2.7,0.2,5.4,0.2,8.1,0c6.5-0.5,12.8-2,18.9-4.2
			c1.7-0.6,2.5-1.8,2.8-3.6c1.5-12.1,17.1-14,26.8-14.4c11.6-0.5,23.2,1,34.3,4.6c2.6,0.9,5.6-2,4.6-4.6c-3.3-9-6.5-17.9-9.8-26.9
			c-2.3,1-4.6,1.9-6.9,2.9c8.8,11.5,18.9,22.8,30.6,31.3c5.1,3.7,10.8,7,16.9,8.8c4,1.2,8.2,1.8,12.3,3
			c11.5,3.5,22.1,12.4,34.4,12.5c11.8,0.1,23.3-5.1,27.6-16.7c0.6-1.6-0.4-3.4-1.7-4.2c-7.5-4.8-15-9.6-22.5-14.5
			c-1,2.3-1.9,4.6-2.9,6.9c19.5,5,49.2-2.1,49.7-26.8c0.1-8.5-6.1-19.3-15.1-20.9c-11-1.9-18.3,7.4-16.5,17.7c2.3-1,4.6-1.9,6.9-2.9
			c-4.4-7.5-3.9-16.5,1.7-23.4c1-1.2,1.6-3.2,0.6-4.5c-16.2-21.2-32.3-42.4-48.5-63.5c-1.1-1.4-2.5-2.1-4.2-1.7
			c-11.8,2.8-15.3,14.5-9.7,24.6c2.2-1.3,4.3-2.5,6.5-3.8c-7.5-10.4-10.1-22.9-6.5-35.3c0.5-1.6-0.3-3.4-1.7-4.2
			c-18.3-10.4-39.7-12.7-60-7.6c-1.2,0.3-2.3,1.4-2.6,2.6c-2.8,11.4,2.8,22.2,12.7,28c0.6-2.3,1.3-4.7,1.9-7
			c-13.7-0.6-26.8-6.2-36-16.5c-0.9-1-2.4-1.3-3.6-1c-23.1,5.9-46.2,11.7-69.3,17.6c-1.6,0.4-2.8,2-2.8,3.6
			c0.2,13.6,10.1,23.2,22.4,27.4c0.3-2.5,0.7-4.9,1-7.4c-12.5,0.4-24.9-2.8-35.3-9.9c-3.9-2.7-6.9-6.9-11.4-8.5
			c-6.6-2.4-12.9-5.3-18.8-9.2c-16.4-10.8-28-27.5-34.2-46c-0.6-1.8-2.6-3.4-4.6-2.6c-12.6,4.6-21.2,17.5-17.1,31
			c2.1-1.2,4.2-2.4,6.3-3.6c-11.6-12.9-10.8-31.2,2.3-42.7c1.3-1.2,1.3-3.1,0.6-4.5c-6.3-13.3-12.7-26.5-19-39.8c-1.3-2.8-5-2-6.5,0
			c-3.2,4.3-5.6,9.1-6.7,14.3c-0.5,2.5-0.8,5-0.8,7.5c0,1.1,0,2.4,0.1,3.4c0.3,1.5-0.7,1.5,0.5,0c1.4-0.6,2.8-1.1,4.2-1.7
			c3.8,1.6,1.1,1.4,1.2,0.1c0-0.6-0.9-2.4-1-2.9c-0.8-2.5-1.4-5-1.9-7.6c-1.4-6.9-1.7-14-0.9-21c0.6-5.5,2.1-10.9,4-16.1
			c2.2-5.9,2.1-12.4,2.6-18.7c0.1-1.3-0.8-2.6-1.9-3.2c-12.3-6.8-23.1-15.5-32.1-26.3c-1.5,2-3,3.9-4.5,5.9
			c10.9,6.8,24,10.2,36.8,9.4c2.3-0.1,5.5,0,7.5-1c2.6-1.3,4.1-5.2,5.7-7.7c4.6-7.1,9.5-14,14.6-20.7c1.3-1.7,0.2-4.1-1.3-5.1
			c-11.4-7.5-21.9-16.1-31.6-25.8c-1.5,2-3,3.9-4.5,5.9c9.3,4.4,19.1,7.3,29.4,8.7c5.2,0.7,10.4,0.9,15.6,0.8c1.9-0.1,3.6,0,5.1-1.2
			c2.3-1.8,4.1-5.3,5.9-7.6c15.3-19.2,32.8-36.7,51.8-52.3c2.4-2,0.7-5.3-1.7-6.3c-9.6-3.8-17.6-10.5-22.6-19.5
			c-1.7,1.7-3.4,3.4-5.1,5.1c9.2,5.6,19.4,9.4,30,11c4.1,0.6,8.7,1.3,12.9,0.9c5-0.4,10.6-6.4,14.6-9.3c2.3-1.7,2.5-4.8,0-6.5
			c-19.4-13.3-40.5-22.5-62.7-29.9c-20.9-6.9-41.8-14.2-62.7-21.3c-16.4-5.6-32.8-11.2-49.3-16.8c0,2.4,0,4.8,0,7.2
			c20.7-2.9,41.4-6.3,62-10.4c10.8-2.1,21.6-4.4,32.4-6.9c3.5-0.8,9.6-1,12.1-3.7c2.1-2.3,3.1-6.4,3.4-9.5c1-10.1-5.7-19.2-12.3-26
			c-8.4-8.6-18.5-15.5-28.8-21.6c-7.5-4.5-15.3-8.7-23.3-12.4c-1,2.3-1.9,4.6-2.9,6.9c9.1,3.3,18.1,6.6,27.2,10
			c6.3,2.3,12.8,5.6,19.7,5c15.8-1.3,17-19.3,10.4-30.3c-1.7,1.7-3.4,3.4-5.1,5.1c20.6,14.5,41.2,28.9,61.8,43.4
			c3.5,2.4,7.7-3.1,4.5-5.9C141.5,114.5,95.6,63.8,56.2,8.2c-2,1.5-3.9,3-5.9,4.5c44.8,42.3,97.2,75.9,153.9,99.8
			c13.3,5.6,26.9,10.7,40.6,15.3c2.9,1,5.2-2,4.6-4.6c-8.4-37.6-27.6-71.5-53.5-99.8c-1.8,1.8-3.5,3.5-5.3,5.3
			c38.1,33.9,76.2,67.8,114.3,101.8c3.3,2.9,7.7-0.7,5.9-4.5c-10.8-23-15.9-48.1-15.1-73.5c0.2-4.8-7.3-4.8-7.5,0
			c-0.9,26.8,4.7,53.1,16.1,77.3c2-1.5,3.9-3,5.9-4.5C272,91.3,233.9,57.4,195.8,23.5c-3.6-3.2-8.6,1.7-5.3,5.3
			c25.1,27.4,43.5,60.1,51.6,96.5c1.5-1.5,3.1-3.1,4.6-4.6C190.9,102,138,74.5,91.5,38.4c-12.5-9.7-24.5-20-36-30.9
			c-3-2.8-8.5,0.9-5.9,4.5c39.8,56.1,86,107.4,137.4,153.2c1.5-2,3-3.9,4.5-5.9c-20.6-14.5-41.2-28.9-61.8-43.4
			c-3.1-2.2-7,2.1-5.1,5.1c2.8,4.7,5,11.6,1.1,16.4c-3.1,3.8-8.6,2.9-12.7,1.5c-12.5-4.2-24.8-9.1-37.2-13.6c-4-1.4-6.8,5.1-2.9,6.9
			c12,5.6,23.7,12.1,34.6,19.7c11,7.6,32.9,23.4,24,39.2c0.7-0.6,1.5-1.1,2.2-1.7c-34.5,8.2-69.4,14.7-104.5,19.6
			c-4,0.6-3.1,6.2,0,7.2c32.1,10.9,64.2,22,96.3,32.9c10.4,3.5,20.9,6.8,31.2,10.6c16,6.1,31.2,14.1,45.4,23.7c0-2.2,0-4.3,0-6.5
			c-2,1.5-4,2.9-6.1,4.4c-1.5,1.1-3.6,3.4-5.3,3.9c-3.3,1-9.5-0.5-12.8-1.1c-9.2-1.6-17.8-4.9-25.7-9.8c-3.3-2-6.9,1.9-5.1,5.1
			c6,10.8,15.7,18.4,27.1,22.9c-0.6-2.1-1.1-4.2-1.7-6.3c-21.8,17.9-41.3,38.2-58.3,60.7c1.1-0.6,2.2-1.2,3.2-1.9
			c-15,0.8-30.1-1.8-43.7-8.3c-3.7-1.7-7.7,2.7-4.5,5.9c10.1,10.1,21.2,19.1,33.1,26.9c-0.4-1.7-0.9-3.4-1.3-5.1
			c-6.5,8.7-12.7,17.6-18.5,26.9c0.7-0.6,1.5-1.1,2.2-1.7c-13.2,2-26.8-0.8-38.1-7.9c-3.8-2.4-7.1,2.8-4.5,5.9
			c9.4,11.2,20.9,20.4,33.7,27.5c-0.6-1.1-1.2-2.2-1.9-3.2c-0.3,4.1-0.3,8.6-1,12.7c-0.6,3.1-2.1,6-3,9c-2,6.8-3,13.9-3,21
			c0,7.2,1.1,14.6,3.2,21.5c1,3.3,1.9,7.8,5.4,9.2c1.6,0.7,3.3-0.5,4.2-1.7c1.7-2.2,0.3-7,0.5-9.5c0.5-5.9,2.9-11.1,6.4-15.8
			c-2.2,0-4.3,0-6.5,0c6.3,13.3,12.7,26.5,19,39.8c0.2-1.5,0.4-3,0.6-4.5c-16.3,14.3-16.5,37.5-2.3,53.3c2.5,2.8,7.3-0.1,6.3-3.6
			c-2.8-9.3,3-18.5,11.8-21.7c-1.5-0.9-3.1-1.7-4.6-2.6c6.7,20.2,19.2,38.2,37,50.1c6.1,4.1,12.8,7.4,19.7,9.9
			c4.5,1.6,8.2,6.5,12.3,9.1c11.2,7.3,24.6,10.6,37.9,10.1c4.3-0.1,5-6,1-7.4c-9-3.1-16.7-10.1-16.9-20.1c-0.9,1.2-1.8,2.4-2.8,3.6
			c23.1-5.9,46.2-11.7,69.3-17.6c-1.2-0.3-2.4-0.6-3.6-1c10.5,11.7,25.7,18,41.3,18.7c3.8,0.2,5-5.2,1.9-7
			c-6.9-4.1-11.2-11.4-9.2-19.5c-0.9,0.9-1.7,1.7-2.6,2.6c18.4-4.6,37.7-2.6,54.3,6.9c-0.6-1.4-1.1-2.8-1.7-4.2
			c-4.1,14.2-1.3,29.2,7.3,41.1c2.8,3.8,8.8,0.5,6.5-3.8c-3.3-6-1.7-11.9,5.3-13.6c-1.4-0.6-2.8-1.1-4.2-1.7
			c16.2,21.2,32.3,42.4,48.5,63.5c0.2-1.5,0.4-3,0.6-4.5c-7.8,9.4-9.1,21.8-2.9,32.4c2.2,3.9,7.6,1.1,6.9-2.9
			c-1.4-8,7.1-10.6,12.1-5.6c5.8,5.8,5.8,13.8,1.4,20.4c-7.7,11.7-24.5,13.2-36.9,10c-4.2-1.1-6.5,4.6-2.9,6.9
			c7.5,4.8,15,9.6,22.5,14.5c-0.6-1.4-1.1-2.8-1.7-4.2c-3.6,9.6-16.3,13-25.6,10.6c-4.9-1.3-9.4-4.3-14-6.4
			c-5.3-2.4-10.7-4.7-16.3-6.1c-3.3-0.8-6.8-1.3-10-2.4c-5.1-1.7-9.9-4.7-14.3-7.8c-10.6-7.7-20-18.3-27.9-28.6
			c-2.3-3-8.5-1.5-6.9,2.9c3.3,9,6.5,17.9,9.8,26.9c1.5-1.5,3.1-3.1,4.6-4.6c-13.5-4.4-28.5-6-42.6-4.3
			c-13.1,1.6-26.1,6.8-27.9,21.4c0.9-1.2,1.8-2.4,2.8-3.6c-7.5,2.7-15.2,4.3-23.2,4c-3.5-0.1-16.6-2.8-14.5,5
			c1.2,4.5,8.5,6.8,12.4,8.3c7.4,2.9,15.1,4.3,23,5.1c-1.1-1.9-2.2-3.8-3.2-5.6c-6,9.6-13.5,16.8-22.8,23.2
			c-9.3,6.4-16.3,14-20.3,24.7c0.6-0.7,1.1-1.5,1.7-2.2c-12.6,5.9-26.2-2-34.7-11.3c-2.2-2.4-6.4-0.5-6.4,2.7c0,3.1,0,6.2,0,9.3
			c1.6-1.2,3.2-2.4,4.7-3.6c-7.9-2.1-15.8-4.1-23.7-6.2c-4.2-1.1-6.5,4.6-2.9,6.9c15.1,9.5,31.4,18.2,48.4,23.6
			c9.3,2.9,18.9,4.3,28.5,2.3c4.9-1,10-3.3,12.4-8c2.8-5.2,3.3-12.3,3.5-18c-0.6,1.1-1.2,2.2-1.9,3.2c10.1-5.1,19-12,26-20.9
			c3.8-4.8,7.5-9.7,9.8-15.4c1.2-2.8,1.9-5.7,2.4-8.8c0.4-3.1,0-7.1,1.7-9.8c4.4-7,16.5-1.5,22.4,0c6.8,1.8,13.6,3.6,20.4,5.4
			c10.7,2.9,21.3,5.9,31.9,9.2c11.2,3.5,23.2,6.8,33.6,12.5c3.8,2.1,5.8,4.5,10.2,7.4c5.4,3.5,11.4,6.2,17.6,8.1
			c2.2,0.7,4.1,1.3,6.3,0.6c2-0.6,4-1.7,5.9-2.6c25-12,45.1-33.2,54.2-59.6c-2.3,0.3-4.6,0.6-6.9,0.9c2.1,4,4.2,7.9,6.3,11.9
			c1.5,2.8,6.2,2.2,6.9-0.9c7.1-32.6,5.5-66.4-5.2-98.1c-2.1,1.2-4.2,2.4-6.3,3.6c4.8,3.8,9.6,7.6,14.4,11.4c2.9,2.3,7,0.2,6.3-3.6
			c-2.1-11.1-7-21.5-14.1-30.3c-4.9-6.1-11-11.3-17.6-15.5c-2.9-1.8-6.4-3.1-9-5.2c-3.7-2.9-6.7-7.1-9.9-10.4
			c-10-10.6-20.2-21-30.9-30.9c-6.2-5.8-12.6-11.8-19.7-16.4c-5.1-3.3-10.8-6-16.6-7.9c-3.6-1.2-7.7-2.4-11.4-2.3
			c-5.2,0.2-10.6,1.3-15.8,2c0.9,0.4,1.8,0.7,2.7,1.1c-4.5-5.1-2.2-12.2,3.3-15.3c3.7-2.1,1.2-7.9-2.9-6.9
			c-15.2,3.7-28.9,12.4-34.9,27.4c0.9-0.9,1.7-1.7,2.6-2.6c-16.9,5-34.5,7.1-52.1,5.5c-5.5-0.5-11-0.7-15.7-3.8
			c-3.5-2.3-6.9-4.9-10.3-7.4c-6.5-4.6-13.1-9.2-19.7-13.8c-10.2-7-25.4-13.5-21.5-28.3c2.2-8.2,6.9-15.9,11-23.3
			c4.3-7.7,9.1-15,14.4-22.1c-0.7,0.6-1.5,1.1-2.2,1.7c65.4-23.2,126.6-57.3,180-101.7c-1.8,0-3.5,0-5.3,0
			c60.2,50.1,124,95.9,190.7,137c-0.6-1.4-1.1-2.8-1.7-4.2c-2,6.7-0.5,16.7,4.8,21.8c0.6-2.1,1.1-4.2,1.7-6.3
			c-18.4,6.3,15.5,27,20.7,29.6c3.3,1.6,7-1.7,5.1-5.1c-4.4-8.1-9.1-16.5-11.3-25.5c-0.3-1.3-1.3-4.6-0.4-5.9c2.4-3.4,7.6,2.1,9.1,4
			c5.5,6.7,9.4,15.6,8.3,24.4c-1.2,9.2-8.1,15.8-16.4,19.3c-4.3,1.8-2.8,8.5,2,7.2c10-2.6,22.7-6.1,29-15c2.1-3,2.8-6.1,3.1-9.8
			c0.5-7.6,2.2-14,7.1-20.1c-2.1-0.6-4.2-1.1-6.3-1.7c5.4,13.9,5.8,28.8,1.2,43c-1.4,4.1,4.7,6.5,6.9,2.9
			c6.7-11.2,14.7-24.5,15.3-38c0.1-3.1-0.4-6.1-1.5-9c-3-7.8-6.1-15.7-8.8-23.6c-0.7-2-2.5-3.1-4.6-2.6c-12.9,2.8-28.9,0.7-38-9.8
			c-2.3-2.7-3.3-5.7-5.1-8.7c-2.1-3.6-5.5-6.8-8.1-10c-5.8-7.2-11.6-14.4-17.4-21.6c-23.6-29.3-47.3-58.6-70.9-88
			c-0.9,2.1-1.8,4.3-2.7,6.4c5.1,0,10.3,0,15.4,0c4.7,0,9.8-0.6,14.3,0.5c7.5,1.8,15,5.1,22.1,8c4.3,1.8,9,3.6,12.7,6.5
			c0.8,0.6,1.5,1.4,1.8,1.8c-1.6-2.1,1.3-0.9-1.3-1.2c-1.6-0.2-4.4,1-6,1.3c-4.2,0.7-3.2,7.6,1,7.4c5.3-0.2,10.6,1.1,14.4,4.9
			c1.7,1.7,4,4.4,4,6.9c0,3.3-3.3,4.9-6.1,5.6c-3.5,1-3.7,6.4,0,7.2c13.2,3.2,27.4,3.6,40.8,1.4c4.4-0.7,8.7-1.8,12.9-3.4
			c1.9-0.8,4.1-2.1,6.2-2.1c2.4-0.1,3.7,1.6,5.4,3.1c5.7,5.2,12,5.9,19.3,3.6c-1.2-2.1-2.4-4.2-3.6-6.3
			c-8.2,8.7-19.5,13.1-31.4,13.4c-4.1,0.1-5.3,6.5-1,7.4c22.6,4.4,46.2,0.5,65.2-12.8c-1.3,0-2.5,0-3.8,0c11.5,5,24.2,10.9,37,11.4
			c3.1,0.1,6.4-0.2,9.1-1.6c1-0.6,1.9-1.3,2.8-2c1.3-1.1,2.6-2.6,4.3-2.9c2.1-0.5,3.7,1.1,5.6,1.7c5.9,2.1,12-1.3,17.5-3.1
			c2.1-0.7,4.3-1.7,6.6-1.2c2.7,0.6,5,2.6,7.6,3.4c10.8,3.1,23.9-1.2,22.2-14.4c-2.2-17-12-32.2-19.2-47.5c-1.9-4-7.8-1.1-6.9,2.9
			c0.7,2.8,1,5.7,1.1,8.6c0,1.7,0.5,7.1-1.1,8.3c-1.7,1.4-6.9-0.9-8.7-1.4c-2.9-0.9-6.8-1.5-8.5-4.3c-1.5-2.4-1.4-5-3.4-7.3
			c-1.6-1.9-3.6-3.2-5.8-4.1c-5.9-2.4-14.1,1.4-20.1,2.8c1,0.1,1.9,0.3,2.9,0.4c-1.9-1.4-3.8-2.8-5.8-4.1c0.6,1.1,1.2,2.2,1.9,3.2
			c-0.4-15.6-8.8-29.2-21.5-37.9c-3.2-2.2-6.9,2-5.1,5.1c1.8,3.2,3.2,6.4,4.2,9.9c0.6,2.2,1,4.4,1.2,6.7c0.1,1,0.1,1.9,0.1,2.9
			c-0.2,1.3-0.2,1.4,0.3,0.3c1.2-0.3,2.4-0.6,3.6-1c1.3,1.1,1.6,1.1,0.8,0c-0.4-0.6-0.8-1.3-1.2-1.9c-1.1-1.5-2.3-2.8-3.7-3.9
			c-2.7-2.2-5.9-3.6-9.2-4.6c0.9,1.2,1.8,2.4,2.8,3.6c-0.9-16.4-7.4-31.2-19.4-42.4c-12.5-11.6-28.2-20.9-43.6-28
			c-3.7-1.7-7.8,2.7-4.5,5.9c16.4,16.3,28.8,38.2,24.4,62c1.5-0.9,3.1-1.7,4.6-2.6c-4.9-0.8-6.1-1.7-9.7-5.1c-2.1-2-4.3-4-6.5-5.9
			c-3.2-2.7-7.3-6.9-11.6-8.1c-2.7-0.7-5.4,0.4-6,3.4c-0.4,2,0.6,4,1.1,5.8c1.2,3.7,1.8,7.5,1.9,11.4c1.9-1.1,3.8-2.2,5.6-3.2
			c-11.1-6.9-24.3-9.4-36.9-5.5c1.5,1.5,3.1,3.1,4.6,4.6c4-19.1,0.3-40.3-15.4-53.2c-2.3-1.9-6.6-0.9-6.4,2.7
			c1.1,16.8-0.7,34.3-12.2,47.5c1.8,0,3.5,0,5.3,0c-10.2-10.8-21.8-20.3-34.6-28c-10.9-6.6-22.8-9.7-34.2-15.1
			c-19.3-9.3-36.6-23.1-54.3-35c-13.7-9.2-26.8-16-43.9-12.3c1.4,0.6,2.8,1.1,4.2,1.7c-21.6-31.5-43.1-63-64.7-94.5
			c-2.2-3.3-8.5-1.3-6.9,2.9c2.8,7.1,3.5,14.3,1.7,21.8c2.3-0.3,4.6-0.6,6.9-0.9c-9.4-12.6-19.3-24.6-29-36.9
			c-8.3-10.4-14.1-21.4-16.8-34.5C294.5,46.7,287.3,48.7,288.3,53.5z"/>
	</g>
</g>
<g>
	<g>
		<path class="st0" d="M188,164.3c25.4,21.4,52.3,40.8,78.9,60.7c27.5,20.5,53.9,42.2,80.3,64c14,11.5,28.1,22.9,42.6,33.6
			c2.6,1.9,5.1-2.4,2.5-4.3c-26.4-19.5-51.2-41-76.7-61.7c-25.6-20.8-52.3-40.2-78.8-60c-15.4-11.5-30.7-23.3-45.4-35.7
			C189,158.7,185.5,162.2,188,164.3L188,164.3z"/>
	</g>
</g>
<g>
	<g>
		<path class="st0" d="M499.7,307.4c-32.3-37.9-64.7-75.7-97-113.6c-2.1-2.5-5.6,1.1-3.5,3.5c32.3,37.9,64.7,75.7,97,113.6
			C498.3,313.4,501.8,309.8,499.7,307.4L499.7,307.4z"/>
	</g>
</g>
<g>
	<g>
		<path class="st0" d="M281.8,230.9c-15,3.4-30.2,0.3-42.9-8.1c-1.7-1.1-4.5,0.8-3.7,2.8c3.1,8.1,8.9,13.7,16.5,17.7
			c0.5,0.3,4.3,1.8,4.3,2.4c0-1-4.2,0.6-4.9,0.8c-2.2,0.5-4.5,0.9-6.7,1.5c-16.1,4.4-29.9,15.3-42,26.3c-2.4,2.2,1.2,5.7,3.5,3.5
			c13.1-11.8,27.4-22.4,44.9-26.1c3.6-0.8,13-3.2,9.3-8.8c-1.7-2.5-5.6-3.6-8.1-5.1c-5.4-3.1-9.7-7.5-11.9-13.5
			c-1.2,0.9-2.4,1.9-3.7,2.8c13.9,9.1,30.6,12.3,46.8,8.6C286.3,235,285,230.2,281.8,230.9L281.8,230.9z"/>
	</g>
</g>
<g>
	<g>
		<path class="st0" d="M663.5,302.1c1.2,7.8,8.5,13.5,15.4,16.3c7,2.9,13.3,2.4,20.6,2.3c1.3,0,2.6-1.1,2.5-2.5
			c-1.8-17.8-22.7-21.6-37.2-19.1c-3.2,0.6-1.8,5.4,1.3,4.8c10.9-1.9,29.5,0.2,30.9,14.3c0.8-0.8,1.7-1.7,2.5-2.5
			c-5.1,0.1-9.7,0.8-14.7-0.6c-6.9-1.8-15.2-6.7-16.4-14.4C667.8,297.6,663,298.9,663.5,302.1L663.5,302.1z"/>
	</g>
</g>
<g>
	<g>
		<path class="st0" d="M244.5,120.8c19.8,11,43.5,13.2,65,6.3c3.1-1,1.7-5.8-1.3-4.8c-20.3,6.5-42.5,4.5-61.2-5.8
			C244.2,115,241.6,119.3,244.5,120.8L244.5,120.8z"/>
	</g>
</g>
</svg>
