<?xml version="1.0" encoding="utf-8"?>
<!-- Generator: Adobe Illustrator 22.0.1, SVG Export Plug-In . SVG Version: 6.00 Build 0)  -->
<svg version="1.1" xmlns="http://www.w3.org/2000/svg" xmlns:xlink="http://www.w3.org/1999/xlink" x="0px" y="0px"
	 viewBox="0 0 800 800" style="enable-background:new 0 0 800 800;" xml:space="preserve">
<style type="text/css">
	.st0{fill:#FFFFFF;}
</style>
<g id="Layer_1">
	<g>
		<g>
			<path class="st0" d="M646.8,727.6c-12.6-14.2-23.9-29.3-33.5-45.7c-8-13.7-19.1-29.5-17.9-46.2c0.5-6.6,3.1-12.6,6.1-18.4
				c4.6-8.9,9.7-17.7,15.1-26.2c6.4-10.1,13.3-20.7,9.8-33.2c-4.7-16.5-19.9-29.5-34.4-37.3c-15.9-8.6-33.7-13.2-49.4-22.3
				c-12.5-7.3-23.1-17.4-30.6-29.8c-2.3-3.7-4.3-7.6-6-11.6c-1.9-4.5-2.6-10.1-6.4-13.4c-6.7-5.7-15.3-6.2-23.2-2.8
				c-14.5,6.4-24.6,23.2-17.5,38.3c3.4,7.3,8.3,13.8,12.3,20.9c5.3,9.6,9.8,19.7,13.3,30.1c1.6-2.1,3.2-4.2,4.8-6.3
				c-23.3-2.3-44.1-11.2-63.4-24.1c-20.2-13.5-39.5-28.4-58.5-43.5c-15.6-12.4-31-25.1-46.2-38c-1.8-1.6-3.9-1.8-6.1-0.8
				c-13.7,6.6-27,5-41.2,1.2c-11.8-3.1-23.7-6.7-35.7-8.7c-7.1-1.2-13.5-1.1-20.2,2.1c-11,5.2-18,16.3-23.1,26.9c1-0.8,2-1.5,3-2.3
				c-9.5,2.3-19,4.5-28.4,6.8c-2,0.5-3.9,2.7-3.7,4.8c1.9,20.9,20.1,32.2,32.9,46.8c7.8,9,15,18.1,21.4,28.2
				c6.7,10.7,12.9,21.7,19.5,32.5c14.9,24.7,31.7,48.4,53.8,67.2c13.6,11.5,28.7,21.2,44.6,29.1c29.1,14.3,60.9,22.4,93.4,23.5
				c-1.2-0.5-2.4-1-3.5-1.5c15.3,18.3,28.7,38,39.9,59.1c2.3,4.4,4.6,8.9,6.7,13.4c2,4.2,3.5,10.7,6.6,14.1
				c2.5,2.7,6.9,4.6,10.1,6.4c3.6,2,7.3,3.8,11,5.4c32.4,14.1,69.8,18.4,102.4,2.8c18.3-8.7,33.8-23.3,43.1-41.4
				c2.9-5.7-5.7-10.8-8.6-5c-14.2,27.8-43.6,45.1-74.5,46.5c-26.8,1.2-55.2-7.4-77.4-22.4c0.8,1,1.5,2,2.3,3
				c-7.2-17.1-15.6-33.5-25.5-49.2c-5.4-8.6-11.3-17-17.5-25.2c-3-3.9-6-7.8-9.1-11.6c-1.3-1.6-2.5-3.5-4.6-4.2
				c-1.7-0.5-3.9-0.3-5.6-0.4c-33.2-1.7-65.9-11.4-94.9-27.7c-21.8-12.2-40.9-28-56.8-47.4c-19.8-24-33.2-52.1-50.4-77.9
				c-7.3-10.9-15.7-20.9-24.5-30.5c-9.4-10.3-23.2-18.5-24.6-33.7c-1.2,1.6-2.4,3.2-3.7,4.8c5.1-1.2,10.1-2.4,15.2-3.6
				c2.5-0.6,5.1-1.2,7.6-1.8c2.1-0.5,5-0.7,6.9-1.9c2.9-1.8,4.2-6.8,5.9-9.7c2-3.3,4.2-6.4,6.8-9.2c5.8-6,12.2-8.6,20.2-7.4
				c13.6,2,27,6.3,40.3,9.8c15.5,4.1,30.5,3.8,45.1-3.2c-2-0.3-4-0.5-6.1-0.8c25.3,21.5,51.1,42.4,77.7,62.3
				c15.6,11.7,31.5,23.9,49.1,32.7c15.1,7.6,31.5,11.9,48.3,13.5c3.2,0.3,5.8-3.5,4.8-6.3c-5.5-16.4-13.4-31.4-22.4-46
				c-2.3-3.8-5.4-8.1-5.5-12.7c0-7.2,6.2-14.2,12.1-17.6c3.2-1.9,7.1-3.3,10.9-2.1c5,1.6,5.3,6,7.1,10.3c3.2,7.7,7.2,15.1,12.3,21.8
				c8.2,11,18.6,19.9,30.5,26.6c14.9,8.4,31.6,12.9,46.7,20.9c13.1,6.8,28.5,18.6,31.6,34c0.2,1.1,0-1.2,0.1,1.3
				c0.1,1.2,0.1,2.4-0.1,3.6c-0.4,2.7-1.5,5.3-2.7,7.7c-3.7,7.2-8.6,13.8-12.6,20.8c-7.4,12.7-16.2,26.3-16.6,41.5
				c-0.5,17.8,10.5,34.3,19.1,49c10.1,17.3,22.1,33.3,35.4,48.2C644,739.5,651.1,732.4,646.8,727.6z"/>
		</g>
	</g>
	<g>
		<g>
			<path class="st0" d="M486.3,596.4c-7.4-7-17.8-17.3-16-28.6c0.3-1.9,0.9-3.3,0.6-5.2c-0.2-1.6-0.6-0.1-0.1-1.5
				c1.2-3.3,3.5-6.4,5.4-9.3c3.3-5.1,6.2-9.2,10.9-13c2.4-2,6.8-4.6,7.3-8c0.6-3.8-3.3-4.5-6.2-4.6c-3.2-0.1-3.2,4.9,0,5
				c0.7,0,1.3,0,2,0.2c-0.2-1.8-0.5-2.2-1-1.1c-0.4,0.1-1.4,1.5-1.8,1.7c-1.6,1.5-3.4,2.9-5.1,4.3c-4.3,3.6-7,7.8-10,12.4
				c-2.5,3.9-7,9.1-6.5,14.1c0.1,1.2,0.3,0.7,0.2,1.5c-0.3,3-1.1,5.5-0.7,8.6c1.4,10.9,9.8,19.9,17.4,27
				C485.1,602.2,488.7,598.7,486.3,596.4L486.3,596.4z"/>
		</g>
	</g>
	<g>
		<g>
			<path class="st0" d="M201.5,434.2c18.6,25.8,41.9,47.7,68,65.9c2.6,1.9,5.1-2.5,2.5-4.3c-25.3-17.7-48.1-39-66.2-64.1
				C204,429.1,199.6,431.6,201.5,434.2L201.5,434.2z"/>
		</g>
	</g>
	<g>
		<g>
			<path class="st0" d="M247.6,418.7c5.4,11.4,12.8,21.5,21.5,30.6c2.2,2.3,5.8-1.2,3.5-3.5c-8.4-8.8-15.4-18.6-20.7-29.6
				C250.5,413.3,246.2,415.8,247.6,418.7L247.6,418.7z"/>
		</g>
	</g>
	<g>
		<g>
			<path class="st0" d="M295.2,428.4c10.6,23.4,29.1,41.7,50.4,55.4c2.7,1.7,5.2-2.6,2.5-4.3c-20.7-13.3-38.4-31-48.6-53.6
				C298.2,422.9,293.9,425.4,295.2,428.4L295.2,428.4z"/>
		</g>
	</g>
</g>
<g id="Layer_2">
	<g>
		<g>
			<path class="st0" d="M515.6,242.4c9.2,16.5,15.5,34.4,18.4,53.1c3,19.4,0.9,37.5-10.1,54.1c-18.2,27.6-48.7,46.8-81,53.1
				c-17.5,3.4-35.8,2.9-53.2-1.2c-17.2-4.1-32.3-11.8-46.9-21.4c-13.1-8.6-26.3-18-41.5-22.4c-8.4-2.4-17-2.9-25.7-1.8
				c-8.8,1.1-17.6,3.6-26.5,3.4c-7.6-0.2-16.5-2.5-19.8-10.1c-2.9-6.6-0.4-12.3,6.2-14.8c5.8-2.2,12.1-2.9,17-6.9
				c5.4-4.3,7.2-11.1,5.3-17.7c-4.8-16.2-25.4-18.3-38.8-23.4c-16.2-6.1-31.8-14.5-45-25.7c-26.8-22.7-42.5-56.6-35.2-91.9
				c7.5-36.4,33-64.9,59.6-89.3c13-12,26.9-23.2,42.4-31.8c7.8-4.3,15.9-8,24.4-10.5c7-2.1,21-4.4,23.2,5.7
				c1.6,7.4-9.8,14.3-14.9,17.5c-6.7,4.2-13.7,7.9-19.7,13c-10.6,9-17.1,23.9-8.6,36.6c3.6,5.4,9.2,8.8,15.7,8.8
				c2.3,0,4.2-1.6,4.8-3.7c11.5-37,40.9-68,77.5-80.9c9.2-3.2,18.7-5.5,28.5-5.4c9.6,0.1,21.4,3,27.1,11.6
				c6.4,9.7-4.6,18.9-12.2,23.4c-9.7,5.7-20.3,9.8-30.2,15c-17,9-34.4,24.6-34,45.5c0.3,19.4,18.1,33.1,35.9,36.5
				c8.6,1.6,19.1-1.5,18.6-12.1c-0.3-6.4-10.5-19.8-2.3-24.9c4-2.5,9.1,1.3,11.6,4.3c3.6,4.2,5.6,9.5,8.8,14
				c5.4,7.7,13,12.8,21.6,16.3c9.9,4,20.4,5.8,30.6,8.5c10.9,2.9,21.1,7.4,30,14.4c8.8,6.9,15.9,15.6,20.9,25.6
				c5.8,11.4,9.4,23.7,16.9,34.3c3.7,5.2,12.4,0.2,8.6-5c-6.9-9.8-10.6-21.2-15.7-32c-4.5-9.3-10.5-17.7-17.9-24.9
				c-7.7-7.4-16.6-13.3-26.4-17.4c-9-3.8-18.5-5.7-27.9-8.1c-9.4-2.3-19.5-4.9-27.1-11.4c-7.9-6.8-10.3-17.7-18.4-24.3
				c-7.3-5.9-18.5-7.4-24.8,0.8c-5.6,7.3-3.8,16.9-0.4,24.7c0.8,1.8,3.1,5.9,0.8,7.4c-1.4,1-4.7,0.2-6.1-0.1
				c-5-1.1-9.9-3.1-14.2-5.8c-8.7-5.5-14.5-14.6-12.8-25.2c3.9-23.8,30.3-33,49.1-42.1c9.3-4.6,19-9.8,24.9-18.6
				c5.8-8.7,5.2-19.2-1.7-27c-14.1-15.9-38.7-15.1-57.4-9.7c-43.1,12.4-78.2,47.4-91.5,90.2c1.6-1.2,3.2-2.4,4.8-3.7
				c-7,0-10.7-8.2-9.6-14.4c1.5-8.3,9.2-14.2,15.9-18.5c11.5-7.4,34-17.2,31.2-34.4c-1.2-7.4-7.4-13.2-14.4-15.3
				c-9.2-2.7-19.1,0.2-27.8,3.4c-17.3,6.4-32.9,16.3-47.3,27.7c-29,23-57.8,51.4-72.4,86c-7.5,17.6-11.1,36.9-8.6,56
				c2.3,17.4,9.6,33.8,20,47.8c10.6,14.2,24.1,25.8,39.3,34.8c7.9,4.7,16.1,8.6,24.6,12c8.5,3.4,17.3,5.6,25.8,8.9
				c5.5,2.2,16.5,10.6,8.6,16.8c-4.9,3.8-12.3,3.9-17.8,6.8c-13.6,7.1-12.8,26-1.8,35.2c15.3,12.8,35.3,5.2,52.8,3.6
				c18.1-1.6,33.8,7.1,48.5,16.7c14.9,9.7,29.3,19.3,46.2,25.2c17.5,6.1,36.5,8.6,55,7.2c34.8-2.6,68.1-18.8,91.5-44.6
				c12.5-13.8,22.3-29.8,24.3-48.6c2.1-19.4-2.4-40.1-8.9-58.2c-3.2-8.9-7.2-17.5-11.8-25.8C521.1,231.7,512.4,236.7,515.6,242.4
				L515.6,242.4z"/>
		</g>
	</g>
	<g>
		<g>
			<path class="st0" d="M472.2,57.7c-0.2,9.7-6.3,20.7-17.2,20.7c-10.7,0-17.2-11-17.2-20.7c0-9.7,6.5-20.7,17.2-20.7
				C465.9,37,472,48,472.2,57.7c0.2,6.4,10.2,6.4,10,0c-0.3-12.1-6.4-24.1-18-28.8c-11-4.4-23-0.1-30,9.2
				c-14.4,19.3-1.5,55.4,25.8,49.8c14-2.9,21.8-16.7,22.1-30.1C482.4,51.3,472.4,51.3,472.2,57.7z"/>
		</g>
	</g>
	<g>
		<g>
			<path class="st0" d="M170.9,353.6c-0.3,11.9-9.7,21.7-21.7,21.7c-11.8,0-21.8-9.9-21.7-21.7c0-11.9,9.9-21.7,21.7-21.7
				C161.3,331.8,170.6,341.7,170.9,353.6c0.2,6.4,10.2,6.4,10,0c-0.3-13.2-8.1-25-20.6-29.7c-12.3-4.7-26.8-0.9-35.3,9.2
				c-8.7,10.3-10,25.4-3,36.9c6.9,11.4,20.2,17.1,33.2,14.7c15-2.7,25.3-16.2,25.7-31.1C181.1,347.1,171.1,347.1,170.9,353.6z"/>
		</g>
	</g>
	<g>
		<g>
			<path class="st0" d="M412.2,196.2c12.3,2.6,22.9,8.1,32.1,16.6c4.4,4,9,8.7,10.7,14.5c2,6.8-0.9,13-5.6,17.7
				c1.3,0.2,2.6,0.3,3.9,0.5c-12.8-17.7-25.5-35.4-38.3-53c-1.9-2.6-6.2-0.1-4.3,2.5c12.8,17.7,25.5,35.4,38.3,53
				c0.9,1.3,2.7,1.7,3.9,0.5c11-11,8.9-24.8-1.2-35.5c-10.3-11-23.3-18.6-38.2-21.7C410.4,190.7,409.1,195.5,412.2,196.2z"/>
		</g>
	</g>
	<g>
		<g>
			<path class="st0" d="M102,230.5c-0.6,10.9-17.1,11.1-17.1,0C84.8,219.4,101.4,219.5,102,230.5c0.3,6.4,10.3,6.4,10,0
				c-0.5-10.1-8.1-18.6-18.6-18.6c-10.1,0-18.5,8.5-18.6,18.6c0,10.1,8.5,18.6,18.6,18.6c10.5,0,18.1-8.5,18.6-18.6
				C112.3,224.1,102.3,224.1,102,230.5z"/>
		</g>
	</g>
</g>
</svg>
