<?xml version="1.0" encoding="utf-8"?>
<!-- Generator: Adobe Illustrator 22.0.1, SVG Export Plug-In . SVG Version: 6.00 Build 0)  -->
<svg version="1.1" id="Layer_2" xmlns="http://www.w3.org/2000/svg" xmlns:xlink="http://www.w3.org/1999/xlink" x="0px" y="0px"
	 viewBox="0 0 800 800" style="enable-background:new 0 0 800 800;" xml:space="preserve">
<style type="text/css">
	.st0{fill:#FFFFFF;}
</style>
<g>
	<g>
		<path class="st0" d="M646.4,733c-12.6-14.2-23.9-29.3-33.5-45.7c-8-13.7-19.1-29.5-17.9-46.2c0.5-6.6,3.1-12.6,6.1-18.4
			c4.6-8.9,9.7-17.7,15.1-26.2c6.4-10.1,13.3-20.7,9.8-33.2c-4.7-16.5-19.9-29.5-34.4-37.3c-15.9-8.6-33.7-13.2-49.4-22.3
			c-12.5-7.3-23.1-17.4-30.6-29.8c-2.3-3.7-4.3-7.6-6-11.6c-1.9-4.5-2.6-10.1-6.4-13.4c-6.7-5.7-15.3-6.2-23.2-2.8
			c-14.5,6.4-24.6,23.2-17.5,38.3c3.4,7.3,8.3,13.8,12.3,20.9c5.3,9.6,9.8,19.7,13.3,30.1c1.6-2.1,3.2-4.2,4.8-6.3
			c-23.3-2.3-44.1-11.2-63.4-24.1c-20.2-13.5-39.5-28.4-58.5-43.5c-15.6-12.4-31-25.1-46.2-38c-1.8-1.6-3.9-1.8-6.1-0.8
			c-13.7,6.6-27,5-41.2,1.2c-11.8-3.1-23.7-6.7-35.7-8.7c-7.1-1.2-13.5-1.1-20.2,2.1c-11,5.2-18,16.3-23.1,26.9c1-0.8,2-1.5,3-2.3
			c-9.5,2.3-19,4.5-28.4,6.8c-2,0.5-3.9,2.7-3.7,4.8c1.9,20.9,20.1,32.2,32.9,46.8c7.8,9,15,18.1,21.4,28.2
			c6.7,10.7,12.9,21.7,19.5,32.5c14.9,24.7,31.7,48.4,53.8,67.2c13.6,11.5,28.7,21.2,44.6,29.1c29.1,14.3,60.9,22.4,93.4,23.5
			c-1.2-0.5-2.4-1-3.5-1.5c15.3,18.3,28.7,38,39.9,59.1c2.3,4.4,4.6,8.9,6.7,13.4c2,4.2,3.5,10.7,6.6,14.1c2.5,2.7,6.9,4.6,10.1,6.4
			c3.6,2,7.3,3.8,11,5.4c32.4,14.1,69.8,18.4,102.4,2.8c18.3-8.7,33.8-23.3,43.1-41.4c2.9-5.7-5.7-10.8-8.6-5
			c-14.2,27.8-43.6,45.1-74.5,46.5c-26.8,1.2-55.2-7.4-77.4-22.4c0.8,1,1.5,2,2.3,3c-7.2-17.1-15.6-33.5-25.5-49.2
			c-5.4-8.6-11.3-17-17.5-25.2c-3-3.9-6-7.8-9.1-11.6c-1.3-1.6-2.5-3.5-4.6-4.2c-1.7-0.5-3.9-0.3-5.6-0.4
			c-33.2-1.7-65.9-11.4-94.9-27.7c-21.8-12.2-40.9-28-56.8-47.4c-19.8-24-33.2-52.1-50.4-77.9c-7.3-10.9-15.7-20.9-24.5-30.5
			c-9.4-10.3-23.2-18.5-24.6-33.7c-1.2,1.6-2.4,3.2-3.7,4.8c5.1-1.2,10.1-2.4,15.2-3.6c2.5-0.6,5.1-1.2,7.6-1.8
			c2.1-0.5,5-0.7,6.9-1.9c2.9-1.8,4.2-6.8,5.9-9.7c2-3.3,4.2-6.4,6.8-9.2c5.8-6,12.2-8.6,20.2-7.4c13.6,2,27,6.3,40.3,9.8
			c15.5,4.1,30.5,3.8,45.1-3.2c-2-0.3-4-0.5-6.1-0.8c25.3,21.5,51.1,42.4,77.7,62.3c15.6,11.7,31.5,23.9,49.1,32.7
			c15.1,7.6,31.5,11.9,48.3,13.5c3.2,0.3,5.8-3.5,4.8-6.3c-5.5-16.4-13.4-31.4-22.4-46c-2.3-3.8-5.4-8.1-5.5-12.7
			c0-7.2,6.2-14.2,12.1-17.6c3.2-1.9,7.1-3.3,10.9-2.1c5,1.6,5.3,6,7.1,10.3c3.2,7.7,7.2,15.1,12.3,21.8c8.2,11,18.6,19.9,30.5,26.6
			c14.9,8.4,31.6,12.9,46.7,20.9c13.1,6.8,28.5,18.6,31.6,34c0.2,1.1,0-1.2,0.1,1.3c0.1,1.2,0.1,2.4-0.1,3.6
			c-0.4,2.7-1.5,5.3-2.7,7.7c-3.7,7.2-8.6,13.8-12.6,20.8c-7.4,12.7-16.2,26.3-16.6,41.5c-0.5,17.8,10.5,34.3,19.1,49
			c10.1,17.3,22.1,33.3,35.4,48.2C643.6,744.9,650.6,737.8,646.4,733z"/>
	</g>
</g>
<g>
	<g>
		<path class="st0" d="M485.9,601.9c-7.4-7-17.8-17.3-16-28.6c0.3-1.9,0.9-3.3,0.6-5.2c-0.2-1.6-0.6-0.1-0.1-1.5
			c1.2-3.3,3.5-6.4,5.4-9.3c3.3-5.1,6.2-9.2,10.9-13c2.4-2,6.8-4.6,7.3-8c0.6-3.8-3.3-4.5-6.2-4.6c-3.2-0.1-3.2,4.9,0,5
			c0.7,0,1.3,0,2,0.2c-0.2-1.8-0.5-2.2-1-1.1c-0.4,0.1-1.4,1.5-1.8,1.7c-1.6,1.5-3.4,2.9-5.1,4.3c-4.3,3.6-7,7.8-10,12.4
			c-2.5,3.9-7,9.1-6.5,14.1c0.1,1.2,0.3,0.7,0.2,1.5c-0.3,3-1.1,5.5-0.7,8.6c1.4,10.9,9.8,19.9,17.4,27
			C484.7,607.6,488.2,604.1,485.9,601.9L485.9,601.9z"/>
	</g>
</g>
<g>
	<g>
		<path class="st0" d="M201.1,439.7c18.6,25.8,41.9,47.7,68,65.9c2.6,1.9,5.1-2.5,2.5-4.3c-25.3-17.7-48.1-39-66.2-64.1
			C203.5,434.6,199.2,437,201.1,439.7L201.1,439.7z"/>
	</g>
</g>
<g>
	<g>
		<path class="st0" d="M247.1,424.2c5.4,11.4,12.8,21.5,21.5,30.6c2.2,2.3,5.8-1.2,3.5-3.5c-8.4-8.8-15.4-18.6-20.7-29.6
			C250.1,418.7,245.7,421.3,247.1,424.2L247.1,424.2z"/>
	</g>
</g>
<g>
	<g>
		<path class="st0" d="M294.8,433.8c10.6,23.4,29.1,41.7,50.4,55.4c2.7,1.7,5.2-2.6,2.5-4.3c-20.7-13.3-38.4-31-48.6-53.6
			C297.8,428.3,293.5,430.9,294.8,433.8L294.8,433.8z"/>
	</g>
</g>
<g>
	<g>
		<path class="st0" d="M338.5,57.8c-2.8-1.6-1.2-1.9-0.9-0.3c0.1,0.5,0.4,1,0.6,1.4c0.9,2.1,1.6,4.3,2.5,6.5c1.7,4.6,3.6,9.2,6,13.5
			c4.9,8.8,11.6,16.7,19,23.6c15.2,14.1,33.3,24.6,50.9,35.4c19.1,11.8,38.2,23.5,56.9,35.7c12.1,7.9,24.3,16,35.1,25.6
			c10.4,9.2,17.6,19.5,21.7,33c6.2,20.3,3.6,42.6,2,63.4c-1.4,17.8-4.1,36.1-12,52.4c-8.3,17.1-22,30-39.1,38.2
			c-31.4,15.1-69.7,16-103.6,11.1c-35.6-5.2-72.9-17.5-100.5-41.4c-19.3-16.8-37.1-43.4-36.2-69.7c0.5-14.2,7.3-25.3,17.1-34.9
			c12.8-12.5,27.7-22.9,42.2-33.3c17.9-12.9,36.3-25.1,54.2-38c8-5.7,14.9-11.8,17.6-21.6c2.3-8.6-0.3-17-3.1-25.2
			c-6.3-18.5-12.5-36.9-17.6-55.8c-1.3-5-2.6-9.9-3.8-14.9c-0.5-2-1-4.1-1.4-6.1c-0.1-0.6-0.1-1.6-0.4-2c-0.3-0.5,2.2-1.1-1.4,2.7
			c4.5-4.6-2.6-11.7-7.1-7.1c-2.2,2.2-1.6,5-1.1,7.8c0.8,4.4,1.9,8.7,3,13c3.1,12.1,6.4,24.1,10.1,36c2.7,8.7,5.7,17.3,8.7,25.8
			c1.7,4.9,3.6,9.9,4.6,15.1c0.6,2.9,0.4,6.1-0.6,9.2c-1.1,3.6-3,6.5-5.9,9.2c-4.7,4.4-10.3,7.9-15.6,11.5
			c-10.2,6.9-20.2,14-30.3,21.1c-17.3,12.3-35,24.5-51.2,38.3c-9.8,8.4-19.3,17.7-24.2,29.8c-12.8,31.6,6.4,66.4,27.8,89.3
			c22.7,24.3,56.5,38.5,88.3,46.3c36.7,9,77,11.1,113.7,0.7c17.3-4.9,34-13,46.9-25.8c14-13.8,22.3-32.1,26.5-51.1
			c4.1-18.5,4.9-37.8,5.7-56.8c0.8-22-1.9-44.7-15.1-63.1C522,197,513,189.6,504,182.8c-14.4-11-29.8-20.7-45.2-30.4
			c-20.2-12.7-40.7-24.8-60.7-37.8c-17.5-11.4-35.1-24.9-44.5-44c-2.1-4.3-3.6-8.9-5.3-13.3c-1-2.7-2-6.6-4.7-8.2
			C337.9,46,332.8,54.6,338.5,57.8z"/>
	</g>
</g>
<g>
	<g>
		<path class="st0" d="M308,185.3c17.2-2,25.3-24.1,27-39.1c1.4-11.5-1.1-23.5-8-32.9c-4.3-5.9-9.7-10.6-16-14.2
			c-4.7-2.7-10.7-4.8-13.8-9.5c-3.8-5.7-2.7-12.2-0.7-18.3c1.1-3.5,2.7-7.8-0.7-10.6c-6.6-5.3-16.3,6.4-19.8,10.7
			c-8.7,10.6-14.6,23-16,36.7c-1.3,12.5,1.9,24.9,7.2,36.1c4.8,10,11.5,19.2,18.7,27.6C291.1,177.8,299,185.7,308,185.3
			c6.4-0.3,6.4-10.3,0-10c-1.7,0.1-1.3,0.2-3.3-0.6c-3.7-1.5-6.8-4.7-9.6-7.5c-5.5-5.8-10.5-12.5-14.7-19.3
			c-11.6-19-15-40.9-3.4-60.9c2.4-4.1,5.2-8,8.4-11.5c1.5-1.6,3-3.2,4.7-4.5c0.6-0.5,2.6-1.8,2.5-1.7c-1.6-1.5-3.2-2.9-4.8-4.4
			c-0.1,0.4-0.2,0.7-0.3,1c-0.3,0.6-0.5,1.5-0.7,2.1c-0.6,1.8-1.2,3.7-1.6,5.6c-1.2,5.8-1,11.7,1.3,17.3
			c4.2,9.9,13.5,12.9,21.8,18.3c9.3,6,15.7,15.8,16.7,26.9c0.7,7.8-0.8,15.7-3.7,22.9c-1.7,4.4-6.5,15.4-13.5,16.2
			C301.6,176,301.6,186,308,185.3z"/>
	</g>
</g>
<g>
	<g>
		<path class="st0" d="M413.3,87.1c13.4-10.9,24.7-24.2,36.3-36.9c7.4-8.1,17.6-28.3,4.2-35.2c-5.9-3.1-13.6-2.3-19.9-1.3
			c-8.8,1.4-17.4,4.4-25.4,8.5c-17,8.7-31.1,24.9-29.1,45.2c0.7,7.2,3.4,14.7,8,20.4c2.8,3.4,6.7,6.2,11.3,6.3
			C404.6,94.3,409.1,90.5,413.3,87.1c5-4-2.1-11-7.1-7.1c-2.4,1.9-5.6,5.1-8.8,3.4c-2.2-1.2-3.7-4.1-4.8-6.2
			c-2.1-4.2-3.3-8.9-3.3-13.6c0-16.6,13.4-27.9,27.3-34.3c6.1-2.8,12.7-4.9,19.4-5.9c3.3-0.5,10.5-1.9,13.4,0.4
			c3.3,2.6-2,12-3.7,14.9c-1.6,2.9-3.6,4.8-6,7.4c-11.1,11.5-21,23.7-33.5,33.9C401.3,84.1,408.4,91.2,413.3,87.1z"/>
	</g>
</g>
<g>
	<g>
		<path class="st0" d="M594,311.1c5.3,13.2,8.9,26.4,4.9,40.6c-3.9,13.5-13.4,23.8-23.7,32.8c-6.9,6-14,11.9-21.5,17.2
			c-7.5,5.4-16.8,12.3-26.3,13.5c-10.1,1.2-6.9-14.5-5.2-20.3c3.1-10.1,11.5-17.2,18-25.2c17-21,31.5-44.4,36.3-71.3
			c0.4-2.4,0.8-4.8,1.2-7.2c0.3-1.5,1.3-3.6,1.2-5.2c0-0.9-0.7,0.6-0.7,0.2c0.1,0.3,2.9,2.4,3.3,2.9c3.4,3.8,5.9,8.5,8.2,13
			c1.1,2.1,2.1,4.3,3.1,6.5C593.5,310.1,593.6,310.4,594,311.1c2.4,5.9,12.1,3.3,9.6-2.7c-3.5-8.5-7.5-17-13.1-24.2
			c-4.9-6.2-15.3-12.7-20.3-2.9c-2,3.9-2.3,8.6-3,12.8c-1.2,7-2.8,14-5.2,20.8c-5.8,16.3-15.9,31.3-26.5,44.8
			c-7.1,9.1-16.3,16.9-21.1,27.6c-4.4,9.8-7.4,27,2,34.9c8.7,7.3,22.1,0.6,30.4-4.1c9.4-5.3,18-12,26.3-18.8
			c13.1-10.8,26.2-22.1,33-38.1c7.5-17.7,4.5-35.3-2.5-52.6C601.2,302.6,591.5,305.2,594,311.1z"/>
	</g>
</g>
<g>
	<g>
		<path class="st0" d="M438.9,148.8c14.4,14.9,23.2,34.9,20.5,55.9c-2.3,18.4-14,34.4-26.5,47.4c-5.6,5.9-11.7,11.4-18.3,16.2
			c-5.6,4.2-10.9,9.2-10.6,16.8c0.3,7.4,5.7,13.4,11.7,17.2c8.1,5,16.7,6.1,25.7,2.8c7.7-2.9,16.3-8.6,16.3-17.7c0-2.6,0-5.8-1-8.2
			c-1.5-3.4-5-6.3-7.4-9c-2.1-2.4-5.7,1.1-3.5,3.5c4.4,5,7.8,7.7,7,14.8c-1.1,9.4-16.3,14.7-24.2,13.5c-7.3-1.1-16.2-6.2-18.8-13.6
			c-3-8.4,4.1-13.2,9.9-17.6c23-17.7,45.6-44.1,45.2-74.7c-0.3-19.3-9.2-37-22.5-50.8C440.2,142.9,436.7,146.4,438.9,148.8
			L438.9,148.8z"/>
	</g>
</g>
</svg>
