<?xml version="1.0" encoding="UTF-8" standalone="no"?>
<svg
   xmlns:dc="http://purl.org/dc/elements/1.1/"
   xmlns:cc="http://web.resource.org/cc/"
   xmlns:rdf="http://www.w3.org/1999/02/22-rdf-syntax-ns#"
   xmlns:svg="http://www.w3.org/2000/svg"
   xmlns="http://www.w3.org/2000/svg"
   xmlns:sodipodi="http://sodipodi.sourceforge.net/DTD/sodipodi-0.dtd"
   xmlns:inkscape="http://www.inkscape.org/namespaces/inkscape"
   width="232pt"
   height="54pt"
   viewBox="0 0 232 54"
   version="1.1"
   id="svg2"
   sodipodi:version="0.32"
   inkscape:version="0.45.1"
   sodipodi:docname="Vonage_logo.svg"
   inkscape:output_extension="org.inkscape.output.svg.inkscape"
   sodipodi:docbase="C:\Documents and Settings\Administrator\Desktop">
  <metadata
     id="metadata63">
    <rdf:RDF>
      <cc:Work
         rdf:about="">
        <dc:format>image/svg+xml</dc:format>
        <dc:type
           rdf:resource="http://purl.org/dc/dcmitype/StillImage" />
      </cc:Work>
    </rdf:RDF>
  </metadata>
  <sodipodi:namedview
     inkscape:window-height="744"
     inkscape:window-width="1280"
     inkscape:pageshadow="2"
     inkscape:pageopacity="0.0"
     guidetolerance="10.0"
     gridtolerance="10.0"
     objecttolerance="10.0"
     borderopacity="1.0"
     bordercolor="#666666"
     pagecolor="#ffffff"
     id="base"
     inkscape:zoom="22.627417"
     inkscape:cx="226.96192"
     inkscape:cy="38.380739"
     inkscape:window-x="0"
     inkscape:window-y="22"
     inkscape:current-layer="svg2" />
  <defs
     id="defs4">
    <clipPath
       id="clip0">
      <rect
         width="232"
         height="54"
         id="rect7" />
    </clipPath>
  </defs>
  <g
     id="surface0"
     clip-path="url(#clip0)"
     transform="translate(-0.2,0.2)">
    <path
       style="opacity:1;fill:none;stroke:#fdfdfd;stroke-width:0.1;stroke-linecap:butt;stroke-linejoin:miter;stroke-miterlimit:10"
       d="M 0,0 L 232,0 L 232,54 L 0,54 L 0,0 z "
       id="path10" />
    <path
       style="opacity:1;fill:#008adc;fill-rule:nonzero;stroke:none"
       d="M 23.481903,2.613922 C 29.150894,0.805984 35.612765,3.179993 35.689606,10.871939 C 35.78125,17.505988 27.437668,22.079391 22.018967,18.091553 C 16.234695,14.595123 17.083069,4.927109 23.481903,2.613922 z "
       id="path16"
       sodipodi:nodetypes="cccc" />
    <path
       style="opacity:1;fill:#f5750c;fill-rule:nonzero;stroke:none"
       d="M 50.42981,4.540329 C 52.350693,3.435425 53.212982,5.800494 52.507538,7.805191 C 48.476196,19.799591 44.203888,31.849396 37.828079,42.833099 C 35.454346,46.560104 32.881332,50.73819 28.620407,52.482452 C 23.949432,53.719696 20.532684,49.277344 18.078049,45.996674 C 10.68985,34.98616 6.313187,22.327072 1.839523,9.940262 C 1.232178,8.024033 -0.167816,4.137802 3.15448,4.336258 C 5.684891,7.537399 7.025482,11.465347 9.072739,14.964996 C 13.526199,23.00415 17.78479,31.272034 23.633194,38.409378 C 24.768509,39.492416 26.470108,41.640335 28.118912,40.253479 C 30.696533,38.459412 32.340515,35.678268 34.128326,33.162033 C 39.485611,24.926086 44.099869,16.23053 48.47583,7.441711 C 49.072647,6.455826 49.433105,5.210815 50.42981,4.540329 z "
       id="path20"
       sodipodi:nodetypes="ccccccccccccc" />
    <path
       style="opacity:1;fill:#f5750c;fill-rule:nonzero;stroke:none"
       d="M 85.59375,20.09375 C 83.509801,20.169293 81.424139,20.512421 79.5,21.0625 C 66.387989,24.337761 63.470425,44.123127 73.5,51.9375 C 80.191494,56.800686 89.769268,57.111107 97.03125,53.34375 C 106.09182,48.44215 107.28448,35.217533 101.90625,27.1875 C 98.287227,21.920372 91.845596,19.867122 85.59375,20.09375 z M 86.625,26.8125 C 90.118777,26.864717 93.624935,28.263801 95.46875,31.34375 C 98.140259,35.980782 97.7183,42.512165 94,46.46875 C 89.294175,50.663105 80.649421,50.125892 77.21875,44.5625 C 73.754109,38.623512 75.464606,28.577137 83.1875,27.1875 C 84.28381,26.915522 85.460408,26.795094 86.625,26.8125 z "
       transform="matrix(0.8,0,0,0.8,-0.2,-0.2)"
       id="path24"
       sodipodi:nodetypes="cccccccccccc" />
    <path
       style="opacity:1;fill:#f5750c;fill-rule:nonzero;stroke:none"
       d="M 97.203781,19.90329 C 100.81639,16.596313 105.92522,14.969284 110.74002,16.271194 C 114.47144,16.960358 117.24829,20.339401 117.50952,24.076492 C 117.93033,30.554169 117.57324,37.05957 117.67973,43.548859 C 115.57814,43.543121 113.4785,43.541428 111.37988,43.542709 C 111.25784,37.698334 111.59685,31.840942 111.23142,26.00621 C 111.10104,23.328384 108.73613,21.002838 105.99791,21.256943 C 102.17886,21.037201 96.513321,23.214859 97.303223,27.91597 C 97.345642,33.121475 97.331543,38.327118 97.354446,43.533081 C 95.283157,43.520889 93.212585,43.515381 91.143204,43.519409 C 91.23616,34.594376 91.167679,25.668991 91.189911,16.74382 C 93.20755,16.751251 95.225494,16.801923 97.2453,16.797604 C 97.234924,17.58653 97.214157,19.114365 97.203781,19.90329 z "
       id="path28"
       sodipodi:nodetypes="ccccccccccccc" />
    <path
       style="opacity:1;fill:#f5750c;fill-rule:nonzero;stroke:none"
       d="M 175.09375,20.03125 C 171.22811,20.045731 167.41072,20.827732 164,22.6875 C 160.90135,24.549297 159.23424,27.634316 157.96875,30.78125 C 160.5688,30.845319 163.17633,30.86798 165.78125,30.875 C 167.08893,28.667578 168.906,26.859344 171.48483,26.381282 C 176.03813,25.819548 183.80305,25.775757 184.28125,32.03125 C 177.27893,32.73653 169.99835,33.016526 163.5,36 C 160.20275,37.464022 157.15618,40.18198 156.5625,43.90625 C 155.57803,48.26252 158.22504,52.825333 162.3125,54.4375 C 169.32594,57.455211 177.29279,55.431648 183.625,51.78125 C 183.65496,52.569278 183.75127,54.024452 183.78125,54.71875 C 186.30654,54.712379 189.18523,54.699562 191.71431,54.71875 C 191.70612,37.797726 191.63841,37.840296 191.67678,29.09375 C 191.30833,25.130489 187.71511,22.116253 184,21.21875 C 181.14013,20.483545 178.10036,20.019987 175.09375,20.03125 z M 183.8125,37.875 C 183.84999,40.378566 183.89094,42.871281 183.96875,45.375 C 179.14216,48.216167 173.36687,50.780032 167.6875,49.3125 C 164.1491,48.09935 164.15899,42.707196 167.5,41.25 C 172.53043,38.709812 178.30378,38.4407 183.8125,37.875 z "
       transform="matrix(0.8,0,0,0.8,-0.2,-0.2)"
       id="path32"
       sodipodi:nodetypes="cccccccccccccccccccc" />
    <path
       style="opacity:1;fill:#f5750c;fill-rule:nonzero;stroke:none"
       d="M 239.25,19.46875 C 236.17054,19.57043 233.31707,20.726665 231.03125,22.75 C 223.7349,19.418625 214.93545,19.014415 207.625,22.5 C 200.27911,26.004676 200.18394,37.664441 207.0625,41.75 C 204.34996,43.21473 201.1464,45.447857 201.8125,49.03125 C 201.7131,51.545841 204.08003,52.7459 206.1875,53.21875 C 203.37676,54.083199 199.55809,55.440689 199.96875,59.125 C 201.05799,64.264045 207.08284,65.284897 211.46875,65.84375 C 219.64499,66.356197 228.69042,66.597107 235.875,62.0625 C 240.17571,59.436824 240.53172,52.171486 235.75,49.875 C 227.22504,46.003616 217.41085,50.122082 208.75,46.84375 C 210.20019,42.73021 214.69755,44.64307 217.875,44.65625 C 223.28461,44.89299 229.50178,43.834717 233.1875,39.5 C 236.21454,35.736344 235.70205,30.963551 234.27589,26.678998 C 235.90729,26.62578 237.49528,26.713673 239.21875,26.6875 C 239.19987,24.251205 239.25222,21.904511 239.25,19.46875 z M 218.75,25.90625 C 223.19611,25.90408 227.71211,27.865778 227.65625,32.71875 C 226.98548,39.138485 218.4718,39.767066 213.625,38.09375 C 208.69595,36.563217 208.43971,29.003629 213.1875,27.0625 C 214.73516,26.335079 216.72904,25.907237 218.75,25.90625 z M 216.96875,55.0625 C 220.17474,55.004847 223.39554,55.112096 226.59375,55.09375 C 228.03091,55.255664 232.00448,55.322369 230.5625,57.84375 C 227.13091,60.85059 222.06524,60.295433 217.8125,60.5625 C 214.58457,60.275273 210.09119,61.156754 208.28125,57.6875 C 207.84893,56.520222 209.55734,55.667278 210.5,55.5 C 212.64255,55.212314 214.80507,55.101409 216.96875,55.0625 z "
       transform="matrix(0.8,0,0,0.8,-0.2,-0.2)"
       id="path36"
       sodipodi:nodetypes="cccccccccccccccccccccccccccc" />
    <path
       style="opacity:1;fill:#f5750c;fill-rule:nonzero;stroke:none"
       d="M 264.53125,20.0625 C 260.53358,19.973665 256.5109,20.98064 253.09375,23.03125 C 243.34575,29.147565 242.88405,45.312428 252.09375,52.125 C 261.69527,59.065841 277.98399,56.369652 282.5625,44.625 C 279.81912,44.667164 276.70705,44.626267 273.84375,44.65625 C 268.62705,52.801257 254.34159,50.122861 253.25,40.1875 C 263.08518,40.108669 272.91325,40.198643 282.75,40.125 C 282.56804,34.044411 281.05075,27.279419 275.8125,23.53125 C 272.498,21.313461 268.52892,20.151335 264.53125,20.0625 z M 264.03125,26.4375 C 268.79339,26.418529 273.55403,28.971697 274.28125,34.125 C 267.42668,34.170281 260.57133,34.158367 253.71875,34.15625 C 254.50368,29.036125 259.26911,26.456471 264.03125,26.4375 z "
       transform="matrix(0.8,0,0,0.8,-0.2,-0.2)"
       id="path40"
       sodipodi:nodetypes="ccccccccccccc" />
  </g>
  <text
     xml:space="preserve"
     style="font-size:4.80000019px;font-style:normal;font-weight:bold;fill:#f5750c;fill-opacity:1;stroke:none;stroke-width:1px;stroke-linecap:butt;stroke-linejoin:miter;stroke-opacity:1;font-family:Lucida Sans"
     x="223.90288"
     y="17.738998"
     id="text2215"><tspan
       sodipodi:role="line"
       id="tspan2217"
       x="223.90288"
       y="17.738998">TM</tspan></text>
</svg>
