<svg id="Layer_1" data-name="Layer 1" xmlns="http://www.w3.org/2000/svg" xmlns:xlink="http://www.w3.org/1999/xlink" viewBox="0 0 115.03888 175.80967">
  <defs>
    <style>
      .cls-1 {
        fill: none;
      }

      .cls-2 {
        clip-path: url(#clip-path);
      }

      .cls-3 {
        fill: #b2b4b6;
      }

      .cls-4 {
        fill: #b2b4b7;
      }

      .cls-5 {
        fill: #b3b5b8;
      }

      .cls-6 {
        fill: #b4b6b8;
      }

      .cls-7 {
        fill: #b5b7b9;
      }

      .cls-8 {
        fill: #b6b8ba;
      }

      .cls-9 {
        fill: #b7b9bb;
      }

      .cls-10 {
        fill: #b7b9bc;
      }

      .cls-11 {
        fill: #b8babc;
      }

      .cls-12 {
        fill: #b9bbbd;
      }

      .cls-13 {
        fill: #babcbe;
      }

      .cls-14 {
        fill: #bbbdbf;
      }

      .cls-15 {
        fill: #bcbdc0;
      }

      .cls-16 {
        fill: #bcbec0;
      }

      .cls-17 {
        fill: #bdbfc1;
      }

      .cls-18 {
        fill: #bec0c2;
      }

      .cls-19 {
        fill: #bfc1c3;
      }

      .cls-20 {
        fill: #c0c2c4;
      }

      .cls-21 {
        fill: #c1c2c4;
      }

      .cls-22 {
        fill: #c1c3c5;
      }

      .cls-23 {
        fill: #c2c4c6;
      }

      .cls-24 {
        fill: #c3c5c7;
      }

      .cls-25 {
        fill: #c4c6c8;
      }

      .cls-26 {
        fill: #c5c6c8;
      }

      .cls-27 {
        fill: #c5c7c9;
      }

      .cls-28 {
        fill: #c6c8ca;
      }

      .cls-29 {
        fill: #c7c9cb;
      }

      .cls-30 {
        fill: #c8cacc;
      }

      .cls-31 {
        fill: #c9cbcc;
      }

      .cls-32 {
        fill: #cacbcd;
      }

      .cls-33 {
        fill: #cbccce;
      }

      .cls-34 {
        fill: #cbcdcf;
      }

      .cls-35 {
        fill: #ccced0;
      }

      .cls-36 {
        fill: #cdcfd0;
      }

      .cls-37 {
        fill: #cecfd1;
      }

      .cls-38 {
        fill: #cfd0d2;
      }

      .cls-39 {
        fill: #d0d1d3;
      }

      .cls-40 {
        fill: #d0d2d3;
      }

      .cls-41 {
        fill: #d1d3d4;
      }

      .cls-42 {
        fill: #d2d3d5;
      }

      .cls-43 {
        fill: #d3d4d6;
      }

      .cls-44 {
        fill: #d4d5d7;
      }

      .cls-45 {
        fill: #d5d6d7;
      }

      .cls-46 {
        fill: #d5d7d8;
      }

      .cls-47 {
        fill: #d6d7d9;
      }

      .cls-48 {
        fill: #d7d8da;
      }

      .cls-49 {
        fill: #d8d9db;
      }

      .cls-50 {
        fill: #d9dadb;
      }

      .cls-51 {
        fill: #d9dbdc;
      }

      .cls-52 {
        fill: #dadcdd;
      }

      .cls-53 {
        fill: #dbdcde;
      }

      .cls-54 {
        fill: #dcddde;
      }

      .cls-55 {
        fill: #dddedf;
      }

      .cls-56 {
        fill: #dedfe0;
      }

      .cls-57 {
        fill: #dee0e1;
      }

      .cls-58 {
        fill: #dfe0e2;
      }

      .cls-59 {
        fill: #e0e1e2;
      }

      .cls-60 {
        fill: #e1e2e3;
      }

      .cls-61 {
        fill: #e2e3e4;
      }

      .cls-62 {
        fill: #e3e4e5;
      }

      .cls-63 {
        fill: #e4e5e6;
      }

      .cls-64 {
        fill: #e5e6e7;
      }

      .cls-65 {
        fill: #e6e7e8;
      }

      .cls-66 {
        fill: #e7e8e9;
      }

      .cls-67 {
        fill: #e8e8e9;
      }

      .cls-68 {
        fill: #e9e9ea;
      }

      .cls-69 {
        fill: #e9eaeb;
      }

      .cls-70 {
        fill: #eaebec;
      }

      .cls-71 {
        fill: #ebeced;
      }

      .cls-72 {
        fill: #eceded;
      }

      .cls-73 {
        fill: #ededee;
      }

      .cls-74 {
        fill: #eeeeef;
      }

      .cls-75 {
        fill: #eeeff0;
      }

      .cls-76 {
        fill: #eff0f0;
      }

      .cls-77 {
        fill: #f0f1f1;
      }

      .cls-78 {
        fill: #f1f1f2;
      }

      .cls-79 {
        fill: #f2f2f3;
      }

      .cls-80 {
        fill: #f3f3f3;
      }

      .cls-81 {
        fill: #f3f4f4;
      }

      .cls-82 {
        fill: #f4f5f5;
      }

      .cls-83 {
        fill: #f5f6f6;
      }

      .cls-84 {
        fill: #f6f6f7;
      }

      .cls-85 {
        fill: #f7f7f8;
      }

      .cls-86 {
        fill: #f8f8f9;
      }

      .cls-87 {
        fill: #f9f9fa;
      }

      .cls-88 {
        fill: #fafbfb;
      }

      .cls-89 {
        fill: #fcfcfc;
      }

      .cls-90 {
        fill: #fdfdfd;
      }

      .cls-91 {
        fill: #fff;
      }

      .cls-92 {
        fill: #32a5dd;
      }

      .cls-93 {
        fill: #0096d7;
      }
    </style>
    <clipPath id="clip-path" transform="translate(-2952.3069 -4122.81953)">
      <path class="cls-1" d="M3065.86111,4180.45494a56.774,56.774,0,1,1-56.77633-56.78066A56.77318,56.77318,0,0,1,3065.86111,4180.45494Z"/>
    </clipPath>
  </defs>
  <title>att</title>
  <g id="g3685">
    <g class="cls-2">
      <g id="g35">
        <path id="path37" class="cls-3" d="M3067.34578,4180.34714a57.51944,57.51944,0,1,1-57.51867-57.52761A57.51986,57.51986,0,0,1,3067.34578,4180.34714Z" transform="translate(-2952.3069 -4122.81953)"/>
        <path id="path39" class="cls-4" d="M3067.23643,4180.31248a57.34964,57.34964,0,1,1-57.34926-57.35743A57.34978,57.34978,0,0,1,3067.23643,4180.31248Z" transform="translate(-2952.3069 -4122.81953)"/>
        <path id="path41" class="cls-4" d="M3067.12862,4180.27783a57.18061,57.18061,0,1,1-57.18138-57.18725A57.18185,57.18185,0,0,1,3067.12862,4180.27783Z" transform="translate(-2952.3069 -4122.81953)"/>
        <path id="path43" class="cls-5" d="M3067.01928,4180.244a57.0112,57.0112,0,1,1-57.01043-57.01937A57.01079,57.01079,0,0,1,3067.01928,4180.244Z" transform="translate(-2952.3069 -4122.81953)"/>
        <path id="path45" class="cls-6" d="M3066.91147,4180.2093a56.84217,56.84217,0,1,1-56.84256-56.84919A56.84154,56.84154,0,0,1,3066.91147,4180.2093Z" transform="translate(-2952.3069 -4122.81953)"/>
        <path id="path47" class="cls-7" d="M3066.80212,4180.17542a56.67276,56.67276,0,1,1-56.67315-56.67978A56.67262,56.67262,0,0,1,3066.80212,4180.17542Z" transform="translate(-2952.3069 -4122.81953)"/>
        <path id="path49" class="cls-8" d="M3066.69277,4180.14076a56.503,56.503,0,1,1-56.503-56.51037A56.5014,56.5014,0,0,1,3066.69277,4180.14076Z" transform="translate(-2952.3069 -4122.81953)"/>
        <path id="path51" class="cls-9" d="M3066.58342,4180.10611a56.33317,56.33317,0,1,1-56.33355-56.34019A56.33132,56.33132,0,0,1,3066.58342,4180.10611Z" transform="translate(-2952.3069 -4122.81953)"/>
        <path id="path53" class="cls-10" d="M3066.47561,4180.07223a56.16452,56.16452,0,1,1-56.16491-56.17155A56.16306,56.16306,0,0,1,3066.47561,4180.07223Z" transform="translate(-2952.3069 -4122.81953)"/>
        <path id="path55" class="cls-10" d="M3066.36627,4180.03758a55.99473,55.99473,0,1,1-55.9955-56.00136A55.993,55.993,0,0,1,3066.36627,4180.03758Z" transform="translate(-2952.3069 -4122.81953)"/>
        <path id="path57" class="cls-11" d="M3066.32776,4180.00754a55.8746,55.8746,0,1,1-55.8746-55.88124A55.8727,55.8727,0,0,1,3066.32776,4180.00754Z" transform="translate(-2952.3069 -4122.81953)"/>
        <path id="path59" class="cls-12" d="M3066.28926,4179.97751a55.75485,55.75485,0,1,1-55.756-55.76111A55.75259,55.75259,0,0,1,3066.28926,4179.97751Z" transform="translate(-2952.3069 -4122.81953)"/>
        <path id="path61" class="cls-13" d="M3066.25076,4179.94671a55.63511,55.63511,0,1,1-55.63588-55.641A55.63313,55.63313,0,0,1,3066.25076,4179.94671Z" transform="translate(-2952.3069 -4122.81953)"/>
        <path id="path63" class="cls-14" d="M3066.21226,4179.91822a55.515,55.515,0,1,1-55.515-55.52239A55.513,55.513,0,0,1,3066.21226,4179.91822Z" transform="translate(-2952.3069 -4122.81953)"/>
        <path id="path65" class="cls-15" d="M3066.17375,4179.88819a55.39447,55.39447,0,1,1-55.39485-55.40149A55.39289,55.39289,0,0,1,3066.17375,4179.88819Z" transform="translate(-2952.3069 -4122.81953)"/>
        <path id="path67" class="cls-16" d="M3066.13525,4179.85815a55.27511,55.27511,0,1,1-55.27472-55.28136A55.27343,55.27343,0,0,1,3066.13525,4179.85815Z" transform="translate(-2952.3069 -4122.81953)"/>
        <path id="path69" class="cls-17" d="M3066.09675,4179.82735a55.15536,55.15536,0,1,1-55.15459-55.16124A55.154,55.154,0,0,1,3066.09675,4179.82735Z" transform="translate(-2952.3069 -4122.81953)"/>
        <path id="path71" class="cls-18" d="M3066.05824,4179.79732a55.03485,55.03485,0,1,1-55.03446-55.04111A55.03385,55.03385,0,0,1,3066.05824,4179.79732Z" transform="translate(-2952.3069 -4122.81953)"/>
        <path id="path73" class="cls-19" d="M3066.01974,4179.76806a54.91472,54.91472,0,1,1-54.91433-54.921A54.91356,54.91356,0,0,1,3066.01974,4179.76806Z" transform="translate(-2952.3069 -4122.81953)"/>
        <path id="path75" class="cls-20" d="M3065.98124,4179.738a54.79536,54.79536,0,1,1-54.79421-54.80162A54.79312,54.79312,0,0,1,3065.98124,4179.738Z" transform="translate(-2952.3069 -4122.81953)"/>
        <path id="path77" class="cls-21" d="M3065.94274,4179.708a54.67523,54.67523,0,1,1-54.67562-54.68226A54.6753,54.6753,0,0,1,3065.94274,4179.708Z" transform="translate(-2952.3069 -4122.81953)"/>
        <path id="path79" class="cls-22" d="M3065.90423,4179.678a54.5551,54.5551,0,1,1-54.55395-54.56136A54.55387,54.55387,0,0,1,3065.90423,4179.678Z" transform="translate(-2952.3069 -4122.81953)"/>
        <path id="path81" class="cls-23" d="M3065.86573,4179.6487a54.43536,54.43536,0,1,1-54.43382-54.442A54.43227,54.43227,0,0,1,3065.86573,4179.6487Z" transform="translate(-2952.3069 -4122.81953)"/>
        <path id="path83" class="cls-24" d="M3065.82723,4179.6179a54.31562,54.31562,0,1,1-54.31369-54.32188A54.31429,54.31429,0,0,1,3065.82723,4179.6179Z" transform="translate(-2952.3069 -4122.81953)"/>
        <path id="path85" class="cls-25" d="M3065.78872,4179.58786a54.19549,54.19549,0,1,1-54.1951-54.20175A54.195,54.195,0,0,1,3065.78872,4179.58786Z" transform="translate(-2952.3069 -4122.81953)"/>
        <path id="path87" class="cls-26" d="M3065.75022,4179.55783a54.07536,54.07536,0,1,1-54.07343-54.08162A54.07323,54.07323,0,0,1,3065.75022,4179.55783Z" transform="translate(-2952.3069 -4122.81953)"/>
        <path id="path89" class="cls-27" d="M3065.71326,4179.5278a53.95638,53.95638,0,1,1-53.95638-53.96149A53.95525,53.95525,0,0,1,3065.71326,4179.5278Z" transform="translate(-2952.3069 -4122.81953)"/>
        <path id="path91" class="cls-28" d="M3065.67476,4179.49854A53.83625,53.83625,0,1,1,3011.84,4125.6564,53.83513,53.83513,0,0,1,3065.67476,4179.49854Z" transform="translate(-2952.3069 -4122.81953)"/>
        <path id="path93" class="cls-29" d="M3065.63625,4179.46851a53.71651,53.71651,0,1,1-53.71613-53.722A53.71583,53.71583,0,0,1,3065.63625,4179.46851Z" transform="translate(-2952.3069 -4122.81953)"/>
        <path id="path95" class="cls-30" d="M3065.59775,4179.43847a53.59638,53.59638,0,1,1-53.596-53.60188A53.59587,53.59587,0,0,1,3065.59775,4179.43847Z" transform="translate(-2952.3069 -4122.81953)"/>
        <path id="path97" class="cls-31" d="M3065.55925,4179.40844a53.47625,53.47625,0,1,1-53.47587-53.48175A53.47625,53.47625,0,0,1,3065.55925,4179.40844Z" transform="translate(-2952.3069 -4122.81953)"/>
        <path id="path99" class="cls-32" d="M3065.52074,4179.37841a53.35651,53.35651,0,1,1-53.35574-53.36162A53.35662,53.35662,0,0,1,3065.52074,4179.37841Z" transform="translate(-2952.3069 -4122.81953)"/>
        <path id="path101" class="cls-33" d="M3065.48224,4179.34838a53.23638,53.23638,0,1,1-53.23561-53.24149A53.23568,53.23568,0,0,1,3065.48224,4179.34838Z" transform="translate(-2952.3069 -4122.81953)"/>
        <path id="path103" class="cls-34" d="M3065.44374,4179.31834a53.11664,53.11664,0,1,1-53.11548-53.12136A53.11606,53.11606,0,0,1,3065.44374,4179.31834Z" transform="translate(-2952.3069 -4122.81953)"/>
        <path id="path105" class="cls-35" d="M3065.40524,4179.28831a52.99651,52.99651,0,1,1-52.99535-53.00124A52.99643,52.99643,0,0,1,3065.40524,4179.28831Z" transform="translate(-2952.3069 -4122.81953)"/>
        <path id="path107" class="cls-36" d="M3065.36673,4179.25905a52.87676,52.87676,0,1,1-52.87522-52.88265A52.87533,52.87533,0,0,1,3065.36673,4179.25905Z" transform="translate(-2952.3069 -4122.81953)"/>
        <path id="path109" class="cls-37" d="M3065.32823,4179.229a52.75663,52.75663,0,1,1-52.75509-52.76252A52.7562,52.7562,0,0,1,3065.32823,4179.229Z" transform="translate(-2952.3069 -4122.81953)"/>
        <path id="path111" class="cls-38" d="M3065.28973,4179.199a52.63689,52.63689,0,1,1-52.635-52.64239A52.63657,52.63657,0,0,1,3065.28973,4179.199Z" transform="translate(-2952.3069 -4122.81953)"/>
        <path id="path113" class="cls-39" d="M3065.25122,4179.169a52.51676,52.51676,0,1,1-52.51484-52.52226A52.51694,52.51694,0,0,1,3065.25122,4179.169Z" transform="translate(-2952.3069 -4122.81953)"/>
        <path id="path115" class="cls-40" d="M3065.21272,4179.13892a52.397,52.397,0,1,1-52.39471-52.40214A52.396,52.396,0,0,1,3065.21272,4179.13892Z" transform="translate(-2952.3069 -4122.81953)"/>
        <path id="path117" class="cls-41" d="M3065.17422,4179.10889a52.27689,52.27689,0,1,1-52.27458-52.282A52.27638,52.27638,0,0,1,3065.17422,4179.10889Z" transform="translate(-2952.3069 -4122.81953)"/>
        <path id="path119" class="cls-42" d="M3065.09413,4179.06654a52.10825,52.10825,0,1,1-52.1067-52.11337A52.10746,52.10746,0,0,1,3065.09413,4179.06654Z" transform="translate(-2952.3069 -4122.81953)"/>
        <path id="path121" class="cls-43" d="M3065.014,4179.02573a51.9396,51.9396,0,1,1-51.93729-51.94549A51.93919,51.93919,0,0,1,3065.014,4179.02573Z" transform="translate(-2952.3069 -4122.81953)"/>
        <path id="path123" class="cls-44" d="M3064.934,4178.98414a51.77058,51.77058,0,1,1-51.76788-51.77685A51.76879,51.76879,0,0,1,3064.934,4178.98414Z" transform="translate(-2952.3069 -4122.81953)"/>
        <path id="path125" class="cls-45" d="M3064.85387,4178.941a51.60193,51.60193,0,1,1-51.6-51.60744A51.60283,51.60283,0,0,1,3064.85387,4178.941Z" transform="translate(-2952.3069 -4122.81953)"/>
        <path id="path127" class="cls-46" d="M3064.77379,4178.89944a51.43368,51.43368,0,1,1-51.43214-51.43957A51.43374,51.43374,0,0,1,3064.77379,4178.89944Z" transform="translate(-2952.3069 -4122.81953)"/>
        <path id="path129" class="cls-47" d="M3064.6937,4178.85785a51.26465,51.26465,0,1,1-51.26272-51.27093A51.26334,51.26334,0,0,1,3064.6937,4178.85785Z" transform="translate(-2952.3069 -4122.81953)"/>
        <path id="path131" class="cls-48" d="M3064.61516,4178.81627a51.09639,51.09639,0,1,1-51.09639-51.10228A51.09688,51.09688,0,0,1,3064.61516,4178.81627Z" transform="translate(-2952.3069 -4122.81953)"/>
        <path id="path133" class="cls-49" d="M3064.53507,4178.77469a50.92813,50.92813,0,1,1-50.927-50.93364A50.92747,50.92747,0,0,1,3064.53507,4178.77469Z" transform="translate(-2952.3069 -4122.81953)"/>
        <path id="path135" class="cls-49" d="M3064.45344,4178.73233a50.75872,50.75872,0,1,1-50.75757-50.76577A50.75773,50.75773,0,0,1,3064.45344,4178.73233Z" transform="translate(-2952.3069 -4122.81953)"/>
        <path id="path137" class="cls-50" d="M3064.3749,4178.69075a50.59046,50.59046,0,1,1-50.58969-50.59713A50.58946,50.58946,0,0,1,3064.3749,4178.69075Z" transform="translate(-2952.3069 -4122.81953)"/>
        <path id="path139" class="cls-51" d="M3064.29481,4178.64917a50.42182,50.42182,0,1,1-50.42182-50.42849A50.42087,50.42087,0,0,1,3064.29481,4178.64917Z" transform="translate(-2952.3069 -4122.81953)"/>
        <path id="path141" class="cls-52" d="M3064.21473,4178.60682a50.25318,50.25318,0,1,1-50.25241-50.25985A50.25162,50.25162,0,0,1,3064.21473,4178.60682Z" transform="translate(-2952.3069 -4122.81953)"/>
        <path id="path143" class="cls-53" d="M3064.13464,4178.56523a50.08415,50.08415,0,1,1-50.08454-50.0912A50.08385,50.08385,0,0,1,3064.13464,4178.56523Z" transform="translate(-2952.3069 -4122.81953)"/>
        <path id="path145" class="cls-54" d="M3064.05455,4178.52365a49.91551,49.91551,0,1,1-49.91512-49.92333A49.91443,49.91443,0,0,1,3064.05455,4178.52365Z" transform="translate(-2952.3069 -4122.81953)"/>
        <path id="path147" class="cls-55" d="M3063.976,4178.4813a49.74763,49.74763,0,1,1-49.74879-49.75392A49.74814,49.74814,0,0,1,3063.976,4178.4813Z" transform="translate(-2952.3069 -4122.81953)"/>
        <path id="path149" class="cls-56" d="M3063.89592,4178.43972a49.579,49.579,0,1,1-49.57938-49.58528A49.57823,49.57823,0,0,1,3063.89592,4178.43972Z" transform="translate(-2952.3069 -4122.81953)"/>
        <path id="path151" class="cls-57" d="M3063.81584,4178.39813a49.41,49.41,0,1,1-49.4115-49.41741A49.40914,49.40914,0,0,1,3063.81584,4178.39813Z" transform="translate(-2952.3069 -4122.81953)"/>
        <path id="path153" class="cls-58" d="M3063.73575,4178.35578a49.24132,49.24132,0,1,1-49.24209-49.24877A49.24121,49.24121,0,0,1,3063.73575,4178.35578Z" transform="translate(-2952.3069 -4122.81953)"/>
        <path id="path155" class="cls-59" d="M3063.65566,4178.3142a49.07268,49.07268,0,1,1-49.07422-49.08013A49.07212,49.07212,0,0,1,3063.65566,4178.3142Z" transform="translate(-2952.3069 -4122.81953)"/>
        <path id="path157" class="cls-60" d="M3063.55094,4178.25182a48.79892,48.79892,0,1,1-48.80008-48.80675A48.79853,48.79853,0,0,1,3063.55094,4178.25182Z" transform="translate(-2952.3069 -4122.81953)"/>
        <path id="path159" class="cls-61" d="M3063.44775,4178.18868a48.52671,48.52671,0,1,1-48.52748-48.53339A48.52543,48.52543,0,0,1,3063.44775,4178.18868Z" transform="translate(-2952.3069 -4122.81953)"/>
        <path id="path161" class="cls-62" d="M3063.343,4178.1263a48.253,48.253,0,1,1-48.25488-48.26A48.25315,48.25315,0,0,1,3063.343,4178.1263Z" transform="translate(-2952.3069 -4122.81953)"/>
        <path id="path163" class="cls-62" d="M3063.23983,4178.06393a47.98074,47.98074,0,1,1-47.98228-47.98742A47.98037,47.98037,0,0,1,3063.23983,4178.06393Z" transform="translate(-2952.3069 -4122.81953)"/>
        <path id="path165" class="cls-63" d="M3063.13511,4178.00078a47.707,47.707,0,1,1-47.70814-47.71328A47.70547,47.70547,0,0,1,3063.13511,4178.00078Z" transform="translate(-2952.3069 -4122.81953)"/>
        <path id="path167" class="cls-64" d="M3063.03038,4177.93841a47.43323,47.43323,0,1,1-47.43554-47.44068A47.434,47.434,0,0,1,3063.03038,4177.93841Z" transform="translate(-2952.3069 -4122.81953)"/>
        <path id="path169" class="cls-65" d="M3062.92719,4177.876a47.161,47.161,0,1,1-47.16294-47.16731A47.16173,47.16173,0,0,1,3062.92719,4177.876Z" transform="translate(-2952.3069 -4122.81953)"/>
        <path id="path171" class="cls-66" d="M3062.82246,4177.81366a46.88726,46.88726,0,1,1-46.8888-46.89394A46.88764,46.88764,0,0,1,3062.82246,4177.81366Z" transform="translate(-2952.3069 -4122.81953)"/>
        <path id="path173" class="cls-66" d="M3062.71773,4177.75129a46.61389,46.61389,0,1,1-46.61466-46.62057A46.61355,46.61355,0,0,1,3062.71773,4177.75129Z" transform="translate(-2952.3069 -4122.81953)"/>
        <path id="path175" class="cls-67" d="M3062.61455,4177.68814a46.34129,46.34129,0,1,1-46.34205-46.3472A46.34144,46.34144,0,0,1,3062.61455,4177.68814Z" transform="translate(-2952.3069 -4122.81953)"/>
        <path id="path177" class="cls-68" d="M3062.50982,4177.62577a46.06753,46.06753,0,1,1-46.06946-46.07384A46.069,46.069,0,0,1,3062.50982,4177.62577Z" transform="translate(-2952.3069 -4122.81953)"/>
        <path id="path179" class="cls-69" d="M3062.40663,4177.56339a45.79493,45.79493,0,1,1-45.79686-45.80124A45.79622,45.79622,0,0,1,3062.40663,4177.56339Z" transform="translate(-2952.3069 -4122.81953)"/>
        <path id="path181" class="cls-70" d="M3062.3019,4177.501a45.52156,45.52156,0,1,1-45.52271-45.52787A45.52312,45.52312,0,0,1,3062.3019,4177.501Z" transform="translate(-2952.3069 -4122.81953)"/>
        <path id="path183" class="cls-71" d="M3062.19718,4177.43865a45.2478,45.2478,0,1,1-45.24857-45.2545A45.249,45.249,0,0,1,3062.19718,4177.43865Z" transform="translate(-2952.3069 -4122.81953)"/>
        <path id="path185" class="cls-72" d="M3062.094,4177.3755a44.9752,44.9752,0,1,1-44.97751-44.98113A44.97725,44.97725,0,0,1,3062.094,4177.3755Z" transform="translate(-2952.3069 -4122.81953)"/>
        <path id="path187" class="cls-73" d="M3061.98926,4177.31313a44.70183,44.70183,0,1,1-44.70337-44.70776A44.70316,44.70316,0,0,1,3061.98926,4177.31313Z" transform="translate(-2952.3069 -4122.81953)"/>
        <path id="path189" class="cls-74" d="M3061.692,4177.20917a44.17357,44.17357,0,1,1-44.17511-44.18027A44.17487,44.17487,0,0,1,3061.692,4177.20917Z" transform="translate(-2952.3069 -4122.81953)"/>
        <path id="path191" class="cls-75" d="M3061.39324,4177.106a43.64454,43.64454,0,1,1-43.64531-43.652A43.64493,43.64493,0,0,1,3061.39324,4177.106Z" transform="translate(-2952.3069 -4122.81953)"/>
        <path id="path193" class="cls-76" d="M3061.096,4177.00126a43.11667,43.11667,0,1,1-43.11705-43.123A43.1173,43.1173,0,0,1,3061.096,4177.00126Z" transform="translate(-2952.3069 -4122.81953)"/>
        <path id="path195" class="cls-77" d="M3060.79875,4176.89807a42.58841,42.58841,0,1,1-42.5888-42.59551A42.59016,42.59016,0,0,1,3060.79875,4176.89807Z" transform="translate(-2952.3069 -4122.81953)"/>
        <path id="path197" class="cls-78" d="M3060.50151,4176.79488a42.05977,42.05977,0,1,1-42.06054-42.06725A42.06022,42.06022,0,0,1,3060.50151,4176.79488Z" transform="translate(-2952.3069 -4122.81953)"/>
        <path id="path199" class="cls-79" d="M3060.20273,4176.69015a41.53112,41.53112,0,1,1-41.53074-41.539A41.5321,41.5321,0,0,1,3060.20273,4176.69015Z" transform="translate(-2952.3069 -4122.81953)"/>
        <path id="path201" class="cls-80" d="M3059.90548,4176.587a41.00286,41.00286,0,1,1-41.00248-41.01073A41.00265,41.00265,0,0,1,3059.90548,4176.587Z" transform="translate(-2952.3069 -4122.81953)"/>
        <path id="path203" class="cls-81" d="M3059.60824,4176.483a40.4746,40.4746,0,1,1-40.47422-40.48248A40.47568,40.47568,0,0,1,3059.60824,4176.483Z" transform="translate(-2952.3069 -4122.81953)"/>
        <path id="path205" class="cls-81" d="M3059.311,4176.37905a39.94673,39.94673,0,1,1-39.946-39.95422A39.94689,39.94689,0,0,1,3059.311,4176.37905Z" transform="translate(-2952.3069 -4122.81953)"/>
        <path id="path207" class="cls-82" d="M3059.01222,4176.27586a39.4177,39.4177,0,1,1-39.41616-39.42673A39.41745,39.41745,0,0,1,3059.01222,4176.27586Z" transform="translate(-2952.3069 -4122.81953)"/>
        <path id="path209" class="cls-83" d="M3058.715,4176.17191a38.88944,38.88944,0,1,1-38.8879-38.89848A38.88916,38.88916,0,0,1,3058.715,4176.17191Z" transform="translate(-2952.3069 -4122.81953)"/>
        <path id="path211" class="cls-84" d="M3058.34535,4176.02406a38.1421,38.1421,0,1,1-38.14094-38.15076A38.14166,38.14166,0,0,1,3058.34535,4176.02406Z" transform="translate(-2952.3069 -4122.81953)"/>
        <path id="path213" class="cls-85" d="M3057.97418,4175.87467a37.394,37.394,0,1,1-37.394-37.40226A37.394,37.394,0,0,1,3057.97418,4175.87467Z" transform="translate(-2952.3069 -4122.81953)"/>
        <path id="path215" class="cls-86" d="M3057.60455,4175.726a36.64665,36.64665,0,1,1-36.647-36.65454A36.64667,36.64667,0,0,1,3057.60455,4175.726Z" transform="translate(-2952.3069 -4122.81953)"/>
        <path id="path217" class="cls-87" d="M3057.23493,4175.57743a35.89931,35.89931,0,1,1-35.90008-35.90605A35.89868,35.89868,0,0,1,3057.23493,4175.57743Z" transform="translate(-2952.3069 -4122.81953)"/>
        <path id="path219" class="cls-88" d="M3056.86376,4175.42881a35.1512,35.1512,0,1,1-35.15312-35.15833A35.15086,35.15086,0,0,1,3056.86376,4175.42881Z" transform="translate(-2952.3069 -4122.81953)"/>
        <path id="path221" class="cls-88" d="M3056.49413,4175.28018a34.40386,34.40386,0,1,1-34.40616-34.41061A34.40353,34.40353,0,0,1,3056.49413,4175.28018Z" transform="translate(-2952.3069 -4122.81953)"/>
        <path id="path223" class="cls-89" d="M3055.989,4175.167a33.7031,33.7031,0,1,1-33.70541-33.70909A33.70336,33.70336,0,0,1,3055.989,4175.167Z" transform="translate(-2952.3069 -4122.81953)"/>
        <path id="path225" class="cls-90" d="M3055.48382,4175.05456a33.002,33.002,0,1,1-33.00312-33.00834A33.00269,33.00269,0,0,1,3055.48382,4175.05456Z" transform="translate(-2952.3069 -4122.81953)"/>
        <path id="path227" class="cls-90" d="M3054.97866,4174.94213a32.30083,32.30083,0,1,1-32.30083-32.30759A32.302,32.302,0,0,1,3054.97866,4174.94213Z" transform="translate(-2952.3069 -4122.81953)"/>
        <path id="path229" class="cls-91" d="M3054.4735,4174.82893a31.60008,31.60008,0,1,1-31.60008-31.60607A31.60186,31.60186,0,0,1,3054.4735,4174.82893Z" transform="translate(-2952.3069 -4122.81953)"/>
      </g>
    </g>
    <g id="g5">
      <path id="path7" d="M3043.79434,4295.819l-6.80423-7.03213a0.56882,0.56882,0,0,1-.09857-0.76081c0.01232-.01539,5.19327-8.73857,5.19327-8.73857a1.15368,1.15368,0,0,0,.12783-0.499,1.00664,1.00664,0,0,0-1.0057-1.00415H3037.409a1.03489,1.03489,0,0,0-.90559.52056l-3.28969,5.67991a0.513,0.513,0,0,1-.71769.114l-5.31186-5.46122a0.50142,0.50142,0,0,1,.04312-0.70537l0.0693-.0616c3.00168-1.74648,6.42228-4.31538,6.42228-8.83713,0-5.1994-3.7317-8.68928-9.28227-8.68928-5.43661,0-9.56873,3.64081-9.56873,9.07431,0,2.39025.998,4.77433,3.05867,7.28471l0.0462,0.05544a0.49614,0.49614,0,0,1,.10627.36655,0.55529,0.55529,0,0,1-.19713.35422c-4.52178,2.572-6.80731,5.97562-6.80731,10.14314,0,7.066,5.91558,10.76843,11.75878,10.76843,4.01354,0,7.14459-1.54012,10.1586-4.9992,0.01232-.01539.06006-0.077,0.06006-0.077a0.51567,0.51567,0,0,1,.71461.02771l3.65469,3.78561c0.00308,0.00615.097,0.09857,0.097,0.09857a1.02172,1.02172,0,0,0,.71769.29261h4.82826a1.00336,1.00336,0,0,0,1.00878-1.00415,1.014,1.014,0,0,0-.27876-0.69613h0Zm-19.26684-30.2323a3.30854,3.30854,0,0,1,3.51146,3.49912c0,2.24856-2.00677,3.55149-4.42629,4.9037l-0.12167.05236a0.48337,0.48337,0,0,1-.5837-0.09549c-0.00924-.00924-0.0616-0.05544-0.0616-0.05544-1.04882-1.15508-2.28861-2.97857-2.28861-4.30922A3.85948,3.85948,0,0,1,3024.52751,4265.58666Zm4.87908,24.001-0.02156.02771c-1.75111,2.08839-3.684,3.48372-6.487,3.48372a5.64611,5.64611,0,0,1-5.9356-5.4489c0-2.70442,1.15663-4.30614,4.57876-6.373a0.54823,0.54823,0,0,1,.67611.05237l7.13535,7.47875a0.51666,0.51666,0,0,1,.191.38505v0.01539A0.58457,0.58457,0,0,1,3029.40659,4289.5877Z" transform="translate(-2952.3069 -4122.81953)"/>
      <path id="path9" d="M3006.57131,4293.03136l-0.21408.00617c-5.46587,0-8.235-2.90157-8.235-8.603V4267.6196a0.53381,0.53381,0,0,1,.5375-0.52672h8.56a1.02708,1.02708,0,0,0,1.0211-1.01955v-3.7363a1.02307,1.02307,0,0,0-1.0211-1.01955h-8.53532a0.55772,0.55772,0,0,1-.56214-0.55444v-7.72518a1.01377,1.01377,0,0,0-.97335-1.05035h-0.117l-4.37855.345a1.01,1.01,0,0,0-1.00262,1.01339v7.44488a0.52881,0.52881,0,0,1-.53288.52672h-5.37808a1.01419,1.01419,0,0,0-1.018,1.01339l-0.00924,3.75786a0.98053,0.98053,0,0,0,.32034.71153,1.0498,1.0498,0,0,0,.72847.29262h5.3596a0.52817,0.52817,0,0,1,.53442.52672l-0.00462,17.93916c0,9.62875,7.2524,13.06935,13.60846,13.06935,0,0,.75312.01232,1.3322-0.0462a1.03672,1.03672,0,0,0,1.00416-1.01954v-3.52378A1.01726,1.01726,0,0,0,3006.57131,4293.03136Z" transform="translate(-2952.3069 -4122.81953)"/>
      <path id="path11" d="M2982.05884,4296.06845a9.84018,9.84018,0,0,1-.47128-2.52578c-0.01848-.34808-0.03234-1.76188-0.03234-1.76188v-17.76667c0-9.38541-6.63636-12.72128-12.84764-12.72128a22.92156,22.92156,0,0,0-12.29166,3.20958,1.06489,1.06489,0,0,0-.45279.64684,0.97286,0.97286,0,0,0,.14631.74233c0.01848,0.037,2.28861,3.09562,2.28861,3.09562a1.00236,1.00236,0,0,0,1.39534.22486l0.30956-.20637a14.57078,14.57078,0,0,1,7.63281-2.21159c7.66823,0,7.44337,6.00334,7.44337,6.78571a0.43749,0.43749,0,0,1-.52672.48667l-1.18281-.02464c-5.95254-.2187-21.03643,1.80808-21.03643,13.76855,0,7.029,5.85552,10.60824,11.3183,10.60824,5.29491,0,9.55333-2.10069,11.67869-4.66959l0.02156-.02772a0.13605,0.13605,0,0,1,.24334.08009,15.59814,15.59814,0,0,0,.07239,1.72184,6.46933,6.46933,0,0,0,.22178,1.33065,1.12626,1.12626,0,0,0,.536.69613,1.03755,1.03755,0,0,0,.42507.1109l4.24918,0.00307a0.99245,0.99245,0,0,0,1.00261-.97643A3.334,3.334,0,0,0,2982.05884,4296.06845Zm-6.604-13.91641c-0.86708,6.12963-3.88571,9.675-9.464,10.58979-3.92575.64375-7.48034-.97028-7.67131-5.17476-0.211-4.61725,5.15014-8.49524,15.0577-8.07017,0,0,.73.0462,1.21669,0.10165a1.07206,1.07206,0,0,1,.87017.44355C2975.62116,4280.28544,2975.64888,4280.77211,2975.45483,4282.152Z" transform="translate(-2952.3069 -4122.81953)"/>
      <path id="path13" d="M3064.21781,4293.03136c-0.00616,0-.2187.00617-0.2187,0.00617-5.46279,0-8.235-2.90157-8.235-8.603V4267.6196a0.53512,0.53512,0,0,1,.53442-0.52672h8.55842a1.02905,1.02905,0,0,0,1.03034-1.01955v-3.7363a1.02507,1.02507,0,0,0-1.03034-1.01955h-8.52762a0.55745,0.55745,0,0,1-.56522-0.55444v-7.72518a1.01221,1.01221,0,0,0-.97643-1.05035h-0.11551l-4.37855.345a1.00935,1.00935,0,0,0-.99953,1.01339v7.44488a0.5312,0.5312,0,0,1-.539.52672h-5.37192a1.01127,1.01127,0,0,0-1.018,1.01339l-0.00924,3.75786a0.99094,0.99094,0,0,0,.3188.71153,1.04185,1.04185,0,0,0,.73309.29262h5.35652a0.52977,0.52977,0,0,1,.53288.52672v17.93916c0,9.62875,7.2447,13.06935,13.60538,13.06935,0,0,.75312.01232,1.33066-0.0462a1.03126,1.03126,0,0,0,.998-1.01954l0.00616-3.52378A1.01623,1.01623,0,0,0,3064.21781,4293.03136Z" transform="translate(-2952.3069 -4122.81953)"/>
    </g>
    <path id="path21" class="cls-92" d="M2956.955,4161.38688a13.63416,13.63416,0,0,1,1.00569-5.65835,57.62514,57.62514,0,0,1,3.7163-6.53159,3.9742,3.9742,0,0,0-.56368,2.06836c0,5.28411,12.93388,12.14528,30.58514,14.3923,5.98027,0.76389,21.81419,2.92312,34.0735,1.91281,24.74349-2.04218,30.24786-10.68372,30.24786-16.30511a11.22052,11.22052,0,0,0-1.66641-5.08389c1.1212,1.48774,2.1808,3.03247,3.16032,4.628,1.89126,3.29737,1.65408,4.60646,1.65408,5.17784,0,11.4738-21.35523,18.96334-35.64442,22.86751C2986.86554,4188.86393,2956.955,4175.2232,2956.955,4161.38688Zm11.69563-16.08179c0,5.17322,7.53116,13.44667,29.34689,13.44667a97.708,97.708,0,0,0,31.25817-5.127c12.6351-4.19833,18.891-9.33151,18.66619-13.15405a3.89708,3.89708,0,0,0-.97027-2.32248,57.36855,57.36855,0,0,0-9.12364-6.6702c2.15616,1.25827,3.37593,2.71829,3.37593,4.34464,0,5.69994-13.91956,10.92244-32.10369,11.38909-18.1826.46819-33.248-4.00582-33.65459-9.69343-0.13553-1.87893,1.22285-3.73322,3.79484-5.375a56.44557,56.44557,0,0,0-5.6399,3.9858C2968.54125,4140.32746,2968.6506,4144.75989,2968.6506,4145.30509Zm47.33543,66.80213c-11.07189.395-30.56512-3.419-42.83984-8.43362-9.88138-4.03816-19.658-11.89271-20.70684-19.38687q0.17788,2.70751.60835,5.33493c6.05881,33.03914,47.67425,31.151,54.845,30.35628,52.347-5.8062,56.85334-28.157,57.54023-32.57095,0.11089-.921.20329-1.845,0.27106-2.77835C3064.77995,4190.51184,3055.93045,4210.678,3015.986,4212.10722Zm-39.80427,7.535c-9.3947-3.88415-15.894-10.341-18.506-15.05685a56.99244,56.99244,0,0,0,9.28381,13.93258c12.23929,11.49844,31.05642,12.8907,39.69492,12.8907,36.58851,0,49.65484-19.22977,52.60878-24.3745,0.54828-1.02879,1.06268-2.0853,1.54936-3.15414C3055.02178,4215.80733,3024.98954,4239.80835,2976.18176,4219.64219Zm88.60743-48.05364a22.25927,22.25927,0,0,0-.539-4.60492c-0.30494-1.26443-.65917-2.50729-1.04728-3.7363a13.79007,13.79007,0,0,1,.576,4.54794c0,2.81686-3.49914,20.03987-37.89607,23.16937-2.9755.268-24.82819,0.6068-43.82859-4.19833-12.63818-3.19726-25.32873-9.37771-27.72361-17.95765a7.05336,7.05336,0,0,1,.08625-3.73476h0a56.68865,56.68865,0,0,0-1.91436,10.67294c0.22024,9.03581,8.064,19.57014,22.44255,24.10421,16.41608,5.1686,26.49768,5.33493,50.37408.01848C3065.165,4190.9862,3064.78919,4173.5337,3064.78919,4171.58855Z" transform="translate(-2952.3069 -4122.81953)"/>
    <path id="path23" class="cls-93" d="M3023.52335,4178.85477q1.45079-.39735,2.9909-0.844a66.48611,66.48611,0,0,0-13.9288-1.4554,62.803,62.803,0,0,0-25.02533,4.99765A90.3235,90.3235,0,0,0,3023.52335,4178.85477Zm-4.69735-22.34849a102.602,102.602,0,0,0,10.42966-2.88154c1.688-.5606,3.2558-1.13814,4.71583-1.72646-4.33388-.7947-8.19033-1.29523-10.79-1.53241-9.8937-.901-24.62182,1.90973-28.44284,2.69981a105.08859,105.08859,0,0,0-13.10638,3.64081,44.05427,44.05427,0,0,0,5.10548,1.172,67.07754,67.07754,0,0,1,17.90384-2.60894A97.24208,97.24208,0,0,1,3018.826,4156.50628Zm1.13353,34.58772c-3.61-.01848-8.51992-0.16633-14.05355-0.6068-9.81361,1.14892-18.15025,5.5259-22.89535,11.597,1.57092,0.36346,3.11257.66841,4.645,0.9179,5.00383-5.4951,13.46214-9.10511,23.05706-9.10511A33.765,33.765,0,0,1,3029,4198.99475q2.86-.72077,5.41812-1.497A35.87,35.87,0,0,0,3019.95953,4191.094Zm32.20072-24.2228a18.39148,18.39148,0,0,0,6.17894-7.029,36.203,36.203,0,0,0-4.6111-2.37023c-1.66948,2.13613-4.39857,4.25532-8.66469,6.02952A66.34509,66.34509,0,0,1,3052.16025,4166.8712Zm-12.57042,6.67944a71.93352,71.93352,0,0,0,8.53224-4.07358,53.05143,53.05143,0,0,0-9.55179-3.88415,81.45693,81.45693,0,0,1-12.79836,1.9775c-1.49391.12321-3.03711,0.19867-4.61418,0.23718a79.68212,79.68212,0,0,1,10.05387,2.62434C3034.28875,4171.4484,3037.06712,4172.49105,3039.58983,4173.55065Zm6.70258,12.87991a57.999,57.999,0,0,1-8.72013,2.71059,36.36757,36.36757,0,0,1,6.4192,4.88214,60.35958,60.35958,0,0,0,7.06913-3.59461A39.02153,39.02153,0,0,0,3046.29241,4186.43056Zm-74.19041-25.77985a49.65474,49.65474,0,0,0-12.27164,8.17951,19.64153,19.64153,0,0,0,1.80039,1.99444,57.73084,57.73084,0,0,1,13.94266-8.84329Q2973.74145,4161.34376,2972.102,4160.65071Zm14.13979,27.08586c-1.40612-.29878-2.80609-0.6222-4.18757-0.97027q-1.32142-.33728-2.63976-0.71153a34.12719,34.12719,0,0,0-10.62525,11.31054,40.84745,40.84745,0,0,0,4.64191,1.97442,25.7897,25.7897,0,0,1,5.45047-6.68714A35.20509,35.20509,0,0,1,2986.24179,4187.73657Zm-15.89861,23.27718a23.55506,23.55506,0,0,1,1.38456-7.947c-1.53087-.68381-3.04789-1.45078-4.5187-2.29168a23.02331,23.02331,0,0,0-1.50161,8.14717c0,0.55444.02464,1.1058,0.06776,1.651a38.64467,38.64467,0,0,0,4.73585,3.02862A20.34621,20.34621,0,0,1,2970.34319,4211.01374Zm30.85928-44.218c-4.01046-.41891-7.37869-0.86554-9.504-1.13814q-2.06991-.26336-4.04742-0.6068a58.13219,58.13219,0,0,0-19.57794,10.42806q1.59864,0.88248,3.39287,1.67718C2979.08488,4171.61473,2989.49451,4167.83069,3001.20247,4166.79574Zm-15.93711,56.17q-2.34714-.74849-4.762-1.63559a22.78883,22.78883,0,0,0,5.76465,7.45412c2.08686,0.576,4.15523,1.03187,6.15276,1.38918A22.484,22.484,0,0,1,2985.26536,4222.96574Zm78.18085-58.92218c-0.05853-.19405-0.12013-0.385-0.17865-0.57754,0.04312,0.15555.08317,0.30494,0.117,0.45279C3063.40617,4163.9604,3063.42773,4164.002,3063.44621,4164.04357ZM2960.026,4191.18641a29.26684,29.26684,0,0,1,6.74108-10.03688c-1.0134-.52672-1.98983-1.07653-2.92006-1.64945a31.547,31.547,0,0,0-6.02647,9.28068A29.06509,29.06509,0,0,0,2960.026,4191.18641Zm94.3613-9.13283a30.65671,30.65671,0,0,1,3.44986,3.32663,26.98944,26.98944,0,0,0,3.40673-3.83795,27.62776,27.62776,0,0,0-2.3841-3.45446A27.96644,27.96644,0,0,1,3054.38725,4182.05358Zm-88.07455,31.93026a25.37684,25.37684,0,0,0,2.27937,5.97561,40.49932,40.49932,0,0,0,6.4269,4.34926,24.14945,24.14945,0,0,1-3.68088-7.02289A43.636,43.636,0,0,1,2966.31271,4213.98384Zm66.10943,13.54062a58.99845,58.99845,0,0,0,7.30939-3.01553,20.23717,20.23717,0,0,0,2.1192-3.74862,60.01644,60.01644,0,0,1-5.914,2.56274A20.66239,20.66239,0,0,1,3032.42214,4227.52446Zm5.07622-18.56214a15.98736,15.98736,0,0,1,.97643,4.2453c1.65716-.6222,3.2096-1.26982,4.67271-1.93206a17.853,17.853,0,0,0-.998-3.83179C3040.68639,4207.98589,3039.14012,4208.49413,3037.49835,4208.96232Zm10.10623-66.74669a46.84751,46.84751,0,0,0-9.16984-2.02678c-4.0505,3.09869-12.22235,5.61061-22.39943,6.6009a174.139,174.139,0,0,1,21.63245,3.4791C3043.29227,4147.55364,3046.61275,4144.70907,3047.60459,4142.21563Zm-71.6677-3.131a68.68344,68.68344,0,0,0-6.79807,3.265,9.56514,9.56514,0,0,0-.4759,2.42875,90.51558,90.51558,0,0,1,8.84026-3.89955A6.67744,6.67744,0,0,1,2975.93688,4139.0846Zm-19.64262,33.74528a20.95925,20.95925,0,0,0-3.27736,6.6625,19.92648,19.92648,0,0,0,.67611,2.21775,22.99876,22.99876,0,0,1,4.13367-7.00286A17.70316,17.70316,0,0,1,2956.29426,4172.82988Zm2.13922,26.7378a22.69866,22.69866,0,0,1,.51132-4.78049,31.70159,31.70159,0,0,1-2.28553-2.3502,20.18145,20.18145,0,0,0-.385,6.92432,31.58276,31.58276,0,0,0,2.495,4.10592A23.11879,23.11879,0,0,1,2958.43348,4199.56767Zm14.303-47.26434a70.7027,70.7027,0,0,1,22.00208-5.78926,63.4571,63.4571,0,0,1-8.12257-1.56013,101.43831,101.43831,0,0,0-15.67221,5.62447A14.48572,14.48572,0,0,0,2972.73653,4152.30333Zm85.37473,48.88145a25.0302,25.0302,0,0,0-1.05344-2.51037,40.02382,40.02382,0,0,1-6.59477,4.8421,21.62617,21.62617,0,0,1,.94871,3.2065A40.81626,40.81626,0,0,0,3058.11125,4201.18478Zm6.12042-12.0344a27.59908,27.59908,0,0,1-2.12536,3.73938,16.48362,16.48362,0,0,1,.48976,2.39641,24.20555,24.20555,0,0,0,1.96827-4.33078C3064.48117,4190.39171,3064.37028,4189.788,3064.23167,4189.15039Zm0.04312-22.05125c-0.12937-.539-0.2649-1.07653-0.41275-1.611-0.077-.18789-0.16941-0.37425-0.2649-0.55752a12.7959,12.7959,0,0,1-1.90666,9.26682,19.2154,19.2154,0,0,1,2.04527,2.83072,14.318,14.318,0,0,0,1.05344-5.43966A22.31387,22.31387,0,0,0,3064.27479,4167.09914Zm-81.38891,47.48842a16.00748,16.00748,0,0,1,1.68951-7.11606c-1.40766-.385-2.78761-0.78853-4.129-1.20436a17.84591,17.84591,0,0,0-1.6587,7.47645,17.34565,17.34565,0,0,0,.34807,3.46216c1.403,0.44047,2.81225.82242,4.21221,1.14892A15.57644,15.57644,0,0,1,2982.88588,4214.58756Zm68.66756-.00308a21.456,21.456,0,0,1-.576,2.41181,40.41189,40.41189,0,0,0,8.27042-9.94062c0.04312-.07085.08009-0.14477,0.117-0.21562-0.01232-.13553-0.02772-0.27414-0.04312-0.41275A38.67481,38.67481,0,0,1,3051.55344,4214.58448Zm-10.42658-79.45642a26.66711,26.66711,0,0,1,6.16046,3.46216,2.77109,2.77109,0,0,0-.31418-0.41429,56.21748,56.21748,0,0,0-5.79083-4.56026q-0.7716-.48051-1.6202-0.901A4.64521,4.64521,0,0,1,3041.12686,4135.12806ZM2961.64,4149.26162c-0.15863.24334-.32034,0.48667-0.47744,0.73155,0.08317-.10319.17557-0.20945,0.26952-0.31572A4.36165,4.36165,0,0,1,2961.64,4149.26162Zm93.01524,6.83961a30.29321,30.29321,0,0,1,4.11827,2.5535,9.1462,9.1462,0,0,0,.39427-2.66746c0-.56214.231-1.84813-1.58632-5.05771q-1.46465-2.40488-3.15416-4.648c-0.0154-.0154-0.02772-0.0308-0.04312-0.0462a11.19382,11.19382,0,0,1,1.6356,5.03A9.60631,9.60631,0,0,1,3054.65523,4156.10124Zm-89.79178.55136a15.45983,15.45983,0,0,1-1.84814-1.62173,28.39868,28.39868,0,0,0-6.04187,5.4181c-0.01232.30186-.01848,0.613-0.01848,0.93793a9.75984,9.75984,0,0,0,.174,1.81579A40.758,40.758,0,0,1,2964.86346,4156.65259Zm-7.16,47.97895a56.935,56.935,0,0,0,4.60032,8.00009,26.51312,26.51312,0,0,1-2.33019-4.70118A23.46226,23.46226,0,0,1,2957.70346,4204.63154Zm-3.31587-39.4406q-0.53134,1.9105-.93485,3.87337a9.41221,9.41221,0,0,1,.66687-1.63867A8.16206,8.16206,0,0,1,2954.3876,4165.19095Zm-1.58016,20.74986a11.04854,11.04854,0,0,1-.36809-1.64483c0.09395,1.3861.2341,2.763,0.42507,4.12133A14.02449,14.02449,0,0,1,2952.80744,4185.94081Z" transform="translate(-2952.3069 -4122.81953)"/>
  </g>
</svg>
