<svg id="LOGOS" xmlns="http://www.w3.org/2000/svg" xmlns:xlink="http://www.w3.org/1999/xlink" viewBox="0 0 423.1631 115.0162">
  <defs>
    <style>
      .cls-1 {
        fill: url(#linear-gradient);
      }

      .cls-2 {
        fill: url(#linear-gradient-2);
      }

      .cls-3 {
        fill: url(#linear-gradient-3);
      }

      .cls-4 {
        fill: #c1bfbe;
      }

      .cls-5 {
        fill: #484749;
      }
    </style>
    <linearGradient id="linear-gradient" x1="-659.64647" y1="-470.60869" x2="-694.96467" y2="-470.8499" gradientTransform="matrix(-0.9771, -0.323, 0.2901, -0.8773, -498.52389, -568.5146)" gradientUnits="userSpaceOnUse">
      <stop offset="0.23077" stop-color="#999875"/>
      <stop offset="0.56263" stop-color="#9b9977"/>
      <stop offset="0.68218" stop-color="#a09f7e"/>
      <stop offset="0.7674" stop-color="#a9a889"/>
      <stop offset="0.83633" stop-color="#b7b69a"/>
      <stop offset="0.89534" stop-color="#c9c7b0"/>
      <stop offset="0.94759" stop-color="#dfddcc"/>
      <stop offset="0.99371" stop-color="#f8f6eb"/>
      <stop offset="1" stop-color="#fcfaf0"/>
    </linearGradient>
    <linearGradient id="linear-gradient-2" x1="-654.20709" y1="-408.79608" x2="-705.0183" y2="-496.80368" gradientTransform="matrix(-0.9771, -0.323, 0.2901, -0.8773, -498.52389, -568.5146)" gradientUnits="userSpaceOnUse">
      <stop offset="0" stop-color="#49a547"/>
      <stop offset="1" stop-color="#409143"/>
    </linearGradient>
    <linearGradient id="linear-gradient-3" x1="-649.55221" y1="-472.06138" x2="-685.56834" y2="-447.8694" gradientTransform="matrix(-0.9771, -0.323, 0.2901, -0.8773, -498.52389, -568.5146)" gradientUnits="userSpaceOnUse">
      <stop offset="0" stop-color="#42a347"/>
      <stop offset="0.35923" stop-color="#4ca84a"/>
      <stop offset="0.9744" stop-color="#68b554"/>
      <stop offset="1" stop-color="#69b654"/>
    </linearGradient>
  </defs>
  <title>mongodb</title>
  <g>
    <g>
      <path class="cls-1" d="M29.3116,112.1483l-2.9961-.9921s0.3818-15.1636-5.0867-16.2251c-3.6064-4.1786.5547-178.4896,13.6558-.5976,0,0-4.4842,2.2518-5.3329,6.075C28.7032,104.2345,29.3116,112.1483,29.3116,112.1483Z"/>
      <path class="cls-2" d="M30.9267,97.5052s26.0344-17.1469,19.935-52.7576C44.9878,18.8758,31.1201,10.3712,29.6298,7.1238A39.06509,39.06509,0,0,1,26.337.7534l1.1074,72.0857S25.1535,94.8501,30.9267,97.5052Z"/>
      <path class="cls-3" d="M24.7912,98.4633S0.3701,81.8036,1.7753,52.409C3.1806,23.0139,20.429,8.5612,23.7883,5.9392,25.9601,3.6234,26.05,2.7313,26.2179.4477c1.5224,3.2694,1.2695,48.8423,1.4306,54.1687C28.2745,75.3517,26.5001,94.5493,24.7912,98.4633Z"/>
      <path class="cls-4" d="M303.46,43.8094c1.3975,0,6.7113.2436,9.1802,0.2436,4.6059,0,7.8131-.2436,16.4488-0.2436,7.2393,0,13.3268,1.9498,17.6858,5.6859,5.2648,4.5496,8.0607,10.8855,8.0607,18.6025,0,10.9667-5.017,17.3027-10.0341,20.8773-5.0181,3.7361-11.5169,5.8485-20.8108,5.8485-4.9357,0-13.4089-.1626-20.4826-0.2428h-0.097c-0.3281-.6509.6062-3.184,1.185-3.2498a10.617,10.617,0,0,0,3.318-.6557c1.4925-.6141,1.846-1.3753,2.0115-4.0563,0.2458-5.0359.1645-11.0469,0.1645-17.8712,0-4.8736.0813-14.378-.0832-17.3839-0.2468-2.518-1.3142-3.1675-3.4541-3.6555a45.92016,45.92016,0,0,0-4.6058-.731C301.7824,46.4904,303.0486,44.2963,303.46,43.8094Zm16.4175,45.1657c1.7274,1.3811,5.1816,1.9498,8.2263,1.9498a16.035,16.035,0,0,0,11.5973-4.1424c3.8653-3.4945,6.4977-8.8553,6.4977-17.3848,0-8.2045-3.1259-14.8658-9.5405-18.765-3.6206-2.2743-8.3077-3.1675-13.6548-3.1675a11.34953,11.34953,0,0,0-4.031.4869,2.13347,2.13347,0,0,0-.7404,1.1381c-0.1645,1.4617-.1645,12.5905-0.1645,19.1701,0,6.7421,0,16.1652.1645,17.3036A4.99031,4.99031,0,0,0,319.8775,88.9751Z"/>
      <path class="cls-4" d="M361.7629,43.8094c0.7404,0,2.9302.2436,8.5222,0.2436,5.2649,0,9.5406-.1618,14.641-0.1618,6.3332,0,15.0522,2.2742,15.0522,11.6973,0,4.6298-3.2895,8.3669-7.5663,10.1542-0.2476.0814-.2476,0.2438,0,0.325,6.0866,1.5427,11.4327,5.2798,11.4327,12.4282,0,6.9858-4.3589,11.3728-10.6923,14.135-3.8664,1.7052-8.6367,2.2738-13.4913,2.2738-3.7007,0-13.6194-.4061-19.1312-0.3239-0.5767-.2447.5279-2.8445,1.0196-3.2498a15.44406,15.44406,0,0,0,3.7313-.5822c1.9732-.4874,2.2073-1.1238,2.4541-4.0485,0.1656-2.5175.1656-11.5344,0.1656-17.9525,0-8.7732.0812-14.7029,0-17.6271-0.0833-2.2748-.906-3.006-2.469-3.4123-1.2329-.2432-3.2886-0.4873-4.9339-0.731C360.0854,46.5712,361.3517,44.1344,361.7629,43.8094Zm33.5275,36.4738c0-7.1484-5.264-11.2095-14.8888-11.2095a37.26363,37.26363,0,0,0-4.1944.0812,0.643,0.643,0,0,0-.4926.4053c0,5.1183-.0834,13.3227.1634,16.5713,0.1646,1.3812,1.1527,3.331,2.3857,3.8996,1.3171,0.7313,4.2767.8938,6.3333,0.8938C390.2731,90.9249,395.2904,87.7565,395.2904,80.2832Zm-18.6721-32.493a1.75116,1.75116,0,0,0-.7403,1.3c-0.0812,2.9236-.1634,10.5595-0.1634,15.8392a0.52379,0.52379,0,0,0,.4112.4062c1.0694,0.0822,3.6999.1634,5.921,0.1634,3.1261,0,4.9368-.4071,5.9231-0.8946,2.6324-1.2988,3.8653-4.1424,3.8653-7.2291,0-7.0671-4.9349-9.7481-12.2544-9.7481A21.91176,21.91176,0,0,0,376.6183,47.7902Z"/>
      <path class="cls-5" d="M67.4991,94.7879a3.52123,3.52123,0,0,1-.2517-1.6423,2.08047,2.08047,0,0,1,.2507-1.0948,27.22672,27.22672,0,0,0,3.1574-.6431c1.4542-.3609,2.0026-1.1462,2.0879-3.0061,0.2389-4.3812.2527-12.5963,0.1654-18.3742l0.001-.1702a2.29468,2.29468,0,0,0-.7619-2.0649,16.47678,16.47678,0,0,0-4.3628-1.913,1.16286,1.16286,0,0,1-1.0489-.9895,1.45507,1.45507,0,0,1,1.3514-1.0977,52.09563,52.09563,0,0,0,11.0772-2.8628,1.61482,1.61482,0,0,1,.33,1.1674c-0.0185.2563-.0411,0.5242-0.0636,0.8018-0.0696.8163-.1479,1.7419-0.1479,2.6646a0.60288,0.60288,0,0,0,.6072.529,0.5963,0.5963,0,0,0,.4251-0.1799c4.6703-3.6549,8.8473-4.9597,10.9977-4.9597,3.5335,0,6.2834,1.6868,8.4086,5.1541a0.57422,0.57422,0,0,0,.4789.2805,0.54078,0.54078,0,0,0,.4455-0.2389c4.2945-3.2535,8.5506-5.1957,11.3956-5.1957,6.7338,0,10.756,5.0351,10.756,13.4659,0,2.4227-.0245,5.4935-0.046,8.3601-0.0206,2.5148-.0382,4.8726-0.0382,6.5042a2.22766,2.22766,0,0,0,1.3278,1.7119,17.21262,17.21262,0,0,0,4.2033,1.0331l0.0696,0.0115a6.21948,6.21948,0,0,1-.4231,2.7477c-0.4455-.0038-1.0636-0.0357-1.8323-0.0745-1.3985-.0716-3.314-0.1682-5.545-0.1682-4.4745,0-6.8122.088-9.0451,0.2321a6.74945,6.74945,0,0,1-.0224-2.7322,24.09886,24.09886,0,0,0,2.7284-.6393c1.4239-.4692,1.8343-1.1142,1.9175-3.0032,0.0323-1.3443.2909-13.1679-.1675-15.9755a7.15086,7.15086,0,0,0-7.4194-6.3147,13.07383,13.07383,0,0,0-7.4018,2.8174,1.09353,1.09353,0,0,0-.2683.6973l0.0049,0.0542a30.225,30.225,0,0,1,.3231,5.9568c0,1.5241-.0097,3.1413-0.0184,4.7467-0.0188,3.2595-.0364,6.3379.0184,8.663a2.18363,2.18363,0,0,0,1.7316,2.269c0.4191,0.0929.7521,0.1731,1.0849,0.2524,0.6465,0.1557,1.3154.3162,2.3056,0.4749a4.38274,4.38274,0,0,1-.0383,2.0436,1.5915,1.5915,0,0,1-.286.6984c-2.4884-.0852-5.0416-0.1597-8.7248-0.1597-1.1164,0-2.94.0483-4.548,0.0909-1.3035.0349-2.5384,0.0688-3.2397,0.0716a3.21357,3.21357,0,0,1-.2438-1.4159,2.47433,2.47433,0,0,1,.2566-1.324c0.3457-.0639.6748-0.122,0.9891-0.178,0.8638-.1538,1.61-0.2853,2.3259-0.4613,1.2193-.3714,1.6767-1.0485,1.7657-2.5969,0.238-3.6153.4241-14.0288-.0882-16.6372-0.8714-4.1849-3.2572-6.3059-7.0882-6.3059a13.329,13.329,0,0,0-7.3999,2.8154,2.2415,2.2415,0,0,0-.6826,1.6722c0,1.2399-.0039,2.7167-0.0088,4.3-0.0157,5.2304-.0343,11.7404.0931,14.5578a2.3077,2.3077,0,0,0,2.0144,2.2768c0.3564,0.0996.9744,0.2031,1.6903,0.321,0.4123,0.0687.8629,0.1432,1.3261,0.2264a5.81411,5.81411,0,0,1-.2204,2.7496c-0.7148-.0048-1.5943-0.0455-2.6031-0.0899-1.5414-.0677-3.458-0.1538-5.6428-0.1538-2.5708,0-4.361.0861-5.7986,0.1538-0.9638.0455-1.8002,0.086-2.6344,0.0899h0Z"/>
      <path class="cls-5" d="M150.4184,95.5191c-12.3581,0-16.7612-9.0547-16.7612-17.527a15.656,15.656,0,0,1,7.204-13.7531,21.96431,21.96431,0,0,1,11.1194-3.2865c9.4309,0,16.0188,6.7731,16.0188,16.4719,0,6.5941-2.6324,11.7983-7.6114,15.0509a21.50765,21.50765,0,0,1-9.9696,3.0438h0Zm-1.3172-31.1128a7.01977,7.01977,0,0,0-3.9349,1.1036c-2.8567,1.735-4.3101,5.1994-4.3101,10.2887,0,9.5304,4.7773,16.1855,11.6168,16.1855a7.31479,7.31479,0,0,0,5.0299-1.7719c2.1017-1.7128,3.2161-5.2111,3.2161-10.1089,0-9.3891-4.6694-15.697-11.6178-15.697h0Z"/>
      <path class="cls-5" d="M278.3901,95.5191c-12.3591,0-16.7621-9.0537-16.7621-17.526a15.65874,15.65874,0,0,1,7.2058-13.7551,21.95821,21.95821,0,0,1,11.1184-3.2855c9.4318,0,16.0198,6.7741,16.0198,16.4709,0,6.596-2.6334,11.8003-7.6122,15.0509a21.494,21.494,0,0,1-9.9697,3.0448h0Zm-1.3162-31.1128a7.01994,7.01994,0,0,0-3.9369,1.1036c-2.8547,1.735-4.309,5.1984-4.309,10.2887,0,9.5304,4.7762,16.1855,11.6168,16.1855a7.31009,7.31009,0,0,0,5.0299-1.7728c2.1016-1.7119,3.216-5.2092,3.216-10.107,0-9.3892-4.6684-15.698-11.6168-15.698h0Z"/>
      <path class="cls-5" d="M235.7193,115.0162c-4.4365,0-7.6331-.9352-10.3643-3.0341a9.6958,9.6958,0,0,1-3.8459-7.1841,5.61431,5.61431,0,0,1,1.4553-3.6538,38.51482,38.51482,0,0,1,6.6996-5.3611,0.341,0.341,0,0,0,.2154-0.325,0.33729,0.33729,0,0,0-.2595-0.3385c-3.409-1.3037-4.4374-3.443-4.7468-4.6037-0.0049-.0416-0.0196-0.1084-0.0342-0.179a1.06766,1.06766,0,0,1,.4268-1.3278c0.477-.3404,1.2439-0.794,2.0558-1.2728a27.11472,27.11472,0,0,0,3.3082-2.1519,0.53788,0.53788,0,0,0-.1371-0.8425c-5.0446-1.6935-7.585-5.4364-7.585-11.1369a11.0884,11.0884,0,0,1,4.6605-9.1271,21.28042,21.28042,0,0,1,10.4211-3.5273l0.1921,0.0019a21.437,21.437,0,0,1,7.956,1.77,12.69738,12.69738,0,0,0,4.7027.7475,6.37635,6.37635,0,0,0,5.0897-1.9111,4.37394,4.37394,0,0,1,.2683,1.4528,5.47227,5.47227,0,0,1-.9128,3.3376,4.12985,4.12985,0,0,1-3.1632,1.3714,3.54964,3.54964,0,0,1-.3691-0.0183,10.44849,10.44849,0,0,1-1.9078-.3182l-0.3173.1103a0.53113,0.53113,0,0,0,.047.5135,1.08407,1.08407,0,0,1,.047.1268,22.59169,22.59169,0,0,1,.4584,3.1152c0,5.978-2.3613,8.5854-4.9134,10.5131a16.789,16.789,0,0,1-8.4888,3.2777h-0.0029c-0.0656,0-.3693.0271-0.9823,0.0812-0.3947.0359-.8874,0.0803-0.9598,0.0803l-0.0725.0097c-0.5572.1576-2.0036,0.8443-2.0036,2.1229,0,1.0639.6562,2.3821,3.7831,2.618,0.6337,0.0475,1.3143.0949,2.0243,0.1432,4.1289,0.2873,9.285.6451,11.7117,1.4673a8.09433,8.09433,0,0,1,5.4148,7.7934c0,5.3649-3.8184,10.4086-10.2143,13.4909a22.197,22.197,0,0,1-9.6572,2.1685h0ZM235.2266,96.168a6.28288,6.28288,0,0,0-3.0937.765c-3.0153,1.9306-4.4129,3.8591-4.4129,6.0787a6.495,6.495,0,0,0,2.562,5.2363c2.1172,1.7921,4.972,2.6635,8.7277,2.6635,7.3862,0,10.6983-3.9673,10.6983-7.8998,0-2.7361-1.375-4.5707-4.2033-5.6076a33.01172,33.01172,0,0,0-10.2781-1.2361h0Zm0.4927-32.0857c-3.8098,0-6.2717,3.005-6.2717,7.6552,0,4.6935,2.1173,10.1735,8.0823,10.1735a5.79964,5.79964,0,0,0,3.8008-1.4681c1.3858-1.2718,2.2908-3.8997,2.2908-6.6754,0-6.0651-2.9547-9.6852-7.9022-9.6852h0Z"/>
      <path class="cls-5" d="M215.4286,91.9271a14.74618,14.74618,0,0,1-4.688-1.2186,2.15784,2.15784,0,0,1-.5768-1.1374c-0.1645-2.5184-.1645-9.8293-0.1645-14.6216,0-3.8996-.6572-7.3109-2.3024-9.7491a9.90969,9.90969,0,0,0-8.39-4.386c-3.2072,0-7.485,2.1935-11.0214,5.1995-0.0823.0812-.6258,0.5958-0.6139-0.2042,0.0127-.7988.1359-2.4247,0.2104-3.4488a1.77063,1.77063,0,0,0-.5386-1.5059,50.55637,50.55637,0,0,1-11.1849,2.9246c-1.7507.3367-2.1918,2.018-.328,2.5986v0.0004l0.0281,0.0089a15.897,15.897,0,0,1,4.2467,1.8595,2.21484,2.21484,0,0,1,.6576,2.0311c0.0822,5.4423.0819,13.8102-.1649,18.3588-0.0823,1.7873-.576,2.4362-1.8921,2.7622l0.1203-.0406a25.66469,25.66469,0,0,1-3.0437.5686,4.4326,4.4326,0,0,0-.0001,3.2497c0.8227,0,5.0182-.2447,8.4722-0.2447,4.7703,0,7.2382.2447,8.4722,0.2447a4.53622,4.53622,0,0,0,.3291-3.2497,17.531,17.531,0,0,1-3.3728-.4875c-1.3164-.3249-1.6454-0.9748-1.7266-2.4371-0.1645-3.8175-.1645-11.9407-0.1645-17.4652a3.1941,3.1941,0,0,1,.9048-2.681,10.83575,10.83575,0,0,1,6.7447-2.4361,7.40226,7.40226,0,0,1,5.0171,1.705,6.94748,6.94748,0,0,1,2.3034,4.5496c0.329,3.0872.2458,9.2606,0.2458,14.6216,0,2.9246-.2458,3.6559-1.3153,3.9808a13.279,13.279,0,0,1-3.3728.6499c-0.4925.4865-.329,2.7613,0,3.2497,2.1389,0,4.6068-.2447,8.2255-0.2447,4.5244,0,7.4026.2447,8.5543,0.2447A4.50232,4.50232,0,0,0,215.4286,91.9271Z"/>
    </g>
    <path class="cls-4" d="M416.8099,94.6294a6.35321,6.35321,0,1,1,6.3532-6.4433A6.27772,6.27772,0,0,1,416.8099,94.6294Zm0.0189-12.1353a5.78217,5.78217,0,1,0,5.7458,5.7995A5.68752,5.68752,0,0,0,416.8288,82.4941Zm1.552,9.7972-1.6421-3.5341h-1.3209v3.5341h-0.9634V84.2597h2.3744c1.7656,0,2.498.7861,2.498,2.2495a1.949,1.949,0,0,1-1.5883,2.1419l1.6958,3.6402h-1.0535Zm-2.963-4.3726h1.3921c1.1248,0,1.5535-.3923,1.5535-1.4095,0-1.0347-.4113-1.3747-1.6784-1.3747h-1.2672v2.7842Z"/>
  </g>
</svg>
