<?xml version="1.0" encoding="utf-8"?>
<!-- Generator: Adobe Illustrator 17.0.0, SVG Export Plug-In . SVG Version: 6.00 Build 0)  -->
<!DOCTYPE svg PUBLIC "-//W3C//DTD SVG 1.1//EN" "http://www.w3.org/Graphics/SVG/1.1/DTD/svg11.dtd">
<svg version="1.1" id="Layer_1" xmlns="http://www.w3.org/2000/svg" xmlns:xlink="http://www.w3.org/1999/xlink" x="0px" y="0px"
	 width="792px" height="138px" viewBox="0 0 792 138" enable-background="new 0 0 792 138" xml:space="preserve">
<g>
	<polygon fill="#2A4C7D" points="180.41,64.899 222.716,137.963 250.408,137.912 293.123,64.899 257.562,64.898 237.139,105.493 
		215.665,64.899 	"/>
	<rect x="298.901" y="64.925" fill="#2A4C7D" width="30.119" height="72.981"/>
	<polygon fill="#2A4C7D" points="339.058,64.903 339.058,84.21 376.513,84.21 376.492,137.928 406.738,137.928 407.019,83.824 
		444.474,83.824 444.329,64.903 	"/>
	<rect x="496.603" y="93.403" fill="#2A4C7D" width="58.789" height="15.059"/>
	<polygon fill="#2A4C7D" points="560.461,64.447 469.858,64.472 466.188,65.657 463.29,67.041 460.395,69.412 458.081,73.168 
		455.954,77.713 455.378,81.667 455.378,122.184 456.057,126.335 457.941,130.189 460.257,133.302 463.008,135.526 466.049,136.86 
		469.09,137.749 473.334,137.995 560.968,137.972 560.968,118.627 481.632,118.627 481.632,84.434 560.461,84.533 	"/>
	<polygon fill="#2A4C7D" points="675.728,64.447 585.125,64.472 581.455,65.657 578.557,67.041 575.662,69.412 573.348,73.168 
		571.222,77.713 570.645,81.667 570.645,122.184 571.324,126.335 573.208,130.189 575.524,133.302 578.276,135.526 581.316,136.86 
		584.357,137.749 588.601,137.995 676.235,137.972 676.235,118.627 596.899,118.627 596.899,84.434 675.728,84.533 	"/>
	<polygon fill="#2A4C7D" points="686.441,65.001 686.294,137.712 715.544,137.712 715.544,112.517 762.75,112.517 762.75,138.002 
		792,138.002 792,65.001 763.388,65.001 763.474,93.693 715.544,93.693 715.564,65.001 	"/>
</g>
<g enable-background="new    ">
	<path fill="#FFFFFF" d="M26.414,45.372h-2.161l-9.519-23.637h2.023l8.553,21.613h0.092l8.001-21.613h1.932L26.414,45.372z"/>
	<path fill="#FFFFFF" d="M47.199,17.274v-4.736h1.747v4.736H47.199z M47.199,45.372V21.735h1.747v23.637H47.199z"/>
	<path fill="#FFFFFF" d="M64.305,37.509c0.122,2.146,0.912,3.832,2.368,5.059s3.272,1.839,5.45,1.839
		c0.889,0,1.754-0.076,2.598-0.229c0.843-0.153,1.64-0.414,2.391-0.782c0.751-0.368,1.356-0.881,1.816-1.54s0.69-1.479,0.69-2.461
		c0-0.919-0.2-1.678-0.598-2.276c-0.398-0.598-0.935-1.08-1.609-1.448c-0.675-0.368-1.41-0.659-2.207-0.874
		c-0.798-0.214-1.81-0.443-3.035-0.689l-0.644-0.138c-1.227-0.245-2.292-0.506-3.196-0.782c-0.905-0.275-1.732-0.65-2.483-1.126
		c-0.751-0.476-1.349-1.111-1.793-1.909c-0.445-0.797-0.667-1.762-0.667-2.896c0-1.104,0.245-2.054,0.736-2.852
		c0.49-0.797,1.149-1.433,1.977-1.908c0.828-0.475,1.74-0.812,2.736-1.012c0.996-0.199,2.03-0.299,3.104-0.299
		c2.667,0,4.79,0.613,6.369,1.84c1.579,1.226,2.368,3.127,2.368,5.702h-1.748c-0.031-2.054-0.675-3.571-1.931-4.553
		c-1.258-0.981-2.943-1.472-5.059-1.472c-0.859,0-1.687,0.085-2.483,0.253c-0.797,0.169-1.525,0.43-2.184,0.781
		c-0.66,0.354-1.181,0.828-1.563,1.426c-0.384,0.598-0.575,1.296-0.575,2.093c0,0.827,0.191,1.533,0.575,2.115
		c0.383,0.583,0.904,1.051,1.563,1.402c0.659,0.353,1.356,0.629,2.092,0.828s1.702,0.437,2.897,0.713
		c0.306,0.062,0.552,0.107,0.736,0.138c1.41,0.275,2.583,0.552,3.518,0.827c0.935,0.276,1.771,0.66,2.506,1.15
		c0.736,0.49,1.311,1.143,1.725,1.954c0.414,0.812,0.621,1.816,0.621,3.012c0,1.196-0.276,2.224-0.828,3.081
		c-0.552,0.859-1.28,1.541-2.184,2.047c-0.905,0.506-1.894,0.865-2.966,1.08c-1.073,0.215-2.161,0.322-3.265,0.322
		c-2.79,0-5.066-0.735-6.829-2.207c-1.763-1.472-2.675-3.541-2.736-6.208H64.305z"/>
	<path fill="#FFFFFF" d="M113.28,45.372h-1.748v-5.059h-0.092c-0.583,1.718-1.664,3.081-3.242,4.093
		c-1.579,1.012-3.319,1.518-5.219,1.518c-1.932,0-3.488-0.338-4.667-1.012c-1.181-0.674-2.04-1.51-2.575-2.506
		c-0.537-0.996-0.867-1.978-0.989-2.943c-0.123-0.966-0.184-2-0.184-3.104V21.735h1.748v14.945c0,0.858,0.061,1.687,0.184,2.483
		c0.122,0.798,0.398,1.603,0.828,2.414c0.429,0.812,1.111,1.487,2.046,2.023c0.935,0.537,2.153,0.805,3.656,0.805
		c2.605,0,4.675-0.912,6.208-2.736c1.533-1.823,2.299-4.207,2.299-7.15V21.735h1.748V45.372z"/>
	<path fill="#FFFFFF" d="M144.826,41.004c0,0.919,0.084,1.625,0.253,2.115c0.168,0.49,0.605,0.735,1.311,0.735
		c0.306,0,0.736-0.046,1.288-0.138v1.472h-0.138c-0.583,0.122-1.012,0.184-1.288,0.184c-1.257,0-2.1-0.291-2.529-0.874
		c-0.43-0.582-0.644-1.44-0.644-2.575v-1.241h-0.092c-0.583,1.502-1.656,2.752-3.219,3.748c-1.563,0.995-3.418,1.494-5.564,1.494
		c-2.422,0-4.345-0.528-5.771-1.587c-1.426-1.058-2.138-2.751-2.138-5.081c0-1.317,0.253-2.421,0.759-3.311
		c0.506-0.889,1.18-1.587,2.023-2.093c0.843-0.506,1.754-0.874,2.736-1.104c0.981-0.23,2.039-0.391,3.173-0.482
		c2.053-0.153,3.602-0.314,4.645-0.483c1.042-0.168,1.816-0.414,2.322-0.735c0.506-0.322,0.828-0.751,0.965-1.288
		c0.138-0.536,0.207-1.341,0.207-2.414c0-0.337-0.1-0.759-0.299-1.265c-0.2-0.506-0.544-1.019-1.035-1.541
		c-0.491-0.521-1.173-0.957-2.046-1.311c-0.874-0.352-1.939-0.528-3.196-0.528c-2.146,0-3.863,0.545-5.15,1.633
		s-1.993,2.644-2.116,4.667h-1.747c0.122-2.575,0.95-4.521,2.483-5.84c1.533-1.318,3.709-1.978,6.53-1.978
		c1.134,0,2.184,0.1,3.15,0.299c0.966,0.2,1.839,0.529,2.621,0.988c0.782,0.46,1.395,1.097,1.839,1.909
		c0.444,0.812,0.667,1.801,0.667,2.966V41.004z M143.078,31.944c-0.46,0.521-1.143,0.882-2.046,1.08
		c-0.905,0.2-2.184,0.361-3.84,0.483c-1.227,0.092-2.115,0.184-2.667,0.275c-2.146,0.246-3.764,0.79-4.852,1.633
		c-1.089,0.844-1.632,2.123-1.632,3.84c0,1.503,0.536,2.736,1.609,3.702c1.073,0.966,2.605,1.448,4.599,1.448
		c1.839,0,3.357-0.329,4.552-0.988c1.196-0.659,2.1-1.456,2.713-2.392c0.613-0.935,1.027-1.816,1.242-2.645
		c0.214-0.827,0.322-1.501,0.322-2.023V31.944z"/>
	<path fill="#FFFFFF" d="M161.518,12.538v32.834h-1.747V12.538H161.518z"/>
	<path fill="#FFFFFF" d="M198.215,17.274v-4.736h1.747v4.736H198.215z M198.215,45.372V21.735h1.747v23.637H198.215z"/>
	<path fill="#FFFFFF" d="M214.494,21.735h1.747v5.059h0.093c0.582-1.717,1.662-3.081,3.241-4.093s3.318-1.518,5.22-1.518
		c1.932,0,3.487,0.338,4.668,1.012c1.18,0.675,2.038,1.511,2.575,2.506c0.536,0.997,0.865,1.978,0.988,2.943
		c0.122,0.966,0.184,2,0.184,3.104v14.623h-1.747V30.427c0-0.858-0.062-1.686-0.184-2.483c-0.123-0.797-0.399-1.602-0.828-2.414
		c-0.43-0.812-1.111-1.486-2.046-2.023c-0.936-0.536-2.154-0.805-3.656-0.805c-2.606,0-4.676,0.912-6.208,2.736
		c-1.533,1.824-2.3,4.207-2.3,7.15v12.784h-1.747V21.735z"/>
	<path fill="#FFFFFF" d="M247.328,21.735h1.747v5.059h0.093c0.582-1.717,1.662-3.081,3.241-4.093s3.318-1.518,5.22-1.518
		c1.932,0,3.487,0.338,4.668,1.012c1.18,0.675,2.038,1.511,2.575,2.506c0.536,0.997,0.865,1.978,0.988,2.943
		c0.122,0.966,0.184,2,0.184,3.104v14.623h-1.747V30.427c0-0.858-0.062-1.686-0.184-2.483c-0.123-0.797-0.399-1.602-0.828-2.414
		c-0.43-0.812-1.111-1.486-2.046-2.023c-0.936-0.536-2.154-0.805-3.656-0.805c-2.606,0-4.676,0.912-6.208,2.736
		c-1.533,1.824-2.3,4.207-2.3,7.15v12.784h-1.747V21.735z"/>
	<path fill="#FFFFFF" d="M279.771,28.771c0.475-1.502,1.188-2.82,2.138-3.955c0.95-1.134,2.1-2.023,3.449-2.667
		c1.349-0.644,2.866-0.966,4.553-0.966c1.686,0,3.211,0.322,4.575,0.966s2.514,1.533,3.449,2.667
		c0.935,1.135,1.64,2.453,2.115,3.955s0.713,3.097,0.713,4.782c0,1.687-0.237,3.272-0.713,4.76s-1.188,2.805-2.138,3.954
		c-0.951,1.15-2.101,2.047-3.449,2.69c-1.35,0.644-2.867,0.966-4.553,0.966c-1.687,0-3.212-0.322-4.575-0.966
		c-1.365-0.644-2.507-1.532-3.427-2.667c-0.919-1.134-1.625-2.452-2.115-3.955c-0.49-1.501-0.735-3.096-0.735-4.782
		C279.058,31.868,279.295,30.273,279.771,28.771z M281.402,37.67c0.398,1.303,0.989,2.46,1.771,3.472
		c0.782,1.012,1.74,1.809,2.874,2.391c1.135,0.583,2.422,0.874,3.863,0.874c1.44,0,2.729-0.291,3.862-0.874
		c1.135-0.582,2.093-1.379,2.875-2.391c0.781-1.012,1.371-2.169,1.771-3.472c0.397-1.303,0.598-2.675,0.598-4.116
		c0-1.44-0.2-2.812-0.598-4.115c-0.399-1.303-0.989-2.461-1.771-3.473c-0.782-1.012-1.74-1.809-2.875-2.391
		c-1.134-0.582-2.422-0.874-3.862-0.874c-1.441,0-2.729,0.292-3.863,0.874c-1.134,0.582-2.092,1.379-2.874,2.391
		c-0.781,1.012-1.372,2.17-1.771,3.473s-0.598,2.675-0.598,4.115C280.805,34.995,281.004,36.367,281.402,37.67z"/>
	<path fill="#FFFFFF" d="M322.836,45.372h-2.162l-9.519-23.637h2.023l8.553,21.613h0.093l8.001-21.613h1.932L322.836,45.372z"/>
	<path fill="#FFFFFF" d="M360.636,41.004c0,0.919,0.084,1.625,0.253,2.115c0.168,0.49,0.604,0.735,1.311,0.735
		c0.306,0,0.735-0.046,1.287-0.138v1.472h-0.138c-0.583,0.122-1.012,0.184-1.287,0.184c-1.258,0-2.101-0.291-2.529-0.874
		c-0.43-0.582-0.644-1.44-0.644-2.575v-1.241h-0.093c-0.582,1.502-1.655,2.752-3.219,3.748c-1.563,0.995-3.419,1.494-5.564,1.494
		c-2.422,0-4.346-0.528-5.771-1.587c-1.426-1.058-2.139-2.751-2.139-5.081c0-1.317,0.253-2.421,0.759-3.311
		c0.506-0.889,1.18-1.587,2.023-2.093c0.843-0.506,1.755-0.874,2.736-1.104c0.98-0.23,2.038-0.391,3.173-0.482
		c2.054-0.153,3.602-0.314,4.645-0.483c1.042-0.168,1.816-0.414,2.322-0.735c0.506-0.322,0.827-0.751,0.966-1.288
		c0.138-0.536,0.207-1.341,0.207-2.414c0-0.337-0.101-0.759-0.299-1.265c-0.2-0.506-0.545-1.019-1.035-1.541
		c-0.491-0.521-1.173-0.957-2.046-1.311c-0.874-0.352-1.939-0.528-3.196-0.528c-2.146,0-3.863,0.545-5.15,1.633
		c-1.288,1.088-1.993,2.644-2.115,4.667h-1.748c0.122-2.575,0.95-4.521,2.483-5.84s3.709-1.978,6.53-1.978
		c1.134,0,2.185,0.1,3.149,0.299c0.966,0.2,1.84,0.529,2.622,0.988c0.781,0.46,1.395,1.097,1.839,1.909s0.667,1.801,0.667,2.966
		V41.004z M358.889,31.944c-0.46,0.521-1.143,0.882-2.047,1.08c-0.904,0.2-2.185,0.361-3.84,0.483
		c-1.227,0.092-2.115,0.184-2.667,0.275c-2.146,0.246-3.764,0.79-4.852,1.633c-1.089,0.844-1.633,2.123-1.633,3.84
		c0,1.503,0.536,2.736,1.609,3.702s2.605,1.448,4.599,1.448c1.84,0,3.357-0.329,4.553-0.988c1.196-0.659,2.1-1.456,2.713-2.392
		c0.613-0.935,1.027-1.816,1.242-2.645c0.214-0.827,0.322-1.501,0.322-2.023V31.944z"/>
	<path fill="#FFFFFF" d="M383.858,23.253h-5.15v16.509c0,1.687,0.375,2.79,1.127,3.312c0.75,0.521,2.076,0.781,3.978,0.781v1.518
		c-0.062,0-0.276,0.015-0.644,0.046c-0.246,0-0.445,0-0.599,0c-0.827,0-1.571-0.076-2.229-0.229
		c-0.66-0.153-1.242-0.438-1.748-0.852c-0.506-0.413-0.904-0.995-1.195-1.747c-0.292-0.751-0.438-1.693-0.438-2.828V23.253h-4.368
		v-1.518h4.368v-7.357h1.748v7.357h5.15V23.253z"/>
	<path fill="#FFFFFF" d="M396.458,17.274v-4.736h1.747v4.736H396.458z M396.458,45.372V21.735h1.747v23.637H396.458z"/>
	<path fill="#FFFFFF" d="M421.75,45.372h-2.162l-9.519-23.637h2.023l8.553,21.613h0.093l8.001-21.613h1.932L421.75,45.372z"/>
	<path fill="#FFFFFF" d="M442.811,33.783c0,3.005,0.759,5.526,2.276,7.565s3.656,3.058,6.415,3.058c2.237,0,4.108-0.628,5.61-1.886
		c1.502-1.256,2.452-2.973,2.852-5.15h1.747c-0.46,2.76-1.571,4.875-3.334,6.347s-4.055,2.207-6.875,2.207
		c-3.28,0-5.84-1.127-7.68-3.38c-1.839-2.253-2.759-5.111-2.759-8.576c0-1.686,0.222-3.295,0.667-4.829
		c0.443-1.532,1.104-2.896,1.978-4.093c0.873-1.195,1.969-2.138,3.287-2.828c1.318-0.689,2.82-1.034,4.507-1.034
		c1.717,0,3.234,0.299,4.553,0.896s2.414,1.441,3.288,2.529c0.874,1.089,1.524,2.338,1.954,3.748s0.645,2.928,0.645,4.553
		c0,0.092-0.017,0.229-0.047,0.414v0.459H442.811z M460.147,32.267c-0.031-1.257-0.246-2.461-0.644-3.61
		c-0.399-1.149-0.966-2.169-1.701-3.058c-0.736-0.89-1.641-1.594-2.714-2.116c-1.073-0.521-2.269-0.781-3.587-0.781
		c-1.257,0-2.407,0.269-3.448,0.805c-1.043,0.537-1.939,1.265-2.69,2.185c-0.752,0.92-1.342,1.947-1.771,3.081
		c-0.43,1.134-0.689,2.299-0.782,3.495H460.147z"/>
	<path fill="#FFFFFF" d="M505.397,23.253h-5.15v16.509c0,1.687,0.375,2.79,1.127,3.312c0.75,0.521,2.076,0.781,3.978,0.781v1.518
		c-0.062,0-0.276,0.015-0.644,0.046c-0.246,0-0.445,0-0.599,0c-0.827,0-1.571-0.076-2.229-0.229
		c-0.66-0.153-1.242-0.438-1.748-0.852c-0.506-0.413-0.904-0.995-1.195-1.747c-0.292-0.751-0.438-1.693-0.438-2.828V23.253h-4.368
		v-1.518h4.368v-7.357h1.748v7.357h5.15V23.253z"/>
	<path fill="#FFFFFF" d="M518.272,33.783c0,3.005,0.759,5.526,2.276,7.565s3.656,3.058,6.415,3.058c2.237,0,4.108-0.628,5.61-1.886
		c1.502-1.256,2.452-2.973,2.852-5.15h1.747c-0.46,2.76-1.571,4.875-3.334,6.347s-4.055,2.207-6.875,2.207
		c-3.28,0-5.84-1.127-7.68-3.38c-1.839-2.253-2.759-5.111-2.759-8.576c0-1.686,0.222-3.295,0.667-4.829
		c0.443-1.532,1.104-2.896,1.978-4.093c0.873-1.195,1.969-2.138,3.287-2.828c1.318-0.689,2.82-1.034,4.507-1.034
		c1.717,0,3.234,0.299,4.553,0.896s2.414,1.441,3.288,2.529c0.874,1.089,1.524,2.338,1.954,3.748s0.645,2.928,0.645,4.553
		c0,0.092-0.017,0.229-0.047,0.414v0.459H518.272z M535.609,32.267c-0.031-1.257-0.246-2.461-0.644-3.61
		c-0.399-1.149-0.966-2.169-1.701-3.058c-0.736-0.89-1.641-1.594-2.714-2.116c-1.073-0.521-2.269-0.781-3.587-0.781
		c-1.257,0-2.407,0.269-3.448,0.805c-1.043,0.537-1.939,1.265-2.69,2.185c-0.752,0.92-1.342,1.947-1.771,3.081
		c-0.43,1.134-0.689,2.299-0.782,3.495H535.609z"/>
	<path fill="#FFFFFF" d="M568.214,29.047c-0.154-2.023-0.974-3.587-2.461-4.69s-3.334-1.655-5.541-1.655
		c-1.441,0-2.729,0.292-3.862,0.874c-1.135,0.582-2.093,1.372-2.875,2.368c-0.781,0.996-1.372,2.131-1.77,3.402
		c-0.399,1.272-0.599,2.599-0.599,3.979c0,3.342,0.782,6.023,2.346,8.047s3.816,3.035,6.76,3.035c2.177,0,4.016-0.682,5.519-2.046
		c1.502-1.364,2.406-3.135,2.713-5.312h1.747c-0.367,2.759-1.471,4.928-3.311,6.507s-4.062,2.368-6.668,2.368
		c-1.84,0-3.457-0.338-4.852-1.012c-1.396-0.674-2.529-1.594-3.402-2.759c-0.874-1.165-1.526-2.507-1.955-4.024
		c-0.43-1.518-0.644-3.119-0.644-4.805c0-1.656,0.237-3.22,0.713-4.691c0.475-1.471,1.18-2.766,2.115-3.886
		c0.935-1.118,2.084-1.992,3.449-2.621c1.363-0.628,2.889-0.942,4.575-0.942c2.697,0,4.936,0.667,6.714,2
		c1.777,1.334,2.789,3.288,3.035,5.863H568.214z"/>
	<path fill="#FFFFFF" d="M584.997,12.538v14.256h0.093c0.582-1.717,1.662-3.081,3.241-4.093s3.318-1.518,5.22-1.518
		c1.932,0,3.487,0.338,4.668,1.012c1.18,0.675,2.038,1.511,2.575,2.506c0.536,0.997,0.865,1.978,0.988,2.943
		c0.122,0.966,0.184,2,0.184,3.104v14.623h-1.747V30.427c0-0.858-0.062-1.686-0.184-2.483c-0.123-0.797-0.399-1.602-0.828-2.414
		c-0.43-0.812-1.111-1.486-2.046-2.023c-0.936-0.536-2.154-0.805-3.656-0.805c-2.606,0-4.676,0.912-6.208,2.736
		c-1.533,1.824-2.3,4.207-2.3,7.15v12.784h-1.747V12.538H584.997z"/>
	<path fill="#FFFFFF" d="M616.084,21.735h1.747v5.059h0.093c0.582-1.717,1.662-3.081,3.241-4.093s3.318-1.518,5.22-1.518
		c1.932,0,3.487,0.338,4.668,1.012c1.18,0.675,2.038,1.511,2.575,2.506c0.536,0.997,0.865,1.978,0.988,2.943
		c0.122,0.966,0.184,2,0.184,3.104v14.623h-1.747V30.427c0-0.858-0.062-1.686-0.184-2.483c-0.123-0.797-0.399-1.602-0.828-2.414
		c-0.43-0.812-1.111-1.486-2.046-2.023c-0.936-0.536-2.154-0.805-3.656-0.805c-2.606,0-4.676,0.912-6.208,2.736
		c-1.533,1.824-2.3,4.207-2.3,7.15v12.784h-1.747V21.735z"/>
	<path fill="#FFFFFF" d="M648.527,28.771c0.475-1.502,1.188-2.82,2.138-3.955c0.95-1.134,2.1-2.023,3.449-2.667
		c1.349-0.644,2.866-0.966,4.553-0.966c1.686,0,3.211,0.322,4.575,0.966s2.514,1.533,3.449,2.667
		c0.935,1.135,1.64,2.453,2.115,3.955s0.713,3.097,0.713,4.782c0,1.687-0.237,3.272-0.713,4.76s-1.188,2.805-2.138,3.954
		c-0.951,1.15-2.101,2.047-3.449,2.69c-1.35,0.644-2.867,0.966-4.553,0.966c-1.687,0-3.212-0.322-4.575-0.966
		c-1.365-0.644-2.507-1.532-3.427-2.667c-0.919-1.134-1.625-2.452-2.115-3.955c-0.49-1.501-0.735-3.096-0.735-4.782
		C647.814,31.868,648.052,30.273,648.527,28.771z M650.159,37.67c0.398,1.303,0.989,2.46,1.771,3.472
		c0.782,1.012,1.74,1.809,2.874,2.391c1.135,0.583,2.422,0.874,3.863,0.874c1.44,0,2.729-0.291,3.862-0.874
		c1.135-0.582,2.093-1.379,2.875-2.391c0.781-1.012,1.371-2.169,1.771-3.472c0.397-1.303,0.598-2.675,0.598-4.116
		c0-1.44-0.2-2.812-0.598-4.115c-0.399-1.303-0.989-2.461-1.771-3.473c-0.782-1.012-1.74-1.809-2.875-2.391
		c-1.134-0.582-2.422-0.874-3.862-0.874c-1.441,0-2.729,0.292-3.863,0.874c-1.134,0.582-2.092,1.379-2.874,2.391
		c-0.781,1.012-1.372,2.17-1.771,3.473s-0.598,2.675-0.598,4.115C649.562,34.995,649.761,36.367,650.159,37.67z"/>
	<path fill="#FFFFFF" d="M684.74,12.538v32.834h-1.747V12.538H684.74z"/>
	<path fill="#FFFFFF" d="M698.881,28.771c0.475-1.502,1.188-2.82,2.138-3.955c0.95-1.134,2.1-2.023,3.449-2.667
		c1.349-0.644,2.866-0.966,4.553-0.966c1.686,0,3.211,0.322,4.575,0.966s2.514,1.533,3.449,2.667
		c0.935,1.135,1.64,2.453,2.115,3.955s0.713,3.097,0.713,4.782c0,1.687-0.237,3.272-0.713,4.76s-1.188,2.805-2.138,3.954
		c-0.951,1.15-2.101,2.047-3.449,2.69c-1.35,0.644-2.867,0.966-4.553,0.966c-1.687,0-3.212-0.322-4.575-0.966
		c-1.365-0.644-2.507-1.532-3.427-2.667c-0.919-1.134-1.625-2.452-2.115-3.955c-0.49-1.501-0.735-3.096-0.735-4.782
		C698.168,31.868,698.405,30.273,698.881,28.771z M700.513,37.67c0.398,1.303,0.989,2.46,1.771,3.472
		c0.782,1.012,1.74,1.809,2.874,2.391c1.135,0.583,2.422,0.874,3.863,0.874c1.44,0,2.729-0.291,3.862-0.874
		c1.135-0.582,2.093-1.379,2.875-2.391c0.781-1.012,1.371-2.169,1.771-3.472c0.397-1.303,0.598-2.675,0.598-4.116
		c0-1.44-0.2-2.812-0.598-4.115c-0.399-1.303-0.989-2.461-1.771-3.473c-0.782-1.012-1.74-1.809-2.875-2.391
		c-1.134-0.582-2.422-0.874-3.862-0.874c-1.441,0-2.729,0.292-3.863,0.874c-1.134,0.582-2.092,1.379-2.874,2.391
		c-0.781,1.012-1.372,2.17-1.771,3.473s-0.598,2.675-0.598,4.115C699.915,34.995,700.114,36.367,700.513,37.67z"/>
	<path fill="#FFFFFF" d="M752.477,21.735v22.396c0,0.889-0.077,1.831-0.229,2.828c-0.154,0.995-0.545,2.076-1.173,3.241
		c-0.629,1.165-1.664,2.154-3.104,2.967c-1.441,0.812-3.342,1.219-5.702,1.219c-2.729,0-4.92-0.583-6.576-1.748
		c-1.655-1.165-2.545-3.035-2.667-5.61h1.748c0.184,1.993,0.965,3.464,2.345,4.415c1.38,0.95,3.111,1.426,5.196,1.426
		c1.932,0,3.479-0.33,4.645-0.989s2.016-1.456,2.553-2.391c0.536-0.936,0.873-1.817,1.012-2.645c0.138-0.828,0.207-1.594,0.207-2.3
		v-5.426h-0.093c-1.686,3.587-4.537,5.38-8.553,5.38c-3.342,0-5.879-1.08-7.61-3.242c-1.732-2.161-2.599-4.974-2.599-8.438
		c0-1.594,0.222-3.089,0.667-4.484c0.443-1.395,1.104-2.628,1.978-3.701c0.873-1.073,1.946-1.916,3.219-2.529
		c1.271-0.613,2.72-0.92,4.346-0.92c1.9,0,3.647,0.482,5.242,1.448c1.594,0.966,2.697,2.308,3.311,4.024h0.093v-4.921H752.477z
		 M738.405,23.529c-1.074,0.552-1.963,1.311-2.668,2.275c-0.705,0.966-1.234,2.055-1.586,3.266c-0.353,1.211-0.529,2.46-0.529,3.748
		c0,2.912,0.743,5.334,2.23,7.266c1.487,1.931,3.564,2.896,6.231,2.896c2.729,0,4.844-0.98,6.346-2.942s2.254-4.369,2.254-7.22
		c0-1.349-0.177-2.629-0.529-3.84s-0.882-2.276-1.587-3.196c-1.563-2.054-3.725-3.081-6.483-3.081
		C740.704,22.701,739.478,22.977,738.405,23.529z"/>
	<path fill="#FFFFFF" d="M763.742,21.735h2.069l8.784,21.567l8.093-21.567h1.978l-10.117,26.166
		c-0.582,1.41-1.073,2.483-1.471,3.219c-0.399,0.736-0.828,1.288-1.288,1.655c-0.583,0.46-1.272,0.751-2.069,0.874
		c-0.798,0.122-1.947,0.184-3.449,0.184v-1.517c1.257,0,2.246-0.108,2.967-0.322c0.72-0.215,1.371-0.613,1.954-1.195
		c0.306-0.308,0.628-0.867,0.966-1.679c0.337-0.812,0.827-2.108,1.472-3.886L763.742,21.735z"/>
</g>
</svg>
