<?xml version="1.0" standalone="no"?>
<svg version="1.0" xmlns="http://www.w3.org/2000/svg"
 width="2000.000000pt" height="2000.000000pt" viewBox="0 0 2000.000000 2000.000000"
 preserveAspectRatio="xMidYMid meet">
<g transform="translate(0.000000,2000.000000) scale(0.100000,-0.100000)"
fill="#000000" stroke="none">
<path d="M9569 17441 c-387 -21 -866 -88 -1234 -173 -506 -116 -922 -255
-1423 -477 -166 -74 -486 -236 -584 -298 -21 -13 -39 -23 -41 -23 -12 0 -266
-157 -429 -266 -1092 -723 -1977 -1731 -2562 -2919 -178 -361 -276 -601 -276
-677 0 -164 186 -254 321 -155 34 25 56 65 118 219 520 1299 1473 2454 2671
3239 288 189 645 386 935 516 39 18 95 43 125 56 66 30 220 92 350 140 612
229 1294 375 1985 424 142 10 778 10 920 0 309 -22 822 -92 1000 -137 22 -5
116 -28 210 -50 93 -23 217 -54 275 -71 106 -31 448 -142 485 -158 11 -5 70
-28 130 -52 306 -117 663 -287 908 -431 26 -15 49 -28 51 -28 9 0 254 -152
361 -223 415 -277 737 -540 1086 -887 326 -324 524 -557 796 -935 308 -428
618 -1006 817 -1525 34 -89 95 -130 192 -130 106 0 180 67 191 172 6 62 -6 97
-124 368 -578 1326 -1515 2447 -2707 3240 -582 387 -1162 669 -1807 880 -208
68 -197 65 -344 105 -633 173 -1209 253 -1885 260 -201 2 -431 0 -511 -4z"/>
<path d="M9805 16073 c-274 -5 -607 -40 -930 -98 -405 -73 -954 -239 -1290
-390 -16 -8 -82 -37 -145 -65 -476 -215 -1001 -553 -1432 -923 -147 -126 -530
-514 -662 -670 -178 -210 -304 -384 -314 -433 -15 -69 3 -129 52 -178 64 -65
140 -81 218 -47 51 22 69 41 173 181 43 58 126 161 184 230 114 136 466 494
591 603 585 506 1231 876 1944 1112 429 142 790 217 1301 270 204 21 777 21
980 0 327 -34 535 -67 795 -125 130 -30 302 -77 465 -131 660 -214 1263 -540
1810 -978 39 -31 72 -58 75 -61 3 -3 39 -34 80 -70 255 -220 500 -475 707
-735 57 -71 126 -158 154 -193 56 -71 96 -93 169 -94 85 0 167 60 190 140 26
95 8 131 -194 382 -251 312 -571 636 -886 896 -335 278 -779 565 -1170 755
-127 62 -248 119 -255 119 -2 0 -28 11 -57 24 -107 49 -268 110 -457 172 -677
225 -1340 322 -2096 307z"/>
<path d="M9725 14494 c-93 -7 -222 -17 -285 -23 -63 -6 -166 -15 -229 -20 -62
-6 -132 -13 -155 -15 -22 -3 -99 -13 -171 -21 -166 -21 -395 -58 -510 -84 -22
-5 -62 -14 -90 -20 -388 -82 -942 -269 -1267 -426 l-38 -19 0 -718 0 -718
-1071 0 c-590 0 -1073 -1 -1075 -2 -28 -27 -494 -491 -494 -492 0 -1 11161 3
11280 4 2 0 -106 110 -240 245 l-245 245 -1012 0 -1013 0 0 719 0 719 -32 15
c-104 49 -196 89 -293 126 -60 24 -119 47 -130 51 -78 32 -182 67 -355 120
-58 18 -116 36 -130 41 -63 21 -424 107 -547 129 -255 47 -556 86 -848 110
-71 6 -150 13 -175 16 -136 15 -462 33 -575 32 -71 0 -206 -7 -300 -14z m660
-504 c443 -29 742 -59 987 -100 125 -20 121 -19 301 -59 94 -22 304 -73 327
-80 14 -5 43 -14 65 -20 153 -42 408 -128 518 -174 l37 -16 0 -685 c0 -452 -3
-687 -10 -691 -6 -4 -1161 -6 -2567 -5 -1969 0 -2559 3 -2565 13 -4 6 -7 314
-6 684 0 520 3 675 13 683 19 16 233 92 395 140 41 13 94 29 117 36 116 37
432 114 588 143 340 64 543 89 1000 122 389 28 490 29 800 9z"/>
<path d="M10114 13312 c-207 -402 -354 -690 -354 -696 0 -3 47 -6 105 -6 l106
0 33 73 c19 39 111 227 205 415 94 189 171 346 171 348 0 2 -44 4 -97 4 l-98
0 -71 -138z"/>
<path d="M9222 13317 c-86 -74 -277 -252 -280 -262 -2 -9 106 -115 260 -252
l59 -53 103 0 c56 0 106 3 110 7 4 4 -59 73 -139 153 l-145 145 140 140 c77
77 140 143 140 147 0 5 -48 8 -106 7 -103 -1 -106 -1 -142 -32z"/>
<path d="M10670 13334 c0 -6 61 -69 135 -139 74 -70 135 -132 135 -139 0 -7
-63 -74 -140 -150 -77 -77 -137 -143 -134 -147 8 -14 196 -10 220 4 38 22 304
282 302 294 -3 13 -295 283 -307 283 -86 7 -211 3 -211 -6z"/>
<path d="M8695 11394 c-226 -22 -425 -98 -598 -228 -430 -323 -563 -920 -312
-1403 150 -289 412 -491 740 -571 89 -22 391 -24 475 -4 332 82 593 276 750
559 13 24 21 45 19 48 -3 2 -119 34 -258 69 l-253 65 -56 -61 c-188 -203 -469
-253 -719 -127 -291 146 -392 524 -229 859 39 81 149 194 226 233 89 44 211
70 305 64 143 -9 295 -73 388 -163 29 -28 44 -35 65 -32 57 10 478 121 489
130 29 23 -195 281 -317 364 -75 52 -198 113 -279 139 -131 43 -326 69 -436
59z"/>
<path d="M2820 10286 c0 -895 2 -1075 14 -1079 14 -6 498 2 504 8 2 2 3 189 3
414 l-2 411 408 -2 408 -3 -4 -412 -3 -413 261 0 261 0 0 1075 0 1075 -257 -2
-258 -3 0 -407 c0 -272 -4 -411 -11 -418 -7 -7 -138 -9 -405 -8 l-394 3 -2
415 -2 415 -260 3 -261 2 0 -1074z"/>
<path d="M6013 11348 c-6 -7 -29 -62 -52 -123 -23 -60 -51 -128 -61 -150 -9
-22 -24 -60 -33 -85 -16 -47 -69 -183 -92 -235 -7 -16 -120 -298 -250 -625
-130 -327 -243 -608 -250 -625 -31 -71 -115 -281 -115 -288 0 -4 123 -7 274
-7 l274 0 21 55 c11 30 30 79 40 108 61 167 66 178 86 183 11 2 202 3 425 2
l405 -3 17 -35 c9 -19 26 -60 37 -90 11 -30 33 -91 49 -135 l30 -80 264 -3
c144 -1 268 0 275 2 9 4 3 29 -23 88 -20 46 -76 184 -126 308 -49 124 -101
249 -114 278 -13 29 -24 56 -24 60 0 8 -56 151 -86 220 -34 78 -42 98 -49 122
-4 14 -16 45 -27 70 -11 25 -24 54 -28 65 -4 11 -17 40 -28 65 -10 25 -25 63
-32 85 -7 22 -16 44 -21 50 -5 5 -9 15 -9 22 0 7 -9 35 -21 61 -12 26 -25 56
-29 67 -4 11 -17 41 -29 67 -12 26 -21 52 -21 58 0 6 -4 18 -9 28 -5 9 -21 49
-36 87 -15 39 -33 84 -40 100 -7 17 -32 78 -55 138 l-42 107 -243 0 c-182 0
-245 -3 -252 -12z m267 -648 c0 -10 5 -22 10 -25 6 -3 10 -15 10 -26 0 -10 4
-27 9 -37 5 -9 18 -48 30 -87 20 -63 49 -145 71 -200 4 -11 13 -36 20 -55 7
-19 16 -44 20 -55 48 -118 72 -196 66 -211 -8 -20 -504 -21 -512 -1 -2 7 9 51
26 97 17 47 38 105 46 130 8 25 19 54 24 65 4 11 18 47 30 80 12 33 26 69 30
80 18 42 70 203 70 216 0 21 30 60 41 54 5 -4 9 -15 9 -25z"/>
<path d="M10380 10285 l0 -1075 255 0 255 0 0 358 0 357 87 88 c47 48 93 87
102 87 9 0 29 -20 44 -44 15 -24 49 -73 75 -109 26 -35 72 -99 102 -142 30
-43 75 -106 100 -140 25 -34 70 -97 100 -140 30 -42 94 -131 142 -196 l88
-119 300 0 c165 0 300 3 300 8 0 4 -152 210 -338 457 -365 487 -407 542 -425
565 -7 8 -23 31 -37 50 -14 19 -30 42 -37 50 -50 62 -73 95 -73 105 0 7 203
213 450 458 248 244 450 447 450 451 0 3 -140 6 -311 6 l-310 0 -358 -359
c-196 -197 -374 -379 -395 -404 -21 -26 -43 -44 -48 -41 -6 4 -9 96 -8 238 1
127 2 306 1 399 l-1 167 -255 0 -255 0 0 -1075z"/>
<path d="M12944 11345 c-2 -5 -3 -487 -2 -1070 l3 -1060 250 0 250 0 5 350 5
350 120 3 c136 3 160 0 168 -25 5 -16 26 -54 97 -178 13 -22 33 -59 46 -82 13
-24 35 -62 48 -85 13 -24 34 -61 46 -83 13 -22 35 -62 50 -90 43 -80 72 -129
88 -147 14 -16 41 -18 294 -18 181 0 278 4 278 10 0 6 -15 34 -33 63 -19 28
-53 84 -77 122 -24 39 -58 94 -77 122 -18 29 -33 55 -33 58 0 4 -18 33 -40 65
-22 32 -40 61 -40 65 0 5 -9 20 -120 192 -29 46 -50 88 -47 96 2 7 25 23 49
35 108 56 224 177 273 287 39 88 43 99 56 192 17 122 -1 283 -43 383 -27 64
-35 78 -69 130 -89 134 -261 248 -439 288 -25 6 -56 14 -70 18 -40 12 -1032
21 -1036 9z m911 -456 c94 -21 177 -86 210 -166 19 -46 19 -150 0 -196 -20
-47 -90 -119 -140 -143 -36 -17 -64 -19 -255 -19 l-215 0 0 260 0 260 151 5
c83 3 161 6 175 7 13 2 47 -2 74 -8z"/>
<path d="M15240 10713 c1 -504 4 -669 15 -743 14 -94 37 -196 54 -235 66 -154
101 -212 185 -302 85 -92 199 -162 341 -211 122 -41 166 -47 355 -47 189 0
233 6 355 47 93 32 144 57 223 111 175 120 297 312 343 542 31 152 34 224 34
845 l0 635 -255 0 -255 0 -2 -600 c-1 -330 -5 -638 -8 -685 -13 -153 -76 -293
-161 -351 -90 -62 -128 -72 -264 -73 -139 -1 -188 10 -260 58 -58 38 -95 80
-124 136 -21 42 -29 66 -55 166 -7 28 -11 260 -11 698 l0 656 -255 0 -255 0 0
-647z"/>
<path d="M4340 8740 c0 -3 110 -116 245 -250 l246 -245 1072 -5 1072 -5 1
-106 c1 -122 8 -146 106 -344 103 -208 224 -400 384 -612 121 -160 191 -240
369 -421 559 -571 1262 -983 2089 -1222 120 -35 125 -35 258 6 953 289 1714
775 2304 1474 234 277 451 619 573 900 40 94 44 112 50 225 l6 110 1005 -3
1005 -3 248 243 c136 134 247 248 247 253 0 7 -1887 10 -5640 10 -3102 0
-5640 -2 -5640 -5z m8264 -216 c14 -5 16 -32 16 -195 l0 -189 -55 -108 c-109
-213 -153 -287 -294 -488 -48 -68 -150 -194 -230 -284 -106 -120 -416 -413
-536 -507 -107 -83 -383 -272 -475 -325 -276 -157 -512 -262 -803 -359 l-178
-59 -67 21 c-268 84 -478 167 -692 276 -80 40 -158 81 -175 91 -16 10 -52 31
-80 47 -471 275 -979 753 -1280 1205 -96 144 -161 255 -228 391 l-47 96 2 189
3 189 2545 5 c1400 3 2548 6 2552 8 3 1 13 -1 22 -4z"/>
<path d="M9795 8050 c-3 -5 -11 -67 -16 -137 -23 -284 -22 -276 -49 -289 -14
-7 -43 -17 -65 -24 -22 -7 -77 -30 -122 -51 -45 -21 -87 -39 -94 -39 -10 0
-61 39 -144 111 -164 142 -186 159 -198 152 -6 -5 -90 -87 -185 -184 l-173
-176 83 -98 c46 -54 107 -125 136 -159 57 -66 62 -84 34 -124 -16 -23 -72
-153 -72 -167 0 -18 501 -315 532 -315 3 0 11 26 18 58 24 107 77 200 165 287
86 86 132 113 260 155 50 17 262 17 278 1 6 -6 19 -11 29 -11 10 0 26 -4 36
-9 9 -5 33 -16 54 -25 136 -59 273 -229 308 -381 7 -33 17 -64 21 -69 4 -4 27
3 51 17 23 13 68 38 98 54 120 65 209 119 307 185 75 50 80 54 70 78 -33 83
-56 134 -77 167 -16 25 -14 27 163 236 53 64 97 119 97 124 0 18 -348 355
-363 352 -8 -2 -83 -61 -166 -131 -83 -71 -156 -128 -162 -128 -6 0 -48 17
-93 38 -44 21 -106 46 -136 56 -30 9 -61 20 -69 25 -9 6 -16 48 -23 132 -5 68
-12 162 -16 209 l-7 85 -252 3 c-162 1 -254 -1 -258 -8z"/>
<path d="M2960 8058 c-63 -32 -110 -104 -110 -167 0 -78 142 -489 280 -811
578 -1346 1531 -2486 2755 -3295 1072 -709 2292 -1122 3576 -1210 275 -19 775
-19 1044 0 1537 108 2963 670 4167 1641 73 60 149 122 168 139 395 356 444
405 795 795 192 214 540 693 715 985 245 409 454 838 610 1255 109 290 153
437 146 487 -16 122 -147 202 -260 159 -83 -32 -105 -66 -169 -258 -160 -483
-362 -925 -637 -1393 -200 -340 -529 -784 -828 -1115 -670 -741 -1540 -1362
-2462 -1755 -606 -258 -1229 -424 -1935 -514 -463 -60 -1183 -58 -1691 4 -653
80 -1294 253 -1904 513 -1852 788 -3291 2352 -3925 4266 -39 119 -73 202 -89
223 -58 72 -161 94 -246 51z"/>
<path d="M4825 7221 c-77 -35 -121 -113 -113 -201 5 -54 76 -178 226 -400 600
-884 1390 -1578 2332 -2050 681 -341 1391 -542 2185 -617 224 -21 805 -24
1000 -5 469 46 774 100 1151 203 247 67 624 201 824 292 518 235 915 476 1345
816 165 131 265 220 439 390 383 376 668 729 940 1163 112 180 124 222 86 307
-49 108 -170 149 -278 94 -39 -20 -47 -32 -205 -282 -86 -137 -116 -180 -241
-346 -211 -281 -597 -689 -866 -915 -548 -461 -1166 -811 -1836 -1040 -943
-323 -1965 -388 -2953 -190 -931 187 -1806 612 -2551 1240 -168 142 -501 474
-641 640 -199 236 -398 512 -544 755 -26 44 -57 91 -69 103 -54 60 -153 79
-231 43z"/>
</g>
</svg>
