<?xml version="1.0" encoding="utf-8"?>
<!-- Generator: Adobe Illustrator 22.0.1, SVG Export Plug-In . SVG Version: 6.00 Build 0)  -->
<svg version="1.1" xmlns="http://www.w3.org/2000/svg" xmlns:xlink="http://www.w3.org/1999/xlink" x="0px" y="0px"
	 viewBox="0 0 800 800" style="enable-background:new 0 0 800 800;" xml:space="preserve">
<style type="text/css">
	.st0{fill:#FFFFFF;}
</style>
<g id="Layer_1">
</g>
<g id="Layer_2">
	<g>
		<g>
			<path class="st0" d="M283.9,80.9c12.2,17.5,24.4,35,36.6,52.5c19.3,27.8,38.7,55.5,58,83.3c4.5,6.4,8.9,12.8,13.4,19.2
				c1.8,2.6,6.2,0.1,4.3-2.5c-12.2-17.5-24.4-35-36.6-52.5c-19.3-27.8-38.7-55.5-58-83.3c-4.5-6.4-8.9-12.8-13.4-19.2
				C286.4,75.8,282.1,78.3,283.9,80.9L283.9,80.9z"/>
		</g>
	</g>
	<g>
		<g>
			<path class="st0" d="M342.5,255.8c-6.1-19.9-12.2-39.9-18.3-59.8c-9.7-31.8-19.4-63.5-29.1-95.3c-2.2-7.3-4.4-14.5-6.7-21.8
				c-0.9-3.1-5.8-1.8-4.8,1.3c6.1,19.9,12.2,39.9,18.3,59.8c9.7,31.8,19.4,63.5,29.1,95.3c2.2,7.3,4.4,14.5,6.7,21.8
				C338.6,260.2,343.4,258.9,342.5,255.8L342.5,255.8z"/>
		</g>
	</g>
	<g>
		<g>
			<path class="st0" d="M300,132.7c6.9,5.7,17.3,8.3,26.1,7.4c3.2-0.3,3.2-5.4,0-5c-7.4,0.8-16.7-1-22.5-5.9
				C301,127.1,297.5,130.6,300,132.7L300,132.7z"/>
		</g>
	</g>
	<g>
		<g>
			<path class="st0" d="M309,163c9,12.1,28,16.8,41.5,10.1c2.9-1.4,0.4-5.7-2.5-4.3c-10.9,5.4-27.4,1.4-34.7-8.3
				C311.4,157.9,307,160.4,309,163L309,163z"/>
		</g>
	</g>
	<g>
		<g>
			<path class="st0" d="M320.7,200.6c13.7,14.5,37.1,19.9,55.7,12.6c3-1.2,1.7-6-1.3-4.8c-17,6.6-38.2,1.9-50.8-11.4
				C322,194.7,318.5,198.3,320.7,200.6L320.7,200.6z"/>
		</g>
	</g>
	<g>
		<g>
			<path class="st0" d="M334.8,243.1c10.1,6.4,23.1,7.8,34.8,6.8c10.2-0.9,23.4-3.6,27.1-14.5c1.1-3-3.8-4.4-4.8-1.3
				c-3.3,9.5-18.2,10.8-26.6,11.1c-9.6,0.3-19.7-1.1-27.9-6.3C334.6,237,332.1,241.3,334.8,243.1L334.8,243.1z"/>
		</g>
	</g>
	<g>
		<g>
			<path class="st0" d="M545.5,192c-7.8-27.3-26.5-49.4-48.8-66.3c-12.4-9.4-25.8-17.3-39.5-24.6c-13.5-7.2-27.2-14.5-42.4-17.1
				c-3.1-0.5-4.5,4.3-1.3,4.8c14.5,2.5,27.6,9.4,40.4,16.2c12.9,6.8,25.6,14.2,37.5,22.9c22.4,16.4,41.6,38.3,49.4,65.5
				C541.6,196.4,546.4,195.1,545.5,192L545.5,192z"/>
		</g>
	</g>
	<g>
		<g>
			<path class="st0" d="M411.6,86.3c2.3,32.9,9.8,65.7,24.7,95.2c6.7,13.4,14.7,29.1,29.1,35.3c14.5,6.3,33.4,9.2,48.9,5.9
				c14.7-3.2,28.4-14,31.2-29.4c0.6-3.1-4.3-4.5-4.8-1.3c-5.9,32.8-51.3,30.9-74.3,19.9c-13.2-6.3-20.7-22.5-26.9-35.1
				c-6.4-13.2-11.3-27.1-15-41.2c-4.2-16.1-6.7-32.5-7.9-49.1C416.4,83.2,411.4,83.1,411.6,86.3L411.6,86.3z"/>
		</g>
	</g>
	<g>
		<g>
			<path class="st0" d="M432.4,160.4c-4.1-5.9-10.1-8.9-16.9-10.9c-8.3-2.4-17-3.9-25.5-5.4c-18.1-3.1-36.6-4.5-54.6,0.1
				c-3.1,0.8-1.8,5.6,1.3,4.8c16.5-4.2,33.5-3.1,50.1-0.4c7.7,1.3,15.4,2.8,23,4.6c6.8,1.6,14.1,3.7,18.2,9.7
				C429.9,165.6,434.3,163.1,432.4,160.4L432.4,160.4z"/>
		</g>
	</g>
	<g>
		<g>
			<path class="st0" d="M339.4,258.9c13.9,5.6,29.1,7,43,0.7c10.1-4.6,21.9-13.3,14.8-25.3c-1.6-2.8-5.9-0.3-4.3,2.5
				c6.2,10.7-10,18-18.1,20.5c-11.2,3.4-23.4,1-34-3.2C337.7,252.9,336.4,257.7,339.4,258.9L339.4,258.9z"/>
		</g>
	</g>
	<g>
		<g>
			<path class="st0" d="M306.2,157.8c-26.1,25-46.9,54.8-57.8,89.5c-10.8,34.3-11.6,71.9,1.9,105.7c13.8,34.3,41.5,58.7,75.4,72.5
				c34.5,13.9,78.1,18.9,110.8-2.4c15.2-9.9,28.3-29.7,18.3-47.9c-3.3-6-11.4-12.3-18.2-7.7c-4.5,3.1-8.9,10.8-6.6,16.3
				c1.2,2.9,6.1,1.6,4.8-1.3c-1.1-2.5,0.2-5.4,1.6-7.5c2.8-4.4,6.5-5.3,10.7-1.5c7.1,6.3,7,17.8,3.8,26
				c-6.2,15.9-24.1,24.9-39.5,29.2c-32.7,9.2-69.4,0.8-98.8-14.7c-29.1-15.4-51-40.2-61-71.7c-9.6-30.4-8.2-62.7,1.2-92.9
				c10.6-34.2,31.1-63.4,56.7-88C312.1,159.1,308.6,155.6,306.2,157.8L306.2,157.8z"/>
		</g>
	</g>
	<g>
		<g>
			<path class="st0" d="M305.9,161.5c-18.3-23.9-42.9-42.1-71.2-52.4c-1.6-0.6-3.1,0.9-3.2,2.4c-1.2,36.8,9.6,73.3,30.8,103.4
				c1.8,2.6,6.2,0.1,4.3-2.5c-20.7-29.5-31.3-64.9-30.1-100.9c-1.1,0.8-2.1,1.6-3.2,2.4c27,9.8,50.8,27.2,68.2,50.1
				C303.5,166.6,307.8,164.1,305.9,161.5L305.9,161.5z"/>
		</g>
	</g>
	<g>
		<g>
			<path class="st0" d="M448.7,202.9c9.6,25.5,4.1,53.2-8.3,76.8c-5.7,10.8-12.9,20.8-21,30c-7.5,8.6-16.1,16.1-24.1,24.2
				c-7.2,7.2-13.6,15.6-15.2,25.8c-1.5,9.7,0.9,20,6.4,28c5.6,8.1,14.1,13.8,23.5,16.5c8.7,2.5,20.1,3.2,28-1.9
				c6.9-4.4,7.2-12,4.3-19c-2.6-6.3-8.3-7.5-12-1.3c-1.7,2.8,2.7,5.3,4.3,2.5c2-3.3,2.8-0.3,3.6,2.3c0.7,2.2,1.4,5.4,0.5,7.7
				c-3.1,8.7-19.3,7-26,5.4c-18.7-4.7-32.9-23.7-26.9-43.2c2.8-9.1,9.6-16.1,16.3-22.5c6.7-6.4,13.5-12.7,19.6-19.6
				c12.3-13.8,22.7-29.4,29.4-46.7c8.2-21.3,10.4-44.5,2.3-66.1C452.4,198.6,447.6,199.9,448.7,202.9L448.7,202.9z"/>
		</g>
	</g>
	<g>
		<g>
			<path class="st0" d="M251.4,355.7c-0.7,29.3-4.5,58.5-11.4,87c-3.4,14.1-7.6,27.9-12.5,41.5c-2.5,7-5.3,14-8.2,20.9
				c-2.4,5.7-5.7,11.6-5.6,18c0.1,5.4,2.6,10.4,5.1,15.1c2.9,5.5,6.1,10.8,9.7,15.9c6.7,9.7,14.6,18.6,23.6,26.2
				c17.7,14.7,42.5,27.2,65.4,17.5c12.2-5.2,22.2-14.5,31.6-23.6c12.2-11.7,23.4-24.5,35.6-36.2c2.3-2.2-1.2-5.8-3.5-3.5
				c-18.7,17.8-34.9,39.8-56.7,53.9c-11.2,7.3-23.2,10-36.3,6.3c-11.7-3.3-22.7-9.7-32-17.4c-8.6-7.1-16.1-15.4-22.6-24.4
				c-3.3-4.6-6.3-9.5-9.1-14.4c-3.4-6.2-7.1-12.5-5.3-19.8c1.4-5.8,4.5-11.2,6.7-16.7c2.7-6.5,5.2-13.2,7.5-19.8
				c4.4-12.5,8.1-25.2,11.3-38c7.1-28.9,10.9-58.6,11.6-88.4C256.5,352.5,251.5,352.5,251.4,355.7L251.4,355.7z"/>
		</g>
	</g>
	<g>
		<g>
			<path class="st0" d="M384.2,538.4c33.1-18.3,70.4-27.3,103.3-46.1c26.6-15.2,50.8-37.4,59.3-67.8c0.9-3.1-4-4.4-4.8-1.3
				c-8.5,30.6-34,52.4-61,67c-31.9,17.3-67.5,26.3-99.3,43.9C378.9,535.6,381.4,540,384.2,538.4L384.2,538.4z"/>
		</g>
	</g>
	<g>
		<g>
			<path class="st0" d="M394.7,144c0.7,0.8,1.2-0.8,1.7-1.4c0.9-1.3,1.9-2.5,2.9-3.7c1.6-1.9,3.4-3.7,5.3-5.4
				c4.1-3.5,8.6-6.3,13.5-8.5c2.9-1.3,0.4-5.6-2.5-4.3c-6.9,3.1-13.1,7.5-18.3,13c-3,3.2-9.8,9.3-6.1,13.8
				C393.2,150,396.7,146.5,394.7,144L394.7,144z"/>
		</g>
	</g>
	<g>
		<g>
			<path class="st0" d="M469.8,112.3c45.7-13,88.1,17.9,119.5,47.6c15.2,14.3,29.1,30.2,40.1,47.9c11.7,19,19.2,39.9,23.8,61.6
				c9,42.8,11,89,2.6,132c-4.1,20.9-10.9,41.3-21.2,59.9c-10.5,19.1-24.4,36-38.1,52.9c-14.8,18.3-29.4,37.2-40.7,58
				c-10.4,19.1-15.1,39.5-9.5,60.9c0.8,3.1,5.6,1.8,4.8-1.3c-5.7-21.9,0.3-42.2,11.4-61.2c11.2-19.2,24.7-36.8,38.6-54.1
				c13.7-17,27.7-34.1,38.2-53.3c10.3-18.8,17.2-39.4,21.3-60.4c8.3-42.9,6.4-88.4-1.9-131.1c-4.3-21.8-11.3-42.9-22.5-62.1
				c-10.6-18.2-24.2-34.5-39.2-49.2c-33.3-32.6-79.1-67-128.6-53C465.4,108.4,466.7,113.2,469.8,112.3L469.8,112.3z"/>
		</g>
	</g>
	<g>
		<g>
			<path class="st0" d="M523.5,218.1c6.6,5.8,9.7,14.1,12.5,22.2c3,8.5,5.6,17.2,7.8,25.9c4.4,17.3,7.2,35,8.5,52.7
				c2.6,35.9-1.2,72-11.2,106.5c-0.9,3.1,3.9,4.4,4.8,1.3c10.4-36.1,14.2-74,11.1-111.4c-1.5-18.2-4.6-36.3-9.3-54
				c-2.5-9.2-5.3-18.4-8.7-27.3c-2.8-7.3-6.1-14.3-12.1-19.5C524.6,212.5,521.1,216,523.5,218.1L523.5,218.1z"/>
		</g>
	</g>
	<g>
		<g>
			<path class="st0" d="M471.1,495.4c-31.3,39.1-51,97.1-28.6,144.9c9.8,20.9,26.7,38.7,47.6,48.7c22.6,10.9,49.1,13,73.2,6.2
				c13.2-3.7,27.4-10.1,36.6-20.6c8.9-10.1,12.7-23.6,11.9-36.8c-0.2-3.2-5.2-3.2-5,0c0.7,12-2.5,24.1-10.5,33.3
				c-7.9,9.1-20,14.8-31.3,18.4c-22.6,7.2-47.8,6.1-69.5-3.4c-20.1-8.8-36.6-24.8-46.7-44.3c-11.3-21.7-13.2-45.7-8.5-69.5
				c5.3-26.8,17.2-52.1,34.3-73.4C476.6,496.5,473.1,492.9,471.1,495.4L471.1,495.4z"/>
		</g>
	</g>
	<g>
		<g>
			<path class="st0" d="M546.2,632.6c0.6,6.3,3.9,12.8,7.5,18c4.3,6.1,11.3,9.1,18.6,10.2c16.1,2.5,33.2-7.1,39.5-22.2
				c1.2-3-3.6-4.3-4.8-1.3c-5.5,13-21.2,21-34.9,18.4c-6.2-1.2-11.6-3.8-15-9.2c-2.6-4-5.4-9.1-5.8-13.9
				C550.9,629.4,545.9,629.4,546.2,632.6L546.2,632.6z"/>
		</g>
	</g>
	<g>
		<g>
			<path class="st0" d="M242.8,329c-21.3,28.8-43.1,57.6-62.4,87.7c-17.5,27.3-31.6,56.7-35.9,89.1c-4.1,31,0.1,63,12,91.9
				c11.2,27.1,29.3,52.8,54.6,68.3c27,16.5,63.2,18.6,88.9-1.7c2.5-2-1-5.5-3.5-3.5c-23.2,18.3-56.2,16.4-80.8,2.1
				c-25.2-14.6-43.3-40-54.4-66.5c-11.4-27.3-15.6-57.6-12.3-87c3.6-31.3,16.7-60,33.3-86.4c19.8-31.6,42.6-61.5,64.8-91.5
				C249,328.9,244.7,326.4,242.8,329L242.8,329z"/>
		</g>
	</g>
	<g>
		<g>
			<path class="st0" d="M246.5,571.8c-14.9,19.2-29.4,44.8-13.1,67.8c6.7,9.5,16.4,16.3,26.8,21.1c12.2,5.7,25.8,9.2,38.8,4.2
				c3-1.2,1.7-6-1.3-4.8c-12,4.7-24.5,1.3-35.8-4c-9.3-4.4-18.2-10.4-24.2-18.9c-14.8-21-1.2-44.2,12.3-61.8
				C251.9,572.8,248.4,569.3,246.5,571.8L246.5,571.8z"/>
		</g>
	</g>
	<g>
		<g>
			<path class="st0" d="M81.9,230.4c13.1-1.1,20-15.6,20.3-27.3c0-1.6-2.5-1.6-2.5,0c-0.2,10.1-6.1,23.8-17.8,24.8
				C80.3,228,80.3,230.5,81.9,230.4L81.9,230.4z"/>
		</g>
	</g>
	<g>
		<g>
			<path class="st0" d="M82.3,230.4c14.4,0.8,15.8,13.7,17.4,25.4c0.2,1.6,2.7,1.6,2.5,0c-0.9-6.7-1.3-14.6-5.1-20.5
				c-3.3-5.1-8.9-7.1-14.7-7.4C80.7,227.8,80.7,230.3,82.3,230.4L82.3,230.4z"/>
		</g>
	</g>
	<g>
		<g>
			<path class="st0" d="M119.9,227.6c-11.6-0.9-17.5-14.6-17.8-24.8c0-1.6-2.5-1.6-2.5,0c0.3,11.7,7.2,26.2,20.3,27.3
				C121.5,230.2,121.5,227.7,119.9,227.6L119.9,227.6z"/>
		</g>
	</g>
	<g>
		<g>
			<path class="st0" d="M119.5,227.6c-5.9,0.3-11.4,2.3-14.7,7.4c-3.8,5.9-4.3,13.7-5.1,20.5c-0.2,1.6,2.3,1.6,2.5,0
				c1.5-11.7,2.9-24.7,17.4-25.4C121.1,230,121.1,227.5,119.5,227.6L119.5,227.6z"/>
		</g>
	</g>
	<g>
		<g>
			<path class="st0" d="M117.6,260.2c6.8-0.6,9.9-8.4,10.1-14.3c0-1.6-2.5-1.6-2.5,0c-0.1,4.3-2.3,11.4-7.6,11.8
				C116,257.8,116,260.3,117.6,260.2L117.6,260.2z"/>
		</g>
	</g>
	<g>
		<g>
			<path class="st0" d="M117.8,260.2c6.5,0.4,6.8,7.1,7.4,12.2c0.2,1.6,2.7,1.6,2.5,0c-0.8-6.7-1.7-14.2-9.9-14.7
				C116.1,257.6,116.1,260.1,117.8,260.2L117.8,260.2z"/>
		</g>
	</g>
	<g>
		<g>
			<path class="st0" d="M135.2,257.5c-5.3-0.5-7.5-7.5-7.6-11.8c0-1.6-2.5-1.6-2.5,0c0.1,5.9,3.3,13.7,10.1,14.3
				C136.8,260.1,136.8,257.6,135.2,257.5L135.2,257.5z"/>
		</g>
	</g>
	<g>
		<g>
			<path class="st0" d="M135.1,257.5c-8.2,0.5-9.1,8-9.9,14.7c-0.2,1.6,2.3,1.6,2.5,0c0.6-5.1,0.9-11.8,7.4-12.2
				C136.7,259.9,136.7,257.4,135.1,257.5L135.1,257.5z"/>
		</g>
	</g>
	<g>
		<g>
			<path class="st0" d="M600.4,107.9c13.1-1.1,20-15.6,20.3-27.3c0-1.6-2.5-1.6-2.5,0c-0.2,10.1-6.1,23.8-17.8,24.8
				C598.8,105.5,598.8,108,600.4,107.9L600.4,107.9z"/>
		</g>
	</g>
	<g>
		<g>
			<path class="st0" d="M600.8,107.9c14.4,0.8,15.8,13.7,17.4,25.4c0.2,1.6,2.7,1.6,2.5,0c-0.9-6.7-1.3-14.6-5.1-20.5
				c-3.3-5.1-8.9-7.1-14.7-7.4C599.2,105.3,599.2,107.8,600.8,107.9L600.8,107.9z"/>
		</g>
	</g>
	<g>
		<g>
			<path class="st0" d="M638.4,105c-11.6-0.9-17.5-14.6-17.8-24.8c0-1.6-2.5-1.6-2.5,0c0.3,11.7,7.2,26.2,20.3,27.3
				C640,107.7,640,105.2,638.4,105L638.4,105z"/>
		</g>
	</g>
	<g>
		<g>
			<path class="st0" d="M638,105c-5.9,0.3-11.4,2.3-14.7,7.4c-3.8,5.9-4.3,13.7-5.1,20.5c-0.2,1.6,2.3,1.6,2.5,0
				c1.5-11.7,2.9-24.7,17.4-25.4C639.6,107.5,639.7,105,638,105L638,105z"/>
		</g>
	</g>
	<g>
		<g>
			<path class="st0" d="M638,613.4c6.9-0.6,10.6-8,10.8-14.2c0-1.6-2.5-1.6-2.5,0c-0.1,4.7-2.8,11.2-8.3,11.7
				C636.5,611,636.4,613.5,638,613.4L638,613.4z"/>
		</g>
	</g>
	<g>
		<g>
			<path class="st0" d="M638.2,613.4c6.8,0.4,7.3,6.5,8.1,12c0.2,1.6,2.7,1.6,2.5,0c-0.5-3.5-0.7-7.6-2.7-10.6
				c-1.8-2.7-4.7-3.7-7.8-3.9C636.6,610.8,636.6,613.3,638.2,613.4L638.2,613.4z"/>
		</g>
	</g>
	<g>
		<g>
			<path class="st0" d="M657,610.7c-5.4-0.4-8.1-7-8.3-11.7c0-1.6-2.5-1.6-2.5,0c0.2,6.2,3.9,13.6,10.8,14.2
				C658.6,613.3,658.6,610.8,657,610.7L657,610.7z"/>
		</g>
	</g>
	<g>
		<g>
			<path class="st0" d="M656.9,610.7c-3.1,0.2-6.1,1.2-7.8,3.9c-2,3-2.3,7.1-2.7,10.6c-0.2,1.6,2.3,1.6,2.5,0
				c0.7-5.5,1.3-11.6,8.1-12C658.5,613.1,658.5,610.6,656.9,610.7L656.9,610.7z"/>
		</g>
	</g>
	<g>
		<g>
			<path class="st0" d="M656.9,574.6c13.1-1.1,20-15.6,20.3-27.3c0-1.6-2.5-1.6-2.5,0c-0.2,10.1-6.1,23.8-17.8,24.8
				C655.3,572.3,655.2,574.8,656.9,574.6L656.9,574.6z"/>
		</g>
	</g>
	<g>
		<g>
			<path class="st0" d="M657.2,574.6c14.4,0.8,15.8,13.7,17.4,25.4c0.2,1.6,2.7,1.6,2.5,0c-0.9-6.7-1.3-14.6-5.1-20.5
				c-3.3-5.1-8.9-7.1-14.7-7.4C655.6,572.1,655.6,574.6,657.2,574.6L657.2,574.6z"/>
		</g>
	</g>
	<g>
		<g>
			<path class="st0" d="M694.9,571.8c-11.6-0.9-17.5-14.6-17.8-24.8c0-1.6-2.5-1.6-2.5,0c0.3,11.7,7.2,26.2,20.3,27.3
				C696.5,574.4,696.4,571.9,694.9,571.8L694.9,571.8z"/>
		</g>
	</g>
	<g>
		<g>
			<path class="st0" d="M694.5,571.8c-5.9,0.3-11.4,2.3-14.7,7.4c-3.8,5.9-4.3,13.7-5.1,20.5c-0.2,1.6,2.3,1.6,2.5,0
				c1.5-11.7,2.9-24.7,17.4-25.4C696.1,574.2,696.1,571.7,694.5,571.8L694.5,571.8z"/>
		</g>
	</g>
	<g>
		<g>
			<path class="st0" d="M126,211.5c-0.2,4.6-7.2,4.7-7.2,0C118.8,206.8,125.8,206.9,126,211.5c0.1,1.6,2.6,1.6,2.5,0
				c-0.2-3.3-2.7-6.1-6.1-6.1c-3.3,0-6.1,2.8-6.1,6.1c0,3.2,2.6,6,5.8,6.1c3.6,0.2,6.2-2.7,6.4-6.1
				C128.6,209.9,126.1,209.9,126,211.5z"/>
		</g>
	</g>
	<g>
		<g>
			<path class="st0" d="M600.2,130.3c-7.7-0.7-7.3-12.3,0.5-12.1C608.5,118.5,607.9,130.2,600.2,130.3c-1.6,0-1.6,2.5,0,2.5
				c4.6-0.1,8.7-3.5,8.8-8.3c0.1-4.6-3.6-8.7-8.3-8.8c-4.5-0.1-8.4,3.4-8.8,7.9c-0.4,5,3.5,8.8,8.2,9.2
				C601.8,133,601.8,130.5,600.2,130.3z"/>
		</g>
	</g>
</g>
</svg>
