<?xml version="1.0" encoding="utf-8"?>
<!-- Generator: Adobe Illustrator 15.1.0, SVG Export Plug-In . SVG Version: 6.00 Build 0)  -->
<!DOCTYPE svg PUBLIC "-//W3C//DTD SVG 1.1//EN" "http://www.w3.org/Graphics/SVG/1.1/DTD/svg11.dtd">
<svg version="1.1" id="Layer_1" xmlns="http://www.w3.org/2000/svg" xmlns:xlink="http://www.w3.org/1999/xlink" x="0px" y="0px"
	 width="150px" height="142px" viewBox="0 0 150 142" enable-background="new 0 0 150 142" xml:space="preserve">
<g>
	<path fill="#9783C0" stroke="#8B79BC" stroke-width="3" stroke-miterlimit="10" d="M74.305,135.525c0,0-94.193-56.55-65.556-78.643
		c0,0,0.817-20.456,12.683-19.229c0,0,9.409-22.091,20.864-15.544c0,0,4.909-16.775,21.275-11.865c0,0,15.136-13.909,25.364,1.228
		c0,0,17.182-6.138,20.456,11.046c0,0,17.182-2.455,18.001,13.909c0,0,17.591,2.454,12.682,18.41
		C140.074,54.836,175.454,66.889,74.305,135.525z"/>
	<path fill="#9783C0" stroke="#8B79BC" stroke-width="3" stroke-miterlimit="10" d="M40.578,112.372l23.518,17.042
		c-4.477-0.166-13.426-0.499-13.426-0.499"/>
	<path fill="#9783C0" stroke="#8B79BC" stroke-width="3" stroke-miterlimit="10" d="M40.71,112.613
		c3.052,5.546,2.858,13.573,10.506,16.302"/>
	<path fill="#9783C0" stroke="#8B79BC" stroke-width="3" stroke-miterlimit="10" d="M87.797,126.134"/>
	<path fill="#9783C0" stroke="#8B79BC" stroke-width="3" stroke-miterlimit="10" d="M84.942,126.453"/>
	<path fill="#9783C0" stroke="#8B79BC" stroke-width="3" stroke-miterlimit="10" d="M97.08,127.627"/>
	<path fill="#9783C0" stroke="#8B79BC" stroke-width="3" stroke-miterlimit="10" d="M95.248,130.01"/>
	<path fill="#9783C0" stroke="#8B79BC" stroke-width="3" stroke-miterlimit="10" d="M109.099,108.678"/>
	<g>
		<path fill="#9783C0" d="M84.025,124.796c0,0.41-0.819,1.228-0.819,1.639c0.819-0.411,2.046-0.819,2.864-1.229
			c-0.408,2.864-1.226,0.817-1.635,0.817"/>
		<g>
			<path fill="#8B79BC" d="M81.141,125.207c-0.015,0.128-0.187,0.458,0.021,0.098c-0.09,0.156-0.196,0.305-0.296,0.455
				c-0.215,0.323-0.5,0.692-0.544,1.086c-0.077,0.688,0.463,0.942,1.076,1.036c1.237,0.188,2.47-0.208,3.564-0.743
				c-0.809,0.396-0.022,0.024,0.15-0.048c0.237-0.1,0.477-0.194,0.715-0.289c0.68-0.272,1.34-0.57,1.999-0.892
				c-1.547-0.098-3.094-0.195-4.641-0.293c-0.045,0.295-0.098,0.586-0.176,0.874c-0.03,0.113-0.073,0.222-0.12,0.329
				c0.042-0.078,0.084-0.155,0.126-0.232c-0.255,0.315-0.009,0.123,0.738-0.578c0.472-0.188,0.944-0.377,1.416-0.565
				c0.23-0.048,0.46-0.096,0.69-0.144c0.455-0.005,0.91-0.011,1.366-0.016c-0.193-0.018-0.066,0.018,0.381,0.104
				c0.383,0.143,0.344,0.229,0.186,0.102c-0.1-0.079-0.186-0.176-0.272-0.267c-0.344-0.361-0.772-0.586-1.276-0.647
				c-1.382-0.167-3.001,0.221-4.099,1.099c-0.309,0.247-0.729,0.672-0.607,1.125c0.119,0.445,0.7,0.623,1.089,0.671
				c-0.283-0.029-0.536-0.13-0.758-0.304c0.043,0.027,0.08,0.065,0.117,0.101c0.091,0.084,0.174,0.179,0.261,0.267
				c0.354,0.359,0.858,0.607,1.362,0.645c1.732,0.13,3.462-0.357,4.71-1.595c0.436-0.431,0.549-1.22,0.636-1.789
				c0.104-0.686-0.486-0.945-1.076-1.036c-1.238-0.188-2.468,0.209-3.564,0.743c0.811-0.395,0.023-0.025-0.149,0.047
				c-0.237,0.1-0.477,0.193-0.715,0.289c-0.681,0.272-1.341,0.57-2,0.893c1.547,0.098,3.094,0.195,4.641,0.293
				c0.015-0.128,0.187-0.459-0.021-0.098c0.09-0.157,0.195-0.306,0.296-0.455c0.215-0.323,0.499-0.692,0.544-1.086
				c0.138-1.22-1.661-1.131-2.442-1.02c-0.763,0.108-1.526,0.348-2.198,0.727C81.922,124.287,81.194,124.732,81.141,125.207
				L81.141,125.207z"/>
		</g>
	</g>
	<path fill="#9783C0" stroke="#8B79BC" stroke-width="3" stroke-miterlimit="10" d="M8.75,56.882c0,0,51.037,75.585,65.854,75.931"
		/>
	<path fill="#9783C0" stroke="#8B79BC" stroke-width="3" stroke-miterlimit="10" d="M21.432,37.653c0,0,35.879,90.561,51.768,95.087
		"/>
	<path fill="#9783C0" stroke="#8B79BC" stroke-width="3" stroke-miterlimit="10" d="M42.296,22.108c0,0,5.002,71.448,32.009,113.417
		"/>
	<path fill="#9783C0" stroke="#8B79BC" stroke-width="3" stroke-miterlimit="10" d="M63.577,10.243
		c0,0,2.449,117.975,11.729,124.448"/>
	<path fill="#9783C0" stroke="#8B79BC" stroke-width="3" stroke-miterlimit="10" d="M88.936,11.471
		c0,0-9.562,128.041-12.169,122.108"/>
	<path fill="#9783C0" stroke="#8B79BC" stroke-width="3" stroke-miterlimit="10" d="M111.014,22.397"/>
	<path fill="#9783C0" stroke="#8B79BC" stroke-width="3" stroke-miterlimit="10" d="M109.392,22.517
		c0,0-12.164,77.349-28.834,108.719"/>
	<path fill="#9783C0" stroke="#8B79BC" stroke-width="3" stroke-miterlimit="10" d="M127.393,36.426c0,0-24.699,78.19-45.356,93.826
		"/>
	<path fill="#9783C0" stroke="#8B79BC" stroke-width="3" stroke-miterlimit="10" d="M140.074,54.836
		c0,0-23.706,54.103-44.753,66.014"/>
	<path fill="#9783C0" stroke="#8B79BC" stroke-width="3" stroke-miterlimit="10" d="M53.167,121.62"/>
	<path fill="#9783C0" stroke="#8B79BC" stroke-width="3" stroke-miterlimit="10" d="M91.1,121.62"/>
	<path fill="#9783C0" stroke="#8B79BC" stroke-width="3" stroke-miterlimit="10" d="M83.312,128.404"/>
	<path fill="#9783C0" stroke="#8B79BC" stroke-width="3" stroke-miterlimit="10" d="M96.243,129.545"/>
	<path fill="#9783C0" stroke="#8B79BC" stroke-width="3" stroke-miterlimit="10" d="M96.558,129.226"/>
	<path fill="#9783C0" stroke="#8B79BC" stroke-width="3" stroke-miterlimit="10" d="M107.24,110.627"/>
	<path fill="#9783C0" stroke="#8B79BC" stroke-width="3" stroke-miterlimit="10" d="M40.578,112.372"/>
	<path fill="#9783C0" stroke="#8B79BC" stroke-width="3" stroke-miterlimit="10" d="M95.889,129.214
		c7.646-2.894,7.453-11.404,10.506-17.28L83.01,129.713c4.475-0.166,8.95-0.333,13.425-0.499"/>
</g>
<rect x="33.35" y="32.62" fill="#F9F9F9" stroke="#F9F9F9" stroke-miterlimit="10" width="6.342" height="74.376"/>
<rect x="39.692" y="63.633" fill="#F9F9F9" stroke="#F9F9F9" stroke-miterlimit="10" width="10.269" height="12.99"/>
<rect x="48.234" y="32.94" fill="#F9F9F9" stroke="#F9F9F9" stroke-miterlimit="10" width="7.467" height="74.375"/>
<rect x="57.514" y="69.898" fill="#F9F9F9" stroke="#F9F9F9" stroke-miterlimit="10" width="6.342" height="37.416"/>
<rect x="63.856" y="69.898" fill="#F9F9F9" stroke="#F9F9F9" stroke-miterlimit="10" width="8.759" height="6.725"/>
<rect x="63.856" y="84.777" fill="#F9F9F9" stroke="#F9F9F9" stroke-miterlimit="10" width="7.551" height="5.738"/>
<rect x="63.856" y="99.276" fill="#F9F9F9" stroke="#F9F9F9" stroke-miterlimit="10" width="8.759" height="8.038"/>
<rect x="58.721" y="32.94" fill="#F9F9F9" stroke="#F9F9F9" stroke-miterlimit="10" width="5.135" height="31.817"/>
<line fill="#F9F9F9" stroke="#F9F9F9" stroke-miterlimit="10" x1="67.631" y1="32.94" x2="76.654" y2="63.633"/>
<polyline fill="#F9F9F9" stroke="#F9F9F9" stroke-miterlimit="10" points="65.743,52.459 63.856,52.459 63.856,48.287 
	63.856,48.287 63.856,52.459 65.743,52.459 65.743,52.459 "/>
<rect x="74.403" y="69.808" fill="#F9F9F9" stroke="#F9F9F9" stroke-miterlimit="10" width="7.69" height="37.506"/>
<path fill="#F9F9F9" stroke="#F9F9F9" stroke-miterlimit="10" d="M89.64,68.603H74.403v6.943H90.12v-6.734
	C89.931,68.779,89.77,68.706,89.64,68.603z"/>
<rect x="93.456" y="32.94" fill="#F9F9F9" stroke="#F9F9F9" stroke-miterlimit="10" width="6.658" height="31.817"/>
<rect x="60.685" y="47.082" fill="#F9F9F9" stroke="#F9F9F9" stroke-miterlimit="10" width="7.55" height="5.377"/>
<path fill="#9783C0" stroke="#9783C0" stroke-miterlimit="10" d="M13.325,121.592"/>
<polyline fill="#F9F9F9" stroke="#F9F9F9" stroke-miterlimit="10" points="99.196,42.261 106.54,34.226 113.658,34.226 
	102.639,47.082 115.723,64.757 108.377,64.757 99.196,55.115 "/>
<polyline fill="#F9F9F9" stroke="#F9F9F9" stroke-miterlimit="10" points="65.823,52.459 70.149,64.757 77.189,64.757 67.789,32.94 
	63.856,32.94 63.856,40.648 67.789,48.849 "/>
<path fill="#F9F9F9" stroke="#F9F9F9" stroke-miterlimit="10" d="M87.259,86.565c12.769-7.116,5.585-17.962,2.769-17.677
	c-0.006,0-0.009,0.001-0.015,0.001c-0.1,0,0.101,0.019,0.015-0.001l-1.621,7.734c0.062,0.203-0.166,2.107-0.689,2.138
	c0.039,0.138,0.352-0.348,0.357-0.198c0.021,0.426,0,0-0.357,0.198l-0.458,0.229l-2.067,0.229h-3.098v12.396l7.69,11.679h10.33
	L87.259,86.565z"/>
<polyline fill="#F9F9F9" stroke="#F9F9F9" stroke-miterlimit="10" points="88.406,75.546 89.784,75.546 89.784,78.761 
	88.406,78.761 "/>
<path fill="#F9F9F9" stroke="#F9F9F9" stroke-miterlimit="10" d="M91.332,53.376h-3.845c-0.031,0.064-0.062,0.126-0.093,0.188
	c0.101,2.22-1.055,4.958-3.728,4.482c-2.048-0.366-2.789-2.362-2.781-4.229c-0.015-0.072-0.026-0.144-0.033-0.216
	c-0.013-0.043-0.026-0.086-0.036-0.129c-0.051-0.06-0.08-0.096-0.08-0.096V43.179c0.039-0.202,0.086-0.391,0.135-0.572
	c-0.092-1.739,0.343-3.286,2.255-3.483c0.225-0.022,0.41,0.016,0.567,0.089c0.209,0.019,0.416,0.056,0.618,0.112
	c1.76,0.297,2.54,2.029,2.543,3.855h4.478c1.301-10.007-9.009-9.642-9.009-9.642c-9.776,2.733-5.44,16.23-5.44,16.23
	c-3.854,12.074,5.44,14.785,5.44,14.785C93.206,65.933,91.332,53.376,91.332,53.376z"/>
<rect x="75.924" y="42.261" fill="#F9F9F9" stroke="#F9F9F9" stroke-miterlimit="10" width="4.812" height="11.784"/>
<rect x="88.118" y="75.546" fill="#F9F9F9" stroke="#F9F9F9" stroke-miterlimit="10" width="1.264" height="3.215"/>
<path fill="#F9F9F9" stroke="#F9F9F9" stroke-miterlimit="10" d="M107.46,77.729"/>
<path fill="#F9F9F9" stroke="#F9F9F9" stroke-miterlimit="10" d="M118.588,80.827L118.588,80.827
	c-0.05-0.094-0.142-0.192-0.267-0.291c-0.346-0.336-0.75-0.575-1.221-0.689c0,0-0.024-0.003-0.069-0.009
	c-3.299-1.411-10.598-3.114-11.345-4.26c-0.228-0.354-0.379-0.7-0.423-1.023c-0.127-0.399-0.053-0.87,0.22-1.186
	c0.022-0.32,0.164-0.641,0.478-0.879c0.505-0.383,1.031-0.602,1.566-0.698c0.147-0.131,0.336-0.222,0.571-0.252
	c0.586-0.243,1.294-0.336,2.06-0.258c2.053,0.211,4.022,0.864,5.914,1.667c0.106,0.045,0.19,0.1,0.265,0.158
	c0.224,0.037,0.444,0.077,0.665,0.12l1.017-1.587l1.359-2.124c0,0-1.241-1.234-3.563-2.323c-2.32-1.091-5.722-2.039-10.04-1.463
	c0,0-3.371,0.085-6.106,1.592c-2.735,1.506-4.836,4.432-2.292,10.114c0,0,0.34,0.745,1.325,1.679
	c0.986,0.934,2.617,2.052,5.201,2.798c0,0,1.176,0.145,2.511,0.831c1.333,0.69,2.826,1.923,3.457,4.105c0,0,0.172,1.635,0,3.256
	c-0.173,1.62-0.69,3.228-2.066,3.171c0,0-1.464,0.366-3.416-0.074c-1.949-0.442-4.389-1.695-6.341-4.931h-0.459l-4.132,2.594
	c0,0,0.976,2.955,2.755,6.011c1.779,3.058,4.363,6.213,7.575,6.616c0,0,3.264,0.803,6.844,0.386c3.579-0.416,7.479-2.052,8.748-6.93
	c0,0,0.723-3.959,0.799-8.077C120.234,85.707,119.912,82.453,118.588,80.827z"/>
<g>
	<path d="M90.573,64.624c0,0.796,0,1.434,0,2.229"/>
</g>
<g>
	<path fill="#909090" d="M90.414,67.651"/>
	<g>
		<path fill="#9783C0" d="M90.062,68.289c0.841,0,2.01-1.276,0.703-1.276C89.925,67.013,88.756,68.289,90.062,68.289L90.062,68.289z
			"/>
	</g>
</g>
<g>
	<g>
		<path fill="#9783C0" d="M89.29,64.233c-0.113,0.887,0.337,1.897-0.116,2.711c-0.479,0.858,1.474,0.713,1.814,0.101
			c0.566-1.015,0.105-1.952,0.241-3.023C91.338,63.174,89.382,63.507,89.29,64.233L89.29,64.233z"/>
	</g>
</g>
<g>
	<g>
		<path fill="#9783C0" d="M89.812,67.801c0.396,0,2.198-0.776,1.256-0.776C90.671,67.024,88.869,67.801,89.812,67.801L89.812,67.801
			z"/>
	</g>
</g>
</svg>
