<svg xmlns="http://www.w3.org/2000/svg" viewBox="0 0 1000 423"><defs><style>.cls-1{fill:none;}.cls-2{fill:#099;fill-rule:evenodd;}</style></defs><title>Siemens</title><g id="BoundingBox"><polygon class="cls-1" points="0 423 1000 423 1000 0 0 0 0 0 0 423"/></g><g id="Ingenuity_for_life" data-name="Ingenuity for life"><path d="M348.54,317.1l.05.9c.17,2.8.28,5.52.33,8.1v.19l-.16.11c-12.11,8.12-19.64,16.88-23,26.78-2.62,7.67-2.18,15,1.16,19.71a11.6,11.6,0,0,0,9.86,4.87c7.19,0,12.86-5.46,16.85-16.25,4.14-11.18,5.46-25.36,5.84-35.28V326l.16-.1a158.89,158.89,0,0,1,18.47-9.56l.27-.12.17.25a23.24,23.24,0,0,0,18,9.38c9.42,0,18.6-7.28,22.12-10.41l.46-.41.12.61a10.06,10.06,0,0,0,5,6.8c4.57,2.83,8.17,2.88,10.94.1,2.06-2.07,3.68-4,5.1-5.63a39.63,39.63,0,0,1,7.83-7.59c1.42-1,2.85-.6,3.78,1,5.65,9.67,12.14,15,18.77,15.54,2,.14,3.59-.44,3.84-1.33.17-.6-.33-1.32-1.37-2-4.23-2.63-7.88-7.94-11.15-16.23-1.12-2.81-2.61-4.6-7.66-6.57a7.25,7.25,0,0,0-2.63-.55,7,7,0,0,0-4.06,1.6l-.31.21c-3.48,2.33-7.67,6.69-10.73,9.86-1.39,1.44-2.59,2.69-3.36,3.37-1.33,1.17-2.33,1.39-2.92.77a2.74,2.74,0,0,1-.5-1.92c.17-4.72,1.5-9.52,4.3-15.54a3.44,3.44,0,0,0,.19-2.86c-.49-1.16-1.77-2.13-3.7-2.8a9.65,9.65,0,0,0-3.15-.64c-2.32,0-3.4,1.48-4.3,3.71a52.62,52.62,0,0,0-3.37,12.22l0,.11-.08.08c-8.4,8.22-15.83,12.38-22.09,12.38-4.89,0-8.07-2.83-8.73-7.78l0-.26.24-.11c6.91-3.12,13.75-6.55,17-10.52,2.37-2.9,1.92-5.51,1.13-7.18a10.73,10.73,0,0,0-9.08-5.59c-4.56,0-21.34,8.45-21.37,23.2v.23l-.21.09c-4,1.76-10.1,4.46-16.08,7.62l-.59.31.08-.67a65.33,65.33,0,0,1,4.53-17.67c.76-1.62,1-2.72.64-3.56s-1.21-1.57-3-2.41a5.84,5.84,0,0,0-6.37.64l-.31.26-.22-.35a7.86,7.86,0,0,0-6.41-3.34c-8.84,0-21.83,15.22-22.79,21.21a5.55,5.55,0,0,0,1.5,4.56,15,15,0,0,0,11,4.61c3.74-.22,7.56-2.9,9.52-5.3Zm246.63.33-.24.52c-1.95,4.11-3.81,8.62-5.78,13.38-5.5,13.34-11.75,28.46-23.34,43.65a1.79,1.79,0,0,0-.46,1.81,1.66,1.66,0,0,0,1.57.72,5,5,0,0,0,2.62-.86c7.76-4.94,18.79-21.5,30.27-45.44,8.66-18,14.27-24,18.78-28.83.54-.58,1.08-1.15,1.59-1.72a2.39,2.39,0,0,0,.79-2.18c-.29-1.12-1.74-2.18-4.08-3-3.24-1.12-5.71-.7-7.49,1.31l-.21.24c-5.87,6.66-13.59,14.6-17,14.6a2.81,2.81,0,0,1-2.15-.9c-1.65-1.79-1.33-5.78-1.1-8.69,0-.5.08-1,.1-1.35.13-2.5-1.25-3.78-4.78-4.42-2.68-.49-11.56-1-18.36-1.38l-.41,0,.08-.4c1.93-10.19,5.08-20.14,7.85-24.75,1-1.74,1.81-3.15,1.41-4.12-.33-.81-1.52-1.45-3.73-2a10,10,0,0,0-2.46-.34c-3.59,0-4.67,2.68-5.39,4.46A122.14,122.14,0,0,0,556,294.21l0,.31h-.31c-1.8-.05-3.31-.07-4.37-.05-1.22,0-2,.25-2.26.72s-.22,1.15.19,2.11a8.72,8.72,0,0,0,5.57,5.06l.28.08,0,.29c-.14,2-.22,4-.23,5.94-.08,9.85,2.88,15.66,8.55,16.79a3.84,3.84,0,0,0,.74.07c.75,0,1.73-.2,2.06-.76a1.36,1.36,0,0,0-.19-1.36c-2.83-5-2.4-14.37-1.55-21.37l0-.27.26,0a105.47,105.47,0,0,1,11.64-1.25h.1a2.08,2.08,0,0,1,1.6.52,2.28,2.28,0,0,1,.41,1.77c-.09,1.49-.12,6.62,3.44,10.4,2.78,3,7.07,4.4,12.75,4.27ZM335.64,373.08a3.89,3.89,0,0,1-3.29-1.75c-1.23-1.76-2.71-6.37,1.29-17.44,2.6-7.19,7.4-13.68,14.67-19.86l.6-.51,0,.79C348.26,357.14,342.81,373.08,335.64,373.08Zm508.22-59.77-.07.42c-1.75,10.94-2.5,21.28-2,27.68.66,8.55,3.36,11,5.34,12.14,1.61.91,3.22,1.19,3.78.57a2,2,0,0,0,.28-1.6c-1.2-10.34-.27-25.07,2.55-40.43l0-.23.23,0c4.69-1,9.71-2.25,14.17-3.6l.52-.16-.07.54c-.44,3.44,1.1,7.45,4.22,11C878.69,326.2,888.7,330,900.31,330c6.78,0,12.67-2.65,14.68-4.54a2.34,2.34,0,0,0,1-2.16c-.15-.39-.71-.48-1.51-.25a46.47,46.47,0,0,1-12.55,1.81c-9.23,0-16.57-3.15-20.14-8.64l-.31-.48.57-.06c7.08-.82,15.71-4.88,17.08-8.06a6.85,6.85,0,0,0-.73-6.7,13.66,13.66,0,0,0-10.73-5.71,23.54,23.54,0,0,0-15.17,6.43l-.07.07-.09,0a152.08,152.08,0,0,1-16.64,3.22l-.5.07.11-.49a148.74,148.74,0,0,1,8.29-26.62c1-2.3,2-3.75,3.87-3.85s3.09,1,3.87,3.17a1.54,1.54,0,0,0,1.28,1.18c.6,0,1.21-.57,1.73-1.62,1.05-2.13.21-6.65-3.56-9.18a11.89,11.89,0,0,0-6.47-2.34,7.18,7.18,0,0,0-6.15,3.68c-5.13,8-9.69,21-12.83,36.53l-.06.28h-.46a35.44,35.44,0,0,1-5.68-.4c-1.57-.26-2.61,0-3,.68-.5.93.07,2.74,1.55,5s3.36,2.38,5.78,2.33Zm-187.64-2.83-.09.52a135.5,135.5,0,0,0-2,25.08c.3,7.23,1.72,11.52,4.33,13.11a4.88,4.88,0,0,0,2.42.68,1.86,1.86,0,0,0,2.06-2.35c-1-8.9.31-23.74,3.35-38.74l0-.24.24,0c5.09-.82,10.46-1.49,15.53-1.92l.83-.07-.52.65c-1,1.28-1.55,3.16-1.55,5.73,0,5.77,7.53,14.14,19.33,14.14,7,0,15.39-6.08,15.39-13.62a16.1,16.1,0,0,0-15.62-16.13,12.71,12.71,0,0,0-8.75,3.88l-.1.11h-.15c-1.87,0-3.73,0-5.59,0-6.19,0-11.92.16-17,.47l-.47,0,.11-.46c2.59-10.66,5.68-19.48,8.94-25.5,1.3-2.4,2.18-3.5,4-3.69l.39,0c1.72,0,3.13,1.24,4.19,3.68a1.48,1.48,0,0,0,1.28,1,2.72,2.72,0,0,0,1.94-1.32,5.82,5.82,0,0,0,.68-4.7,9.1,9.1,0,0,0-4.79-6,13.8,13.8,0,0,0-6.16-1.78c-2.61,0-4.78,1.23-6.62,3.77-7.37,10.17-11.67,25.06-14,35.76l-.05.25-.25,0c-8,1-14.43,2.58-19.1,4.65-1.25.56-1.92,1.2-2,1.89-.08.93.87,2.08,2.75,3.35,2.93,2,5.27,2.26,7.62,1a39.74,39.74,0,0,1,9-2.92Zm160.39,3.39,0,1.12c-.28,6.68,1.54,11.31,5.54,14.17a5.88,5.88,0,0,0,3.19,1.14,1.54,1.54,0,0,0,1.26-.45,1.36,1.36,0,0,0,.1-1.21c-1.57-5.73-1-13.22,1.66-20.55,1.34-3.75,1.92-6-1.94-8.13-2.95-1.65-5.07-1.7-6.25-.07-.12.17-.24.34-.36.52l-.24.36c-6.78,9.92-17.21,21.51-24.23,21.51a3.65,3.65,0,0,1-2.79-1.21c-1.5-1.62-2.07-4.75-1.7-9.29.95-11.56,6-28.29,11.19-37.28,1.31-2.25,1.68-3.64,1.2-4.49s-1.73-1.21-3.83-1.24h-.24c-4.93,0-6.76,2.57-7.9,5.08-4.38,9.67-9.67,24.41-9.93,39.76a14,14,0,0,0,4.1,10.38,17.38,17.38,0,0,0,11.1,5.15c7.39,0,15.35-9,19.44-14.36Zm-555-53.45a3.73,3.73,0,0,0-3.88,3.12c-.46,2.44-1.31,6.15-2.3,10.45-2.57,11.17-6.09,26.46-7,37.39-1.11,13.86,2,16.83,5.47,18a1.86,1.86,0,0,0,2-.24,2.74,2.74,0,0,0,.56-2c-.1-11.87,7.84-44.18,12-57.46,1.55-5,.2-6.73-2.82-8.17A9.5,9.5,0,0,0,261.58,260.42Zm466.1,38.23a2.86,2.86,0,0,0-2.28.8,2.18,2.18,0,0,0-.12,2c1.29,4.24-.36,12.07-1.34,16.75-.15.71-.28,1.35-.39,1.88-.74,3.8,1,4.83,3.44,6.25a6.79,6.79,0,0,0,3.33,1,2.83,2.83,0,0,0,2.89-2.13c2.73-8.66,10.48-23.33,31.58-24.28a1.12,1.12,0,0,0,1.1-1,2.44,2.44,0,0,0-1.73-2.53,13.54,13.54,0,0,0-5.33-.9c-6.76,0-15.59,2.94-22,7.32l-.4.27-.14-.46c-.2-.67-3.43-3.92-6.57-4.71A8.48,8.48,0,0,0,727.68,298.65Zm-446-8.51c-2.17,0-3.21,1.48-4.18,3.87-2,4.87-4.55,15.12-5.6,22.37-.67,4.56.59,6.18,3.86,8.3,3.73,2.42,7.52,2.53,9.61.22.9-1,1.84-2.06,2.8-3.14,4.25-4.8,9.07-10.24,13.25-13.25a1.66,1.66,0,0,1,2.61,1c5,13.32,13.1,15.31,17.51,15.31a15.38,15.38,0,0,0,1.87-.12,2.53,2.53,0,0,0,2.48-2.27c0-.61-.49-1-1.24-1h-.22c-6.61,0-8-6.58-9.85-15.69l-.19-.94c-.63-3.08-2.84-5.4-6.38-6.71a7.7,7.7,0,0,0-2.68-.54,7,7,0,0,0-4.26,1.75c-3.4,2.43-8.13,7.31-11.94,11.24-3.53,3.63-5.25,5.39-5.92,5.54l-.51.12.08-.52a91,91,0,0,1,5.67-19.13,3.31,3.31,0,0,0,.12-2.64,6.27,6.27,0,0,0-3.63-3A8.75,8.75,0,0,0,281.69,290.14Zm225.58,20.69,0,.78c.38,8.64,6.26,13,9.06,13.71,1.64.44,3,.22,3.42-.5a1.34,1.34,0,0,0-.15-1.35c-3.9-6.61-1.51-19-1.23-20.37.86-4.19-1.33-5.54-3.66-7l-.11-.07a6.27,6.27,0,0,0-3.16-1,2.07,2.07,0,0,0-2,1.14c-3.22,7.5-13.6,18.56-18.64,18.56a3.62,3.62,0,0,1-3.28-1.62c-1.71-2.69-.23-8.08,1.72-12.22,1.26-2.7.59-4.4-2.42-6.06a8.69,8.69,0,0,0-4-1.25,3.22,3.22,0,0,0-3.17,2,59.42,59.42,0,0,0-3.76,13.4,10.52,10.52,0,0,0,2.72,8.49c2.63,3.1,6.62,5.18,9.91,5.18,4.32,0,10.29-3.7,18.25-11.31Zm27.79-17.21c-2,0-3.15,1.38-4,4.63-2.36,8.94-2,16.83,1,21.63a9.5,9.5,0,0,0,6.36,4.54c1.52.3,2.75.06,3.16-.58a1.14,1.14,0,0,0,0-1.1c-2.26-5-2.91-13.72.21-20.84,1.58-3.6.81-5.55-2.84-7.19A10,10,0,0,0,535.07,293.62Zm163.21,26.95a6.22,6.22,0,0,1-4.93-2.19,6.79,6.79,0,0,1-1.27-5.66c.72-3.67,5.05-8.15,9.09-8.15a5.78,5.78,0,0,1,4.35,1.86,7.67,7.67,0,0,1,2,5.34C707.13,316.46,702.83,320.57,698.28,320.57Zm-358.8-4.71a1.68,1.68,0,0,1-1.42-.64,2.83,2.83,0,0,1-.18-2.5c1-3.29,8.13-13.88,11.48-13.88a2.87,2.87,0,0,1,2.36,1.39,4.92,4.92,0,0,1,.32,4.57C350,309.8,343.89,315.86,339.48,315.86Zm540.09-5.4,0-.37c-.51-4.72,2.87-7.61,6.19-8.75a5.11,5.11,0,0,1,1.65-.28,3.47,3.47,0,0,1,3.22,1.68A3,3,0,0,1,890,306c-2.09,2.75-7.19,3.95-10.05,4.42Zm-490.48-4.15.15-.72c1-4.86,3.56-8.63,7.1-10.62a3.63,3.63,0,0,1,1.78-.46,2.87,2.87,0,0,1,2.75,1.59c.25.63.38,1.95-1.51,3.7a42.56,42.56,0,0,1-9.61,6.19ZM832.3,269.63a2.88,2.88,0,0,0-2.27.76c-.71.93-.31,2.21.14,3.12,1.69,3.4,6.63,7,9.61,7a2.22,2.22,0,0,0,1.94-.89c.87-1.23-.1-5.16-2.85-7.33A11.16,11.16,0,0,0,832.3,269.63ZM538,269.37a2.11,2.11,0,0,0-1.77.79,3,3,0,0,0-.17,3.42c1.42,2.88,6,5.7,9.3,5.7a3.06,3.06,0,0,0,2.54-1c.35-.44,0-1.26-.17-1.7C546.26,273.55,541.08,269.37,538,269.37Z"/></g><g id="SIEMENS"><path class="cls-2" d="M107.32,210.31V189.68q17.62,5.54,31.18,5.54,18.72,0,18.72-9.89a8.08,8.08,0,0,0-2.73-6.2q-2.79-2.66-14.29-7.38-20.62-8.48-26.89-14.46-8.11-7.9-8.11-19.92,0-15.5,11.81-23.61t30.42-8q10.33,0,29.9,3.81v19.85q-14.55-5.81-27-5.81-17.58,0-17.58,9.67a6.81,6.81,0,0,0,3.54,5.9q2.95,1.85,16.23,7.83,19.12,8.49,25.46,14.77,7.53,7.45,7.53,19.27,0,17-14.76,25.91-12,7.24-31,7.23a142.21,142.21,0,0,1-32.4-3.8Z"/><polygon class="cls-2" points="201.98 107.52 201.98 107.52 231.16 107.52 231.16 212 201.98 212 201.98 107.52"/><polygon class="cls-2" points="257.93 212 257.93 107.52 332.78 107.52 332.78 126.42 286.06 126.42 286.06 150.01 326.73 150.01 326.73 167.25 286.06 167.25 286.06 192.04 333.98 192.04 333.98 212 257.93 212 257.93 212"/><polygon class="cls-2" points="353.03 212 353.03 107.52 390.87 107.52 417.16 174.28 444.11 107.52 480.05 107.52 480.05 212 452.38 212 452.38 138.03 421.74 213.06 403.65 213.06 373.6 138.03 373.6 212 353.03 212 353.03 212"/><polygon class="cls-2" points="506.82 212 506.82 107.52 581.67 107.52 581.67 126.42 534.95 126.42 534.95 150.01 575.62 150.01 575.62 167.25 534.95 167.25 534.95 192.04 582.88 192.04 582.88 212 506.82 212 506.82 212"/><polygon class="cls-2" points="602.08 212 602.08 107.52 635.91 107.52 671.79 177.46 671.79 107.52 692.35 107.52 692.35 212 659.48 212 622.65 141.12 622.65 212 602.08 212 602.08 212"/><path class="cls-2" d="M713.07,210.31V189.68q17.47,5.54,31.18,5.54,18.72,0,18.72-9.89a8.21,8.21,0,0,0-2.65-6.2q-2.81-2.66-14.37-7.38-20.56-8.41-26.89-14.46-8.1-7.83-8.1-20,0-15.43,11.81-23.54t30.42-8q10.54,0,27.31,3.36l2.58.45v19.85q-14.56-5.81-27.1-5.81-17.51,0-17.5,9.67a6.81,6.81,0,0,0,3.53,5.9q2.81,1.78,16.31,7.83,19,8.49,25.39,14.77,7.54,7.45,7.53,19.27,0,17-14.69,25.91-12,7.24-31.08,7.23a142.13,142.13,0,0,1-32.41-3.8Z"/></g></svg>