<?xml version="1.0" encoding="utf-8"?>
<!-- Generator: Adobe Illustrator 19.2.0, SVG Export Plug-In . SVG Version: 6.00 Build 0)  -->
<svg version="1.1" id="Layer_1" xmlns="http://www.w3.org/2000/svg" xmlns:xlink="http://www.w3.org/1999/xlink" x="0px" y="0px"
	 viewBox="0 0 488.8 300.5" style="enable-background:new 0 0 488.8 300.5;" xml:space="preserve">
<style type="text/css">
	.st0{fill:#FFFFFF;}
</style>
<title>10</title>
<g id="Layer_1-2">
	<g>
		<path class="st0" d="M167.2,87.5h167h8.6h89.8l-16.4-16.4h-65.6V31.2v-7.4l-4.8-2.2c-18.1-8.2-40.3-13.9-64.2-16.5
			c0,0-23.1-1.6-30.8-1.6c-7.7,0-30.8,1.6-30.8,1.6c-24,2.6-46.1,8.3-64.2,16.5l-4.8,2.2v47.3H81.4L65.2,87.5h86.5H167.2z
			 M224.2,21.2l2.6-0.3c0,0,18-1.1,24-1.1s24,1.1,24,1.1l2.6,0.3c21.1,2.1,40.7,6.7,56.9,13.3v45.6h-167V34.5
			C183.5,27.9,203,23.3,224.2,21.2z"/>
		<polygon class="st0" points="71.4,174.5 71.4,104.4 54.6,104.4 54.6,131.5 28.4,131.5 28.4,104.4 11.5,104.4 11.5,174.5 
			28.4,174.5 28.4,147.2 54.6,147.2 54.6,174.5 		"/>
		<path class="st0" d="M115.3,104.4l-28,70.1h18.1l4-11h27.7l4,11h18.1l-28-70.1H115.3z M114.8,148.7l5-13.6
			c1.5-4,3.3-10.3,3.4-10.3h0.1c0.1,0,1.9,6.3,3.4,10.3l5,13.6H114.8z"/>
		<path class="st0" d="M204.6,119.6c5.5,0,11.5,2.5,14.7,6.5l17.1-4.5c-6.2-11.2-18-18.6-31.8-18.6c-20.1,0-36.4,15.3-36.4,36.5
			c0,21.1,16.2,36.5,36.4,36.5c14.7,0,27.2-8.2,33.1-20.6l-17-4.4c-2.9,4.8-9.3,8.2-16,8.2c-10.9,0-18.8-7.5-18.8-19.6
			C185.8,127.9,193,119.6,204.6,119.6z"/>
		<path class="st0" d="M274,104.4h-16.8v70.1H274v-23.2l5.9-5.9l21.2,29.1h19.8L291,134.2l29.7-29.8h-20.6l-17,16.9
			c-7.1,7.1-9.1,9.5-9.2,9.5h-0.1c-0.1,0,0.2-3.4,0.2-15V104.4z"/>
		<path class="st0" d="M394.9,128.4c0-14.4-10.6-24-28.2-24h-26.1v70.1h16.8v-22.8h8.6l13,22.8h18.8l-15.5-25.8
			C390.4,144.8,394.9,137.8,394.9,128.4z M369,136.7h-11.6v-16.6H369c6,0,8.4,4.5,8.4,8.3C377.4,132.2,375,136.7,369,136.7z"/>
		<path class="st0" d="M460.5,104.4V143c0,12-4.9,17.2-14.1,17.2c-9.2,0-14.1-5.2-14.1-17.2v-38.6h-16.8v39
			c0,21,12.3,32.6,30.9,32.6c18.5,0,30.9-11.5,30.9-32.6v-39C477.3,104.4,460.5,104.4,460.5,104.4z"/>
		<path class="st0" d="M281.2,222.5l-10.9,9c-3-1.8-6.3-3.2-9.8-4.1l-1.3-14h-16.8l-1.3,14c-3.5,0.9-6.8,2.3-9.8,4.1l-10.9-9
			l-11.9,11.9l9,10.9c-1.3,2.3-2.5,4.7-3.3,7.3c5.6,3.9,11.6,7.4,17.9,10.5c0.9-9.5,8.9-17,18.7-17c9.8,0,17.8,7.4,18.7,17
			c6.3-3,12.3-6.5,17.9-10.5c-0.9-2.5-2-5-3.3-7.3l9-10.9L281.2,222.5z"/>
		<path class="st0" d="M334.2,191.3h-167h-15.6H64.8l16.4,16.4h69.6v6.6l0.5,1.4c0.9,2.4,23,60.2,97.2,80.7l2.2,0.6l2.2-0.6
			c74.2-20.5,96.3-78.3,97.2-80.7l0.5-1.4v-6.6h65.6l16.5-16.4h-89.9H334.2z M250.7,279.9c-26.6-7.8-48.7-21.7-65.8-41.5
			c-10.8-12.5-16.2-23.7-17.7-27.3v-12.8h167v12.8C330.8,219.1,309.5,262.7,250.7,279.9z"/>
		<polygon class="st0" points="233.9,59.6 224.9,50.8 233.9,42 227,42 217.6,50.8 227,59.6 		"/>
		<polygon class="st0" points="260.7,38.8 254.9,38.8 242.1,64 248.4,64 		"/>
		<polygon class="st0" points="275.7,59.6 285.2,50.8 275.7,42 268.9,42 277.8,50.8 268.9,59.6 		"/>
	</g>
</g>
</svg>
