<svg id="Layer_1" data-name="Layer 1" xmlns="http://www.w3.org/2000/svg" width="406" height="301" viewBox="0 0 406 301">
  <defs>
    <style>
      .cls-1, .cls-3, .cls-4 {
        opacity: 0.3;
      }

      .cls-2, .cls-3, .cls-4 {
        fill: #a91e22;
      }

      .cls-4 {
        stroke: #a91e22;
        stroke-miterlimit: 10;
        stroke-width: 0.5px;
      }
    </style>
  </defs>
  <title>bg-pattern</title>
  <g class="cls-1">
    <path class="cls-2" d="M301.64462,132.47705a3.975,3.975,0,0,1-1.37354-.24463l-38.88525-14.31055a3.97613,3.97613,0,0,1,.05469-7.48242L300.32626,96.772a3.98959,3.98959,0,0,1,2.63672,0l6.96533,2.44824,10.21191,3.51123,0.00928,0.00342,21.70166,7.70557a3.97617,3.97617,0,0,1,.05176,7.48145l-38.88574,14.31055A3.9696,3.9696,0,0,1,301.64462,132.47705Zm0-33.92969a1.9783,1.9783,0,0,0-.65527.11133L262.1036,112.32617a1.97634,1.97634,0,0,0-.02734,3.71875L300.962,130.35547a1.96875,1.96875,0,0,0,1.36426,0l38.88623-14.31055a1.97634,1.97634,0,0,0-.02734-3.71875l-21.7002-7.70508-10.21338-3.51172-6.97168-2.45068A1.98043,1.98043,0,0,0,301.64462,98.54736Z"/>
    <path class="cls-2" d="M265.27059,139.74121a1,1,0,0,1-1-1V125.335a1,1,0,0,1,2,0v13.40625A1,1,0,0,1,265.27059,139.74121Z"/>
    <path class="cls-2" d="M265.27059,149.30713a1,1,0,0,1-1-1v-3.02295a1,1,0,1,1,2,0v3.02295A1,1,0,0,1,265.27059,149.30713Z"/>
    <path class="cls-2" d="M292.68319,144.46729c-15.019,0-15.20312-.18652-15.47314-0.45508a1.0085,1.0085,0,0,1-.29687-0.7124,15.13243,15.13243,0,0,0-.15088-1.81592,17.24262,17.24262,0,0,1-.16992-2.12256,24.88521,24.88521,0,0,1,4.6582-14.55371,1,1,0,0,1,1.627,1.16309,22.89708,22.89708,0,0,0-4.28516,13.39063,15.51807,15.51807,0,0,0,.15479,1.87939c0.04541,0.37012.0918,0.74756,0.124,1.13086,4.69141,0.14893,28.82666.06689,45.63477-.03418a23.35108,23.35108,0,0,0,.19043-2.97607A22.92023,22.92023,0,0,0,320.651,126.313a1,1,0,0,1,1.64746-1.13379,24.90969,24.90969,0,0,1,4.39795,14.18213,25.26037,25.26037,0,0,1-.33984,4.13477,0.99973,0.99973,0,0,1-.98.83594C310.14266,144.42578,299.76327,144.46729,292.68319,144.46729Zm32.687-1.13525h0Z"/>
    <path class="cls-2" d="M268.81747,120.186a0.99993,0.99993,0,0,1-.1333-1.99072l32.8584-4.46826a0.99985,0.99985,0,1,1,.26953,1.98145l-32.8584,4.46826A0.99286,0.99286,0,0,1,268.81747,120.186Z"/>
  </g>
  <g class="cls-1">
    <path class="cls-2" d="M34.25057,277.53613a2.52427,2.52427,0,0,1-.86426-0.15234l-19.73584-7.26367a2.51048,2.51048,0,0,1,.03467-4.72461L33.419,258.46a2.51139,2.51139,0,0,1,1.66553,0l8.71338,3.02344,0.00928,0.00293,11.01318,3.91016a2.5109,2.5109,0,0,1,.03223,4.72363l-19.73437,7.2627A2.5253,2.5253,0,0,1,34.25057,277.53613Zm0.00049-17.21875a0.49451,0.49451,0,0,0-.168.0293l-19.73486,6.93555a0.51056,0.51056,0,0,0-.00684.96094l19.7334,7.2627a0.51591,0.51591,0,0,0,.355-0.001l19.73193-7.26172a0.51082,0.51082,0,0,0-.00781-0.96094L43.14364,263.373l-8.72314-3.02637A0.50493,0.50493,0,0,0,34.25106,260.31738Z"/>
    <path class="cls-2" d="M15.79159,281.22363a0.99974,0.99974,0,0,1-1-1v-6.80371a1,1,0,0,1,2,0v6.80371A0.99974,0.99974,0,0,1,15.79159,281.22363Z"/>
    <path class="cls-2" d="M15.79159,286.07813a0.99974,0.99974,0,0,1-1-1v-1.53418a1,1,0,0,1,2,0v1.53418A0.99974,0.99974,0,0,1,15.79159,286.07813Z"/>
    <path class="cls-2" d="M29.21591,283.62988c-7.32812,0-7.44092-.1123-7.71191-0.38184a1.00331,1.00331,0,0,1-.2959-0.71094,7.05253,7.05253,0,0,0-.07324-0.86133,9.187,9.187,0,0,1-.08984-1.1377,13.11555,13.11555,0,0,1,2.45605-7.67187,0.99968,0.99968,0,1,1,1.627,1.16211,11.13258,11.13258,0,0,0-2.083,6.50977,7.33429,7.33429,0,0,0,.0752.89355c0.00586,0.05078.01221,0.10156,0.01855,0.15234,3.07178,0.05762,14.22168.02051,22.27295-.02637,0.03076-.33789.0459-0.67871,0.0459-1.01953a11.14738,11.14738,0,0,0-1.96631-6.34375,0.99967,0.99967,0,1,1,1.64746-1.13281,13.1315,13.1315,0,0,1,2.31885,7.47656,13.29489,13.29489,0,0,1-.1792,2.17871,1.00019,1.00019,0,0,1-.98.83594C38.23983,283.60254,32.84383,283.62988,29.21591,283.62988Zm17.07617-1.07715h0Z"/>
    <path class="cls-2" d="M17.59139,271.29883a1.00019,1.00019,0,0,1-.1333-1.99121L34.1329,267.04a1.00033,1.00033,0,0,1,.26953,1.98242L17.72762,271.29A1.075,1.075,0,0,1,17.59139,271.29883Z"/>
  </g>
  <g class="cls-1">
    <path class="cls-2" d="M239.64169,178.97949l-11.59277,5.28906,11.59277,5.31836v2.335l-13.39355-6.33008v-2.61719l13.39355-6.33057v2.33545Z"/>
    <path class="cls-2" d="M244.14462,194.67969h-2.10986l8.60986-22.50928H252.755Z"/>
    <path class="cls-2" d="M268.56844,182.97461v2.61719l-13.39307,6.33008v-2.335l11.59229-5.31836-11.59229-5.28906V176.644Z"/>
  </g>
  <g class="cls-1">
    <path class="cls-2" d="M87.97909,16.41455L80.62362,19.771l7.35547,3.37451V24.627l-8.498-4.0166V18.94971l8.498-4.0166v1.48145Z"/>
    <path class="cls-2" d="M90.838,26.37646H89.49911L94.962,12.09424h1.33887Z"/>
    <path class="cls-2" d="M106.33553,18.94971v1.66064l-8.498,4.0166V23.14551L105.193,19.771l-7.35547-3.35645V14.93311Z"/>
  </g>
  <path class="cls-3" d="M204.27539,150.03552a8.29282,8.29282,0,0,0-3.22757.64055,8.47556,8.47556,0,0,0-4.65248,10.774,0.01621,0.01621,0,0,1-.00373.01716L184.317,173.5418a3.49218,3.49218,0,0,0,.16315,5.087,3.377,3.377,0,0,0,2.25006.838,3.71883,3.71883,0,0,0,2.61848-1.089l11.9767-11.97673a0.01619,0.01619,0,0,1,.01147-0.00473l0.00569,0.001a8.48785,8.48785,0,0,0,10.77262-4.64964,8.73378,8.73378,0,0,0,.12414-6.255l-0.28657-.82392a0.01667,0.01667,0,0,0-.0158-0.01122,0.0165,0.0165,0,0,0-.01174.00489l-5.81623,5.81621a0.01662,0.01662,0,0,1-.01179.00487l-0.00351-.00036-3.14827-.67706a0.01669,0.01669,0,0,1-.01284-0.013l-0.62694-3.09064a0.0166,0.0166,0,0,1,.00455-0.01511l5.81992-5.82a0.01668,0.01668,0,0,0-.00628-0.02754l-0.82292-.2862a9.22848,9.22848,0,0,0-3.02554-.51814m-17.43585,27.32092a1.40845,1.40845,0,0,1-1.227-.71617,1.3854,1.3854,0,0,1,0-1.375,1.40923,1.40923,0,0,1,2.454,0,1.3854,1.3854,0,0,1,0,1.375,1.40845,1.40845,0,0,1-1.227.71617m17.43585-28.81261a10.68166,10.68166,0,0,1,3.51555.6009l0.82442,0.28673a1.50838,1.50838,0,0,1,.56958,2.49074l-5.25989,5.25992,0.2776,1.36858,1.41949,0.30528,5.24833-5.24829a1.50832,1.50832,0,0,1,2.49119.57108l0.28661,0.82394a10.19516,10.19516,0,0,1-.15887,7.32531,9.98743,9.98743,0,0,1-11.7434,5.762l-11.34252,11.34255a5.233,5.233,0,0,1-3.67324,1.52593,4.88466,4.88466,0,0,1-3.23668-1.21086,4.93624,4.93624,0,0,1-1.68608-3.58172,4.99961,4.99961,0,0,1,1.45473-3.67886l11.43935-11.43933a9.94,9.94,0,0,1,5.7667-11.74611,9.74293,9.74293,0,0,1,3.80712-.75775h0Z"/>
  <path class="cls-4" d="M358.291,166.82775a6.25779,6.25779,0,0,0-2.43554.48336,6.39568,6.39568,0,0,0-3.51078,8.13007,0.01223,0.01223,0,0,1-.00282.013l-9.11151,9.11153a2.63521,2.63521,0,0,0,.12312,3.83865,2.54825,2.54825,0,0,0,1.6979.63235,2.80624,2.80624,0,0,0,1.97591-.82178l9.03766-9.03767,0.00866-.00357,0.00429,0.00077a6.405,6.405,0,0,0,8.12905-3.50863,6.59054,6.59054,0,0,0,.09368-4.72l-0.21624-.62173a0.01258,0.01258,0,0,0-.01192-0.00847l-0.00886.00369-4.38894,4.38893-0.0089.00368-0.00265-.00027-2.37569-.51091a0.01259,0.01259,0,0,1-.00969-0.00981l-0.47309-2.33221a0.01253,0.01253,0,0,1,.00344-0.0114l4.39173-4.39176a0.01258,0.01258,0,0,0-.00474-0.02078l-0.621-.216a6.96384,6.96384,0,0,0-2.28308-.391m-13.15715,20.61644a1.06282,1.06282,0,0,1-.92592-0.54042,1.04543,1.04543,0,0,1,0-1.03759,1.06341,1.06341,0,0,1,1.85183,0,1.04543,1.04543,0,0,1,0,1.03759,1.06282,1.06282,0,0,1-.92592.54042M358.291,165.70211a8.06041,8.06041,0,0,1,2.65284.45344l0.62211,0.21636a1.13823,1.13823,0,0,1,.42981,1.87952l-3.96913,3.96915,0.20948,1.03273,1.07115,0.23036,3.96041-3.96037a1.13818,1.13818,0,0,1,1.87986.43094l0.21628,0.62175a7.6933,7.6933,0,0,1-.11989,5.5277,7.53654,7.53654,0,0,1-8.8616,4.348l-8.5591,8.55912a3.94881,3.94881,0,0,1-2.77184,1.15147,3.686,3.686,0,0,1-2.44241-.91372,3.7249,3.7249,0,0,1-1.27232-2.70277,3.77272,3.77272,0,0,1,1.09774-2.77608l8.63217-8.63215a7.50077,7.50077,0,0,1,4.35157-8.86365,7.352,7.352,0,0,1,2.87287-.5718h0Z"/>
  <g class="cls-1">
    <path class="cls-2" d="M229.18173,106.02051a2.69153,2.69153,0,0,1-2.6582-2.29053,11.25345,11.25345,0,0,1-1.08545-.4248,2.70254,2.70254,0,0,1-3.51562-.10107l-1.95264-1.8999a2.43083,2.43083,0,0,1-.09277-3.40137c-0.19922-.40332-0.36816-0.7832-0.5083-1.144a2.66317,2.66317,0,0,1-2.34473-2.6084l-0.03369-2.667a2.68188,2.68188,0,0,1,2.48486-2.70508c0.13574-.34863.29395-0.70215,0.4707-1.05371a3.61989,3.61989,0,0,1-.60986-0.84277,2.349,2.349,0,0,1,.36621-2.74854l1.89893-1.95215a2.90447,2.90447,0,0,1,3.93848.125l0.03027,0.02979q0.31787-.13916.64453-0.2583l-0.001-.05273a2.67107,2.67107,0,0,1,2.63086-2.73145l2.65869-.03857a2.70044,2.70044,0,0,1,2.71631,2.65576l0.00439,0.25928q0.323,0.12817.6626,0.28369l0.12891-.13281a2.33233,2.33233,0,0,1,3.47949-.05615l1.95117,1.89746a2.572,2.572,0,0,1,.86475,1.97217,2.46142,2.46142,0,0,1-.71338,1.61768l-0.12793.13135c0.09814,0.19971.189,0.40088,0.27344,0.60205l0.27246-.00293a2.69578,2.69578,0,0,1,2.70166,2.63184l0.03906,2.668a2.67258,2.67258,0,0,1-2.64648,2.71143l-0.06738.00049q-0.1106.33472-.24121,0.65967l0.06787,0.06592a3.13969,3.13969,0,0,1,.85645,1.56787,2.54619,2.54619,0,0,1-.61865,2.36865l-1.89941,1.95313a2.27854,2.27854,0,0,1-1.646.69629,3.011,3.011,0,0,1-1.9873-.87354c-0.31934.17334-.67822,0.355-1.05811,0.52a2.67163,2.67163,0,0,1-2.63428,2.53369Zm-4.12744-5.16016,0.66357,0.35449a9.16638,9.16638,0,0,0,2.02.78906l0.73438,0.18945,0.02393,1.16064a0.68523,0.68523,0,0,0,.67285.6665l2.686-.03467a0.67106,0.67106,0,0,0,.66406-0.68018l-0.01611-1.24121,0.68115-.23682a11.74427,11.74427,0,0,0,2.03662-.99561l0.65869-.39014,0.95313,0.92725c0.14307,0.13965.68262,0.61035,0.94092,0.3457l1.89941-1.95313a0.59416,0.59416,0,0,0,.09863-0.54639,1.16667,1.16667,0,0,0-.29687-0.56152l-1.08252-1.05322,0.31348-.64893a9.08875,9.08875,0,0,0,.6167-1.69727l0.19043-.74365,1.57617-.01709a0.67187,0.67187,0,0,0,.667-0.68164l-0.03906-2.668a0.68416,0.68416,0,0,0-.69043-0.66162l-1.68652.01855-0.23193-.688a9.08346,9.08346,0,0,0-.73047-1.60645l-0.37549-.65381,1.16162-1.19531a0.4847,0.4847,0,0,0,.14844-0.29932,0.72188,0.72188,0,0,0-.26123-0.46289l-1.95117-1.89746a0.47085,0.47085,0,0,0-.31982-0.18848,0.55257,0.55257,0,0,0-.32959.20459l-1.15186,1.18408-0.65869-.33984a11.42947,11.42947,0,0,0-1.708-.728l-0.68408-.21777-0.02832-1.67725a0.69288,0.69288,0,0,0-.70117-0.68018l-2.644.03857a0.67184,0.67184,0,0,0-.66162.68457l0.03564,1.56738-0.74072.21289a9.08261,9.08261,0,0,0-1.6748.66748l-0.6416.3335-1.04639-1.02a0.99287,0.99287,0,0,0-1.10986-.16357l-1.89893,1.95215a0.371,0.371,0,0,0-.01807.44531,1.95051,1.95051,0,0,0,.38477.48193l0.936,0.91211-0.39062.67383a10.02185,10.02185,0,0,0-.90137,2.01074l-0.21191.68115-1.25977.03809a0.68168,0.68168,0,0,0-.68457.68555l0.03369,2.667a0.68974,0.68974,0,0,0,.71582.6626l1.0791-.0293,0.22266,0.728a11.81661,11.81661,0,0,0,.92725,2.10889l0.34814,0.64453-0.7793.80469c-0.49756.51172-.25342,0.74951-0.17285,0.82813l1.95215,1.89941a0.67655,0.67655,0,0,0,.93555-0.08594Zm5.26123-2.35791a5.54855,5.54855,0,1,1,3.978-1.67969A5.52026,5.52026,0,0,1,230.31551,98.50244Zm0.001-9.09766a3.54909,3.54909,0,0,0-2.4751,6.09277,3.6333,3.6333,0,0,0,5.01855-.06934,3.54974,3.54974,0,0,0-.06885-5.01807h0A3.52949,3.52949,0,0,0,230.31649,89.40479Z"/>
    <path class="cls-2" d="M207.57137,130.1626a2.6501,2.6501,0,0,1-2.65137-2.25781c-0.30811-.09912-0.60449-0.20947-0.8916-0.332a3.01463,3.01463,0,0,1-3.75684-.19531l-1.9541-1.90137a2.94559,2.94559,0,0,1-.83838-1.82764,2.75238,2.75238,0,0,1,.55273-1.96973c-0.10742-.24951-0.208-0.50977-0.30371-0.78564a2.66228,2.66228,0,0,1-2.32227-2.60449l-0.03418-2.6665a2.68091,2.68091,0,0,1,2.479-2.70459c0.13086-.3374.28223-0.67822,0.45068-1.01611a2.77127,2.77127,0,0,1-.6582-1.1499,2.38437,2.38437,0,0,1,.61084-2.31689l1.89893-1.95166a2.57949,2.57949,0,0,1,1.87061-.769,2.696,2.696,0,0,1,1.86523.7666l0.019,0.01855q0.342-.15308.68652-0.28125l-0.001-.05615a2.67309,2.67309,0,0,1,2.62891-2.73584l2.65039-.04346a2.6915,2.6915,0,0,1,2.71045,2.64746v0.21045q0.16553,0.06226.32666,0.12842l0.19434-.19922a3.36864,3.36864,0,0,1,2.3335-.897,2.59726,2.59726,0,0,1,1.85449.69678l1.95361,1.90137a3.173,3.173,0,0,1-.09619,4.18262l-0.17041.1748c0.05566,0.127.10986,0.25732,0.16309,0.394l0.25537-.00293a2.69585,2.69585,0,0,1,2.70117,2.63281l0.03857,2.66846a2.67418,2.67418,0,0,1-2.64746,2.7124l-0.07324.001q-0.11792.35449-.25879,0.70068l0.05859,0.05713a2.47432,2.47432,0,0,1-.02246,3.61523l-1.89941,1.95215a2.34177,2.34177,0,0,1-3.37891.13623q-0.52222.28271-1.01611,0.49561a2.67217,2.67217,0,0,1-2.63428,2.53467Zm-3.9458-5.01709,0.65723,0.33887a8.53676,8.53676,0,0,0,1.85254.69043l0.751,0.19141,0.00293,1.15283a0.65291,0.65291,0,0,0,.66846.64355l2.68311-.03711a0.65484,0.65484,0,0,0,.47266-0.20361,0.664,0.664,0,0,0,.18945-0.479l-0.01758-1.24268,0.68408-.23584a10.64118,10.64118,0,0,0,1.98145-.96484l0.66064-.3999,0.96777,0.94043a0.529,0.529,0,0,0,.36084.21,0.44416,0.44416,0,0,0,.3208-0.18555l1.89941-1.95215a0.50983,0.50983,0,0,0,.061-0.7876l-1.07715-1.04785,0.31689-.65039a9.13851,9.13851,0,0,0,.63623-1.73145l0.18994-.74219,1.58008-.02a0.67349,0.67349,0,0,0,.66992-0.68262l-0.03857-2.66846a0.68454,0.68454,0,0,0-.68994-0.6626l-1.69189.019-0.228-.69727a8.024,8.024,0,0,0-.5957-1.42627l-0.35352-.64746,1.17627-1.209a1.30993,1.30993,0,0,0,.13477-1.35449l-1.95215-1.8999a0.6738,0.6738,0,0,0-.46094-0.13135,1.44494,1.44494,0,0,0-.90137.293l-1.18555,1.21484-0.64893-.31543a10.20927,10.20927,0,0,0-1.418-.55713l-0.69971-.22021-0.001-1.6499a0.6738,0.6738,0,0,0-.69385-0.65527l-2.63525.04346a0.67374,0.67374,0,0,0-.66162.689l0.0376,1.56641-0.74023.21387a9.25438,9.25438,0,0,0-1.7124.69482l-0.64111.33594-1.0415-1.01123a0.70519,0.70519,0,0,0-.48779-0.20068,0.52635,0.52635,0,0,0-.42041.16357l-1.89941,1.95215a0.37364,0.37364,0,0,0-.11621.38965,0.96316,0.96316,0,0,0,.28027.4082l0.93848,0.91455-0.38818.67334a9.95941,9.95941,0,0,0-.87939,1.97705l-0.2124.68262-1.25537.03516a0.6691,0.6691,0,0,0-.48926.20508,0.66146,0.66146,0,0,0-.19336.48l0.03418,2.6665a0.68972,0.68972,0,0,0,.71631.66162l1.08838-.02979,0.21582,0.74072a9.55436,9.55436,0,0,0,.688,1.77051l0.33447,0.6416-0.82568.84766a0.73735,0.73735,0,0,0-.15234.57227,0.95594,0.95594,0,0,0,.24121.57617l1.95313,1.90039a0.96086,0.96086,0,0,0,1.13867.04395Zm5.07227-2.50586a5.551,5.551,0,1,1,3.97705-1.67969A5.51776,5.51776,0,0,1,208.69784,122.63965Zm0.001-9.09766a3.54875,3.54875,0,0,0-2.4751,6.09229,3.63206,3.63206,0,0,0,5.01758-.06885,3.54737,3.54737,0,0,0-.06787-5.01807h0A3.52949,3.52949,0,0,0,208.69882,113.542Z"/>
  </g>
  <g class="cls-1">
    <path class="cls-2" d="M243.25643,281.65234a2.12675,2.12675,0,0,1-2.05908-1.59961c-0.12939-.04687-0.25732-0.09668-0.38428-0.15039a2.12349,2.12349,0,0,1-2.60693-.21191l-1.29395-1.25879a1.94186,1.94186,0,0,1-.21875-2.5332c-0.06836-.14551-0.13135-0.28613-0.18848-0.42383a2.09229,2.09229,0,0,1-1.647-2.02148l-0.022-1.7666a2.1151,2.1151,0,0,1,1.74512-2.10742c0.04639-.11035.09619-0.22266,0.14893-0.334a2.56836,2.56836,0,0,1-.30322-0.459,1.88858,1.88858,0,0,1,.30176-2.21l1.2583-1.29395a2.23618,2.23618,0,0,1,2.9375-.05566l0.02783-.01074a2.11056,2.11056,0,0,1,2.06934-1.94922l1.76318-.02539a2.12931,2.12931,0,0,1,2.14111,2.042l0.0293,0.0127a1.87409,1.87409,0,0,1,2.70459.03711l1.291,1.25586a1.95438,1.95438,0,0,1,.1875,2.76855,2.12522,2.12522,0,0,1,2.082,2.07422l0.02588,1.76855a2.10983,2.10983,0,0,1-1.8916,2.12793l-0.01123.03027a2.43863,2.43863,0,0,1,.54932,1.0918,2.01833,2.01833,0,0,1-.49756,1.876l-1.2583,1.29492a1.84856,1.84856,0,0,1-1.333.56348,2.20684,2.20684,0,0,1-1.36182-.51074c-0.1084.05566-.22217,0.1123-0.33984,0.167a2.10787,2.10787,0,0,1-2.05713,1.78809Zm-2.80371-4.17676,0.66455,0.35742a5.72906,5.72906,0,0,0,1.2627.49414l0.73389,0.18945,0.021,1.02441a0.11407,0.11407,0,0,0,.1084.11133l1.77539-.02344a0.09634,0.09634,0,0,0,.07617-0.03223l0.02637-.42187-0.00928-.72168,0.68213-.23633a7.21779,7.21779,0,0,0,1.28662-.63086l0.65869-.39062,0.81689,0.79492a1.19928,1.19928,0,0,0,.20947.17188l1.1958-1.23047a0.60092,0.60092,0,0,0-.12549-0.25684l-0.89111-.86621,0.31348-.64941a5.70493,5.70493,0,0,0,.38574-1.0625l0.19043-.74316,1.30371-.01465,0.10791-.10937-0.02588-1.76758a0.116,0.116,0,0,0-.12012-0.10547l-1.35889.01465-0.23193-.6875a5.67558,5.67558,0,0,0-.457-1.00488l-0.376-.6543,0.92725-.95312c-0.01123-.01172-0.02686-0.02832-0.04736-0.04883L248.2911,266.792l-0.91846.93945-0.65771-.33789a7.13771,7.13771,0,0,0-1.08057-.46094l-0.68457-.21777-0.02295-1.35449a0.11947,0.11947,0,0,0-.127-0.11914l-1.74707.02539-1.106.13281,0.99951-.02344,0.03027,1.29688-0.74072.21387a5.77562,5.77562,0,0,0-1.04932.418l-0.64062.332-0.86719-.84375a0.39078,0.39078,0,0,0-.31055-0.07715l-1.14258,1.18848a1.10719,1.10719,0,0,0,.17432.20605l0.80811,0.78418-0.3916.67578a6.27516,6.27516,0,0,0-.56689,1.26172l-0.21094.68066-1.1709.07031-0.00977,1.84375a0.12062,0.12062,0,0,0,.13721.10645l0.96143-.0293,0.22314,0.73047a7.64882,7.64882,0,0,0,.58936,1.33691l0.34863,0.64551-0.69043.71a0.43333,0.43333,0,0,0-.10791.14746l1.28125,1.18262a0.1622,0.1622,0,0,0,.14258-0.05078Zm-2.29-9.50586-0.001.001Zm5.83984,8.7002a4.01416,4.01416,0,1,1,2.79932-6.8916h0A4.01393,4.01393,0,0,1,244.00253,276.66992Zm0.001-6.02832a2.01434,2.01434,0,0,0-1.40479,3.458,2.06106,2.06106,0,0,0,2.84766-.03906,2.01237,2.01237,0,0,0-.03809-2.84668l-0.00049-.001A2.00445,2.00445,0,0,0,244.0035,270.6416Z"/>
    <path class="cls-2" d="M228.93661,297.64941a2.09357,2.09357,0,0,1-2.05371-1.57617q-0.12744-.04395-0.25146-0.09375a2.35927,2.35927,0,0,1-2.772-.27148l-1.29443-1.25977a2.26438,2.26438,0,0,1-.65625-1.4209,2.19281,2.19281,0,0,1,.31885-1.37988c-0.02441-.06055-0.04785-0.12207-0.07129-0.18457a2.09021,2.09021,0,0,1-1.623-2.01465l-0.02246-1.76758a2.11446,2.11446,0,0,1,1.74121-2.10645q0.06592-.15674.13916-0.31348a2.13545,2.13545,0,0,1-.36328-0.7207,1.91732,1.91732,0,0,1,.48682-1.86035l1.26025-1.29395a2.0489,2.0489,0,0,1,1.46631-.61133h0.01709a2.11987,2.11987,0,0,1,1.30908.46289c0.01953-.00879.03906-0.0166,0.05859-0.02441a2.10987,2.10987,0,0,1,2.06787-1.95508l1.75781-.02832a2.13075,2.13075,0,0,1,2.11084,1.76367,2.68361,2.68361,0,0,1,1.582-.51172,2.04744,2.04744,0,0,1,1.46582.55957l1.29248,1.25781a2.42091,2.42091,0,0,1,.10059,3.06445,2.12342,2.12342,0,0,1,1.89209,2.0625l0.02539,1.76953a2.1077,2.1077,0,0,1-1.89648,2.12793l-0.02246.06055a1.9613,1.9613,0,0,1-.127,2.74707l-1.2583,1.293a1.92619,1.92619,0,0,1-1.40479.627,1.87135,1.87135,0,0,1-1.11426-.37012q-0.16113.082-.31934,0.15527a2.10945,2.10945,0,0,1-2.05615,1.78906Zm-2.68652-4.07617,0.65723,0.33887a5.346,5.346,0,0,0,1.15625.43066l0.75,0.19043,0.00391,1.02441a0.09584,0.09584,0,0,0,.10547.0918l1.77295-.02441a0.09965,0.09965,0,0,0,.07715-0.03418l0.02441-.41992-0.01025-.72363,0.68311-.23633a6.62178,6.62178,0,0,0,1.248-.60937l0.66064-.40039,0.8291,0.80566,1.2334-1.27051a0.31259,0.31259,0,0,0,.061-0.08008l-0.38428-.3252-0.519-.50488,0.31787-.65039a5.74365,5.74365,0,0,0,.39844-1.083l0.18994-.74023,1.30273-.01953,0.11279-.1084-0.02539-1.76855a0.11625,0.11625,0,0,0-.11963-0.10645l-1.36621.01465-0.22754-.69727a4.90985,4.90985,0,0,0-.36914-0.88574l-0.354-.64844,0.95264-.98047a0.66642,0.66642,0,0,0,.0708-0.45312l-1.26807-1.22559a0.86272,0.86272,0,0,0-.42725.10156l-0.9541.97656-0.64795-.31445a6.52061,6.52061,0,0,0-.895-0.35059l-0.69971-.2207V281.3252a0.11239,0.11239,0,0,0-.12256-0.0957l-1.74121.02832-0.106.11133L228.651,282.667l-0.73975.21387a5.80045,5.80045,0,0,0-1.07178.43555l-0.6416.33594-0.86475-.84082a0.12139,0.12139,0,0,0-.12549-0.03125l-1.23291,1.2666c0.01514,0.0127.03857,0.041,0.07666,0.0791l0.81006,0.78906-0.38818.67383a6.239,6.239,0,0,0-.55273,1.24023l-0.21191.68457-1.07422.03027-0.12354.11133,0.02246,1.7666a0.12186,0.12186,0,0,0,.13721.10547l0.97168-.0293,0.21631,0.74316a5.98291,5.98291,0,0,0,.43164,1.11133l0.333,0.64063-0.71533.73633a0.33861,0.33861,0,0,0-.00732.11523,0.31371,0.31371,0,0,0,.05908.16992l1.29395,1.25879a0.29356,0.29356,0,0,0,.18311.05078l0.29688-.22168Zm3.42822-.90918a4.01416,4.01416,0,1,1,2.79932-6.8916h0.001A4.01464,4.01464,0,0,1,229.67831,292.66406Zm0.00049-6.02832a2.01434,2.01434,0,0,0-1.4043,3.458,2.06206,2.06206,0,0,0,2.84766-.03906,2.01594,2.01594,0,0,0-.03809-2.84863h0A2.01006,2.01006,0,0,0,229.6788,286.63574Z"/>
  </g>
  <g class="cls-1">
    <path class="cls-2" d="M143.65194,126.06787H104.3746a3.62886,3.62886,0,0,1-3.625-3.625V75.62061a3.12852,3.12852,0,0,1,3.125-3.125h39.77734a1,1,0,0,1,1,1v51.57227A1,1,0,0,1,143.65194,126.06787ZM103.8746,74.49561a1.12654,1.12654,0,0,0-1.125,1.125v46.82227a1.62688,1.62688,0,0,0,1.625,1.625h38.27734V74.49561H103.8746Z"/>
    <path class="cls-2" d="M149.6246,132.04053H109.713a2.99432,2.99432,0,0,1-2.99072-2.99072,1,1,0,0,1,2,0,0.99172,0.99172,0,0,0,.99072.99072H148.6246V80.46826h-1.37012a1,1,0,0,1,0-2h2.37012a1,1,0,0,1,1,1v51.57227A1,1,0,0,1,149.6246,132.04053Z"/>
    <path class="cls-2" d="M109.14413,125.499a1,1,0,0,1-1-1V74.44385a1,1,0,1,1,2,0V124.499A1,1,0,0,1,109.14413,125.499Z"/>
    <path class="cls-2" d="M137.7745,87.00977h-0.38086a1.00013,1.00013,0,0,1-.707-0.293l-2.60937-2.60937-2.60937,2.60938a1.00013,1.00013,0,0,1-.707.293H130.38a1,1,0,0,1-1-1V74.06445a1,1,0,0,1,1-1h7.39453a1,1,0,0,1,1,1V86.00977A1,1,0,0,1,137.7745,87.00977Zm-3.69727-5.31689a1.00013,1.00013,0,0,1,.707.293l1.99023,1.99023V75.06445H131.38v8.91162l1.99023-1.99023A1.00013,1.00013,0,0,1,134.07723,81.69287Z"/>
  </g>
  <g class="cls-1">
    <path class="cls-2" d="M390.70858,228.67578h-17.834a3.62886,3.62886,0,0,1-3.625-3.625V204.62109a3.12884,3.12884,0,0,1,3.125-3.125h18.334a0.99974,0.99974,0,0,1,1,1v25.17969A0.99974,0.99974,0,0,1,390.70858,228.67578Zm-18.334-25.17969a1.12654,1.12654,0,0,0-1.125,1.125v20.42969a1.62657,1.62657,0,0,0,1.625,1.625h16.834V203.49609h-17.334Z"/>
    <path class="cls-2" d="M393.6246,231.5918H374.13778a1.97437,1.97437,0,0,1-1.97217-1.97168,1,1,0,0,1,2,0l18.459-.02734V206.41211h-0.15723a1,1,0,0,1,0-2h1.15723a0.99974,0.99974,0,0,1,1,1V230.5918A0.99974,0.99974,0,0,1,393.6246,231.5918Z"/>
    <path class="cls-2" d="M373.85995,228.39844a0.99974,0.99974,0,0,1-1-1V202.959a1,1,0,1,1,2,0v24.43945A0.99974,0.99974,0,0,1,373.85995,228.39844Z"/>
    <path class="cls-2" d="M387.83846,209.60547h-0.18555a1.00013,1.00013,0,0,1-.707-0.293l-0.9126-.91211-0.91211.91211a1.00013,1.00013,0,0,1-.707.293h-0.186a0.99974,0.99974,0,0,1-1-1v-5.832a0.99974,0.99974,0,0,1,1-1h3.61035a0.99974,0.99974,0,0,1,1,1v5.832A0.99974,0.99974,0,0,1,387.83846,209.60547Zm-2.61035-5.832V206.377l0.09814-.09766a0.99964,0.99964,0,0,1,1.41406,0l0.09814,0.09766v-2.60352h-1.61035Z"/>
  </g>
  <g class="cls-1">
    <path class="cls-2" d="M270.03378,50.749a1.00057,1.00057,0,0,1-.98877-1.15039l0.80615-5.2915A10.40292,10.40292,0,0,1,266.9161,37.043a10.5416,10.5416,0,0,1,10.52979-10.5293h2.11768a1,1,0,0,1,0,2h-2.11768a8.5393,8.5393,0,0,0-8.52979,8.5293,8.44438,8.44438,0,0,0,2.687,6.186,0.99952,0.99952,0,0,1,.30176.877L271.28329,48.187l6.51709-2.54639a1.00628,1.00628,0,0,1,.36377-0.06836h16.92871a8.57283,8.57283,0,0,0,6.89111-3.52,1.00008,1.00008,0,1,1,1.61523,1.17969,10.57985,10.57985,0,0,1-8.50635,4.34033H278.35262l-7.95508,3.1084A1.00111,1.00111,0,0,1,270.03378,50.749Z"/>
    <path class="cls-2" d="M318.73983,42.98389a1.00111,1.00111,0,0,1-.36377-0.06836L310.421,39.80762H293.68075a10.5293,10.5293,0,1,1,0-21.05859h17.64746a10.50776,10.50776,0,0,1,7.59424,17.79248l0.80615,5.292A1.00057,1.00057,0,0,1,318.73983,42.98389ZM293.68075,20.749a8.5293,8.5293,0,1,0,0,17.05859h16.92871a1.00628,1.00628,0,0,1,.36377.06836l6.51709,2.54639-0.62158-4.08105a0.99952,0.99952,0,0,1,.30176-0.877,8.44438,8.44438,0,0,0,2.687-6.186,8.53889,8.53889,0,0,0-8.5293-8.5293H293.68075Z"/>
  </g>
  <path class="cls-3" d="M231.07626,239.7002a1.0011,1.0011,0,0,1-.36377-0.06836l-4.74316-1.85352H215.91659a6.76465,6.76465,0,1,1,0-13.5293h10.67578a6.77218,6.77218,0,0,1,6.76514,6.76465,6.67914,6.67914,0,0,1-1.75146,4.52441l0.459,3.01172A0.99981,0.99981,0,0,1,231.07626,239.7002ZM215.91659,226.249a4.76465,4.76465,0,1,0,0,9.5293H226.1578a1.00628,1.00628,0,0,1,.36377.06836l3.30518,1.292-0.27295-1.793a0.99905,0.99905,0,0,1,.30176-0.877,4.717,4.717,0,0,0,1.502-3.45508,4.77051,4.77051,0,0,0-4.76514-4.76465H215.91659Z"/>
  <g class="cls-1">
    <path class="cls-2" d="M215.54159,48.94043a12.18872,12.18872,0,1,1,12.189-12.189A12.20255,12.20255,0,0,1,215.54159,48.94043Zm0-22.37744a10.18872,10.18872,0,1,0,10.189,10.18848A10.20015,10.20015,0,0,0,215.54159,26.563Z"/>
    <path class="cls-2" d="M213.78824,37.94014a1.07264,1.07264,0,0,0-.551,1.71241,3.53475,3.53475,0,0,0,6.16107-1.73739,1.07264,1.07264,0,0,0-1.36447-1.17226Z"/>
    <circle class="cls-2" cx="211.23939" cy="35.21726" r="1.32499" transform="matrix(0.96246, -0.27141, 0.27141, 0.96246, -1.62921, 58.65425)"/>
    <circle class="cls-2" cx="218.67835" cy="33.11951" r="1.32499" transform="matrix(0.96246, -0.27141, 0.27141, 0.96246, -0.78064, 60.59452)"/>
    <circle class="cls-2" cx="231.84873" cy="39.32832" r="1.32499" transform="translate(142.16561 256.7162) rotate(-77.20886)"/>
    <circle class="cls-2" cx="239.38601" cy="41.03952" r="1.32499" transform="translate(146.36542 265.39877) rotate(-77.20886)"/>
    <path class="cls-2" d="M235.7203,54.01953a12.11652,12.11652,0,0,1-9.63086-4.71729,0.99975,0.99975,0,1,1,1.5791-1.22656,10.18366,10.18366,0,1,0,4.58789-15.83057,0.99979,0.99979,0,0,1-.67871-1.88086A12.19009,12.19009,0,1,1,235.7203,54.01953Z"/>
    <path class="cls-2" d="M232.88783,43.13914a1.07264,1.07264,0,0,0-1.29132,1.25239,3.53475,3.53475,0,0,0,6.2546,1.36281,1.07264,1.07264,0,0,0-.65323-1.67608Z"/>
  </g>
  <g class="cls-1">
    <path class="cls-2" d="M164.54159,212.44043a12.189,12.189,0,1,1,12.189-12.18848A12.20244,12.20244,0,0,1,164.54159,212.44043Zm0-22.37793a10.189,10.189,0,1,0,10.189,10.18945A10.201,10.201,0,0,0,164.54159,190.0625Z"/>
    <path class="cls-2" d="M162.78824,201.44014a1.07264,1.07264,0,0,0-.551,1.71241,3.53475,3.53475,0,0,0,6.16107-1.73739,1.07264,1.07264,0,0,0-1.36447-1.17226Z"/>
    <circle class="cls-2" cx="160.23939" cy="198.71726" r="1.32499" transform="matrix(0.96246, -0.27141, 0.27141, 0.96246, -47.91897, 50.94951)"/>
    <circle class="cls-2" cx="167.67835" cy="196.61951" r="1.32499" transform="matrix(0.96246, -0.27141, 0.27141, 0.96246, -47.0704, 52.88977)"/>
    <circle class="cls-2" cx="180.84873" cy="202.82832" r="1.32499" transform="translate(-56.98562 334.28331) rotate(-77.20886)"/>
    <circle class="cls-2" cx="188.38601" cy="204.53952" r="1.32499" transform="translate(-52.78582 342.96588) rotate(-77.20886)"/>
    <path class="cls-2" d="M184.7203,217.51953a12.11722,12.11722,0,0,1-9.63135-4.71777,1.00014,1.00014,0,1,1,1.58008-1.22656,10.18412,10.18412,0,1,0,4.5874-15.83008,0.99979,0.99979,0,1,1-.67871-1.88086A12.19009,12.19009,0,1,1,184.7203,217.51953Z"/>
    <path class="cls-2" d="M181.88783,206.63914a1.07264,1.07264,0,0,0-1.29132,1.25239,3.53475,3.53475,0,0,0,6.2546,1.36281,1.07264,1.07264,0,0,0-.65323-1.67608Z"/>
  </g>
  <g class="cls-1">
    <path class="cls-2" d="M138.75448,187.4502h-0.53369a1.00013,1.00013,0,0,1-.707-0.293l-3.93848-3.9375-3.938,3.9375a1.00013,1.00013,0,0,1-.707.293h-0.53369a0.99974,0.99974,0,0,1-1-1v-16.731a1,1,0,1,1,2,0v14.8501l3.47168-3.47119a0.99964,0.99964,0,0,1,1.41406,0l3.47217,3.47119v-14.8501a1,1,0,0,1,2,0v16.731A0.99974,0.99974,0,0,1,138.75448,187.4502Z"/>
    <path class="cls-2" d="M133.57967,167.876a6.10449,6.10449,0,1,1,6.10449-6.10449A6.11117,6.11117,0,0,1,133.57967,167.876Zm0-10.209a4.10449,4.10449,0,1,0,4.10449,4.10449A4.10919,4.10919,0,0,0,133.57967,157.667Z"/>
    <path class="cls-2" d="M133.51913,174.08008a1.00013,1.00013,0,0,1-.707-0.293l-3.07275-3.07275h-4.3457a1,1,0,0,1-1-1v-4.3457l-3.07227-3.07227a0.99964,0.99964,0,0,1,0-1.41406l3.07227-3.07275v-4.3457a1,1,0,0,1,1-1h4.3457l3.07275-3.07227a0.99964,0.99964,0,0,1,1.41406,0l3.07227,3.07227h4.3457a1,1,0,0,1,1,1v4.3457l3.07275,3.07275a0.99964,0.99964,0,0,1,0,1.41406l-3.07275,3.07227v4.3457a1,1,0,0,1-1,1h-4.3457l-3.07227,3.07275A1.00013,1.00013,0,0,1,133.51913,174.08008Zm-7.12549-5.36572h3.75977a1.00013,1.00013,0,0,1,.707.293l2.65869,2.65869,2.6582-2.65869a1.00013,1.00013,0,0,1,.707-0.293h3.75977v-3.75977a1.00013,1.00013,0,0,1,.293-0.707l2.65869-2.6582-2.65869-2.65869a1.00013,1.00013,0,0,1-.293-0.707v-3.75977h-3.75977a1.00013,1.00013,0,0,1-.707-0.293l-2.6582-2.6582-2.65869,2.6582a1.00013,1.00013,0,0,1-.707.293h-3.75977v3.75977a1.00013,1.00013,0,0,1-.293.707l-2.6582,2.65869,2.6582,2.6582a1.00013,1.00013,0,0,1,.293.707v3.75977Z"/>
  </g>
  <g class="cls-1">
    <g>
      <path class="cls-2" d="M299.4371,193.71387a14.12476,14.12476,0,1,1,14.125-14.12451A14.14055,14.14055,0,0,1,299.4371,193.71387Zm0-26.24951a12.12476,12.12476,0,1,0,12.125,12.125A12.139,12.139,0,0,0,299.4371,167.46436Z"/>
      <path class="cls-2" d="M304.6871,206.96387h-11.25a3.75441,3.75441,0,0,1-3.75-3.75v-7.875a1,1,0,0,1,2,0v7.875a1.75212,1.75212,0,0,0,1.75,1.75h11.25a1.75212,1.75212,0,0,0,1.75-1.75v-7.875a1,1,0,0,1,2,0v7.875A3.75441,3.75441,0,0,1,304.6871,206.96387Z"/>
      <path class="cls-2" d="M304.12508,202.46387a0.99118,0.99118,0,0,1-.27979-0.04l-9.875-2.875a0.99977,0.99977,0,1,1,.55859-1.91992l9.875,2.875A0.99991,0.99991,0,0,1,304.12508,202.46387Z"/>
      <path class="cls-2" d="M297.87508,203.82227a0.99367,0.99367,0,0,1-.27979-0.04l-3.75-1.09082a0.99977,0.99977,0,1,1,.55859-1.91992l3.75,1.09082A0.99991,0.99991,0,0,1,297.87508,203.82227Z"/>
      <path class="cls-2" d="M303.75008,199.166a0.99367,0.99367,0,0,1-.27979-0.04l-3.75-1.09082a0.99977,0.99977,0,1,1,.55859-1.91992l3.75,1.09082A0.99991,0.99991,0,0,1,303.75008,199.166Z"/>
    </g>
    <path class="cls-2" d="M296.83309,193.29785a0.99974,0.99974,0,0,1-1-1v-3.52441l-2.29736-1.86621a1.00018,1.00018,0,0,1-.07666-1.4834l1.835-1.835-1.668-1.66748a0.99964,0.99964,0,0,1,0-1.41406l2.5-2.5a0.99989,0.99989,0,0,1,1.41406,1.41406l-1.793,1.793,1.668,1.66748a0.99964,0.99964,0,0,1,0,1.41406l-1.75781,1.75781,1.80615,1.46777a1.00149,1.00149,0,0,1,.36963.77637v4A0.99974,0.99974,0,0,1,296.83309,193.29785Z"/>
    <path class="cls-2" d="M301.1661,193.29785a0.99974,0.99974,0,0,1-1-1v-4a1.00149,1.00149,0,0,1,.36963-0.77637l1.80615-1.46777-1.75781-1.75781a0.99964,0.99964,0,0,1,0-1.41406l1.668-1.66748-1.793-1.793a0.99989,0.99989,0,0,1,1.41406-1.41406l2.5,2.5a0.99964,0.99964,0,0,1,0,1.41406l-1.668,1.66748,1.835,1.835a1.00018,1.00018,0,0,1-.07666,1.4834l-2.29736,1.86621v3.52441A0.99974,0.99974,0,0,1,301.1661,193.29785Z"/>
  </g>
  <g class="cls-1">
    <polygon class="cls-2" points="91.315 45.128 94.944 43.117 94.944 43.118 95.126 42.962 97.429 38.82 95.942 37.299 91.87 39.48 91.591 39.731 91.591 39.73 89.559 43.354 89.559 43.355 78.98 53.812 80.736 55.586 91.315 45.129 91.315 45.128"/>
    <path class="cls-2" d="M80.9198,55.39036l1.02385-1.01209,2.15448,2.17663a3.65386,3.65386,0,0,1-4.47056,5.70568,3.64265,3.64265,0,0,0-.5426.4435,4.48745,4.48745,0,0,0-.84865,1.12063A6.77754,6.77754,0,0,1,76.28,67.78335l-8.271,8.13642a6.79182,6.79182,0,1,1-9.55106-9.6588l8.271-8.1365a6.78515,6.78515,0,0,1,3.881-1.8991,4.25717,4.25717,0,0,0,1.20749-.86349A3.63742,3.63742,0,0,0,72.27,54.81841a3.65307,3.65307,0,0,1,5.76151-4.3923l2.156,2.17807-1.02385,1.012Zm1.604,2.723-6.0666-6.12879a1.43726,1.43726,0,1,0-2.04294,2.02219l0.44658,0.45118a5.79262,5.79262,0,0,1-1.485,2.47833,6.26368,6.26368,0,0,1-2.22006,1.45863,4.55231,4.55231,0,0,0-2.86844,1.304l-8.27587,8.1413a4.57657,4.57657,0,0,0,6.43912,6.50518l8.27587-8.1413a4.55526,4.55526,0,0,0,1.34134-2.96086,6.39885,6.39885,0,0,1,1.45883-2.11361A5.79268,5.79268,0,0,1,80.02,59.67l0.46086,0.46558A1.43726,1.43726,0,1,0,82.52376,58.11336Z"/>
  </g>
  <g class="cls-1">
    <polygon class="cls-2" points="291.809 236.613 294.504 235.119 294.504 235.119 294.639 235.004 296.349 231.929 295.245 230.799 292.221 232.418 292.014 232.605 292.014 232.604 290.505 235.295 290.505 235.295 282.65 243.06 283.954 244.378 291.809 236.613 291.809 236.613"/>
    <path class="cls-2" d="M284.09046,244.23234l0.76024-.75151,1.59976,1.61621a2.7131,2.7131,0,0,1-3.31952,4.23663,2.70476,2.70476,0,0,0-.40289.32931,3.33206,3.33206,0,0,0-.63015.8321,5.03251,5.03251,0,0,1-1.45265,2.9394l-6.14144,6.04152a5.04312,5.04312,0,1,1-7.09193-7.17193l6.14144-6.04158a5.03816,5.03816,0,0,1,2.88173-1.41013,3.16106,3.16106,0,0,0,.89659-0.64116,2.70088,2.70088,0,0,0,.33611-0.40355,2.71251,2.71251,0,0,1,4.27808-3.2614l1.60089,1.61728-0.76024.75145Zm1.191,2.0219-4.50462-4.5508a1.06721,1.06721,0,1,0-1.51694,1.50153l0.3316,0.335a4.30118,4.30118,0,0,1-1.10264,1.84023,4.651,4.651,0,0,1-1.64846,1.08308,3.38022,3.38022,0,0,0-2.1299.96828l-6.14506,6.04514a3.39823,3.39823,0,0,0,4.78123,4.83028l6.14506-6.04514a3.38241,3.38241,0,0,0,.996-2.19852,4.75132,4.75132,0,0,1,1.08322-1.56941,4.30123,4.30123,0,0,1,1.85139-1.08385l0.3422,0.3457A1.06721,1.06721,0,1,0,285.28145,246.25424Z"/>
  </g>
  <path class="cls-3" d="M53.564,170.43652a3.91184,3.91184,0,0,1-2.7749-1.14746L40.67147,159.17139A8.87164,8.87164,0,1,1,53.21786,146.625l0.34619,0.34619,0.34619-.34619a8.87164,8.87164,0,1,1,12.54639,12.54639L56.339,169.28906A3.91184,3.91184,0,0,1,53.564,170.43652Zm-6.61914-24.41016a6.87183,6.87183,0,0,0-4.85937,11.731L52.20321,167.875a1.92737,1.92737,0,0,0,2.72168,0l10.11768-10.11768a6.87185,6.87185,0,0,0-9.71826-9.71826l-1.05322,1.05322a0.99964,0.99964,0,0,1-1.41406,0l-1.05322-1.05322A6.8266,6.8266,0,0,0,46.94491,146.02637Z"/>
  <path class="cls-3" d="M332.50253,248.88965a3.18567,3.18567,0,0,1-2.26709-.93945l-7.63037-7.63086a6.93659,6.93659,0,1,1,9.81006-9.80957l0.0874,0.08691,0.0874-.08691A6.93659,6.93659,0,1,1,342.4,240.31934l-7.63086,7.63086A3.18051,3.18051,0,0,1,332.50253,248.88965Zm-4.99219-18.41211a4.93663,4.93663,0,0,0-3.49121,8.42773l7.63086,7.63086a1.231,1.231,0,0,0,1.70459,0h0.00049l7.63086-7.63086a4.9368,4.9368,0,1,0-6.98193-6.98145l-0.79443.79395a0.99964,0.99964,0,0,1-1.41406,0l-0.79443-.79395A4.90461,4.90461,0,0,0,327.51034,230.47754Z"/>
  <g class="cls-1">
    <path class="cls-2" d="M375.30282,88.582a6.36825,6.36825,0,0,1-1.77783-.23437,0.99877,0.99877,0,0,1-.69824-1.00342c0.06738-1.36426-2.76367-2.67578-4.14551-3.09766a8.99023,8.99023,0,0,1-5.64062-3.88135c-0.09424.01807-.18848,0.03467-0.28369,0.0498a9.94057,9.94057,0,0,1-8.292-2.53516,9.8563,9.8563,0,0,1-6.07178-4.73682,9.886,9.886,0,0,1-.90479-19.37012,9.84065,9.84065,0,0,1,7.31836-5.41211,9.55933,9.55933,0,0,1,1.41016-.11768,9.88259,9.88259,0,0,1,10.25635-1.57666,9.8735,9.8735,0,0,1,10.748,1.99365,9.86248,9.86248,0,0,1,13.064,6.77637,9.89545,9.89545,0,0,1,5.12891,7.18213,9.78083,9.78083,0,0,1,.10791,1.92773,9.84183,9.84183,0,0,1,3.31055,5.92725h0a9.89951,9.89951,0,0,1-13.30566,10.80371,9.84487,9.84487,0,0,1-3.64355,2.07764,7.705,7.705,0,0,1-3.55713,4.501A6.47544,6.47544,0,0,1,375.30282,88.582Zm-0.56445-2.01709c1.27344,0.16064,4.0874-.01562,5.40576-4.3208a0.99918,0.99918,0,0,1,.7124-0.67676,7.86186,7.86186,0,0,0,3.73389-2.16309,0.99771,0.99771,0,0,1,1.14111-.21094A7.89767,7.89767,0,0,0,396.857,70.78809h0a7.85977,7.85977,0,0,0-2.97754-5.002,0.999,0.999,0,0,1-.38477-0.8833,7.8441,7.8441,0,0,0-4.50293-7.87744,1.00109,1.00109,0,0,1-.5542-0.70361,7.865,7.865,0,0,0-11.041-5.56641,1.0028,1.0028,0,0,1-1.165-.24072,7.87629,7.87629,0,0,0-9.32178-1.8501,1.00108,1.00108,0,0,1-.86914.001A7.88287,7.88287,0,0,0,357.27255,49.98a0.96455,0.96455,0,0,1-.70459.26563,7.5559,7.5559,0,0,0-1.44678.09033,7.86116,7.86116,0,0,0-6.01318,4.7002,0.99907,0.99907,0,0,1-.729.58789,7.886,7.886,0,0,0,.75244,15.59521,1.00009,1.00009,0,0,1,.80518.55859,7.86593,7.86593,0,0,0,5.2627,4.2251,1.00348,1.00348,0,0,1,.46729.25928,7.816,7.816,0,0,0,6.77539,2.17773,8.0989,8.0989,0,0,0,.85205-0.18652,0.99689,0.99689,0,0,1,1.16992.542,6.82879,6.82879,0,0,0,4.76758,3.52881C369.7911,82.49316,374.06454,83.8667,374.73837,86.56494Z"/>
    <path class="cls-2" d="M389.31112,70.00244q-0.35669,0-.73877-0.02881a0.99994,0.99994,0,0,1,.15137-1.99414c4.28564,0.32275,4.75635-2.97021,4.77441-3.11084a1.00015,1.00015,0,0,1,1.98438.252C395.25985,66.86768,393.67831,70.00244,389.31112,70.00244Z"/>
    <path class="cls-2" d="M385.12167,64.30762a5.662,5.662,0,0,1-5.32764-3.5459,1,1,0,0,1,1.87158-.70508c0.11865,0.30371,1.24658,2.90479,4.73438,2.09424a0.99976,0.99976,0,1,1,.4541,1.94727A7.59543,7.59543,0,0,1,385.12167,64.30762Z"/>
    <path class="cls-2" d="M388.31356,76.8667a7.48877,7.48877,0,0,1,0-14.97754,1,1,0,0,1,0,2,5.48877,5.48877,0,0,0,0,10.97754A1,1,0,0,1,388.31356,76.8667Z"/>
    <path class="cls-2" d="M385.839,81.416a0.99923,0.99923,0,0,1-.30176-0.04687,5.13109,5.13109,0,0,1-3.16895-3.3877,1,1,0,1,1,1.92285-.5498,3.13158,3.13158,0,0,0,1.84863,2.03027A1.00032,1.00032,0,0,1,385.839,81.416Z"/>
    <path class="cls-2" d="M374.399,53.82178a1.00131,1.00131,0,0,1-.93066-1.36475,7.61754,7.61754,0,0,1,3.74316-3.86426,1,1,0,0,1,.80127,1.83252h0a5.64908,5.64908,0,0,0-2.68213,2.76025A1.00063,1.00063,0,0,1,374.399,53.82178Z"/>
    <path class="cls-2" d="M386.57967,58.95215c-0.13623,0-.27588-0.00537-0.41943-0.01709a0.99976,0.99976,0,1,1,.15918-1.99316,1.92731,1.92731,0,0,0,2.15283-1.1499,1.00743,1.00743,0,0,1,1.271-.6084,0.99271,0.99271,0,0,1,.623,1.251A3.916,3.916,0,0,1,386.57967,58.95215Z"/>
    <path class="cls-2" d="M371.74178,60.57471a16.00109,16.00109,0,0,1-4.44336-.67187,1.00016,1.00016,0,1,1,.55469-1.92187c8.75879,2.53271,11.93555-3.81445,12.06592-4.08594a1,1,0,0,1,1.80615.85889A11.24273,11.24273,0,0,1,371.74178,60.57471Z"/>
    <path class="cls-2" d="M366.52255,65.76221a6.76978,6.76978,0,1,1,0-13.53955,1,1,0,0,1,0,2,4.76978,4.76978,0,1,0,0,9.53955A1,1,0,0,1,366.52255,65.76221Z"/>
    <path class="cls-2" d="M373.09383,63.85547a1.00008,1.00008,0,0,1-.96924-0.75732c-0.63232-2.53027,1.45264-4.2832,2.64355-4.85645a1.00009,1.00009,0,0,1,.87158,1.80029c-0.09277.0459-1.96826,0.998-1.57471,2.5708A0.99973,0.99973,0,0,1,373.09383,63.85547Z"/>
    <path class="cls-2" d="M351.32089,57.40039a1.00083,1.00083,0,0,1-.92285-0.61377,1.974,1.974,0,0,0-2.0708-1.1543,0.99983,0.99983,0,1,1-.27637-1.98047,3.98266,3.98266,0,0,1,4.19189,2.36133A1.00088,1.00088,0,0,1,351.32089,57.40039Z"/>
    <path class="cls-2" d="M368.31063,50.91113a1.00023,1.00023,0,0,1-.99756-0.94434A2.65417,2.65417,0,0,0,366.004,48.647a1.00023,1.00023,0,1,1,.94043-1.76562c0.37842,0.20166,2.27246,1.293,2.36572,2.97412a1.00005,1.00005,0,0,1-.94287,1.0542C368.34823,50.91064,368.32919,50.91113,368.31063,50.91113Z"/>
    <path class="cls-2" d="M356.33846,53.38623a0.99851,0.99851,0,0,1-.80078-0.3999,3.42711,3.42711,0,0,1,.33105-4.42969,1,1,0,0,1,1.45459,1.37256,1.44723,1.44723,0,0,0-.186,1.85693A1,1,0,0,1,356.33846,53.38623Z"/>
    <path class="cls-2" d="M351.13876,64.94336a10.59135,10.59135,0,0,1-5.06689-1.32129,1,1,0,0,1,.99609-1.73437h0c0.22217,0.12646,5.49072,3.04932,9.16943-1.377a1,1,0,1,1,1.53809,1.27832A8.36025,8.36025,0,0,1,351.13876,64.94336Z"/>
    <path class="cls-2" d="M349.03671,73.21533a0.98968,0.98968,0,0,1-.37354-0.07324,0.9999,0.9999,0,0,1-.55322-1.30127,4.11921,4.11921,0,0,1,2.22461-2.12158,6.26427,6.26427,0,0,1,4.93506.416,1.00018,1.00018,0,0,1-.80762,1.83008,4.46637,4.46637,0,0,0-3.37451-.39307,2.17593,2.17593,0,0,0-1.123,1.0166A1.00042,1.00042,0,0,1,349.03671,73.21533Z"/>
    <path class="cls-2" d="M378.21346,78.94043c-0.01807,0-.03564-0.00049-0.05371-0.00146a0.99985,0.99985,0,0,1-.9458-1.05127,8.123,8.123,0,0,0-2.26074-5.7915c-1.70557-1.55127-4.31982-2.08838-7.771-1.59473-12.4834,1.78369-14.47852-6.64355-14.49707-6.729a0.99986,0.99986,0,0,1,1.95215-.43359c0.06836,0.293,1.7002,6.69336,12.26172,5.18311,4.0835-.583,7.249.12744,9.4165,2.10986a10.03641,10.03641,0,0,1,2.89551,7.36133A1,1,0,0,1,378.21346,78.94043Z"/>
    <path class="cls-2" d="M381.10116,83.53711c-0.03076,0-.0625-0.00146-0.09424-0.00439-0.187-.01758-4.60254-0.45947-6.31689-3.187a6.16766,6.16766,0,0,0-4.09668-2.57178c-2.26123-.38281-4.75342.4541-7.20947,2.41895a0.9998,0.9998,0,1,1-1.249-1.56152c3.68066-2.94482,6.81152-3.16455,8.792-2.82959a8.13663,8.13663,0,0,1,5.45654,3.47949c0.9917,1.57813,3.80811,2.1665,4.81006,2.26025A1,1,0,0,1,381.10116,83.53711Z"/>
    <path class="cls-2" d="M354.96444,77.97021a0.98447,0.98447,0,0,1-.4082-0.08838,0.99466,0.99466,0,0,1-.50537-1.30908c0.58154-1.32129,2.7207-3.65332,6.65771-3.03174a1.00015,1.00015,0,0,1-.31348,1.97559c-3.36426-.53271-4.47217,1.77246-4.51807,1.87061A1.00684,1.00684,0,0,1,354.96444,77.97021Z"/>
    <path class="cls-2" d="M366.43807,73.85693a1.00074,1.00074,0,0,1-.92822-1.37207c0.3667-.91553-0.84863-1.81934-0.86133-1.82812a1.00013,1.00013,0,0,1,1.167-1.62451c0.93311,0.6665,2.30957,2.30029,1.55176,4.1958A1.00172,1.00172,0,0,1,366.43807,73.85693Z"/>
  </g>
  <g class="cls-1">
    <path class="cls-2" d="M55.03573,123.85449a3.86012,3.86012,0,1,1,2.02344-.57568A3.86449,3.86449,0,0,1,55.03573,123.85449Zm-0.01025-5.72461a1.87107,1.87107,0,1,0,.43115.05078A1.8504,1.8504,0,0,0,55.02548,118.12988Z"/>
    <path class="cls-2" d="M34.66659,124.248a3.9123,3.9123,0,0,1-.895-0.10449,3.86261,3.86261,0,1,1,4.17334-5.79h0A3.86436,3.86436,0,0,1,34.66659,124.248ZM34.65585,118.521a1.8631,1.8631,0,1,0,1.58789.88428v-0.00049a1.85226,1.85226,0,0,0-1.15625-.8335A1.88719,1.88719,0,0,0,34.65585,118.521Z"/>
    <path class="cls-2" d="M45.75741,106.03613a3.9123,3.9123,0,0,1-.895-0.10449,3.86253,3.86253,0,1,1,4.17334-5.79h0A3.86436,3.86436,0,0,1,45.75741,106.03613Zm-0.01025-5.72559a1.862,1.862,0,1,0,1.5874.88281h0A1.86337,1.86337,0,0,0,45.74716,100.31055Z"/>
    <path class="cls-2" d="M26.86337,110.77a3.85938,3.85938,0,1,1,2.02393-.57568A3.86449,3.86449,0,0,1,26.86337,110.77Zm-0.01025-5.72461a1.87107,1.87107,0,1,0,.43115.05078A1.8504,1.8504,0,0,0,26.85311,105.04541Z"/>
    <path class="cls-2" d="M15.943,127.30225a3.9123,3.9123,0,0,1-.895-0.10449A3.84612,3.84612,0,1,1,15.943,127.30225Zm-0.01074-5.72705a1.87107,1.87107,0,1,0,.43115.05078A1.8504,1.8504,0,0,0,15.93221,121.5752Z"/>
    <path class="cls-2" d="M37.63583,121.437a1.00012,1.00012,0,0,1-.02148-2l14.11133-.30859a1.00024,1.00024,0,1,1,.04395,2l-14.11133.30859H37.63583Z"/>
    <path class="cls-2" d="M35.83749,118.86768a1.00011,1.00011,0,0,1-.835-1.54834l8.52783-13a0.99973,0.99973,0,0,1,1.67188,1.09668l-8.52783,13A0.99814,0.99814,0,0,1,35.83749,118.86768Z"/>
    <path class="cls-2" d="M33.12264,118.81152a0.99962,0.99962,0,0,1-.85889-0.48633l-4.89453-8.17432a0.99993,0.99993,0,1,1,1.71582-1.02734l4.89453,8.17432A1,1,0,0,1,33.12264,118.81152Z"/>
    <path class="cls-2" d="M16.86727,121.86377a1,1,0,0,1-.814-1.57959l8.27-11.63086a1,1,0,0,1,1.62988,1.15918l-8.27,11.63086A0.99782,0.99782,0,0,1,16.86727,121.86377Z"/>
  </g>
  <path class="cls-3" d="M23.7496,75.249a5,5,0,1,1,5-5A5.00589,5.00589,0,0,1,23.7496,75.249Zm0-8a3,3,0,1,0,3,3A3.00328,3.00328,0,0,0,23.7496,67.249Z"/>
  <path class="cls-3" d="M18.7496,151.96436a5,5,0,1,1,5-5A5.00589,5.00589,0,0,1,18.7496,151.96436Zm0-8a3,3,0,1,0,3,3A3.00328,3.00328,0,0,0,18.7496,143.96436Z"/>
  <path class="cls-3" d="M257.7496,21.91553a5,5,0,1,1,5-5A5.00589,5.00589,0,0,1,257.7496,21.91553Zm0-8a3,3,0,1,0,3,3A3.00328,3.00328,0,0,0,257.7496,13.91553Z"/>
  <path class="cls-3" d="M339.815,30.62842a5,5,0,1,1,5-5A5.00589,5.00589,0,0,1,339.815,30.62842Zm0-8a3,3,0,1,0,3,3A3.00328,3.00328,0,0,0,339.815,22.62842Z"/>
  <path class="cls-3" d="M177.14413,27.71436a5,5,0,1,1,5-5A5.00589,5.00589,0,0,1,177.14413,27.71436Zm0-8a3,3,0,1,0,3,3A3.00328,3.00328,0,0,0,177.14413,19.71436Z"/>
  <path class="cls-3" d="M67.2496,37.91553a5,5,0,1,1,5-5A5.00589,5.00589,0,0,1,67.2496,37.91553Zm0-8a3,3,0,1,0,3,3A3.00328,3.00328,0,0,0,67.2496,29.91553Z"/>
  <path class="cls-3" d="M79.2496,218.415a5,5,0,1,1,5-5A5.00589,5.00589,0,0,1,79.2496,218.415Zm0-8a3,3,0,1,0,3,3A3.00328,3.00328,0,0,0,79.2496,210.415Z"/>
  <path class="cls-3" d="M127.64413,213.21387a5,5,0,1,1,5-5A5.00589,5.00589,0,0,1,127.64413,213.21387Zm0-8a3,3,0,1,0,3,3A3.00328,3.00328,0,0,0,127.64413,205.21387Z"/>
  <path class="cls-3" d="M278.14413,281.71387a5,5,0,1,1,5-5A5.00589,5.00589,0,0,1,278.14413,281.71387Zm0-8a3,3,0,1,0,3,3A3.00328,3.00328,0,0,0,278.14413,273.71387Z"/>
  <path class="cls-3" d="M387.7496,158.46436a5,5,0,1,1,5-5A5.00589,5.00589,0,0,1,387.7496,158.46436Zm0-8a3,3,0,1,0,3,3A3.00328,3.00328,0,0,0,387.7496,150.46436Z"/>
  <path class="cls-3" d="M386.7496,286.915a5,5,0,1,1,5-5A5.00589,5.00589,0,0,1,386.7496,286.915Zm0-8a3,3,0,1,0,3,3A3.00328,3.00328,0,0,0,386.7496,278.915Z"/>
  <path class="cls-3" d="M236.7496,137.96436a5,5,0,1,1,5-5A5.00589,5.00589,0,0,1,236.7496,137.96436Zm0-8a3,3,0,1,0,3,3A3.00328,3.00328,0,0,0,236.7496,129.96436Z"/>
  <circle class="cls-3" cx="73.24956" cy="114.71435" r="2.75"/>
  <circle class="cls-3" cx="212.31494" cy="271.12835" r="2.75"/>
  <circle class="cls-3" cx="197.06494" cy="67.12835" r="2.75"/>
  <circle class="cls-3" cx="106.81494" cy="190.4272" r="2.75"/>
  <circle class="cls-3" cx="316.06494" cy="67.12835" r="2.75"/>
  <circle class="cls-3" cx="305.64412" cy="256.71435" r="2.75"/>
  <circle class="cls-3" cx="332.64412" cy="209.21435" r="2.75"/>
  <circle class="cls-3" cx="166.14412" cy="165.21435" r="2.75"/>
  <g class="cls-1">
    <path class="cls-2" d="M135.1246,33.54053a1,1,0,0,1-.707-1.707l6.375-6.375a0.99989,0.99989,0,0,1,1.41406,1.41406l-6.375,6.375A0.99676,0.99676,0,0,1,135.1246,33.54053Z"/>
    <path class="cls-2" d="M141.4996,33.54053a0.99676,0.99676,0,0,1-.707-0.293l-6.375-6.375a0.99989,0.99989,0,0,1,1.41406-1.41406l6.375,6.375A1,1,0,0,1,141.4996,33.54053Z"/>
  </g>
  <g class="cls-1">
    <path class="cls-2" d="M262.1246,77.54053a1,1,0,0,1-.707-1.707l6.375-6.375a0.99989,0.99989,0,0,1,1.41406,1.41406l-6.375,6.375A0.99676,0.99676,0,0,1,262.1246,77.54053Z"/>
    <path class="cls-2" d="M268.4996,77.54053a0.99676,0.99676,0,0,1-.707-0.293l-6.375-6.375a0.99989,0.99989,0,0,1,1.41406-1.41406l6.375,6.375A1,1,0,0,1,268.4996,77.54053Z"/>
  </g>
  <g class="cls-1">
    <path class="cls-2" d="M253.6246,237.04a1,1,0,0,1-.707-1.707l6.375-6.375a0.99989,0.99989,0,0,1,1.41406,1.41406l-6.375,6.375A0.99676,0.99676,0,0,1,253.6246,237.04Z"/>
    <path class="cls-2" d="M259.9996,237.04a0.99676,0.99676,0,0,1-.707-0.293l-6.375-6.375a0.99989,0.99989,0,0,1,1.41406-1.41406l6.375,6.375A1,1,0,0,1,259.9996,237.04Z"/>
  </g>
  <g class="cls-1">
    <path class="cls-2" d="M169.1246,142.33936a1,1,0,0,1-.707-1.707l6.375-6.375a0.99989,0.99989,0,0,1,1.41406,1.41406l-6.375,6.375A0.99676,0.99676,0,0,1,169.1246,142.33936Z"/>
    <path class="cls-2" d="M175.4996,142.33936a0.99676,0.99676,0,0,1-.707-0.293l-6.375-6.375a0.99989,0.99989,0,0,1,1.41406-1.41406l6.375,6.375A1,1,0,0,1,175.4996,142.33936Z"/>
  </g>
  <g class="cls-1">
    <path class="cls-2" d="M209.1246,207.29a1,1,0,0,1-.707-1.707l6.375-6.375a0.99989,0.99989,0,0,1,1.41406,1.41406l-6.375,6.375A0.99676,0.99676,0,0,1,209.1246,207.29Z"/>
    <path class="cls-2" d="M215.4996,207.29a0.99676,0.99676,0,0,1-.707-0.293l-6.375-6.375a0.99989,0.99989,0,0,1,1.41406-1.41406l6.375,6.375A1,1,0,0,1,215.4996,207.29Z"/>
  </g>
  <g class="cls-1">
    <path class="cls-2" d="M333.7911,159.50586a1,1,0,0,1-.707-1.707l6.375-6.375a0.99989,0.99989,0,0,1,1.41406,1.41406l-6.375,6.375A0.99676,0.99676,0,0,1,333.7911,159.50586Z"/>
    <path class="cls-2" d="M340.1661,159.50586a0.99676,0.99676,0,0,1-.707-0.293l-6.375-6.375a0.99989,0.99989,0,0,1,1.41406-1.41406l6.375,6.375A1,1,0,0,1,340.1661,159.50586Z"/>
  </g>
  <g class="cls-1">
    <path class="cls-2" d="M129.8121,61.11084a1,1,0,0,1-1-1V53.59521a1,1,0,1,1,2,0v6.51563A1,1,0,0,1,129.8121,61.11084Z"/>
    <path class="cls-2" d="M133.06991,57.853h-6.51562a1,1,0,0,1,0-2h6.51563A1,1,0,0,1,133.06991,57.853Z"/>
  </g>
  <g class="cls-1">
    <path class="cls-2" d="M82.3121,278.61035a0.99974,0.99974,0,0,1-1-1v-6.51562a1,1,0,0,1,2,0v6.51563A0.99974,0.99974,0,0,1,82.3121,278.61035Z"/>
    <path class="cls-2" d="M85.56991,275.35254H79.05428a1,1,0,0,1,0-2h6.51563A1,1,0,1,1,85.56991,275.35254Z"/>
  </g>
  <g class="cls-1">
    <path class="cls-2" d="M35.3121,246.11035a0.99974,0.99974,0,0,1-1-1v-6.51562a1,1,0,0,1,2,0v6.51563A0.99974,0.99974,0,0,1,35.3121,246.11035Z"/>
    <path class="cls-2" d="M38.56991,242.85254H32.05428a1,1,0,0,1,0-2h6.51563A1,1,0,1,1,38.56991,242.85254Z"/>
  </g>
  <g class="cls-1">
    <path class="cls-2" d="M172.8121,99.11084a1,1,0,0,1-1-1V91.59521a1,1,0,1,1,2,0v6.51563A1,1,0,0,1,172.8121,99.11084Z"/>
    <path class="cls-2" d="M176.06991,95.853h-6.51562a1,1,0,0,1,0-2h6.51563A1,1,0,0,1,176.06991,95.853Z"/>
  </g>
  <g class="cls-1">
    <path class="cls-2" d="M262.8121,166.65967a1,1,0,0,1-1-1V159.144a1,1,0,0,1,2,0v6.51563A1,1,0,0,1,262.8121,166.65967Z"/>
    <path class="cls-2" d="M266.06991,163.40186h-6.51562a1,1,0,0,1,0-2h6.51563A1,1,0,0,1,266.06991,163.40186Z"/>
  </g>
  <g class="cls-1">
    <path class="cls-2" d="M372.8121,260.11035a0.99974,0.99974,0,0,1-1-1v-6.51562a1,1,0,0,1,2,0v6.51563A0.99974,0.99974,0,0,1,372.8121,260.11035Z"/>
    <path class="cls-2" d="M376.06991,256.85254h-6.51562a1,1,0,0,1,0-2h6.51563A1,1,0,0,1,376.06991,256.85254Z"/>
  </g>
  <g class="cls-1">
    <path class="cls-2" d="M162.14413,62.48438a7.45331,7.45331,0,0,1-5.78418-2.73779l-2.21289-2.69775a7.48006,7.48006,0,0,1,1.04248-10.52734,7.52312,7.52312,0,0,1,6.95459-1.36133,7.5152,7.5152,0,0,1,6.95508,1.36133,7.48059,7.48059,0,0,1,1.0415,10.52686l-2.2124,2.69873A7.45431,7.45431,0,0,1,162.14413,62.48438ZM159.94247,46.8291a5.50362,5.50362,0,0,0-3.48535,1.23926,5.47974,5.47974,0,0,0-.76318,7.7124l2.21289,2.69775a5.47851,5.47851,0,0,0,8.47461,0l2.2124-2.69824a5.47974,5.47974,0,0,0-.7627-7.71191,5.5098,5.5098,0,0,0-5.34668-.91357,1.00584,1.00584,0,0,1-.68066,0A5.465,5.465,0,0,0,159.94247,46.8291Z"/>
    <path class="cls-2" d="M162.14413,47.21289a0.99909,0.99909,0,0,1-1-.98633,7.19687,7.19687,0,0,1,1.7832-4.78955,4.4391,4.4391,0,0,1,3.49609-1.17822,0.99982,0.99982,0,0,1,.9375,1.05859,0.98494,0.98494,0,0,1-1.05859.9375,2.51846,2.51846,0,0,0-1.99023.625,5.23472,5.23472,0,0,0-1.168,3.3252,1.00166,1.00166,0,0,1-.99072,1.00781h-0.00928Z"/>
    <path class="cls-2" d="M159.44589,46.1626a4.24955,4.24955,0,0,1-1.186-.16309,6.34988,6.34988,0,0,1-2.645-1.46191,2.593,2.593,0,0,1-.87646-2.5542V41.98291c0.45654-1.57568,2.65771-2.22656,5.123-1.51367,2.28027,0.65967,3.42969,3.22754,3.47754,3.33643a1.00014,1.00014,0,0,1-.35645,1.23047A7.07575,7.07575,0,0,1,159.44589,46.1626Zm-2.78662-3.623a0.91792,0.91792,0,0,0,.354.56836,4.40027,4.40027,0,0,0,1.80273.9707,3.47858,3.47858,0,0,0,2.21973-.27295,3.54474,3.54474,0,0,0-1.73047-1.41553c-1.55078-.44824-2.585-0.061-2.646.14941h0Z"/>
  </g>
  <g class="cls-1">
    <path class="cls-2" d="M60.51962,198.19336H22.98885a7.87363,7.87363,0,0,1-3.80078-.98047,0.99989,0.99989,0,0,1,.96777-1.75,5.87541,5.87541,0,0,0,2.833.73047H60.51962a5.89648,5.89648,0,0,0,0-11.793H22.98885a5.82,5.82,0,0,0-2.31836.47754,0.99993,0.99993,0,0,1-.793-1.83594,7.79837,7.79837,0,0,1,3.11133-.6416H60.51962A7.89648,7.89648,0,0,1,60.51962,198.19336Z"/>
    <path class="cls-2" d="M34.37655,201.93555H21.81307a7.90539,7.90539,0,0,1-7.897-7.89648V190.0293a1,1,0,0,1,2,0v4.00977a5.90372,5.90372,0,0,0,5.897,5.89648H34.37655A1,1,0,0,1,34.37655,201.93555Z"/>
    <path class="cls-2" d="M59.34335,201.93555H49.23885a1,1,0,0,1,0-2H59.34335A1,1,0,0,1,59.34335,201.93555Z"/>
    <path class="cls-2" d="M44.962,205.46387a0.98964,0.98964,0,0,1-.41357-0.08984l-3.11768-1.416-2.689,1.20508a0.99925,0.99925,0,0,1-1.40918-.91211V196.873a0.99957,0.99957,0,0,1,.26514-0.67773,8.60414,8.60414,0,0,0,2.65088-6.18652,8.84059,8.84059,0,0,0-2.5918-5.55078,1.00015,1.00015,0,0,1,1.35156-1.47461,10.84022,10.84022,0,0,1,3.23877,6.94141,10.34573,10.34573,0,0,1-2.91455,7.332v5.4502l1.69189-.75879a0.99164,0.99164,0,0,1,.82275.002l2.11475,0.96094v-5.82422a1,1,0,0,1,2,0v7.377A0.99973,0.99973,0,0,1,44.962,205.46387Z"/>
    <path class="cls-2" d="M44.34432,197.873a0.99948,0.99948,0,0,1-.73437-1.67773,8.60414,8.60414,0,0,0,2.65088-6.18652A8.84059,8.84059,0,0,0,43.669,184.458a1.00015,1.00015,0,0,1,1.35156-1.47461,10.84022,10.84022,0,0,1,3.23877,6.94141,10.5128,10.5128,0,0,1-3.17969,7.626A0.99652,0.99652,0,0,1,44.34432,197.873Z"/>
    <path class="cls-2" d="M21.4244,193.79a0.99977,0.99977,0,0,1-.688-1.72559,2.47688,2.47688,0,0,0,.91895-1.77832,2.93192,2.93192,0,0,0-.90088-1.84668,1,1,0,0,1,1.335-1.48926,4.85976,4.85976,0,0,1,1.56543,3.29395,4.36715,4.36715,0,0,1-1.54248,3.27148A0.99575,0.99575,0,0,1,21.4244,193.79Z"/>
    <path class="cls-2" d="M14.9161,195.57422a0.99974,0.99974,0,0,1-1-1v-4.00977a7.85257,7.85257,0,0,1,2.19775-5.4541,0.99978,0.99978,0,1,1,1.44434,1.38281,5.86443,5.86443,0,0,0-1.64209,4.07129v4.00977A0.99974,0.99974,0,0,1,14.9161,195.57422Z"/>
  </g>
  <g class="cls-1">
    <path class="cls-2" d="M353.01962,288.64453H315.48885a7.87363,7.87363,0,0,1-3.80078-.98047,0.99989,0.99989,0,0,1,.96777-1.75,5.87541,5.87541,0,0,0,2.833.73047h37.53076a5.89648,5.89648,0,0,0,0-11.793H315.48885a5.82,5.82,0,0,0-2.31836.47754,0.99993,0.99993,0,0,1-.793-1.83594,7.79837,7.79837,0,0,1,3.11133-.6416h37.53076A7.89648,7.89648,0,0,1,353.01962,288.64453Z"/>
    <path class="cls-2" d="M326.87655,292.38672H314.31307a7.90539,7.90539,0,0,1-7.897-7.89648v-4.00977a1,1,0,1,1,2,0v4.00977a5.90372,5.90372,0,0,0,5.897,5.89648h12.56348A1,1,0,0,1,326.87655,292.38672Z"/>
    <path class="cls-2" d="M351.84335,292.38672H341.73885a1,1,0,0,1,0-2h10.10449A1,1,0,0,1,351.84335,292.38672Z"/>
    <path class="cls-2" d="M337.462,295.915a0.98964,0.98964,0,0,1-.41357-0.08984l-3.11768-1.417-2.68945,1.20508a1,1,0,0,1-1.40869-.91211v-7.377a0.99957,0.99957,0,0,1,.26514-0.67773,8.60414,8.60414,0,0,0,2.65088-6.18652,8.84059,8.84059,0,0,0-2.5918-5.55078,1.00015,1.00015,0,0,1,1.35156-1.47461,10.84022,10.84022,0,0,1,3.23877,6.94141,10.34573,10.34573,0,0,1-2.91455,7.332v5.44922l1.69189-.75781a0.99909,0.99909,0,0,1,.82275.002l2.11475,0.96094v-5.82422a1,1,0,1,1,2,0v7.377A0.99973,0.99973,0,0,1,337.462,295.915Z"/>
    <path class="cls-2" d="M336.84432,288.32422a0.99948,0.99948,0,0,1-.73437-1.67773,8.60414,8.60414,0,0,0,2.65088-6.18652,8.84058,8.84058,0,0,0-2.5918-5.55078,1.00015,1.00015,0,0,1,1.35156-1.47461,10.84022,10.84022,0,0,1,3.23877,6.94141,10.5128,10.5128,0,0,1-3.17969,7.626A0.99652,0.99652,0,0,1,336.84432,288.32422Z"/>
    <path class="cls-2" d="M313.9244,284.24121a0.99977,0.99977,0,0,1-.688-1.72559,2.47147,2.47147,0,0,0,.91846-1.79,2.96021,2.96021,0,0,0-.89551-1.83105,1.0002,1.0002,0,0,1,1.33008-1.49414,4.86092,4.86092,0,0,1,1.56543,3.29492,4.36734,4.36734,0,0,1-1.54248,3.27148A0.99575,0.99575,0,0,1,313.9244,284.24121Z"/>
    <path class="cls-2" d="M307.4161,286.02539a0.99974,0.99974,0,0,1-1-1v-4.00977a7.85257,7.85257,0,0,1,2.19775-5.4541,0.99978,0.99978,0,1,1,1.44434,1.38281,5.86443,5.86443,0,0,0-1.64209,4.07129v4.00977A0.99974,0.99974,0,0,1,307.4161,286.02539Z"/>
  </g>
  <g class="cls-1">
    <g>
      <path class="cls-2" d="M48.76669,46.48H10.79061a2.66965,2.66965,0,0,1-2.6665-2.6665v-6.502a2.66976,2.66976,0,0,1,2.6665-2.667H48.76669a2.66976,2.66976,0,0,1,2.6665,2.667v6.502A2.66965,2.66965,0,0,1,48.76669,46.48ZM10.79061,36.64453a0.66747,0.66747,0,0,0-.6665.667v6.502a0.667,0.667,0,0,0,.6665.6665H48.76669a0.667,0.667,0,0,0,.6665-0.6665v-6.502a0.66747,0.66747,0,0,0-.6665-0.667H10.79061Z"/>
      <path class="cls-2" d="M15.15633,46.22217a1,1,0,0,1-1-1V36.21973a1,1,0,0,1,2,0v9.00244A1,1,0,0,1,15.15633,46.22217Z"/>
      <path class="cls-2" d="M20.15633,46.34912a1,1,0,0,1-1-1V35.77588a1,1,0,0,1,2,0v9.57324A1,1,0,0,1,20.15633,46.34912Z"/>
      <path class="cls-2" d="M45.64657,46.34912a1,1,0,0,1-1-1V35.77588a1,1,0,0,1,2,0v9.57324A1,1,0,0,1,45.64657,46.34912Z"/>
    </g>
    <g>
      <path class="cls-2" d="M49.15975,18.18652H11.18417a2.66976,2.66976,0,0,1-2.6665-2.667v-6.502a2.66976,2.66976,0,0,1,2.6665-2.667H49.15975a2.66986,2.66986,0,0,1,2.667,2.667v6.502A2.66986,2.66986,0,0,1,49.15975,18.18652ZM11.18417,8.35059a0.66747,0.66747,0,0,0-.6665.667v6.502a0.66747,0.66747,0,0,0,.6665.667H49.15975a0.66788,0.66788,0,0,0,.667-0.667v-6.502a0.66788,0.66788,0,0,0-.667-0.667H11.18417Z"/>
      <path class="cls-2" d="M15.54989,17.92822a1,1,0,0,1-1-1V7.92578a1,1,0,0,1,2,0v9.00244A1,1,0,0,1,15.54989,17.92822Z"/>
      <path class="cls-2" d="M46.04012,18.05518a1,1,0,0,1-1-1V7.48193a1,1,0,1,1,2,0v9.57324A1,1,0,0,1,46.04012,18.05518Z"/>
    </g>
    <g>
      <path class="cls-2" d="M45.68466,32.49707H7.70907a2.66976,2.66976,0,0,1-2.667-2.6665V23.32813a2.66976,2.66976,0,0,1,2.667-2.6665H45.68466a2.66965,2.66965,0,0,1,2.6665,2.6665v6.50244A2.66965,2.66965,0,0,1,45.68466,32.49707ZM7.70907,22.66162a0.66747,0.66747,0,0,0-.667.6665v6.50244a0.66747,0.66747,0,0,0,.667.6665H45.68466a0.667,0.667,0,0,0,.6665-0.6665V23.32813a0.667,0.667,0,0,0-.6665-0.6665H7.70907Z"/>
      <path class="cls-2" d="M11.28768,32.23926a1,1,0,0,1-1-1V22.23682a1,1,0,0,1,2,0v9.00244A1,1,0,0,1,11.28768,32.23926Z"/>
      <path class="cls-2" d="M42.56454,32.36621a1,1,0,0,1-1-1V21.793a1,1,0,0,1,2,0v9.57324A1,1,0,0,1,42.56454,32.36621Z"/>
      <path class="cls-2" d="M16.50948,25.07132h20.178a1.2874,1.2874,0,0,1,1.2874,1.2874v0.507a1.2874,1.2874,0,0,1-1.2874,1.2874h-20.178a1.28739,1.28739,0,0,1-1.28739-1.28739v-0.507A1.2874,1.2874,0,0,1,16.50948,25.07132Z"/>
    </g>
  </g>
  <g class="cls-1">
    <path class="cls-2" d="M183.6246,278.68457h-75a6.00656,6.00656,0,0,1-6-6V232.415a6.00656,6.00656,0,0,1,6-6h75a6.00656,6.00656,0,0,1,6,6v40.26953A6.00656,6.00656,0,0,1,183.6246,278.68457Zm-75-50.26953a4.00427,4.00427,0,0,0-4,4v40.26953a4.00427,4.00427,0,0,0,4,4h75a4.00427,4.00427,0,0,0,4-4V232.415a4.00427,4.00427,0,0,0-4-4h-75Z"/>
    <path class="cls-2" d="M161.64315,283.71094H130.606a3.07924,3.07924,0,0,1-3.07568-3.0752v-3.86523h2v3.86523a1.07663,1.07663,0,0,0,1.07568,1.0752h31.03711a1.07663,1.07663,0,0,0,1.07568-1.0752v-3.86523h2v3.86523A3.07924,3.07924,0,0,1,161.64315,283.71094Z"/>
    <path class="cls-2" d="M172.44979,292.85059H119.7994a2.21057,2.21057,0,0,1-2.2085-2.208v-2.38184a2.21057,2.21057,0,0,1,2.2085-2.208h52.65039a2.21057,2.21057,0,0,1,2.2085,2.208v2.38184A2.21057,2.21057,0,0,1,172.44979,292.85059Zm-52.65039-4.79785a0.20891,0.20891,0,0,0-.2085.208v2.38184a0.20891,0.20891,0,0,0,.2085.208h52.65039a0.20891,0.20891,0,0,0,.2085-0.208v-2.38184a0.20891,0.20891,0,0,0-.2085-0.208H119.7994Z"/>
    <path class="cls-2" d="M180.96688,273.04785H111.28182a2.836,2.836,0,0,1-2.833-2.833V234.88477a2.836,2.836,0,0,1,2.833-2.833h69.68506a2.83615,2.83615,0,0,1,2.8335,2.833v35.33008A2.83615,2.83615,0,0,1,180.96688,273.04785Zm-69.68506-38.99609a0.83407,0.83407,0,0,0-.833.833v35.33008a0.83407,0.83407,0,0,0,.833.833h69.68506a0.83449,0.83449,0,0,0,.8335-0.833V234.88477a0.83449,0.83449,0,0,0-.8335-0.833H111.28182Z"/>
    <rect class="cls-2" x="109.98446" y="266.7832" width="72.2041" height="2"/>
    <path class="cls-2" d="M139.01278,259.94824h-23.478V236.46973h23.478v23.47852Zm-21.478-2h19.478V238.46973h-19.478v19.47852Z"/>
    <polygon class="cls-2" points="174.049 265.127 130.701 265.127 130.701 263.127 172.049 263.127 172.049 243.648 142.278 243.648 142.278 241.648 174.049 241.648 174.049 265.127"/>
    <rect class="cls-2" x="116.80087" y="240.35352" width="20.6792" height="2"/>
    <rect class="cls-2" x="142.50692" y="245.38086" width="30.27539" height="2"/>
  </g>
  <g class="cls-1">
    <path class="cls-2" d="M81.43514,176.80713A3.54736,3.54736,0,0,1,78.92489,170.75l1.457-1.457a5.2434,5.2434,0,0,1,1.51563-3.85645l8.90918-8.90869-1.42334-1.42334,6.91748-6.91748,2.43555,2.43555,3.2583-3.2583a1.83542,1.83542,0,0,1,2.59277,0l2.74316,2.74365a1.83483,1.83483,0,0,1,0,2.59229l-3.2583,3.2583,2.43555,2.43555-6.91748,6.91748-1.42285-1.42285-8.90869,8.9082a5.08965,5.08965,0,0,1-3.9458,1.605L83.94589,175.77A3.5292,3.5292,0,0,1,81.43514,176.80713Zm10.77637-21.70264,1.42334,1.42334L83.3121,166.8501a3.23224,3.23224,0,0,0-.90576,2.69238l0.06494,0.48926-2.13184,2.13232a1.55325,1.55325,0,0,0,.00049,2.19238,1.593,1.593,0,0,0,2.19189-.001l2.083-2.084,0.51709,0.09521a3.03045,3.03045,0,0,0,2.71338-.98437l10.32227-10.32178,1.42285,1.42285,4.08936-4.08936-2.43555-2.43555,4.5542-4.55469L103.2911,148.896l-4.55469,4.55469-2.43555-2.43555Z"/>
    <path class="cls-2" d="M95.62158,161.92972l-2.7906-2.7906-3.9013,3.9013a2.80116,2.80116,0,0,0,.53108,1.12869c0.55451,0.55448.89278,0.21623,1.44729,0.77074a3.09131,3.09131,0,0,1,.5473,1.15612Z"/>
  </g>
  <g class="cls-1">
    <path class="cls-2" d="M376.07919,134.00293l-8.92969-2.479-1.94043-21.76221h21.76465l-1.94238,21.75977Zm-7.06055-4.03564,7.06055,1.96045,7.083-1.96387,1.625-18.20215h-17.3916Z"/>
    <polygon class="cls-2" points="382.223 114.847 376.091 114.847 376.083 114.847 369.946 114.847 370.004 115.504 370.607 122.258 376.083 122.258 376.091 122.258 379.101 122.258 378.816 125.437 376.083 126.175 376.083 126.175 376.081 126.176 373.351 125.439 373.176 123.484 371.85 123.484 370.716 123.484 371.06 127.332 376.08 128.726 376.091 128.723 376.091 128.723 381.108 127.332 381.144 126.918 381.72 120.466 381.78 119.808 381.12 119.808 376.091 119.808 376.083 119.808 372.848 119.808 372.624 117.298 376.083 117.298 376.091 117.298 381.995 117.298 382.003 117.298 382.052 116.747 382.164 115.504 382.223 114.847"/>
  </g>
  <g class="cls-1">
    <path class="cls-2" d="M386.05966,31.49512L377.13,29.0166,375.18954,7.25439H396.9537L395.0118,29.01367ZM378.99911,27.46l7.06055,1.96,7.083-1.96387,1.62451-18.20166H377.37606Z"/>
    <polygon class="cls-2" points="392.217 12.167 386.08 12.167 386.072 12.167 379.94 12.167 379.999 12.825 380.111 14.068 380.16 14.619 380.168 14.619 386.072 14.619 386.08 14.619 389.539 14.619 389.315 17.128 386.072 17.128 386.072 17.129 383.157 17.129 383.216 17.786 383.327 19.029 383.377 19.58 383.384 19.58 386.072 19.58 386.072 19.579 389.097 19.579 388.811 22.758 386.078 23.496 386.078 23.496 386.076 23.497 383.346 22.759 383.171 20.805 381.845 20.805 380.711 20.805 381.055 24.653 386.075 26.047 386.086 26.044 386.086 26.043 391.102 24.653 391.139 24.239 391.556 19.579 391.556 19.579 391.559 19.548 391.566 19.475 391.566 19.475 392.159 12.825 392.217 12.167"/>
  </g>
  <g class="cls-1">
    <path class="cls-2" d="M70.01962,253.63477l-8.92969-2.47949-1.94043-21.7627H80.91366l-1.94189,21.75879Zm-7.06055-4.03613,7.06055,1.96,7.083-1.96387,1.62451-18.20215H61.336Z"/>
    <polygon class="cls-2" points="70.064 235.504 70.064 235.507 70.511 235.507 73.013 235.658 73.24 238.189 74.566 238.189 75.7 238.189 75.352 234.338 75.237 232.948 70.347 232.948 70.336 232.947 70.332 232.948 70.064 232.948 65.462 232.948 65.28 234.755 64.704 241.207 64.644 241.865 65.305 241.865 70.003 241.865 70.003 241.866 73.021 241.866 72.737 245.045 70.003 245.783 70.003 245.783 70.001 245.784 67.271 245.047 67.097 243.092 65.77 243.092 64.636 243.092 64.98 246.94 70 248.334 70.011 248.331 70.011 248.331 75.028 246.94 75.064 246.526 75.64 240.074 75.7 239.416 75.04 239.416 70.342 239.416 70.342 239.414 67.324 239.414 67.677 235.568 70.064 235.504"/>
  </g>
</svg>
