<svg id="Layer_1" data-name="Layer 1" xmlns="http://www.w3.org/2000/svg" width="535.09" height="98.42" viewBox="0 0 535.09 98.42">
  <defs>
    <style>
      .cls-1 {
        fill: #fff;
      }
    </style>
  </defs>
  <title>hackru-logo</title>
  <g>
    <path class="cls-1" d="M771.18,308H758.85a2.1,2.1,0,0,0-1.4,1,2.77,2.77,0,0,0-.44,1.93v37.72h0v16.55h0v37a1.58,1.58,0,0,0,1.85,1.83h12.33a2.67,2.67,0,0,0,1.89-.44,2,2,0,0,0,.93-1.39V310.9a3.22,3.22,0,0,0-.93-1.93A3.18,3.18,0,0,0,771.18,308Z" transform="translate(-692.45 -308)"/>
    <path class="cls-1" d="M745.23,348.62H709V310.9a2.85,2.85,0,0,0-.57-1.93,2.35,2.35,0,0,0-1.53-1H694.57a2.36,2.36,0,0,0-1.54,1,2.84,2.84,0,0,0-.58,1.93v91.27a2,2,0,0,0,2.12,2.11H706.9a2,2,0,0,0,2.1-2.11v-37h36.23a2.88,2.88,0,0,0,2.88-2.88V351.51A2.88,2.88,0,0,0,745.23,348.62Z" transform="translate(-692.45 -308)"/>
    <path class="cls-1" d="M820.32,348c-8.32,0-15.21,2.65-20.73,7.95s-8.28,12.38-8.28,21.24q0,13,6.72,21c4.48,5.35,10.5,8,18.17,8a23.68,23.68,0,0,0,6.64-.9,2.74,2.74,0,0,0,2-2.64v-9.08a2.92,2.92,0,0,0-2.91-2.91h-2c-3.75,0-6.87-.82-9.43-3.06s-3.82-5.72-3.82-10.75c0-4.57,1.42-8,4.26-10.34a14.32,14.32,0,0,1,9.46-3.53,13.7,13.7,0,0,1,9.18,3.58c2.74,2.38,4.3,5.9,4.3,10.56,0,0.85,0,2,0,2.74v22.21a1.79,1.79,0,0,0,.38,1.54,1.53,1.53,0,0,0,1.34.58h11.24a1.89,1.89,0,0,0,1.52-.58,1.91,1.91,0,0,0,.56-1.54V376.82c0-9.13-2.57-16.22-8-21.24S828.72,348,820.32,348Z" transform="translate(-692.45 -308)"/>
    <path class="cls-1" d="M907.67,351.94a31.83,31.83,0,0,0-16-3.9q-12.61,0-20.69,7.6t-8.09,21.45q0,13.84,8.09,21.45t20.69,7.61q18.36,0,25.63-14.25,1-2.33-1.23-3l-10-4.25a2.6,2.6,0,0,0-3.29,1.23q-3.57,5.07-11.1,5.07a13.7,13.7,0,0,1-9.11-3.29q-3.91-3.29-3.91-10.55t3.91-10.55a13.71,13.71,0,0,1,9.11-3.29q7.67,0,11.1,5.48A2.58,2.58,0,0,0,906,370.1l10.41-3.56q2.33-.82,1.37-3A23.6,23.6,0,0,0,907.67,351.94Z" transform="translate(-692.45 -308)"/>
    <path class="cls-1" d="M1179.3,309a2.63,2.63,0,0,0-1.66-1h-12.33a2.56,2.56,0,0,0-1.63,1,2.92,2.92,0,0,0-.67,1.93v55.78q0,12.61-6.52,18a23.75,23.75,0,0,1-15.56,5.35,27.94,27.94,0,0,1-7.2-.89,25.93,25.93,0,0,1-7-3.15,15.89,15.89,0,0,1-6.18-7.19,30.15,30.15,0,0,1-2.55-12.06V310.9c0-.64.19-1.47-0.26-1.93s-0.58-1-1.22-1h-12.33a3.64,3.64,0,0,0-2.07,1,3.48,3.48,0,0,0-1.11,1.93v55.78c0,12.61,4.08,22.38,11.39,29.33s16.89,10.41,28.31,10.41,20.9-3.47,28.21-10.41S1180,379.28,1180,366.68V310.9A3,3,0,0,0,1179.3,309Z" transform="translate(-692.45 -308)"/>
    <g>
      <path class="cls-1" d="M949.72,369.68h0v-58.4a4,4,0,0,0-1.49-2.95,1.74,1.74,0,0,0-.94-0.33H936a3.41,3.41,0,0,0-2.88,2.9v91.27a2.34,2.34,0,0,0,1,1.54,2.82,2.82,0,0,0,1.92.58h11.24a2.26,2.26,0,0,0,1.69-.58,2.06,2.06,0,0,0,.74-1.54V384.73h0v-15Z" transform="translate(-692.45 -308)"/>
      <path class="cls-1" d="M975.85,377.54a0.8,0.8,0,0,1,0-1l18.29-24.89a1,1,0,0,0,.07-1.18,1,1,0,0,0-1-.4H978.52a4,4,0,0,0-3.7,1.83l-11,16h0l-6.06,8.76a0.8,0.8,0,0,0,0,.91l6.06,8.8v0l11,16a4,4,0,0,0,3.7,1.83h14.66a1,1,0,0,0,1-.51,1.14,1.14,0,0,0-.07-1.25Z" transform="translate(-692.45 -308)"/>
    </g>
    <path class="cls-1" d="M1209.32,376.87a0.8,0.8,0,0,1,0,1L1191,402.71a1,1,0,0,0-.07,1.18,1,1,0,0,0,1,.4h14.66a4,4,0,0,0,3.7-1.83l11-16h0l6.06-8.76a0.8,0.8,0,0,0,0-.91l-6.06-8.8v0l-11-16a4,4,0,0,0-3.7-1.83H1192a1,1,0,0,0-1,.51,1.14,1.14,0,0,0,.07,1.25Z" transform="translate(-692.45 -308)"/>
    <path class="cls-1" d="M1042.51,375.7h-1a3.07,3.07,0,0,1-3.07-3.07V362.22a3.07,3.07,0,0,1,3.07-3.07h6.32c6.12,0,10.67-1.49,13.64-4.6s4.45-7.35,4.45-12.56-1.49-9.45-4.45-12.55-7.52-4.89-13.64-4.89h-18.42v34.6h0V375.7h0v26.47a2.22,2.22,0,0,1-.87,1.54,2.58,2.58,0,0,1-1.83.58h-12.66a2.66,2.66,0,0,1-1.84-.74,2.07,2.07,0,0,1-.87-1.37V310.9a3.35,3.35,0,0,1,1-1.93,3.43,3.43,0,0,1,2-1h35.36c9.59,0,17.47,3.19,23.64,9s9.25,14.38,9.25,25.16q0,12.61-6,20.83a28,28,0,0,1-16,10.8S1057.6,375.47,1042.51,375.7Z" transform="translate(-692.45 -308)"/>
    <path class="cls-1" d="M1078.22,404.29h-15a6.33,6.33,0,0,1-4.38-2.54l-19.78-27.22c-1-1.4-.71-2.54.69-2.54h15a6.33,6.33,0,0,1,4.38,2.54l19.78,27.22C1079.94,403.15,1079.63,404.29,1078.22,404.29Z" transform="translate(-692.45 -308)"/>
  </g>
</svg>
