<svg id="Layer_2" data-name="Layer 2" xmlns="http://www.w3.org/2000/svg" viewBox="0 0 497.9751 328.48358">
  <defs>
    <style>
      .cls-1 {
        fill: #dd2626;
      }

      .cls-2 {
        fill: #fff;
      }
    </style>
  </defs>
  <title>hack-ru-logo-rel</title>
  <g>
    <path class="cls-1" d="M338.8049,212.414v12.76c-3.43,7.9-24.73,51.54-83.49,68.74-26.59-7.77-48.71-21.71-65.76-41.46a112.3565,112.3565,0,0,1-17.73-27.29v-12.75h166.98Zm-50.21,46.8,9.01-10.89-11.86-11.85-10.89,9a38.5564,38.5564,0,0,0-9.83-4.1l-1.33-14.04h-16.77l-1.33,14.04a38.5564,38.5564,0,0,0-9.83,4.1l-10.88-9-11.86,11.85,9,10.89a38.21766,38.21766,0,0,0-3.33,7.26,126.79362,126.79362,0,0,0,17.93,10.47,18.77272,18.77272,0,0,1,37.37,0,126.23433,126.23433,0,0,0,17.93-10.47A38.21766,38.21766,0,0,0,288.5949,259.214Z"/>
    <path class="cls-1" d="M338.8049,48.514v45.64h-166.98V48.514c16.26-6.64,35.81-11.22,56.91-13.32l2.61-.26s17.97-1.13,23.97-1.13,23.97,1.13,23.97,1.13l2.6,0.26C302.9949,37.294,322.5449,41.874,338.8049,48.514Zm-58.49,25.05,9.48-8.8-9.48-8.77h-6.83l8.95,8.77-8.95,8.8h6.83Zm-27.38,4.38,12.36-25.14h-5.79l-12.85,25.14h6.28Zm-23.42-13.18,8.94-8.77h-6.83l-9.48,8.77,9.48,8.8h6.83Z"/>
    <path class="cls-2" d="M481.8649,118.364v38.96c0,21.03-12.42,32.55-30.95,32.55-18.63,0-30.95-11.52-30.95-32.55v-38.96h16.83v38.56c0,12.02,4.9,17.23,14.12,17.23,9.21,0,14.12-5.21,14.12-17.23v-38.56h16.83Z"/>
    <path class="cls-2" d="M437.3149,205.274l-16.55,16.39h-65.58v6.59l-0.51,1.37c-0.9,2.45-23.02,60.16-97.18,80.7l-2.18.61-2.19-.61c-74.15-20.54-96.28-78.25-97.18-80.7l-0.51-1.37v-6.59h-69.56l-16.44-16.39h367.88Zm-98.51,19.9v-12.76h-166.98v12.75a112.3565,112.3565,0,0,0,17.73,27.29c17.05,19.75,39.17,33.69,65.76,41.46C314.0749,276.714,335.3749,233.074,338.8049,225.174Z"/>
    <path class="cls-2" d="M437.1849,101.464h-367.5l16.19-16.35h69.56l0.03-47.29,4.79-2.17c18.1-8.19,40.26-13.87,64.24-16.49,0,0,23.08-1.61,30.82-1.61,7.73,0,30.81,1.61,30.81,1.61,23.98,2.62,46.14,8.3,64.24,16.49l4.8,2.17,0.02,7.39v39.9h65.58Zm-98.38-7.31V48.514c-16.26-6.64-35.81-11.22-56.92-13.32l-2.6-.26s-17.97-1.13-23.97-1.13-23.97,1.13-23.97,1.13l-2.61.26c-21.1,2.1-40.65,6.68-56.91,13.32v45.64h166.98Z"/>
    <path class="cls-2" d="M386.9049,162.634l15.53,25.84h-18.83l-13.02-22.84h-8.61v22.84h-16.83v-70.11h26.14c17.63,0,28.24,9.62,28.24,24.04C399.5249,151.814,395.0249,158.824,386.9049,162.634Zm-4.9-20.23c0-3.81-2.41-8.31-8.42-8.31h-11.61v16.62h11.61C379.5949,150.714,382.0049,146.204,382.0049,142.404Z"/>
    <path class="cls-2" d="M295.5649,148.214l29.95,40.26h-19.84l-21.23-29.15-5.91,5.91v23.24h-16.82v-70.11h16.82v11.42c0,11.62-.3,15.02-0.2,15.02h0.1c0.1,0,2.1-2.4,9.22-9.51l17.02-16.93h20.63Z"/>
    <path class="cls-2" d="M297.6049,248.324l-9.01,10.89a38.21766,38.21766,0,0,1,3.33,7.26,126.23433,126.23433,0,0,1-17.93,10.47,18.77272,18.77272,0,0,0-37.37,0,126.79362,126.79362,0,0,1-17.93-10.47,38.21766,38.21766,0,0,1,3.33-7.26l-9-10.89,11.86-11.85,10.88,9a38.5564,38.5564,0,0,1,9.83-4.1l1.33-14.04h16.77l1.33,14.04a38.5564,38.5564,0,0,1,9.83,4.1l10.89-9Z"/>
    <polygon class="cls-2" points="289.795 64.764 280.315 73.564 273.485 73.564 282.435 64.764 273.485 55.994 280.315 55.994 289.795 64.764"/>
    <polygon class="cls-2" points="265.295 52.804 252.935 77.944 246.655 77.944 259.505 52.804 265.295 52.804"/>
    <path class="cls-2" d="M225.2449,164.834l17.03,4.41a36.01984,36.01984,0,0,1-33.05,20.63c-20.13,0-36.36-15.32-36.36-36.45,0-21.14,16.23-36.46,36.36-36.46a36.07642,36.07642,0,0,1,31.85,18.63l-17.13,4.5c-3.2-4-9.21-6.51-14.72-6.51-11.62,0-18.83,8.32-18.83,19.84,0,12.11,7.91,19.63,18.83,19.63C215.9349,173.054,222.3449,169.644,225.2449,164.834Z"/>
    <polygon class="cls-2" points="238.455 55.994 229.515 64.764 238.455 73.564 231.625 73.564 222.145 64.764 231.625 55.994 238.455 55.994"/>
    <path class="cls-2" d="M135.8049,118.364l28.04,70.11h-18.12l-4.01-11.02h-27.74l-4.01,11.02h-18.13l28.05-70.11h15.92Zm0.5,44.37-5.01-13.62c-1.5-4.01-3.3-10.32-3.4-10.32h-0.1c-0.1,0-1.9,6.31-3.41,10.32l-5,13.62h16.92Z"/>
    <polygon class="cls-2" points="76.005 118.364 76.005 188.474 59.175 188.474 59.175 161.234 32.945 161.234 32.945 188.474 16.115 188.474 16.115 118.364 32.945 118.364 32.945 145.504 59.175 145.504 59.175 118.364 76.005 118.364"/>
  </g>
</svg>
