<svg id="Layer_1" data-name="Layer 1" xmlns="http://www.w3.org/2000/svg" viewBox="0 0 102.51601 63.72954">
  <defs>
    <style>
      .cls-1, .cls-2 {
        fill: none;
        stroke-linecap: round;
        stroke-linejoin: round;
        stroke-width: 4px;
      }

      .cls-1 {
        stroke: #ffc933;
      }

      .cls-2 {
        stroke: #fff;
      }
    </style>
  </defs>
  <title>cap</title>
  <g>
    <path class="cls-1" d="M730.96038,1503.01352a28.17133,28.17133,0,0,1,4.96772,16.02078,28.49658,28.49658,0,0,1-.38386,4.67238s-55.8427.34415-55.8427-.03759c0-1.52841-.37765-3.05634-0.37765-4.63478a28.17328,28.17328,0,0,1,5.26212-16.44058" transform="translate(-656.36799 -1467.83162)"/>
    <path class="cls-2" d="M729.00723,1477.04512l25.5362,9.06731a3.50174,3.50174,0,0,1,.04825,6.58987l-45.75626,16.83951a3.50174,3.50174,0,0,1-2.41886,0l-45.75626-16.83951a3.50174,3.50174,0,0,1,.04825-6.58987l45.75626-16.08268a3.50175,3.50175,0,0,1,2.32235,0l8.19639,2.88092Z" transform="translate(-656.36799 -1467.83162)"/>
    <line class="cls-2" x1="8.45687" y1="34.69823" x2="8.45687" y2="50.47318"/>
    <line class="cls-1" x1="8.45687" y1="58.17244" x2="8.45687" y2="61.72954"/>
    <line class="cls-2" x1="51.29667" y1="22.20462" x2="12.63259" y2="27.46294"/>
  </g>
</svg>
