<svg id="Layer_1" data-name="Layer 1" xmlns="http://www.w3.org/2000/svg" viewBox="0 0 57.12652 35.08595">
  <defs>
    <style>
      .cls-1 {
        fill: #fff;
      }

      .cls-2 {
        fill: #ffc933;
      }
    </style>
  </defs>
  <title>question</title>
  <g>
    <path class="cls-1" d="M3496.73535,1975.19043a0.99512,0.99512,0,0,1,.77-1.05859c8.27686-2.69531,8.32568-6.97852,8.32568-7.89258,0-.96289-0.67383-4.09082-4.90869-4.09082-3.70605,0-5.19775,2.3584-5.43848,4.47559a0.91669,0.91669,0,0,1-.91455.72168l-3.8501-.57715a0.70189,0.70189,0,0,1-.72168-0.915c0.62549-5.582,4.90869-9.28809,10.9248-9.28809,6.20752,0,10.92432,3.17676,10.77978,9.76953,0,2.3584-1.20312,8.32617-9.48047,11.11719v2.55078a0.84343,0.84343,0,0,1-.81836.81836h-3.8501a0.843,0.843,0,0,1-.81787-0.81836v-4.8125Zm2.74316,9.33691a3.417,3.417,0,1,1-3.417,3.417A3.43014,3.43014,0,0,1,3499.47852,1984.52734Z" transform="translate(-3472.21349 -1956.56543)"/>
    <path class="cls-2" d="M3476.67139,1983.32715a0.536,0.536,0,0,1,.30762-0.63379c4.126-2.20508,3.74756-4.47656,3.66162-4.96a2.32579,2.32579,0,0,0-2.98291-1.70215,2.67,2.67,0,0,0-2.45605,2.87988,0.49345,0.49345,0,0,1-.415.46973l-2.0918.05664a0.37759,0.37759,0,0,1-.46777-0.416,5.53332,5.53332,0,0,1,4.90479-5.94336c3.28516-.585,6.0791.65039,6.624,4.15234,0.22266,1.248.148,4.51855-3.96924,6.77539l0.24072,1.34961a0.45345,0.45345,0,0,1-.356.50977l-2.03711.36328a0.45232,0.45232,0,0,1-.50928-0.35547Zm2.33057,4.68066a1.836,1.836,0,1,1-1.48633,2.12988A1.84294,1.84294,0,0,1,3479.002,1988.00781Z" transform="translate(-3472.21349 -1956.56543)"/>
    <path class="cls-2" d="M3520.10742,1982.32617a0.53473,0.53473,0,0,1,.5459-0.44531c4.66992-.27344,5.27734-2.49414,5.40234-2.96875a2.32442,2.32442,0,0,0-1.99414-2.79492,2.67,2.67,0,0,0-3.4375,1.585,0.4917,0.4917,0,0,1-.57422.251l-1.92187-.82519a0.37632,0.37632,0,0,1-.25-0.57324,5.53206,5.53206,0,0,1,6.94434-3.33984c3.22656,0.8457,5.24609,3.13867,4.27148,6.54688-0.32129,1.22656-1.75879,4.165-6.44238,4.4873l-0.34766,1.32617a0.45354,0.45354,0,0,1-.53711.31445l-2.001-.52539a0.453,0.453,0,0,1-.31445-0.53613Zm0.15332,5.22656a1.8363,1.8363,0,1,1-2.24121,1.31152A1.84431,1.84431,0,0,1,3520.26074,1987.55273Z" transform="translate(-3472.21349 -1956.56543)"/>
  </g>
</svg>
