<?xml version="1.0" encoding="utf-8"?>
<!-- Generator: Adobe Illustrator 19.2.0, SVG Export Plug-In . SVG Version: 6.00 Build 0)  -->
<svg version="1.1" id="Layer_1" xmlns="http://www.w3.org/2000/svg" xmlns:xlink="http://www.w3.org/1999/xlink" x="0px" y="0px"
	 viewBox="0 0 75 75" style="enable-background:new 0 0 75 75;" xml:space="preserve">
<style type="text/css">
	.st0{fill:#FFFFFF;}
</style>
<g>
	<g>
		<path class="st0" d="M36,28.7c0-0.3,0.1-0.5,0.4-0.5c4.2-1.4,4.2-3.6,4.2-4c0-0.5-0.3-2.1-2.5-2.1c-1.9,0-2.6,1.2-2.8,2.3
			c-0.1,0.2-0.2,0.4-0.5,0.4l-2-0.3c-0.3,0-0.4-0.2-0.4-0.5c0.3-2.8,2.5-4.7,5.6-4.7c3.2,0,5.6,1.6,5.5,5c0,1.2-0.6,4.2-4.8,5.7v1.3
			c0,0.2-0.2,0.4-0.4,0.4h-2c-0.2,0-0.4-0.2-0.4-0.4V28.7z M37.3,33.4c1,0,1.7,0.8,1.7,1.7c0,1-0.8,1.7-1.7,1.7s-1.7-0.8-1.7-1.7
			C35.6,34.2,36.4,33.4,37.3,33.4z"/>
	</g>
	<g>
		<path class="st0" d="M22.3,32.9v15.3c0,0.6,0.2,1.1,0.4,1.5l7.4-10.4L22.3,32.9z"/>
		<path class="st0" d="M39,41.2l13.4-10.6c-0.5-1-1.5-1.6-2.6-1.6h-6.7c-0.7,0.7-1.6,1.4-2.8,1.9v0.2c0,0.6-0.3,1.2-0.8,1.6
			c0.7,0.6,1.1,1.5,1.1,2.5c0,1.8-1.5,3.3-3.3,3.3c-1.8,0-3.3-1.5-3.3-3.3c0-1,0.4-1.9,1.1-2.5c-0.5-0.4-0.8-0.9-0.8-1.6V29h-9.2
			c-1.1,0-2.1,0.6-2.6,1.5l13.2,10.7C36.7,42,38,42,39,41.2z"/>
		<path class="st0" d="M44.9,39.2l7.4,10.5c0.2-0.4,0.4-0.9,0.4-1.5V33L44.9,39.2z"/>
		<path class="st0" d="M40.2,42.9c-0.8,0.7-1.8,1-2.8,1c-1,0-2.1-0.3-2.9-1l-2.8-2.2L24.4,51c0.3,0.1,0.6,0.1,0.9,0.1h24.5
			c0.3,0,0.7-0.1,1-0.2l-7.5-10.5L40.2,42.9z"/>
	</g>
</g>
</svg>
