<svg id="Layer_1" data-name="Layer 1" xmlns="http://www.w3.org/2000/svg" viewBox="0 0 82.08719 87.5">
  <defs>
    <style>
      .cls-1 {
        fill: #fff;
      }

      .cls-2, .cls-3, .cls-4 {
        fill: none;
        stroke-width: 3px;
      }

      .cls-2 {
        stroke: #ffc933;
      }

      .cls-2, .cls-4 {
        stroke-linecap: round;
        stroke-linejoin: round;
      }

      .cls-3, .cls-4 {
        stroke: #fff;
      }

      .cls-3 {
        stroke-miterlimit: 10;
      }
    </style>
  </defs>
  <title>schedule</title>
  <g>
    <g>
      <path class="cls-1" d="M3416.23047,3106.32715h8.77393v21.6709H3420.354V3110.4502h-4.12353v-4.123Z" transform="translate(-3394.95641 -3066.46916)"/>
      <path class="cls-1" d="M3438.46,3128.24609a7.78954,7.78954,0,0,1-6.728-3.05371,16.00991,16.00991,0,0,1,0-16.30762,8.938,8.938,0,0,1,13.45557,0,16.0069,16.0069,0,0,1,0,16.30762A7.79039,7.79039,0,0,1,3438.46,3128.24609Zm-3.19336-16.43164a13.92231,13.92231,0,0,0,0,10.47852,3.56165,3.56165,0,0,0,6.38672,0,13.93464,13.93464,0,0,0,0-10.47852A3.56165,3.56165,0,0,0,3435.2666,3111.81445Z" transform="translate(-3394.95641 -3066.46916)"/>
    </g>
    <g>
      <line class="cls-2" x1="2.3019" y1="25.95789" x2="72.2675" y2="25.95789"/>
      <rect class="cls-3" x="1.5" y="6.91281" width="70.96797" height="70.96797" rx="7" ry="7"/>
      <path class="cls-2" d="M3471.33363,3081.50119a4.21,4.21,0,0,1,4.21,4.21v59.12023a7.63778,7.63778,0,0,1-7.63778,7.63778h-59.12023a4.21,4.21,0,0,1-4.21-4.21" transform="translate(-3394.95641 -3066.46916)"/>
      <path class="cls-2" d="M3410.99081,3081a6.51542,6.51542,0,1,1,4.21935-11.48024" transform="translate(-3394.95641 -3066.46916)"/>
      <circle class="cls-4" cx="16.53559" cy="14.53084" r="3.80902"/>
      <path class="cls-2" d="M3453.89235,3081a6.51542,6.51542,0,1,1,4.21935-11.48024" transform="translate(-3394.95641 -3066.46916)"/>
      <circle class="cls-4" cx="59.43713" cy="14.53084" r="3.80902"/>
    </g>
  </g>
</svg>
