<?xml version="1.0" encoding="utf-8"?>
<!-- Generator: Adobe Illustrator 19.2.0, SVG Export Plug-In . SVG Version: 6.00 Build 0)  -->
<svg version="1.1" id="Layer_1" xmlns="http://www.w3.org/2000/svg" xmlns:xlink="http://www.w3.org/1999/xlink" x="0px" y="0px"
	 viewBox="0 0 75 75" style="enable-background:new 0 0 75 75;" xml:space="preserve">
<style type="text/css">
	.st0{fill:#FFFFFF;}
</style>
<title>twitter</title>
<path class="st0" d="M52.9,28c-1.2,0.5-2.4,0.8-3.6,1c1.3-0.8,2.3-2,2.8-3.5c-1.2,0.7-2.6,1.3-4,1.5c-2.4-2.5-6.4-2.6-8.9-0.2
	c-1.6,1.5-2.3,3.8-1.8,6c-5.1-0.3-9.8-2.7-13-6.6c-1.7,2.9-0.8,6.6,2,8.4c-1,0-2-0.3-2.9-0.8c0,0,0,0.1,0,0.1c0,3,2.1,5.6,5.1,6.2
	c-0.9,0.3-1.9,0.3-2.9,0.1c0.8,2.6,3.2,4.3,5.9,4.4c-2.2,1.8-5,2.7-7.8,2.7c-0.5,0-1,0-1.5-0.1c2.9,1.9,6.2,2.8,9.7,2.8
	c11.6,0,18-9.6,18-18c0-0.3,0-0.5,0-0.8c1.2-0.9,2.3-2,3.1-3.3l0,0L52.9,28z"/>
</svg>
