<?xml version="1.0" encoding="utf-8"?>
<!-- Generator: Adobe Illustrator 21.0.0, SVG Export Plug-In . SVG Version: 6.00 Build 0)  -->
<svg version="1.1" id="Layer_1" xmlns="http://www.w3.org/2000/svg" xmlns:xlink="http://www.w3.org/1999/xlink" x="0px" y="0px"
	 viewBox="0 0 196.5 344" style="enable-background:new 0 0 196.5 344;" xml:space="preserve">
<style type="text/css">
	.st0{fill:#84E5AA;}
	.st1{display:none;opacity:8.000000e-02;enable-background:new    ;}
	.st2{opacity:0.75;fill:#4BCF7E;enable-background:new    ;}
	.st3{display:none;}
	.st4{display:inline;}
	.st5{fill:#FFFFFF;}
	.st6{display:none;fill:#CEA600;}
	.st7{clip-path:url(#SVGID_2_);}
</style>
<g>
	<path class="st0" d="M11,133.7c0-1.3,2.6-1.7,4.5-1.7h166.2c1.9,0,2.3,0.4,2.3,1.7V311c0,1.3-0.8,2.9-2.4,3.5L102,343.6
		c-1.6,0.6-4.2,0.6-5.9,0l-81.6-29.1c-1.7-0.6-3.5-2.1-3.5-3.4V133.7z"/>
	<path class="st1" d="M19.3,189.4c0,0,80.7,17,157.8-0.1v-8.8c0,0-71,14.2-157.8,0.1C19.3,180.6,19.3,189.4,19.3,189.4z"/>
	<polygon class="st2" points="178,200.2 178,179.9 17.1,179.9 	"/>
	<g class="st3">
		<g class="st4">
			<g>
				<polygon class="st5" points="31.3,300.8 31.3,213.3 20.7,213.3 20.7,176.3 70.9,176.3 70.9,300.8 				"/>
				<path d="M64.2,183v111.2H38v-87.5H27.4V183H64.2 M77.6,169.6H64.2H27.4H14V183v23.7V220h10.7v74.2v13.4H38h26.2h13.4v-13.4V183
					L77.6,169.6L77.6,169.6z"/>
			</g>
			<g>
				<polygon class="st5" points="83.7,300.6 120.6,212.8 77.9,212.8 77.9,175.8 179.3,175.8 124.3,300.6 				"/>
				<path d="M169.1,182.4L120,293.9H93.8l36.9-87.8H84.6v-23.7H169.1 M189.5,169.1H169H84.6H71.2v13.4v23.7v13.4h13.4h26l-29.1,69.3
					l-7.8,18.5h20.1H120h8.7l3.5-8l49.1-111.5L189.5,169.1L189.5,169.1z"/>
			</g>
		</g>
	</g>
	<g>
		<path class="st5" d="M188.6,171.1c0,0-79.9,26.4-180.8,0v-51.4c93,24.2,180.8,0,180.8,0L188.6,171.1L188.6,171.1z"/>
		<path class="st0" d="M188.6,119.7v51.4c0,0-35.5,11.7-89.1,11.7c-26.8,0-58.1-2.9-91.7-11.7v-51.4c31,8.1,61.4,10.8,88.2,10.8
			C149.6,130.5,188.6,119.7,188.6,119.7 M196.4,109.5l-9.9,2.7c-0.4,0.1-38.8,10.5-90.5,10.5c-30.4,0-59.5-3.5-86.3-10.5L0,109.6
			v10.1v51.4v6l5.8,1.5c30.4,8,61.9,12,93.7,12c54.2,0,90.1-11.6,91.6-12.1l5.3-1.8v-5.6v-51.4V109.5L196.4,109.5z"/>
	</g>
	<g>
		<path class="st0" d="M196.5,109.5l-10-4.9v-105H9v105.8l-9.1,4.5l9.1,6.4v0.1h0.2l0.6,0.4v-0.4h3.1l0,0c0,0,85.3,25.6,172.4,0.4
			h1.3v-0.4c0,0,0,0,0.1,0L196.5,109.5z"/>
	</g>
	<path class="st5" d="M98.2,177.8"/>
	<g class="st3">
		<g class="st4">
			<g>
				<g>
					<g>
						<g>
							<polygon class="st5" points="70.1,102.1 69.6,102.1 69.6,81.3 70.1,81.3 							"/>
						</g>
						<g>
							<g>
								<path class="st5" d="M54.1,82.4c-2.5,0-4.8,1-6.5,2.7l0,0c-1.7,1.6-2.7,3.9-2.7,6.4l0,0c0,2.5,1,4.8,2.7,6.4l0,0
									c1.7,1.6,4,2.7,6.5,2.7l0,0c2.5,0,4.8-1,6.5-2.7l0,0c1.7-1.6,2.7-3.9,2.7-6.4l0,0c0-2.5-1-4.8-2.7-6.4l0,0
									C58.9,83.4,56.6,82.4,54.1,82.4L54.1,82.4 M61.3,84.3L61.3,84.3 M54.1,81.3c5.7,0,10.3,4.6,10.3,10.2l0,0
									c0,5.6-4.6,10.2-10.3,10.2l0,0c-5.7,0-10.3-4.6-10.3-10.2l0,0C43.7,85.9,48.4,81.3,54.1,81.3L54.1,81.3 M46.8,84.3
									L46.8,84.3"/>
							</g>
							<g>
								<path class="st5" d="M49.2,91.4c0-0.6-0.4-0.9-1-0.9h-0.3v1.9h0.3C48.7,92.4,49.2,92.1,49.2,91.4L49.2,91.4z M55.3,92.1
									l-2.6,2l-2.3-1.8c-0.3,0.8-1.1,1.4-2.1,1.4h-2v-4.4h2c1,0,1.8,0.7,2.1,1.4l2.3-1.8l0.9,0.7l-2.1,1.7l0.4,0.3l2.1-1.7
									l0.9,0.7l-2.1,1.7l0.4,0.3l2.1-1.7v-1.5h1.6v3.1h1.5v1.3h-3.1L55.3,92.1L55.3,92.1z M60.4,92.4h1.5v1.3h-3.1v-4.4h1.6V92.4
									L60.4,92.4z"/>
							</g>
						</g>
					</g>
				</g>
				<g>
					<g>
						<path class="st5" d="M75,86.4l6.3-0.9v6H75 M82,85.4l8.4-1.2v7.3H82 M75,92.2h6.3v6L75,97.4 M82,92.3h8.4v7.2L82,98.3"/>
					</g>
					<g>
						<g>
							<path class="st5" d="M95.7,87.3c0.4,0,0.7,0,1.1,0c0.6,2,1.1,4,1.7,6c0.1,0.4,0.2,0.8,0.3,1.3c0.6-2.4,1.4-4.8,2-7.3
								c0.3,0,0.6,0,0.9,0c0.5,1.7,0.9,3.5,1.4,5.2c0.2,0.7,0.4,1.4,0.5,2.1c0.5-2.4,1.3-4.8,1.9-7.3c0.4,0,0.7,0,1.1,0
								c-0.8,2.8-1.6,5.5-2.3,8.3H103c-0.6-2-1.1-4-1.7-6c-0.1-0.3-0.1-0.7-0.2-1c0,0.3-0.1,0.6-0.2,0.9c-0.6,2-1.2,4-1.7,6.1
								c-0.4,0-0.8,0-1.1,0C97.3,92.8,96.5,90.1,95.7,87.3"/>
						</g>
						<g>
							<path class="st5" d="M107.1,87.4c0-0.3,0.4-0.6,0.7-0.5s0.6,0.4,0.5,0.7c0,0.3-0.4,0.6-0.7,0.5c-0.3,0-0.5-0.3-0.5-0.5
								 M107.2,89.6h0.9v6h-0.9"/>
						</g>
						<g>
							<path class="st5" d="M110.7,90.6c0.5-1,1.8-1.4,2.8-1c0.8,0.3,1.1,1.2,1.1,2c0,1.3,0,2.6,0,3.9c-0.3,0-0.6,0-0.9,0
								c0-1.3,0-2.5,0-3.8c0-0.6-0.3-1.4-1-1.5c-1-0.3-2,0.6-2,1.6c0,1.2,0,2.5,0,3.7h-0.9c0-2,0-4,0-6h0.9
								C110.7,90,110.7,90.3,110.7,90.6"/>
						</g>
						<g>
							<path class="st5" d="M120.3,86.8c0.3,0,0.6,0,0.9,0v8.8h-0.9c0-0.3,0-0.6,0-1c-0.7,1.2-2.5,1.5-3.6,0.6
								c-0.7-0.6-1-1.7-0.9-2.6c0-1,0.3-2,1.1-2.6c1-0.8,2.8-0.8,3.4,0.4C120.3,89.2,120.3,88,120.3,86.8 M118.3,90.3
								c-0.8,0.1-1.3,0.8-1.4,1.5c-0.2,0.9-0.2,1.8,0.4,2.6s1.9,0.8,2.5,0.1c0.4-0.4,0.5-1.1,0.6-1.7c0-0.6,0.1-1.3-0.4-1.9
								C119.6,90.4,118.9,90.2,118.3,90.3"/>
						</g>
						<g>
							<path class="st5" d="M125,89.5c0.8-0.1,1.8,0.1,2.4,0.7c0.7,0.7,0.9,1.7,0.9,2.6c0,0.8-0.3,1.7-0.9,2.3
								c-1.3,1.2-3.7,0.9-4.5-0.7c-0.6-1.3-0.5-3.2,0.7-4.2C123.9,89.8,124.4,89.6,125,89.5 M124.8,90.3c-1.4,0.4-1.6,2.2-1.2,3.4
								c0.3,1.1,1.7,1.5,2.7,1c0.7-0.3,1-1,1-1.7c0.1-0.8,0-1.7-0.6-2.3C126.2,90.3,125.4,90.1,124.8,90.3"/>
						</g>
						<g>
							<path class="st5" d="M128.7,89.6h1c0.4,1.4,0.8,2.8,1.2,4.3c0.1,0.3,0.1,0.5,0.1,0.8c0.4-1.7,1-3.4,1.5-5.1h0.9
								c0.4,1.7,1,3.4,1.3,5.1c0.4-1.7,0.9-3.4,1.3-5.1c0.3,0,0.6,0,1,0c-0.6,2-1.2,4-1.8,6h-1c-0.4-1.6-1-3.2-1.3-4.8
								c-0.4,1.6-1,3.2-1.5,4.8h-0.9C129.8,93.6,129.2,91.6,128.7,89.6"/>
						</g>
						<g>
							<path class="st5" d="M139.3,89.5c0.6,0,1.2,0,1.8,0.2c0.2,0.3,0,0.7,0.1,1c-0.7-0.4-1.6-0.7-2.3-0.3c-0.5,0.3-0.5,1.1,0,1.3
								c0.7,0.4,1.6,0.6,2.2,1.1c0.7,0.6,0.5,1.9-0.3,2.4c-1,0.6-2.2,0.5-3.2,0.1c0-0.4,0-0.7,0-1.1c0.7,0.5,1.7,0.8,2.6,0.5
								c0.5-0.2,0.5-1,0.1-1.3c-0.7-0.5-1.6-0.6-2.2-1.2c-0.6-0.6-0.5-1.7,0.2-2.2C138.4,89.7,138.9,89.6,139.3,89.5"/>
						</g>
						<g>
							<path class="st5" d="M145.9,87.2c0.1,0,0.3,0,0.3,0c0,2.8,0,5.7,0,8.5h-0.9c0-2.4,0-4.7,0-7.1c-0.6,0.4-1.2,0.8-1.9,1
								c0-0.3,0-0.6,0-0.9C144.3,88.2,145.1,87.7,145.9,87.2"/>
						</g>
						<g>
							<path class="st5" d="M149.7,87.1c0.8-0.1,1.7,0.2,2.2,0.9c0.7,1,0.8,2.2,0.8,3.4s-0.2,2.5-0.9,3.5c-0.7,0.9-2.2,1.2-3.2,0.5
								c-0.8-0.6-1.1-1.5-1.2-2.4c-0.2-1.3-0.1-2.8,0.3-4C148,88,148.7,87.3,149.7,87.1 M149.6,88c-0.8,0.3-1.1,1.3-1.2,2.1
								c-0.1,1.1-0.2,2.3,0.1,3.4c0.1,0.5,0.4,1.1,1,1.4c0.6,0.3,1.4,0,1.8-0.6c0.5-0.9,0.5-1.9,0.5-2.9s-0.1-2-0.6-2.9
								C150.8,88,150.1,87.8,149.6,88"/>
						</g>
					</g>
				</g>
			</g>
		</g>
		<g class="st4">
			<g>
				<g>
					<g>
						<path class="st5" d="M78.4,30c0.7,0.3,1.4,0.7,1.9,1.3c0.5,0.5,1,1.1,1.3,1.9c0.3,0.7,0.5,1.5,0.5,2.3V65
							c0,0.3-0.1,0.5-0.3,0.7S81.4,66,81.1,66h-7.2c-0.3,0-0.5-0.1-0.7-0.3s-0.3-0.4-0.3-0.7V38.1h-5.8v26.8c0,0.3-0.1,0.5-0.3,0.7
							s-0.4,0.3-0.7,0.3h-6.5c-0.3,0-0.5-0.1-0.7-0.3s-0.3-0.4-0.3-0.7V38.1h-5.8v26.8c0,0.6-0.3,1-1,1h-7.2c-0.7,0-1-0.3-1-1V30.5
							c0-0.6,0.3-1,1-1h31.3C76.9,29.5,77.7,29.7,78.4,30z"/>
					</g>
					<g>
						<path class="st5" d="M78.4,30c0.7,0.3,1.4,0.7,1.9,1.3c0.5,0.5,1,1.1,1.3,1.9c0.3,0.7,0.5,1.5,0.5,2.3v2.6H73h-5.8h-8.5h-5.8
							L43.8,38v-7.6c0-0.6,0.3-1,1-1h31.3C76.9,29.5,77.7,29.7,78.4,30z"/>
					</g>
				</g>
				<g>
					<g>
						<path class="st5" d="M113.6,57.1c0.3,0,0.5,0.1,0.7,0.3s0.3,0.4,0.3,0.7V65c0,0.3-0.1,0.5-0.3,0.7c-0.2,0.2-0.4,0.3-0.7,0.3
							H88.9c-0.7,0-1-0.3-1-1V30.5c0-0.7,0.3-1,1-1h7.6c0.7,0,1,0.3,1,1v25.6c0,0.3,0.1,0.5,0.3,0.7s0.4,0.3,0.7,0.3H113.6z"/>
					</g>
					<g>
						<path class="st5" d="M97.5,65.9h-8.6c-0.7,0-1-0.3-1-1V30.5c0-0.7,0.3-1,1-1h7.6c0.7,0,1,0.3,1,1v25.6
							C97.5,56.4,97.5,65.9,97.5,65.9z"/>
					</g>
				</g>
				<g>
					<g>
						<path class="st5" d="M151.7,29.5c0.3,0,0.5,0.1,0.7,0.3s0.3,0.4,0.3,0.7V65c0,0.3-0.1,0.5-0.3,0.7s-0.5,0.3-0.7,0.3H144
							c-0.3,0-0.5-0.1-0.7-0.3S143,65.3,143,65V53c0-0.3-0.1-0.5-0.3-0.7c-0.2-0.2-0.4-0.3-0.7-0.3h-10.8c-0.3,0-0.5,0.1-0.7,0.3
							s-0.3,0.4-0.3,0.7v12c0,0.7-0.4,1-1.1,1h-7.6c-0.7,0-1.1-0.3-1.1-1V30.5c0-0.7,0.4-1,1.1-1h7.6c0.7,0,1.1,0.3,1.1,1v11.7
							c0,0.7,0.4,1,1.1,1h10.8c0.3,0,0.5-0.1,0.7-0.3s0.3-0.4,0.3-0.7V30.5c0-0.3,0.1-0.5,0.3-0.7c0.2-0.2,0.5-0.3,0.7-0.3H151.7z"
							/>
					</g>
					<g>
						<path class="st5" d="M130.1,53v12c0,0.7-0.4,1-1.1,1h-7.6c-0.7,0-1.1-0.3-1.1-1V30.5c0-0.7,0.4-1,1.1-1h7.6
							c0.7,0,1.1,0.3,1.1,1v11.7C130.1,42.9,130.1,52.7,130.1,53z"/>
					</g>
					<g>
						<path class="st5" d="M151.7,29.5c0.3,0,0.5,0.1,0.7,0.3s0.3,0.4,0.3,0.7V65c0,0.3-0.1,0.5-0.3,0.7s-0.5,0.3-0.7,0.3H144
							c-0.3,0-0.5-0.1-0.7-0.3S143,65.3,143,65V53c0-0.3,0-10.5,0-10.8V30.5c0-0.3,0.1-0.5,0.3-0.7c0.2-0.2,0.5-0.3,0.7-0.3H151.7z"
							/>
					</g>
				</g>
			</g>
		</g>
		<g class="st4">
			<g>
				<g>
					<path class="st5" d="M80,72.5c0,0.5-0.2,0.9-0.5,1.1C79.1,73.9,78.7,74,78,74h-0.8v2.1h-0.4V71h1.3C79.4,71,80,71.5,80,72.5z
						 M77.2,73.7H78c0.6,0,1-0.1,1.2-0.3c0.3-0.2,0.4-0.5,0.4-0.9s-0.1-0.7-0.4-0.9c-0.2-0.2-0.6-0.3-1.1-0.3h-0.8L77.2,73.7
						L77.2,73.7z"/>
				</g>
				<g>
					<path class="st5" d="M85.4,73.6c0,0.8-0.2,1.5-0.6,1.9c-0.4,0.5-1,0.7-1.7,0.7s-1.3-0.2-1.7-0.7s-0.6-1.1-0.6-1.9
						c0-0.8,0.2-1.5,0.6-1.9c0.4-0.5,1-0.7,1.7-0.7s1.3,0.2,1.7,0.7C85.2,72.1,85.4,72.8,85.4,73.6z M81.2,73.6
						c0,0.7,0.2,1.3,0.5,1.7s0.8,0.6,1.4,0.6c0.6,0,1.1-0.2,1.4-0.6c0.3-0.4,0.5-1,0.5-1.7s-0.2-1.3-0.5-1.7s-0.8-0.6-1.4-0.6
						c-0.6,0-1.1,0.2-1.4,0.6C81.4,72.3,81.2,72.8,81.2,73.6z"/>
				</g>
				<g>
					<path class="st5" d="M90.6,76.1h-0.3l-1.1-3.9c-0.1-0.3-0.2-0.6-0.2-0.8c0,0.2-0.1,0.4-0.2,0.7c-0.1,0.3-0.4,1.6-1.1,4h-0.3
						L86,71h0.4l0.9,3.3c0,0.1,0.1,0.3,0.1,0.4c0,0.1,0.1,0.2,0.1,0.3s0,0.2,0.1,0.3c0,0.1,0,0.2,0.1,0.3c0.1-0.3,0.2-0.8,0.4-1.4
						l0.9-3.1h0.4l1,3.6c0.1,0.4,0.2,0.7,0.3,1c0-0.2,0.1-0.3,0.1-0.5s0.4-1.5,1.1-4H92L90.6,76.1z"/>
				</g>
				<g>
					<path class="st5" d="M95.7,76.1h-2.8V71h2.8v0.3h-2.4v1.9h2.3v0.3h-2.3v2.2h2.4V76.1z"/>
				</g>
				<g>
					<path class="st5" d="M97.2,73.9v2.2h-0.4V71H98c0.6,0,1.1,0.1,1.4,0.4c0.3,0.2,0.5,0.6,0.5,1.1c0,0.3-0.1,0.6-0.3,0.9
						c-0.2,0.2-0.5,0.4-0.8,0.5l1.4,2.3h-0.4L98.5,74L97.2,73.9L97.2,73.9z M97.2,73.6h1c0.4,0,0.8-0.1,1-0.3s0.4-0.5,0.4-0.9
						s-0.1-0.7-0.3-0.8c-0.2-0.2-0.6-0.3-1.1-0.3h-0.8v2.3H97.2z"/>
				</g>
				<g>
					<path class="st5" d="M103.9,76.1h-2.8V71h2.8v0.3h-2.4v1.9h2.3v0.3h-2.3v2.2h2.4V76.1z"/>
				</g>
				<g>
					<path class="st5" d="M109,73.5c0,0.9-0.2,1.5-0.7,1.9c-0.4,0.4-1.1,0.7-2,0.7h-1.2V71h1.4c0.8,0,1.4,0.2,1.9,0.6
						C108.8,72.1,109,72.7,109,73.5z M108.6,73.5c0-0.7-0.2-1.3-0.6-1.7c-0.4-0.4-0.9-0.6-1.6-0.6h-0.9v4.5h0.8
						C107.8,75.8,108.6,75.1,108.6,73.5z"/>
				</g>
				<g>
					<path class="st5" d="M112,71h1.4c0.6,0,1.1,0.1,1.4,0.3s0.4,0.5,0.4,1c0,0.3-0.1,0.5-0.3,0.7c-0.2,0.2-0.4,0.3-0.8,0.4l0,0
						c0.4,0.1,0.7,0.2,0.9,0.4s0.3,0.5,0.3,0.8c0,0.5-0.2,0.8-0.5,1.1s-0.8,0.4-1.3,0.4H112V71z M112.4,73.3h1.1
						c0.5,0,0.8-0.1,1-0.2c0.2-0.2,0.3-0.4,0.3-0.7s-0.1-0.6-0.4-0.7c-0.2-0.2-0.6-0.2-1.1-0.2h-1v1.8L112.4,73.3L112.4,73.3z
						 M112.4,73.6v2.2h1.2c0.9,0,1.4-0.4,1.4-1.2c0-0.7-0.5-1.1-1.5-1.1L112.4,73.6L112.4,73.6z"/>
				</g>
				<g>
					<path class="st5" d="M117.7,73.8l1.5-2.8h0.4l-1.7,3.1v2h-0.4v-1.9l-1.7-3.2h0.4L117.7,73.8z"/>
				</g>
			</g>
			<g>
				<g>
					<rect x="121.6" y="73.1" class="st5" width="31.1" height="1.5"/>
				</g>
				<g>
					<rect x="43.7" y="73.1" class="st5" width="31.1" height="1.5"/>
				</g>
			</g>
		</g>
	</g>
</g>
<g>
	<path class="st6" d="M55.7,297.7c-3.7,0-6.2-2.5-6.2-6.2v-55.4l-1.8,1.4c-1.3,1-2.5,1.3-3.3,1.3s-1.6-0.2-2.3-0.6
		c-0.8-0.4-2.5-1.7-2.5-4.7V216c0-1.3,0.3-2.6,1-3.9c0.6-1.1,1.4-2.1,2.2-2.8l6.2-4.8c0.9-0.7,2-1.3,3.3-1.7
		c1.1-0.4,2.3-0.5,3.3-0.5H73c3.7,0,6.2,2.5,6.2,6.2v83c0,3.7-2.5,6.2-6.2,6.2H55.7z"/>
	<path class="st5" d="M75.4,208.5v83c0,1.6-0.8,2.4-2.4,2.4H55.7c-1.6,0-2.4-0.8-2.4-2.4v-61.9c0-0.3-0.2-0.5-0.6-0.4
		c-0.4,0-0.8,0.3-1.3,0.7l-6.1,4.8c-0.5,0.4-0.9,0.5-1.3,0.3c-0.4-0.2-0.6-0.6-0.6-1.3V216c0-0.7,0.2-1.4,0.6-2.1
		c0.4-0.7,0.8-1.3,1.3-1.7l6.1-4.8c0.5-0.4,1.2-0.8,2-1c0.8-0.3,1.6-0.4,2.3-0.4h2.9H73C74.6,206.1,75.4,206.9,75.4,208.5z"/>
	<path class="st6" d="M99.7,297.7c-2.6,0-4-1.2-4.7-2.2c-0.5-0.8-1.3-2.6-0.2-5.1l0.1-0.1l4.3-8.3l26.8-51.6H93.2
		c-1.6,0-3.1-0.6-4.3-1.7c-1.2-1.1-1.9-2.7-1.9-4.4v-15.8c0-3.7,2.5-6.2,6.2-6.2h61.6c1.7,0,3.3,0.7,4.4,1.9l0.1,0.1
		c1,1.2,1.6,2.6,1.6,4.2v16.6c0,1-0.1,2.1-0.4,3.2c-0.3,1.1-0.7,2.1-1.2,3l-6,11.6L128.5,290l-2,3.7c-0.6,1.3-1.6,2.3-2.9,3.1
		c-1.2,0.7-2.6,1.1-3.9,1.1h-20L99.7,297.7L99.7,297.7z"/>
	<path class="st5" d="M156.4,206.8c0.4,0.5,0.6,1,0.6,1.7v16.6c0,0.7-0.1,1.4-0.3,2.3c-0.2,0.8-0.5,1.6-0.8,2.1l-6,11.7l-24.8,47
		l-2,3.8c-0.3,0.6-0.7,1.1-1.4,1.4c-0.7,0.4-1.3,0.6-2,0.6h-20c-1.5,0-2-0.7-1.4-2l4.3-8.2l29.7-57.2h-8.1h-20.8H93.2
		c-0.7,0-1.2-0.2-1.7-0.6s-0.7-1-0.7-1.6v-15.8c0-1.6,0.8-2.4,2.4-2.4h5.5h26.6h29.5C155.5,206.1,156,206.4,156.4,206.8z"/>
</g>
<g>
	<g>
		<path class="st0" d="M37.2,165.2c-6.3-1.1-9.5-1.7-15.8-3.1c0-2.2,0-3.3,0-5.4c5,1.1,7.5,1.6,12.6,2.6c0-1.9,0-2.9,0-4.8
			c-3.8-0.7-5.6-1.1-9.4-1.9c-0.9-0.2-1.6-0.6-2.2-1.3c-0.6-0.7-1-1.4-1-2.2c0-4,0-6,0-10c0-0.7,0.3-1.3,0.9-1.7
			c0.6-0.4,1.4-0.5,2.2-0.3c6.3,1.3,9.4,1.9,15.8,3c0,2.2,0,3.3,0,5.4c-5-0.8-7.6-1.3-12.6-2.3c0,1.8,0,2.7,0,4.5
			c3.8,0.8,5.6,1.1,9.4,1.8c0.9,0.2,1.6,0.5,2.2,1.2c0.6,0.6,0.9,1.3,0.9,2.1c0,4.1,0,6.1,0,10.2c0,0.8-0.3,1.4-0.9,1.8
			C38.8,165.3,38.1,165.4,37.2,165.2z"/>
		<path class="st0" d="M51.6,147.5c0,1.9,0,2.8,0,4.7c3.1,0.4,4.6,0.6,7.8,0.9c0,2.1,0,3.2,0,5.4c-3.1-0.3-4.7-0.5-7.7-0.9
			c0,1.8,0,2.8,0,4.6c5.6,0.7,8.4,1.1,14.1,1.6c0,2.1,0,3.2,0,5.4c-8.1-0.8-12.2-1.2-20.3-2.5c0-10.2,0-15.3-0.1-25.5
			c8.1,1.2,12.2,1.7,20.3,2.5c0,2.2,0,3.3,0,5.5C60,148.5,57.2,148.2,51.6,147.5z"/>
		<path class="st0" d="M89,170.4c-0.8-2.4-1.3-3.6-2.1-6.1c-4-0.1-6.1-0.2-10.1-0.5c-0.9,2.3-1.3,3.5-2.2,5.9
			c-2.6-0.2-4-0.3-6.6-0.5c3.5-9.9,5.3-14.8,8.9-24.8c3.9,0.2,5.9,0.3,9.8,0.5c3,8.5,5.9,17.1,8.9,25.6
			C92.9,170.5,91.6,170.5,89,170.4z M81.8,150.1c-1.2,3.4-1.9,5.1-3.1,8.4c2.5,0.1,3.7,0.2,6.2,0.3C83.6,155.3,83,153.6,81.8,150.1z
			"/>
		<path class="st0" d="M114.3,170.2c-6.4,0.3-9.6,0.4-16,0.4c0-2.2,0-3.3,0-5.4c5.1,0,7.7-0.1,12.8-0.2c0-1.9,0-2.9,0-4.8
			c-3.8,0.1-5.7,0.2-9.5,0.2c-0.9,0-1.6-0.2-2.3-0.8c-0.6-0.5-1-1.2-1-2c0-4,0-6,0-10c0-0.7,0.3-1.4,1-1.9c0.6-0.5,1.4-0.8,2.3-0.8
			c6.4-0.1,9.6-0.2,16-0.5c0,2.2,0,3.3,0,5.4c-5.1,0.3-7.6,0.4-12.7,0.5c0,1.8,0,2.7,0,4.5c3.8-0.1,5.7-0.1,9.5-0.3
			c0.9,0,1.6,0.2,2.2,0.7s0.9,1.1,0.9,1.9c0,4.1,0,6.1,0,10.2c0,0.8-0.3,1.4-0.9,2C115.9,169.8,115.2,170.1,114.3,170.2z"/>
		<path class="st0" d="M141.8,167.8c-6.2,0.8-9.3,1.1-15.5,1.6c-0.9,0.1-1.6-0.1-2.2-0.6s-0.9-1.1-0.9-1.9c0-8,0-12.1,0-20.1
			c0-0.7,0.3-1.4,0.9-2s1.4-0.9,2.2-1c6.2-0.5,9.3-0.8,15.5-1.6c0.9-0.1,1.6,0.1,2.2,0.5s0.9,1,0.9,1.8c0,8,0,12.1-0.1,20.1
			c0,0.8-0.3,1.5-0.9,2C143.5,167.3,142.7,167.7,141.8,167.8z M129.6,163.7c3.6-0.3,5.4-0.5,9.1-0.9c0-5.9,0-8.8,0-14.6
			c-3.6,0.4-5.4,0.6-9.1,0.9C129.6,154.9,129.6,157.9,129.6,163.7z"/>
		<path class="st0" d="M174.6,162.1c-2.2,0.5-3.3,0.7-5.5,1.2c-4.8-5.9-7.2-8.9-12-15c0,6.9,0,10.4-0.1,17.3c-2.5,0.4-3.8,0.6-6.3,1
			c0-10.2,0-15.3,0.1-25.5c3.6-0.6,5.5-0.9,9.1-1.5c3.4,4.3,5.1,6.4,8.4,10.6c0-4.9,0-7.3,0-12.2c2.5-0.5,3.8-0.8,6.3-1.4
			C174.7,146.8,174.7,151.9,174.6,162.1z"/>
	</g>
</g>
<g>
	<g>
		<defs>
			<rect id="SVGID_1_" x="40.7" y="22.3" width="115.1" height="85.4"/>
		</defs>
		<clipPath id="SVGID_2_">
			<use xlink:href="#SVGID_1_"  style="overflow:visible;"/>
		</clipPath>
		<g class="st7">
			<g>
				<g>
					<g>
						<g>
							<g>
								<path class="st5" d="M77.3,22.8c0.8,0.3,1.5,0.8,2,1.3c0.6,0.6,1,1.2,1.4,2c0.3,0.8,0.5,1.6,0.5,2.4v31.1
									c0,0.3-0.1,0.5-0.3,0.7s-0.4,0.3-0.7,0.3h-7.6c-0.3,0-0.5-0.1-0.7-0.3s-0.3-0.4-0.3-0.7V31.3h-6.1v28.3
									c0,0.3-0.1,0.5-0.3,0.7s-0.4,0.3-0.7,0.3h-6.9c-0.3,0-0.5-0.1-0.7-0.3s-0.3-0.4-0.3-0.7V31.3h-6.1v28.3c0,0.7-0.3,1-1,1
									h-7.6c-0.7,0-1-0.3-1-1V23.2c0-0.7,0.3-1,1-1H75C75.7,22.3,76.5,22.5,77.3,22.8z"/>
							</g>
							<g>
								<path class="st5" d="M114.5,51.4c0.3,0,0.6,0.1,0.8,0.3c0.2,0.2,0.3,0.4,0.3,0.7v7.2c0,0.3-0.1,0.5-0.3,0.7
									c-0.2,0.2-0.4,0.3-0.8,0.3H88.4c-0.7,0-1.1-0.3-1.1-1V23.3c0-0.7,0.4-1,1.1-1h8c0.7,0,1.1,0.3,1.1,1v27
									c0,0.3,0.1,0.5,0.3,0.7s0.5,0.3,0.8,0.3L114.5,51.4L114.5,51.4z"/>
							</g>
							<g>
								<path class="st5" d="M154.6,22.3c0.3,0,0.6,0.1,0.8,0.3c0.2,0.2,0.3,0.4,0.3,0.7v36.4c0,0.3-0.1,0.5-0.3,0.7
									c-0.2,0.2-0.5,0.3-0.8,0.3h-8.1c-0.3,0-0.6-0.1-0.8-0.3c-0.2-0.2-0.3-0.4-0.3-0.7V47c0-0.3-0.1-0.5-0.3-0.7
									c-0.2-0.2-0.4-0.3-0.8-0.3h-11.4c-0.3,0-0.6,0.1-0.8,0.3c-0.2,0.2-0.3,0.4-0.3,0.7v12.7c0,0.7-0.4,1-1.1,1h-8.1
									c-0.7,0-1.1-0.3-1.1-1V23.3c0-0.7,0.4-1,1.1-1h8.1c0.7,0,1.1,0.3,1.1,1v12.3c0,0.7,0.4,1,1.1,1h11.4c0.3,0,0.6-0.1,0.8-0.3
									c0.2-0.2,0.3-0.4,0.3-0.7V23.3c0-0.3,0.1-0.5,0.3-0.7c0.2-0.2,0.5-0.3,0.8-0.3H154.6z"/>
							</g>
						</g>
					</g>
					<g>
						<g>
							<path class="st5" d="M79,67.6c0,0.5-0.2,0.9-0.5,1.2c-0.4,0.3-0.9,0.4-1.5,0.4h-0.8v2.2h-0.4V66h1.3
								C78.3,66.1,79,66.6,79,67.6z M76.1,68.9h0.7c0.6,0,1-0.1,1.3-0.3s0.4-0.5,0.4-1c0-0.4-0.1-0.7-0.4-0.9
								c-0.3-0.2-0.7-0.3-1.2-0.3H76v2.5H76.1z"/>
							<path class="st5" d="M84.7,68.8c0,0.9-0.2,1.5-0.6,2c-0.4,0.5-1,0.7-1.8,0.7s-1.3-0.2-1.8-0.7c-0.4-0.5-0.6-1.2-0.6-2
								c0-0.9,0.2-1.5,0.6-2c0.4-0.5,1-0.7,1.8-0.7s1.3,0.2,1.8,0.7C84.5,67.2,84.7,67.9,84.7,68.8z M80.3,68.8
								c0,0.8,0.2,1.4,0.5,1.8c0.3,0.4,0.8,0.6,1.5,0.6c0.6,0,1.1-0.2,1.5-0.6c0.3-0.4,0.5-1,0.5-1.8s-0.2-1.4-0.5-1.8
								c-0.3-0.4-0.8-0.6-1.5-0.6c-0.6,0-1.1,0.2-1.5,0.6C80.4,67.4,80.3,68,80.3,68.8z"/>
							<path class="st5" d="M90.2,71.5h-0.3l-1.2-4.2c-0.1-0.3-0.2-0.6-0.2-0.8c0,0.2-0.1,0.5-0.2,0.7c-0.1,0.3-0.5,1.7-1.2,4.3
								h-0.3l-1.5-5.4h0.4l0.9,3.5c0,0.1,0.1,0.3,0.1,0.4c0,0.1,0.1,0.2,0.1,0.3s0,0.2,0.1,0.3c0,0.1,0,0.2,0.1,0.3
								c0.1-0.3,0.2-0.8,0.4-1.5l0.9-3.3h0.4l1.1,3.8c0.1,0.4,0.2,0.8,0.3,1c0-0.2,0.1-0.4,0.1-0.6c0.1-0.2,0.4-1.6,1.1-4.2h0.4
								L90.2,71.5z"/>
							<path class="st5" d="M95.6,71.5h-2.9v-5.4h2.9v0.3H93v2h2.4v0.3H93V71h2.6V71.5z"/>
							<path class="st5" d="M97.2,69.1v2.4h-0.4v-5.4h1.3c0.7,0,1.2,0.1,1.5,0.4c0.3,0.2,0.5,0.6,0.5,1.1c0,0.4-0.1,0.7-0.3,0.9
								s-0.5,0.4-0.9,0.5l1.5,2.5h-0.5l-1.4-2.4H97.2z M97.2,68.8h1c0.5,0,0.8-0.1,1.1-0.3s0.4-0.5,0.4-0.9s-0.1-0.7-0.4-0.9
								c-0.2-0.2-0.6-0.3-1.2-0.3h-0.9L97.2,68.8L97.2,68.8z"/>
							<path class="st5" d="M104.3,71.5h-2.9v-5.4h2.9v0.3h-2.6v2h2.4v0.3h-2.4V71h2.6V71.5z"/>
							<path class="st5" d="M109.6,68.7c0,0.9-0.2,1.6-0.7,2.1c-0.5,0.5-1.2,0.7-2.1,0.7h-1.3v-5.4h1.5c0.9,0,1.5,0.2,2,0.7
								C109.3,67.2,109.6,67.9,109.6,68.7z M109.2,68.8c0-0.8-0.2-1.4-0.6-1.7c-0.4-0.4-1-0.6-1.7-0.6h-1v4.7h0.9
								C108.4,71.2,109.2,70.4,109.2,68.8z"/>
							<path class="st5" d="M112.8,66.1h1.5c0.7,0,1.2,0.1,1.5,0.3s0.5,0.6,0.5,1c0,0.3-0.1,0.6-0.3,0.8c-0.2,0.2-0.5,0.3-0.8,0.4
								l0,0c0.4,0.1,0.7,0.2,1,0.4c0.2,0.2,0.3,0.5,0.3,0.9c0,0.5-0.2,0.9-0.5,1.1c-0.3,0.3-0.8,0.4-1.4,0.4h-1.7v-5.3H112.8z
								 M113.1,68.5h1.2c0.5,0,0.9-0.1,1.1-0.3s0.3-0.4,0.3-0.8c0-0.4-0.1-0.6-0.4-0.8s-0.6-0.2-1.2-0.2H113v2.1H113.1z M113.1,68.8
								v2.3h1.3c1,0,1.5-0.4,1.5-1.2c0-0.7-0.5-1.1-1.6-1.1H113.1z"/>
							<path class="st5" d="M118.8,69l1.6-3h0.4l-1.8,3.3v2.1h-0.4v-2.1l-1.8-3.3h0.4L118.8,69z"/>
						</g>
						<g>
							<g>
								<rect x="122.9" y="68.9" class="st5" width="32.9" height="0.5"/>
							</g>
							<g>
								<rect x="40.7" y="68.9" class="st5" width="32.9" height="0.5"/>
							</g>
						</g>
					</g>
				</g>
			</g>
			<g>
				<g>
					<path class="st5" d="M50.3,88.4c-2.4,0-4.5,1-6,2.5s-2.5,3.7-2.5,6c0,2.4,1,4.5,2.5,6s3.7,2.5,6,2.5c2.4,0,4.5-1,6-2.5
						s2.5-3.7,2.5-6c0-2.4-1-4.5-2.5-6C54.7,89.4,52.6,88.4,50.3,88.4 M57,90.2L57,90.2 M50.3,87.4c5.3,0,9.6,4.3,9.6,9.6
						s-4.3,9.6-9.6,9.6s-9.6-4.3-9.6-9.6S45,87.4,50.3,87.4 M43.5,90.2L43.5,90.2"/>
					<path class="st5" d="M45.7,96.9c0-0.6-0.4-0.9-0.9-0.9h-0.3v1.7h0.3C45.3,97.7,45.7,97.5,45.7,96.9 M51.4,97.5L49,99.4
						l-2.2-1.7c-0.3,0.7-1.1,1.3-1.9,1.3h-1.8v-4.1h1.8c1,0,1.7,0.6,1.9,1.3l2.2-1.7l0.8,0.6l-2,1.6l0.4,0.3l2-1.6L51,96l-2,1.6
						l0.4,0.3l2-1.6v-1.4h1.4v2.9h1.4V99h-2.9L51.4,97.5L51.4,97.5z M56.1,97.7h1.4v1.2h-2.9v-4.1H56L56.1,97.7L56.1,97.7z"/>
					<rect x="74.9" y="87.4" class="st5" width="0.5" height="19.1"/>
				</g>
				<g>
					<g>
						<polygon class="st5" points="96.9,96.7 105.1,96.7 105.1,89.4 96.9,90.6 						"/>
						<polygon class="st5" points="96.6,96.7 96.6,90.6 90.3,91.5 90.3,96.7 						"/>
						<polygon class="st5" points="96.6,97 90.3,97 90.3,102.2 96.6,103.1 						"/>
						<polygon class="st5" points="96.9,97 96.9,103.1 105.1,104.3 105.1,97 						"/>
					</g>
					<g>
						<path class="st5" d="M121.5,93c0,0.2-0.1,0.3-0.2,0.5c-0.1,0.1-0.3,0.2-0.5,0.2s-0.3-0.1-0.5-0.2c-0.1-0.1-0.2-0.3-0.2-0.5
							s0.1-0.3,0.2-0.5c0.1-0.1,0.3-0.2,0.5-0.2s0.3,0.1,0.5,0.2C121.4,92.7,121.5,92.8,121.5,93z"/>
					</g>
					<g>
						<path class="st5" d="M119.5,92.5l-2.5,8.8h-1.2l-2-7l0,0l-2,7h-1.2l-2.6-8.8h1.1l2,7.4l0,0l2.1-7.4h1l2,7.4l0,0l2-7.4H119.5z"
							/>
						<path class="st5" d="M121.4,101.3h-1V95h1V101.3z"/>
						<path class="st5" d="M128.1,101.3h-1v-3.6c0-1.3-0.5-2-1.5-2c-0.5,0-0.9,0.2-1.2,0.6c-0.3,0.4-0.5,0.9-0.5,1.4v3.6h-1V95h1v1
							l0,0c0.5-0.8,1.2-1.2,2.1-1.2c0.7,0,1.2,0.2,1.6,0.7s0.5,1.1,0.5,1.9V101.3z"/>
						<path class="st5" d="M135,101.3h-1v-1.1l0,0c-0.5,0.8-1.2,1.2-2.2,1.2c-0.8,0-1.4-0.3-1.9-0.9c-0.5-0.6-0.7-1.3-0.7-2.3
							s0.3-1.9,0.8-2.5s1.2-0.9,2.1-0.9s1.5,0.3,1.9,1l0,0V92h1L135,101.3L135,101.3z M134,98.5v-0.9c0-0.5-0.2-1-0.5-1.3
							s-0.8-0.5-1.3-0.5c-0.6,0-1.1,0.2-1.4,0.7c-0.4,0.4-0.5,1.1-0.5,1.9c0,0.7,0.2,1.3,0.5,1.7s0.8,0.6,1.4,0.6s1-0.2,1.4-0.6
							C133.8,99.6,134,99.1,134,98.5z"/>
						<path class="st5" d="M142.4,98.2c0,1-0.3,1.8-0.8,2.4c-0.6,0.6-1.3,0.9-2.3,0.9c-0.9,0-1.7-0.3-2.2-0.9
							c-0.6-0.6-0.8-1.4-0.8-2.3c0-1,0.3-1.9,0.9-2.5s1.3-0.9,2.3-0.9c0.9,0,1.7,0.3,2.2,0.9C142.2,96.3,142.4,97.1,142.4,98.2z
							 M141.4,98.2c0-0.8-0.2-1.4-0.5-1.8c-0.3-0.4-0.8-0.6-1.5-0.6c-0.6,0-1.2,0.2-1.5,0.6c-0.4,0.4-0.6,1-0.6,1.8s0.2,1.3,0.6,1.8
							c0.4,0.4,0.9,0.6,1.5,0.6c0.7,0,1.2-0.2,1.5-0.6C141.2,99.6,141.4,99,141.4,98.2z"/>
						<path class="st5" d="M151.5,95l-1.9,6.3h-1l-1.4-4.9l0,0l-1.5,4.9h-1l-1.9-6.3h1.1l1.4,5.1l0,0l1.5-5.1h0.9l1.4,5.1l0,0
							l1.4-5.1H151.5z"/>
						<path class="st5" d="M155.8,99.6c0,0.5-0.2,1-0.6,1.3s-1,0.5-1.7,0.5c-0.6,0-1.1-0.1-1.6-0.4v-1c0.5,0.4,1,0.6,1.6,0.6
							c0.8,0,1.2-0.3,1.2-0.9c0-0.2-0.1-0.4-0.2-0.6c-0.2-0.1-0.5-0.4-1.1-0.6c-0.6-0.2-0.9-0.5-1.2-0.8c-0.2-0.3-0.3-0.6-0.3-1.1
							s0.2-1,0.6-1.3s0.9-0.5,1.6-0.5c0.5,0,0.9,0.1,1.3,0.3v1c-0.4-0.3-0.9-0.4-1.4-0.4c-0.3,0-0.6,0.1-0.8,0.2
							c-0.2,0.2-0.3,0.4-0.3,0.6c0,0.3,0.1,0.5,0.2,0.6c0.2,0.1,0.5,0.3,1,0.5c0.6,0.3,1,0.5,1.3,0.8
							C155.7,98.9,155.8,99.2,155.8,99.6z"/>
					</g>
				</g>
			</g>
		</g>
	</g>
</g>
</svg>
