<?xml version="1.0" encoding="utf-8"?>
<!-- Generator: Adobe Illustrator 19.1.1, SVG Export Plug-In . SVG Version: 6.00 Build 0)  -->
<svg version="1.1" id="Layer_1" xmlns="http://www.w3.org/2000/svg" xmlns:xlink="http://www.w3.org/1999/xlink" x="0px" y="0px"
	 viewBox="-35 145 36 36" style="enable-background:new -35 145 36 36;" xml:space="preserve">
<style type="text/css">
	.st0{fill:none;stroke:#FFC933;stroke-width:2;stroke-linecap:round;stroke-linejoin:round;}
</style>
<g>
	<path class="st0" d="M-23.8,160.8h-0.9c-2.2,0-4,1.8-4,4l0,0c0,1.1,0.5,2.2,1.3,3l-0.4,2.4l3.4-1.4h7.2c1.3,0,2.5-0.6,3.3-1.7"/>
	<path class="st0" d="M-16.8,155.8h7.5c2.2,0,4,1.8,4,4l0,0c0,1.1-0.5,2.2-1.3,3l0.4,2.4l-3.5-1.4h-7.2c-2.2,0-4-1.8-4-4l0,0
		C-20.8,157.6-19,155.8-16.8,155.8z"/>
</g>
<title>chat</title>
</svg>
