<?xml version="1.0" encoding="utf-8"?>
<!-- Generator: Adobe Illustrator 23.0.0, SVG Export Plug-In . SVG Version: 6.00 Build 0)  -->
<svg version="1.1" id="Layer_3" xmlns="http://www.w3.org/2000/svg" xmlns:xlink="http://www.w3.org/1999/xlink" x="0px" y="0px"
	 viewBox="0 0 1500 500" style="enable-background:new 0 0 1500 500;" xml:space="preserve">
<style type="text/css">
	.st0{enable-background:new    ;}
	.st1{fill:#FFFFFF;stroke:#FFFFFF;stroke-miterlimit:10;}
	.st2{fill:#FFFFFF;stroke:#FFFFFF;stroke-width:45;stroke-miterlimit:10;}
	.st3{fill:#FFFFFF;}
	.st4{fill:none;stroke:#FFFFFF;stroke-width:40;stroke-miterlimit:10;}
	.st5{fill:none;stroke:#EEB844;stroke-width:60;stroke-miterlimit:10;}
	.st6{fill:#FFFFFF;stroke:#FFFFFF;stroke-width:44;stroke-miterlimit:10;}
	.st7{fill:none;stroke:#FFFFFF;stroke-width:45;stroke-miterlimit:10;}
	.st8{fill:none;stroke:#EDB842;stroke-width:60;stroke-miterlimit:10;}
</style>
<!-- H -->
<path id="H" class="idx-1 st2" d="M70.6,356.3v-274"/>
<path id="H" class="idx-1 st2" d="M233.1,356.3v-274"/>
<path id="H" class="idx-3 st2" d="M70.6,217.9h162.5"/>
<!-- A -->
<path id="A" class="idx-2 st6" d="M317.3,356.1l67-272.5"/>
<path id="A" class="idx-2 st6" d="M498.1,355.2L428.3,83.4"/>
<path id="A" class="idx-5 st2" d="M336.5,278h141.7"/>
<path id="A" class="idx-5 st2" d="M364.4,99.4l86-0.4"/>
<!-- C -->
<path id="C" class="idx-3 st4" d="M723.8,333.5c-26,4.9-51.2,7.4-75.4,7.4c-32,0-53.6-9.1-64.9-27.3c-11.3-18.2-16.9-49.8-16.9-94.8s5.8-76.4,17.2-94.3s33.1-26.8,65-26.8c23.9,0,49,2.7,75.2,8.2"/>
<!-- K -->
<path id="K" class="idx-1 st2" d="M795.6,356.3v-274"/>
<path id="K" class="idx-1 st7" d="M939.3,355.2l-64-123v-20l64-128.8"/>
<path id="K" class="idx-5 st2" d="M795.9,227.9l85.3-11.2"/>
<!-- R -->
<path id="R" class="idx-3 st8" d="M1033.6,108.5h69.1c53.3,0,79.9,22.8,79.9,68.2c0,27-11.1,46.8-33.3,59.6L1105,246h-44.3l0,0"/>
<path id="R" class="idx-3 st8" d="M1033.6,78.6v274"/>
<path id="R" class="idx-3 st8" d="M1136.5,239.9l40.8,116.2"/>
<!-- U -->
<path id="U" class="idx-1 st5" d="M1280.4,84.3V237c0,16.6,4.3,56.8,12.9,64.6l0,0c14.7,20.4,29.6,31.5,63.1,31.5s48.4-11.8,63.1-31.5c8.6-7.8,12.9-48,12.9-64.6V84.3"/>
</svg>
