<svg xmlns="http://www.w3.org/2000/svg" viewBox="0 0 195.38 192.58"><defs><style>.cls-1{fill:#ff4040;}.cls-2{fill:#fff;}</style></defs><title>hm</title><g id="Layer_2" data-name="Layer 2"><g id="Layer_1-2" data-name="Layer 1"><path class="cls-1" d="M106.54,192.58a13.22,13.22,0,0,1-3.68-.48,1.81,1.81,0,0,1-1.26-1.81c.15-3.1-6-6-9-6.9-6.67-1.79-10.13-5.28-11.92-8.3l-.81.15a20.81,20.81,0,0,1-17.41-5.36,20.62,20.62,0,0,1-12.86-10.07,20.69,20.69,0,0,1-1.9-40.59,20.55,20.55,0,0,1,18.44-11.7,20.68,20.68,0,0,1,21.67-3.32,20.66,20.66,0,0,1,22.76,4.26,20.44,20.44,0,0,1,4.24-1.16,20.65,20.65,0,0,1,23.32,15.4,20.7,20.7,0,0,1,10.86,15.09,20.39,20.39,0,0,1,.22,4.18,20.7,20.7,0,0,1-21,35,20.61,20.61,0,0,1-7.92,4.52c-1.58,4.56-4.09,7.76-7.46,9.54A13.44,13.44,0,0,1,106.54,192.58Zm-1.46-3.69c2.69.4,9.09.26,12-9.37a1.81,1.81,0,0,1,1.29-1.22,17,17,0,0,0,8.08-4.68,1.8,1.8,0,0,1,2.06-.38,17.08,17.08,0,0,0,17.64-29,1.81,1.81,0,0,1-.7-1.6,17,17,0,0,0-9.75-17,1.8,1.8,0,0,1-1-1.27,17,17,0,0,0-23.9-12,1.8,1.8,0,0,1-2.11-.43,17.05,17.05,0,0,0-20.18-4,1.81,1.81,0,0,1-1.57,0,17.07,17.07,0,0,0-19,2.85,1.85,1.85,0,0,1-1.27.48,16.67,16.67,0,0,0-3.13.2,17,17,0,0,0-13,10.17,1.81,1.81,0,0,1-1.32,1.06,17.07,17.07,0,0,0,1.63,33.75,1.81,1.81,0,0,1,1.46,1,17,17,0,0,0,11.39,9.14,1.82,1.82,0,0,1,.85.47,17,17,0,0,0,16.51,4.31,1.81,1.81,0,0,1,2.12,1c1.73,3.71,5.21,6.29,10.33,7.67,1.17.35,10.31,3.29,11.52,9Z"/><path class="cls-1" d="M136.29,153.11q-.74,0-1.54-.06a1.81,1.81,0,0,1,.27-3.61c9.42.73,10.44-6.57,10.48-6.88a1.81,1.81,0,0,1,3.59.46C148.63,146.63,145.35,153.11,136.29,153.11Z"/><path class="cls-1" d="M128.92,177.35a1.83,1.83,0,0,1-.55-.08,10.57,10.57,0,0,1-6.52-7,1.81,1.81,0,0,1,3.48-1,7,7,0,0,0,4.13,4.53,1.81,1.81,0,0,1-.55,3.53Z"/><path class="cls-1" d="M104.62,118.73a1.81,1.81,0,0,1-1.68-2.47,15.85,15.85,0,0,1,7.78-8,1.81,1.81,0,0,1,1.45,3.32,12.32,12.32,0,0,0-5.86,6A1.81,1.81,0,0,1,104.62,118.73Z"/><path class="cls-1" d="M130.49,129.63q-.42,0-.86,0a1.81,1.81,0,0,1-1.66-1.95h0a1.83,1.83,0,0,1,1.95-1.66c3.89.32,4.85-2.51,4.89-2.63a1.81,1.81,0,0,1,3.43,1.14A8,8,0,0,1,130.49,129.63Z"/><path class="cls-1" d="M55.59,126.34a1.81,1.81,0,0,1-1.67-1.11,4.51,4.51,0,0,0-4.73-2.64,1.81,1.81,0,0,1-.51-3.58h0a8.13,8.13,0,0,1,8.57,4.83,1.81,1.81,0,0,1-1,2.37h0A1.79,1.79,0,0,1,55.59,126.34Z"/><path class="cls-1" d="M91.68,112.55a1.81,1.81,0,0,1-1.81-1.71c-.06-1-1.79-2.44-3-3.07a1.81,1.81,0,0,1,1.7-3.19c.48.25,4.67,2.58,4.86,6.06a1.81,1.81,0,0,1-1.71,1.91Z"/><path class="cls-1" d="M66.25,117.81a1.81,1.81,0,0,1-1.45-.72,7,7,0,0,1,.68-9,1.81,1.81,0,0,1,2.63,2.48,3.43,3.43,0,0,0-.41,4.35,1.81,1.81,0,0,1-1.45,2.89Z"/><path class="cls-1" d="M50.74,159.92a1.81,1.81,0,0,1-1.67-2.47,8.42,8.42,0,0,1,4.55-4.33c2.85-1.15,6.29-.86,10.24.88a1.81,1.81,0,0,1-1.46,3.31c-3-1.31-5.46-1.6-7.36-.86a4.9,4.9,0,0,0-2.63,2.38A1.83,1.83,0,0,1,50.74,159.92Z"/><path class="cls-1" d="M118.86,181.86h-.17c-.39,0-9.62-1-13.18-6.62a13.43,13.43,0,0,0-8.92-5.61c-4.89-.82-10.28,1-15.57,5.2A1.81,1.81,0,0,1,78.76,172c7.73-6.18,14.29-6.65,18.43-5.95a17,17,0,0,1,11.38,7.25c2.16,3.44,8.28,4.74,10.46,4.95a1.81,1.81,0,0,1-.17,3.61Z"/><path class="cls-1" d="M63.33,170a1.81,1.81,0,0,1-1.65-2.53c1.2-2.73,5.63-7.55,13.81-6.26a1.81,1.81,0,1,1-.57,3.57h0c-7.39-1.17-9.83,3.94-9.93,4.15A1.82,1.82,0,0,1,63.33,170Z"/><path class="cls-1" d="M127.4,141a11.71,11.71,0,0,1-11-7.33,1.81,1.81,0,0,1,3.39-1.27c.26.67,2.73,6.44,10.42,4.64a1.81,1.81,0,0,1,.82,3.52A15.86,15.86,0,0,1,127.4,141Z"/><path class="cls-1" d="M134.18,167.69a15.59,15.59,0,0,1,0-31.19,1.81,1.81,0,1,1,0,3.62,12,12,0,0,0,0,24,1.81,1.81,0,1,1,0,3.62Z"/><path class="cls-1" d="M99,133.08a33.68,33.68,0,0,1-9.35-1.41,1.81,1.81,0,0,1,1-3.48c19,5.48,25.73-8.25,26-8.84a1.81,1.81,0,1,1,3.27,1.55A23.56,23.56,0,0,1,99,133.08Z"/><path class="cls-1" d="M87.88,144.1a14.07,14.07,0,0,1,0-28.13h0a1.81,1.81,0,1,1,0,3.62,10.45,10.45,0,1,0,0,20.9h0a1.81,1.81,0,0,1,0,3.62Z"/><path class="cls-1" d="M101.85,140.05a1.81,1.81,0,0,1-1.75-1.37c-1.29-5.18,3-8.78,5.45-10a1.81,1.81,0,0,1,1.57,3.26c-.2.1-4.41,2.22-3.51,5.82a1.81,1.81,0,0,1-1.32,2.19h0A1.83,1.83,0,0,1,101.85,140.05Z"/><path class="cls-1" d="M55.41,142.33A24.26,24.26,0,0,1,44.6,139.6a1.81,1.81,0,0,1,1.8-3.14h0c.5.28,11.9,6.6,19.88-3a1.81,1.81,0,0,1,2.78,2.31A17.13,17.13,0,0,1,55.41,142.33Z"/><path class="cls-1" d="M112.72,172.1h-.1a1.81,1.81,0,0,1-1.71-1.9c0-.07.31-7.8-4.9-12.55-3.69-3.36-9.34-4.53-16.77-3.47C63,157.92,58.83,140.3,58.8,140.12a1.81,1.81,0,0,1,3.53-.78c.15.63,3.65,14.51,26.4,11.25,8.57-1.22,15.21.26,19.74,4.4,6.47,5.92,6.07,15,6.05,15.39A1.81,1.81,0,0,1,112.72,172.1Z"/><path class="cls-1" d="M87.71,161.3A1.81,1.81,0,0,1,86,158.81c.87-2.17-1.9-4.23-1.93-4.25a1.81,1.81,0,0,1,2.1-2.94c1.91,1.36,4.72,4.69,3.19,8.54A1.81,1.81,0,0,1,87.71,161.3Z"/><path class="cls-1" d="M97.91,54.52H88.7q-.11-1.26-.1-3.66a18.62,18.62,0,0,1,8.69-16.33l4.6-3.14a11.78,11.78,0,0,0,5.55-10.25,11.92,11.92,0,0,0-3.24-8.48Q100.94,9.21,95,9.21q-6.39,0-9.73,4a14.15,14.15,0,0,0-3.35,9.42,15,15,0,0,0,.73,5.13L72.48,26.48a18.3,18.3,0,0,1-.63-5,22.13,22.13,0,0,1,2.3-9.84,20.47,20.47,0,0,1,7.74-8.16A23.9,23.9,0,0,1,95,0q10.46,0,16.69,6.28A20.29,20.29,0,0,1,117.89,21q0,11-10.67,18.21l-4.81,3.24q-4.61,3.14-4.6,10A19.85,19.85,0,0,0,97.91,54.52ZM88.38,74.3a6.55,6.55,0,0,1-2-4.81,6.73,6.73,0,0,1,2-4.87,6.47,6.47,0,0,1,4.81-2,7,7,0,0,1,6.91,6.91,6.47,6.47,0,0,1-2,4.81,6.73,6.73,0,0,1-4.87,2A6.55,6.55,0,0,1,88.38,74.3Z"/><path class="cls-2" d="M52.26,63.4a6.94,6.94,0,1,1,6.93-6.94A6.94,6.94,0,0,1,52.26,63.4Zm0-11.87a4.94,4.94,0,1,0,4.93,4.93A4.94,4.94,0,0,0,52.26,51.53Z"/><path class="cls-2" d="M188.45,69.33a6.94,6.94,0,1,1,6.93-6.93A6.94,6.94,0,0,1,188.45,69.33Zm0-11.87a4.94,4.94,0,1,0,4.93,4.94A4.94,4.94,0,0,0,188.45,57.46Z"/><path class="cls-2" d="M46,23.29,33.09,15,46.78,7.9Zm-9-8.14,7.13,4.58.4-8.47Z"/><path class="cls-2" d="M188.17,155.3l-13-8.33,13.69-7.06Zm-9-8.14,7.13,4.58.4-8.47Z"/><path class="cls-2" d="M152.55,32.54l-11.33-4.44,4.44-11.33L157,21.21ZM143.82,27l7.61,3,3-7.6-7.61-3Z"/><path class="cls-2" d="M17,110.36,5.68,105.93,10.12,94.6,21.45,99ZM8.28,104.8l7.6,3,3-7.6-7.61-3Z"/><rect class="cls-2" x="136" y="65" width="2" height="14.46" transform="translate(-10.95 118.03) rotate(-45)"/><rect class="cls-2" x="129.77" y="71.23" width="14.46" height="2" transform="translate(-10.95 118.03) rotate(-45)"/><rect class="cls-2" x="0.93" y="160.3" width="14.46" height="2" transform="matrix(0.96, -0.28, 0.28, 0.96, -44.88, 8.75)"/><rect class="cls-2" x="7.16" y="154.06" width="2" height="14.46" transform="translate(-44.92 8.77) rotate(-16.29)"/><rect class="cls-2" x="158.41" y="110.4" width="11.67" height="2" transform="translate(-29.79 69.74) rotate(-22.03)"/><rect class="cls-2" x="156.03" y="104.53" width="11.67" height="2" transform="translate(-27.76 68.42) rotate(-22.03)"/><rect class="cls-2" x="2.33" y="52.46" width="11.67" height="2" transform="translate(-19.46 6.96) rotate(-22.03)"/><rect class="cls-2" x="-0.05" y="46.59" width="11.67" height="2" transform="translate(-17.43 5.64) rotate(-22.03)"/></g></g></svg>