<svg xmlns="http://www.w3.org/2000/svg" viewBox="0 0 26.65 26.65"><defs><style>.cls-1{fill:#ff4040;}</style></defs><title>insta</title><g id="Layer_2" data-name="Layer 2"><g id="Layer_1-2" data-name="Layer 1"><path class="cls-1" d="M13.32,2.4c3.56,0,4,0,5.38.08a7.37,7.37,0,0,1,2.47.46,4.41,4.41,0,0,1,2.53,2.53,7.37,7.37,0,0,1,.46,2.47c.06,1.4.08,1.83.08,5.38s0,4-.08,5.38a7.37,7.37,0,0,1-.46,2.47,4.41,4.41,0,0,1-2.53,2.53,7.37,7.37,0,0,1-2.47.46c-1.4.06-1.83.08-5.38.08s-4,0-5.38-.08a7.37,7.37,0,0,1-2.47-.46,4.41,4.41,0,0,1-2.53-2.53,7.37,7.37,0,0,1-.46-2.47c-.06-1.4-.08-1.83-.08-5.38s0-4,.08-5.38a7.37,7.37,0,0,1,.46-2.47A4.41,4.41,0,0,1,5.47,2.94a7.37,7.37,0,0,1,2.47-.46c1.4-.06,1.83-.08,5.38-.08m0-2.4C9.7,0,9.25,0,7.83.08A9.78,9.78,0,0,0,4.6.7,6.81,6.81,0,0,0,.7,4.6,9.78,9.78,0,0,0,.08,7.83C0,9.25,0,9.7,0,13.32s0,4.07.08,5.49A9.78,9.78,0,0,0,.7,22a6.81,6.81,0,0,0,3.9,3.9,9.78,9.78,0,0,0,3.23.62c1.42.06,1.87.08,5.49.08s4.07,0,5.49-.08A9.78,9.78,0,0,0,22,25.95a6.81,6.81,0,0,0,3.9-3.9,9.78,9.78,0,0,0,.62-3.23c.06-1.42.08-1.87.08-5.49s0-4.07-.08-5.49a9.78,9.78,0,0,0-.62-3.23A6.81,6.81,0,0,0,22,.7,9.78,9.78,0,0,0,18.82.08C17.39,0,16.94,0,13.32,0Z"/><path class="cls-1" d="M13.32,6.48a6.84,6.84,0,1,0,6.84,6.84,6.84,6.84,0,0,0-6.84-6.84Zm0,11.28a4.44,4.44,0,1,1,4.44-4.44h0A4.44,4.44,0,0,1,13.32,17.76Z"/><circle class="cls-1" cx="20.43" cy="6.21" r="1.6"/></g></g></svg>