<?xml version="1.0" encoding="utf-8"?>
<!-- Generator: Adobe Illustrator 20.0.0, SVG Export Plug-In . SVG Version: 6.00 Build 0)  -->
<svg version="1.1" id="Layer_1" xmlns="http://www.w3.org/2000/svg" xmlns:xlink="http://www.w3.org/1999/xlink" x="0px" y="0px"
	 viewBox="0 0 26.6 26.6" style="enable-background:new 0 0 26.6 26.6;" xml:space="preserve">
<style type="text/css">
	.st0{fill:#FFFFFF;}
</style>
<g id="Layer_2">
	<g id="Layer_1-2">
		<path class="st0" d="M13.3,2.4c3.6,0,4,0,5.4,0.1c0.8,0,1.7,0.2,2.5,0.5c1.2,0.4,2.1,1.4,2.5,2.5c0.3,0.8,0.4,1.6,0.5,2.5
			c0.1,1.4,0.1,1.8,0.1,5.4s0,4-0.1,5.4c0,0.8-0.2,1.7-0.5,2.5c-0.4,1.2-1.4,2.1-2.5,2.5c-0.8,0.3-1.6,0.4-2.5,0.5
			c-1.4,0.1-1.8,0.1-5.4,0.1s-4,0-5.4-0.1c-0.8,0-1.7-0.2-2.5-0.5c-1.2-0.4-2.1-1.4-2.5-2.5c-0.3-0.8-0.4-1.6-0.5-2.5
			c-0.1-1.4-0.1-1.8-0.1-5.4s0-4,0.1-5.4c0-0.8,0.2-1.7,0.5-2.5c0.4-1.2,1.4-2.1,2.5-2.5c0.8-0.3,1.6-0.4,2.5-0.5
			C9.3,2.4,9.8,2.4,13.3,2.4 M13.3,0C9.7,0,9.3,0,7.8,0.1c-1.1,0-2.2,0.2-3.2,0.6C2.8,1.4,1.4,2.8,0.7,4.6c-0.4,1-0.6,2.1-0.6,3.2
			C0,9.3,0,9.7,0,13.3s0,4.1,0.1,5.5c0,1.1,0.2,2.2,0.6,3.2c0.7,1.8,2.1,3.2,3.9,3.9c1,0.4,2.1,0.6,3.2,0.6c1.4,0.1,1.9,0.1,5.5,0.1
			s4.1,0,5.5-0.1c1.1,0,2.2-0.2,3.2-0.6c1.8-0.7,3.2-2.1,3.9-3.9c0.4-1,0.6-2.1,0.6-3.2c0.1-1.4,0.1-1.9,0.1-5.5s0-4.1-0.1-5.5
			c0-1.1-0.2-2.2-0.6-3.2c-0.7-1.8-2.1-3.2-3.9-3.9c-1-0.4-2.1-0.6-3.2-0.6C17.4,0,16.9,0,13.3,0z"/>
		<path class="st0" d="M13.3,6.5c-3.8,0-6.8,3.1-6.8,6.8s3.1,6.8,6.8,6.8s6.8-3.1,6.8-6.8c0,0,0,0,0,0C20.2,9.5,17.1,6.5,13.3,6.5z
			 M13.3,17.8c-2.5,0-4.4-2-4.4-4.4s2-4.4,4.4-4.4s4.4,2,4.4,4.4l0,0C17.8,15.8,15.8,17.8,13.3,17.8L13.3,17.8z"/>
		<circle class="st0" cx="20.4" cy="6.2" r="1.6"/>
	</g>
</g>
</svg>
