<svg xmlns="http://www.w3.org/2000/svg" viewBox="0 0 98.96 62.33"><defs><style>.cls-1{fill:#ff4040;}</style></defs><title>logo-red</title><g id="Layer_2" data-name="Layer 2"><g id="Layer_1-2" data-name="Layer 1"><path class="cls-1" d="M86,14.36H72V4.46L71,4A45.61,45.61,0,0,0,57.37.49S52.46,0,50.82,0s-6.55.49-6.55.49A45.61,45.61,0,0,0,30.63,4l-1,.46v9.89H14.82v0l-3.46,3.46H33.08v0H68.56v0H89.45ZM68.56,16.27H33.08V6.73A43.92,43.92,0,0,1,45.18,3.9l.55-.06s3.82-.31,5.09-.31,5.09.31,5.09.31l.55.06A43.91,43.91,0,0,1,68.56,6.73ZM43.75,51.34,41.84,49l2.52-2.52,2.31,1.91a8.16,8.16,0,0,1,2.09-.87l.28-3H52.6l.28,3a8.16,8.16,0,0,1,2.09.87l2.31-1.91L59.81,49,57.9,51.34a8.2,8.2,0,0,1,.71,1.54,26.76,26.76,0,0,1-3.81,2.22,4,4,0,0,0-7.94,0A26.76,26.76,0,0,1,43,52.89,8.2,8.2,0,0,1,43.75,51.34ZM89.44,39.88H11.35l3.47,3.47H29.6v1.4l.11.29c.19.52,4.89,12.78,20.65,17.15l.46.13.46-.13C67,57.84,71.74,45.58,71.94,45.06l.11-.29v-1.4H86ZM68.56,44.11a23.88,23.88,0,0,1-3.77,5.8,28.72,28.72,0,0,1-14,8.81,28.72,28.72,0,0,1-14-8.81,23.88,23.88,0,0,1-3.77-5.8V41.4H68.56Zm-21.65-36-2.07,2,2.07,2H45.33l-2.19-2,2.19-2Zm4.87-.74h1.34l-2.86,5.82H48.81Zm4.81.74,2.19,2-2.19,2H55l2.07-2L55,8.09ZM9.15,36.31V30.52H3.58v5.79H0V21.42H3.58v5.77H9.15V21.42h3.58v14.9Zm6.94,0h3.85L20.79,34h5.89l.85,2.34h3.85l-6-14.9H22Zm7.64-10.56h0s.4,1.34.72,2.19l1.06,2.89h-3.6L23,27.95C23.32,27.1,23.71,25.76,23.73,25.76ZM37,28.86A3.87,3.87,0,0,0,41,33a4,4,0,0,0,3.4-1.74l3.62.94a7.78,7.78,0,1,1-.26-7.15l-3.64,1A4.17,4.17,0,0,0,41,24.65,3.89,3.89,0,0,0,37,28.86Zm18.73-5c0,2.47-.06,3.19,0,3.19h0s.45-.51,2-2l3.62-3.6H65.7l-6.32,6.34,6.36,8.55H61.53L57,30.12l-1.26,1.26v4.94H52.18V21.42h3.58Zm25.71,2.68c0-3.06-2.26-5.11-6-5.11H69.91v14.9h3.58V31.46h1.83l2.77,4.85h4l-3.3-5.49A4.48,4.48,0,0,0,81.47,26.52ZM76,28.29H73.49V24.76H76a1.77,1.77,0,1,1,0,3.53Zm23-6.87v8.28c0,4.47-2.64,6.92-6.58,6.92s-6.58-2.45-6.58-6.92V21.42h3.58v8.19c0,2.55,1,3.66,3,3.66s3-1.11,3-3.66V21.42Z"/></g></g></svg>