<svg id="Layer_1" data-name="Layer 1" xmlns="http://www.w3.org/2000/svg" width="85" height="65" viewBox="0 0 85 65"><defs><style>.cls-1{fill:#fff;}</style></defs><title>logo</title><g id="Layer_2" data-name="Layer 2"><g id="Layer_1-2" data-name="Layer 1-2"><path class="cls-1" d="M66.54979,21.42853V21.42H57.3686V15.93535l-.00392-1.03477-.67155-.30371a30.05563,30.05563,0,0,0-8.99343-2.30871s-3.23276-.32415-4.3144-.32415-4.31426.32415-4.31426.32415a30.0534,30.0534,0,0,0-8.99342,2.30871l-.67155.30371L29.40215,21.42H19.66323v.0161l-2.278,2.278h2.278v0h12.033v-.02394H55.07446v.02394H66.54979v0h2.28553Zm-11.47534,1.258H31.69629V16.39785a28.93719,28.93719,0,0,1,7.9686-1.86511l.36476-.03627s2.51518-.20446,3.35565-.20446,3.3558.20443,3.3558.20443l.36476.03627a28.93456,28.93456,0,0,1,7.96859,1.86511ZM38.72521,45.79465l-1.26053-1.52356,1.66026-1.66022,1.52356,1.26049a5.37359,5.37359,0,0,1,1.37713-.57326l.18574-1.96568h2.34791L44.745,43.2981a5.37357,5.37357,0,0,1,1.37713.57326l1.52356-1.26049,1.66022,1.66022-1.26049,1.52356a5.40056,5.40056,0,0,1,.46575,1.01685,17.63,17.63,0,0,1-2.51,1.46562,2.62813,2.62813,0,0,0-5.23169,0,17.63009,17.63009,0,0,1-2.51-1.46562A5.40048,5.40048,0,0,1,38.72521,45.79465Zm30.108-7.54959H66.54979v-.00142H56.27388v-.00448h-26.765v.00448H19.66323v.00142H17.37841l2.28483,2.28483v.00789h9.73891v.92233l.07127.19267c.12686.34264,3.224,8.422,13.60565,11.29835l.30623.08485.30623-.08485c10.38176-2.87635,13.47894-10.9557,13.6058-11.29834l.07127-.19267v-.92233h9.18119v-.00933ZM55.07446,41.02773a15.7356,15.7356,0,0,1-2.483,3.82152,18.92706,18.92706,0,0,1-9.20612,5.80383,18.92664,18.92664,0,0,1-9.206-5.80383,15.73451,15.73451,0,0,1-2.483-3.82138v-1.785H55.07446Zm-14.267-23.733L39.4442,18.63067l1.36321,1.34143H39.76716L38.3218,18.63067l1.44537-1.33594Zm3.20958-.48728h.88142L43.015,20.64h-.95811Zm3.17082.48728,1.44554,1.33594L47.18781,19.9721H46.14756l1.36338-1.34143-1.36338-1.33594ZM15.92629,35.89125v-3.814H12.25264v3.814H9.89688V26.07589h2.35575v3.8h3.67366v-3.8H18.282v9.81536Zm4.57218,0h2.53792l.56093-1.54236h3.88411l.56093,1.54236h2.53792l-3.9261-9.81536H24.42459Zm5.03384-6.955h.01414c.014,0,.26632.88341.47664,1.44434l.7011,1.907H24.35458l.7011-1.907c.21032-.56089.46264-1.4443.47664-1.4443Zm8.76462,2.04728A2.548,2.548,0,0,0,36.933,33.73177,2.6682,2.6682,0,0,0,39.17646,32.582l2.38376.61694a5.12614,5.12614,0,1,1-.16817-4.71137l-2.39776.631a2.75092,2.75092,0,0,0-2.06128-.91141,2.5629,2.5629,0,0,0-2.63607,2.77642Zm12.34012-3.30917c0,1.62651-.04215,2.10329-.02814,2.10329h.014c.01414,0,.29447-.33662,1.29-1.33218l2.38376-2.36962h2.88854l-4.16444,4.17844,4.19258,5.63692H50.437l-2.9727-4.08042-.82726.82726v3.25316H44.2813V26.07589h2.35575ZM63.57624,29.441c0-2.01914-1.48635-3.36518-3.95412-3.36518H55.96233v9.81536h2.35575v-3.197H59.524l1.82282,3.197h2.6361l-2.1733-3.61764a2.95153,2.95153,0,0,0,1.76667-2.83251ZM59.9446,30.60491H58.3181V28.27734h1.62651a1.16389,1.16389,0,1,1,.02813,2.32761q-.01406.00017-.02813,0Zm15.15851-4.52906v5.45447c0,2.94469-1.73867,4.5572-4.33274,4.5572-2.60822,0-4.33288-1.61251-4.33288-4.5572V26.07589h2.35575v5.39846c0,1.68266.68709,2.41176,1.97713,2.41176s1.977-.7291,1.977-2.41176V26.07589Z"/></g></g></svg>