<?xml version="1.0" encoding="utf-8"?>
<!-- Generator: Adobe Illustrator 20.0.0, SVG Export Plug-In . SVG Version: 6.00 Build 0)  -->
<svg version="1.1" id="Layer_1" xmlns="http://www.w3.org/2000/svg" xmlns:xlink="http://www.w3.org/1999/xlink" x="0px" y="0px"
	 viewBox="0 0 27.2 23" style="enable-background:new 0 0 27.2 23;" xml:space="preserve">
<style type="text/css">
	.st0{fill:#FFFFFF;}
</style>
<g id="Layer_2">
	<g id="Layer_1-2">
		<path class="st0" d="M27.2,4.2L27.2,4.2l-8.3-4.1c-0.1,0-0.1,0-0.2-0.1h-0.2c-0.3,0-0.6,0.2-0.8,0.4L13,8.1l5.9,9.7l8.3-13.4V4.2z
			"/>
		<polygon class="st0" points="10.4,6.3 10.4,15.1 18.2,19 		"/>
		<path class="st0" d="M19.3,19.6l6.4,3.2c0.8,0.4,1.5,0.1,1.5-0.7V6.7L19.3,19.6z"/>
		<path class="st0" d="M9,4.2l-8-4C0.9,0.1,0.7,0.1,0.6,0.1C0.2,0.1,0,0.4,0,0.8v17.3c0,0.5,0.3,1,0.8,1.2l7.1,3.5
			c0.2,0.1,0.3,0.1,0.5,0.1c0.4,0,0.8-0.4,0.8-0.8V22L9,4.2z"/>
	</g>
</g>
</svg>
