<svg xmlns="http://www.w3.org/2000/svg" viewBox="0 0 27.2 22.98"><defs><style>.cls-1{fill:#ff4040;}</style></defs><title>medium</title><g id="Layer_2" data-name="Layer 2"><g id="Layer_1-2" data-name="Layer 1"><path class="cls-1" d="M27.2,4.2h0L18.9.1c-.1,0-.1,0-.2-.1h-.2a1.23,1.23,0,0,0-.8.4L13,8.1l5.9,9.7L27.2,4.4Z"/><polygon class="cls-1" points="10.4 6.3 10.4 15.1 18.2 19 10.4 6.3"/><path class="cls-1" d="M19.3,19.6l6.4,3.2c.8.4,1.5.1,1.5-.7V6.7Z"/><path class="cls-1" d="M9,4.2,1,.2A.76.76,0,0,0,.6.1.67.67,0,0,0,0,.8V18.1a1.3,1.3,0,0,0,.8,1.2l7.1,3.5a.9.9,0,0,0,.5.1.86.86,0,0,0,.8-.8V22L9,4.2Z"/></g></g></svg>