<svg xmlns="http://www.w3.org/2000/svg" width="43.98394" height="60.11646" viewBox="0 0 43.98394 60.11646"><defs><style>.cls-1{fill:#ffdd67;}.cls-2{fill:#eba352;}</style></defs><title>ok</title><g id="Layer_2" data-name="Layer 2"><g id="Layer_1-2" data-name="Layer 1"><path class="cls-1" d="M38.6,30.91646l-6.6,4.7s-3.3-9.2-5.8-15.1c-1-2.4-4.2-3.2-5.7-6.6-2.6-5.8.5-10.8,3.5-7.2,3.5,4.2,8.7,7.3,9.8,9.7,1.7,4,4.8,14.5,4.8,14.5"/><path class="cls-1" d="M43.8,34.71646c.5,3.2.1,8.1-2.7,13.9,0,0-5.7-6.8-6.4-10,0,0-1.6-11.9-3.3-19.5-.7-3.1-4.3-4.9-5.2-9.3-1.6-7.6,3.2-12.9,6-7.8,3.2,5.9,8.6,10.9,9.3,14,1.2,5.3,1.7,14.1,2.3,18.7"/><path class="cls-2" d="M35.4,28.71646s-.5-4.5-2.2-12.1c-.7-3.1-4.3-4.9-5.2-9.3a11.35418,11.35418,0,0,1,.3-6.7c-1.7,1.3-3.1,4.9-2.2,9.3s4.6,6.2,5.2,9.3c.7,3.3,1.3,6.7,1.3,6.7l-5-1.9,7.8,4.7"/><path class="cls-1" d="M41.4,33.51646c-6.6-6-14-9.7-18.8-12-7.1-3.5-5.2,1.3-17.3,4.5-1.6.4-3.5,1.6-2,4.6,1.4,2.9,12.8.7,14.6-1,0,0,4.8,5.9,9.6,5.7,0,0-.8,3.9.3,5.8,0,0-6.8,3.5-9.7,6.6l-8-5.4c-.6-8.3-2.1-10.8-6.2-10.4-3.8.4-3.4,4-3.3,6.9.1,5.3-1.3,6.2,0,8.3,4.9,8,11.2,13,22.8,13,4.3,0,7.1-.1,9.8-1.4,4.4-2.3,15.5-18.5,8.2-25.2"/><path class="cls-2" d="M42.7,35.11646c2.5,7.6-6.4,20.1-10.3,22-2.7,1.3-5.4,1.4-9.8,1.4-11.5,0-17.7-4.9-22.6-12.8a6.94334,6.94334,0,0,0,.5,1.3c5,8.1,11.3,13.1,22.9,13.1,4.3,0,7.1-.1,9.8-1.4,4.1-2.1,14-16.2,9.5-23.6"/><path class="cls-2" d="M8.6,42.51646s7.5,4.8,9.3,5.1l-7.9-5.3c.3-8.4-2.1-11.1-6.2-10.4-.3.1-.6.1-.9.2,4.1-.5,6,2.2,5.7,10.4"/><path class="cls-2" d="M17.9,29.61646s4.8,5.8,9.6,5.7v-1.1c-4.8.1-9.6-5.7-9.6-5.7-1.8,1.8-13.2,4-14.6,1a12.12914,12.12914,0,0,1-.5-1.4,4.37566,4.37566,0,0,0,.5,2.5c1.4,2.9,12.8.7,14.6-1"/></g></g></svg>