<svg xmlns="http://www.w3.org/2000/svg" width="96.17206" height="93.12252" viewBox="0 0 96.17206 93.12252"><defs><style>.cls-1{fill:#f7b600;}.cls-2{fill:#ffdd7d;}.cls-3{fill:#493816;}.cls-4{fill:#42ade2;}.cls-5{fill:#ff8736;}.cls-6{fill:#ed4c5c;}.cls-7{fill:#c28fef;}</style></defs><title>party</title><g id="Layer_2" data-name="Layer 2"><g id="Layer_1-2" data-name="Layer 1"><path class="cls-1" d="M0,93.12252l13.80782-4.81668L3.37168,83.48915Z"/><path class="cls-2" d="M39.97846,53.62573,20.55118,34.03788,17.34005,43.029Z"/><path class="cls-1" d="M17.34006,43.029l-3.53223,10.115,43.029,20.06951,2.08723-.64223L39.97846,53.62572Z"/><path class="cls-2" d="M10.43614,63.25909,42.54736,78.1908l14.28949-4.97724-43.029-20.06951Z"/><path class="cls-1" d="M6.90391,73.37412l21.1934,9.95448,14.45-5.1378L10.43614,63.25909Z"/><path class="cls-2" d="M6.90391,73.37412l-3.53223,10.115,10.43614,4.81668L28.09731,83.3286Z"/><path class="cls-3" d="M48.00626,45.27681C58.76352,55.87351,64.383,67.75466,60.52964,71.608c-4.0139,3.85335-15.895-1.60556-26.81286-12.36282C22.95952,48.64848,17.34006,36.76733,21.1934,32.914c4.0139-3.85334,15.895,1.76612,26.81287,12.36282"/><path class="cls-4" d="M34.51955,18.46394c-2.5689-3.69279.16056-5.29835,3.69279-4.65613-3.37168-4.0139-1.28445-6.90391,4.0139-5.78,1.60556.32111-.64222,3.05056-2.08723,3.05056,4.335,3.21112,1.92667,6.74335-2.72945,5.94057,4.17446,5.61946-2.89,4.17446-6.10113,4.49557-.80278,4.17446,4.0139,8.99114,2.40834,8.99114-3.53223,0-9.31225-13.32615.80278-12.0417"/><path class="cls-5" d="M68.23633,26.17063c-2.40834,1.12389-9.1517-9.47281-.80278-9.63336-4.81668-4.335-4.17446-6.42224,2.24779-6.5828C62.29576,2.56889,74.01635,0,75.14024,3.85334,75.46136,4.97723,71.608,2.89,70.32356,4.97723c-1.445,2.40834,8.99114,8.67-1.76611,8.18836,4.0139,4.0139,4.17446,5.94057-2.08723,6.5828.80278,1.28445,3.37167,5.78,1.76611,6.42224"/><path class="cls-6" d="M70.96578,51.21738l2.40834-2.08723a27.40056,27.40056,0,0,0,3.85335,4.65613c1.28445-5.78.96333-9.1517,7.54614-5.29835-3.69279-9.95448,2.40834-6.26169,8.34892-3.53223-.32111-2.5689,0-2.24778,2.56889-3.05056,2.24779,8.50947-3.85335,5.94057-8.67,3.21112,2.89,7.70669-.16055,7.225-6.26169,4.65613-.16055,3.21112-1.12389,6.90391-3.05057,7.225-2.24779.64223-6.74336-5.78-6.74336-5.78"/><path class="cls-7" d="M52.9835,27.45508c-2.89,3.85334-7.54614,5.94058-10.91781,9.31225-3.53223,3.53223-5.61946,13.1656-5.61946,13.1656s1.28445-10.115,4.65613-13.96838c3.05056-3.53223,7.54613-6.10113,9.95447-10.115,4.17446-7.38558.32111-17.01894-5.1378-22.63841A35.15757,35.15757,0,0,0,49.45127,0c5.29835,6.5828,9.79392,19.26673,3.53223,27.45509"/><path class="cls-5" d="M57.96074,35.64344c-4.17446,3.05056-7.225,7.54614-10.115,11.72059C45.27681,51.05682,37.08845,55.713,37.08845,55.713s7.70669-5.29835,10.115-9.1517c2.89-4.81668,5.78-9.79392,10.27559-13.32615,8.99114-6.90391,21.99618-6.26169,32.11121-2.5689-.64223,1.445-1.76611,4.49557-1.76611,4.49557s-21.354-5.78-29.86343.48167"/><path class="cls-4" d="M75.78246,34.84066c-2.72945,3.53223-4.0139,7.86725-6.10113,11.88115-1.92667,3.69279-4.49557,7.225-8.18836,9.1517-4.17446,2.08723-13.32615,1.445-13.32615,1.445s9.1517-.16055,13.005-2.72945,5.94058-7.06447,7.38558-11.23892c2.89-8.0278,6.42224-16.69783,14.77116-20.23006.48167,1.445,1.60556,4.49557,1.60556,4.49557s-4.65613,1.28445-9.1517,7.225"/><path class="cls-4" d="M3.21112,14.93171H9.63336V21.354H3.21112Z"/><path class="cls-5" d="M9.63336,29.2212h6.42224v6.42224H9.63336Z"/><path class="cls-6" d="M21.1934,7.70669h6.42224v6.42224H21.1934Z"/><path class="cls-7" d="M70.64467,62.1352h6.42224v6.42224H70.64467Z"/><path class="cls-6" d="M60.52964,77.70914h6.42224v6.42224H60.52964Z"/><path class="cls-5" d="M80.43859,81.24136h6.42224v6.42224H80.43859Z"/><path class="cls-4" d="M84.93416,60.52964H91.3564v6.42224H84.93416Z"/><path class="cls-4" d="M77.388,12.52337h6.42224v6.42224H77.388Z"/><path class="cls-6" d="M28.73954,39.8179h6.42224v6.42224H28.73954Z"/></g></g></svg>