<?xml version="1.0" encoding="utf-8"?>
<!-- Generator: Adobe Illustrator 20.0.0, SVG Export Plug-In . SVG Version: 6.00 Build 0)  -->
<svg version="1.1" id="Layer_1" xmlns="http://www.w3.org/2000/svg" xmlns:xlink="http://www.w3.org/1999/xlink" x="0px" y="0px"
	 viewBox="0 0 40 40" style="enable-background:new 0 0 40 40;" xml:space="preserve">
<style type="text/css">
	.st0{fill:#FF4040;}
</style>
<title>plus</title>
<g id="Layer_2">
	<g id="Layer_1-2">
		<path class="st0" d="M24.3,18H22v-2.3c0-1.1-0.9-2-2-2c-1.1,0-2,0.9-2,2V18h-2.3c-1.1,0-2,0.9-2,2c0,1.1,0.9,2,2,2H18v2.3
			c0,1.1,0.9,2,2,2c1.1,0,2-0.9,2-2V22h2.3c1.1,0,2-0.9,2-2C26.3,18.9,25.4,18,24.3,18z"/>
	</g>
</g>
</svg>
