<svg xmlns="http://www.w3.org/2000/svg" width="60" height="60" viewBox="0 0 60 60"><defs><style>.cls-1{fill:#ffdd67;}.cls-2{fill:#664e27;}.cls-3{fill:#fff;}.cls-4{fill:#65b1ef;}.cls-5{fill:#917524;}</style></defs><title>sad</title><g id="Layer_2" data-name="Layer 2"><g id="Layer_1-2" data-name="Layer 1"><circle class="cls-1" cx="30" cy="30" r="30"/><path class="cls-2" d="M38.6,44.4a20.66017,20.66017,0,0,0-17.2,0c-1.3.6.3,4.2,1.7,3.5a16.76718,16.76718,0,0,1,13.9,0c1.3.6,3-2.8,1.6-3.5"/><path class="cls-3" d="M52,29a9,9,0,1,1-9-9,8.96258,8.96258,0,0,1,9,9"/><circle class="cls-2" cx="43" cy="29" r="6"/><ellipse class="cls-3" cx="44.6" cy="33.5" rx="2.8" ry="3.2"/><ellipse class="cls-3" cx="40.8" cy="29" rx="1.6" ry="1.9"/><path class="cls-3" d="M26,29a9,9,0,1,1-9-9,8.96258,8.96258,0,0,1,9,9"/><circle class="cls-2" cx="17" cy="29" r="6"/><ellipse class="cls-3" cx="18.6" cy="33.5" rx="2.8" ry="3.2"/><ellipse class="cls-3" cx="14.8" cy="29" rx="1.6" ry="1.9"/><path class="cls-4" d="M45,34c-5.1,6.8-8,13-8,18.1a8.00063,8.00063,0,0,0,16,0C53,47,50,40.7,45,34"/><path class="cls-5" d="M51.2,18.7a14.1002,14.1002,0,0,0-11.7-3.1c-.6.1-1.1-2-.4-2.2A16.46347,16.46347,0,0,1,52.6,17c.6.5-1,2.1-1.4,1.7"/><path class="cls-5" d="M20.5,15.4A14.448,14.448,0,0,0,8.8,18.5c-.4.4-2-1.2-1.4-1.7a16.12459,16.12459,0,0,1,13.5-3.6c.7.2.2,2.3-.4,2.2"/></g></g></svg>