<svg xmlns="http://www.w3.org/2000/svg" viewBox="0 0 194.6 9.47"><defs><style>.cls-1{fill:#ff4040;}</style></defs><title>squig</title><g id="Layer_2" data-name="Layer 2"><g id="Layer_1-2" data-name="Layer 1"><polygon class="cls-1" points="7.82 9.47 0 1.07 0.73 0.39 7.82 8 15.27 0 22.72 8 30.18 0 37.63 8 45.08 0 52.54 8 59.99 0 67.44 8 74.9 0 82.36 8 89.81 0 97.27 8 104.73 0 112.18 8 119.64 0 127.1 8 134.55 0 142.01 8 149.47 0 156.92 8 164.38 0 171.84 8 179.3 0 186.77 8 193.87 0.39 194.6 1.07 186.77 9.47 179.3 1.47 171.84 9.47 164.38 1.47 156.92 9.47 149.47 1.47 142.01 9.47 134.55 1.47 127.1 9.47 119.64 1.47 112.18 9.47 104.73 1.47 97.27 9.47 89.81 1.47 82.36 9.47 74.9 1.47 67.44 9.47 59.99 1.47 52.54 9.47 45.08 1.47 37.63 9.47 30.18 1.47 22.72 9.47 15.27 1.47 7.82 9.47"/></g></g></svg>