<svg xmlns="http://www.w3.org/2000/svg" width="16.62879" height="16.01074" viewBox="0 0 16.62879 16.01074"><defs><style>.cls-1{fill:#353535;}</style></defs><title>star</title><g id="Layer_2" data-name="Layer 2"><g id="Layer_1-2" data-name="Layer 1"><path class="cls-1" d="M8.3144,2l1.95123,3.95361,4.3631.63428L11.47156,9.665l.7453,4.3457L8.3144,11.959,4.41193,14.01074l.7453-4.3457L2.00007,6.58789l4.3631-.63428L8.3144,2m0-2A2,2,0,0,0,6.52094,1.11475L5.035,4.12549l-3.32266.4834A1.9998,1.9998,0,0,0,.60413,8.02l2.40414,2.34326-.56757,3.30957a1.99969,1.99969,0,0,0,2.90195,2.10791l2.97174-1.562,2.97174,1.562a1.99973,1.99973,0,0,0,2.90195-2.10791l-.56757-3.30957L16.02466,8.02a1.9998,1.9998,0,0,0-1.10822-3.41113l-3.32266-.4834L10.10785,1.11475A2,2,0,0,0,8.3144,0Z"/></g></g></svg>