<svg xmlns="http://www.w3.org/2000/svg" viewBox="0 0 30.8 24.94"><defs><style>.cls-1{fill:#ff4040;}</style></defs><title>twitter</title><g id="Layer_2" data-name="Layer 2"><g id="Layer_1-2" data-name="Layer 1"><path class="cls-1" d="M30.6,2.94a16.15,16.15,0,0,1-3.6,1A6.5,6.5,0,0,0,29.8.44a11.4,11.4,0,0,1-4,1.5,6.31,6.31,0,0,0-10.7,5.8,18.17,18.17,0,0,1-13-6.6,6.23,6.23,0,0,0,2,8.4,6,6,0,0,1-2.9-.8v.1A6.31,6.31,0,0,0,6.3,15a5.67,5.67,0,0,1-2.9.1,6.34,6.34,0,0,0,5.9,4.4,12.33,12.33,0,0,1-7.8,2.7,7.57,7.57,0,0,1-1.5-.1,17.43,17.43,0,0,0,9.7,2.8c11.6,0,18-9.6,18-18v-.8a12.19,12.19,0,0,0,3.1-3.3h0Z"/></g></g></svg>