<?xml version="1.0" encoding="utf-8"?>
<!-- Generator: Adobe Illustrator 20.0.0, SVG Export Plug-In . SVG Version: 6.00 Build 0)  -->
<svg version="1.1" id="Layer_1" xmlns="http://www.w3.org/2000/svg" xmlns:xlink="http://www.w3.org/1999/xlink" x="0px" y="0px"
	 viewBox="0 0 30.8 24.9" style="enable-background:new 0 0 30.8 24.9;" xml:space="preserve">
<style type="text/css">
	.st0{fill:#FFFFFF;}
</style>
<g id="Layer_2">
	<g id="Layer_1-2">
		<path class="st0" d="M30.6,2.9c-1.2,0.5-2.4,0.8-3.6,1c1.3-0.8,2.3-2,2.8-3.5c-1.2,0.7-2.6,1.3-4,1.5c-2.4-2.5-6.4-2.6-8.9-0.2
			c-1.6,1.5-2.3,3.8-1.8,6C10,7.5,5.3,5.1,2.1,1.1C0.4,4,1.3,7.7,4.1,9.5c-1,0-2-0.3-2.9-0.8v0.1c0,3,2.1,5.6,5.1,6.2
			c-0.9,0.3-1.9,0.3-2.9,0.1c0.8,2.6,3.2,4.3,5.9,4.4c-2.2,1.8-5,2.7-7.8,2.7c-0.5,0-1,0-1.5-0.1c2.9,1.9,6.3,2.8,9.7,2.8
			c11.6,0,18-9.6,18-18V6.1c1.2-0.9,2.3-2,3.1-3.3l0,0L30.6,2.9z"/>
	</g>
</g>
</svg>
