<?xml version="1.0" encoding="utf-8"?>
<!-- Generator: Adobe Illustrator 20.0.0, SVG Export Plug-In . SVG Version: 6.00 Build 0)  -->
<svg version="1.1" id="Layer_2" xmlns="http://www.w3.org/2000/svg" xmlns:xlink="http://www.w3.org/1999/xlink" x="0px" y="0px"
	 viewBox="0 0 1329.1 576.1" style="enable-background:new 0 0 1329.1 576.1;" xml:space="preserve">
<style type="text/css">
	.st0{fill:#FFFFFF;}
</style>
<g>
	<g>
		<path class="st0" d="M247.5,400.2c-14.7,0-27.9-1.9-39.6-5.6c-11.1-3.4-21.4-9.2-29.9-17.2c-8.2-7.7-14.5-17.5-18.9-29.3
			c-4.4-11.8-6.6-25.8-6.6-41.8V191.2h58.1v114.1c0,14.9,3.4,25.9,10.2,33c6.8,7.1,15.9,10.7,27.4,10.7c11.4,0,20.6-3.4,27.3-10.3
			c6.8-6.8,10.2-17.5,10.2-32V191.2h58.1v113.8c0,16.6-2.3,30.9-6.9,43c-4.6,12-11,21.9-19.4,29.6c-8.6,7.9-19,13.8-30.2,17.2
			C275.4,398.4,262.2,400.2,247.5,400.2z"/>
		<path class="st0" d="M458,399.9c-17.8,0.1-35.5-2.8-52.3-8.6c-16.2-5.5-31.1-14.2-43.8-25.7l31.7-37.9
			c20.5,16.4,42.7,24.6,66.6,24.6c7.6,0,13.4-1.2,17.4-3.7c3.8-2.1,6.1-6.1,6-10.4v-0.6c0-2-0.5-4-1.5-5.7c-1.4-2-3.2-3.7-5.4-4.8
			c-3.4-1.9-6.9-3.4-10.6-4.5c-4.4-1.5-10.1-3-17.2-4.5c-11-2.5-21.1-5.3-30.5-8.3c-8.7-2.7-16.9-6.6-24.5-11.7
			c-6.8-4.6-12.4-10.7-16.4-17.9c-4-7.1-6-15.9-6-26.5v-0.6c-0.1-9.1,1.7-18.1,5.4-26.3c3.6-8,9.1-15.1,15.8-20.8
			c7.4-6.1,15.9-10.7,25.1-13.6c10.7-3.4,21.9-5,33.1-4.8c17.6,0,33.3,2.3,47.1,6.9c13.6,4.5,26.3,11.5,37.4,20.5L507,255.4
			c-8.9-6.4-18.6-11.5-28.9-15.1c-9.2-3.3-18.8-5-28.6-5.1c-6.8,0-12,1.3-15.4,3.8c-3.4,2.5-5.1,5.7-5.1,9.4v0.6
			c0,2.2,0.5,4.3,1.6,6.1c1.4,2.1,3.3,3.7,5.6,4.8c3.5,1.8,7.1,3.3,10.8,4.4c4.6,1.5,10.4,3,17.4,4.5c10.8,2.3,21.4,5.3,31.8,8.9
			c8.6,3,16.8,7.2,24.2,12.4c6.4,4.6,11.6,10.7,15.2,17.7c3.5,6.9,5.3,15.2,5.3,24.7v0.6c0,10.5-2,19.9-6,28.1
			c-4,8.2-9.7,15.3-16.9,20.9c-7.8,6-16.6,10.5-26.1,13.2C481,398.5,469.5,400.1,458,399.9z"/>
		<path class="st0" d="M639.5,189.7h54.8l87.4,206.7h-61l-15-36.7h-79.2L612,396.4h-59.8L639.5,189.7z M689.4,315.8l-22.9-58.3
			l-23.2,58.3H689.4z"/>
		<path class="st0" d="M900.5,400.5c-14.2,0.1-28.2-2.6-41.3-7.9c-12.6-5.1-24-12.6-33.6-22.1c-20.1-20.2-31.2-47.6-30.9-76.1v-0.6
			c-0.2-28.3,10.9-55.6,30.8-75.8c9.7-9.8,21.4-17.5,34.2-22.7c13.7-5.6,28.4-8.4,43.2-8.2c9.7-0.1,19.3,0.9,28.7,3.1
			c8.2,1.9,16.1,4.9,23.6,8.8c7,3.7,13.5,8.3,19.4,13.6c5.7,5.2,10.9,11,15.4,17.3L947.1,263c-5.4-7-11.9-12.9-19.4-17.6
			c-7-4.3-15.5-6.4-25.5-6.5c-6.8-0.1-13.6,1.4-19.8,4.3c-5.9,2.8-11.1,6.7-15.4,11.6c-4.4,5.1-7.8,11-10.1,17.3
			c-2.5,6.8-3.7,13.9-3.7,21.1v0.6c0,7.3,1.2,14.6,3.7,21.6c2.2,6.4,5.7,12.3,10.1,17.4c4.3,4.9,9.5,8.8,15.4,11.6
			c6.2,2.9,13,4.3,19.8,4.3c4.9,0,9.8-0.5,14.5-1.8c4.2-1.1,8.3-2.8,12-5.1c3.7-2.3,7.1-4.9,10.3-7.9c3.4-3.2,6.6-6.6,9.5-10.1
			l42.8,30.5c-4.8,6.6-10.2,12.8-16,18.5c-5.9,5.7-12.5,10.7-19.6,14.7c-7.8,4.3-16,7.5-24.6,9.7
			C921.1,399.5,910.8,400.6,900.5,400.5z"/>
		<path class="st0" d="M1096.3,399.9c-17.8,0.1-35.5-2.8-52.3-8.6c-16.2-5.5-31.1-14.2-43.8-25.7l31.7-37.9
			c20.5,16.4,42.7,24.6,66.6,24.6c7.6,0,13.4-1.2,17.4-3.7c3.8-2.1,6.1-6.1,6-10.4v-0.6c0-2-0.5-4-1.5-5.7c-1.4-2-3.2-3.7-5.4-4.8
			c-3.4-1.9-6.9-3.4-10.6-4.5c-4.4-1.5-10.1-3-17.2-4.5c-10.9-2.5-21.1-5.3-30.5-8.3c-8.7-2.7-16.9-6.6-24.5-11.7
			c-6.8-4.6-12.4-10.7-16.4-17.9c-4-7.1-6-15.9-6-26.5v-0.6c-0.1-9.1,1.7-18.1,5.4-26.3c3.6-8,9.1-15.1,15.8-20.8
			c7.4-6.1,15.9-10.7,25.1-13.6c10.7-3.4,21.9-5,33.1-4.8c17.6,0,33.3,2.3,47.1,6.9c13.6,4.5,26.3,11.5,37.4,20.5l-28.4,40.3
			c-8.9-6.4-18.6-11.5-28.9-15.1c-9.2-3.3-18.8-5-28.6-5.1c-6.8,0-12,1.3-15.4,3.8c-3.4,2.5-5.1,5.7-5.1,9.4v0.6
			c0,2.2,0.5,4.3,1.6,6.1c1.4,2.1,3.3,3.7,5.6,4.8c3.5,1.8,7.1,3.3,10.8,4.4c4.6,1.5,10.4,3,17.4,4.5c10.8,2.3,21.4,5.3,31.8,8.9
			c8.6,3,16.8,7.2,24.2,12.4c6.4,4.6,11.6,10.7,15.2,17.7c3.5,6.9,5.3,15.2,5.3,24.7v0.6c0,10.5-2,19.9-6,28.1
			c-4,8.2-9.7,15.3-16.9,20.9c-7.8,6-16.6,10.5-26.1,13.2C1119.3,398.5,1107.8,400.1,1096.3,399.9z"/>
	</g>
	<g>
		<path class="st0" d="M614.1,391l-14.6,3.1c-2.8-10.5-11-18.7-21.5-21.3l10.8-63l-21.5,50.9l-2,11.7c-1.1,0.2-2.2,0.5-3.3,0.8
			l-9.8,23.3h2.2c2.9-9,12.6-14,21.6-11.2c5.3,1.7,9.5,5.8,11.2,11.2H612L614.1,391z"/>
		<path class="st0" d="M419.9,395.5c0.7-5.1,0-10.3-2-15.1l23.8-29.7c-4.5-0.9-9-2-13.4-3.5l-18,22.4c-3.6-3.2-7.9-5.6-12.5-6.8
			l5.6-27.8c-3.4-2.2-6.7-4.6-10-7.2l-2,2.3l-6.5,32.2c-6.3,1.1-12.1,4.3-16.5,9c3.4,2.6,6.9,5.1,10.5,7.4c7.2-6.2,18-5.4,24.2,1.8
			c2.7,3.1,4.2,7.1,4.2,11.2c0,0.1,0,0.2,0,0.2C411.6,393.3,415.7,394.5,419.9,395.5z"/>
		<path class="st0" d="M853.4,180.3c1.3-0.5,2.7-1.1,4-1.6c-15.8-4.8-32.4,4.1-37.3,19.9c-0.3,0.9-0.5,1.9-0.7,2.8
			C829.5,192.5,841,185.4,853.4,180.3z"/>
		<path class="st0" d="M946.3,160.4l-1.9,16.5c4.1,1.3,8.2,2.9,12.2,4.7l2.4-20.9c16.2-3.1,26.8-18.8,23.6-35s-18.8-26.8-35-23.6
			c-16.2,3.1-26.8,18.8-23.6,35C926.2,148.6,935,157.7,946.3,160.4z M953.3,114.2c9.5,0,17.2,7.7,17.2,17.2s-7.7,17.2-17.2,17.2
			c-9.5,0-17.2-7.7-17.2-17.2C936.1,121.9,943.8,114.2,953.3,114.2L953.3,114.2z"/>
		<path class="st0" d="M767,387.1c-9.5,0-17.2-7.7-17.2-17.2c0-8.1,5.7-15.2,13.7-16.8l-41.5-98.3c-8.7,3.9-18.8,0.1-22.8-8.6
			c-3.9-8.7-0.1-18.8,8.6-22.8c0.3-0.1,0.5-0.2,0.8-0.3l-4.9-11.6c-8.6,3.5-15.1,10.9-17.6,19.9l-58.3-13.7l-5,11.8l62.7,14.8
			c2.5,14.3,14.9,24.7,29.4,24.7c0.8,0,1.6,0,2.3-0.1l33.3,76.2c-6.8,4.5-11.4,11.6-12.9,19.6l-27.4,5.8l4.9,11.9l23.1-4.9
			c2.2,8.1,7.7,15,15.1,18.9h27.5c0.3-0.1,0.5-0.3,0.8-0.4l-5-11.8C773.7,386.1,770.4,387.1,767,387.1z"/>
		<path class="st0" d="M728.4,228.7c1.8,2.3,3,5.1,3.4,8l7.9,18.8c3.2-4.8,4.9-10.5,4.9-16.3c0-0.1,0-0.1,0-0.1l53.8-13.3
			c3.7-5.7,7.9-11.1,12.6-16.1l-69.1,17.1c-4-8.7-12-15-21.4-16.8L728.4,228.7z"/>
		<path class="st0" d="M1068.9,172.9c-2.4-9.2,3.1-18.6,12.3-21c9.2-2.4,18.6,3.1,21,12.3c0.7,2.5,0.7,5.1,0.2,7.7
			c4.3,0.3,8.5,0.7,12.6,1.3c2.6-16.3-8.6-31.6-24.8-34.1c-16.3-2.6-31.6,8.6-34.1,24.8c-0.6,3.9-0.5,7.8,0.5,11.6
			C1060.6,174.4,1064.7,173.5,1068.9,172.9z"/>
		<path class="st0" d="M208.2,284c0.5,2.6,1.2,5.1,2.4,7.5v-25.2c-0.7,1.5-1.3,3.2-1.8,4.8l-56.3-13.7v13L208.2,284z"/>
		<path class="st0" d="M822.3,221.3c7.7,14.5,25.7,20.1,40.3,12.4c3.8-2,7.1-4.8,9.7-8.2l44.5,15.3c2,0.5,3.9,1.2,5.8,2l13.6,4.7
			l-0.4,3.7c4.2,3.5,8,7.5,11.4,11.8l1.3-11.3l9.3,3.2l12-9.3l-19.8-6.8l4.7-40.1c-3.9-2-8-3.8-12.1-5.3l-4.8,41.2L877.8,214
			c1.9-8,0.3-16.5-4.3-23.4c-4.4,1.1-8.7,2.5-12.9,4.2c6.9,6.6,7.1,17.4,0.5,24.3c-6.6,6.9-17.4,7.1-24.3,0.5
			c-2.2-2.1-3.9-4.9-4.7-7.9c-2.3,1.9-4.6,4-6.7,6.1C824.4,219.1,823.3,220.2,822.3,221.3z"/>
		<path class="st0" d="M936.2,313.2l5.8-6.9l2.4-20.7l-0.1,0.1l-10-12.6c-0.3-0.4-0.7-0.9-1.1-1.3l-5.9,50.7
			c0.2-0.2,0.4-0.3,0.5-0.5C930.9,319.2,933.6,316.3,936.2,313.2z"/>
		<path class="st0" d="M1062.8,345.8c-10.4-4.1-20.2-9.7-29.1-16.6l55.2,70.5c2.4,0.1,4.9,0.2,7.4,0.2c2.9,0,5.8-0.1,8.6-0.3
			L1062.8,345.8z"/>
		<path class="st0" d="M1022,314.3l1.9-2.3c-0.3-0.2-0.5-0.4-0.8-0.5c-3.2-2.2-6.3-4.7-9.1-7.4L1022,314.3z"/>
		<path class="st0" d="M1120.5,190.5c-10.3-1.9-20.7-2.9-31.2-2.8c-10.8-0.1-21.5,1.4-31.8,4.4L1015,241c-1.2-0.7-2.4-1.4-3.7-2
			c-0.9,4.5-1.4,9.1-1.4,13.8c7,5.5,8.7,15.4,3.8,22.9c0.6,1.6,1.4,3.1,2.2,4.6c1.4,2.4,2.9,4.8,4.7,7c1.4-1.4,2.6-3,3.7-4.6
			l94.8,27.5c-0.1,0.9-0.1,1.8-0.1,2.8c0,16.5,13.4,29.9,29.8,29.9c14.1,0,26.2-9.8,29.2-23.5c-0.8-3.9-2.1-7.7-3.9-11.3
			c-3.6-7-8.8-13.1-15.2-17.7c-3.7-2.7-7.6-5-11.6-7.1c-10.1,0.6-19.2,6.2-24.2,15l-94.1-27.3c0.2-1.5,0.3-2.9,0.3-4.4
			c0-5.9-1.7-11.7-5-16.6l47.6-54.8c10.1,5.3,22.4,4.4,31.5-2.4l54.7,44.9l7.3-10.4L1120.5,190.5z M1148.8,295.7
			c9.5,0,17.2,7.7,17.2,17.2c0,9.5-7.7,17.2-17.2,17.2c-9.5,0-17.2-7.7-17.2-17.2v0C1131.6,303.4,1139.3,295.7,1148.8,295.7z"/>
		<path class="st0" d="M928.8,341.7c-1.3,0.8-2.5,1.5-3.9,2.1l-6.4,55c-1.2,0.2-2.5,0.6-3.7,1c5.5-0.5,10.9-1.5,16.3-2.8
			c0.1,0,0.2-0.1,0.3-0.1l7.3-62.9C935.7,336.9,932.4,339.5,928.8,341.7z"/>
		<path class="st0" d="M999.3,296.2c2.4,0,4.8-0.3,7.1-0.9c-1.7-2.3-3.2-4.6-4.6-7.1c-0.8-1.5-1.6-3.1-2.3-4.7c0,0-0.1,0-0.1,0
			c-9.5,0-17.2-7.7-17.2-17.2c0-7.4,4.7-13.9,11.6-16.3c0-0.9,0.1-1.9,0.1-2.8l-24.4,18.9c0,0,0,0.1,0,0.1
			C969.4,282.8,982.8,296.2,999.3,296.2z"/>
		<path class="st0" d="M226.8,265.5c7.4-6,18.2-4.9,24.2,2.5c6,7.4,4.9,18.2-2.5,24.2c-6.3,5.1-15.4,5.1-21.7,0v13c0,0.5,0,1,0,1.5
			c1.2,0.5,2.4,0.9,3.6,1.2l-1.8,12.1c0.7,2.6,2,5,3.9,7.1c2,2.1,4.5,3.7,7.2,4.5l3.4-23.3c16.2-3,26.8-18.6,23.8-34.8
			c-1.3-6.8-4.9-12.9-10.1-17.3l12.6-17.7v-21.8l-23.9,33.5c-6.2-1.7-12.8-1.4-18.7,1L226.8,265.5L226.8,265.5z"/>
		<path class="st0" d="M400.4,406.7c-0.3-0.1-0.7-0.2-1-0.4c-8,5-18.6,2.6-23.6-5.4c-1.3-2.1-2.1-4.4-2.5-6.8
			c-4.2-2.5-8.3-5.2-12.2-8.2c0,0.2-0.1,0.3-0.1,0.5l-37.2,7c-9.4,7.5-20.2,13.2-31.7,16.7c-13.4,4.2-28.4,6.3-44.6,6.3
			c-10.9,0.1-21.9-1-32.6-3.2l-0.4,2.8c-15.8-4.7-32.5,4.3-37.2,20.1c-4.7,15.8,4.3,32.5,20.1,37.2s32.5-4.3,37.2-20.1
			c3-10.1,0.5-21.1-6.7-28.9l133.5-25.2c4.1,16,20.4,25.6,36.3,21.5c6.2-1.6,11.7-5.1,15.7-10C409,409.5,404.7,408.2,400.4,406.7z
			 M206,461.9c-9.5,0-17.2-7.7-17.2-17.2c0-9.5,7.7-17.2,17.2-17.2s17.2,7.7,17.2,17.2c0,0,0,0,0,0
			C223.2,454.2,215.5,461.9,206,461.9z"/>
		<path class="st0" d="M136.3,253.5L72.8,238c-2.8-16.2-18.2-27.1-34.5-24.3c-16.2,2.8-27.1,18.2-24.3,34.5
			c2.8,16.2,18.2,27.1,34.5,24.3c11.4-2,20.7-10.4,23.7-21.6l64.1,15.6V253.5z M43.4,260.3c-9.5,0-17.2-7.7-17.2-17.2
			c0-9.5,7.7-17.2,17.2-17.2c9.5,0,17.2,7.7,17.2,17.2c0,0,0,0,0,0C60.6,252.6,52.9,260.3,43.4,260.3L43.4,260.3z"/>
		<path class="st0" d="M341.2,174.9c9.9-13.2,7.3-31.9-5.9-41.8s-31.9-7.3-41.8,5.9c-8,10.6-8,25.3,0,35.9H341.2z M317.3,139.8
			c9.5,0,17.2,7.7,17.2,17.2c0,9.5-7.7,17.2-17.2,17.2c-3.4,0-6.7-1-9.6-2.9l-0.4-0.3c-7.8-5.5-9.6-16.2-4.2-24
			C306.5,142.6,311.7,139.8,317.3,139.8z"/>
		<path class="st0" d="M584,412.6c-6,7.3-16.9,8.3-24.2,2.3c-0.8-0.7-1.6-1.5-2.3-2.3H543c6,15.3,23.4,22.8,38.7,16.8
			c7.7-3,13.8-9.1,16.8-16.8H584z"/>
		<path class="st0" d="M935.2,412.7c-0.8,0.2-1.6,0.4-2.4,0.6c8.2,4.7,11.1,15.3,6.3,23.5s-15.3,11.1-23.5,6.3
			c-8.2-4.7-11.1-15.3-6.3-23.5c0.7-1.2,1.5-2.3,2.4-3.3c-3.6,0.2-7.4,0.4-11.2,0.4c-1.3,0-2.6,0-3.8-0.1c-0.4,0.9-0.7,1.8-1,2.8
			l-9.1-3.5c-11.5-1.2-22.8-4-33.5-8.4c-9-3.7-17.5-8.4-25.3-14.1l-33-12.6c6.1-15.3-1.4-32.6-16.7-38.7c-0.6-0.2-1.3-0.5-1.9-0.7
			l20.5,48.6l2.6,6.1l95.4,36.4c2.4,16.3,17.6,27.5,33.9,25.1c16.3-2.4,27.5-17.6,25.1-33.9c-0.8-5.4-3.1-10.5-6.6-14.8
			C943.2,410.4,939.3,411.6,935.2,412.7z"/>
		<path class="st0" d="M1285.7,301c-7.7,0-15.1,3-20.7,8.3l-87.3-71.8l-7.3,10.4l87.5,72c-6.1,15.3,1.5,32.7,16.8,38.7
			s32.7-1.5,38.7-16.8c6.1-15.3-1.5-32.7-16.8-38.7C1293.2,301.7,1289.5,301,1285.7,301z M1285.7,348c-9.5,0-17.2-7.7-17.2-17.2
			s7.7-17.2,17.2-17.2c9.5,0,17.2,7.7,17.2,17.2c0,0,0,0,0,0C1302.9,340.3,1295.2,348,1285.7,348z"/>
		<path class="st0" d="M406.3,179.5c1.2-9.4,9.8-16.1,19.2-14.9c4.9,0.6,9.4,3.4,12.2,7.5c4.3-0.4,8.7-0.6,13.3-0.6
			c0.1,0,0.3,0,0.4,0c-5.5-15.5-22.6-23.6-38.1-18.1c-13.3,4.8-21.5,18.2-19.5,32.2C397.8,183.2,402,181.2,406.3,179.5z"/>
		<path class="st0" d="M1152.7,403.8c-4.6,2.4-9.3,4.4-14.2,6c9,3.1,13.7,12.9,10.6,21.9c-3.1,9-12.9,13.7-21.9,10.6
			c-9-3.1-13.7-12.9-10.6-21.9c0.8-2.3,2.1-4.4,3.7-6.2c-6.1,1-12.3,1.6-18.5,1.8l2.1,2.7c-4,16,5.6,32.2,21.6,36.3
			s32.2-5.6,36.3-21.6C1164.4,422.6,1161,411.2,1152.7,403.8z"/>
		<path class="st0" d="M499.4,278.9c-1-0.4-2-0.8-3.1-1.2c-5.7-2.1-11.9-4-18.5-5.7l4.5,7.9l-31.1,38.8c5.3,1.2,9.7,2.4,13.4,3.5
			l24.5-30.5l42.8,75.1c1.1-1.8,2.2-3.7,3.1-5.6c1.3-2.8,2.5-5.6,3.3-8.6l-40.7-71.5L499.4,278.9z"/>
		<path class="st0" d="M507,255.4l28.4-40.3c-0.2-0.2-0.4-0.3-0.6-0.5l-31,38.6C504.9,253.9,505.9,254.6,507,255.4z"/>
		<path class="st0" d="M415.9,210.5l-18.3,90c3.7,2.3,7.7,4.3,11.7,6l19.4-95.4c4.2-0.7,8.2-2.4,11.7-4.8l16.7,29.3
			c5.6,0.6,11.1,1.7,16.4,3.3l-24.1-42.4c1.3-2.2,2.3-4.6,2.9-7.1l70.2,16.5c-7.7-4.7-15.9-8.5-24.4-11.3
			c-13.8-4.6-29.5-6.9-47.1-6.9c-4,0-7.9,0.2-11.7,0.5c-3.6,8.8-13.6,13-22.4,9.4c-1.7-0.7-3.3-1.7-4.8-2.9c-4.1,1.7-8,3.7-11.7,6
			C404.4,205.4,409.8,208.9,415.9,210.5z"/>
		<path class="st0" d="M537.6,196.5c2.7,1.9,5.4,3.9,8,6l11.8,9.6l-1.3,1.8L591,222l-11.7,68.7l21.5-50.9l2.5-14.8l3.4,0.8l5-11.8
			l-6.3-1.5l7.8-45.4c16.2-3,27-18.6,24-34.8c-3-16.2-18.6-27-34.8-24c-16.2,3-27,18.6-24,34.8c0.7,4.1,2.3,7.9,4.6,11.3l-35.6,44.4
			L537.6,196.5z M607.8,120.5c9.5,0,17.2,7.7,17.2,17.2s-7.7,17.2-17.2,17.2s-17.2-7.7-17.2-17.2c0,0,0,0,0,0
			C590.6,128.2,598.3,120.5,607.8,120.5z M592.2,163.2c2.5,1.6,5.3,2.7,8.2,3.5l-7.3,42.9l-32-7.5L592.2,163.2z"/>
		<polygon class="st0" points="303.1,191.2 287.6,191.2 285.6,193.9 285.6,215.7 		"/>
		<path class="st0" d="M453.6,336L453.6,336c-2.4-0.6-5.2-1.3-8.2-2l-0.1,0l-0.1,0c-1.8-0.4-3.5-0.8-5.3-1.3l-0.7,0.9
			C444,334.8,448.8,335.6,453.6,336z"/>
		<polygon class="st0" points="694.9,376 684.6,376 633.2,386.9 627.6,401 698.9,385.9 		"/>
		<path class="st0" d="M237.3,347.7c-4.3-1-8.4-2.9-12-5.4l-8.1,54.9c4.1,0.9,8.3,1.6,12.5,2.1L237.3,347.7z"/>
	</g>
</g>
</svg>
