<svg xmlns="http://www.w3.org/2000/svg" width="56" height="747" viewBox="0 0 56 747"><defs><style>.cls-1{fill:#fff;}</style></defs><title>zig</title><g id="Layer_2" data-name="Layer 2"><g id="Layer_1-2" data-name="Layer 1"><polygon class="cls-1" points="56 747 36 727.334 56 707.668 36 688.005 56 668.343 36 648.68 56 629.018 36 609.358 56 589.699 36 570.042 56 550.381 36 530.723 56 511.068 36 491.409 56 471.749 36 452.091 56 432.43 36 412.772 56 393.114 36 373.457 56 353.8 36 334.143 56 314.484 36 294.826 56 275.171 36 255.514 56 235.857 36 216.203 56 196.544 36 176.891 56 157.232 36 137.579 56 117.922 36 98.269 56 78.615 36 58.96 56 39.308 36 19.653 56 0 0 0 0 747 56 747"/></g></g></svg>