<svg xmlns="http://www.w3.org/2000/svg" viewBox="0 0 76.1 97.65"><defs><style>.cls-1{fill:#005ab4}.cls-2{fill:#fff}.cls-3{fill:#fedf01}</style></defs><g id="Layer_2" data-name="Layer 2"><g id="Layer_1-2" data-name="Layer 1"><g id="Layer_2-2" data-name="Layer 2-2"><g id="One_line_cmyk_positive" data-name="One line cmyk positive"><g id="Layer_2-2-2" data-name="Layer 2-2-2"><path class="cls-1" d="M37.66 96.69a90.13 90.13 0 0 1-31.34-5.6A7.92 7.92 0 0 1 1 83V1h74v82.12a7.89 7.89 0 0 1-5.29 8.06 90.07 90.07 0 0 1-31.1 5.52z"/><path class="cls-2" d="M74.08 2v81.12a6.92 6.92 0 0 1-4.62 7.11 89.37 89.37 0 0 1-30.77 5.46h-1a89.42 89.42 0 0 1-31-5.54A6.92 6.92 0 0 1 2 83V2h72m2-2H0v83a8.92 8.92 0 0 0 6 9 91.07 91.07 0 0 0 31.65 5.65h1a91.08 91.08 0 0 0 31.46-5.59A8.91 8.91 0 0 0 76.08 83V0z"/><path class="cls-3" d="M22.13 52c-9.54-6-12.68-8.6-12.95-12.5a9.33 9.33 0 0 1 .46-3.08l-1-.59a7.9 7.9 0 0 0-1.16 4 9.49 9.49 0 0 0 1.62 5.41 22.42 22.42 0 0 0 6.22 6A23.69 23.69 0 0 1 23 60.76h.54v-4c5.06 2.87 9.52 5.57 11.71 10.41h.54C35 62.16 32.22 58.32 22.13 52zM66 67.19h-.65c0-3.57-3.27-4.54-6.71-4.54H47.88a17.87 17.87 0 0 1 .24 5.76h-.54c-1-8.11-5.41-12-11.82-16.22v3.65h-.54A27 27 0 0 0 26.35 46l-2.84-2v3.92H23a27 27 0 0 0-8.11-10.25 21.93 21.93 0 0 1-6.52-8.54 12.09 12.09 0 0 1-.78-4.52A7.79 7.79 0 0 1 11 17.79v1.6a7.49 7.49 0 0 0-1.46 4.49 10 10 0 0 0 1.11 4.6c2.35 4.43 10.21 9.84 15.19 13.11C41.33 52 44.41 53.81 47 59.32a13.71 13.71 0 0 1 .81 2.41L59.7 60l1.19-.14a11.76 11.76 0 0 0 3.46-3.41l-6-.46a18.23 18.23 0 0 1-.89 1.7H57q.24-.92.43-1.78h-1.5v-.32l1.65-.19a29.47 29.47 0 0 0 .42-4.81l-7.49-.43v2.16H50a22.37 22.37 0 0 1-.38-2.22H48v-.49h1.57a33.88 33.88 0 0 1-.16-5.41L45 43.71a9.06 9.06 0 0 1 .57 1.19 14.41 14.41 0 0 1 .4 7.18h-.5a15.87 15.87 0 0 0-1.16-4.89 20.52 20.52 0 0 0-8.49-8.3v3.65h-.54c-1.51-4.79-5.41-7.46-10.82-10.33a9 9 0 0 1-5.84-9.76l1.57.92a6.89 6.89 0 0 0 6.92 6.52 29.07 29.07 0 0 0 5.57-.62 13.52 13.52 0 0 1 6.98-.27v-2.45h-1.57a5.41 5.41 0 0 1-3.35 1 4.92 4.92 0 0 1-5.38-4.41v-.46c0-3.35 2.7-3.89 5.14-3.89h4a1.73 1.73 0 0 0 1.16-.35 1.43 1.43 0 0 0 .41-.87 9.17 9.17 0 0 0 0-1.57v-2.37H29.19v4.14l-4.06-1.54v-1h2v-1.71h-6.94V10h-2.46a2.89 2.89 0 0 0-2.95 2.7c0 1.7.68 3.16 2.43 3.16h.32v2.05h-.32a5.41 5.41 0 0 1-5.41-5.41 5.81 5.81 0 0 1 6-5.65H23v3.52h20.36v7.9a3.19 3.19 0 0 1-1.27 2.3 5.06 5.06 0 0 1-3.06.68h-3.65c-2.33-.14-3 .76-3.06 1.57a2.14 2.14 0 0 0 0 .51 4.68 4.68 0 0 1 4.35-.89c3.06 1 4 1 5.41-.22l.16.35a3.92 3.92 0 0 1-.92 1h1.5v8.11l4.6-2.68h12.92l6.35 3.33A2.08 2.08 0 0 1 67.91 34a3.06 3.06 0 0 1-.35 1.92L65.1 40a13.9 13.9 0 0 1-.78 19.6q-.39.36-.81.69A7.11 7.11 0 0 1 67.32 63zM37.22 23.93a3.7 3.7 0 0 0-3.87.81 3.7 3.7 0 0 0 1.87.32 2.7 2.7 0 0 0 2-1zm-1.08 11.68l5.11-3.06a7.76 7.76 0 0 0-3.43-.84 44 44 0 0 0-6.19 1zm22.86.32l.7-1-1.11-1.46.19-.32 3.08 1.68-.68 2a13.11 13.11 0 0 1 1.57 1l2-3.27-5.16-2.7H48.17l-9.27 5.57a24.58 24.58 0 0 1 4.49 3.84 13.9 13.9 0 0 1 11.19-6 14.36 14.36 0 0 1 4.41.62zm-.92 13a26.63 26.63 0 0 0-.57-4.62L51.44 44a37.85 37.85 0 0 0-.81 5.41zM60 44.34a22.12 22.12 0 0 1 0 4.38l6-.32a11.63 11.63 0 0 0-1.14-3.84zm-3.06-2A21.33 21.33 0 0 0 55.18 38h-.59a11.33 11.33 0 0 0-1.24 0 37.64 37.64 0 0 0-1.51 4.6zm1.65-3.62a25.93 25.93 0 0 1 1 3.49l3.7-.21a11.71 11.71 0 0 0-4.57-3.3zm6.81 15.44a9.79 9.79 0 0 0 .78-3.3L60 50.53A21.47 21.47 0 0 1 58.78 55zM50 39a11.17 11.17 0 0 0-4.81 4l4.27-.22a27.9 27.9 0 0 1 .63-3.78z"/><path class="cls-2" d="M42.17 76.38a3.84 3.84 0 0 0 3.41-3.68c0-1.84-.78-3.87-6.22-3.87h-9.11V69a2.7 2.7 0 0 1 1 .59 3.76 3.76 0 0 1 .87 2.7V86h7.57c4.16 0 7.19-1.6 7.19-5.25a4.41 4.41 0 0 0-4.45-4.36zm-3.81-5.92c2 0 3.24.41 3.24 2.49s-1.76 2.7-3.79 2.7h-1.72v-5.4zm0 13.82h-2.44v-6.9h2.43c3.22 0 4.43.95 4.43 3.35s-1.78 3.55-4.42 3.55zM23.46 86h4.95l-6.27-8.08c2.54-.68 4.43-2.05 4.43-4.57 0-2.95-1.76-4.52-6.38-4.52h-9.6V69a2.92 2.92 0 0 1 1 .59 4.06 4.06 0 0 1 .87 3v13.53h3.95v-7.71h1.46zM16.4 70.46h2.7c2.22 0 3.38.65 3.38 3s-1.48 3.36-3.94 3.36H16.4zm46.48.73a3.27 3.27 0 0 1 1.38 1.41h.16l1-2.89A9.52 9.52 0 0 0 60 68.57c-5.57 0-9.76 2.7-9.76 8.95 0 6.92 5 8.73 9.36 8.73A9.49 9.49 0 0 0 65.26 85v-2a6.84 6.84 0 0 1-4.54 1.35 6.08 6.08 0 0 1-6.38-6.87c0-5.27 2.22-7 5.41-7a5.87 5.87 0 0 1 3.13.71z"/></g></g></g></g></g></svg>