<svg id="Layer_1" data-name="Layer 1" xmlns="http://www.w3.org/2000/svg" viewBox="0 0 370.51289 74.68058">
  <defs>
    <style>
      .cls-1 {
        fill: #010101;
      }
    </style>
  </defs>
  <title>bloomberg</title>
  <g>
    <path class="cls-1" d="M3546.38308,4215.6h8.05235c7.3595,0,10.60267,2.32555,10.60267,7.04951,0,4.10521-3.24317,6.89266-9.753,6.89266h-8.902V4215.6Zm-9.753,46.4492h19.73566c10.37172,0,20.74344-3.70507,20.74344-15.63168a13.03548,13.03548,0,0,0-11.83028-13.24438v-0.163c5.63541-1.68828,9.522-5.79226,9.522-11.98713,0-9.98886-8.52536-13.77915-16.80866-13.77915H3536.6301v54.80537Zm9.753-24.15087h9.36394c7.89426,0,11.6228,2.01556,11.6228,7.74853,0,7.18907-6.98282,8.04617-12.01183,8.04617h-8.97491v-15.7947Z" transform="translate(-3536.6301 -4205.95074)"/>
    <rect class="cls-1" x="46.87659" width="9.26267" height="56.09825"/>
    <path class="cls-1" d="M3608.275,4243.4732c0-5.80584,4.10522-11.14237,10.91884-11.14237s10.90649,5.33777,10.90649,11.14237-4.09287,11.14361-10.90649,11.14361c-6.81486,0-10.91884-5.33777-10.91884-11.14361m-9.29108,0c0,11.68949,8.97491,19.49977,20.20991,19.49977,11.22141,0,20.20991-7.809,20.20991-19.49977s-8.98726-19.51089-20.20991-19.51089c-11.235-.00123-20.20991,7.8214-20.20991,19.51089" transform="translate(-3536.6301 -4205.95074)"/>
    <path class="cls-1" d="M3652.884,4243.4732c0-5.80584,4.10521-11.14237,10.91884-11.14237s10.90649,5.33777,10.90649,11.14237-4.09287,11.14361-10.90649,11.14361-10.91884-5.33777-10.91884-11.14361m-9.29107,0c0,11.68949,8.97614,19.49977,20.20991,19.49977,11.22141,0,20.20991-7.809,20.20991-19.49977s-8.98726-19.51089-20.20991-19.51089c-11.235-.00123-20.20991,7.8214-20.20991,19.51089" transform="translate(-3536.6301 -4205.95074)"/>
    <path class="cls-1" d="M3689.67164,4224.891h8.82918v5.812h0.14573c1.62775-3.48523,5.18587-6.74693,11.3795-6.74693,5.733,0,9.69247,2.24033,11.62279,6.89266,2.7084-4.71285,6.65555-6.89266,12.21809-6.89266,9.90982,0,13.39752,7.05568,13.39752,15.959v22.13531h-9.29107v-21.05467c0-4.64-1.38446-8.66615-6.88649-8.66615-5.8046,0-7.97948,4.79683-7.97948,9.58872v20.13086h-9.27873v-22.13531c0-4.57946-1.85872-7.58427-6.35173-7.58427-6.10966,0-8.51424,4.47572-8.51424,9.43681v20.28278h-9.29108V4224.891Z" transform="translate(-3536.6301 -4205.95074)"/>
    <path class="cls-1" d="M3785.607,4243.4732c0,5.812-4.09286,11.14361-10.91884,11.14361-6.81486,0-10.91884-5.33159-10.91884-11.14361,0-5.80584,4.104-11.156,10.91884-11.156,6.826,0,10.91884,5.35012,10.91884,11.156m-30.81259,18.576h8.82918v-5.57h0.14573c2.71951,4.47572,7.59044,6.49251,12.78743,6.49251,11.44124,0,18.34009-8.51425,18.34009-19.49977,0-10.9917-7.3595-19.51089-17.96218-19.51089-6.96059,0-10.68789,3.24317-12.61946,5.66011h-0.23094v-23.67045h-9.29107v56.09843h0.00122Z" transform="translate(-3536.6301 -4205.95074)"/>
    <path class="cls-1" d="M3808.39065,4239.757c0.69285-5.35012,4.10522-8.82918,9.59489-8.82918,5.80585,0,9.36394,3.40743,9.44916,8.82918h-19.044Zm28.33514,6.96553v-2.55032c0-12.93439-7.04334-20.20991-17.41629-20.20991-11.24612,0-20.20991,7.8214-20.20991,19.51089s8.96379,19.49977,20.20991,19.49977a19.35136,19.35136,0,0,0,15.70331-7.42125l-6.65553-5.0216a12.24626,12.24626,0,0,1-9.98392,5.0216,9.62007,9.62007,0,0,1-9.98268-8.82918h28.33512Z" transform="translate(-3536.6301 -4205.95074)"/>
    <path class="cls-1" d="M3842.77368,4224.891h9.29107v5.88488h0.15809a11.85427,11.85427,0,0,1,14.31762-6.26774v8.97615a18.81763,18.81763,0,0,0-4.49426-.69285c-8.74394,0-9.9827,7.3595-9.9827,9.37629v19.88263h-9.29107V4224.891h0.00124Z" transform="translate(-3536.6301 -4205.95074)"/>
    <path class="cls-1" d="M3887.32342,4232.32959c6.7284,0,10.99045,4.47572,10.99045,10.9176,0,6.18252-4.17808,10.90648-11.06459,10.90648a10.72852,10.72852,0,0,1-10.91884-10.76075c0-6.58761,4.48193-11.06333,10.993-11.06333m10.99045-7.43854v5.57489h-0.14575c-2.71951-4.49425-7.60156-6.5098-12.78743-6.5098-11.45238,0-18.34009,8.51919-18.34009,19.51706,0,10.51745,7.35952,19.03787,18.49816,19.03787,4.65108,0,9.44792-1.77349,12.16992-5.41064h0.13214v2.71458c0,7.34715-2.76893,12.46138-11.7562,12.46138-5.18587,0-9.06137-1.94393-12.77755-5.36864l-5.56254,7.60156c5.24636,4.66345,11.52523,6.122,18.42407,6.122,14.47816,0,20.97439-8.52536,20.97439-21.91054V4224.891h-8.82912Z" transform="translate(-3536.6301 -4205.95074)"/>
  </g>
</svg>
