<svg id="Layer_1" data-name="Layer 1" xmlns="http://www.w3.org/2000/svg" viewBox="0 0 310.25008 94.22032">
  <defs>
    <style>
      .cls-1 {
        fill: #08958f;
      }

      .cls-2 {
        fill: #465661;
      }
    </style>
  </defs>
  <title>merck</title>
  <g>
    <path class="cls-1" d="M3088.30365,4525.7957a18.56985,18.56985,0,0,1,37.13969,0h-37.13969" transform="translate(-3069.73524 -4507.22687)"/>
    <path class="cls-1" d="M3069.73524,4544.36378a18.56849,18.56849,0,0,1,18.56841-18.56809,18.56965,18.56965,0,1,1-18.56841,18.56809" transform="translate(-3069.73524 -4507.22687)"/>
    <path class="cls-1" d="M3125.44334,4562.93343a18.56985,18.56985,0,0,1-37.13969,0h37.13969" transform="translate(-3069.73524 -4507.22687)"/>
    <path class="cls-1" d="M3125.44334,4525.7957a18.56887,18.56887,0,1,1,0,37.13774,18.56887,18.56887,0,0,1,0-37.13774" transform="translate(-3069.73524 -4507.22687)"/>
    <polyline class="cls-1" points="132.225 55.703 123.699 55.703 123.699 30.731 112.791 55.703 101.312 30.699 101.312 55.703 93.353 55.703 93.353 18.569 104.727 18.569 112.923 37.788 120.717 18.569 132.225 18.569"/>
    <polyline class="cls-1" points="142.722 18.569 157.892 18.569 157.892 25.086 144.774 25.086 144.774 33.605 157.351 33.605 157.351 39.96 144.774 39.96 144.774 49.408 157.892 49.408 157.892 55.703 136.465 55.703 136.465 18.569"/>
    <path class="cls-1" d="M3289.2133,4527.65844c-10.984-6.51066-29.62842.65466-29.62842,16.71322,0,13.82184,14.4295,24.887,29.62842,17.48382v-7.9548c-11.69909,8.19568-21.87962-.01585-21.71323-9.21351,0.11283-6.108,4.21813-11.91949,12.16416-12.37451a11.43426,11.43426,0,0,1,9.54906,3.6176v-8.27182" transform="translate(-3069.73524 -4507.22687)"/>
    <polygon class="cls-1" points="222.98 55.703 230.878 55.703 230.878 18.926 222.98 18.926 222.98 55.703 222.98 55.703"/>
    <polyline class="cls-1" points="245.406 55.703 231.68 35.758 243.501 19.008 252.724 19.008 240.794 35.788 254.463 55.703"/>
    <path class="cls-1" d="M3244.19681,4542.81024a5.44868,5.44868,0,0,0,5.5736-5.31218c0-1.50123-.32467-5.52619-6.47859-5.52619h-3.63376v10.83837h4.53875Zm-12.87844-17.01454h14.62755c8.60429,0,12.16013,6.9228,12.16013,11.15547,0,4.23574-1.64034,8.47629-6.69447,10.38814l10.90612,15.59413h-8.88187l-13.77775-19.95357v19.95357h-8.33969V4525.7957" transform="translate(-3069.73524 -4507.22687)"/>
    <path class="cls-2" d="M3288.96169,4576.882c-0.38878,0-.74021.352-1.013,1.17311-0.43176,1.40934-1.801,6.219-2.38786,8.33367a0.38988,0.38988,0,0,0,.39205.39156,9.89464,9.89464,0,0,0,3.90889-.62774,6.08268,6.08268,0,0,0,3.2117-5.20277,4.01909,4.01909,0,0,0-4.11182-4.06783m0.59251,12.28573a5.75658,5.75658,0,0,0-4.03469-1.40765,0.80435,0.80435,0,0,0-.54463.54535,73.62633,73.62633,0,0,0-2.5794,8.72231,1.84069,1.84069,0,0,0,.46587,1.91791,4.157,4.157,0,0,0,2.26855.93827,6.687,6.687,0,0,0,4.34315-2.387,7.73187,7.73187,0,0,0,1.64443-4.22465,6.087,6.087,0,0,0-1.56326-4.10449m1.327-2.11317a0.25744,0.25744,0,0,0-.07793.50414,13.23227,13.23227,0,0,1,3.5177,1.95964,5.3849,5.3849,0,0,1,1.64524,3.99008,6.898,6.898,0,0,1-4.0737,6.10117c-1.55672.81977-4.80656,1.40659-8.09133,1.40659-2.19065,0-3.3245-.19236-4.93-0.19236-0.42772,0-3.40485.15422-4.73351,0.15422a1.12073,1.12073,0,0,1-1.09247-.47075c0-.31088.31085-0.5057,1.17363-0.62338,2.61838-.31086,2.77827-0.93827,3.79122-3.60127,0.86114-2.07054,4.46244-14.15972,5.08579-16.85626,0.27432-1.135.39042-1.91818-.74182-2.11312-0.31413-.03646-1.05437-0.07931-1.685-0.15535a1.23616,1.23616,0,0,1-1.129-.58659,0.98641,0.98641,0,0,1,1.129-.50882h4.42266c0.39121,0,2.93413-.31386,4.96811-0.31386a10.43678,10.43678,0,0,1,5.279.97805,4.65058,4.65058,0,0,1,2.1955,3.87277c0,3.60013-2.97713,5.5167-6.65311,6.4551" transform="translate(-3069.73524 -4507.22687)"/>
    <path class="cls-2" d="M3303.53648,4591.90219c-0.04137.19479,0,.4675,0.23293,0.39527,3.44141-1.17854,5.20106-3.79851,5.20106-5.208,0-.74509-0.31247-1.09541-0.70043-1.09541-1.72317,0-3.952,3.16877-4.73356,5.90809m8.52559-4.30223c0,1.83723-1.56326,3.20731-3.51931,4.14719a29.14722,29.14722,0,0,1-5.04764,1.64034,0.76331,0.76331,0,0,0-.54706.62823,7.982,7.982,0,0,0-.35225,2.344c0,1.52672.89931,2.31,1.83756,2.31a6.71365,6.71365,0,0,0,4.14672-1.9561,2.13331,2.13331,0,0,1,.9407-0.58682,0.29414,0.29414,0,0,1,.27435.276,2.57044,2.57044,0,0,1-.50894,1.17123,9.84553,9.84553,0,0,1-7.23829,3.792c-1.24913,0-3.59723-1.68173-3.59723-4.53791,0-2.73525,1.87575-6.57112,3.99008-8.80169a9.89278,9.89278,0,0,1,6.29841-3.12451c2.49987,0,3.32291,1.56142,3.32291,2.69808" transform="translate(-3069.73524 -4507.22687)"/>
    <path class="cls-2" d="M3327.50693,4585.60727a4.40265,4.40265,0,0,1-.19645,2.6601c-1.01454,2.54232-2.50472,6.2962-3.0047,7.78233-0.47647,1.33273-.43748,2.50557.23051,2.50557,1.01454,0,2.88944-1.25074,4.81228-4.11019a7.39125,7.39125,0,0,0,.85953-1.75968c0.3141-1.05268.6688-2.581,1.01781-3.63778a4.02591,4.02591,0,0,1,1.09085-1.9565,4.1139,4.1139,0,0,1,2.58349-.97493c1.21584,0,.93827,1.56459.47072,3.01015a42.23074,42.23074,0,0,1-2.07455,4.22465,9.2429,9.2429,0,0,0-.73779,2.57943c-0.16479,1.33027.03654,2.81722,1.32379,2.81722a4.62925,4.62925,0,0,0,2.93737-1.603,10.54072,10.54072,0,0,0,3.04693-6.80405,6.69274,6.69274,0,0,0-.65907-2.7406,0.82886,0.82886,0,0,1,.03817-0.70388,4.99178,4.99178,0,0,1,2.93247-1.9942c0.70368,0,.97805,1.05261.97805,2.465,0,4.57665-4.9665,10.95216-8.68221,13.06246a5.9487,5.9487,0,0,1-3.28965.98127c-1.59974,0-2.46494-2.03564-1.87491-4.697,0.039-.23132-0.20128-0.31086-0.35552-0.0779a30.65163,30.65163,0,0,1-3.63456,3.28474,5.64,5.64,0,0,1-3.56068,1.44553c-1.0592,0-1.879-1.09-1.801-2.7328a13.1541,13.1541,0,0,1,.93988-3.52419c0.82626-2.15087,1.801-4.73193,2.46985-6.53134,0.15585-.27222.03653-0.42765-0.20294-0.42765a8.38717,8.38717,0,0,0-3.124,1.79607c-0.27759.19481-.43178-0.073-0.43178-0.27108a1.72888,1.72888,0,0,1,.39037-0.97966c1.09491-1.40609,4.37968-3.79346,6.45671-3.79346a1.34625,1.34625,0,0,1,1.05107.70539" transform="translate(-3069.73524 -4507.22687)"/>
    <g>
      <path class="cls-2" d="M3348.70963,4591.90219c-0.03651.19479,0,.4675,0.23459,0.39527,3.44461-1.17854,5.20426-3.79851,5.20426-5.208,0-.74509-0.31083-1.09541-0.70046-1.09541-1.72309,0-3.95352,3.16877-4.73839,5.90809m8.5272-4.30223c0,1.83723-1.56489,3.20731-3.5177,4.14719a29.13041,29.13041,0,0,1-5.046,1.64034,0.769,0.769,0,0,0-.55033.62823,8.04247,8.04247,0,0,0-.35141,2.344c0,1.52672.90174,2.31,1.83676,2.31a6.7208,6.7208,0,0,0,4.14752-1.9561,2.14086,2.14086,0,0,1,.93827-0.58682,0.29466,0.29466,0,0,1,.27759.276,2.606,2.606,0,0,1-.50892,1.17123,9.84655,9.84655,0,0,1-7.24156,3.792c-1.24913,0-3.59724-1.68173-3.59724-4.53791,0-2.73525,1.87736-6.57112,3.99494-8.80169a9.88608,9.88608,0,0,1,6.29355-3.12451c2.50636,0,3.32452,1.56142,3.32452,2.69808" transform="translate(-3069.73524 -4507.22687)"/>
      <path class="cls-2" d="M3373.83588,4574.26162c0.4326-.07921,3.59721-0.54689,4.69212-0.8195a7.05217,7.05217,0,0,1,1.13876-.2363c0.38472,0,.38472.70388,0.19154,1.21116-2.69629,7.121-7.7391,21.4769-8.52232,23.66591-0.27923.86277-.11931,1.37167,0.233,1.37167,0.82136,0,3.47789-2.97225,4.34067-3.71732a0.29633,0.29633,0,0,1,.51137.15664,4.19339,4.19339,0,0,1-.31658,1.21423,8.454,8.454,0,0,1-6.80727,4.33908,2.16492,2.16492,0,0,1-2.07217-1.72314,22.21852,22.21852,0,0,1,1.13712-3.79363c1.56326-4.456,4.18323-11.88612,6.49322-18.503,0.547-1.525.3498-1.67873-.93745-1.99269a1.05367,1.05367,0,0,1-.905-0.54689,0.97161,0.97161,0,0,1,.823-0.6262" transform="translate(-3069.73524 -4507.22687)"/>
    </g>
    <path class="cls-2" d="M3363.88989,4574.26162c0.431-.07921,3.60214-0.54689,4.69215-0.8195a7.16575,7.16575,0,0,1,1.13715-.2363c0.39119,0,.39119.70388,0.1964,1.21116-2.69468,7.121-7.74391,21.4769-8.52717,23.66591-0.27759.86277-.11444,1.37167,0.2362,1.37167,0.823,0,3.47953-2.97225,4.33745-3.71732a0.29673,0.29673,0,0,1,.51214.15664,4.244,4.244,0,0,1-.31574,1.21423,8.45289,8.45289,0,0,1-6.8073,4.33908,2.164,2.164,0,0,1-2.06888-1.72314,21.76087,21.76087,0,0,1,1.13227-3.79363c1.56321-4.456,4.18323-11.88612,6.49317-18.503,0.5503-1.525.35227-1.67873-.93664-1.99269a1.04578,1.04578,0,0,1-.90094-0.54689,0.96836,0.96836,0,0,1,.81975-0.6262" transform="translate(-3069.73524 -4507.22687)"/>
  </g>
</svg>
