<?xml version="1.0" encoding="utf-8"?>
<!-- Generator: Adobe Illustrator 23.0.0, SVG Export Plug-In . SVG Version: 6.00 Build 0)  -->
<svg version="1.1" id="Layer_3" xmlns="http://www.w3.org/2000/svg" xmlns:xlink="http://www.w3.org/1999/xlink" x="0px" y="0px"
	 viewBox="0 0 1500 500" style="enable-background:new 0 0 1500 500;" xml:space="preserve">
<style type="text/css">
	.st0{enable-background:new    ;}
	.st1{fill:#FFFFFF;}
	.st2{fill:#F1BA43;}
</style>
<g stroke="currentColor" fill="rgba(0, 0, 0, 0.05)">
	<path class="st1" d="M211.2,356.3V237.9H92.8v118.4H48.4v-274h44.4v116.8h118.4V82.3H256v274H211.2z M295.2,356.3l67.6-274h88.4l68,274h-44.8l-14.8-58.8H354.4l-14.8,58.8H295.2z M397.2,119.5l-34,138.8h87.6
		l-33.6-138.8H397.2z M646.4,360.7c-40,0-67.1-11.1-81.4-33.2c-14.3-22.1-21.4-58.5-21.4-109.2c0-50.7,7.2-86.7,21.6-108.2
		c14.4-21.5,41.5-32.2,81.2-32.2c23.7,0,49.9,3.3,78.4,10l-1.6,36c-24-4.3-48-6.4-72-6.4s-40.3,7.1-48.8,21.4
		c-8.5,14.3-12.8,41.1-12.8,80.4c0,39.3,4.1,66.1,12.4,80.4c8.3,14.3,24.4,21.4,48.4,21.4s48.3-2,72.8-6l1.2,36.8
		C696.9,357.8,670.9,360.7,646.4,360.7z M816.4,356.3H772v-274h44.4v123.6l40.8-3.2l56-120.4H964l-67.6,137.6l70.4,136.4h-51.6l-58-114.4l-40.8,2.8
		V356.3z"/>
</g>
<g class="st0">
	<path class="st2" d="M1062.4,265.1v91.2h-55.2v-272h105.6c64,0,96,29.9,96,89.6c0,35.5-13.3,61.6-40,78.4l38.8,104h-60.4
		l-31.6-91.2H1062.4z M1142.8,205.9c6.4-8,9.6-18.5,9.6-31.6c0-13.1-3.4-23.5-10.2-31.2c-6.8-7.7-16.6-11.6-29.4-11.6h-50.4v86.4
		h51.2C1126.7,217.9,1136.4,213.9,1142.8,205.9z"/>
	<path class="st2" d="M1308,265.5c0,31.7,16.1,47.6,48.4,47.6c32.3,0,48.4-15.9,48.4-47.6V84.3h55.2v180c0,33.3-8.6,57.8-25.8,73.4
		c-17.2,15.6-43.1,23.4-77.8,23.4c-34.7,0-60.6-7.8-77.8-23.4c-17.2-15.6-25.8-40.1-25.8-73.4v-180h55.2V265.5z"/>
</g>
</svg>
