<?xml version="1.0" encoding="utf-8"?>
<!-- Generator: Adobe Illustrator 21.0.0, SVG Export Plug-In . SVG Version: 6.00 Build 0)  -->
<svg version="1.1" id="Layer_1" xmlns="http://www.w3.org/2000/svg" xmlns:xlink="http://www.w3.org/1999/xlink" x="0px" y="0px"
	 viewBox="0 0 1100 700" style="enable-background:new 0 0 1100 700;" xml:space="preserve">
<g stroke="currentColor" stroke-width="7" fill="rgba(0, 0, 0, 0.05)">
	<path class="st0" d="M918.6,180.2H778v-100l-10.1-4.9c-43.8-19-90.4-30.9-138-35.3c0,0-49.4-4.9-66.1-4.9S497.7,40,497.7,40
		c-47.6,4.4-94.1,16.3-138,35.3l-10.1,4.9v100.1H199.9v0.4l-35.3,34.8h220v-0.4h358.5v0.4h210.3L918.6,180.2z M742.7,199.6H384.2
		v-96.5c39.2-15,80.3-24.7,122.1-28.7L512,74c0,0,38.4-3.1,51.6-3.1s51.6,3.1,51.6,3.1l5.7,0.4c41.9,3.5,83,13.2,122.1,28.7
		L742.7,199.6z M492.2,554.1l-19.4-23.4l25.6-25.6l23.4,19.4c6.5-4.1,13.7-7,21.2-8.8l2.6-30h36.2l2.6,30c7.5,1.9,14.6,4.8,21.2,8.8
		l23.4-19.4l25.6,25.6l-19.4,23.4c3,4.8,5.4,10,7.1,15.4c-12.3,8.4-25.1,15.9-38.4,22.5c-2.2-22.2-21.9-38.4-44.1-36.2
		c-19.2,1.9-34.4,17.1-36.2,36.2c-13.3-6.5-26.2-14.1-38.4-22.5C486.9,564.2,489.3,559,492.2,554.1z M953.9,438.3H164.6l34.8,34.8
		h149.5v14.1l0.9,3.1c1.8,5.3,49.4,129.2,208.6,173.3l4.9,1.3l4.9-1.3c159.2-44.1,206.8-168,208.6-173.3l0.9-3.1V473h141.1
		L953.9,438.3z M742.7,481c-9.7,21.3-22.5,41-37.9,58.6c-37.4,42.7-86.4,73.7-141.1,89.1c-54.8-15.1-103.9-46.1-141.1-89.1
		c-15.4-17.6-28.1-37.4-37.9-58.6v-27.3h358.5V481H742.7z M524,116.8L503.3,137l20.7,20.7h-15.9l-22-20.7l22-20.3
		C508.1,116.8,524,116.8,524,116.8z M573.4,109.3H587l-29.1,58.6h-14.6L573.4,109.3z M621.9,116.8l22,20.3l-22,20.7H606l20.7-20.7
		L606,116.8H621.9z M212.7,402h38.8l8.8-23.8h59.5l8.8,23.8h38.8L307,251.6h-34.4L212.7,402z M289.9,295.3L289.9,295.3
		c0.4,0,4.4,13.7,7.5,22l10.6,29.1h-36.2l10.6-29.1C285.9,309,289.4,295.3,289.9,295.3z M464.5,284.3c12.1,0,23.6,5.1,31.7,14.1
		l36.6-9.7c-21.3-37.4-68.9-50.4-106.3-29.1s-50.4,68.9-29.1,106.3c21.2,37.5,68.8,50.3,106.3,29.1c13.7-7.9,24.7-19.8,31.7-34
		l-36.6-9.3c-7.7,11.4-20.7,18.1-34.4,17.6c-23.4,0-40.6-16.3-40.6-42.3C424.3,301.9,439.8,284.4,464.5,284.3L464.5,284.3z
		 M613.5,251.7h-36.2V402h36.2v-49.8l12.8-12.8l45.4,62.6h42.8l-64.4-86.4l63.9-63.9h-44.1l-36.6,36.2
		c-15.4,15.4-19.4,20.3-19.8,20.3l0,0c0,0,0.4-7.5,0.4-32.2L613.5,251.7L613.5,251.7z M873.2,303.3c0-30.9-22.9-51.6-60.8-51.6h-56
		V402h36.2v-48.9H811l27.8,48.9h40.6l-33.5-55.6C863.1,339.2,874,322,873.2,303.3z M817.6,320.9h-25.1v-35.7h25.1
		c9.7,0,18.1,7.9,18.1,17.6s-7.9,18.1-17.6,18.1H817.6z M1013.8,251.7v82.9c0,26-10.6,37-30.4,37s-30.4-11-30.4-37v-82.9h-36.2v83.8
		c0,45,26.5,69.7,66.6,69.7c39.7,0,66.6-24.7,66.6-69.7v-83.8H1013.8z M178.7,402V251.7h-36.1v58.2H86.2v-58.2H50V402h36.2v-58.2
		h56.4V402H178.7z"/>
</g>
</svg>
