<?xml version="1.0" encoding="utf-8"?>
<!-- Generator: Adobe Illustrator 22.0.1, SVG Export Plug-In . SVG Version: 6.00 Build 0)  -->
<svg version="1.1" id="Layer_2" xmlns="http://www.w3.org/2000/svg" xmlns:xlink="http://www.w3.org/1999/xlink" x="0px" y="0px"
	 viewBox="0 0 800 800" style="enable-background:new 0 0 800 800;" xml:space="preserve">
<style type="text/css">
	.st0{fill:#5FFFDC;}
	.st1{fill:none;stroke:#FFFFFF;stroke-width:0.5;stroke-miterlimit:10;}
	.st2{fill:#FF80CF;stroke:#FFFFFF;stroke-width:0.75;stroke-miterlimit:10;}
</style>
<g>
	<g>
		<path class="st0" d="M359.3,312.3c-4.5,0.4-8.4-0.7-12.9-1c-6.9-0.5-14.2,1-20.7,3.1c-12,3.9-22.5,11-31.7,19.4
			c-4.1,3.7,0.4,9,4.9,8.4c7.8-1.2,15.7-2.3,23.5-3.5c-1.3-3-2.6-6.1-3.9-9.1c-36.2,15.4-62.3,45.3-76.9,81.4
			c-9.5,23.5-14.4,49.3-15.6,74.7c-1.1,24,2,48.2,8.4,71.3c1.5,5.3,10.1,4.4,9.8-1.3c-1.3-29,1.5-58,8.1-86.3
			c-3.2-0.9-6.4-1.8-9.6-2.7c-7.8,33.7-8.2,69.1,1.1,102.6c8,28.8,22.8,55.1,42.8,77.3c30.8,34.1,72.5,57.5,115.7,72
			c10.5,3.5,21.3,6.8,32.2,8.8c5.6,1,8.6-5.8,3.9-9.1c-9.9-7-19.7-13.9-29.6-20.9c-1.7,2.9-3.4,5.8-5,8.6
			c44.5,22.6,95.6,23.7,142.2,6.6c44.7-16.3,84.6-46.8,112-85.6c15.2-21.4,26.1-45.7,33.2-70.9c-3.2,0-6.4,0-9.6,0
			c5.4,16.8,3.7,34.6-4.8,50c3,1.3,6.1,2.6,9.1,3.9c11.3-33.3,15.8-68.2,15.5-103.3c-0.4-34.4-6.4-68.7-20.2-100.3
			C658,353.2,613.5,314.1,560.4,292c-43.3-17.9-91.2-21.1-136.3-8.2c1.9,2.4,3.8,4.9,5.6,7.3c8.1-12.5,19.8-22.4,33.5-28.1
			c5.2-2.2,4.5-9.3-1.3-9.8c-23.7-2.2-44.8,5.9-61.2,23.2C388.9,289.1,378.4,309.8,359.3,312.3c-6.3,0.8-6.4,10.8,0,10
			c20.4-2.6,31.3-18.8,43.7-33.3c6.8-8,14.3-15.3,23.8-20.1c10.9-5.5,23.1-6.7,35.1-5.6c-0.4-3.3-0.9-6.5-1.3-9.8
			c-16.3,6.8-29.9,17.9-39.5,32.7c-2.4,3.7,1.6,8.5,5.6,7.3c39.2-11.3,80.6-9.8,119.1,3.6c27.3,9.6,52.9,24.7,74.9,43.5
			c46,39.2,68.2,98.3,70.4,157.7c1.4,37-3,73.9-14.9,109c-1.8,5.4,6.4,8.8,9.1,3.9c9.7-17.7,12-38.4,5.8-57.7
			c-1.5-4.6-8.3-4.9-9.6,0c-12,42.6-35.6,79.9-69.2,108.7c-35.7,30.6-81.7,51.7-129.2,52.5c-25.8,0.4-51.4-5.6-74.4-17.2
			c-5.8-2.9-10.3,4.9-5,8.6c9.9,7,19.7,13.9,29.6,20.9c1.3-3,2.6-6.1,3.9-9.1c-26.3-4.8-52.2-15-75.8-27.2
			c-45.2-23.5-84.6-59.7-102.8-108.2c-13.6-36.2-14.8-75.6-6.2-113c1.4-6.3-8.2-8.9-9.6-2.7c-6.8,29.1-9.7,59-8.4,88.9
			c3.3-0.4,6.5-0.9,9.8-1.3c-8.7-31.2-10.3-63.6-5.2-95.4c4.7-29,14.6-57.8,32.8-81.2c13.6-17.5,31.5-30.9,51.9-39.6
			c5.7-2.4,1.2-9.9-3.9-9.1c-7.8,1.2-15.7,2.3-23.5,3.5c1.6,2.8,3.2,5.6,4.9,8.4c8.3-7.7,17.9-14.1,28.8-17.4
			c5.6-1.7,11.7-2.9,17.6-2.2c4,0.5,7.7,1.3,11.8,0.9C365.7,321.7,365.8,311.7,359.3,312.3z"/>
	</g>
</g>
<g>
	<g>
		<path class="st0" d="M255.7,398.7c-28.9-45.7-40.5-100.4-33.3-153.9c-1.6,1.2-3.2,2.4-4.8,3.7c54.7,3.2,102.6,31.9,138.2,72.3
			c4.3,4.8,11.3-2.3,7.1-7.1c-37.4-42.5-88-71.9-145.3-75.3c-1.9-0.1-4.5,1.6-4.8,3.7c-7.6,56.3,3.8,113.5,34.3,161.6
			C250.5,409.2,259.2,404.2,255.7,398.7L255.7,398.7z"/>
	</g>
</g>
<g>
	<g>
		<path class="st0" d="M516.1,283.2c4.1-42.9,24.9-82.6,57.2-111c-2.4,0-4.7,0-7.1,0c45.5,43.3,59.4,106.3,55.6,167.1
			c-0.4,6.4,9.6,6.4,10,0c2.9-46.1-3.8-94.1-27.2-134.6c-8.5-14.6-19.1-27.9-31.3-39.6c-2-2-5-1.8-7.1,0
			c-34.4,30.2-55.8,72.5-60.1,118C505.5,289.6,515.5,289.5,516.1,283.2L516.1,283.2z"/>
	</g>
</g>
<g>
	<g>
		<path class="st0" d="M256.5,593.1c-11.2,8.5-24.3,13.8-38.6,12.7c-11.6-0.9-22.4-6.1-31.8-12.6c-14.1-9.8-26-23.4-35.2-37.8
			c-24.7-38.9-9.8-91.5,8.4-129.8c16.4-34.5,39.2-65.6,65-93.7c4.3-4.7-2.7-11.8-7.1-7.1c-24.4,26.6-46.3,55.9-62.7,88.1
			c-13.3,26.1-23.6,54.4-25.8,83.8c-1.6,21.4,1.6,44,12.9,62.6c9.2,15.2,21.6,29.1,35.7,39.8c11,8.4,23.7,14.7,37.6,16.4
			c16.8,2.1,33.3-3.6,46.6-13.8C266.6,597.9,261.6,589.2,256.5,593.1L256.5,593.1z"/>
	</g>
</g>
<g>
	<g>
		<path class="st0" d="M287.8,263.5c18.1-18.6,28.7-42.9,20.8-68.6c-8-25.9-29.4-45.9-52.2-59.2c-16.7-9.7-35.1-16.4-53.9-20.6
			c0,3.2,0,6.4,0,9.6c10.9-3.2,22.1-4.1,32.9-0.3c4.1,1.4,15.3,9.3,17.5,1.2c1.3-4.8-4.6-8.9-7.6-11.6c-6.1-5.3-12.5-10.2-19.1-14.9
			c-19.7-14.1-41.7-22.3-65.7-25.3c-22.3-2.8-44.8-1-66.8,3.1c-2.6,0.5-4.3,3.7-3.5,6.2c12.7,39.4,48.2,65,86.5,76.5
			c11.6,3.5,23.6,5.5,35.7,6.3c4.8,0.3,7-7.2,2.5-9.3c-9-4.3-15.4-12.7-12.5-23c-2.1,1.2-4.1,2.3-6.2,3.5c12.8,3.5,25.4,8,37.6,13.2
			c11.6,4.9,22.7,11.2,31.3,20.6c6.8,7.4,12.6,16.1,15.1,26c3,11.9,0.1,24.1-6.6,34.2c-4.1,6.1-9.6,11.6-15.7,15.8
			c-5.3,3.6-0.3,12.2,5,8.6c16.9-11.3,29.6-30.6,28.4-51.5c-1.6-26-22.5-47.7-44.7-58.7c-15.1-7.5-31.4-13.3-47.6-17.7
			c-2.6-0.7-5.4,0.9-6.2,3.5c-4.1,14.4,4,28.2,17.1,34.3c0.8-3.1,1.7-6.2,2.5-9.3c-46.4-3-97.5-28.7-112.6-75.5
			c-1.2,2.1-2.3,4.1-3.5,6.2c41.7-7.9,86.1-5.5,121.8,19.1c5.8,4,11.4,8.3,16.9,12.8c2.1,1.7,4.1,3.5,6.1,5.3
			c0.7,0.6,1.4,1.6,2.1,2.1c0.2,0.1,0.6,0.4,0.3,0.3c0.2,0.1-1.4,1.5-0.3-3.2c0.8-1,1.5-2,2.3-3c-0.1,0-0.1,0.1-0.2,0.1
			c1.3-0.2,2.6-0.3,3.9-0.5c-2.3-0.4-5.2-2.3-7.5-3.3c-4.6-1.9-9.2-3.2-14.1-3.8c-9.4-1.2-18.8,0-27.8,2.7c-4.5,1.3-5,8.5,0,9.6
			c28.4,6.3,56.5,18.5,77.5,39.1c14.4,14.2,26.5,34.2,23.8,55.3c-1.8,14.4-10.4,27-20.3,37.2C276.2,261,283.3,268.1,287.8,263.5
			L287.8,263.5z"/>
	</g>
</g>
<g>
	<g>
		<path class="st0" d="M213,297.6c-53,41.9-95.7,101-106.7,168.5c-2.9,18-5,36.1-3,54.3c1.7,16,6.2,31.3,12.8,46
			c10.9,23.9,27.9,45.6,50.3,59.7c34.2,21.4,77,21.4,113.2,5.1c5.9-2.6,0.8-11.3-5-8.6c-30.3,13.7-66.4,14.6-96.1-1.1
			c-23.3-12.3-40.7-33.1-52-56.6c-5.4-11.1-9.7-23.4-12-36.5c-3.2-17.9-2.1-36.3,0.7-54.2c5.4-35.3,17.8-68,37.9-97.7
			c18.3-27.1,41.5-51.7,67.1-71.9C225.1,300.7,218,293.7,213,297.6L213,297.6z"/>
	</g>
</g>
<g>
	<path class="st0" d="M345,496.4c5.4-19.6,17.2-50.3,44.3-76.5c72.2-69.7,182-39.3,188.7-37.4c4.8,0.7,11,2.4,16.5,7
		c18.9,15.6,12.2,50.9,10.4,57.4C589.7,504.5,374.5,497.5,345,496.4z"/>
	<g>
		<path class="st0" d="M348.7,497.4c8.3-30,24.1-57.6,47.3-78.5c22-19.8,49.6-32,78.5-37.4c23-4.3,46.7-4.4,69.9-1.7
			c11.8,1.4,23,4.3,34.6,6.6c26.4,5.3,28,37.3,22.7,58.7c-3.2,12.5-15.5,19.9-26.5,24.9c-17.3,7.9-36.5,11.9-55.2,15
			c-21.9,3.6-44,5.6-66.1,6.8c-34.4,1.9-68.9,2.1-103.3,1c-1.8-0.1-3.6-0.1-5.5-0.2c-4.8-0.2-4.8,7.3,0,7.5
			c33.1,1.2,66.2,1.2,99.3-0.3c23.4-1.1,46.8-3,70-6.4c20.4-3,41.1-7,60.2-15c13.1-5.4,27.5-13.5,33.1-27.3c3-7.4,3.6-16.1,3.8-24
			c0.3-12.5-1.8-26.2-9.9-36.2c-9.6-11.8-28.9-14.3-43.3-16.7c-22.2-3.7-45-4.9-67.4-2.6c-29.2,3-57.9,11.8-82.4,28.2
			c-28,18.8-48.9,46.4-61,77.8c-2.2,5.8-4.2,11.7-5.8,17.7C340.1,500.1,347.4,502,348.7,497.4z"/>
	</g>
</g>
<path class="st1" d="M-91.5,87.7"/>
<path class="st2" d="M419.8,415.5c-6.8,4.6-16.2,11.7-26.1,21.7c-7.1,7.3-21.5,21.9-18.3,27c1.8,2.8,8.4,2.3,13,0
	c6.6-3.3,8.9-10.6,10.4-14.8C402.1,440.9,407.9,429.2,419.8,415.5z"/>
<g>
	<g>
		<path class="st0" d="M494.1,540.3c7.2-3.6,14.6-7.3,22.4-9.5c1.7-0.5,6.5-2,7.5-0.5c1.3,2.1-2.2,9.6-2.8,11.5
			c-1,3-1.9,8.7-5.7,9.3c-3.2,0.5-6.9-2-9.4-3.7c-4.4-3-8.1-7-11.5-11c-2.1-2.5-5.6,1.1-3.5,3.5c5.5,6.6,16.2,18.5,26.2,16
			c4-1,5.8-4.7,7.2-8.3c1.9-4.9,4.6-11.2,4.5-16.6c-0.2-15.7-33,2.8-37.4,5C488.7,537.4,491.3,541.7,494.1,540.3z"/>
	</g>
</g>
<g>
	<g>
		<path class="st0" d="M515.9,554.2c5.4,9.1,5.1,20-3.5,27c-7.2,5.9-16.7,9-25.9,9.3c-14.9,0.5-29.9-4.8-42.8-11.9
			c-2.8-1.6-5.3,2.8-2.5,4.3c15.8,8.8,35,15.1,53.2,11.8c9.2-1.7,19.6-6.5,25.5-14c6.7-8.6,5.7-20,0.3-29
			C518.6,548.9,514.3,551.4,515.9,554.2L515.9,554.2z"/>
	</g>
</g>
<g>
	<g>
		<path class="st0" d="M515.9,554.2c8.9,14,25.7,23.1,42.4,20.6c18.8-2.8,30.9-20.2,34.3-37.8c0.6-3.1-4.2-4.5-4.8-1.3
			c-3,15.6-13.3,31.6-30.1,34.1c-14.8,2.2-29.7-5.9-37.5-18.2C518.5,548.9,514.2,551.4,515.9,554.2L515.9,554.2z"/>
	</g>
</g>
<g>
	<g>
		<path class="st0" d="M435.6,155.1c-0.3,11.7-9.5,21.4-21.4,21.4c-11.7,0-21.4-9.7-21.4-21.4c-0.1-11.7,9.8-21.4,21.4-21.4
			C426.1,133.7,435.3,143.4,435.6,155.1c0.1,3.2,5.1,3.2,5,0c-0.3-11-6.8-21-17.3-24.8c-10.4-3.8-22.4-0.5-29.4,8
			c-15.4,18.6,1.4,47,25,42.8c12.7-2.2,21.4-13.4,21.7-26C440.7,151.9,435.7,151.9,435.6,155.1z"/>
	</g>
</g>
<g>
	<g>
		<path class="st0" d="M663.9,122.5c-0.3,12.7-10.3,23.2-23.2,23.2c-12.6,0-23.2-10.6-23.2-23.2c0-12.7,10.5-23.2,23.2-23.2
			C653.6,99.3,663.6,109.8,663.9,122.5c0.1,4.8,7.6,4.8,7.5,0c-0.3-12.7-7.8-24.1-19.8-28.7c-12-4.6-26.1-0.9-34.3,8.9
			c-8.3,9.9-9.6,24.5-2.8,35.7c6.6,10.9,19.5,16.6,32.1,14.3C661,150,671,137,671.4,122.5C671.5,117.7,664,117.7,663.9,122.5z"/>
	</g>
</g>
<g>
	<g>
		<path class="st0" d="M685.1,183.4c-0.7,15.7-24.5,15.9-24.5,0C660.6,167.6,684.4,167.7,685.1,183.4c0.1,3.2,5.1,3.2,5,0
			c-0.4-9.4-7.6-17.3-17.3-17.3c-9.4,0-17.3,7.9-17.3,17.3c0,9.4,7.9,17.3,17.3,17.3c9.7,0,16.8-7.9,17.3-17.3
			C690.2,180.2,685.2,180.2,685.1,183.4z"/>
	</g>
</g>
<g>
	<g>
		<path class="st0" d="M578.2,113.3c-0.5,8.5-13.3,8.6-13.3,0C564.9,104.8,577.7,104.9,578.2,113.3c0.2,3.2,5.2,3.2,5,0
			c-0.3-6.3-5.1-11.6-11.6-11.6c-6.3,0-11.6,5.3-11.6,11.6c0,6.1,5,11.3,11.1,11.6c6.8,0.3,11.8-5.1,12.1-11.6
			C583.4,110.1,578.4,110.1,578.2,113.3z"/>
	</g>
</g>
<g>
	<g>
		<path class="st0" d="M121.5,298.9c-0.3,11.4-9.3,20.9-20.9,20.9c-11.4,0-20.9-9.5-20.9-20.9c-0.1-11.4,9.6-20.9,20.9-20.9
			C112.3,278,121.2,287.5,121.5,298.9c0.1,3.2,5.1,3.2,5,0c-0.3-10.7-6.6-20.4-16.7-24.2c-10.3-3.9-22.3-0.7-29.2,7.8
			c-15,18.3,1.5,46.1,24.8,41.9c12.4-2.3,20.8-13.1,21.2-25.5C126.6,295.7,121.6,295.7,121.5,298.9z"/>
	</g>
</g>
<g>
	<g>
		<path class="st0" d="M461.8,354.2c-33.6,8.7-64.8,24.6-91.6,46.5c-2.5,2,1.1,5.6,3.5,3.5c26.2-21.4,56.7-36.8,89.4-45.2
			C466.3,358.2,464.9,353.4,461.8,354.2L461.8,354.2z"/>
	</g>
</g>
</svg>
