<?xml version="1.0" standalone="no"?>
<!DOCTYPE svg PUBLIC "-//W3C//DTD SVG 20010904//EN"
 "http://www.w3.org/TR/2001/REC-SVG-20010904/DTD/svg10.dtd">
<svg version="1.0" xmlns="http://www.w3.org/2000/svg"
 width="1000.000000pt" height="1000.000000pt" viewBox="0 0 1000.000000 1000.000000"
 preserveAspectRatio="xMidYMid meet">
 <style type="text/css">
	.st0{fill:#FF80CF;}
</style>
<g transform="translate(0.000000,1000.000000) scale(0.100000,-0.100000)"
fill="#000000" stroke="none">
<path class="st0" d="M4905 7619 c-399 -30 -677 -69 -920 -130 -211 -53 -488 -150 -616
-214 l-49 -25 0 -415 0 -415 -617 0 -618 -1 -155 -149 -155 -149 3300 -1 3300
0 -150 150 -150 150 -587 0 -588 0 0 419 0 419 -102 45 c-320 140 -712 240
-1098 281 -398 43 -584 51 -795 35z m509 -314 c432 -32 671 -77 1019 -192
l167 -55 0 -399 0 -399 -1490 0 -1490 0 2 397 3 397 110 39 c324 114 658 180
1065 211 239 18 367 19 614 1z"/>
<path class="st0" d="M5122 6878 c-82 -156 -182 -355 -182 -363 0 -3 29 -5 65 -5 l65 0
120 240 c66 132 120 244 120 250 0 6 -26 10 -59 10 l-59 0 -70 -132z"/>
<path class="st0" d="M4551 6862 l-94 -87 93 -88 93 -87 76 0 76 0 -88 88 -87 87 87 88 88
87 -75 0 -75 -1 -94 -87z"/>
<path class="st0" d="M5543 6863 l87 -88 -87 -87 -88 -88 76 0 75 0 94 88 93 87 -96 88
-95 87 -73 0 -74 0 88 -87z"/>
<path class="st0" d="M4132 5825 c-102 -24 -220 -92 -296 -169 -126 -127 -185 -258 -194
-432 -6 -126 14 -224 68 -332 74 -147 218 -273 371 -323 65 -21 92 -24 219
-24 131 1 151 3 212 27 93 35 169 83 235 147 54 53 133 163 133 185 0 6 -68
28 -151 49 l-151 37 -50 -45 c-74 -70 -146 -100 -238 -98 -96 1 -174 30 -232
86 -108 105 -133 287 -60 435 89 183 338 229 509 93 l47 -37 153 41 c84 22
153 44 153 50 0 5 -23 40 -50 77 -83 110 -215 197 -355 233 -72 18 -248 19
-323 0z"/>
<path class="st0" d="M830 5190 l0 -630 155 0 155 0 0 245 0 245 230 0 230 0 0 -245 0
-245 155 0 155 0 0 630 0 630 -155 0 -155 0 0 -240 0 -240 -230 0 -230 0 0
240 0 240 -155 0 -155 0 0 -630z"/>
<path class="st0" d="M2450 5238 c-128 -321 -241 -604 -251 -630 l-19 -48 169 0 c167 0
170 0 177 23 4 12 20 57 36 100 l30 77 243 0 244 0 7 -22 c4 -13 20 -58 36
-100 l30 -78 164 0 c125 0 164 3 164 13 0 6 -112 289 -248 627 l-248 615 -151
3 -151 3 -232 -583z m461 -29 c33 -91 59 -169 59 -172 0 -4 -63 -7 -141 -7
-109 0 -140 3 -136 13 8 22 129 361 134 377 4 10 9 5 15 -15 6 -16 37 -105 69
-196z"/>
<path class="st0" d="M5220 5190 l0 -630 155 0 155 0 0 208 0 208 53 51 52 52 184 -256
c102 -140 190 -257 196 -259 6 -3 91 -3 188 -2 l178 3 -270 360 -269 360 267
268 266 267 -196 0 -195 0 -224 -227 -225 -228 3 175 c2 96 0 199 -3 228 l-6
52 -155 0 -154 0 0 -630z"/>
<path class="st0" d="M6710 5190 l0 -630 160 0 160 0 0 205 0 206 71 -3 72 -3 115 -202
114 -203 174 0 c96 0 174 3 174 6 0 4 -62 108 -137 232 -125 205 -135 226
-119 236 161 95 232 256 196 447 -23 120 -101 224 -211 280 -105 53 -155 59
-476 59 l-293 0 0 -630z m590 324 c91 -53 97 -175 12 -239 -23 -17 -46 -20
-154 -23 l-128 -4 0 147 0 147 118 -4 c95 -3 125 -8 152 -24z"/>
<path class="st0" d="M8052 5403 c5 -460 6 -474 70 -601 61 -122 194 -222 336 -251 76 -16
246 -13 321 4 143 34 261 127 324 255 62 126 67 165 67 613 l0 397 -154 0
-155 0 -3 -402 c-3 -357 -5 -408 -21 -448 -38 -96 -109 -140 -227 -140 -122 0
-184 42 -227 151 -15 38 -18 95 -21 442 l-3 397 -155 0 -155 0 3 -417z"/>
<path class="st0" d="M1925 4120 l150 -150 622 0 623 0 0 -68 c0 -64 4 -77 64 -198 112
-225 255 -420 453 -618 324 -324 712 -550 1185 -691 l87 -26 103 30 c717 210
1317 692 1624 1304 60 121 64 132 64 198 l0 69 587 0 586 0 146 142 c80 79
148 146 149 150 2 5 -1481 8 -3295 8 l-3298 0 150 -150z m4675 -100 c0 -104
-2 -114 -31 -173 -164 -325 -438 -625 -774 -848 -152 -102 -382 -215 -551
-273 l-130 -44 -118 39 c-570 191 -1079 616 -1325 1106 -41 82 -41 84 -41 193
l0 110 1485 0 1485 0 0 -110z"/>
<path class="st0" d="M4956 3843 c-3 -16 -8 -72 -12 -125 -5 -82 -9 -98 -23 -98 -9 0 -48
-15 -86 -33 l-70 -34 -93 79 c-51 43 -97 78 -100 78 -4 0 -56 -49 -116 -109
l-109 -109 81 -96 81 -96 -29 -62 -29 -63 29 -25 c34 -29 258 -159 289 -167
18 -4 21 -1 21 23 0 44 43 127 90 174 66 66 138 95 235 95 96 0 150 -22 221
-87 48 -44 104 -144 104 -185 0 -13 5 -23 12 -23 31 0 318 176 318 195 0 8
-11 40 -25 71 l-25 56 80 96 80 96 -107 108 c-59 60 -111 108 -116 108 -5 0
-49 -35 -99 -77 -89 -75 -91 -76 -122 -64 -17 8 -56 23 -87 34 l-57 21 -6 71
c-4 38 -9 94 -12 123 l-6 52 -153 0 -153 0 -6 -27z"/>
</g>
</svg>
