<?xml version="1.0" encoding="utf-8"?>
<!-- Generator: Adobe Illustrator 22.0.1, SVG Export Plug-In . SVG Version: 6.00 Build 0)  -->
<svg version="1.1" id="Layer_2" xmlns="http://www.w3.org/2000/svg" xmlns:xlink="http://www.w3.org/1999/xlink" x="0px" y="0px"
	 viewBox="0 0 800 800" style="enable-background:new 0 0 800 800;" xml:space="preserve">
<style type="text/css">
	.st0{fill:#FF80CF;}
</style>
<g>
	<g>
		<path class="st0" d="M372.5,632.3c3.1-2,6.8-4,10.3-3.5c1.3,0.2-0.2-0.2,1,0.4c1.5,0.8,2.9,1.9,4.3,2.9c3.8,2.7,7.5,5.6,11.1,8.5
			c1.7,1.3,3.2,2.5,5.3,3.2c6.7,2,13.5-1.6,18.7-5.6c1.8-1.4,3.6-3.7,5.7-4.6c2.3-1,5.7-1.1,8.1-1.5c6.2-1.1,12.4-2.1,18.7-3
			c49.9-7,101.1-5.6,150.6,3.9c21.8,4.2,43.4,9.9,64.4,17c1.6,0.5,3.8,0,4.9-1.3c24.3-29,48.7-58,73-87c1.5-1.8,1.9-3.9,0.8-6.1
			c-3.5-7-7-14-10.5-21c-1.8-3.5-3.5-7-5.3-10.5c-1.7-3.4-3.3-8.9-6-11.5c-2.2-2.1-6.3-2-9.2-2.5c-3.4-0.6-6.8-1.1-10.3-1.5
			c-8-1.1-16-1.9-24-2.4c-28.6-1.9-57.3-0.1-85.5,4.9c-39.4,6.9-77.3,20.4-113.2,38c-24.4,12-47.8,25.8-69.8,41.8c1.7,0,3.4,0,5,0
			c-11.3-6.9-25.1-3.5-32.8,6.8c2.6-0.3,5.2-0.7,7.9-1c-70.3-62-168.5-65.3-255.9-45.7c-21.7,4.9-42.8,11.6-64,18.4
			c-2.4,0.8-4.5,3.5-3.5,6.2c1.9,5.2,3.8,10.4,5.7,15.5c0.7,2,1.2,4,2.6,5.7c1.9,2.4,5.4,4.4,7.7,6.3c9.5,7.8,19,15.6,28.6,23.3
			c9.3,7.6,18.5,15.1,27.8,22.7c3.3,2.7,7.2,7.6,11.8,7c5.4-0.8,11-3.2,16.3-4.6c43.4-11.6,88-18.2,132.9-19.6
			c21.5-0.7,43-0.2,64.5,1.4c6.4,0.5,6.4-9.5,0-10c-72.8-5.3-146.3,2.4-216.3,23.2c1.6,0.4,3.2,0.9,4.9,1.3
			c-14.4-11.8-28.8-23.5-43.2-35.3c-7.2-5.9-14.4-11.8-21.6-17.7c-1.4-1.1-3.4-2.4-4.6-3.8c-1.5-1.7-2-3.8-2.8-6
			c-1.5-4-3-8.1-4.5-12.1c-1.2,2.1-2.3,4.1-3.5,6.2c36.2-11.5,72.3-22,110.1-26.4c42.9-5,87.3-3.5,128.6,10.2
			c26.3,8.7,50.6,22.5,71.4,40.9c2.6,2.3,5.8,1.7,7.9-1c-0.6,0.8,1.3-1.4,1.7-1.8c1.4-1.3,3.1-2.3,4.9-3c4.2-1.6,8.8-0.7,12.5,1.6
			c1.4,0.9,3.7,1,5,0c62-45,136.7-76.9,213.5-83c29.6-2.3,59.4-0.8,88.6,4.5c-1-0.8-2-1.5-3-2.3c7,14,14,28,21,42
			c0.3-2,0.5-4,0.8-6.1c-24.3,29-48.7,58-73,87c1.6-0.4,3.2-0.9,4.9-1.3c-41.7-14-85.3-22.6-129.3-24.9c-27-1.4-54-0.5-80.8,2.7
			c-12.1,1.5-24.2,3.4-36.1,5.7c-6.7,1.3-12.7,12.3-19.7,10.5c-1.1-0.3,0.9,0.6,0,0c-0.4-0.2-0.7-0.4-1-0.7c-0.9-0.7-2.6-2.1-3.8-3
			c-4.1-3.2-8.3-6.8-12.8-9.4c-7.3-4.3-15.5-1.7-22.1,2.6C362.1,627.2,367.1,635.9,372.5,632.3z"/>
	</g>
</g>
<g>
	<g>
		<path class="st0" d="M553.7,431.8c-56,29.2-103.2,75.6-131.3,132.4c-4.5,9-8.3,18.4-11.7,27.9c-1.1,3,3.8,4.3,4.8,1.3
			c17.4-49.2,50.5-92.7,91.1-125.1c15.4-12.4,32.1-23,49.6-32.2C559.1,434.7,556.6,430.4,553.7,431.8L553.7,431.8z"/>
	</g>
</g>
<g>
	<g>
		<path class="st0" d="M499.8,517.3c6.2-2.9,12.6-4.1,19.4-5c8.9-1.1,17.5-2.8,26.1-5.5c17.6-5.5,34.8-13.4,50.9-22.4
			c6.8-3.8,13.2-7.9,20.5-10.7c10.4-4,21.3-6.4,32.3-8.3c21.2-3.7,42.8-5.1,64.2-5.8c-0.7-1.3-1.4-2.5-2.2-3.8
			c-8.5,16-17,32-25.5,48c-1.5,2.8,2.8,5.4,4.3,2.5c8.5-16,17-32,25.5-48c0.9-1.6-0.2-3.8-2.2-3.8c-31.3,1.1-64.5,2.8-94.4,13.1
			c-7.1,2.4-13.6,5.7-20,9.5c-15.7,9.2-32.4,17-49.6,23.1c-10.1,3.6-20.5,5.8-31.1,7.2c-7.3,0.9-14.1,2.4-20.8,5.5
			C494.3,514.4,496.9,518.7,499.8,517.3L499.8,517.3z"/>
	</g>
</g>
<g>
	<g>
		<path class="st0" d="M420.4,594.3c0.5,1.5-0.6,1.3,0.4,0.5c0.6-0.5,1.1-1.4,1.5-1.9c1.9-2.2,3.9-4.4,5.9-6.5
			c5.9-6.3,12-12.5,18.1-18.6c13.7-13.7,27.6-27.3,41.9-40.5c3.4-3.1,7.6-8.2,11.5-10c2.9-1.4,0.4-5.7-2.5-4.3
			c-3.9,1.8-7.4,6.1-10.5,8.9c-6.9,6.3-13.6,12.7-20.3,19.2c-14.5,14-29,28-42.7,42.8c-2,2.1-9.4,8.2-8.2,11.8
			C416.6,598.7,421.4,597.4,420.4,594.3L420.4,594.3z"/>
	</g>
</g>
<g>
	<g>
		<path class="st0" d="M106.9,567c14-8.3,8.6-28.8-7.9-28.5c0.2,1.6,0.4,3.3,0.7,4.9c6.3-2.7,12.7-5.3,19-8c1.2-0.5,2.2-1.6,1.7-3.1
			c-1.7-5.3-3.3-10.7-5-16c-0.6,1-1.2,2.1-1.7,3.1c26.4-7.4,53.2-10.6,80.6-11.1c49.9-1,101,6.6,146.6,27.6
			c14.2,6.5,27,14.9,37.4,26.7c8.2,9.3,14.5,20.2,19.1,31.7c1.2,3,6,1.7,4.8-1.3c-8.9-22.4-24.1-41.9-45-54.3
			c-23.5-14-51.3-22.3-78-27.8c-41.2-8.5-84.1-9.8-125.8-4.7c-14,1.7-27.6,4.6-41.1,8.4c-1.3,0.4-2.2,1.8-1.7,3.1
			c1.7,5.3,3.3,10.7,5,16c0.6-1,1.2-2.1,1.7-3.1c-6.3,2.7-12.7,5.3-19,8c-2.4,1-2.4,5,0.7,4.9c11.4-0.2,15.2,13.4,5.4,19.2
			C101.6,564.3,104.1,568.7,106.9,567L106.9,567z"/>
	</g>
</g>
<g>
	<g>
		<path class="st0" d="M530.5,506.4c9-23.9,18-47.8,27-71.7c1.1-3-3.7-4.3-4.8-1.3c-9,23.9-18,47.8-27,71.7
			C524.5,508.1,529.3,509.4,530.5,506.4L530.5,506.4z"/>
	</g>
</g>
<g>
	<g>
		<path class="st0" d="M118.3,534.2c24.6-8.3,49.3-12.4,75.2-13.7c48.4-2.4,97.8,4.7,142.2,24.5c12.3,5.5,24.4,11.8,34.6,20.7
			c9.8,8.5,17.8,18.7,24.3,29.9c0.8,1.4,3,0.1,2.2-1.3c-11-19.2-26.8-34.8-46.4-45.1c-24.4-12.7-51-21.3-78-26.2
			c-38.2-7-77.9-7.3-116.2-1.2c-13.1,2.1-25.8,5.6-38.4,9.9C116.2,532.3,116.8,534.7,118.3,534.2L118.3,534.2z"/>
	</g>
</g>
<g>
	<g>
		<path class="st0" d="M408.5,592c-4.3-41.2-28.2-79.1-63.5-100.8c-29.4-18.1-63.9-25.3-98-28.1c-27.3-2.2-54.7,0.3-81.3,6.8
			c-3.1,0.8-1.8,5.6,1.3,4.8c36.5-8.9,74.4-9.5,111.3-2.6c41.6,7.8,81.2,26.6,104.7,63.1c11.2,17.4,18.4,36.1,20.5,56.7
			C403.8,595.2,408.8,595.2,408.5,592L408.5,592z"/>
	</g>
</g>
<g>
	<g>
		<path class="st0" d="M177.3,506c-2.9-11.4-5.7-22.9-8.6-34.3c-0.8-3.1-5.6-1.8-4.8,1.3c2.9,11.4,5.7,22.9,8.6,34.3
			C173.3,510.4,178.1,509.1,177.3,506L177.3,506z"/>
	</g>
</g>
<g>
	<g>
		<path class="st0" d="M361.5,448.3c0-1.8-1.6-2.6-2.9-3.5c-3.4-2.2-6.7-4.3-9.7-7.1c-9.2-8.3-14.3-19.1-17.1-31
			c-4.3-18.4-5-40.5,8.5-55.2c23.6-25.8,37.7-71.2,11.4-100.1c-11.2-12.3-28.4-17.9-44.7-17.6c-2.7,0.1-3.5,4.3-0.7,4.9
			c9.8,2.1,18.5,7.3,24.5,15.4c8.1,11,3.8,21.2-3.4,31.2c-14.3,20-32.7,39.2-39.8,63.4c-5.5,18.8-2.7,39.5,5.8,56.9
			c7.4,15.1,20.6,27.1,35.3,35.1c6.7,3.7,13.9,6.7,21.3,8.7c2.5,0.7,8.5,3,10.8,0.6c2.3-2.3-1.3-5.8-3.5-3.5
			c1.3-1.3,1.3-0.1,0.1-0.6c-0.5-0.2-1.3-0.2-1.9-0.3c-2.4-0.4-4.7-1.1-7-1.8c-7.1-2.2-13.8-5.3-20.2-9.1
			c-14.1-8.3-26.1-20.4-32.3-35.7c-8.6-20.8-8-43.4,2.5-63.4c5.8-11.1,13.4-21.1,20.8-31.1c6.8-9.2,15.5-18.3,19.6-29.2
			c7.6-20.2-13.5-37.6-31.3-41.4c-0.2,1.6-0.4,3.3-0.7,4.9c14-0.3,28.8,4.1,39.1,13.9c16,15.4,17.7,40.2,11.1,60.3
			c-2.3,7.2-5.7,13.9-9.5,20.4c-4.1,7.1-9.7,12.4-14.5,18.8c-10.9,14.5-10.5,35.7-6.9,52.6c2.2,10.4,5.5,20.2,12,28.7
			c3.2,4.2,6.9,7.9,11.2,11.1c1.6,1.3,3.4,2.4,5.1,3.5c0.3,0.2,0.9,0.6,1.3,0.8c1.8,0.7,0.7,1.6,0.7-0.7
			C356.5,451.5,361.5,451.6,361.5,448.3z"/>
	</g>
</g>
<g>
	<g>
		<path class="st0" d="M450.5,443.2c4.2-1.6,3.9-8,4.4-11.6c1.2-8.8,3-17.3,6.1-25.6c4.7-12.3,12-22.9,19.7-33.4
			c17.1-23.1,27.8-50.5,34.7-78.3c11.2-45,14.2-94.1-9.5-135.7c-14.3-25-38.4-45-66.7-52c-2.5-0.6-6.9-2-9,0.3
			c-2.9,3.2,1.6,5.9,3.9,7.3c14,8.6,25.1,18.8,31.7,34.1c7.5,17.4,10.3,37.9,6.8,56.5c-4.4,23.5-13.1,46.2-19.2,69.2
			c-7.7,29.4-14.9,59.5-16.8,89.9c-0.6,9.5-0.4,19,0.3,28.5c1.1,14.4,2.5,29.9,7,43.7c0.8,2.3,1.9,6.5,4.9,6.9
			c3.8,0.5,5.4-5.2,1.6-5.8c0.8,0.1,0.7,0.7,0.2-0.4c-0.4-0.8-0.6-1.6-0.9-2.4c-0.9-2.6-1.5-5.3-2.1-8c-1.6-7.3-2.7-14.7-3.6-22.1
			c-1.3-10.6-2-21.3-1.8-32c0.5-26.5,6.1-52.7,12.3-78.4c6-25.3,14.1-49.9,20.8-74.9c4.3-16,5.9-31.5,3-47.9
			c-1.9-10.9-4.9-21.6-10.1-31.5c-6.8-12.9-17.1-22.3-29.4-29.8c-0.9-0.6-1.9-1.4-2.9-1.8c-0.3-0.1-0.7-0.6-0.9-0.6
			c0,0-0.1-0.1-0.1-0.1c-1.2-1-1.8,0.4-1.6,4.1c0.7,0.6,3.8,0.6,4.8,0.8c6.6,1.7,13.1,4.4,19.2,7.4c14.3,7.2,26.8,17.5,36.3,30.5
			C510.2,173.2,518,201,518,229c0,16.3-1.9,32.6-5,48.5c-5,25.6-12.9,51-25.7,73.8c-5.8,10.4-13.3,19.6-19.9,29.5
			c-7.9,11.8-13.8,24.8-16.7,38.7c-0.7,3.5-1.2,7-1.7,10.5c-0.2,1.8-0.4,3.6-0.7,5.3c-0.3,1.8-1.3,2.8,0.5,2.1
			C445.3,438.8,446.8,444.6,450.5,443.2z"/>
	</g>
</g>
<g>
	<g>
		<path class="st0" d="M380.6,365.4c-0.8-1-0.2-0.4-0.8,0.6c-0.6,0.9-0.9,2.1-1.3,3.1c-1.2,2.9-2.2,5.8-2.9,8.9
			c-1.3,6.4-1.1,13,0.3,19.4c2,9.3,6.2,17.4,12.5,24.4c1.4,1.6,4,3.5,4.9,5.5c0.6,1.5,1,1.5-1,2.2c-1.1,0.4-2.7,0.4-3.9,0.4
			c-6,0.1-11.8-2.1-16.7-5.5c-12.3-8.5-15.6-23.4-10.6-37.1c1.3-3.6,3-7.1,5.3-10.2c1.9-2.6,4.4-5,6.9-7.1c0.9-0.7,6.2-5,7.7-4.2
			c2.8,1.6,5.3-2.7,2.5-4.3c-4.2-2.5-10.1,2.1-13.2,4.5c-4.3,3.4-7.9,7.4-10.5,12.2c-7.2,13-8.8,29.2,0.4,41.7
			c6.9,9.4,23,19.3,35.1,13.8c5.1-2.4,4-7,1-10.6c-4.1-4.9-8.7-9.3-11.5-15.2c-4.2-8.7-6.4-19-4.4-28.6c0.9-4.2,2.8-7.9,4.2-11.9
			c0.7-2,0.9-3.7-0.5-5.4C382.1,359.4,378.6,363,380.6,365.4z"/>
	</g>
</g>
<g>
	<g>
		<path class="st0" d="M165.4,440.3c0.9-2.3-1.4-4.2-2.8-5.7c-4-4.2-7.3-8.7-8.8-14.4c-2.3-9,1.6-18.9,0.8-28.1
			c-1.5-19.5-11.2-37.2-29.8-44.9c-2.4-1-16.5-6.6-16.4,0.1c0,2.3,2.9,3.4,4.5,4.5c4.4,2.8,8.8,6.6,9,12.2c0.2,4.6-2.4,9.1-3.8,13.3
			c-1.4,4.2-2.3,8.5-2.5,12.9c-0.5,10.7,2.4,22,8.6,30.8c6,8.4,14.6,14.8,24.1,18.8c3.6,1.5,12.9,5.6,16.3,1.8
			c2.2-2.4-1.4-5.9-3.5-3.5c-1.2,1.3-11-2.8-12.8-3.7c-7.7-3.6-14.8-8.9-19.8-15.9c-5.8-8.1-8.4-18.3-7.9-28.2
			c0.3-8.1,4.5-14.8,5.9-22.5c1.3-7.1-2-13.4-7.5-17.7c-1.2-0.9-2.4-1.7-3.6-2.5c-0.4-0.3-1.5-1.2-2-1.2c-0.1-0.1-0.2-0.1-0.2-0.2
			c-1.1-0.8-1.4,0.2-1,3.1c0.3,0.3,3.7,0.4,4.2,0.5c2,0.4,3.9,1.1,5.8,1.8c17.3,6.8,26.2,23.3,27.4,41.2c0.6,8.6-2.4,17.2-1.3,25.7
			c0.6,4.8,2.6,9.4,5.3,13.4c1.2,1.8,2.6,3.5,4.1,5.1c0.4,0.5,0.9,0.9,1.3,1.3c0.9,0.9,1.1,1.9,1.5,0.8
			C159.4,442,164.3,443.3,165.4,440.3z"/>
	</g>
</g>
<g>
	<g>
		<path class="st0" d="M596.6,397.7c-0.4,1.9,0.6,3,1.9,4.3c3,3.1,5.3,5.9,5.8,10.4c0.9,8.8-4.2,18.2-11.8,22.5
			c-4.5,2.5-12.8,3-14.9,8.6c-1.9,5,2.5,10.2,6.4,12.8c10.6,6.9,26.4,3,35.6-4.5c11.7-9.5,15.2-27.3,8.1-40.5
			c-3.6-6.8-10-11.6-17.1-14.2c-3.2-1.2-10.4-3.8-13.3-0.5c-2.1,2.4,1.4,6,3.5,3.5c-0.2,0.2,2.1,0.2,3,0.3c2.6,0.4,5.2,1.3,7.5,2.4
			c5.9,2.8,10.9,7.4,13.2,13.6c4.9,12.7-0.4,27.8-12.4,34.4c-7.9,4.4-22.5,6.9-28.7-1.7c-2.7-3.7,0-5.2,3.3-6.4
			c2.5-0.9,5.1-1.8,7.5-3c5.1-2.7,9.2-7.1,11.7-12.3c2.5-5.2,3.9-11.1,2.9-16.8c-0.5-2.9-1.6-5.6-3.3-8c-0.8-1.1-1.8-2.2-2.7-3.1
			c-0.3-0.3-0.7-0.8-1-1c-1.2-0.6-0.2-1.6-0.6,0.5C602,395.9,597.2,394.5,596.6,397.7z"/>
	</g>
</g>
<g>
	<g>
		<path class="st0" d="M624.9,211.8c2.2-1.6,2.3-3.6,2.4-6.2c0.3-6.1,1-11.9,3.7-17.5c1.8-3.8,4.4-7.2,6-11.2
			c1.8-4.3,2.7-8.9,2.9-13.5c0.8-16.6-6-33-13.6-47.4c-1.5-2.9-8.6-18.4-13.9-15.3c-2,1.1-1.4,3.4-0.9,5.2
			c1.5,5.3,3.4,10.1,3.6,15.6c0.3,7.6-2.8,13.7-5.7,20.4c-4.2,9.6-7.4,19.9-9.1,30.2c-1.7,10.4,1.1,20.4,7.4,28.9
			c3.1,4.2,10.4,13.1,16.7,10.8c3-1.1,1.7-5.9-1.3-4.8c-1.9,0.7-4.7-2-6-3.1c-3.1-2.7-5.7-6-7.7-9.5c-4.5-7.8-5.4-15.8-3.5-24.5
			c2-9.1,4.6-18.1,8.4-26.6c2.2-4.9,4.7-9.7,5.6-15c1.1-6.9-0.2-14-2.3-20.6c-0.2-0.7-0.7-3.3-1.3-3.9c-0.9-0.9-3.1,0.4-2.8,1.5
			c0.1,0.4,1.1,1.2,1.4,1.6c3.1,3.7,5.5,8.1,7.7,12.3c6.4,12.3,12.1,25.9,12.5,39.9c0.3,9.6-3,16.5-7.4,24.6
			c-2.3,4.2-3.9,8.8-4.6,13.5c-0.3,2.2-0.5,4.3-0.6,6.5c0,0.9-0.2,3.6,0,3.5C619.8,209.4,622.3,213.7,624.9,211.8z"/>
	</g>
</g>
<g>
	<g>
		<path class="st0" d="M254.3,373.9c-0.6,10.4-16.2,10.4-16.2,0C238.2,363.4,253.8,363.5,254.3,373.9c0.2,3.2,5.2,3.2,5,0
			c-0.4-7.1-5.7-13.1-13.1-13.1c-7.1,0-13.1,6-13.1,13.1c0,6.9,5.6,12.8,12.5,13.1c7.6,0.3,13.3-5.7,13.7-13.1
			C259.5,370.7,254.5,370.7,254.3,373.9z"/>
	</g>
</g>
<g>
	<g>
		<path class="st0" d="M522.8,367.8c-0.4,7.3-11.3,7.3-11.3,0C511.5,360.5,522.4,360.6,522.8,367.8c0.2,3.2,5.2,3.2,5,0
			c-0.3-5.8-4.6-10.7-10.7-10.7c-5.8,0-10.7,4.9-10.7,10.7c0,5.6,4.6,10.4,10.2,10.6c6.2,0.3,10.8-4.7,11.1-10.6
			C528,364.6,523,364.6,522.8,367.8z"/>
	</g>
</g>
<g>
	<g>
		<path class="st0" d="M403.5,117.8c-0.7,15.8-24.6,15.9-24.6,0C378.9,101.9,402.8,102,403.5,117.8c0.1,3.2,5.1,3.2,5,0
			c-0.4-9.4-7.6-17.3-17.3-17.3c-9.4,0-17.3,7.9-17.3,17.3c0,9.4,7.9,17.3,17.3,17.3c9.7,0,16.9-7.9,17.3-17.3
			C408.6,114.6,403.6,114.6,403.5,117.8z"/>
	</g>
</g>
<g>
	<g>
		<path class="st0" d="M250.1,285.9c-2.8-0.9-5.7-1.8-8.5-2.8c-2.1-0.7-5.4-2.5-7.6-2.2c-2.2,0.3-4.7,3.2-6.4,4.5
			c-2.4,1.8-4.7,3.6-7.1,5.4c1.3,0.7,2.5,1.4,3.8,2.2c0-3,0-5.9,0-8.9c0-2.2,0.8-6.2-0.3-8.2c-1.2-2-4.8-3.6-6.6-4.8
			c-2.4-1.7-4.9-3.4-7.3-5.1c-0.2,1.5-0.4,3-0.6,4.6c2.8-0.9,5.7-1.8,8.5-2.8c2.1-0.7,6.1-1.1,7.7-2.8c1.6-1.7,2-5.6,2.6-7.8
			c0.8-2.8,1.7-5.7,2.5-8.5c-1.5,0.2-3,0.4-4.6,0.6c1.7,2.4,3.5,4.8,5.2,7.2c1.3,1.8,2.9,5.4,5,6.5c2.1,1.1,6,0.2,8.2,0.2
			c3-0.1,5.9-0.1,8.9-0.2c-0.7-1.3-1.4-2.5-2.2-3.8c-1.7,2.4-3.5,4.8-5.2,7.2c-1.3,1.8-4.1,4.3-4.4,6.5c-0.3,2.2,1.6,5.5,2.4,7.5
			c1,2.8,2,5.6,3,8.4c1.1,3,5.9,1.7,4.8-1.3c-0.9-2.5-1.8-5-2.6-7.5c-0.6-1.6-1.1-3.2-1.7-4.8c-0.3-0.9-0.7-3.5-1-1.7
			c-0.3,1.8,0.8-0.4,1.3-1c1.1-1.5,2.1-2.9,3.2-4.4c1.6-2.1,3.1-4.3,4.7-6.4c1.1-1.6-0.4-3.8-2.2-3.8c-5.3,0.1-10.6,0.3-15.8,0.4
			c0.7,0.4,1.4,0.8,2.2,1.2c-3.1-4.3-6.2-8.6-9.3-12.8c-1.2-1.7-3.9-1.6-4.6,0.6c-1.5,5.1-3,10.1-4.5,15.2c0.6-0.6,1.2-1.2,1.7-1.7
			c-5,1.6-10.1,3.3-15.1,4.9c-2.1,0.7-2.4,3.3-0.6,4.6c4.4,3,8.7,6,13.1,9c-0.4-0.7-0.8-1.4-1.2-2.2c0,5.3,0,10.6,0,15.9
			c0,1.7,2.2,3.4,3.8,2.2c2.1-1.6,4.2-3.2,6.3-4.8c1.3-1,2.7-2,4-3.1c0.5-0.4,3.3-2,1.3-1.6c-1.7,0.4,0.4,0.5,1.4,0.9
			c1.7,0.6,3.5,1.1,5.2,1.7c2.5,0.8,5,1.6,7.5,2.5C251.8,291.7,253.1,286.9,250.1,285.9z"/>
	</g>
</g>
<g>
	<g>
		<path class="st0" d="M581.7,311.7c-1.3-2.6-2.6-5.2-3.8-7.8c-1-2.1-2.1-6.2-4.1-7.6c-1.8-1.4-5.8-1.2-8-1.5c-3-0.4-6-0.9-9.1-1.3
			c0.4,1.4,0.7,2.8,1.1,4.2c2.3-2.2,4.6-4.5,6.9-6.7c1.5-1.5,4.8-3.6,5.5-5.8c0.7-2.2-0.8-5.8-1.1-8c-0.5-3.2-1.1-6.3-1.6-9.5
			c-1.2,0.9-2.4,1.9-3.7,2.8c2.8,1.5,5.7,3,8.5,4.5c1.9,1,5,3.5,7.2,3.5c2.3,0,5.3-2.5,7.2-3.5c2.8-1.5,5.7-3,8.5-4.5
			c-1.2-0.9-2.4-1.9-3.7-2.8c-0.5,3.2-1.1,6.3-1.6,9.5c-0.4,2.1-1.8,5.8-1.1,8c0.7,2.2,3.9,4.3,5.5,5.8c2.3,2.2,4.6,4.5,6.9,6.7
			c0.4-1.4,0.7-2.8,1.1-4.2c-2.9,0.4-5.7,0.8-8.6,1.2c-2.3,0.3-6.5,0.1-8.5,1.6c-1.8,1.4-2.9,5.2-3.8,7.2c-1.4,2.7-2.7,5.5-4.1,8.2
			c-1.4,2.9,2.9,5.4,4.3,2.5c1.1-2.3,2.3-4.6,3.4-6.9c0.8-1.7,1.6-3.3,2.5-5c0.4-0.8,2.2-3.3,0.7-2.2c-1.5,1.1,1.2,0.3,2,0.1
			c1.8-0.3,3.6-0.5,5.4-0.8c2.7-0.4,5.4-0.8,8.1-1.2c1.9-0.3,2.3-3,1.1-4.2c-3.9-3.8-7.8-7.6-11.7-11.4c0.2,0.8,0.4,1.6,0.6,2.4
			c0.9-5.4,1.8-10.8,2.8-16.1c0.4-2.1-1.6-3.9-3.7-2.8c-4.8,2.5-9.7,5.1-14.5,7.6c0.8,0,1.7,0,2.5,0c-4.8-2.5-9.7-5.1-14.5-7.6
			c-2-1.1-4,0.7-3.7,2.8c0.9,5.4,1.8,10.8,2.8,16.1c0.2-0.8,0.4-1.6,0.6-2.4c-3.9,3.8-7.8,7.6-11.7,11.4c-1.2,1.2-0.8,3.9,1.1,4.2
			c2.5,0.4,5.1,0.7,7.6,1.1c1.8,0.3,3.7,0.5,5.5,0.8c0.5,0.1,4.1,0.9,2.3-0.1c-1.4-0.8,0,0.9,0.5,1.9c0.8,1.6,1.6,3.2,2.4,4.9
			c1.2,2.4,2.4,4.9,3.6,7.3C578.8,317.1,583.1,314.6,581.7,311.7z"/>
	</g>
</g>
</svg>
