<?xml version="1.0" encoding="utf-8"?>
<!-- Generator: Adobe Illustrator 22.0.1, SVG Export Plug-In . SVG Version: 6.00 Build 0)  -->
<svg version="1.1" id="Layer_1" xmlns="http://www.w3.org/2000/svg" xmlns:xlink="http://www.w3.org/1999/xlink" x="0px" y="0px"
	 viewBox="0 0 800 800" style="enable-background:new 0 0 800 800;" xml:space="preserve">
<style type="text/css">
	.st0{fill: #FFFFFF;}
</style>
<g>
	<g>
		<path class="st0" d="M557.2,682.9c-17.5-9.1-35.1-18.2-52.6-27.3c-27.8-14.4-55.7-28.9-83.5-43.3c-5.8-3-11.7-6.7-17.8-9.2
			c-5-2.1-12,3.6-16.3,5.8c-26.2,14-52.4,27.9-78.6,41.9c-13.4,7.2-26.9,14.3-40.3,21.5c-7.2,3.8-15.3,7.1-22,11.7
			c-0.3,0.2-0.7,0.4-1.1,0.6c2.4,1.9,4.9,3.8,7.3,5.6c3.2-19.5,6.5-39,9.7-58.5c5.1-30.9,10.3-61.9,15.4-92.8
			c1.1-6.5,2.6-13.2,3.3-19.8c0.5-5.6-6.7-10.2-10.3-13.8c-21.4-20.6-42.8-41.2-64.1-61.8c-11-10.6-21.9-21.1-32.9-31.7
			c-5.9-5.6-11.5-12.3-18-17.3c-0.3-0.2-0.6-0.6-0.9-0.9c-0.7,2.8-1.5,5.6-2.2,8.4c19.5-2.9,39.1-5.9,58.6-8.8
			c30.9-4.7,61.8-9.3,92.7-14c6.4-1,13.9-1.1,20.1-3c4.6-1.4,6.9-10.1,8.8-13.9c13-26.8,26.1-53.5,39.1-80.3
			c6.6-13.5,13.2-27.1,19.8-40.6c3.6-7.3,8.2-14.8,10.9-22.4c0.1-0.4,0.4-0.8,0.5-1.1c-2.9,0-5.8,0-8.6,0
			c8.8,17.7,17.7,35.3,26.5,53c14,27.9,28,55.9,41.9,83.8c3,5.9,5.4,12.7,9.1,18.2c2.8,4.2,11.4,3.6,15.8,4.2
			c29.5,4.1,59,8.2,88.5,12.4c14.9,2.1,29.8,4.2,44.8,6.3c8,1.1,16.6,3.3,24.7,3.5c0.4,0,0.8,0.1,1.2,0.2c-0.7-2.8-1.5-5.6-2.2-8.4
			c-14.1,13.9-28.2,27.7-42.2,41.6c-22.3,22-44.7,44-67,66c-4.7,4.6-10.2,9-14.3,14.1c-3.2,4,0,12.8,0.8,17.4
			c5.2,29.2,10.4,58.5,15.5,87.7c2.7,15,5.3,30,8,45c1.4,8.2,2.5,16.5,4.4,24.6c0.1,0.4,0.1,0.8,0.2,1.2c1.1,6.3,10.8,3.6,9.6-2.7
			c-3.4-19.3-6.8-38.6-10.3-57.9c-5.4-30.6-10.8-61.2-16.3-91.8c-1.3-7.1-2.5-14.2-3.8-21.2c-0.4,1.6-0.9,3.2-1.3,4.9
			c14-13.8,27.9-27.5,41.9-41.3c22.1-21.8,44.3-43.6,66.4-65.4c5.1-5,10.2-10.1,15.4-15.1c2.4-2.4,1.6-7.8-2.2-8.4
			c-19.4-2.7-38.8-5.4-58.2-8.1c-30.8-4.3-61.5-8.6-92.3-12.9c-7.1-1-14.2-2-21.4-3c1,0.8,2,1.5,3,2.3
			c-8.8-17.5-17.5-35.1-26.3-52.6c-13.9-27.8-27.8-55.6-41.7-83.4c-3.2-6.4-6.4-12.9-9.6-19.3c-1.6-3.2-7-3.3-8.6,0
			c-8.6,17.6-17.2,35.3-25.7,52.9c-13.6,27.9-27.2,55.9-40.8,83.8c-3.1,6.5-6.3,12.9-9.4,19.4c1-0.8,2-1.5,3-2.3
			c-19.4,2.9-38.8,5.8-58.2,8.8c-30.7,4.6-61.4,9.3-92.2,13.9c-7.1,1.1-14.2,2.1-21.3,3.2c-3.8,0.6-4.7,6-2.2,8.4
			c14.1,13.6,28.2,27.2,42.3,40.8c22.4,21.6,44.7,43.1,67.1,64.7c5.2,5,10.3,10,15.5,15c-0.4-1.6-0.9-3.2-1.3-4.9
			c-3.2,19.3-6.4,38.7-9.6,58c-5.1,30.6-10.2,61.3-15.3,91.9c-1.2,7.1-2.4,14.2-3.5,21.3c-0.7,4.3,3.3,7.8,7.3,5.6
			c17.3-9.2,34.6-18.4,51.9-27.6c27.4-14.6,54.8-29.2,82.3-43.8c6.3-3.4,12.7-6.8,19-10.1c-1.7,0-3.4,0-5,0
			c17.4,9,34.8,18.1,52.2,27.1c27.6,14.3,55.2,28.6,82.7,42.9c6.4,3.3,12.8,6.6,19.1,9.9C557.9,694.5,563,685.9,557.2,682.9z"/>
	</g>
</g>
<g>
	<g>
		<path class="st0" d="M579.7,415.1c-26.8,26.4-53.6,52.7-80.3,79.1c-3.2,3.1-7.7,6.3-10.2,10c-1.8,2.7,0.3,8.4,0.8,11.3
			c3.8,21.3,7.5,42.7,11.3,64c3.1,17.4,6.1,34.9,9.2,52.3c1.2-0.9,2.4-1.9,3.7-2.8c-33.3-17.3-66.7-34.7-100-52
			c-4-2.1-8.4-5.2-12.7-6.6c-3.2-1-7.8,2.7-10.5,4.2c-19.1,10.2-38.3,20.4-57.4,30.5c-15.6,8.3-31.3,16.6-46.9,24.9
			c1.2,0.9,2.4,1.9,3.7,2.8c6.2-37.1,12.4-74.1,18.5-111.2c0.8-4.5,2.2-9.5,2.3-14.1c0.1-3.5-4.8-6.5-7.1-8.7
			c-15.6-15.1-31.2-30.1-46.8-45.2c-12.7-12.3-25.5-24.6-38.2-36.9c-0.4,1.4-0.7,2.8-1.1,4.2c36.9-5.5,73.9-11.1,110.8-16.6
			c3.4-0.5,6.8-1,10.3-1.5c1.4-0.2,3.2-0.1,4.5-0.7c2.9-1.2,4.4-6.9,5.6-9.5c9.5-19.5,19.1-39.1,28.6-58.6
			c7.7-15.8,15.4-31.5,23.1-47.3c-1.4,0-2.9,0-4.3,0c16.7,33.4,33.4,66.8,50.1,100.2c2,4.1,3.8,9.8,6.7,13.4c2,2.5,7.8,2.1,10.7,2.5
			c21.5,3,43.1,6.1,64.6,9.1c17.4,2.4,34.7,4.9,52.1,7.3c3.1,0.4,4.5-4.4,1.3-4.8c-36.8-5.2-73.5-10.3-110.3-15.5
			c-3.4-0.5-6.7-0.9-10.1-1.4c-0.6-0.1-4.8-1.2-5.2-0.7c-0.2,0.2,1,1.2,1.1,0.9c0.1-0.2-0.7-1.5-0.8-1.6c-1.2-2.4-2.4-4.8-3.6-7.1
			c-9.7-19.4-19.3-38.7-29-58.1c-7.8-15.5-15.5-31.1-23.3-46.6c-0.8-1.6-3.5-1.6-4.3,0c-16.3,33.4-32.5,66.7-48.8,100.1
			c-1.5,3.1-3,6.1-4.5,9.2c-0.3,0.6-2.6,4.1-2.3,4.7c0.1,0.3,1.3-0.7,1.1-0.9c-0.1-0.1-1.6,0.2-1.8,0.3c-2.6,0.4-5.3,0.8-7.9,1.2
			c-21.4,3.2-42.8,6.4-64.2,9.6c-17.2,2.6-34.4,5.2-51.5,7.7c-1.9,0.3-2.3,3-1.1,4.2c26.7,25.8,53.4,51.6,80.1,77.4
			c3.8,3.6,7.5,7.3,11.3,10.9c-0.2-0.8-0.4-1.6-0.6-2.4c-6.1,36.6-12.2,73.2-18.3,109.8c-0.9,5.2-1.7,10.3-2.6,15.5
			c-0.4,2.1,1.6,3.9,3.7,2.8c32.8-17.4,65.5-34.9,98.3-52.3c4.6-2.5,9.3-4.9,13.9-7.4c-0.8,0-1.7,0-2.5,0
			c32.9,17.1,65.9,34.2,98.8,51.4c4.7,2.4,9.3,4.8,14,7.3c2,1.1,4.1-0.7,3.7-2.8c-6.4-36.6-12.9-73.1-19.3-109.7
			c-0.9-5.2-1.8-10.3-2.7-15.5c-0.2,0.8-0.4,1.6-0.6,2.4c26.5-26,52.9-52.1,79.4-78.1c3.7-3.7,7.5-7.4,11.2-11
			C585.6,416.4,582,412.9,579.7,415.1z"/>
	</g>
</g>
<g>
	<g>
		<path class="st0" d="M341,401c6.5,11.6,13,23.2,19.6,34.8c0.7-1.3,1.4-2.5,2.2-3.8c-48.4-5.3-96.8-10.6-145.2-15.9
			c-3.2-0.4-3.2,4.7,0,5c48.4,5.3,96.8,10.6,145.2,15.9c2,0.2,3-2.3,2.2-3.8c-6.5-11.6-13-23.2-19.6-34.8
			C343.7,395.7,339.4,398.2,341,401L341,401z"/>
	</g>
</g>
<g>
	<g>
		<path class="st0" d="M396.4,285.5c1.3,48.2,2.6,96.5,3.8,144.7c0,1.9,2.1,3.1,3.8,2.2c17.6-10.3,35.3-20.7,52.9-31
			c2.8-1.6,0.3-5.9-2.5-4.3c-17.6,10.3-35.3,20.7-52.9,31c1.3,0.7,2.5,1.4,3.8,2.2c-1.3-48.2-2.6-96.5-3.8-144.7
			C401.3,282.3,396.3,282.3,396.4,285.5L396.4,285.5z"/>
	</g>
</g>
<g>
	<g>
		<path class="st0" d="M580.8,414.5c-52,11.7-104.1,23.5-156.1,35.2c-2.3,0.5-2.3,3.4-0.6,4.6c23.1,16,44.6,34.7,65.2,53.7
			c1.2-1.2,2.4-2.4,3.5-3.5c-0.1-0.1-0.1-0.1-0.2-0.2c-2.4-2.2-5.9,1.4-3.5,3.5c0.1,0.1,0.1,0.1,0.2,0.2c2.4,2.2,5.9-1.3,3.5-3.5
			c-20.9-19.3-42.8-38.3-66.2-54.5c-0.2,1.5-0.4,3-0.6,4.6c52-11.7,104.1-23.5,156.1-35.2C585.3,418.6,584,413.8,580.8,414.5
			L580.8,414.5z"/>
	</g>
</g>
<g>
	<g>
		<path class="st0" d="M402.7,572.6c-0.3-29.8-0.7-59.6-1-89.3c-1.6,0.4-3.1,0.8-4.7,1.3c37.9,49.3,75.8,98.6,113.8,147.9
			c1.9,2.5,6.3,0,4.3-2.5c-37.9-49.3-75.8-98.6-113.8-147.9c-1.4-1.8-4.7-1.5-4.7,1.3c0.3,29.8,0.7,59.6,1,89.3
			C397.8,575.8,402.8,575.8,402.7,572.6L402.7,572.6z"/>
	</g>
</g>
<g>
	<g>
		<path class="st0" d="M310.2,509.1c20.8-10.5,41.7-21,62.5-31.5c-1.1-1.1-2.3-2.3-3.4-3.4c-27.6,51-55.2,102-82.8,153
			c-1.5,2.8,2.8,5.4,4.3,2.5c27.6-51,55.2-102,82.8-153c1.2-2.3-1.2-4.5-3.4-3.4c-20.8,10.5-41.7,21-62.5,31.5
			C304.8,506.2,307.3,510.5,310.2,509.1L310.2,509.1z"/>
	</g>
</g>
<g>
	<g>
		<path class="st0" d="M326,365c1.6-34.9-6.8-75.8-35.6-98.7c-13.5-10.8-29.5-18.5-44.8-26.5c-21.4-11.2-42.9-22.1-64.6-32.6
			c-11.2-5.4-22.5-10.6-33.7-15.9c-5.8-2.7-11.5-5.5-16.8-9c-3-2-3.3-2.3-6-4.6c-7.5-6.3-14.4-13.3-21-20.6
			c-7.6-8.4-14.6-17.3-21.8-26c-5-6-10.2-12.3-16.7-16.7c-6.3-4.2-14.4-5.1-20.5,0.3c-8.5,7.6-12,21.4-12.2,32.3
			c-0.5,18.1,6.4,36.5,15.7,51.8c0.3-2,0.5-4,0.8-6.1c-11.6,10.2-20.1,23.7-23.4,38.9c-3.4,15.6-1.7,31.8,2.5,47
			c7,25.9,19.6,51.3,35.4,72.9c30.1,41,71.9,72.7,115.3,98.5c14.6,8.6,29.6,16.6,44.9,23.9c5.8,2.8,10.9-5.9,5-8.6
			c-31.7-15.1-62.3-33.1-90.4-54.2c-20.4-15.3-39.6-32.4-56.1-51.9c-16.6-19.5-29.2-41.6-38.5-65.4c-6.1-15.5-10.6-32-9.8-48.8
			c0.8-17.8,8.9-33.5,22.2-45.2c1.6-1.4,1.9-4.3,0.8-6.1c-7.3-12.2-13.1-26.3-14.1-40.5c-0.8-10.1,1-20.6,7-29.1
			c3.8-5.4,8.1-3.3,12.5,0.3c6.1,5.1,11.1,11.6,16,17.6c7.1,8.7,14.2,17.4,21.9,25.6c7.6,8.2,15.7,16.3,25,22.6
			c13.3,9.2,29.3,14.9,43.8,21.8c18.5,8.8,36.8,18,55.1,27.4c17.9,9.2,36.3,18.1,53.1,29.1c31.5,20.6,40.8,60.6,39.2,96.2
			C315.7,371.4,325.7,371.4,326,365L326,365z"/>
	</g>
</g>
<g>
	<g>
		<path class="st0" d="M198.4,319.9c-5.7-0.3-11.8,1.3-17,3.4c-4.1,1.6-9,3.8-10.3,8.5c-2.9,10.5,8.3,22.8,16.7,27.2
			c7.4,3.8,18.1,3.7,25.8,0.6c9.4-3.8,14.2-13,15.9-22.6c1.7-9.6,1.5-19.1-2.4-28.1c-3.7-8.5-9.7-15.8-16.5-22.1
			c-21-19.4-49.3-30.2-76.6-37.2c-15.6-4-30.1-8-43.1-17.9c-14.6-11.1-25.9-26.2-36.3-41.1c-1.8-2.6-6.2-0.1-4.3,2.5
			c14.6,20.8,31,42.1,54.8,52.8c12.1,5.5,25.1,7.5,37.7,11.2c13.7,4,27.1,9.2,39.7,16c16.1,8.7,33.5,21.1,40.6,38.6
			c6,14.8,3.2,40.8-15.5,44.3c-12,2.2-22.8-2.4-29-13.1c-3-5.3-4.4-10.5,1.7-13.7c5.3-2.8,12.3-4.7,18.3-4.4
			C201.6,325.1,201.6,320.1,198.4,319.9L198.4,319.9z"/>
	</g>
</g>
<g>
	<g>
		<path class="st0" d="M479.3,366.3c-1.5-33,5.8-72.3,33.6-93.7c12.9-10,28.1-17.2,42.4-24.8c20.9-11,41.9-21.7,63.1-32
			c11.4-5.5,22.8-10.9,34.3-16.3c6-2.8,12.2-5.6,17.9-9.1c24.4-15,40.5-40.3,59.1-61.3c3.6-4,9.6-11.8,15.5-11.6
			c4.1,0.1,6.6,5.7,8.3,9.1c2.5,5.2,3.8,10.9,4.1,16.7c0.8,17-5.8,34.3-14.5,48.7c-1.1,1.8-0.9,4.6,0.8,6.1
			c11.5,10.2,19.4,23.4,21.8,38.6c2.4,15.2-0.5,30.9-5.1,45.4c-7.9,24.8-20.1,48.6-36,69.3c-30,39.2-71,69.5-113.3,94.3
			c-14,8.2-28.3,15.8-43,22.8c-5.8,2.8-0.7,11.4,5,8.6c34.7-16.6,68-36.6,98.4-60.2c21.7-16.8,42-35.7,59-57.4
			c16.7-21.4,29.5-45.6,38.2-71.3c5.7-16.6,9-34.4,6.6-51.9c-2.5-17.7-11.4-33.6-24.8-45.4c0.3,2,0.5,4,0.8,6.1
			c8.1-13.5,14-29,15.6-44.7c1.1-11.1-0.7-22.2-5.9-32c-4-7.5-10.2-14.3-19.5-12.4c-6.5,1.3-11.9,6.3-16.3,11
			c-6.9,7.2-12.9,15.1-19.2,22.8c-8.1,9.8-16.5,19.3-25.7,28c-2.2,2-4.4,4-6.6,5.9c-0.5,0.4-1,0.9-1.6,1.3c-0.3,0.2-0.6,0.5-0.9,0.7
			c-1.1,0.9,0.2-0.1-0.5,0.4c-13.1,9.9-29.3,15.7-44,22.6c-19.3,9.2-38.4,18.8-57.4,28.6c-19.1,9.8-38.8,19.2-56.6,31.2
			c-34.4,23-45.5,66.6-43.7,106C469.6,372.7,479.6,372.8,479.3,366.3L479.3,366.3z"/>
	</g>
</g>
<g>
	<g>
		<path class="st0" d="M598.9,331.3c5.3-0.3,11,1.2,16,3.2c5.5,2.2,8.4,4.7,6.3,10.8c-4,11.1-14.3,17.7-25.8,17.5
			c-8.2-0.1-15.7-3-19.7-10.6c-4.6-8.5-5.7-20.6-3-29.9c4.8-17.1,20.7-29.7,35.3-38.4c11.6-7,24-12.3,36.8-16.7
			c13.8-4.7,28.4-6.9,42.1-11.8c27.6-9.8,46.3-32.3,62.8-55.5c1.9-2.6-2.5-5.1-4.3-2.5c-17.5,24.6-37.4,47.5-67.6,55.6
			c-16.7,4.5-33.3,8.3-49.4,15c-12.4,5.2-24.3,11.5-35,19.7c-13.3,10.2-26.6,24.8-26.9,42.6c-0.2,11.2,1.9,24.8,11.4,32.1
			c6.7,5.1,15.7,5.9,23.8,5c11.9-1.3,25.3-13.8,25.4-26.3c0.1-11.7-19.2-15.4-28.1-14.9C595.7,326.4,595.7,331.4,598.9,331.3
			L598.9,331.3z"/>
	</g>
</g>
<g>
	<g>
		<path class="st0" d="M382.4,201.2c-34-12.3-68-24.7-102-37c1,2.4,2,4.9,3,7.3c8-13.3,16-26.7,24-40c-2.6,0.3-5.2,0.7-7.9,1
			c26,25.7,52,51.3,78,77c4.6,4.5,11.7-2.5,7.1-7.1c-26-25.7-52-51.3-78-77c-2.3-2.3-6.2-1.8-7.9,1c-8,13.3-16,26.7-24,40
			c-1.8,3,0,6.3,3,7.3c34,12.3,68,24.7,102,37C385.8,213,388.4,203.4,382.4,201.2z"/>
	</g>
</g>
<g>
	<g>
		<path class="st0" d="M404.5,185.5c-16.7-26-33.3-52-50-78c-1.4,2.5-2.9,5-4.3,7.5c31.7-1,63.3-2,95-3c-1.4-2.5-2.9-5-4.3-7.5
			c-15,27-30,54-45,81c-3.1,5.6,5.5,10.7,8.6,5c15-27,30-54,45-81c1.8-3.2-0.4-7.6-4.3-7.5c-31.7,1-63.3,2-95,3
			c-3.6,0.1-6.4,4.2-4.3,7.5c16.7,26,33.3,52,50,78C399.3,195.9,408,190.9,404.5,185.5z"/>
	</g>
</g>
<g>
	<g>
		<path class="st0" d="M417.2,210.8c34-12.3,68-24.7,102-37c3-1.1,4.8-4.4,3-7.3c-8-13.3-16-26.7-24-40c-1.7-2.8-5.5-3.3-7.9-1
			c-26,25.7-52,51.3-78,77c-4.6,4.5,2.5,11.6,7.1,7.1c26-25.7,52-51.3,78-77c-2.6-0.3-5.2-0.7-7.9-1c8,13.3,16,26.7,24,40
			c1-2.4,2-4.9,3-7.3c-34,12.3-68,24.7-102,37C408.5,203.4,411.1,213,417.2,210.8z"/>
	</g>
</g>
</svg>
