<?xml version="1.0" encoding="utf-8"?>
<!-- Generator: Adobe Illustrator 22.0.1, SVG Export Plug-In . SVG Version: 6.00 Build 0)  -->
<svg version="1.1" id="Layer_1" xmlns="http://www.w3.org/2000/svg" xmlns:xlink="http://www.w3.org/1999/xlink" x="0px" y="0px"
	 viewBox="0 0 800 800" style="enable-background:new 0 0 800 800;" xml:space="preserve">
<style type="text/css">
	.st0{fill:#FFFFFF;}
	.st1{fill:none;stroke:#000000;stroke-width:0.5;stroke-miterlimit:10;}
</style>
<g>
	<g>
		<path class="st0" d="M217.5,475c-60.7,26.2-125.5,42.4-191.4,48c-5.2,0.4-7.3,8.7-1.3,9.8c31.3,6.2,61.3,17.7,88.7,34.1
			c18.6,11.1,35,25.2,52.9,37.5c25.9,17.7,53.3,33.3,81.3,47.4c24.4,12.3,49.4,24,75.3,32.6c61.1,20.3,127.3,17.7,189.1,2
			c44.2-11.2,87-28.9,126.8-51.1c44.3-24.8,84.6-56.4,118.9-93.9c3.7-4.1,7.3-8.2,10.9-12.4c1.9-2.3,2.1-6.3-1-7.9
			c-32.4-16.2-66.7-28.7-102.1-36.6c-16.9-3.8-34-6.5-51.2-8.3c-7.2-0.8-14.5-1.3-21.8-1.7c-9.6-0.5-19.3-2.8-28.8-4.4
			c1.2,1.6,2.4,3.2,3.7,4.8c0.1-29.9,2.3-59.6,6.4-89.2c3.3-23.6,6.4-47.1,6-70.9c-0.3-18.5-2.3-36.9-5.6-55.1
			c-0.4,1.6-0.9,3.2-1.3,4.9c15.1-14,28.7-29.5,40.8-46.2c-3-0.4-6.1-0.8-9.1-1.2c7.4,24.1,22.2,44.5,42.3,59.5
			c3.3,2.5,9-1.7,7.3-5.6c-18.6-44.8-20.5-95.5-10.4-142.6c0.5-2.6-0.7-5.5-3.5-6.2c-52.1-12.1-106-13.7-158.8-5
			c-21.8,3.6-43.3,8.9-64.4,15.8c-4.1,1.3-8.1,2.7-12.1,4.2c-4.6,1.6-9.3,2.9-13,6.1c-7.8,7-15.2,14.4-22.2,22.2
			c-19.8,22.2-34.6,46.5-46.7,73.6c-19.1,42.7-32.5,87.4-46.1,132.1c-5.3,17.3-10.9,34.5-19.5,50.6c-10.7,20-25.1,38-41.3,53.9
			c-4.6,4.5,2.5,11.6,7.1,7.1c26.3-25.8,45.8-55.9,57.6-90.8c6-17.8,11-35.9,16.5-53.8c7.7-24.9,16.1-49.6,25.8-73.8
			c10.1-25.2,21.5-50.4,37.7-72.3c7.2-9.7,15.1-19,23.6-27.7c3.3-3.4,6.6-6.7,10-9.9c4.1-3.8,5.6-5,10.7-6.9
			c19.1-7,38.7-12.7,58.7-16.9c57.2-12.3,116.6-12,173.7,1.2c-1.2-2.1-2.3-4.1-3.5-6.2c-10.4,48.7-8.9,101.5,10.4,147.9
			c2.4-1.9,4.9-3.8,7.3-5.6c-17.9-13.4-31.2-32.1-37.7-53.5c-1.3-4.4-6.7-4.6-9.1-1.2c-6.4,8.8-13.2,17.3-20.5,25.4
			c-3.7,4-7.5,8-11.4,11.8c-2.8,2.8-8.6,6.2-8.8,10.5c-0.2,5,1.8,10.8,2.5,15.7c0.8,5.6,1.4,11.1,1.8,16.7
			c0.7,8.9,1.1,17.8,1.1,26.7c0,30.1-5.8,59.4-9,89.2c-2.3,21.8-3.3,43.6-3.4,65.5c0,2,1.5,4.5,3.7,4.8c9.5,1.6,19.2,3.9,28.8,4.6
			c7.2,0.5,14.3,0.9,21.4,1.6c16.7,1.6,33.3,4.3,49.8,7.9c35.2,7.7,69.3,19.8,101.4,35.9c-0.3-2.6-0.7-5.2-1-7.9
			c-34.2,40.1-74.9,74.1-120.5,100.6c-35.4,20.6-73.2,37.2-112.4,48.9c-59.4,17.8-123.5,24.3-184.2,8.9c-27.1-6.9-53-18.2-78.1-30.3
			c-27.8-13.4-54.9-28.2-80.9-44.8c-18.8-12-35.8-26.3-54.3-38.7c-25.9-17.5-54.8-30.7-84.9-38.9c-6.3-1.7-12.6-3.2-19-4.4
			c-0.4,3.3-0.9,6.5-1.3,9.8c67.7-5.8,134-22.4,196.4-49.4C228.4,481.1,223.3,472.5,217.5,475z"/>
	</g>
</g>
<g>
	<g>
		<path class="st0" d="M48.6,528.2c49.3,5.9,97.8,15.2,146.2,25.8c53.5,11.7,107.9,20.5,162.4,26c27.9,2.8,55.8,5.5,83.7,7.5
			c21,1.5,42,2.7,63.1,2c16.4-0.5,32.8-2.3,48.6-6.5c18-4.7,34.9-12.9,51.6-21c22.7-11.1,45.4-21.7,70.1-27.8
			c29.6-7.3,60.6-9,90.9-6.3c3.2,0.3,3.2-4.7,0-5c-26.5-2.3-53.4-1.2-79.6,3.7c-22.9,4.4-44.6,12.3-65.6,22.2
			c-18.6,8.7-36.7,18.7-56.1,25.6c-15.1,5.3-30.9,8.2-46.8,9.4c-45.8,3.6-92.4-2.4-138-6.7c-56.3-5.3-112.3-13.4-167.8-24.7
			c-27.3-5.6-54.4-12-81.8-17c-26.8-4.9-53.8-8.9-80.8-12.2C45.4,522.8,45.5,527.8,48.6,528.2L48.6,528.2z"/>
	</g>
</g>
<g>
	<g>
		<g>
			<g>
				<g>
					<path class="st0" d="M219.4,481.7c-0.5-0.2-0.5,0.2-0.6,0.3C219.7,482.2,219.4,481.6,219.4,481.7z"/>
					<polygon class="st0" points="227.9,484.2 227.6,484.3 229,484.4 					"/>
					<path class="st0" d="M235.4,487.3c-0.5-0.9-2.8-1-4-1.8l-0.2-0.2l-0.8,0.3C232.1,486.1,234.3,486.6,235.4,487.3z"/>
					<path class="st0" d="M238.9,490.3c-0.2-0.4,1,0.1-0.9-0.4c0.1,0.1,0.1,0.1,0.1,0.1C238.3,490,238.6,490.1,238.9,490.3z"/>
					<path class="st0" d="M238.2,490C237.4,489.7,238.6,490.4,238.2,490L238.2,490z"/>
					<path class="st0" d="M242,491.2l-1.1-0.2c0.2,0.2,1.1,0.6,0.7,0.6C242.6,492,242.5,491.7,242,491.2z"/>
					<path class="st0" d="M243.1,491.1l-0.6-0.1C242.6,491.1,242.8,491.2,243.1,491.1z"/>
					<path class="st0" d="M241.3,490.8l1.2,0.2c-0.1-0.2,0-0.4-0.6-0.1C242.2,490.7,241.9,490.8,241.3,490.8z"/>
					<path class="st0" d="M240.7,490.4c-0.5-0.4-1.3-0.8-0.1-0.6C238.5,489.2,238.6,489.7,240.7,490.4z"/>
					<path class="st0" d="M236.1,486.7l-0.7-0.5l-0.8,0C235,486.2,236.1,487,236.1,486.7z"/>
					<path class="st0" d="M248.5,494c0.1-0.1-0.2-0.5-0.2-0.7l-0.8-0.1C247.8,493.4,248.5,493.8,248.5,494z"/>
					<path class="st0" d="M248.2,493.3l1.3,0.2C248.5,493.1,248.2,493.1,248.2,493.3z"/>
					<polygon class="st0" points="243.6,490.5 241.5,490.2 244,490.6 					"/>
					<polygon class="st0" points="253,495.7 252.2,495.8 253.6,495.7 					"/>
					<path class="st0" d="M256,496.6c-0.6,0.1,0.5,0.7-0.1,0.7c0.8,0.2,1.6,0.2,2.3,0.2C257.6,497.5,256.9,497.2,256,496.6z"/>
					<path class="st0" d="M259.4,497.6c-0.4,0-0.7,0-1.2,0C258.6,497.6,259,497.6,259.4,497.6z"/>
					<path class="st0" d="M251.5,494.3c0.1,0.1,0.2,0.4,0.8,0.7l-0.3-0.6C251.8,494.4,251.7,494.3,251.5,494.3z"/>
					<path class="st0" d="M251.9,494.4L251.9,494.4c0.5,0.2,0.9,0.3,1,0.4C252.8,494.8,252.5,494.7,251.9,494.4z"/>
					<path class="st0" d="M251.4,494.2c0,0,0.1,0,0.1,0C251.5,494.2,251.4,494.2,251.4,494.2z"/>
					<path class="st0" d="M246.6,492c0.8,0,2.3,0.3,1-0.5C247,491.5,247.7,492,246.6,492z"/>
					<path class="st0" d="M251,493.5l-1.2-0.5c0,0.1,0.2,0.4-0.2,0.3L251,493.5z"/>
					<polygon class="st0" points="251.6,493.6 251,493.5 251.4,493.7 					"/>
					<path class="st0" d="M257.4,496.5c0.6,0,1.2,0.2,1.9,0.4c-0.7-0.3-1.4-0.6-2.1-0.9C257,496.1,256.6,496.2,257.4,496.5z"/>
					<path class="st0" d="M254.8,495.5c0,0,0.1,0,0.1,0C254.8,495.4,254.8,495.4,254.8,495.5z"/>
					<polygon class="st0" points="265.9,499.1 265.9,499 265.8,499.1 					"/>
					<path class="st0" d="M257.1,495.9c-0.5-0.3-0.9-0.3-1.2-0.3c0.4,0.1,0.9,0.2,1.3,0.4C257.2,496,257.2,496,257.1,495.9z"/>
					<path class="st0" d="M261.3,498.1c-0.3-0.2-0.6-0.4-0.9-0.5C260.7,497.7,261.2,498.1,261.3,498.1z"/>
					<path class="st0" d="M255,495.7C255,495.7,255,495.7,255,495.7C255.1,495.8,255.1,495.7,255,495.7z"/>
					<path class="st0" d="M255,495.7c0.3,0,0.6,0,0.8,0c-0.3-0.1-0.7-0.1-0.9-0.2C254.9,495.5,255,495.6,255,495.7z"/>
					<path class="st0" d="M268.8,497.1c-0.2,0.3-1.8,0.2-2.9-0.6c-1.3-0.1-0.9,1.4-0.1,2.4c0.1-0.2,0.1-0.3,1.5-0.1
						c-0.4-0.3-2.6-1.4-1.5-1.4c1.7,0.3,1.3,0.6,2.1,1c-0.5-0.7,2.3,0,2.2-0.8l-1.5-0.2C268.6,497.4,269.2,497.4,268.8,497.1z"/>
					<path class="st0" d="M263.5,498.2l-0.5-0.1c0.6,0.3,0.9,0.5,1.6,1.1c0.9,0.1,1.1,0,1.2-0.1l-2.5-0.9L263.5,498.2z"/>
					<path class="st0" d="M260.6,497.3c0.5-0.3,1.8,0,1.2-0.7c-1.5-0.5-1.2,0-2.1-0.1C262.2,497.1,259,496.4,260.6,497.3
						c-0.5-0.1-0.9-0.3-1.4-0.4c0.4,0.2,0.8,0.4,1.2,0.6c0,0,0,0,0,0l0,0l0,0c-0.1-0.1-0.1-0.1,0-0.1c0,0,0,0,0.1,0
						C260.5,497.4,260.6,497.3,260.6,497.3c0.7,0.3,0.1,0.1-0.2,0.1c0,0,0,0-0.1,0.1l0,0l2.5,0.6
						C262.4,497.8,261.8,497.6,260.6,497.3z"/>
					<path class="st0" d="M249.2,491c0.1,0.1,0,0.1,0,0.1C249.4,491.1,249.5,491.1,249.2,491z"/>
					<path class="st0" d="M250.1,491.6c-0.2,0-0.4,0.1-1-0.1c-0.4-0.3,0.1-0.2,0.1-0.3c-0.4,0-1.3-0.1-0.3,0.4l0.2,0
						c0.9,0.5,2,1.4,1.8,1.4C250.8,492.6,250.6,492.2,250.1,491.6z"/>
					<path class="st0" d="M255.5,494.4l2.1,0.5l-0.9-0.7l0,0.2C255.5,493.9,255.7,494.3,255.5,494.4z"/>
					<polygon class="st0" points="266.1,499.4 265.7,499.7 267.1,499.5 					"/>
					<polygon class="st0" points="268.8,500.2 268.6,500.5 269.3,500.5 					"/>
					<path class="st0" d="M423.4,517.1l0.6-0.2C423.7,517,423.5,517.1,423.4,517.1z"/>
					<path class="st0" d="M418.9,517.2l-0.1,0.2C419,517.3,419,517.2,418.9,517.2z"/>
					<path class="st0" d="M335.1,516.3c0.8,0.5,1.8,1.3,1.7,0.8l-0.2-0.5C336,516.6,335.5,516.5,335.1,516.3z"/>
					<path class="st0" d="M381.8,519.1c-0.1,0-0.2-0.1-0.3-0.1c-0.2,0.1-0.4,0.3-0.6,0.4C381.2,519.2,381.5,519.1,381.8,519.1z"/>
					<path class="st0" d="M382.6,517.3l1.2,0.3C383.5,517.5,383.1,517.4,382.6,517.3z"/>
					<path class="st0" d="M447.8,514.6l0.7-0.5C447.4,514.2,447.9,514.4,447.8,514.6z"/>
					<path class="st0" d="M296.2,507.9c0.7,0.4,1.3,0.6,1.8,0.7C297.2,508.2,296.5,507.6,296.2,507.9z"/>
					<path class="st0" d="M421.8,521.8c0.4-0.1,0.5-0.2,0.5-0.3C421.9,521.6,421.7,521.7,421.8,521.8z"/>
					<path class="st0" d="M300.3,509.2c-0.1-0.1-0.3-0.1-0.4-0.2c-0.6-0.1-1.2-0.1-1.8-0.3C298.7,509,299.4,509.3,300.3,509.2z"/>
					<path class="st0" d="M532.9,490.7c0.1,0,0.1,0,0.2,0C533,490.6,533,490.6,532.9,490.7z"/>
					<path class="st0" d="M557.5,480.9c-0.2,0.2-0.5,0.4-0.9,0.6C556.8,481.5,557,481.3,557.5,480.9z"/>
					<path class="st0" d="M279.4,503.6C278.9,503.5,279.3,503.6,279.4,503.6L279.4,503.6z"/>
					<path class="st0" d="M277.2,501.2c0.1,0,0.2,0,0.3-0.1C277.4,501.1,277.3,501.2,277.2,501.2z"/>
					<path class="st0" d="M306.6,507.9C306.6,507.9,306.6,507.9,306.6,507.9C306.5,507.8,306.5,507.8,306.6,507.9z"/>
					<path class="st0" d="M278.6,503.2c0.2,0.1,0.4,0.2,0.7,0.3C279.2,503.4,279,503.3,278.6,503.2z"/>
					<path class="st0" d="M278.7,503.4c-0.2-0.1-0.3-0.1-0.5-0.2C278.1,503.3,278.2,503.3,278.7,503.4z"/>
					<path class="st0" d="M280.2,503.8c-0.3-0.1-0.6-0.2-0.9-0.3c0.1,0.1,0.1,0.1,0.1,0.1C279.6,503.7,279.8,503.7,280.2,503.8z"/>
					<path class="st0" d="M488.8,508.5c0,0,0.1,0,0.1,0C489.4,508.2,489.2,508.3,488.8,508.5z"/>
					<path class="st0" d="M350.9,514.1C350.9,514.1,350.9,514.2,350.9,514.1C350.9,514.2,350.9,514.2,350.9,514.1L350.9,514.1z"/>
					<path class="st0" d="M353.1,514.1c-1,0.4-1.5,0.3-2.1,0.1l0.5,1.3L353.1,514.1z"/>
					<path class="st0" d="M434.1,516.3l-1.5-0.3c1.7-0.8,3-0.6,1.6-1.1c-0.1,1.4-5.7,0.5-5.8,1.9l-1-0.2c0.3,0,0.3-0.1,0.6-0.1
						c-1.9-0.5-1.3,1.1-3.8,1c-0.9,0-1.5-0.2-0.9-0.4l-1.9,0.4c-0.6,0-0.4-0.2,0.1-0.2l-2.9,0.2l0,0c-0.4,0.2-1.3,0.6-1.8,0.7
						c-0.7-0.2,0.4-0.2,0.2-0.3l-1.6,0.4c-0.7-0.3,0.7-0.7,1.8-0.7c-1.5-1.3-1.3,0.4-4.5-0.3l1.5-0.2c-1-0.7-2.2-0.4-3.9-0.9
						c0.4,0.2,3.4,1.1,1.7,1.5c-0.5-0.1-1.1-0.1-2.1,0.2c0-0.5-0.9-0.4-2.1-0.4l0.1-0.6c-1.2,0.2-1.1,0.5-1.9,0.8
						c-1.4-0.1-1.7-0.6-2-1c-2.2-0.1,1.5,0.8-1.1,0.9c-1.8-0.3-3.1,0-5.3,0.4c-1.3-0.2,0.2-0.4-0.2-0.6l-1.1,0.5
						c-0.3,0-0.2-0.2-0.1-0.2c-1,0.2-0.1,0.7-1.6,0.8c-0.4,0.7-3.1-1.2-5-0.5c-0.5-0.2,0.2-0.4,0.1-0.6c-2.6,0.4-2.2,0.3-4.3,0.9
						l-1.8-0.5c1.3,0.5-0.4,1-1.9,1.4c0.5,0.3,0.8,0.5,1.1,0.6l-2.4,0.2c-0.3-0.1,0-0.3,0.4-0.6c-0.2,0-0.3,0.1-0.4,0.1
						c-0.8-0.3-0.4-0.6,0.3-1c0.3,0.1,0.6,0.3,0.8,0.4c0.6-0.4,1.2-0.8,1.1-1.1c-0.2,0.1-0.5,0.1-0.8,0.1c0.2-0.1,0.3-0.2,0.2-0.3
						c-0.1-0.1-0.3,0.1-0.7,0.2l-0.5-0.7l-0.1,0.3c-1-0.2-2-0.5-3-0.7c-2.2,0.5-4.2,1.4-7.8,1.4c0.9-0.5,0.3-0.8,0.4-1.4
						c0.9,0.7,2.7-0.1,4.5,0.2c-0.9-0.1-0.7-0.4-0.5-0.5l-3.3,0.3c0.1-0.5-0.7-0.4-1.5-0.7c0.5,1-2.5,0.5-3.8,0.7
						c0-0.3,0.3-0.7,1.9-0.4c-1.7-0.9-2.4,1-4.1,0.1c0.4,0,0.6,0.1,0.8,0c-0.9,0.2-3.1-0.3-2.6-0.5l0.4,0c-2.6-0.4-7.9-0.9-8.3-0.1
						c0-0.1,0.5-1,0.6-1.1c-1.7,0.8-3.3,1.6-5,2.2c0.5-0.7-0.8-2.6,1.4-2.7c-0.6-0.2-1.3-0.4-2.7-0.4c0.4,0.2,0.9,1.2,0.3,1.2
						c-1.5-1-1-0.6-2.9-1.6c0.6,0.2-0.3,1.3-1.2,1.1c0.2-0.1,0.1-1.1,0.5-1.2l-2.6,0.7c0.6-0.1,0.3-0.9-0.2-1.3
						c0.2,0.3-2.1-0.3-2.8-0.3l1,0.4c-2.8-0.6-3,1.2-5.7,0.6c0.4-0.2,1.1-1.3-0.3-1.7c-0.7,0.5-3.3,2.2-5.8,2.2l-0.4-0.4l-1.9,0
						c1.3-0.6,4.9-1.8,6.8-2.2c-1-0.4-0.2-0.4-1.8-0.7c-0.5-0.4,0.9-0.3,1.4-0.2l-3.6-0.8c0,0.7-2.9,0.2-2.8,0.7l4,0
						c0,0.7-2.6,1.5-5.2,0.9c-0.6-0.4,0.7-1.1,0.7-1.3c-0.4,0.2-2.5,0-2.7-0.2l1.1-0.1c-1.4-0.5-2.5,0.4-4.1-0.6
						c-0.6-0.2-1.6-1.2-1.8-0.8c0.8,1,0.5,3.3-0.3,3.7c-0.2-0.1-2.9-1.4-3.5-1.9c-0.8-0.8,1.8-1.1,1-1.8c-0.1,0.2-0.7,0.3-0.9,0.3
						c-0.6-0.3,0.4-0.5-1-0.7c-0.4,0.6-2.7-0.6-0.8,0.4c-1.4-0.1-1.4-0.4-2.9-0.8c0.4,0.5-1.7,1.1-3.1,1c0.1-0.2-0.1-0.4-0.2-0.6
						c-2.7-0.7-4-1.3-6.5-1.9c-0.2-0.2-1.3-0.7-0.8-0.9c-0.4,0-0.8,0.2-1.5,0c-1.3-1,1.7,0.4,0.8-0.6c-0.2,0.4-2.1,0-3.3,0
						c0.2,0.7,2.5,0.8,3.6,0.8c-0.2,0.8-2.3,1.2-5,0.9c-2.1-0.3-0.8-0.8-1.1-0.7c-3.8-1.2-3.7,0.5-6.8-0.9c-1.1-0.9,0.2-1,0.1-1.5
						c1.7,0.3,2.5,1,3.6,1.3l-1.3-0.6c0.6,0,1.7,0.1,2.3,0.5c-0.5-0.4-2.1-0.8-4-1.4c-1.9-0.5-4-1.2-5.4-1.8c-0.6,0-1.5-0.1-1.2,0.3
						l1,0.2c0.7,0.7-1.9,0.1-0.8,0.6c-1.3-0.1-2.9,0-4.6-0.8l-0.2-0.7c0,0.2,1.1,0.7,1.6,0.7c-0.8,0-2.5-1.6-3.5-1.1l1.1,0.8
						c-1.4-0.1-3.1,0-4.6-0.7c0.5,0.8,0.4,0,1.3,1.1c-0.7-1.1,4,1.3,2.7-0.1c0.9,1.1,1.9,0.9,3.2,2c0-0.2-0.4-0.5,0.9,0
						c0.1,0,0.2-0.1,0.3-0.1c0,0,0.1,0,0.1,0c0,0,0,0-0.1,0c0.1,0,0.1,0,0,0c-0.3-0.2-0.5-0.4-0.6-0.5c0.8-0.3,2.9,0.4,3.7,0.4
						c0.8,0.3-0.4,0.1,0,0.5l1.2,0c0,0.5,1.9,1.3,0,1l1.7,0.5c0.9,0.5,2.2,1,3.1,1c0.8,0.3,2.1,0.1,1.3,0.2l2.7,0.4l0,0.1
						c2.6,0.7,5.5,0.8,8.3,2.2c0.9,0.1,1.9,0.2,3.3,0.7l0.2,0.4c1.2,0.1,3.3,1.2,3.9,0.9c0.5,0.6,1.9,1.1,3.3,1.3
						c1.5,0.3,3.1,0.4,4.1,0.7l0.2-0.5c1.4,0.3,2.7,0.5,4.5,0.6l0-0.5c1.5-0.1,3.7,1.1,6.1,1.5c-0.2,0.1-0.8,0-1.2-0.2
						c2.6,1.5,6,0.3,8.4,1.5c0.7,0,1.1,0.1,1.5,0.3c-0.1,0-0.1,0-0.2,0c0.1,0,0.2,0,0.3,0.1c0.3,0.1,0.5,0.3,0.8,0.4
						c-0.2-0.2-0.5-0.3-0.7-0.4c0.5,0.1,1.2,0.2,2,0.2l0.2,0.5c0.1,0,0.1,0,0.2,0c0.7,0.3,0.6-0.1,0.3-0.6c0.4,0,0.7-0.1,1-0.1
						c0.5,0.9,2,0,2.6,1c0.6-0.3,3.7,0.2,4.2-0.5c0,0.1,0.2,0.2-0.2,0.1c0.8,0.2,1.6,0.4,2.4,0.3l0.3,0.7l1.9-0.6
						c1,0.5,1.4,0.8,0.3,1.1c2.7-0.3,2.1,0,4.4-0.4l-0.2,0.4c0.8,0.1,2.1-0.3,2.6,0.1c0.8,0.5,3,0.8,5.5,1.1
						c1.3,0.2,2.6,0.3,3.9,0.5c1.3,0.2,2.6,0.4,3.7,0.6c-0.8-1.2,2.1,0.7,2.3-0.2c0.2,0.3,0.9,0.5,0.1,0.7c2.3-0.1,3.5,0.7,5.1,0.1
						c0.2,0.3-0.5,0.4-0.3,0.5c0.2,0,0.8-0.2,1,0c0.2,0.2-0.4,0.2-0.7,0.3c2.4,0.1,2.7-0.7,2.9-1.5c1.2,0.4,1.8,0.4,2.7-0.1
						c0.4,0.3,1.1,0.6-0.4,0.6c0.8,0.1,5.1,0.6,5.2,0c0.3,0.2,1.2,0.1,1.4,0c1.9,0.1,2,0.2,3.9,0.2l-0.5-0.1c0.7-0.7,1.5-0.1,3-0.1
						l0,0.1c3.4,0.6,1.5-0.3,4.8,0.4l-0.2-0.5c0.3-1,2.9,0.6,4.9,0.2l-0.7-0.3c1.1-0.3,3,1.4,4,1.6c0.2,0.1-0.4,0.1-0.7,0.2
						c2.8,0.6,0.4-0.6,2.4-0.8c0.4,0.3-0.5,0.9,0.9,0.9c0.7,0.3,4-1.2,6-0.6c-0.4-0.2-0.9-0.5,0.1-0.7c1.5-0.1,4,0.9,5.3,0
						c0.2,0.1,0.3,0.1,0.3,0.2c1.1-0.2,3.6-0.6,4.3-1c1.1,1.6,6.9-1.3,7,0.3c1.2-0.1,2.3-0.2,3.5-0.3l-0.1,0.2c2.2-0.1,3-0.6,3.7-1
						c0.5,0.1,0.2,0.2,0.1,0.3c3.3,0,3.6-0.1,6.2-1.1l0.3,0.5c0.7-0.4,4.8,0.2,7.8-0.8c0,0.1-0.1,0.2-0.3,0.3c3.5-1,8.7,0,9.7-1.9
						l2.3-0.8c-3,0.4,0.3-0.8-1-0.9c1.2-0.3,3.2,0,1.7,0.4l-0.2-0.1c-0.4,1.1,3.8-0.4,3.8,0.3c5.9-1.2,11.7-2,17.2-3.3l-0.8-0.5
						l1.9-0.5c0.5,0,0.8,0.4-0.6,0.7c0.8,0.2,2.2-0.9,2.2-1.1c2.7-0.4-0.8,1.1,0,0.9l1.1-0.3l-0.3,0c0.8-0.5,0.8-0.8,2.5-1.3
						c1.1-0.2,0.6,0.3,1.1,0.2c0,0.1,0.2,0,0.6-0.2l2.4-0.6l-1.1-0.3c1-0.6,2.2-0.6,1-0.9c1.9,0.6,8.9-2.5,10-2.5
						c1.3-0.9,2.7-1.4,4.5-2c-0.5,0-1-0.5,0.6-0.9c-0.1,1.5,3-0.5,4.6-0.1c-1.3-0.1,4.2-1.9,2.2-2c1.3-0.4,0.3,0.4,1.3,0.3
						c2.8-1.7,6.7-2.6,10.2-4.5c0-0.2-0.7-0.1-0.1-0.7l2.3-0.2c0.7-0.4,0.2-1.2,1.7-1.4c-0.2,0-0.6-0.1-0.2-0.4
						c7.3-2.9,13.5-8.5,21-11.5c-1.1,0.3-0.5-0.1,0.2-0.6c-0.5,0.2-0.2-0.4-0.5-0.5l3.1-1.3c0.1-0.9,2.9-2.1,2.8-2.8l-0.8,0.7
						c0.7-1.4-2.6-0.2-2.9-1.1c-0.8,1.6-4.1,1.3-5.5,3.7c-0.6,0.1,0.2-0.5-0.1-0.5c-0.3,0.7-0.9,1.2-2.2,1.8l0.1-0.2
						c-3.3,2.3-5,2.8-9.1,4.9l0.5,0.2c-0.9,0.4-1.1,0.4-1.6,0.5c-0.6,1.2,2.4-1.3,1.9-0.1c-1.6-0.2-6,3.4-7.3,2.8
						c-1.3,0.7,0.6,0.3-0.7,1l-0.5-0.1l-0.2,0.5c-0.9,0.4-1.5,0.3-1.7,0.1c0.2-0.1,0.6-0.4,0.8-0.5c-1.3,0.3-3.1,1.8-3.6,1.8
						l1.4-0.5c-3.5,2.1-8.1,3.9-11.6,5.9l0.4,0.1c-2.6,1.6-2.3,0.7-5.3,2.1l0.1-0.1c-0.5,0.4-1.3,0.9-2.2,1.2
						c0.7-0.5-1.7,0.1-0.7-0.6c-2.9,1.5-1.4,0.9-3.2,2.4l-0.6-0.2c-0.6,0.6-0.6,0.8-2.1,1.4c1.2-0.7-1.2-0.2,0.1-1.1
						c-3.6,0.3-4.6,2.4-6.5,1.7c-1.2,1.4,3-0.3,2.3,0.1c0.8,0.1-1,1.1-2.1,1.3c-1.1,0.3-2.2-0.7-4.9,0.1c0.3-0.1,0.3-0.2,0.5-0.2
						c-1.1,0.1-1.9,0.9-3.2,0.8c-0.5,0.8-1.6,0.4-1.6,1.2l2.4-0.8c-1.3,0.6-2.4,1.8-4.9,2c0.1-0.2,0.8-0.6,1.2-0.8
						c-0.7,0-1.3,0.5-2,0.4c0-0.8,3-1,4.3-1.9c-0.8-0.1-2.7,1.3-2.2,0.3c-0.8,1.3-2.7,0.6-4.3,1.8l0-0.5c-0.3,0.1-0.8,0.5-1.4,0.6
						l0.8-0.8c-1.4,0.9-3,0.2-4.3,0.8c3-0.7,0.8,0.4,2.1,0.4c-3.6,1.5-2.4-0.7-6.5,0.4c0.5-0.2,2.2-0.2,1.3,0.2
						c-0.8,0.1-1.9,0.1-2.4-0.1c-2.7,0.6,0.5,0.4-0.6,0.9c-1.1-0.4-1.3,0.5-2.5,0.9l-0.1-0.5c-3.2,0.3-0.6,1.2-3.6,1.3l1.1-0.9
						c-0.5,0.1-1,0.3-1.4,0.5l0.2-0.6c-1.5,0.7-2.1,0.6-3.7,0.8c0.4,0.3-0.1,0.9-1.5,1.1c-1-0.1,0.5-0.5-1.5-0.1
						c0.4-0.4,0.8-0.8,1.8-0.5c0.1-0.2,0.4-0.4,0.5-0.5c-1.1-0.2-2.6,0.4-3.3,0.5c0.3,0,0.6-0.1,0.8,0l-2.8,1.1
						c-0.5-0.1-0.1-0.3,0.2-0.5c-0.6,0.2-1,0.4-1.8,0.6c0.2-0.4,0.1-0.8,1.2-1.2l-2.7,0.8c-0.2-0.1-1.5-0.3-1.1-0.5
						c-1.6,0-3.6,1.2-5.7,1.2c-0.1,0.1-0.3,0.2-0.7,0.3c-1.9,0.1-3.7-0.2-5.9,0.5l-1.4-0.6c-1.8,0.3,1.8,0.7-1.1,1.3
						c-2.1,0.4-0.8-0.5-1.6-0.6c-1,0.5-2.8,1.3-4.7,0.9C433,516.3,433.5,516.4,434.1,516.3z M412.2,517.6c0.4-0.1,1.3-0.5,1.6-0.2
						C413.3,518,412.9,517.8,412.2,517.6z M378.6,517.9c0.3-0.1,0.8,0,1.4,0.2C379.6,518.1,379.1,518.1,378.6,517.9z M285.7,505
						C285.8,505,285.8,505,285.7,505C286.7,505.5,286.4,505.3,285.7,505z M283.9,504.3c-0.2,0-0.2,0.1-0.2,0.2
						c0.2-0.1,0.6,0,1.1,0.2C284.7,504.5,284.5,504.4,283.9,504.3z M495.7,510l-0.4,0C496.1,509.6,495.9,509.8,495.7,510z"/>
					<path class="st0" d="M382.5,517.5c0.1,0.1,0.1,0.2,0.2,0.3C382.8,517.7,382.8,517.6,382.5,517.5z"/>
					<path class="st0" d="M447.7,514.7L447.7,514.7c0.1,0,0.1-0.1,0.1-0.1L447.7,514.7z"/>
					<path class="st0" d="M314.7,507.8c0.4,0.2,0.6,0.3,0.7,0.4C315.5,508.1,315.3,507.9,314.7,507.8z"/>
					<path class="st0" d="M273.5,502.1l1.3,0.2c-0.6-0.2-0.8-0.3-1.1-0.5C273.7,502,273.9,502.2,273.5,502.1z"/>
					<path class="st0" d="M263.8,495.9c-0.2,0-0.4-0.1-0.6-0.1l0,0.2C264,496.2,264.6,496.2,263.8,495.9z"/>
					<path class="st0" d="M272.8,500.2c0-0.4-0.8-0.5-1.7-0.7c0.1,0,0.1,0,0.2,0C270.9,500,271.9,500.1,272.8,500.2z"/>
					<path class="st0" d="M271,499.4c-0.3-0.1-0.5-0.1-0.8-0.2C270,499.4,270.5,499.3,271,499.4z"/>
					<path class="st0" d="M281.4,503.8c-0.4-0.2-0.4,0.4-0.6,0.2C280.2,504.4,283.7,504.2,281.4,503.8z"/>
					<polygon class="st0" points="272.6,498.7 272.7,499.3 273.3,499 					"/>
					<path class="st0" d="M279.2,501.1l-1.3-0.5c0,0.1-0.2,0.1-0.4,0.1C278.3,500.9,279.2,501.2,279.2,501.1z"/>
					<path class="st0" d="M277.4,500.6c-0.4-0.1-0.9-0.2-1.1-0.2C276.6,500.4,277.1,500.6,277.4,500.6z"/>
					<path class="st0" d="M274.5,499.2l0.4,0.2l1,0.3C275.3,499.5,274.9,499.3,274.5,499.2z"/>
					<path class="st0" d="M293.9,505.3l1.5,0.3c0.2-0.1-0.2-0.3-0.8-0.4C294.3,505.2,293.7,505.1,293.9,505.3z"/>
					<path class="st0" d="M289.7,502.8c0.4,0.2,0.4,0.3,0.6,0.5l0.2-0.6L289.7,502.8z"/>
					<path class="st0" d="M294.1,503.8c0.2-0.1,2.3,0.1,0.4-0.4C294.3,503.5,292.8,503.3,294.1,503.8z"/>
					<polygon class="st0" points="316.7,509.9 316.3,509.9 316.2,510.9 					"/>
					<path class="st0" d="M337.4,511.4c-1.8-0.6-0.5,0.5-2.1-0.1c-0.5,0.2,1.3,0.5,0.8,0.6C337.2,511.9,337.8,512.2,337.4,511.4z"/>
					<path class="st0" d="M336.1,512c-0.2,0-0.4,0-0.6,0.1C335.9,512,336,512,336.1,512z"/>
					<polygon class="st0" points="561.4,478.9 562.5,478.4 561.7,478.5 					"/>
					<path class="st0" d="M562.8,476.9l0.6,0.4l0.2-0.9C563.4,476.6,563.1,476.9,562.8,476.9z"/>
					<path class="st0" d="M408.9,516.4l-0.1,0.2c0.2,0.2,0.5,0.2,1,0.2L408.9,516.4z"/>
					<polygon class="st0" points="424.8,516.4 424.5,516.4 425.1,516.9 					"/>
					<path class="st0" d="M438.1,514.7c-0.5,0-1.2,0.2-1.7,0.2C437.5,514.7,438.3,515.4,438.1,514.7z"/>
				</g>
			</g>
		</g>
	</g>
</g>
<g>
	<g>
		<g>
			<g>
				<g>
					<path class="st0" d="M547.7,221.3c0-0.1-0.3,0.2-0.4,0.2C547.5,221.5,547.8,221.2,547.7,221.3z"/>
					<polygon class="st0" points="549.1,221.7 549,221.7 549.4,221.6 					"/>
					<path class="st0" d="M549.7,222.5c0.5-0.5-0.3-0.3-0.2-0.5l0.1-0.1l-0.5,0.2C549.3,222.3,549.8,222.3,549.7,222.5z"/>
					<path class="st0" d="M548.7,223.8c0.2-0.2,0.3,0,0-0.2C548.7,223.7,548.7,223.7,548.7,223.8
						C548.7,223.8,548.7,223.8,548.7,223.8z"/>
					<path class="st0" d="M548.6,223.7C548.6,223.7,548.5,223.9,548.6,223.7L548.6,223.7z"/>
					<path class="st0" d="M549.1,224.1l-0.3,0c-0.1,0.1-0.1,0.2-0.2,0.3C548.7,224.4,548.9,224.3,549.1,224.1z"/>
					<path class="st0" d="M549.6,223.9l-0.1,0C549.4,223.9,549.4,224,549.6,223.9z"/>
					<path class="st0" d="M549.2,223.9l0.3,0c0.1-0.1,0.3-0.2-0.1,0C549.5,223.8,549.3,223.9,549.2,223.9z"/>
					<path class="st0" d="M549.2,223.8c0.1-0.2,0.1-0.3,0.4-0.3C549.4,223.3,549,223.6,549.2,223.8z"/>
					<path class="st0" d="M550.3,222.2l0.1-0.2l-0.3,0.1C550.3,222,550.2,222.3,550.3,222.2z"/>
					<path class="st0" d="M549.2,225c0.1-0.1,0.3-0.3,0.5-0.4l-0.2,0C549.4,224.8,549.4,224.9,549.2,225z"/>
					<path class="st0" d="M549.7,224.6l0.3,0C549.9,224.5,549.8,224.6,549.7,224.6z"/>
					<polygon class="st0" points="550.2,223.5 549.6,223.6 550.3,223.5 					"/>
					<polygon class="st0" points="549.5,225.5 549.2,225.6 549.7,225.5 					"/>
					<path class="st0" d="M549.8,225.8c-0.3,0.1-0.4,0.3-0.6,0.4c0.1,0.1,0.4,0,0.6,0C549.7,226.2,549.6,226.1,549.8,225.8z"/>
					<path class="st0" d="M550.2,226.1c-0.1,0-0.2,0-0.4,0.1C549.9,226.2,550,226.2,550.2,226.1z"/>
					<path class="st0" d="M550.1,224.9c-0.1,0.1-0.3,0.2-0.3,0.3L550.1,224.9L550.1,224.9z"/>
					<path class="st0" d="M550.1,225L550.1,225c0,0.1,0,0.1,0,0.1C550.1,225.1,550.1,225,550.1,225z"/>
					<path class="st0" d="M550.1,224.9L550.1,224.9C550.1,224.9,550.1,224.9,550.1,224.9z"/>
					<path class="st0" d="M550.1,224.1c0.3,0,0.6,0,0.8-0.4C550.6,223.8,550.5,224,550.1,224.1z"/>
					<path class="st0" d="M550.5,224.5l0-0.2c-0.1,0.1-0.2,0.2-0.3,0.2L550.5,224.5z"/>
					<polygon class="st0" points="550.6,224.5 550.5,224.5 550.5,224.6 					"/>
					<path class="st0" d="M550.4,225.7c0.2,0,0.3,0,0.3,0.1c0-0.1,0-0.2,0-0.3C550.5,225.5,550.3,225.6,550.4,225.7z"/>
					<path class="st0" d="M550.3,225.3L550.3,225.3C550.3,225.3,550.3,225.3,550.3,225.3z"/>
					<path class="st0" d="M551.1,226.5C551.2,226.5,551.2,226.5,551.1,226.5L551.1,226.5L551.1,226.5z"/>
					<path class="st0" d="M550.7,225.4c0-0.1-0.1-0.1-0.2-0.1C550.6,225.4,550.6,225.4,550.7,225.4
						C550.7,225.4,550.7,225.4,550.7,225.4z"/>
					<path class="st0" d="M550.5,226.2c0.1-0.1,0.1-0.2,0.1-0.2C550.5,226.1,550.4,226.3,550.5,226.2z"/>
					<path class="st0" d="M550.2,225.4L550.2,225.4C550.1,225.5,550.2,225.4,550.2,225.4z"/>
					<path class="st0" d="M550.2,225.4c0.1,0,0.2,0,0.3-0.1C550.4,225.3,550.4,225.3,550.2,225.4
						C550.3,225.3,550.2,225.4,550.2,225.4z"/>
					<path class="st0" d="M553.6,225.3c-0.3,0.2-0.8,0.2-0.5-0.1c-0.3,0-1.4,0.8-1.9,1.3c0.1-0.1,0.3-0.2,0.6-0.1
						c0.2-0.2,0.2-0.6,0.6-0.6c0.3,0.1,0,0.2-0.1,0.4c0.4-0.3,0.8-0.1,1.4-0.6l-0.3,0C553.4,225.4,553.6,225.4,553.6,225.3z"/>
					<path class="st0" d="M551.1,226.2L551.1,226.2c-0.1,0.1-0.2,0.2-0.4,0.5c0.2,0,0.4-0.1,0.5-0.1L551.1,226.2L551.1,226.2z"/>
					<path class="st0" d="M550.8,225.9c0.4-0.2,0.6-0.1,1-0.5c-0.1-0.2-0.4,0.1-0.6,0.1C551.5,225.7,551,225.5,550.8,225.9
						c-0.1,0-0.1-0.1-0.1-0.1c0,0.1,0,0.2-0.1,0.2l0,0l0,0l0,0c0,0,0.1-0.1,0,0c0,0,0,0,0,0C550.7,225.9,550.8,225.9,550.8,225.9
						c0,0.1-0.1,0.1-0.1,0.1l-0.1,0l0,0l0.4,0.2C551,226,551,226,550.8,225.9z"/>
					<path class="st0" d="M551.8,223.3C551.8,223.4,551.7,223.4,551.8,223.3C551.8,223.4,551.8,223.4,551.8,223.3z"/>
					<path class="st0" d="M551.7,223.6c-0.1,0-0.2,0.1-0.2,0c0.1-0.1,0.2-0.1,0.3-0.2c-0.1,0-0.3,0-0.4,0.3l0.1,0
						c-0.1,0.2-0.4,0.6-0.5,0.6C551.2,224,551.4,223.9,551.7,223.6z"/>
					<path class="st0" d="M551.3,224.7l0.3,0.1l0.2-0.3l-0.2,0.1C551.7,224.4,551.5,224.6,551.3,224.7z"/>
					<polygon class="st0" points="551,226.6 550.6,226.8 551.2,226.6 					"/>
					<polygon class="st0" points="551.2,226.9 550.9,227.1 551.1,227.1 					"/>
					<path class="st0" d="M564.9,242.3l0.1,0C565,242.3,565,242.3,564.9,242.3z"/>
					<path class="st0" d="M564.7,241.8l-0.2,0.1C564.6,241.8,564.7,241.8,564.7,241.8z"/>
					<path class="st0" d="M555.5,234.3c-0.3,0.3-0.7,0.7-0.3,0.4l0.4-0.2C555.5,234.5,555.5,234.4,555.5,234.3z"/>
					<path class="st0" d="M560.6,238.4l0.1-0.1c-0.1,0-0.3,0.1-0.4,0.1C560.3,238.4,560.4,238.4,560.6,238.4z"/>
					<path class="st0" d="M562.2,237.7L562,238C562.1,237.9,562.2,237.8,562.2,237.7z"/>
					<path class="st0" d="M566.6,245.1l0.4-0.1C567,244.9,566.8,245,566.6,245.1z"/>
					<path class="st0" d="M553.2,229.9c-0.1,0.2-0.1,0.3-0.1,0.3C553.2,230,553.5,229.8,553.2,229.9z"/>
					<path class="st0" d="M560.6,244c0.1,0,0.2,0,0.3,0C560.8,244,560.7,244,560.6,244z"/>
					<path class="st0" d="M553.2,230.5C553.3,230.5,553.3,230.4,553.2,230.5c0-0.1-0.1-0.2-0.1-0.2
						C553,230.4,552.9,230.6,553.2,230.5z"/>
					<path class="st0" d="M570.5,256.1C570.5,256.2,570.5,256.2,570.5,256.1C570.5,256.2,570.5,256.2,570.5,256.1z"/>
					<path class="st0" d="M567.5,260.7c0,0-0.1-0.1-0.1-0.1C567.4,260.6,567.4,260.7,567.5,260.7z"/>
					<path class="st0" d="M551.8,228.2C551.7,228.2,551.7,228.2,551.8,228.2L551.8,228.2z"/>
					<path class="st0" d="M553.1,227c0,0,0.1,0,0.2-0.1C553.2,227,553.1,227,553.1,227z"/>
					<path class="st0" d="M555.9,229.8L555.9,229.8C556,229.8,556,229.8,555.9,229.8z"/>
					<path class="st0" d="M551.9,228c0,0.1-0.1,0.1-0.1,0.1C551.8,228.1,551.9,228.1,551.9,228z"/>
					<path class="st0" d="M551.7,228.1C551.7,228.1,551.7,228.1,551.7,228.1C551.7,228.1,551.6,228.1,551.7,228.1z"/>
					<path class="st0" d="M551.8,228.3c0,0,0-0.1,0-0.1C551.8,228.2,551.8,228.2,551.8,228.3C551.8,228.2,551.8,228.2,551.8,228.3z"
						/>
					<path class="st0" d="M567.3,250.7C567.3,250.7,567.3,250.7,567.3,250.7C567.4,250.7,567.4,250.7,567.3,250.7z"/>
					<path class="st0" d="M560.4,234C560.4,234,560.4,234,560.4,234L560.4,234L560.4,234z"/>
					<path class="st0" d="M560.8,234c-0.5,0.1-0.5,0.1-0.4-0.1l-1.1,0.7L560.8,234z"/>
					<path class="st0" d="M565.6,243.6l0.3-0.3c0.7,0,0.5,0.2,1-0.2c-1.3,0.5-0.4-0.6-1.7-0.1l0.2-0.2c0,0,0.1,0,0.1,0
						c0.5-0.5-1,0.2-0.9-0.1c0-0.1,0.2-0.3,0.4-0.3l-0.4-0.1c0-0.1,0.2-0.2,0.2-0.1l-0.3-0.3l0,0c-0.2,0-0.6,0.1-0.7,0.1
						c0.1-0.2,0.2,0,0.3-0.1l-0.4-0.1c0.3-0.2,0.7-0.2,0.7-0.1c1.2-0.7-0.4,0,0.2-0.7l0.2,0.1c0.6-0.4,0.3-0.5,0.7-0.9
						c-0.2,0.2-0.9,0.9-1.3,0.9c0.1-0.1,0.1-0.2-0.2-0.2c0.4-0.2,0.3-0.3,0.2-0.4l0.6-0.3c-0.2-0.1-0.5,0.1-0.8,0.1
						c0-0.2,0.4-0.4,0.8-0.7c0-0.3-0.6,0.5-0.9,0.3c0.1-0.3-0.2-0.4-0.7-0.5c0.1-0.2,0.4-0.1,0.5-0.3l-0.5,0.1c0,0,0.1-0.1,0.2-0.1
						c-0.2,0-0.6,0.3-0.8,0.2c-0.7,0.3,0.8-0.8-0.1-0.7c0.1-0.1,0.4-0.1,0.6-0.3c-0.6-0.1-0.5-0.1-1.2,0l0.3-0.4
						c-0.4,0.4-1,0.4-1.5,0.5c-0.2,0.2-0.3,0.3-0.4,0.4l-0.4-0.1c0.1-0.1,0.3-0.1,0.6-0.2c-0.1,0-0.1,0-0.2,0
						c0.2-0.2,0.5-0.3,0.9-0.4c-0.1,0.1-0.2,0.2-0.3,0.3c0.4-0.1,0.8-0.2,1.1-0.4c-0.1,0-0.1,0-0.2,0c0.1,0,0.2-0.1,0.2-0.1
						c0.1,0-0.1,0-0.3,0l0.6-0.4l-0.3,0.1l0.2-0.6c-0.8,0.1-1.8,0.3-2.3,0c0.5-0.1,0.8-0.4,1.3-0.6c-0.5,0.4,0.4,0.2,0.4,0.5
						c0-0.1,0.3-0.2,0.4-0.3l-0.7-0.1c0.5-0.2,0.3-0.3,0.4-0.4c-0.9,0.5-0.7,0-1.1,0c0.3-0.2,0.6-0.3,0.6-0.1
						c0.6-0.5-1.2,0.3-0.7-0.2c0,0,0,0.1,0.2,0c-0.3,0-0.2-0.3,0-0.4l0,0c0-0.4-0.5-0.9-1.2-0.6c0.1-0.1,0.9-0.4,1.1-0.5l-2.8,0.8
						c0.7-0.3,2.1-1.3,2.6-1.2c0.1-0.1,0.1-0.3-0.2-0.3c-0.1,0.1-0.9,0.6-1,0.6c0.6-0.6,0.3-0.3,0.8-0.9c-0.1,0.1-1.2,0.6-1.2,0.5
						c0.2-0.1,1-0.5,1.1-0.6l-1.1,0.2c0.2,0,0.8-0.4,1.1-0.6c-0.2,0.1-0.1-0.3-0.3-0.3l-0.2,0.2c0-0.4-1.6,0.4-1.7,0.1
						c0.2-0.1,1.3-0.6,1.3-0.8c-0.5,0.2-2.6,1-3.2,0.9l0.3-0.2l-0.4,0c0.8-0.3,2.6-0.8,3.4-0.9c0.2-0.2,0.3-0.2,0.2-0.4
						c0.2-0.2,0.5-0.1,0.5-0.1l-0.1-0.5c-0.6,0.3-0.8,0-1.2,0.3l0.9,0.1c-0.6,0.3-1.8,0.7-1.9,0.3c0.2-0.2,1.1-0.5,1.3-0.6
						c-0.2,0.1-0.5-0.1-0.4-0.2l0.4,0c0.1-0.3-0.9,0.2-0.5-0.3c0-0.1,0.6-0.6,0.3-0.4c-0.6,0.5-2.7,1.7-3.2,1.9c0,0,0.4-0.7,0.7-1
						c0.5-0.4,1.3-0.5,1.7-0.9c-0.2,0.1-0.4,0.1-0.5,0.1c0.1-0.1,0.5-0.2,0.4-0.4c-0.6,0.3-0.1-0.3-0.5,0.2c-0.3-0.1,0-0.2-0.1-0.4
						c-0.4,0.3-1.4,0.6-1.6,0.5c0.2-0.1,0.3-0.2,0.4-0.3c-0.1-0.3,0.1-0.7-0.1-0.9c0.1-0.1,0.2-0.3,0.5-0.4c-0.1,0-0.4,0.1-0.4,0
						c0.4-0.5,0.2,0.2,0.7-0.3c-0.3,0.2-0.6,0-0.9,0c-0.5,0.3,0.1,0.3,0.4,0.4c-0.7,0.4-1.6,0.6-2.1,0.5c-0.3-0.1,0.4-0.4,0.3-0.4
						c-0.1-0.5-1.5,0.4-1.2-0.3c0.4-0.4,0.9-0.6,1.2-0.8c0.3,0.1-0.1,0.5,0,0.6l0.1-0.3c0.2,0,0.4,0,0.3,0.2
						c0.3-0.4-0.4-0.8-0.2-1.4c-0.2,0-0.4,0-0.6,0.2l0.1,0.1c-0.3,0.3-0.6,0.1-0.7,0.3c-0.3,0-0.9,0.1-0.8-0.2l0.5-0.4
						c-0.2,0.1-0.2,0.3,0,0.3c-0.3,0.1,0.5-0.7-0.2-0.4l-0.3,0.4c-0.4,0-1,0.2-1-0.1c-0.5,0.4,0.1,0-0.4,0.5
						c0.7-0.6,0.2,0.5,0.9-0.2c-0.6,0.6-0.2,0.4-0.7,0.9c0.2-0.1,0.3-0.3,0.3-0.1c0.1,0,0.1,0,0.2-0.1l0,0l0,0c0,0,0,0,0,0
						c0.1-0.1,0.1-0.2,0.2-0.2c0.4-0.2,0.6,0.1,0.8,0c0,0.1-0.2,0.1-0.4,0.2l0.4-0.1c-0.4,0.2-0.5,0.6-0.9,0.5l0.1,0.2
						c-0.2,0.2-0.1,0.4,0.1,0.4c0,0.1,0.6,0,0.2,0.1l0.4,0.2l-0.1,0.1c0.1,0.3,1,0.2,0.5,1c0.2,0,0.3,0.1,0.3,0.3l-0.3,0.2
						c0.2,0.1-0.1,0.6,0.3,0.4c-0.8,0.7,0.1,0.7,0.1,1l0.4-0.2c0.1,0.2,0.3,0.2,0.6,0.3l0.4-0.2c0.4,0,0,0.6,0.1,0.8
						c-0.2,0.1-0.2,0-0.1-0.1c-0.7,0.8,1,0.3,0.5,1c0.2,0,0.2,0.1,0.1,0.2c0,0,0,0,0,0c0,0,0,0,0,0c-0.1,0.1-0.1,0.1-0.2,0.2
						c0.1-0.1,0.1-0.2,0.2-0.2c0,0.1,0.1,0.1,0.3,0.1l-0.4,0.3c0,0,0,0,0,0c-0.1,0.2,0.2,0,0.5-0.3c0.1,0,0.2,0,0.3,0
						c-0.7,0.4,0.3,0.1-0.3,0.6c0.4-0.1,0.5,0.3,1.3-0.1c-0.1,0.1-0.1,0.1-0.2,0.1c0,0.1-0.1,0.3,0.2,0.2l-0.5,0.3l0.8-0.2
						c-0.3,0.3-0.4,0.4-0.9,0.5c0.8,0,0.4,0.1,1.1,0l-0.4,0.2c0.1,0.1,0.6,0,0.3,0.2c-0.6,0.5,0.4,1,0.1,1.9c1-0.6-0.3,0.5,0.5,0.1
						c-0.2,0.2-0.3,0.3-0.6,0.3c0.4,0.1-0.2,0.6,0.6,0.4c-0.2,0.2-0.4,0.1-0.5,0.2c0.1,0,0.3,0,0.1,0.1c-0.1,0.1-0.2,0.1-0.4,0.1
						c0.2,0.2,0.9-0.1,1.7-0.4c-0.3,0.3-0.2,0.3,0.3,0.2c-0.2,0.2-0.4,0.4-0.6,0.2c0,0.1-0.1,0.7,0.5,0.5c-0.1,0.1,0,0.2,0.1,0.1
						c0.1,0.2,0,0.3,0.2,0.5l0.1-0.1c0.7-0.3,0.2,0.1,0.4,0.2l-0.1,0c-0.3,0.6,0.3,0.1-0.1,0.7l0.4-0.2c0.9-0.4-0.4,0.6,0.1,0.7
						l0.2-0.2c0.4,0-1.1,0.9-1.2,1.1c-0.1,0.1-0.1,0-0.2,0c-0.4,0.6,0.6-0.2,0.8,0c-0.3,0.2-0.8,0.3-0.8,0.5c-0.2,0.2,1.2,0,0.7,0.5
						c0.2-0.2,0.4-0.3,0.7-0.3c0.2,0.1-0.7,0.9,0.1,0.7c-0.1,0.1-0.1,0.1-0.2,0.1c0.3,0,0.5,0.3,1,0.2c-1.5,0.8,1.1,0.5-0.3,1.1
						l0.3,0.4l-0.1,0.1c0,0.3,0.4,0.2,0.8,0.2c-0.1,0.1-0.2,0.1-0.3,0.1c-0.1,0.5,0,0.5,0.8,0.5l-0.4,0.2c0.3,0-0.5,0.8,0.2,1
						c-0.1,0-0.1,0-0.2,0c0.7,0.2-0.9,1.5,0.9,1l0.5,0.1c0-0.4,0.7-0.2,1-0.5c0.2,0.1-0.4,0.6-0.5,0.4l0.1-0.1
						c-0.9,0.3-0.1,0.6-0.7,0.8c0.3,0.7,0.1,1.6,0.3,2.2l0.7-0.3l0.1,0.2c-0.1,0.1-0.5,0.3-0.5,0.1c-0.4,0.2,0.4,0.1,0.6,0.1
						c-0.1,0.4-0.8,0.2-0.8,0.3l0.1,0.1l0.1-0.1c0.3,0,0.6-0.1,0.7,0.1c-0.1,0.2-0.4,0.2-0.4,0.3c0,0-0.1,0,0,0.1l0.1,0.3l0.5-0.3
						c0.3,0,0.1,0.3,0.6-0.1c-0.9,0.6,0.1,1.2-0.2,1.5c0.5,0,0.5,0.2,0.6,0.5c0.1-0.1,0.7-0.4,0.7-0.1c-1.3,0.4-0.4,0.6-1.3,1
						c0.6-0.4,0.3,0.5,1.1,0c0,0.2-0.5,0.2-0.7,0.4c0.6,0.2,0,1,0.3,1.4c0.2-0.1,0.4-0.2,0.7-0.2l-0.7,0.5c0.1,0.1,1-0.2,0.5,0.1
						c0.1-0.1,0.3-0.2,0.4-0.1c-0.5,1.2,1.3,1.7,0.1,3.1c0.3-0.2,0.3-0.2,0.4-0.1c0.1-0.1,0.4-0.1,0.6-0.2l-0.5,0.6
						c0.7-0.1,0.2,0.4,0.8,0.3l-0.1-0.1c0.8-0.1,1.5-0.7,2.4-1c-0.9,0.1,1-0.9-0.2-0.8c0.2-0.1,0.3,0,0.5-0.1c-0.4,0-0.5,0-0.4-0.3
						l0.1,0c-0.3-0.5,0.1-0.8,0.1-1.5l-0.4,0.2c0-0.1,0.2-0.2,0.2-0.3c-0.7,0.1,0.1,0.4-0.7,0.5c0.9-0.5-0.3-0.9,0.7-1.3
						c-0.1-0.2-0.5,0.2-0.6,0l0.3-0.1l-0.4,0.1c0-0.1,0.3-0.3,0.6-0.4c0,0,0.1,0.1,0.1,0.1c0.3-0.3-0.3-0.4-0.2-0.5l-0.1,0.2
						c-0.4-0.4-0.3-1.2-1-1.4l-0.2,0.1c-0.5-0.2,0.1-0.4-0.2-0.7l0.1,0c-0.2,0-0.4-0.1-0.4-0.2c0.3,0,0.4-0.4,0.7-0.3
						c-0.6-0.2-0.4-0.1-1.3-0.1l0.3-0.2c-0.3,0-0.5,0.1-0.7-0.1c0.4,0.1,0.5-0.3,0.9-0.3c0.6-0.7-1-0.3,0-1c-1,0.2-0.4,0.6-0.6,0.5
						c-0.3,0.2-0.8,0.1-0.7-0.1c0-0.1,1.1-0.7,1-1c0,0,0.1,0,0.1,0c0.2-0.2-0.4-0.1-0.1-0.4c-0.6,0.1,0-0.2-0.8,0l0.3,0.2
						c-0.3-0.1-1.2,0.1-0.9-0.4c0.2,0,0.4,0,0.5,0c0.2-0.2-0.2-0.1,0-0.3c0.7-0.3,0.3,0.3,0.9,0.3c0.3-0.2-0.7-0.2,0.2-0.4
						c-1.1,0.3,0-0.4-0.9-0.3l0.4-0.2c-0.1,0-0.3,0-0.3-0.1l0.6-0.1c-0.6,0,0.3-0.5-0.1-0.6c0.2,0.4-0.5,0.3-0.8,0.6
						c-0.8-0.2,1-0.7,0.6-1.2c0.1,0-0.2,0.4-0.4,0.3c0.1-0.1,0.2-0.3,0.4-0.5c-0.2-0.3-0.4,0.2-0.8,0.2c0.5-0.3-0.3-0.1-0.5-0.2
						l0.4-0.2c0.1-0.5-1,0.3-0.8-0.2l0.7-0.1l-0.2-0.1l0.5-0.2c-0.5,0-0.4-0.1-0.3-0.4c-0.3,0.2-0.8,0.3-0.9,0.1
						c0.2-0.2,0.5-0.1,0.3-0.3c0.3-0.1,0.7-0.1,0.3,0.1c0.1,0,0.3-0.1,0.5-0.1c0.3-0.3-0.1-0.3-0.1-0.4c0,0,0,0.1-0.1,0.1l-0.8-0.1
						c0.1-0.1,0.3-0.1,0.4-0.1c-0.1-0.1-0.3,0-0.4-0.1c0.4-0.1,0.7-0.3,1-0.2l-0.5-0.2c0.1-0.1,0.4-0.4,0.5-0.4
						c0.1-0.3-0.9-0.2-0.7-0.5c-0.1,0-0.2,0-0.2,0c0-0.3,0.3-0.7-0.3-0.7l0.6-0.4c-0.2-0.2-0.7,0.6-1.1,0.3
						c-0.3-0.2,0.5-0.3,0.6-0.5c-0.4,0-1.1,0.1-0.7-0.4C565.6,243.4,565.5,243.5,565.6,243.6z M564.1,241.1c0.1,0,0.4,0,0.2,0.1
						C563.8,241.4,564,241.2,564.1,241.1z M561.2,237.6c0.2,0,0.1,0.1,0,0.2C561.1,237.8,561.1,237.8,561.2,237.6z M552.5,228.7
						C552.5,228.7,552.5,228.7,552.5,228.7C552.5,228.9,552.5,228.8,552.5,228.7z M552.6,228.4c-0.1,0-0.1,0-0.2,0.1
						c0.1,0,0.2,0,0.2,0.1C552.7,228.5,552.7,228.4,552.6,228.4z M564.5,252.6l0.1-0.1C564.8,252.6,564.7,252.6,564.5,252.6z"/>
					<path class="st0" d="M562,237.8c-0.1,0.1-0.1,0.1-0.2,0.1C561.9,237.9,561.9,237.9,562,237.8z"/>
					<path class="st0" d="M566.6,245.1C566.5,245.1,566.5,245.1,566.6,245.1L566.6,245.1L566.6,245.1z"/>
					<path class="st0" d="M558.1,229.8c0,0.1-0.1,0.1-0.2,0.2C558,229.9,558.1,229.8,558.1,229.8z"/>
					<path class="st0" d="M551.2,227.7l0.2,0.1c-0.1-0.1,0-0.1,0.1-0.2C551.4,227.6,551.2,227.7,551.2,227.7z"/>
					<path class="st0" d="M553,224.9C552.9,224.9,553,224.9,553,224.9l-0.3,0.1C552.8,225.1,553,225.1,553,224.9z"/>
					<path class="st0" d="M552.5,226.7c0.3-0.2,0.2-0.2,0-0.3c0,0,0,0,0,0C552,226.7,552.3,226.7,552.5,226.7z"/>
					<path class="st0" d="M552.5,226.4C552.5,226.4,552.4,226.4,552.5,226.4C552.2,226.4,552.4,226.4,552.5,226.4z"/>
					<path class="st0" d="M552.2,228.3c0.1-0.1-0.5,0.2-0.3,0.1C551.4,228.6,552.6,228.4,552.2,228.3z"/>
					<polygon class="st0" points="553.6,225.9 553.2,226.2 553.6,226.1 					"/>
					<path class="st0" d="M553.7,226.9l0-0.2c-0.1,0-0.1,0.1-0.2,0C553.6,226.8,553.6,227,553.7,226.9z"/>
					<path class="st0" d="M553.6,226.7c0-0.1-0.1-0.1-0.1-0.1C553.5,226.7,553.5,226.7,553.6,226.7z"/>
					<polygon class="st0" points="553.8,226.1 553.8,226.2 553.8,226.3 					"/>
					<path class="st0" d="M554.6,228.6l0.2,0.1c0.2-0.1,0.2-0.2,0.1-0.2C554.9,228.6,554.8,228.5,554.6,228.6z"/>
					<path class="st0" d="M555.5,227.4c-0.1,0.1-0.2,0.2-0.3,0.3l0.5-0.3L555.5,227.4z"/>
					<path class="st0" d="M555.9,227.9c0.2-0.1,0.6,0,0.4-0.2C556.2,227.7,556,227.6,555.9,227.9z"/>
					<polygon class="st0" points="556.8,230.9 556.7,230.8 555.8,231.3 					"/>
					<path class="st0" d="M560.2,232c0.1-0.3-0.6,0.2-0.4-0.1c-0.2,0.1-0.1,0.3-0.3,0.3C559.7,232.3,559.6,232.4,560.2,232z"/>
					<path class="st0" d="M559.4,232.3c0,0-0.1,0-0.2,0C559.3,232.3,559.4,232.3,559.4,232.3z"/>
					<polygon class="st0" points="567.1,261.4 566.9,261.6 567.2,261.4 					"/>
					<path class="st0" d="M567.9,261.5l-0.6,0.2l0.6-0.1C567.9,261.6,567.8,261.5,567.9,261.5z"/>
					<path class="st0" d="M565.1,240.1l-0.1,0.1c-0.1,0.1-0.1,0.1-0.1,0.2L565.1,240.1z"/>
					<polygon class="st0" points="565.6,242.2 565.6,242.2 565.1,242.5 					"/>
					<path class="st0" d="M567,243.5c0-0.1-0.2-0.1-0.2-0.2C567,243.5,566.3,243.9,567,243.5z"/>
				</g>
			</g>
		</g>
	</g>
</g>
<g>
	<g>
		<g>
			<g>
				<g>
					<path class="st0" d="M594.3,170.9c0-0.1-0.4,0-0.5,0C594,171,594.4,170.8,594.3,170.9z"/>
					<polygon class="st0" points="595.5,171.8 595.3,171.8 595.7,171.9 					"/>
					<path class="st0" d="M595.7,172.9c0.7-0.2-0.2-0.4,0-0.6l0.2-0.1l-0.6,0C595.4,172.4,595.9,172.7,595.7,172.9z"/>
					<path class="st0" d="M594.3,173.7c0.3-0.1,0.3,0.1,0.1-0.2c0,0,0,0-0.1,0C594.3,173.7,594.3,173.7,594.3,173.7z"/>
					<path class="st0" d="M594.3,173.6C594.3,173.5,594.1,173.8,594.3,173.6L594.3,173.6z"/>
					<path class="st0" d="M594.6,174.1l-0.3-0.1c-0.2,0.1-0.2,0.2-0.3,0.2C594.2,174.3,594.3,174.3,594.6,174.1z"/>
					<path class="st0" d="M595.1,174.1l-0.1-0.1C594.9,174.1,594.9,174.1,595.1,174.1z"/>
					<path class="st0" d="M594.7,174l0.3,0.1c0.1,0,0.3-0.1-0.1-0.1C595.1,174,594.9,174,594.7,174z"/>
					<path class="st0" d="M594.8,173.9c0.1-0.1,0.2-0.2,0.5-0.1C595.1,173.5,594.7,173.6,594.8,173.9z"/>
					<path class="st0" d="M596.4,172.8l0.2-0.2l-0.3,0C596.5,172.6,596.2,172.8,596.4,172.8z"/>
					<path class="st0" d="M594.4,175.1c0.2,0,0.4-0.1,0.6-0.2l-0.2-0.1C594.7,174.9,594.6,175.1,594.4,175.1z"/>
					<path class="st0" d="M595,174.9l0.3,0.1C595.3,174.9,595.1,174.9,595,174.9z"/>
					<polygon class="st0" points="595.9,174 595.3,173.9 595.9,174.1 					"/>
					<polygon class="st0" points="594.5,175.7 594.2,175.7 594.7,175.8 					"/>
					<path class="st0" d="M594.7,176.1c-0.3,0-0.5,0.2-0.7,0.2c0.1,0.1,0.3,0.1,0.6,0.2C594.5,176.4,594.5,176.3,594.7,176.1z"/>
					<path class="st0" d="M595,176.6c-0.1,0-0.2-0.1-0.4-0.1C594.7,176.5,594.8,176.6,595,176.6z"/>
					<path class="st0" d="M595.3,175.3c-0.1,0-0.3,0.1-0.4,0.2L595.3,175.3C595.3,175.4,595.3,175.4,595.3,175.3z"/>
					<path class="st0" d="M595.3,175.4L595.3,175.4c0,0.1,0,0.1,0,0.1C595.3,175.5,595.3,175.5,595.3,175.4z"/>
					<path class="st0" d="M595.3,175.3L595.3,175.3C595.3,175.3,595.3,175.3,595.3,175.3z"/>
					<path class="st0" d="M595.6,174.5c0.3,0,0.5,0.2,0.9-0.1C596.2,174.4,596,174.6,595.6,174.5z"/>
					<path class="st0" d="M595.8,175.1l0.1-0.2c-0.1,0-0.3,0.1-0.4,0.1L595.8,175.1z"/>
					<polygon class="st0" points="595.9,175.2 595.8,175.1 595.7,175.2 					"/>
					<path class="st0" d="M595.3,176.2c0.2,0,0.2,0.1,0.3,0.2c0.1-0.1,0.1-0.2,0.1-0.3C595.5,176.1,595.2,176.1,595.3,176.2z"/>
					<path class="st0" d="M595.3,175.8L595.3,175.8C595.4,175.8,595.4,175.8,595.3,175.8z"/>
					<path class="st0" d="M595.8,177.3C595.8,177.3,595.8,177.3,595.8,177.3L595.8,177.3L595.8,177.3z"/>
					<path class="st0" d="M595.7,176c0.1-0.1,0-0.1-0.2-0.1C595.6,175.9,595.6,176,595.7,176C595.7,176,595.7,176,595.7,176z"/>
					<path class="st0" d="M595.2,176.8c0.1-0.1,0.1-0.1,0.2-0.2C595.3,176.7,595.1,176.8,595.2,176.8z"/>
					<path class="st0" d="M595.2,175.9L595.2,175.9C595.1,175.9,595.2,175.9,595.2,175.9z"/>
					<path class="st0" d="M595.2,175.9c0.1,0,0.2,0,0.3,0c0,0-0.1-0.1-0.2-0.1C595.3,175.8,595.3,175.8,595.2,175.9z"/>
					<path class="st0" d="M598.5,177c-0.4,0.1-0.8,0-0.4-0.3c-0.3-0.1-1.6,0.3-2.2,0.6c0.2,0,0.3-0.1,0.6,0c0.2-0.1,0.4-0.5,0.8-0.4
						c0.2,0.2-0.1,0.2-0.3,0.4c0.5-0.2,0.8,0.1,1.5-0.1l-0.3-0.1C598.2,177,598.4,177,598.5,177z"/>
					<path class="st0" d="M595.8,176.9L595.8,176.9c-0.1,0-0.3,0.1-0.5,0.3c0.2,0.1,0.4,0.1,0.5,0L595.8,176.9L595.8,176.9z"/>
					<path class="st0" d="M595.7,176.5c0.4,0,0.7,0.1,1.1-0.1c-0.1-0.2-0.4-0.1-0.6-0.1C596.3,176.6,595.9,176.2,595.7,176.5
						c0-0.1-0.1-0.1-0.1-0.2c0,0.1-0.1,0.1-0.2,0.2l0,0l0,0l0,0c0,0,0.1,0,0.1,0c0,0,0,0,0,0C595.6,176.6,595.6,176.6,595.7,176.5
						c-0.1,0.1-0.1,0-0.2,0l-0.1,0l0,0l0.3,0.3C595.8,176.8,595.8,176.7,595.7,176.5z"/>
					<path class="st0" d="M597.4,174.4C597.4,174.4,597.3,174.4,597.4,174.4C597.4,174.5,597.4,174.5,597.4,174.4z"/>
					<path class="st0" d="M597.2,174.6c-0.1,0-0.2,0-0.2-0.1c0.1-0.1,0.2,0,0.3-0.1c-0.1,0-0.3-0.1-0.5,0.1l0.1,0
						c-0.1,0.2-0.6,0.5-0.7,0.4C596.6,174.9,596.8,174.8,597.2,174.6z"/>
					<path class="st0" d="M596.5,175.6l0.3,0.2l0.3-0.2l-0.2,0.1C597,175.4,596.7,175.5,596.5,175.6z"/>
					<polygon class="st0" points="595.6,177.4 595.1,177.4 595.8,177.4 					"/>
					<polygon class="st0" points="595.7,177.7 595.3,177.8 595.6,177.8 					"/>
					<path class="st0" d="M605.7,196.5l0.1,0C605.8,196.5,605.8,196.5,605.7,196.5z"/>
					<path class="st0" d="M605.6,195.9l-0.2,0C605.5,196,605.6,195.9,605.6,195.9z"/>
					<path class="st0" d="M597.9,186.5c-0.3,0.2-0.8,0.5-0.4,0.4l0.4-0.1C597.8,186.7,597.8,186.6,597.9,186.5z"/>
					<path class="st0" d="M602,191.8c0,0,0.1,0,0.1-0.1c-0.2,0-0.3,0-0.4,0C601.8,191.8,601.9,191.8,602,191.8z"/>
					<path class="st0" d="M603.8,191.4l-0.2,0.2C603.6,191.6,603.7,191.5,603.8,191.4z"/>
					<path class="st0" d="M607.1,199.5l0.4,0C607.5,199.3,607.3,199.4,607.1,199.5z"/>
					<path class="st0" d="M596.7,181.4c-0.1,0.1-0.2,0.2-0.2,0.3C596.7,181.5,597.1,181.3,596.7,181.4z"/>
					<path class="st0" d="M601.2,197.6c0.1,0,0.2,0,0.3,0C601.4,197.5,601.3,197.5,601.2,197.6z"/>
					<path class="st0" d="M596.6,182C596.6,181.9,596.7,181.9,596.6,182c0-0.1-0.1-0.2-0.1-0.3C596.4,181.8,596.3,181.9,596.6,182z"
						/>
					<path class="st0" d="M610.5,210.8C610.5,210.8,610.5,210.8,610.5,210.8C610.5,210.8,610.5,210.8,610.5,210.8z"/>
					<path class="st0" d="M607.5,215.5c0,0-0.1-0.1-0.1-0.1C607.4,215.4,607.4,215.5,607.5,215.5z"/>
					<path class="st0" d="M595.9,179.2C595.8,179.1,595.8,179.2,595.9,179.2L595.9,179.2z"/>
					<path class="st0" d="M597.4,178.4c0.1,0,0.1,0,0.2,0C597.5,178.4,597.5,178.5,597.4,178.4z"/>
					<path class="st0" d="M599.4,182.1L599.4,182.1C599.5,182.1,599.5,182.1,599.4,182.1z"/>
					<path class="st0" d="M596,179c0,0-0.1,0.1-0.1,0.1C595.9,179.2,596,179.1,596,179z"/>
					<path class="st0" d="M595.8,179.1C595.8,179.1,595.8,179.1,595.8,179.1C595.8,179,595.7,179.1,595.8,179.1z"/>
					<path class="st0" d="M595.9,179.3c0,0,0-0.1,0-0.1c0,0,0,0-0.1,0C595.9,179.2,595.9,179.3,595.9,179.3z"/>
					<path class="st0" d="M607.4,205.2C607.4,205.2,607.3,205.2,607.4,205.2C607.5,205.2,607.5,205.2,607.4,205.2z"/>
					<path class="st0" d="M602.8,187.3C602.8,187.3,602.8,187.3,602.8,187.3L602.8,187.3L602.8,187.3z"/>
					<path class="st0" d="M603.2,187.5c-0.6,0-0.5-0.1-0.4-0.2l-1.2,0.4L603.2,187.5z"/>
					<path class="st0" d="M606.2,197.8l0.3-0.3c0.7,0,0.5,0.3,1-0.1c-1.3,0.4-0.3-0.7-1.7-0.3l0.2-0.2c0,0,0.1,0,0.1,0.1
						c0.6-0.4-1,0.1-0.9-0.3c0.1-0.1,0.2-0.3,0.4-0.2l-0.4-0.1c0-0.1,0.2-0.1,0.2-0.1l-0.2-0.3l0,0c-0.2,0-0.6,0-0.7,0
						c0.2-0.1,0.2,0,0.3-0.1l-0.4-0.1c0.3-0.2,0.7-0.1,0.7,0c1.2-0.6-0.4-0.1,0.3-0.7l0.2,0.1c0.7-0.3,0.4-0.4,0.8-0.8
						c-0.2,0.1-1,0.8-1.4,0.6c0.1-0.1,0.1-0.2-0.2-0.2c0.5-0.1,0.3-0.2,0.2-0.4l0.6-0.2c-0.2-0.1-0.5,0-0.8,0c0-0.2,0.5-0.4,0.9-0.5
						c0-0.3-0.7,0.4-0.9,0.1c0.2-0.3-0.1-0.4-0.6-0.6c0.2-0.2,0.4-0.1,0.5-0.2l-0.5,0c0,0,0.2-0.1,0.2-0.1c-0.2-0.1-0.6,0.2-0.8,0
						c-0.7,0.1,0.9-0.7,0-0.7c0.2-0.1,0.4-0.1,0.6-0.2c-0.6-0.2-0.4-0.2-1.2-0.3l0.3-0.3c-0.4,0.3-1,0.2-1.5,0.2
						c-0.2,0.1-0.4,0.2-0.5,0.3l-0.4-0.2c0.1-0.1,0.3-0.1,0.6-0.1c-0.1,0-0.1,0-0.2,0c0.2-0.2,0.6-0.2,0.9-0.2
						c-0.1,0.1-0.2,0.1-0.4,0.2c0.4,0,0.8-0.1,1.2-0.2c-0.1,0-0.1,0-0.2-0.1c0.1,0,0.2,0,0.3,0c0.1,0-0.1,0-0.3,0l0.7-0.3l-0.3,0.1
						l0.3-0.5c-0.8-0.1-1.9-0.1-2.3-0.4c0.5,0,0.8-0.2,1.4-0.4c-0.6,0.3,0.4,0.3,0.3,0.5c0-0.1,0.3-0.2,0.4-0.2l-0.7-0.3
						c0.5-0.1,0.3-0.2,0.5-0.4c-0.9,0.3-0.7-0.1-1.1-0.2c0.3-0.1,0.7-0.1,0.6,0.1c0.7-0.4-1.2,0-0.7-0.4c0,0,0,0.1,0.1,0.1
						c-0.3,0-0.2-0.4,0.1-0.4l0,0c0-0.4-0.3-1-1.1-0.8c0.1,0,1-0.2,1.2-0.2l-2.9,0.1c0.7-0.1,2.3-0.8,2.8-0.6
						c0.1-0.1,0.2-0.2-0.1-0.3c-0.1,0.1-1,0.4-1.1,0.3c0.7-0.4,0.4-0.3,1-0.7c-0.1,0.1-1.3,0.3-1.3,0.2c0.2,0,1.1-0.3,1.2-0.3
						l-1.2,0c0.2,0,0.9-0.2,1.2-0.4c-0.2,0.1-0.1-0.3-0.2-0.3l-0.2,0.2c0.1-0.4-1.6,0-1.7-0.3c0.2,0,1.4-0.2,1.5-0.5
						c-0.6,0.1-2.8,0.3-3.3,0.1l0.3-0.1l-0.4-0.2c0.9-0.1,2.8-0.1,3.5,0c0.2-0.2,0.4-0.1,0.3-0.3c0.3-0.1,0.5,0,0.5,0l0.1-0.5
						c-0.6,0.2-0.7-0.2-1.3,0l0.8,0.3c-0.6,0.2-1.9,0.2-1.9-0.2c0.2-0.2,1.2-0.2,1.4-0.3c-0.2,0-0.5-0.2-0.4-0.3l0.4,0.1
						c0.2-0.2-0.9-0.1-0.4-0.5c0-0.1,0.8-0.4,0.4-0.4c-0.7,0.3-3,0.9-3.6,1c0,0,0.6-0.6,1-0.8c0.6-0.3,1.4-0.2,1.9-0.4
						c-0.2,0-0.4,0-0.5,0c0.1-0.1,0.6-0.1,0.4-0.3c-0.7,0.1,0-0.4-0.6,0.1c-0.2-0.1,0.1-0.2,0-0.4c-0.4,0.2-1.5,0.2-1.7,0
						c0.2,0,0.4-0.1,0.5-0.2c0-0.4,0.2-0.6,0.2-1c0.2-0.1,0.3-0.3,0.6-0.3c-0.1,0-0.4,0-0.4-0.1c0.5-0.3,0.1,0.2,0.8-0.1
						c-0.4,0.1-0.6-0.1-0.9-0.2c-0.6,0.2,0,0.4,0.2,0.5c-0.8,0.2-1.7,0.2-2.2-0.1c-0.3-0.2,0.5-0.2,0.4-0.3c0-0.6-1.5-0.1-1-0.7
						c0.5-0.3,1-0.3,1.4-0.4c0.3,0.2-0.2,0.4-0.2,0.6l0.2-0.2c0.2,0,0.4,0.1,0.2,0.3c0.4-0.3-0.1-0.9,0.2-1.4c-0.2,0-0.4-0.1-0.6,0
						l0.1,0.1c-0.4,0.2-0.6-0.1-0.8,0.1c-0.3-0.1-0.8-0.2-0.7-0.5l0.6-0.2c-0.2,0-0.3,0.2-0.1,0.3c-0.3,0,0.7-0.6-0.1-0.5l-0.4,0.3
						c-0.3-0.1-1-0.2-0.9-0.4c-0.6,0.2,0.1,0-0.6,0.3c0.8-0.3,0.1,0.6,0.9,0.1c-0.8,0.3-0.3,0.3-0.9,0.7c0.2-0.1,0.4-0.2,0.3,0
						c0.1,0,0.1,0,0.2,0l0,0l0,0c0,0,0,0,0,0c0.1-0.1,0.2-0.1,0.3-0.2c0.5,0,0.5,0.3,0.8,0.3c-0.1,0.1-0.2,0-0.4,0.1l0.4,0.1
						c-0.4,0.1-0.7,0.5-1,0.3l0,0.2c-0.2,0.2-0.3,0.4-0.1,0.5c-0.1,0.1,0.5,0.2,0.2,0.1l0.4,0.3l-0.1,0c0,0.4,0.9,0.5,0.2,1.1
						c0.1,0.1,0.3,0.2,0.2,0.4l-0.4,0.1c0.2,0.1-0.3,0.5,0.1,0.5c-1,0.4,0,0.8-0.2,1.1l0.5-0.1c0,0.2,0.2,0.3,0.5,0.5l0.4-0.1
						c0.4,0.1-0.2,0.6-0.1,0.9c-0.2,0-0.1-0.1-0.1-0.1c-0.9,0.6,0.9,0.6,0.3,1.1c0.2,0,0.1,0.1,0,0.2c0,0,0,0,0,0c0,0,0,0,0,0
						c-0.1,0.1-0.1,0.1-0.2,0.2c0.1-0.1,0.2-0.1,0.2-0.2c0,0.1,0.1,0.1,0.2,0.2l-0.5,0.2c0,0,0,0,0,0c-0.1,0.1,0.2,0,0.6-0.1
						c0.1,0,0.2,0,0.3,0.1c-0.7,0.3,0.3,0.2-0.5,0.5c0.4,0,0.4,0.4,1.3,0.2c-0.1,0-0.2,0.1-0.2,0c-0.1,0.1-0.1,0.3,0.1,0.3l-0.6,0.2
						l0.9,0c-0.3,0.2-0.5,0.3-1,0.3c0.8,0.1,0.3,0.2,1.1,0.3l-0.4,0.1c0,0.1,0.6,0.1,0.3,0.3c-0.7,0.4,0.2,1.2-0.3,1.9
						c1.1-0.4-0.4,0.4,0.4,0.2c-0.3,0.1-0.4,0.2-0.6,0.2c0.3,0.2-0.3,0.6,0.5,0.6c-0.3,0.1-0.4,0-0.6,0.1c0.1,0,0.3,0,0.1,0.1
						c-0.1,0.1-0.2,0-0.4,0c0.1,0.3,1,0.1,1.7-0.1c-0.3,0.3-0.2,0.3,0.3,0.3c-0.2,0.1-0.5,0.3-0.6,0.1c0,0.1-0.2,0.8,0.4,0.6
						c-0.1,0.1,0,0.2,0.1,0.2c0,0.2,0,0.3,0.1,0.5l0.1-0.1c0.8-0.1,0.2,0.1,0.4,0.3l-0.1,0c-0.4,0.6,0.3,0.1-0.2,0.7l0.5-0.2
						c1-0.2-0.5,0.5,0,0.7l0.2-0.2c0.4,0-1.2,0.8-1.3,0.9c-0.1,0.1-0.2,0-0.2,0c-0.5,0.5,0.6-0.1,0.8,0.1c-0.3,0.1-0.8,0.2-0.9,0.4
						c-0.2,0.2,1.2,0.2,0.7,0.6c0.2-0.1,0.5-0.3,0.7-0.2c0.1,0.2-0.8,0.8,0,0.7c-0.1,0-0.1,0.1-0.2,0.1c0.2,0.1,0.5,0.4,0.9,0.3
						c-1.5,0.6,1,0.7-0.4,1.1l0.2,0.4l-0.2,0c0,0.3,0.4,0.3,0.8,0.3c-0.1,0.1-0.2,0.1-0.3,0.1c-0.2,0.5-0.1,0.5,0.7,0.6l-0.5,0.2
						c0.3,0-0.6,0.8,0.1,1.1c-0.1,0-0.1,0-0.2,0c0.7,0.3-1,1.5,0.8,1.1l0.5,0.2c0-0.4,0.8-0.2,1-0.4c0.2,0.1-0.4,0.6-0.5,0.4
						l0.1-0.1c-0.9,0.2-0.2,0.6-0.8,0.8c0.3,0.7,0,1.6,0.2,2.4l0.7-0.3l0,0.3c-0.1,0.1-0.5,0.3-0.5,0.1c-0.4,0.2,0.4,0.2,0.6,0.1
						c-0.2,0.4-0.9,0.1-0.8,0.2l0.1,0.1l0.1-0.1c0.3,0,0.6-0.1,0.7,0.2c-0.1,0.2-0.4,0.2-0.4,0.3c-0.1,0-0.1,0,0,0.1l0,0.3l0.5-0.3
						c0.3,0,0.1,0.3,0.6,0c-0.9,0.5,0,1.3-0.2,1.5c0.5,0.1,0.5,0.3,0.6,0.5c0.1-0.1,0.7-0.3,0.7-0.1c-1.3,0.4-0.4,0.6-1.3,1
						c0.6-0.4,0.3,0.5,1.1,0c0,0.2-0.5,0.2-0.7,0.4c0.6,0.2,0,1,0.3,1.4c0.2,0,0.4-0.2,0.7-0.2l-0.7,0.6c0.1,0.1,1-0.2,0.5,0.1
						c0.1-0.1,0.3-0.2,0.4-0.1c-0.5,1.3,1.3,1.8,0.1,3.3c0.3-0.2,0.3-0.2,0.4-0.1c0.1-0.1,0.4-0.1,0.6-0.2l-0.5,0.6
						c0.6-0.1,0.2,0.4,0.8,0.3l-0.2-0.1c0.8-0.1,1.5-0.8,2.4-1.1c-0.9,0.1,1-0.9-0.2-0.8c0.2-0.1,0.3,0,0.5-0.2
						c-0.4,0.1-0.5,0-0.4-0.3l0.1,0c-0.3-0.5,0-0.8,0.1-1.5l-0.4,0.2c0-0.1,0.2-0.2,0.2-0.3c-0.7,0.1,0.1,0.4-0.7,0.5
						c0.9-0.5-0.3-0.9,0.7-1.3c-0.1-0.2-0.5,0.2-0.6,0l0.3-0.1l-0.4,0.1c0-0.1,0.3-0.3,0.6-0.4c0,0,0.1,0.1,0.1,0.1
						c0.3-0.3-0.3-0.4-0.2-0.5l-0.1,0.2c-0.4-0.4-0.3-1.2-1-1.5l-0.2,0.1c-0.5-0.2,0.1-0.4-0.2-0.7l0.1,0c-0.2,0-0.4-0.1-0.4-0.2
						c0.3,0,0.4-0.4,0.7-0.3c-0.6-0.3-0.4-0.1-1.3-0.1l0.3-0.2c-0.3,0-0.5,0.1-0.7-0.1c0.4,0.1,0.5-0.3,1-0.3c0.6-0.7-1-0.4,0.1-1
						c-1,0.1-0.4,0.6-0.7,0.5c-0.3,0.2-0.8,0.1-0.7-0.1c0-0.1,1.2-0.6,1-1c0,0,0.1,0,0.1,0.1c0.2-0.2-0.4-0.1-0.1-0.4
						c-0.6,0.1,0-0.2-0.8,0l0.3,0.3c-0.3-0.1-1.2,0-0.9-0.4c0.2,0,0.4,0,0.5,0c0.2-0.2-0.2-0.1,0-0.3c0.8-0.2,0.3,0.3,0.9,0.3
						c0.3-0.2-0.7-0.2,0.2-0.4c-1.1,0.2,0-0.4-0.9-0.4l0.5-0.1c-0.1,0-0.3,0-0.3-0.1l0.6-0.1c-0.6,0,0.3-0.5,0-0.6
						c0.1,0.4-0.5,0.3-0.8,0.5c-0.8-0.3,1.1-0.7,0.7-1.1c0.1,0.1-0.2,0.4-0.4,0.3c0.1-0.1,0.2-0.3,0.4-0.5c-0.2-0.3-0.4,0.2-0.8,0.1
						c0.5-0.3-0.3-0.1-0.5-0.2l0.5-0.1c0.2-0.5-1,0.2-0.8-0.3l0.7,0l-0.2-0.1l0.5-0.1c-0.5-0.1-0.4-0.2-0.3-0.4
						c-0.3,0.1-0.8,0.2-0.9,0.1c0.2-0.2,0.5-0.1,0.3-0.3c0.3,0,0.7-0.1,0.3,0.2c0.2,0,0.3,0,0.5-0.1c0.3-0.2,0-0.4-0.1-0.4
						c0,0,0,0.1-0.1,0.1l-0.8-0.2c0.2-0.1,0.3-0.1,0.5-0.1c-0.1-0.1-0.3,0-0.4-0.1c0.4-0.1,0.8-0.2,1-0.1l-0.5-0.2
						c0.2-0.1,0.4-0.3,0.5-0.3c0.2-0.3-0.9-0.3-0.7-0.6c-0.1,0-0.2,0-0.2,0c0-0.3,0.4-0.6-0.2-0.8l0.6-0.4c-0.2-0.2-0.8,0.5-1.1,0.2
						c-0.3-0.2,0.5-0.3,0.7-0.4c-0.4,0-1.1-0.1-0.7-0.5C606.2,197.7,606.2,197.8,606.2,197.8z M605.1,195.1c0.1,0,0.4,0,0.2,0.2
						C604.7,195.4,605,195.3,605.1,195.1z M602.8,191.2c0.2,0,0.1,0.1-0.1,0.2C602.7,191.3,602.7,191.3,602.8,191.2z M596.4,180
						C596.4,180,596.4,180,596.4,180C596.3,180.1,596.4,180.1,596.4,180z M596.6,179.6c-0.1,0-0.1,0-0.2,0c0.1,0,0.1,0,0.1,0.1
						C596.6,179.8,596.7,179.7,596.6,179.6z M604.5,206.9l0.1-0.1C604.8,206.9,604.7,206.9,604.5,206.9z"/>
					<path class="st0" d="M603.6,191.5c-0.1,0-0.2,0.1-0.2,0.1C603.4,191.6,603.5,191.6,603.6,191.5z"/>
					<path class="st0" d="M607,199.5C607,199.5,607,199.5,607,199.5L607,199.5L607,199.5z"/>
					<path class="st0" d="M601.5,182.7c-0.1,0.1-0.1,0.1-0.2,0.2C601.4,182.8,601.5,182.7,601.5,182.7z"/>
					<path class="st0" d="M595.5,178.5l0.2,0.1c0-0.1,0.1-0.1,0.1-0.2C595.6,178.4,595.5,178.5,595.5,178.5z"/>
					<path class="st0" d="M598,176.4C598,176.4,598,176.3,598,176.4l-0.3,0C597.8,176.5,598,176.5,598,176.4z"/>
					<path class="st0" d="M597,178c0.4-0.1,0.2-0.2,0.1-0.3c0,0,0,0,0,0C596.6,177.8,596.8,177.9,597,178z"/>
					<path class="st0" d="M597.1,177.7c0,0,0-0.1,0-0.1C596.8,177.6,597,177.6,597.1,177.7z"/>
					<path class="st0" d="M596.2,179.4c0.1-0.1-0.5,0.1-0.4,0C595.4,179.5,596.6,179.6,596.2,179.4z"/>
					<polygon class="st0" points="598.3,177.6 597.8,177.7 598.2,177.7 					"/>
					<path class="st0" d="M598.1,178.6l0.1-0.2c-0.1,0-0.1,0-0.2,0C598,178.4,598,178.6,598.1,178.6z"/>
					<path class="st0" d="M598,178.3c0-0.1,0-0.1-0.1-0.1C597.9,178.2,598,178.3,598,178.3z"/>
					<polygon class="st0" points="598.5,177.8 598.4,177.9 598.4,178 					"/>
					<path class="st0" d="M598.5,180.5l0.2,0.2c0.2,0,0.3-0.1,0.2-0.2C598.7,180.5,598.6,180.5,598.5,180.5z"/>
					<path class="st0" d="M599.7,179.6c-0.1,0.1-0.2,0.1-0.3,0.2l0.6-0.1L599.7,179.6z"/>
					<path class="st0" d="M600,180.2c0.2,0,0.6,0.2,0.5-0.1C600.2,180.1,600.1,180,600,180.2z"/>
					<polygon class="st0" points="599.9,183.4 599.9,183.3 598.9,183.6 					"/>
					<path class="st0" d="M603,185.4c0.2-0.3-0.6,0.1-0.4-0.2c-0.2,0-0.2,0.2-0.4,0.2C602.5,185.5,602.3,185.6,603,185.4z"/>
					<path class="st0" d="M602.2,185.5c0,0-0.1,0-0.2,0C602.1,185.4,602.1,185.5,602.2,185.5z"/>
					<polygon class="st0" points="607.1,216.3 607,216.5 607.3,216.3 					"/>
					<path class="st0" d="M607.9,216.3l-0.6,0.3l0.6-0.1C607.9,216.4,607.8,216.4,607.9,216.3z"/>
					<path class="st0" d="M606.2,194.3l-0.2,0c-0.2,0.1-0.2,0.1-0.2,0.2L606.2,194.3z"/>
					<polygon class="st0" points="606.4,196.5 606.4,196.5 605.8,196.7 					"/>
					<path class="st0" d="M607.6,198c0-0.1-0.1-0.1-0.1-0.2C607.6,197.9,606.9,198.2,607.6,198z"/>
				</g>
			</g>
		</g>
	</g>
</g>
<g>
	<g>
		<path class="st0" d="M151.6,383.7c-3.4-0.6-6.8-1.1-10.2-1.7c-2.8-0.5-7.1-2-10-1.2c-2.9,0.8-5.4,4.6-7.4,6.6
			c-2.4,2.5-4.8,5-7.2,7.5c2.8,0.7,5.6,1.5,8.4,2.2c-0.5-3.1-0.9-6.2-1.4-9.3c-0.4-2.9-0.3-7.6-2.1-10c-1.8-2.3-6-3.5-8.5-4.8
			c-3-1.4-5.9-2.9-8.9-4.3c0,2.9,0,5.8,0,8.6c2.8-1.4,5.6-2.8,8.4-4.2c2.6-1.3,7-2.6,8.9-5c1.8-2.3,1.6-6.8,2-9.5
			c0.5-3.3,0.9-6.5,1.4-9.8c-2.8,0.7-5.6,1.5-8.4,2.2c2.4,2.5,4.8,4.9,7.3,7.4c2,2,4.5,5.8,7.4,6.6c2.9,0.8,7.2-0.8,10-1.3
			c3.4-0.6,6.8-1.2,10.2-1.8c-1.9-2.4-3.8-4.9-5.6-7.3c-1.6,3.1-3.2,6.1-4.8,9.2c-1.3,2.5-4.1,6.1-4.1,9.1c0,3,2.8,6.6,4.2,9.1
			c1.6,3.1,3.2,6.1,4.9,9.2c3,5.7,11.7,0.6,8.6-5c-2.8-5.2-5.6-10.5-8.3-15.7c0,1.7,0,3.4,0,5c2.7-5.3,5.5-10.5,8.2-15.8
			c2.1-4.1-1.4-8.1-5.6-7.3c-5.8,1-11.7,2.1-17.5,3.1c1.6,0.4,3.2,0.9,4.9,1.3c-4.2-4.2-8.3-8.5-12.5-12.7c-2.4-2.4-7.8-1.6-8.4,2.2
			c-0.8,5.9-1.7,11.7-2.5,17.6c0.8-1,1.5-2,2.3-3c-5.3,2.6-10.6,5.3-15.9,7.9c-3.2,1.6-3.3,7,0,8.6c5.3,2.6,10.7,5.2,16,7.8
			c-0.8-1-1.5-2-2.3-3c0.9,5.9,1.8,11.7,2.6,17.6c0.6,3.8,6,4.7,8.4,2.2c4.1-4.3,8.2-8.5,12.4-12.8c-1.6,0.4-3.2,0.9-4.9,1.3
			c5.8,1,11.7,2,17.5,2.9C155.2,394.4,157.9,384.8,151.6,383.7z"/>
	</g>
</g>
<g>
	<g>
		<path class="st0" d="M154.6,226c-3.5-6-7.1-12-10.6-18c-2.2-3.8-4.4-7.5-6.7-11.3c-1.1-1.9-2.3-4.8-4.2-5.9
			c-1.9-1.1-5.2-0.9-7.3-1c-4.4-0.3-8.7-0.6-13.1-0.9c-6.9-0.5-13.9-1-20.8-1.5c1.2,2.8,2.4,5.7,3.5,8.5c4.6-5.2,9.2-10.4,13.8-15.6
			c2.9-3.3,5.8-6.5,8.7-9.8c1.4-1.6,3.9-3.7,4.5-5.8c0.6-2.2-0.6-5.2-1.2-7.3c-1.1-4.2-2.1-8.5-3.2-12.7c-1.7-6.8-3.4-13.5-5.1-20.3
			c-2.4,1.9-4.9,3.8-7.3,5.6c6.4,2.8,12.8,5.5,19.2,8.3c4,1.7,8,3.5,12,5.2c1.9,0.8,4.8,2.6,6.9,2.6c2.3,0,4.7-2.1,6.6-3.2
			c3.7-2.3,7.4-4.6,11.1-6.9c5.9-3.7,11.8-7.4,17.7-11.1c-2.5-1.4-5-2.9-7.5-4.3c-0.6,6.6-1.3,13.2-1.9,19.8
			c-0.4,4.4-0.8,8.9-1.3,13.3c-0.2,2.3-1,5.2-0.1,7.4c0.9,2.1,3.3,3.5,5,4.9c3.4,2.8,6.8,5.7,10.1,8.5c5.2,4.4,10.4,8.7,15.6,13.1
			c0.7-2.8,1.5-5.6,2.2-8.4c-6.8,1.5-13.6,3-20.4,4.5c-4.3,0.9-8.5,1.9-12.8,2.8c-2.2,0.5-5.3,0.7-6.9,2.3c-1.5,1.5-2.3,4.7-3.1,6.7
			c-1.6,4-3.3,8.1-4.9,12.1c-2.6,6.5-5.2,12.9-7.8,19.4c-2.4,6,7.3,8.6,9.6,2.7c4.8-12,9.7-24,14.5-36c-1.2,1.2-2.3,2.3-3.5,3.5
			c12.6-2.8,25.2-5.6,37.9-8.4c3.5-0.8,5.1-6,2.2-8.4c-9.9-8.3-19.8-16.6-29.7-24.9c0.5,1.2,1,2.4,1.5,3.5
			c1.2-12.9,2.5-25.7,3.7-38.6c0.4-3.8-4.5-6.2-7.5-4.3c-11,6.9-21.9,13.7-32.9,20.6c1.7,0,3.4,0,5,0c-11.9-5.1-23.7-10.3-35.6-15.4
			c-3.9-1.7-8.5,1.1-7.3,5.6c3.1,12.5,6.3,25.1,9.4,37.6c0.4-1.6,0.9-3.2,1.3-4.9c-8.6,9.7-17.1,19.4-25.7,29.1
			c-3,3.3-0.9,8.2,3.5,8.5c12.9,0.9,25.8,1.8,38.7,2.7c-1.4-0.8-2.9-1.7-4.3-2.5c6.6,11.1,13.1,22.3,19.7,33.4
			C149.2,236.6,157.9,231.6,154.6,226z"/>
	</g>
</g>
<g>
	<g>
		<path class="st0" d="M625,410c-2.3-0.1-4.5-0.2-6.8-0.3c-2-0.1-5-0.7-6.8,0.3c-1.6,0.9-2.9,3.4-4,4.9c-1.5,1.9-2.9,3.9-4.4,5.8
			c2.3,0.3,4.6,0.6,6.9,0.9c-0.6-2.2-1.2-4.4-1.8-6.6c-0.5-1.9-0.8-4.9-2.3-6.4c-1.3-1.3-4.1-1.8-5.8-2.4c-2.3-0.8-4.6-1.6-6.9-2.4
			c0.3,2.3,0.6,4.6,0.9,6.9c1.9-1.3,3.8-2.5,5.7-3.8c1.6-1.1,4.4-2.3,5.4-4.1c1-1.7,0.5-4.5,0.6-6.3c0-2.4,0.1-4.9,0.1-7.3
			c-2.1,0.9-4.3,1.8-6.4,2.7c1.8,1.4,3.6,2.8,5.4,4.2c1.5,1.2,3.6,3.5,5.5,4c1.9,0.5,4.4-0.8,6.2-1.3c2.3-0.7,4.6-1.4,7-2.2
			c-1.5-1.5-3.1-3.1-4.6-4.6c-1.3,3.4-4.6,8.8-4.1,12.5c0.5,3.7,5.1,8,7.2,11c2.8,3.9,9.3,0.2,6.5-3.8c-2.2-3.2-4.5-6.4-6.7-9.6
			c0.1,1,0.3,1.9,0.4,2.9c1.4-3.7,2.7-7.3,4.1-11c1-2.7-2-5.4-4.6-4.6c-3.7,1.2-7.5,2.3-11.2,3.5c1.2,0.3,2.4,0.6,3.6,1
			c-3.1-2.4-6.1-4.8-9.2-7.3c-2.5-1.9-6.4-0.9-6.4,2.7c-0.1,3.9-0.1,7.8-0.2,11.7c0.6-1.1,1.2-2.2,1.9-3.2c-3.2,2.2-6.5,4.3-9.7,6.5
			c-2.7,1.8-2.2,5.8,0.9,6.9c3.7,1.3,7.4,2.5,11.1,3.8c-0.9-0.9-1.7-1.7-2.6-2.6c1.1,3.8,2.1,7.5,3.2,11.3c0.9,3.4,5,3.4,6.9,0.9
			c2.3-3.1,4.7-6.2,7-9.4c-1.1,0.6-2.2,1.2-3.2,1.9c3.9,0.2,7.8,0.3,11.7,0.5C629.9,417.7,629.9,410.2,625,410z"/>
	</g>
</g>
<g>
	<g>
		<path class="st0" d="M323.1,288.7c6.2-13.4,17.5-21.8,31.9-24.6c12.7-2.4,26.7-2,39.4,0.3c20,3.5,38.7,12.1,55.3,23.6
			c12.8,8.9,24,19.7,33.6,31.9c0-1.8,0-3.5,0-5.3c-15.9,19.8-38.2,33.4-63.1,38.7c-28.5,6.1-62.5,1.2-83.6-20.1
			c-12.1-12.2-19.4-28.3-13.1-45.3c1.7-4.5-5.6-6.5-7.2-2c-12.1,32.8,18.8,63.6,47.9,72.5c30.1,9.2,63.9,4.9,91.2-10.4
			c12.8-7.1,24-16.6,33.2-28c1.4-1.7,1.4-3.6,0-5.3c-31.2-39.7-83.6-67.1-134.9-57.8c-16.4,3-30,12.9-37.1,28.1
			C314.6,289.3,321,293.1,323.1,288.7z"/>
	</g>
</g>
<g>
	<g>
		<path class="st0" d="M337,264.4c-9.5,21.5-12.5,44.8-9.2,68.1c0.5,3.2,5.3,1.8,4.8-1.3c-3.1-21.8-0.2-44.1,8.7-64.2
			C342.6,264,338.3,261.4,337,264.4L337,264.4z"/>
	</g>
</g>
<g>
	<g>
		<path class="st0" d="M468.6,300.8c-2.6,19.9-14.1,36.7-30.2,48.3c-2.6,1.9-0.1,6.2,2.5,4.3c17.6-12.7,29.8-30.8,32.7-52.6
			C474,297.6,469,297.6,468.6,300.8L468.6,300.8z"/>
	</g>
</g>
<g>
	<path class="st0" d="M385.9,265.1c-4.5,4.6-9.2,10.7-13,18.3c-14.7,29.3-4.8,59.5-1.7,67.8c4.2-2,12.7-6.8,19.1-16.5
		c6.3-9.6,7.3-18.7,7.8-24.3C400.1,288.8,390.4,271.9,385.9,265.1z"/>
	<g>
		<path class="st0" d="M384.1,263.3c-22.8,23.9-26.4,58.2-15.4,88.5c0.6,1.6,2.1,2.2,3.7,1.5c34.3-16.9,34.3-60.8,15.7-89.5
			c-1.7-2.7-6.1-0.2-4.3,2.5c17.2,26.5,18.1,67-13.9,82.7c1.2,0.5,2.4,1,3.7,1.5c-10.4-28.6-7.5-60.9,14.1-83.7
			C389.9,264.5,386.4,261,384.1,263.3z"/>
	</g>
</g>
<path class="st1" d="M-50.6,165.1"/>
<g>
	<g>
		<path class="st0" d="M227.5,163.7c-0.6,13.5-21,13.6-21.1,0C206.4,150.1,226.9,150.2,227.5,163.7c0.2,4.8,7.7,4.8,7.5,0
			c-0.5-9.8-7.9-18-18-18c-9.8,0-18,8.2-18,18c0,9.8,8.2,18,18,18c10.2,0,17.6-8.2,18-18C235.2,158.9,227.7,158.9,227.5,163.7z"/>
	</g>
</g>
<g>
	<g>
		<path class="st0" d="M198.9,324.9c-0.3,12.3-10,22.4-22.5,22.5c-12.2,0-22.5-10.2-22.5-22.5c0-12.2,10.2-22.5,22.5-22.5
			C188.9,302.5,198.6,312.7,198.9,324.9c0.1,4.8,7.6,4.8,7.5,0c-0.3-12.5-7.8-23.7-19.7-28.1c-11.7-4.3-25.2-0.6-33.2,8.9
			c-17.5,21,1.1,53.3,28,48.7c14.4-2.4,24.5-15.1,24.8-29.5C206.5,320.1,199,320.1,198.9,324.9z"/>
	</g>
</g>
<g>
	<g>
		<path class="st0" d="M697.4,87.5c-0.3,10.2-8.2,18.6-18.6,18.6c-10.2,0-18.6-8.5-18.6-18.6c0-9.9,8.1-18.3,18-18.6
			C688.7,68.5,697.1,77,697.4,87.5c0.1,4.8,7.6,4.8,7.5,0c-0.3-10.8-6.6-20.4-16.7-24.4c-10.4-4-22.5-0.8-29.6,7.8
			c-15,18.3,1.2,46.2,24.5,42.3c12.7-2.1,21.4-13.1,21.8-25.7C705,82.7,697.5,82.7,697.4,87.5z"/>
	</g>
</g>
<g>
	<g>
		<g>
			<g>
				<g>
					<path class="st0" d="M409,224.2c0.1,0.1,0.2-0.3,0.2-0.4C409,223.8,409,224.3,409,224.2z"/>
					<polygon class="st0" points="406.9,224.6 407,224.5 406.6,224.8 					"/>
					<path class="st0" d="M405.2,224.2c0,0.7,0.7,0,0.9,0.4l0,0.2l0.3-0.5C406,224.2,405.4,224.4,405.2,224.2z"/>
					<path class="st0" d="M404.7,222.4c0,0.3-0.3,0.2,0.2,0.1c0,0,0-0.1,0-0.1C404.8,222.5,404.8,222.5,404.7,222.4z"/>
					<path class="st0" d="M404.8,222.5C405,222.5,404.8,222.2,404.8,222.5L404.8,222.5z"/>
					<path class="st0" d="M404,222.4l0.3-0.2c0-0.2-0.2-0.3-0.1-0.4C403.9,222,403.9,222.1,404,222.4z"/>
					<path class="st0" d="M403.6,222.9l0.1-0.1C403.7,222.7,403.7,222.7,403.6,222.9z"/>
					<path class="st0" d="M404.1,222.7l-0.3,0.2c0,0.1,0,0.3,0.1,0C403.8,223,403.9,222.8,404.1,222.7z"/>
					<path class="st0" d="M404.2,222.8c0.1,0.2,0.2,0.3-0.1,0.5C404.6,223.3,404.7,222.8,404.2,222.8z"/>
					<path class="st0" d="M404.9,224.9l0.1,0.2l0.2-0.2C405.2,225,405,224.6,404.9,224.9z"/>
					<path class="st0" d="M402.5,221.7c0,0.1,0,0.4,0,0.6l0.2-0.1C402.6,222.1,402.5,221.9,402.5,221.7z"/>
					<path class="st0" d="M402.5,222.3l-0.3,0.2C402.4,222.6,402.5,222.5,402.5,222.3z"/>
					<polygon class="st0" points="403.4,223.6 403.9,223.2 403.3,223.6 					"/>
					<polygon class="st0" points="401.5,221.5 401.7,221.2 401.3,221.6 					"/>
					<path class="st0" d="M400.8,221.4c0.2-0.3-0.1-0.5,0.1-0.7c-0.2,0-0.4,0.2-0.6,0.4C400.5,221,400.6,221.1,400.8,221.4z"/>
					<path class="st0" d="M400,221.4c0.1-0.1,0.2-0.2,0.3-0.3C400.2,221.2,400.1,221.2,400,221.4z"/>
					<path class="st0" d="M401.7,222.3c0-0.1,0-0.3-0.1-0.5l0,0.4C401.7,222.3,401.7,222.3,401.7,222.3z"/>
					<path class="st0" d="M401.6,222.3L401.6,222.3c-0.1-0.1-0.2-0.1-0.2-0.1C401.4,222.2,401.5,222.3,401.6,222.3z"/>
					<path class="st0" d="M401.8,222.3L401.8,222.3C401.7,222.4,401.7,222.4,401.8,222.3z"/>
					<path class="st0" d="M402.8,223.1c-0.2,0.2-0.6,0.4-0.4,0.8C402.6,223.6,402.5,223.4,402.8,223.1z"/>
					<path class="st0" d="M401.8,222.9l0.3,0.2c0-0.1,0-0.3,0.1-0.4L401.8,222.9z"/>
					<polygon class="st0" points="401.6,223 401.8,222.9 401.7,222.8 					"/>
					<path class="st0" d="M400.4,221.9c-0.2,0.2-0.3,0.1-0.5,0.1c0.1,0.1,0.3,0.2,0.5,0.2C400.5,222.1,400.6,221.9,400.4,221.9z"/>
					<path class="st0" d="M401,222.1L401,222.1C401,222.2,401,222.2,401,222.1z"/>
					<path class="st0" d="M398.5,221.7C398.5,221.7,398.5,221.8,398.5,221.7L398.5,221.7L398.5,221.7z"/>
					<path class="st0" d="M400.4,222.3c0.1,0.1,0.2,0,0.3-0.1C400.6,222.3,400.5,222.3,400.4,222.3
						C400.4,222.3,400.4,222.3,400.4,222.3z"/>
					<path class="st0" d="M399.5,221.5c0,0.1,0.1,0.2,0.2,0.3C399.7,221.6,399.6,221.4,399.5,221.5z"/>
					<path class="st0" d="M400.9,222L400.9,222C400.9,221.9,400.9,222,400.9,222z"/>
					<path class="st0" d="M400.9,222c-0.1,0-0.1,0.1-0.2,0.2c0.1,0,0.2,0,0.2-0.1C401,222.1,400.9,222.1,400.9,222z"/>
					<path class="st0" d="M397.5,224.3c0.1-0.4,0.5-0.7,0.7-0.2c0.3-0.2,0.4-1.5,0.3-2.3c0,0.2-0.1,0.3-0.4,0.5
						c0.1,0.2,0.5,0.6,0.2,0.9c-0.4,0.1-0.3-0.2-0.4-0.4c0.1,0.5-0.6,0.6-0.7,1.3l0.4-0.2C397.6,224,397.4,224.2,397.5,224.3z"/>
					<path class="st0" d="M399,221.9l0.1,0c-0.1-0.1-0.2-0.3-0.3-0.6c-0.2,0.2-0.3,0.3-0.3,0.4L399,221.9L399,221.9z"/>
					<path class="st0" d="M399.6,222c-0.2,0.4-0.5,0.5-0.4,1c0.3,0,0.3-0.3,0.6-0.4C399.2,222.6,400,222.4,399.6,222
						c0.1,0,0.2,0,0.3,0c-0.1-0.1-0.2-0.2-0.2-0.3l0,0l0,0l0,0c0,0.1,0,0.1,0,0.1c0,0,0,0,0,0C399.7,221.9,399.7,222,399.6,222
						c-0.1-0.1,0-0.1,0.1-0.2l0-0.1l0,0l-0.6,0.1C399.2,222,399.4,222,399.6,222z"/>
					<path class="st0" d="M401.9,224.7c0,0,0-0.1,0-0.1C401.9,224.7,401.8,224.7,401.9,224.7z"/>
					<path class="st0" d="M401.7,224.4c0.1,0,0.1-0.2,0.2-0.1c0.1,0.2,0,0.2-0.1,0.3c0.1-0.1,0.3-0.2,0.1-0.5l-0.1,0
						c-0.2-0.2-0.3-0.8-0.3-0.8C401.7,223.7,401.7,224,401.7,224.4z"/>
					<path class="st0" d="M400.7,223.3l-0.5,0.1l0.2,0.4l0-0.2C400.6,223.8,400.6,223.5,400.7,223.3z"/>
					<polygon class="st0" points="398.4,221.5 398.6,221.1 398.2,221.6 					"/>
					<polygon class="st0" points="397.8,221.4 397.9,221 397.7,221.2 					"/>
					<path class="st0" d="M364.8,227.3l-0.1,0.1C364.8,227.4,364.8,227.3,364.8,227.3z"/>
					<path class="st0" d="M365.7,227l0-0.2C365.7,227,365.7,227,365.7,227z"/>
					<path class="st0" d="M382.8,219.8c-0.2-0.4-0.4-1-0.4-0.5l0.1,0.4C382.6,219.6,382.7,219.7,382.8,219.8z"/>
					<path class="st0" d="M372.8,223c0,0,0.1,0.1,0.1,0.1c0-0.2,0-0.3,0.1-0.4C372.9,222.8,372.8,222.9,372.8,223z"/>
					<path class="st0" d="M372.9,224.8l-0.3-0.2C372.7,224.6,372.8,224.7,372.9,224.8z"/>
					<path class="st0" d="M360.4,229.7l0.1,0.5C360.6,230,360.4,229.9,360.4,229.7z"/>
					<path class="st0" d="M391.6,220.6c-0.2-0.2-0.3-0.3-0.4-0.3C391.4,220.5,391.5,220.9,391.6,220.6z"/>
					<path class="st0" d="M363.7,222.8c-0.1,0.1-0.1,0.2,0,0.3C363.7,223,363.7,222.9,363.7,222.8z"/>
					<path class="st0" d="M390.7,220.2c0,0,0.1,0.1,0.1,0.1c0.1-0.1,0.3-0.1,0.4-0.1C391.1,220.1,390.9,219.9,390.7,220.2z"/>
					<path class="st0" d="M346.5,240.9C346.5,240.9,346.5,240.9,346.5,240.9C346.5,241,346.5,241,346.5,240.9z"/>
					<path class="st0" d="M340.1,243.8c0-0.1,0-0.2,0.1-0.2C340.1,243.6,340.1,243.6,340.1,243.8z"/>
					<path class="st0" d="M395.4,220.8C395.6,220.8,395.5,220.8,395.4,220.8L395.4,220.8z"/>
					<path class="st0" d="M395.8,222.6c0,0-0.1,0.1-0.1,0.2C395.7,222.7,395.7,222.6,395.8,222.6z"/>
					<path class="st0" d="M389.1,222.7L389.1,222.7C389.2,222.8,389.1,222.8,389.1,222.7z"/>
					<path class="st0" d="M395.6,221c0-0.1-0.1-0.1-0.1-0.2C395.5,220.9,395.5,221,395.6,221z"/>
					<path class="st0" d="M395.6,220.8c0,0,0.1,0,0.1,0.1C395.7,220.8,395.7,220.8,395.6,220.8z"/>
					<path class="st0" d="M395.3,220.8c0.1,0,0.1,0,0.2,0.1c0,0,0-0.1,0-0.1C395.4,220.8,395.3,220.8,395.3,220.8z"/>
					<path class="st0" d="M352.4,233C352.3,233,352.3,233,352.4,233C352.3,233.2,352.4,233.1,352.4,233z"/>
					<path class="st0" d="M379.5,224.3C379.5,224.3,379.5,224.3,379.5,224.3L379.5,224.3L379.5,224.3z"/>
					<path class="st0" d="M379.1,224.7c0.2-0.5,0.3-0.5,0.4-0.4l-0.2-1.2L379.1,224.7z"/>
					<path class="st0" d="M362.8,228.2l0.4,0.2c-0.1,0.7-0.4,0.6,0.1,1c-0.5-1.3,1-0.6,0.6-1.8l0.3,0.2c-0.1,0,0,0.1-0.1,0.1
						c0.6,0.5-0.1-1,0.5-1c0.2,0,0.4,0.2,0.3,0.4l0.3-0.4c0.1,0,0.2,0.2,0.1,0.2l0.5-0.3l0,0c0-0.2,0.1-0.6,0.1-0.8
						c0.2,0.1,0,0.2,0.1,0.3l0.2-0.4c0.2,0.3,0.1,0.7-0.2,0.7c0.7,1.2,0.2-0.4,1,0.2l-0.2,0.2c0.4,0.7,0.6,0.4,1,0.7
						c-0.1-0.2-1-1-0.8-1.4c0.1,0.1,0.3,0.1,0.4-0.2c0.1,0.5,0.3,0.3,0.5,0.2l0.2,0.6c0.2-0.2,0.1-0.6,0.2-0.9
						c0.3,0,0.5,0.4,0.6,0.8c0.5,0-0.5-0.7,0-0.9c0.4,0.2,0.6-0.2,1-0.6c0.3,0.2,0,0.4,0.2,0.6l0.1-0.6c0.1,0,0.1,0.2,0.1,0.2
						c0.2-0.2-0.1-0.6,0.2-0.9c-0.1-0.7,0.8,0.9,1.1,0c0.1,0.2,0,0.4,0.1,0.6c0.4-0.6,0.4-0.5,0.7-1.2l0.4,0.3
						c-0.3-0.4-0.1-1.1,0.2-1.6c-0.1-0.2-0.3-0.4-0.3-0.5c0.2-0.1,0.3-0.3,0.5-0.4c0.1,0.1,0.1,0.3,0,0.6c0-0.1,0-0.1,0.1-0.2
						c0.2,0.2,0.2,0.6,0.1,1c-0.1-0.1-0.2-0.2-0.2-0.4c-0.1,0.4-0.1,0.8,0,1.2c0-0.1,0.1-0.2,0.1-0.2c0,0.1,0,0.2,0,0.3
						c0,0.1,0.1-0.1,0.1-0.3l0.2,0.7l0-0.3l0.7,0.4c0.4-0.8,0.6-1.9,1.4-2.3c-0.1,0.5,0,0.9,0.1,1.5c-0.3-0.6-0.5,0.3-0.9,0.3
						c0.2,0,0.2,0.3,0.2,0.5l0.6-0.7c0,0.5,0.2,0.4,0.4,0.6c-0.2-1,0.4-0.7,0.7-1c0,0.3,0,0.7-0.3,0.6c0.4,0.7,0.4-1.2,0.8-0.6
						c-0.1,0-0.1,0-0.1,0.1c0.2-0.3,0.7-0.1,0.6,0.2l-0.1,0c0.6,0.1,1.7-0.1,1.7-0.9c0,0.1,0,1-0.1,1.2c0.3-1,0.6-1.9,0.9-2.9
						c-0.1,0.7,0.3,2.5-0.1,2.9c0.1,0.1,0.3,0.2,0.6-0.1c-0.1-0.1-0.2-1.1-0.1-1.1c0.4,0.8,0.2,0.4,0.7,1.1c-0.1-0.2,0-1.3,0.2-1.3
						c0,0.2,0,1.1,0,1.2l0.5-1.1c-0.1,0.2,0,1,0.1,1.3c-0.1-0.2,0.5,0,0.6-0.1l-0.2-0.3c0.6,0.2,0.6-1.6,1.2-1.5
						c-0.1,0.2-0.2,1.4,0.1,1.6c0.1-0.6,0.7-2.8,1.3-3.2l0.1,0.3l0.4-0.4c-0.3,0.8-1.1,2.7-1.5,3.4c0.2,0.3,0.1,0.4,0.4,0.4
						c0.1,0.3-0.2,0.5-0.3,0.5l0.8,0.2c0-0.7,0.6-0.7,0.6-1.2c-0.3,0.2-0.6,0.4-0.9,0.7c0-0.7,0.6-1.9,1.1-1.7
						c0.1,0.3-0.2,1.2-0.2,1.4c0.1-0.2,0.5-0.4,0.6-0.2l-0.3,0.3c0.3,0.3,0.6-0.9,0.9-0.2c0.1,0.1,0.3,0.9,0.4,0.5
						c-0.1-0.8,0-3.1,0.2-3.7c0,0.1,0.6,0.8,0.8,1.2c0.2,0.6-0.4,1.4-0.3,1.9c0-0.2,0.2-0.4,0.2-0.5c0.1,0.2-0.1,0.6,0.2,0.5
						c0.1-0.7,0.6,0.1,0.2-0.6c0.3-0.2,0.3,0.2,0.6,0.2c-0.1-0.4,0.4-1.5,0.8-1.6c0,0.2,0,0.4,0,0.5c0.6,0.1,0.9,0.5,1.4,0.5
						c0,0.2,0.3,0.4,0.1,0.7c0.1-0.1,0.2-0.3,0.4-0.3c0.3,0.6-0.4,0-0.2,0.8c0.1-0.4,0.5-0.5,0.8-0.7c0-0.6-0.5-0.2-0.8,0
						c0.1-0.8,0.6-1.7,1.3-2c0.5-0.1,0.1,0.6,0.2,0.5c0.8,0.3,1-1.3,1.6-0.6c0.2,0.6-0.2,1.1-0.1,1.5c-0.4,0.1-0.5-0.4-0.8-0.4
						l0.3,0.3c-0.1,0.2-0.4,0.3-0.5,0.1c0.2,0.5,1.4,0.3,2,0.9c0.1-0.2,0.4-0.3,0.3-0.5l-0.2,0c-0.1-0.5,0.5-0.5,0.3-0.8
						c0.3-0.3,0.7-0.7,1.1-0.4l0,0.6c0-0.2-0.2-0.4-0.3-0.2c0.2-0.2,0.5,0.9,0.8,0.2l-0.2-0.5c0.3-0.3,0.8-0.8,1.1-0.6
						c0-0.6-0.1,0.1-0.2-0.7c0.1,0.9-0.9-0.2-0.7,0.8c-0.1-0.9-0.4-0.4-0.6-1.2c0,0.2,0.1,0.4-0.2,0.3c0,0.1-0.1,0.1-0.1,0.2l0,0
						l0,0c0,0,0,0,0,0c0.1,0.1,0.1,0.2,0.1,0.3c-0.2,0.4-0.7,0.3-0.9,0.5c-0.2-0.1,0.1-0.2,0.1-0.4l-0.3,0.3c0-0.4-0.4-0.8,0.1-1
						l-0.4-0.1c-0.2-0.3-0.5-0.4-0.7-0.3c-0.2-0.1-0.5,0.4-0.3,0.1l-0.6,0.2l0-0.1c-0.6-0.2-1.3,0.6-1.9-0.3c-0.2,0.1-0.4,0.2-0.8,0
						l0-0.4c-0.3,0.1-0.7-0.5-0.9-0.1c-0.2-1.1-1.2-0.3-1.7-0.6l-0.1,0.5c-0.3-0.1-0.6,0.1-1,0.3l0,0.4c-0.4,0.3-0.8-0.4-1.4-0.4
						c0-0.2,0.2-0.1,0.3,0c-0.6-1.1-1.4,0.7-1.9-0.1c-0.1,0.2-0.2,0.1-0.3,0c0,0,0,0,0,0c0,0,0,0-0.1,0c-0.1-0.1-0.1-0.2-0.2-0.2
						c0.1,0.1,0.1,0.2,0.2,0.2c-0.1,0-0.3,0.1-0.4,0.2l-0.1-0.5c0,0,0,0,0,0c-0.2-0.2-0.1,0.2-0.1,0.6c-0.1,0.1-0.2,0.2-0.2,0.3
						c-0.1-0.8-0.4,0.3-0.6-0.6c-0.1,0.4-0.8,0.3-0.9,1.2c0-0.1-0.1-0.2,0-0.2c-0.2-0.1-0.4-0.2-0.5,0.1l-0.1-0.6l-0.4,0.8
						c-0.2-0.4-0.4-0.6-0.1-1.1c-0.6,0.8-0.5,0.3-0.9,1l0-0.4c-0.2,0-0.4,0.6-0.5,0.2c-0.4-0.8-1.9,0-3-0.6c0.3,1.1-0.5-0.5-0.5,0.4
						c-0.1-0.3-0.2-0.4-0.1-0.7c-0.5,0.3-0.8-0.3-1.1,0.5c-0.1-0.3,0.1-0.4,0-0.6c0,0.1-0.1,0.3-0.2,0.1c-0.1-0.2,0-0.2,0.1-0.4
						c-0.5,0.1-0.5,1-0.4,1.8c-0.3-0.3-0.4-0.3-0.6,0.3c-0.1-0.2-0.3-0.5,0-0.6c-0.2,0-1.2-0.2-1.1,0.4c-0.1-0.2-0.3,0-0.3,0.1
						c-0.4,0-0.5,0-0.8,0.1l0.1,0.1c0,0.8-0.3,0.2-0.6,0.4l0-0.1c-0.8-0.4-0.3,0.3-1.1-0.1l0.1,0.5c0.2,1-0.8-0.5-1.1,0l0.2,0.2
						c-0.1,0.4-1-1.2-1.3-1.2c-0.1-0.1,0-0.2,0.1-0.2c-0.8-0.4,0.1,0.6-0.3,0.9c-0.2-0.3-0.1-0.9-0.4-0.8c-0.2-0.2-0.6,1.3-1.2,0.8
						c0.2,0.2,0.3,0.4,0.2,0.7c-0.3,0.2-1.2-0.6-1.2,0.2c-0.1-0.1-0.1-0.1-0.1-0.2c-0.2,0.3-0.7,0.6-0.6,1.1
						c-0.8-1.5-1.1,1.3-1.7-0.1l-0.7,0.4l0-0.2c-0.5,0.1-0.5,0.5-0.5,0.9c-0.1,0-0.1-0.2-0.2-0.3c-0.8,0-0.8,0.1-1,1.1l-0.3-0.4
						c0,0.3-1.3-0.2-1.7,0.6c0-0.1-0.1-0.1,0-0.2c-0.2,0.4-0.8,0.4-1.3,0.4c-0.5,0-0.8,0.2-0.4,1.1l-0.2,0.7
						c0.6-0.2,0.3,0.7,0.7,0.8c-0.2,0.2-0.9-0.1-0.6-0.4l0.1,0.1c-0.4-0.9-0.9,0.2-1.2-0.4c-1.1,0.8-2.5,1.1-3.5,1.9l0.6,0.5
						l-0.4,0.2c-0.2-0.1-0.5-0.3-0.2-0.5c-0.4-0.2-0.2,0.6-0.1,0.7c-0.7,0.2-0.4-0.8-0.5-0.7l-0.2,0.2l0.1,0c0,0.4,0.2,0.6-0.1,0.8
						c-0.3,0-0.4-0.3-0.5-0.2c0,0-0.1,0-0.1,0.1l-0.5,0.3l0.6,0.3c0,0.4-0.4,0.3,0.2,0.6c-0.5-0.3-0.9,0-1.3,0.4
						c-0.4,0.3-0.6,0.8-0.8,0.7c0.1,0.5-0.2,0.8-0.5,1c0.2,0,0.7,0.4,0.4,0.6c-0.9-1-0.9,0.1-1.8-0.3c0.7,0.2-0.6,0.9,0.4,1.2
						c-0.3,0.2-0.4-0.3-0.8-0.3c-0.1,0.9-1.3,1.1-1.7,1.9c0.1,0.1,0.4,0.1,0.5,0.5l-1-0.1c0,0.2,0.7,0.7,0.1,0.6
						c0.1,0,0.4,0.1,0.4,0.2c-0.8,0.5-1.2,1.4-1.5,2.2c-0.3,0.9-0.8,1.6-1.9,2.1c0.4-0.1,0.4,0.1,0.3,0.3c0.1-0.1,0.4,0.2,0.6,0.3
						l-0.9,0.4c0.6,0.4-0.3,0.8,0.3,1.1l0-0.3c0.6,0.5,1.7,0.2,2.6,0.6c-0.7-0.6,1.5-0.3,0.6-1.3c0.2,0,0.2,0.2,0.5,0.3
						c-0.3-0.3-0.3-0.5,0-0.7l0.1,0.1c0.3-0.8,0.8-0.9,1.5-1.6l-0.4-0.2c0.2-0.1,0.3-0.1,0.5-0.1c-0.5-0.6-0.3,0.5-0.9-0.1
						c1,0.3,0.8-1.2,1.8-0.8c0.2-0.3-0.5-0.2-0.3-0.5l0.3,0.1l-0.3-0.3c0.2-0.1,0.5,0,0.7,0.1c-0.1,0,0,0.1,0,0.2
						c0.4,0,0.3-0.7,0.5-0.7l-0.3,0.1c0.3-0.8,1.2-1.4,1.2-2.4l-0.2-0.1c0.1-0.7,0.5-0.2,0.8-0.9l0,0.1c-0.1-0.3,0-0.5,0.1-0.6
						c0.1,0.3,0.6,0.1,0.7,0.5c0.1-0.8,0-0.5-0.3-1.4l0.3,0.2c-0.1-0.3-0.2-0.5-0.1-0.8c0,0.4,0.6,0.2,0.6,0.8
						c1,0.1,0.2-1.3,1.3-0.7c-0.4-1-0.9,0-0.9-0.3c-0.3-0.1-0.3-0.7-0.1-0.8c0.2-0.1,1.2,0.7,1.6,0.3c0,0,0,0.1,0,0.1
						c0.3,0.1,0.1-0.6,0.6-0.4c-0.3-0.6,0.3-0.2-0.2-0.8l-0.3,0.5c0.1-0.3-0.3-1.2,0.4-1.2c0.1,0.1,0.1,0.4,0.1,0.6
						c0.3,0.1,0.1-0.3,0.4-0.2c0.5,0.6-0.4,0.5-0.3,1.2c0.3,0.2,0.1-0.8,0.5-0.1c-0.5-1,0.5-0.2,0.3-1.1l0.3,0.4
						c0-0.1,0-0.4,0.1-0.4l0.2,0.6c-0.1-0.6,0.7,0,0.8-0.4c-0.5,0.4-0.5-0.4-0.9-0.5c0.3-1,1.1,0.7,1.7,0.1c-0.1,0.1-0.5,0-0.5-0.3
						c0.2,0,0.5,0,0.7,0.2c0.4-0.4-0.3-0.4-0.3-0.7c0.5,0.4,0.1-0.4,0.2-0.7l0.3,0.4c0.7-0.1-0.4-0.9,0.3-0.9l0.1,0.7l0.2-0.3
						l0.2,0.5c0.1-0.5,0.2-0.5,0.6-0.5c-0.2-0.3-0.4-0.8-0.2-0.9c0.3,0.1,0.1,0.5,0.5,0.2c0.1,0.3,0.2,0.7-0.2,0.4
						c0.1,0.1,0.1,0.3,0.1,0.5c0.4,0.2,0.5-0.2,0.6-0.3c-0.1,0-0.1,0-0.2,0l0.2-0.9c0.2,0.1,0.2,0.3,0.2,0.4c0.1-0.1,0-0.3,0.2-0.5
						c0.1,0.4,0.4,0.7,0.2,1l0.3-0.6c0.1,0.1,0.5,0.3,0.5,0.4c0.4,0.1,0.3-1.1,0.8-1c0-0.1,0-0.2,0-0.2c0.4-0.1,0.9,0.2,1.1-0.5
						l0.5,0.5c0.3-0.3-0.7-0.7-0.2-1.2c0.3-0.4,0.4,0.5,0.6,0.6c0.1-0.4,0.1-1.2,0.7-0.8C363,228.2,362.9,228.1,362.8,228.2z
						 M367,226.4c-0.1,0.1-0.1,0.5-0.3,0.2C366.6,226.1,366.8,226.3,367,226.4z M373.6,223.8c0,0.2-0.2,0.1-0.3-0.1
						C373.4,223.7,373.5,223.7,373.6,223.8z M394,221C394,221,394,221,394,221C393.8,220.8,393.8,220.8,394,221z M394.4,221.2
						c0.1-0.1,0.1-0.1,0.1-0.2c0,0.1-0.1,0.1-0.3,0.1C394.2,221.2,394.2,221.3,394.4,221.2z M349.2,231.4l0.1,0
						C349.3,231.6,349.3,231.5,349.2,231.4z"/>
					<path class="st0" d="M372.9,224.6c0-0.1-0.1-0.2-0.1-0.3C372.8,224.4,372.8,224.5,372.9,224.6z"/>
					<path class="st0" d="M360.4,229.6C360.3,229.6,360.3,229.6,360.4,229.6C360.3,229.6,360.4,229.7,360.4,229.6L360.4,229.6z"/>
					<path class="st0" d="M387.3,224.5c-0.1-0.1-0.1-0.2-0.1-0.3C387.1,224.3,387.1,224.4,387.3,224.5z"/>
					<path class="st0" d="M396.8,220.8l-0.3,0.1c0.1,0,0.2,0.1,0.2,0.2C396.7,221,396.7,220.8,396.8,220.8z"/>
					<path class="st0" d="M398.6,224.2c0.1-0.1,0.1,0,0.1,0l0-0.2C398.6,223.9,398.5,224.1,398.6,224.2z"/>
					<path class="st0" d="M396.8,222.4c-0.1,0.4,0.1,0.3,0.3,0.3c0,0,0,0,0,0C397.2,222.1,397,222.3,396.8,222.4z"/>
					<path class="st0" d="M397.2,222.7c0.1,0,0.1,0,0.2,0C397.4,222.5,397.3,222.7,397.2,222.7z"/>
					<path class="st0" d="M395,221.1c0.1,0.1,0.1-0.5,0.2-0.3C395.3,220.2,394.4,221.2,395,221.1z"/>
					<polygon class="st0" points="396.7,223.8 396.7,223.3 396.5,223.7 					"/>
					<path class="st0" d="M395.2,223.2l0.3,0.2c0-0.1,0.1-0.1,0.1-0.2C395.5,223.1,395.3,223,395.2,223.2z"/>
					<path class="st0" d="M395.6,223.2c0.1,0,0.2,0,0.3,0C395.8,223.1,395.7,223.1,395.6,223.2z"/>
					<polygon class="st0" points="396.2,223.9 396.2,223.7 396,223.7 					"/>
					<path class="st0" d="M392,222.5l-0.4,0.1c-0.1,0.2,0,0.3,0.2,0.2C391.9,222.8,392,222.7,392,222.5z"/>
					<path class="st0" d="M392.8,224.1c-0.1-0.1-0.1-0.2-0.1-0.4l-0.1,0.6L392.8,224.1z"/>
					<path class="st0" d="M391.8,224.1c-0.1,0.2-0.5,0.4-0.1,0.4C391.7,224.3,392.1,224.2,391.8,224.1z"/>
					<polygon class="st0" points="386.9,222.7 387,222.7 387.1,221.7 					"/>
					<path class="st0" d="M382.4,225c0.4,0.3,0.1-0.6,0.4-0.3c0.1-0.2-0.3-0.3-0.2-0.5C382.5,224.4,382.3,224.3,382.4,225z"/>
					<path class="st0" d="M382.7,224.2c0,0,0.1-0.1,0.1-0.2C382.7,224.1,382.7,224.2,382.7,224.2z"/>
					<polygon class="st0" points="339.2,244.5 338.9,244.7 339.3,244.6 					"/>
					<path class="st0" d="M339.7,245.2l-0.6-0.2l0.5,0.4C339.5,245.4,339.5,245.2,339.7,245.2z"/>
					<path class="st0" d="M368,227.5l0-0.2c-0.1-0.2-0.1-0.1-0.3-0.1L368,227.5z"/>
					<polygon class="st0" points="364.7,228 364.8,228 364.5,227.5 					"/>
					<path class="st0" d="M362.5,229.7c0.1,0,0.2-0.2,0.3-0.2C362.6,229.7,362.2,229,362.5,229.7z"/>
				</g>
			</g>
		</g>
	</g>
</g>
<g>
	<g>
		<g>
			<g>
				<g>
					<path class="st0" d="M430.2,381.7c0.2,0,0-0.4,0-0.5C430,381.4,430.3,381.8,430.2,381.7z"/>
					<polygon class="st0" points="427.7,383.5 427.7,383.3 427.4,383.8 					"/>
					<path class="st0" d="M425,384.2c0.4,0.6,1-0.4,1.5-0.3l0.1,0.1l0.1-0.6C426.1,383.7,425.4,384.3,425,384.2z"/>
					<path class="st0" d="M423.1,383.1c0.2,0.2-0.2,0.3,0.4,0c0,0-0.1,0-0.1-0.1C423.4,383.1,423.3,383.1,423.1,383.1z"/>
					<path class="st0" d="M423.4,383C423.7,383,423.2,382.9,423.4,383L423.4,383z"/>
					<path class="st0" d="M422.1,383.5l0.3-0.3c-0.1-0.1-0.5-0.1-0.4-0.2C421.7,383.2,421.9,383.3,422.1,383.5z"/>
					<path class="st0" d="M421.9,384.1l0.2-0.1C422,383.9,422,383.9,421.9,384.1z"/>
					<path class="st0" d="M422.4,383.7l-0.4,0.3c0.1,0.1,0.1,0.3,0.2-0.1C422.3,384.1,422.3,383.8,422.4,383.7z"/>
					<path class="st0" d="M422.7,383.7c0.2,0.1,0.5,0.1,0.2,0.5C423.6,383.9,423.4,383.4,422.7,383.7z"/>
					<path class="st0" d="M425,385l0.3,0.1l0.2-0.3C425.4,384.9,424.9,384.8,425,385z"/>
					<path class="st0" d="M419.7,383.7c0,0.2,0.2,0.4,0.3,0.5l0.2-0.2C420.1,384,419.8,383.9,419.7,383.7z"/>
					<path class="st0" d="M420,384.3l-0.4,0.4C420,384.6,420.1,384.4,420,384.3z"/>
					<polygon class="st0" points="422,384.9 422.6,384.2 421.9,384.9 					"/>
					<polygon class="st0" points="418.1,384 418.3,383.7 418,384.3 					"/>
					<path class="st0" d="M417.1,384.3c0.1-0.3-0.3-0.4-0.2-0.6c-0.3,0.1-0.5,0.4-0.6,0.7C416.5,384.2,416.7,384.2,417.1,384.3z"/>
					<path class="st0" d="M416,384.7c0.1-0.1,0.2-0.2,0.3-0.4C416.2,384.4,416.1,384.6,416,384.7z"/>
					<path class="st0" d="M418.9,384.7c-0.1-0.1-0.2-0.3-0.4-0.4l0.3,0.4C418.8,384.7,418.9,384.7,418.9,384.7z"/>
					<path class="st0" d="M418.8,384.7L418.8,384.7c-0.2,0-0.3,0-0.4,0C418.5,384.8,418.6,384.8,418.8,384.7z"/>
					<path class="st0" d="M419,384.7L419,384.7C419,384.7,419,384.8,419,384.7z"/>
					<path class="st0" d="M420.8,384.8c-0.2,0.3-0.6,0.7-0.1,0.9C420.9,385.4,420.6,385.2,420.8,384.8z"/>
					<path class="st0" d="M419.3,385.2l0.5,0c0-0.1-0.1-0.2-0.1-0.4L419.3,385.2z"/>
					<polygon class="st0" points="419.1,385.4 419.3,385.2 419.1,385.2 					"/>
					<path class="st0" d="M416.8,385c-0.2,0.2-0.4,0.3-0.6,0.4c0.3,0,0.5,0,0.8,0C417,385.2,417.1,384.9,416.8,385z"/>
					<path class="st0" d="M417.8,384.9L417.8,384.9C417.8,385,417.8,385,417.8,384.9z"/>
					<path class="st0" d="M413.9,385.8C413.9,385.8,413.9,385.8,413.9,385.8L413.9,385.8L413.9,385.8z"/>
					<path class="st0" d="M417.1,385.4c0.2,0,0.3-0.1,0.4-0.2C417.3,385.2,417.2,385.3,417.1,385.4C417,385.4,417,385.4,417.1,385.4
						z"/>
					<path class="st0" d="M415.4,385.1c0.1,0.1,0.2,0.1,0.4,0.2C415.6,385.1,415.4,385,415.4,385.1z"/>
					<path class="st0" d="M417.6,384.8L417.6,384.8C417.6,384.7,417.6,384.8,417.6,384.8z"/>
					<path class="st0" d="M417.6,384.8c-0.1,0.1-0.1,0.2-0.2,0.3c0.1-0.1,0.2-0.1,0.3-0.2C417.7,384.9,417.7,384.9,417.6,384.8z"/>
					<path class="st0" d="M413.6,388.6c0-0.4,0.4-0.8,0.9-0.5c0.4-0.4-0.1-1.6-0.6-2.3c0,0.2,0,0.3-0.4,0.6c0.2,0.2,1.1,0.3,0.8,0.7
						c-0.6,0.3-0.5-0.1-0.8-0.2c0.3,0.4-0.6,0.8-0.4,1.5l0.5-0.3C413.6,388.3,413.4,388.5,413.6,388.6z"/>
					<path class="st0" d="M414.8,385.7l0.2-0.1c-0.2,0-0.4-0.2-0.7-0.4c-0.3,0.2-0.3,0.4-0.3,0.5L414.8,385.7L414.8,385.7z"/>
					<path class="st0" d="M415.8,385.5c-0.1,0.5-0.5,0.7-0.1,1.1c0.5-0.1,0.3-0.4,0.6-0.7C415.4,386.2,416.4,385.7,415.8,385.5
						c0.2-0.1,0.3-0.1,0.5-0.2c-0.2,0-0.3-0.1-0.5-0.1l0,0l0,0l0,0c0,0,0.1,0.1,0,0.1c0,0,0,0,0,0
						C415.8,385.4,415.8,385.4,415.8,385.5c-0.3,0-0.1-0.1,0-0.2l0-0.1l0,0c-0.3,0.1-0.5,0.3-0.8,0.4
						C415.1,385.7,415.4,385.6,415.8,385.5z"/>
					<path class="st0" d="M420.5,386.7C420.5,386.7,420.5,386.6,420.5,386.7C420.4,386.7,420.4,386.7,420.5,386.7z"/>
					<path class="st0" d="M420.1,386.5c0-0.1,0.1-0.3,0.3-0.3c0.2,0.1,0,0.2,0.1,0.3c0.1-0.1,0.4-0.4-0.1-0.5l0,0.1
						c-0.4-0.1-0.9-0.5-0.9-0.6C419.6,386,419.8,386.2,420.1,386.5z"/>
					<path class="st0" d="M417.9,386.1l-0.7,0.4l0.4,0.3l-0.1-0.2C418,386.6,417.9,386.3,417.9,386.1z"/>
					<polygon class="st0" points="413.7,385.6 413.8,385.1 413.5,385.8 					"/>
					<polygon class="st0" points="412.8,385.8 412.8,385.4 412.6,385.7 					"/>
					<path class="st0" d="M358.8,386.8l-0.2,0C358.6,386.8,358.7,386.8,358.8,386.8z"/>
					<path class="st0" d="M360.3,387.3l0.1-0.2C360.3,387.2,360.3,387.3,360.3,387.3z"/>
					<path class="st0" d="M389.8,387.4c-0.3-0.4-0.6-1-0.6-0.5l0.1,0.4C389.5,387.3,389.6,387.3,389.8,387.4z"/>
					<path class="st0" d="M373.6,388.3c0,0,0,0.1,0.1,0.1c0.1-0.1,0.2-0.3,0.3-0.4C373.8,388.1,373.7,388.2,373.6,388.3z"/>
					<path class="st0" d="M373,390l-0.4-0.4C372.7,389.8,372.8,389.9,373,390z"/>
					<path class="st0" d="M350.4,384l-0.4,0.3C350.3,384.5,350.3,384.2,350.4,384z"/>
					<path class="st0" d="M403.3,387.1c-0.3-0.1-0.5-0.2-0.7-0.2C402.9,387.2,403.2,387.5,403.3,387.1z"/>
					<path class="st0" d="M360.8,382.6c-0.1,0-0.2,0.1-0.3,0.2C360.7,382.8,360.8,382.7,360.8,382.6z"/>
					<path class="st0" d="M401.8,387c0.1,0,0.1,0.1,0.1,0.1c0.2-0.1,0.4-0.2,0.6-0.2C402.3,386.8,402,386.7,401.8,387z"/>
					<path class="st0" d="M323.8,366.2C323.8,366.2,323.8,366.2,323.8,366.2C323.7,366.2,323.8,366.2,323.8,366.2z"/>
					<path class="st0" d="M320.7,356.6c0.1,0,0.2,0.2,0.3,0.3C320.9,356.8,320.8,356.7,320.7,356.6z"/>
					<path class="st0" d="M409,386.2C409.2,386.1,409.1,386.1,409,386.2L409,386.2z"/>
					<path class="st0" d="M410.2,387.7c0,0.1-0.1,0.1-0.1,0.2C410.2,387.8,410.2,387.8,410.2,387.7z"/>
					<path class="st0" d="M400,389.8L400,389.8C400,389.9,400,389.9,400,389.8z"/>
					<path class="st0" d="M409.4,386.3c-0.1,0-0.2-0.1-0.3-0.1C409.1,386.2,409.2,386.3,409.4,386.3z"/>
					<path class="st0" d="M409.3,386.1c0.1,0,0.1,0,0.2,0C409.5,386.1,409.5,386,409.3,386.1z"/>
					<path class="st0" d="M408.8,386.2c0.1,0,0.2,0,0.3,0c0,0-0.1,0-0.1-0.1C409,386.2,408.9,386.2,408.8,386.2z"/>
					<path class="st0" d="M338,375.7C338,375.7,338,375.7,338,375.7C337.7,375.7,337.8,375.7,338,375.7z"/>
					<path class="st0" d="M384.2,391.6C384.2,391.6,384.2,391.6,384.2,391.6L384.2,391.6L384.2,391.6z"/>
					<path class="st0" d="M383.4,391.9c0.4-0.5,0.5-0.4,0.8-0.3l-0.1-1.3L383.4,391.9z"/>
					<path class="st0" d="M355.1,385.6l0.4,0.6c-0.8,0.4-1.2,0-0.9,0.7c0.6-1.2,2,0.6,2.5-0.7l0.2,0.4c-0.1,0-0.1,0-0.2,0
						c0.4,0.9,0.8-0.7,1.6-0.3c0.3,0.2,0.4,0.4,0.1,0.5l0.7-0.1c0.2,0.1,0.1,0.3-0.1,0.2l1,0.2l0,0c0.2-0.2,0.6-0.4,0.8-0.4
						c0.2,0.3-0.2,0.1-0.2,0.3l0.6-0.1c0.1,0.4-0.4,0.6-0.8,0.4c0.1,1.5,0.5-0.2,1.4,0.9l-0.6,0c0.1,0.8,0.6,0.7,1.1,1.3
						c-0.1-0.3-0.8-1.5-0.1-1.7c0.1,0.1,0.3,0.3,0.7,0.1c-0.1,0.5,0.2,0.4,0.6,0.5l-0.2,0.6c0.5-0.1,0.5-0.4,0.9-0.6
						c0.5,0.2,0.4,0.7,0.4,1.1c0.7,0.3-0.3-0.9,0.6-0.8c0.6,0.4,1.1,0.2,1.9,0.1c0.4,0.3-0.2,0.4-0.1,0.6l0.5-0.4c0.1,0,0,0.2,0,0.3
						c0.4-0.1,0.2-0.6,0.7-0.7c0.3-0.6,0.8,1.3,1.7,0.6c0.1,0.2-0.2,0.4-0.2,0.6c1-0.3,0.8-0.2,1.7-0.8l0.5,0.5
						c-0.4-0.6,0.3-1,0.9-1.4c-0.1-0.3-0.2-0.5-0.3-0.6c0.3-0.1,0.6-0.1,0.9-0.2c0.1,0.1,0,0.3-0.2,0.6c0.1,0,0.1-0.1,0.2-0.1
						c0.2,0.3,0,0.6-0.2,0.9c-0.1-0.1-0.1-0.3-0.2-0.4c-0.3,0.4-0.5,0.7-0.6,1.1c0.1-0.1,0.2-0.1,0.3-0.1c-0.1,0.1-0.1,0.2-0.1,0.2
						c0,0.1,0.1-0.1,0.3-0.2l0.1,0.7l0.1-0.3l1,0.6c0.9-0.6,1.7-1.5,3-1.6c-0.4,0.5-0.2,0.8-0.3,1.4c-0.2-0.7-1,0.1-1.6-0.1
						c0.3,0.1,0.2,0.4,0.1,0.5l1.2-0.4c-0.1,0.5,0.2,0.4,0.5,0.7c-0.1-1,0.9-0.6,1.4-0.8c0,0.3-0.2,0.7-0.7,0.5
						c0.5,0.8,1-1.1,1.5-0.4c-0.1,0-0.2-0.1-0.3,0.1c0.4-0.3,1.1,0.1,0.9,0.3l-0.1,0c0.9,0.3,2.8,0.3,3-0.5c0,0.1-0.2,1-0.3,1.2
						c0.6-0.9,1.3-1.8,1.9-2.7c-0.2,0.7,0.2,2.5-0.6,2.8c0.2,0.1,0.5,0.3,1,0c-0.1-0.1-0.3-1.1-0.1-1.1c0.5,0.8,0.4,0.5,1,1.2
						c-0.2-0.2,0.1-1.3,0.5-1.2c-0.1,0.2,0,1.1-0.2,1.2l0.9-1.1c-0.2,0.2-0.1,0.9,0.1,1.3c-0.1-0.2,0.8,0.1,1,0l-0.4-0.3
						c1,0.2,1-1.5,2-1.5c-0.1,0.2-0.3,1.4,0.2,1.6c0.3-0.6,1.1-2.7,1.9-3.2l0.2,0.3l0.7-0.4c-0.4,0.9-1.6,2.7-2.2,3.4
						c0.4,0.3,0.1,0.4,0.7,0.4c0.2,0.3-0.3,0.5-0.5,0.5l1.3,0.2c-0.1-0.7,1-0.7,1-1.2c-0.5,0.2-0.9,0.5-1.4,0.7
						c0-0.7,0.8-1.9,1.7-1.8c0.2,0.3-0.2,1.2-0.2,1.4c0.1-0.2,0.9-0.5,1-0.3l-0.4,0.4c0.5,0.2,0.8-0.9,1.5-0.3
						c0.2,0,0.7,0.9,0.7,0.5c-0.4-0.8-0.5-3.1-0.3-3.7c0.1,0.1,1.1,0.7,1.4,1.1c0.4,0.6-0.5,1.5-0.2,2c0-0.2,0.2-0.4,0.3-0.5
						c0.2,0.1-0.1,0.6,0.4,0.5c0.1-0.7,1,0,0.2-0.6c0.5-0.2,0.5,0.1,1.1,0.1c-0.2-0.4,0.4-1.5,0.9-1.7c0,0.2,0.1,0.4,0.2,0.5
						c1,0,1.5,0.3,2.4,0.2c0.1,0.2,0.5,0.3,0.4,0.6c0.1-0.1,0.2-0.4,0.5-0.4c0.6,0.5-0.6,0.1-0.1,0.8c0-0.4,0.7-0.6,1-0.9
						c-0.2-0.6-0.9,0-1.3,0.2c-0.1-0.8,0.5-1.8,1.4-2.2c0.7-0.3,0.4,0.5,0.5,0.4c1.4,0,1-1.6,2.2-1.1c0.5,0.5,0.1,1.1,0.3,1.4
						c-0.6,0.3-1-0.2-1.4-0.2l0.5,0.2c-0.2,0.2-0.6,0.4-0.8,0.2c0.4,0.4,2.4-0.1,3.5,0.1c0.2-0.2,0.5-0.4,0.3-0.6l-0.3,0.1
						c-0.4-0.4,0.6-0.7,0.1-0.8c0.4-0.4,0.8-0.9,1.5-0.8l0.2,0.6c0-0.2-0.5-0.3-0.6-0.1c0.2-0.3,1.1,0.7,1.3-0.2l-0.5-0.4
						c0.4-0.4,0.9-1.1,1.4-1c-0.3-0.6-0.1,0.1-0.6-0.5c0.5,0.8-1.4,0.2-0.7,1c-0.5-0.8-0.8-0.2-1.4-0.9c0,0.2,0.2,0.4-0.2,0.3
						c0,0.1-0.1,0.1-0.1,0.2c0,0,0,0,0,0l0,0c0,0,0,0,0,0c0.1,0.1,0.2,0.2,0.3,0.3c-0.2,0.5-0.9,0.6-1.1,0.9
						c-0.3-0.1,0.1-0.2-0.1-0.4l-0.3,0.4c-0.1-0.4-0.8-0.7-0.2-1l-0.6,0c-0.4-0.2-0.9-0.3-1.1,0c-0.3-0.1-0.6,0.6-0.4,0.2l-0.9,0.4
						l0-0.1c-0.9,0.1-1.8,0.9-2.9,0.2c-0.3,0.1-0.6,0.3-1.1,0.2l-0.1-0.4c-0.4,0.2-1.2-0.3-1.3,0.1c-0.5-1-1.9-0.1-2.6-0.3l0,0.5
						c-0.5,0-0.9,0.1-1.5,0.3l0,0.4c-0.5,0.4-1.3-0.3-2.1-0.2c0.1-0.2,0.3-0.1,0.4,0c-1-1-2,0.7-2.9,0c-0.2,0.2-0.4,0.1-0.5,0
						c0,0,0,0,0.1,0c0,0-0.1,0-0.1,0c-0.1-0.1-0.2-0.2-0.3-0.2c0.1,0.1,0.2,0.2,0.2,0.2c-0.2,0-0.4,0.1-0.7,0.2l-0.1-0.5
						c0,0,0,0-0.1,0c-0.2-0.2-0.2,0.2-0.1,0.6c-0.1,0.1-0.2,0.2-0.3,0.3c-0.2-0.8-0.7,0.2-0.9-0.6c-0.2,0.4-1.3,0.2-1.5,1.1
						c0-0.1-0.1-0.2,0.1-0.2c-0.3-0.1-0.5-0.2-0.8,0l-0.1-0.6l-0.7,0.8c-0.3-0.4-0.5-0.6-0.1-1.1c-0.9,0.6-0.7,0.2-1.6,0.9l0.1-0.4
						c-0.3,0-0.8,0.5-0.9,0.1c-0.5-0.8-3-0.4-4.4-1.3c0.1,1.2-0.6-0.6-0.8,0.3c0-0.3-0.2-0.5,0-0.7c-0.8,0.1-1.1-0.6-1.8,0
						c0-0.3,0.2-0.4,0.2-0.5c-0.1,0-0.3,0.2-0.3,0c-0.1-0.2,0.2-0.2,0.3-0.3c-0.8-0.1-1,0.7-1.2,1.5c-0.3-0.4-0.6-0.4-0.9,0
						c-0.1-0.3-0.3-0.6,0.2-0.6c-0.3-0.1-1.6-0.7-1.8-0.1c-0.1-0.2-0.4-0.1-0.5-0.1c-0.6-0.2-0.7-0.2-1.3-0.3l0.1,0.1
						c-0.4,0.7-0.5,0.1-1.1,0l0-0.1c-1-0.8-0.6,0.1-1.5-0.7l-0.1,0.5c-0.4,1-0.8-0.8-1.6-0.6l0.2,0.3c-0.4,0.2-0.6-1.6-0.9-1.9
						c-0.1-0.1,0.2-0.1,0.3-0.1c-0.7-0.8-0.3,0.6-1,0.5c0-0.4,0.4-0.8,0-1c-0.1-0.3-1.6,0.7-2.1-0.1c0.1,0.3,0.1,0.6-0.3,0.7
						c-0.5-0.1-1-1.4-1.7-0.7c0-0.1,0-0.2,0-0.2c-0.4,0.1-1.3-0.1-1.7,0.3c0.2-1.7-2.5-0.1-2-1.5l-1.1-0.3l0.1-0.1
						c-0.7-0.4-1-0.1-1.4,0.1c-0.1-0.2,0-0.2,0.1-0.3c-0.9-0.7-1-0.7-2.2-0.4l0.1-0.5c-0.4,0.2-1.1-1.4-2.4-1.3c0,0,0.1-0.1,0.2-0.2
						c-0.7,0-1.2-0.6-1.7-1.1c-0.5-0.5-0.9-0.7-1.5,0l-0.9,0c0.9,0.6-0.5,0.6-0.3,1.1c-0.4-0.1-0.7-1-0.2-0.8l0,0.1
						c0.6-0.7-1-0.9-0.7-1.4c-1.8-1-3.3-2.4-4.9-3.5l-0.2,0.7l-0.5-0.4c-0.1-0.2,0.1-0.6,0.5-0.3c0-0.5-0.9-0.1-1,0
						c-0.6-0.7,0.8-0.5,0.5-0.7l-0.4-0.2l0,0.1c-0.4,0.1-0.6,0.3-1.1,0c-0.2-0.3,0.1-0.5,0-0.6c0,0,0-0.1-0.2-0.1l-0.7-0.5l0,0.7
						c-0.5,0-0.6-0.5-0.7,0.3c0-0.6-0.5-1.1-1.2-1.5c-0.6-0.5-1.2-0.8-1.3-1.1c-0.7,0-1.1-0.3-1.6-0.7c0.1,0.2-0.3,0.8-0.7,0.4
						c1-0.9-0.4-1.1-0.2-2.1c-0.1,0.7-1.3-0.9-1.4,0.2c-0.3-0.4,0.3-0.4,0.2-0.9c-1.2-0.3-1.6-1.8-2.7-2.6c-0.1,0.1-0.1,0.5-0.5,0.5
						l0.1-1.1c-0.3-0.1-0.9,0.6-0.8-0.2c-0.1,0.2-0.1,0.4-0.3,0.3c-0.6-1.2-1.7-2-2.7-3c-1-0.9-1.9-1.9-2.2-3.5
						c0,0.5-0.2,0.3-0.4,0.1c0.1,0.2-0.3,0.3-0.5,0.5l-0.2-1.3c-0.6,0.3-0.8-0.9-1.4-0.6l0.3,0.2c-0.9,0.1-0.8,1.6-1.6,2.1
						c1-0.1,0,1.9,1.5,1.8c0,0.3-0.3,0.1-0.4,0.3c0.5-0.1,0.7,0,0.9,0.5l-0.1,0c1.1,1,1.2,1.7,2.1,3.1l0.3-0.4
						c0.2,0.3,0.2,0.4,0.2,0.6c0.8-0.2-0.7-0.7,0.2-1c-0.4,1,1.7,1.7,1.2,2.7c0.4,0.4,0.3-0.5,0.6-0.1l-0.1,0.3l0.4-0.2
						c0.2,0.3,0.1,0.7-0.1,0.9c0-0.1-0.2-0.1-0.3-0.2c0.1,0.6,1,0.8,1.1,1l-0.3-0.5c1.3,0.8,2.4,2.3,3.9,2.7l0.1-0.2
						c1.1,0.4,0.5,0.7,1.5,1.3l-0.1,0c0.3,0,0.6,0.1,0.9,0.3c-0.4,0,0.1,0.7-0.4,0.7c1.2,0.4,0.7,0.1,1.8-0.1l-0.1,0.4
						c0.4-0.1,0.5-0.2,1.1,0c-0.6,0,0,0.7-0.7,0.7c0.5,1.4,2,0.4,1.8,1.7c1.1-0.5-0.6-1.1-0.2-1.1c0-0.4,0.8-0.4,1.1-0.1
						c0.3,0.2-0.2,1.5,0.6,2c-0.1-0.1-0.1,0-0.2-0.1c0.2,0.4,0.8,0.1,1,0.7c0.6-0.4,0.5,0.3,1-0.3l-0.9-0.3c0.6,0.1,1.5-0.4,1.9,0.4
						c-0.1,0.1-0.5,0.1-0.7,0.2c0.1,0.3,0.5,0.1,0.6,0.5c-0.5,0.6-1-0.4-1.8-0.2c0,0.4,1.2,0.1,0.5,0.7c0.9-0.7,0.8,0.6,1.8,0.3
						l-0.3,0.4c0.1,0,0.4-0.1,0.6,0l-0.6,0.3c0.7-0.2,0.7,1,1.3,1c-1-0.5,0.1-0.6-0.1-1.1c1.5,0.1,0,1.5,1.5,2
						c-0.2,0-0.5-0.6-0.1-0.7c0.2,0.2,0.4,0.6,0.5,0.9c0.9,0.4,0.1-0.5,0.6-0.5c0,0.7,0.5,0,1,0.1l-0.2,0.4c0.9,0.8,0.7-0.7,1.5,0.1
						l-0.7,0.4l0.6,0.1l-0.4,0.4c0.7-0.1,0.8,0.1,1.3,0.5c0-0.4,0.5-0.7,0.9-0.5c0.2,0.4-0.4,0.3,0.3,0.6c-0.3,0.2-0.6,0.5-0.7-0.1
						c-0.1,0.1-0.3,0.2-0.4,0.3c0.2,0.5,0.8,0.5,1,0.6c-0.1-0.1-0.2-0.1-0.2-0.2c0.4,0,0.8-0.1,1.2-0.1c0.1,0.2-0.1,0.3-0.3,0.4
						c0.2,0,0.4-0.1,0.7,0c-0.2,0.3-0.4,0.7-0.9,0.7l1.1,0c0,0.2,0.3,0.6,0.1,0.7c0.4,0.4,1.5-0.1,2.1,0.5c0.1-0.1,0.2-0.1,0.3-0.1
						c0.6,0.3,1,1,1.9,0.8l0.2,0.8c0.7,0.1-0.2-1.1,0.8-0.9c0.8,0.1,0,0.7,0.2,0.9c0.5-0.2,1.4-0.6,1.8,0.1
						C355.5,385.8,355.3,385.6,355.1,385.6z M362.7,387.8c-0.2,0.1-0.6,0.3-0.6,0C362.4,387.3,362.5,387.6,362.7,387.8z
						 M374.5,389.4c-0.1,0.1-0.3,0-0.5-0.2C374.2,389.2,374.4,389.2,374.5,389.4z M406.9,386.8C406.9,386.8,406.9,386.8,406.9,386.8
						C406.6,386.7,406.7,386.8,406.9,386.8z M407.6,387c0.1-0.1,0-0.1,0-0.2c0,0.1-0.2,0.2-0.4,0.1C407.3,387,407.4,387.1,407.6,387
						z M338,371.8l0,0.2C337.7,371.9,337.8,371.9,338,371.8z"/>
					<path class="st0" d="M373.1,389.8c0-0.1,0-0.2,0-0.3C373,389.6,373,389.7,373.1,389.8z"/>
					<path class="st0" d="M350.5,384C350.4,384,350.4,384,350.5,384C350.4,384,350.4,384,350.5,384L350.5,384z"/>
					<path class="st0" d="M397.3,391.9c-0.1-0.1-0.2-0.1-0.3-0.2C397,391.7,397,391.8,397.3,391.9z"/>
					<path class="st0" d="M411.1,385.7l-0.4,0.2c0.2-0.1,0.3,0,0.4,0.1C411,385.8,410.9,385.7,411.1,385.7z"/>
					<path class="st0" d="M415.3,388c0.1-0.1,0.1,0,0.2-0.1l-0.1-0.2C415.2,387.7,415,387.9,415.3,388z"/>
					<path class="st0" d="M411.7,387.2c0.1,0.4,0.3,0.2,0.6,0.1c0,0,0,0-0.1,0C412.3,386.7,412,387,411.7,387.2z"/>
					<path class="st0" d="M412.4,387.2c0.1,0,0.2-0.1,0.3-0.1C412.7,387,412.6,387.2,412.4,387.2z"/>
					<path class="st0" d="M408.4,386.6c0.2,0.1,0-0.5,0.1-0.4C408.7,385.7,407.7,387,408.4,386.6z"/>
					<polygon class="st0" points="412.2,388.5 412,388 411.9,388.4 					"/>
					<path class="st0" d="M409.7,388.4l0.5,0.1c0-0.1,0-0.1,0.1-0.2C410,388.4,409.7,388.3,409.7,388.4z"/>
					<path class="st0" d="M410.3,388.3c0.2,0,0.3,0,0.4-0.1C410.6,388.2,410.4,388.2,410.3,388.3z"/>
					<polygon class="st0" points="411.5,388.7 411.3,388.6 411,388.6 					"/>
					<path class="st0" d="M404.4,389l-0.5,0.2c0,0.2,0.1,0.3,0.3,0.2C404.3,389.2,404.5,389.1,404.4,389z"/>
					<path class="st0" d="M406.2,390.2c-0.2-0.1-0.2-0.2-0.3-0.4l0,0.6L406.2,390.2z"/>
					<path class="st0" d="M404.6,390.5c0,0.2-0.7,0.6-0.1,0.5C404.6,390.8,405.1,390.6,404.6,390.5z"/>
					<polygon class="st0" points="396.4,390.2 396.5,390.2 396.5,389.2 					"/>
					<path class="st0" d="M389.1,392.6c0.6,0.3,0.2-0.6,0.8-0.3c0.2-0.2-0.5-0.3-0.3-0.5C389.1,392.1,388.9,391.9,389.1,392.6z"/>
					<path class="st0" d="M389.5,391.8c0.1,0,0.1-0.1,0.2-0.1C389.6,391.7,389.6,391.8,389.5,391.8z"/>
					<polygon class="st0" points="320.1,355.1 320,354.7 319.9,355.1 					"/>
					<path class="st0" d="M319,355l0.4-0.5l-0.6,0.2C319,354.8,319.1,354.9,319,355z"/>
					<path class="st0" d="M363.4,389.4l0.1-0.1c0-0.2-0.1-0.2-0.3-0.3L363.4,389.4z"/>
					<polygon class="st0" points="358.1,387.2 358.2,387.3 358.2,386.7 					"/>
					<path class="st0" d="M353.3,386.2c0.2,0.1,0.4,0.1,0.6,0.2C353.4,386.3,353.5,385.5,353.3,386.2z"/>
				</g>
			</g>
		</g>
	</g>
</g>
</svg>
