<?xml version="1.0" encoding="utf-8"?>
<!-- Generator: Adobe Illustrator 15.1.0, SVG Export Plug-In . SVG Version: 6.00 Build 0)  -->
<!DOCTYPE svg PUBLIC "-//W3C//DTD SVG 1.1//EN" "http://www.w3.org/Graphics/SVG/1.1/DTD/svg11.dtd">
<svg version="1.1" id="Layer_1" xmlns="http://www.w3.org/2000/svg" xmlns:xlink="http://www.w3.org/1999/xlink" x="0px" y="0px"
	 width="500px" height="500px" viewBox="0 0 500 500" enable-background="new 0 0 500 500" xml:space="preserve">
<path fill="none" stroke="#9783C0" stroke-width="4" stroke-miterlimit="10" d="M197.769,138.067"/>
<path fill="none" stroke="#9783C0" stroke-width="4" stroke-miterlimit="10" d="M237.979,105.314
	c-4.683,0.076-10.466-0.761-15.424,0.916c-2.478,0,0.828,3.353,0,5.869c0,0.839-0.825,1.677-0.825,1.677
	c-10.742,1.676-16.526,11.739-19.831,20.963c-1.653,45.281,0,91.398-0.427,136.832"/>
<path fill="none" stroke="#9783C0" stroke-width="4" stroke-miterlimit="10" d="M222.106,105.314l3.176-4.026v-5.103h-6.35v1.612
	l-17.46,0.536c0,0-3.175-10.202,1.322-13.156h15.607l0.264,1.882h6.616v-7.25c0,0,5.556-5.906,10.053,0v6.982l3.703-0.27v8.054
	l-5.291,0.537v5.908l3.703,4.833"/>
<path fill="none" stroke="#9783C0" stroke-width="4" stroke-miterlimit="10" d="M224.116,105.312
	c5.57,0.068,11.17-0.662,16.618,0.918c-0.472,1.416-1.116,3.186-0.952,4.708c0.125,1.161,0.952,2,0.952,2
	c9.089,5.031,18.178,11.739,19.003,22.64c2.479,34.379,0.827,68.758,0.851,103.008"/>
<path fill="none" stroke="#9783C0" stroke-width="4" stroke-miterlimit="10" d="M208.407,277.379
	c-2.883,4.743-6.891,11.063-1.246,15.676c1.802,1.473,6.129,3.455,8.571,2.922c-4.265,0.929,20.769-2.17,7.027-5.889
	c-10.757-2.911-13.188-9.62-13.736-12.398c-0.152-0.771-0.16-1.24-0.16-1.24s24.126-9.917,29.777-12.396
	c0,0,8.246-2.789,24.587-19.062c0,0,6.412-6.199,11.605-1.552c0.881,0.791,2.019,1.306,2.729,2.188
	c0.369,0.461,0.623,1.023,0.66,1.775c0.113,2.213-1.857,2.783-2.935,4.229c-1.434,1.924,1.019,2.634,2.447,3.742
	c0,0,7.024,5.734,7.787,6.508c0,0,17.571-8.027,6.719-17.975c-4.734-4.339-15.487,2.197-14.31,2.182"/>
<path fill="none" stroke="#9783C0" stroke-width="4" stroke-miterlimit="10" d="M295.141,247.696c0,0,3.972,8.452,4.43,20.075
	l-2.217,2.79l-65.736,28.67c0,0-29.32,12.242-42.146,21.696c-12.829,9.452-20.768,15.807-29.932,18.906
	c0,0-31.305,14.878-44.285,15.808l-1.068,2.634c0,0-22.907,8.214-25.809,3.255c0,0-4.58-4.649-2.596-9.609
	c1.986-4.959,1.986-2.943,1.986-2.943s0.153-19.683-6.567-20.457c0,0-5.039-5.732,0-8.678c5.04-2.945,3.667-3.874,18.479-10.229
	c0,0,67.495-32.234,75.742-33.164c0,0,36.542-10.496,47.284-5.713"/>
<path fill="none" stroke="#9783C0" stroke-width="4" stroke-miterlimit="10" d="M85.781,351.921c0,0,57.908-5.321,126.145-56.401"/>
<path fill="none" stroke="#9783C0" stroke-width="4" stroke-miterlimit="10" d="M81.2,328.521c0,0,61.3-35.333,123.115-42.772"/>
<path fill="none" stroke="#9783C0" stroke-width="4" stroke-miterlimit="10" d="M251.576,255.586c0,0,6.287-26.567,16.223-13.39"/>
<path fill="none" stroke="#9783C0" stroke-width="4" stroke-miterlimit="10" d="M114.186,358.275c0,0,32.525-3.41,70.398-27.586
	c0,0,14.658-13.923,62.915-34.546c48.253-20.623,45.043-19.073,49.855-25.582"/>
<path fill="none" stroke="#9783C0" stroke-width="4" stroke-miterlimit="10" d="M297.354,257.234
	c-11.53,25.104-42.351-4.54-42.351-4.54"/>
<path fill="none" stroke="#9783C0" stroke-width="4" stroke-miterlimit="10" d="M218.789,287.609c0,0,38.788-32.093,53.447-16.82
	c0,0,16.412,4.937,26.99-7.407"/>
<path fill="none" stroke="#9783C0" stroke-width="4" stroke-miterlimit="10" d="M271.771,285.748c0,0-31.681,133.897-66,114.99
	c0,0-10.194-3.719-11.108-5.579c-0.918-1.86-0.918-4.65-9.774-8.988l-22.295-10.229c0,0-0.917-0.931-10.079-1.239
	c0,0-10.995-0.31-12.827-7.438c0,0-2.467-4.004,15.258-20.909"/>
<path fill="none" stroke="#9783C0" stroke-width="4" stroke-miterlimit="10" d="M102.401,308.319c0,0,78.456-32.644,111.166-33.806"
	/>
<path fill="none" stroke="#9783C0" stroke-width="4" stroke-miterlimit="10" d="M154.299,374.776c0,0,3.102-16.501,30.285-44.087"/>
<path fill="none" stroke="#9783C0" stroke-width="4" stroke-miterlimit="10" d="M202.864,399.612c0,0,68.097-97.569,56.825-108.196"
	/>
<path fill="none" stroke="#9783C0" stroke-width="4" stroke-miterlimit="10" d="M332.774,337.308c0,0,4.566,0.928,13.702-16.687
	c0,0,6.853-25.498,5.481-31.986c0,0-0.275-5.565-9.5-8.345l-32.066,4.171c0,0-5.937,3.246-7.767,9.736v43.119
	c0,0,2.743,4.627,10.05,3.701L332.774,337.308z"/>
<path fill="none" stroke="#9783C0" stroke-width="4" stroke-miterlimit="10" d="M380.278,326.337
	c-0.588,1.924-5.186-2.589-5.902-3.435c-1.579-1.856-3.403-3.906-4.713-5.988c-2.67-4.243-4.791-9.112-6.433-13.755
	c-1.978-5.591-4.361-11.142-1.867-17.001c1.712-4.035,6.296-6.631,9.626-8.958c0,0,19.415-2.459,23.299,2.162l3.885,4.622
	c0,0,4.336,15.622,0.835,34.78"/>
<path fill="none" stroke="#9783C0" stroke-width="4" stroke-miterlimit="10" d="M398.173,283.984
	c0.077-3.724-2.668-7.249-2.668-7.249c-41.72-10.197-86.79,3.707-86.79,3.707c-2.729,0.67-5.438,0.593-7.918,2.005
	c-1.693,0.969-4.017,2.609-4.739,4.523c-0.431,1.134-0.245,2.287-0.618,3.475c-0.479,1.532-1.091,3.021-1.646,4.523l-2.132-1.854
	l-9.896,1.854c0,0-5.329,23.025,5.023,23.178c0,0,2.741,10.354,9.288,8.81c2.142-0.506,0.374,4.497,2.019,6.297
	c1.134,1.24,2.977,3.023,4.377,3.747"/>
<path fill="none" stroke="#9783C0" stroke-width="4" stroke-miterlimit="10" d="M351.504,302.077
	c1.073-0.851,2.967-0.821,4.254-0.786c1.926,0.054,2.071,0.554,2.894,2.278c1.892,3.958,3.966,7.825,5.827,11.798
	c1.16,2.476,2.495,5.013,4.187,7.115c1.47,1.828,3.653,2.638,5.674,3.541c3.907,1.754,9.556,1.88,13.558,0.508
	c4.146-1.423,9.698-3.178,11.111-7.767"/>
<path fill="none" stroke="#9783C0" stroke-width="4" stroke-miterlimit="10" d="M319.026,339.846c0,0,6.896,7.597,21.74,1.293
	c0,0,17.891-5.223,23.526-2.749c0,0,11.571,2.713,20.555-10.928"/>
<path fill="none" stroke="#9783C0" stroke-width="4" stroke-miterlimit="10" d="M296.077,326.492
	c2.31-2.479,1.857-7.03,1.683-10.253c-0.188-3.537-0.538-7.965-1.534-11.38c-0.345-1.193-1.003-2.073-1.785-3.1
	c-1.326-1.736-4.166-4.278-5.711-1.235c-1.174,2.311-1.015,5.826-1.329,8.353c-0.411,3.277-0.459,6.524-0.459,9.888"/>
<path fill="none" stroke="#9783C0" stroke-width="4" stroke-miterlimit="10" d="M347.086,291.726
	c-1.217-4.328-7.801-7.109-7.801-7.109s-33.613-0.771-34.683,10.973c-0.723,7.982-0.009,16.553,0.772,24.491
	c0.467,4.791,0.937,10.17,3.067,14.554c2.447,5.036,5.63,2.206,9.955,1.274c6.272-1.355,13.241-0.688,17.292-6.421
	c3.397-4.806,5.248-10.808,6.846-16.428c1.372-4.821,2.471-9.722,3.405-14.649C346.246,296.801,347.547,293.36,347.086,291.726z"/>
<path fill="none" stroke="#9783C0" stroke-width="4" stroke-miterlimit="10" d="M365.538,281.062h23.422
	c0,0,7.917,0.928,4.871,34.612c0,0,0.305,3.4-12.638,7.418c0,0-7.611,4.173-19.187-30.441
	C362.007,292.651,360.377,288.905,365.538,281.062z"/>
</svg>
