<?xml version="1.0" encoding="utf-8"?>
<!-- Generator: Adobe Illustrator 19.1.0, SVG Export Plug-In . SVG Version: 6.00 Build 0)  -->
<svg version="1.1" id="Layer_1" xmlns="http://www.w3.org/2000/svg" xmlns:xlink="http://www.w3.org/1999/xlink" x="0px" y="0px"
	 viewBox="0 0 800 600" style="enable-background:new 0 0 800 600;" xml:space="preserve">
<style type="text/css">
	.st0{fill:#FFFFFF;}
	.st1{display:none;}
	.st2{display:inline;fill:#FFFFFF;}
	.st3{display:inline;fill:none;stroke:#000000;stroke-miterlimit:10;}
	.st4{display:inline;}
	.st5{clip-path:url(#SVGID_2_);}
	.st6{font-family:'OpenSans-Bold';}
	.st7{font-size:12px;}
	.st8{clip-path:url(#SVGID_4_);fill:none;stroke:#000000;stroke-miterlimit:10;}
</style>
<g>
	<g>
		<path class="st0" d="M369.1,361.9c-4.4,0-8.4,1.8-11.4,4.7c-2.9,2.9-4.7,6.9-4.7,11.4c0,4.4,1.8,8.4,4.7,11.4
			c2.9,2.9,6.9,4.7,11.4,4.7c4.4,0,8.4-1.8,11.4-4.7c2.9-2.9,4.7-6.9,4.7-11.4c0-4.4-1.8-8.4-4.7-11.4
			C377.5,363.7,373.5,361.9,369.1,361.9 M381.7,365.3L381.7,365.3 M369.1,359.9c9.9,0,18,8.1,18,18c0,9.9-8.1,18-18,18
			c-9.9,0-18-8.1-18-18C351.1,368,359.1,359.9,369.1,359.9 M356.4,365.3L356.4,365.3"/>
		<path class="st0" d="M360.5,377.8c0-1.1-0.7-1.6-1.7-1.6h-0.6v3.3h0.6C359.8,379.4,360.5,378.9,360.5,377.8 M371.3,379l-4.4,3.5
			l-4.1-3.2c-0.6,1.4-2,2.4-3.6,2.4h-3.5v-7.7h3.5c1.8,0,3.1,1.2,3.6,2.4l4.1-3.2l1.5,1.2l-3.7,2.9l0.7,0.6l3.7-2.9l1.5,1.2
			l-3.7,2.9l0.7,0.6l3.7-2.9v-2.7h2.7v5.5h2.7v2.3h-5.4V379z M380.1,379.4h2.7v2.3h-5.4v-7.7h2.7V379.4z"/>
		<rect x="395.7" y="359.9" class="st0" width="0.9" height="36"/>
	</g>
	<g class="st1">
		<path class="st2" d="M396.1,368.5l11.1-1.5v10.7h-11.1 M408.6,366.8l14.7-2.1v13h-14.7 M396.1,378.9h11.1v10.8l-11.1-1.6
			 M408.6,379h14.7v12.9l-14.7-2.1"/>
		<path class="st2" d="M432.2,370c0.7,0,1.3,0,2,0c1,3.8,2.1,7.6,3.1,11.4c0.2,0.8,0.4,1.6,0.5,2.4c1.1-4.6,2.6-9.2,3.8-13.8
			c0.6,0,1.2,0,1.7,0c0.9,3.3,1.8,6.6,2.7,9.9c0.3,1.3,0.8,2.6,0.9,4c1-4.6,2.4-9.2,3.5-13.8c0.7,0,1.3,0,2,0
			c-1.4,5.3-2.9,10.5-4.4,15.8H446c-1.1-3.8-2.1-7.6-3.2-11.4c-0.2-0.6-0.3-1.2-0.3-1.9c-0.1,0.5-0.2,1.1-0.3,1.6
			c-1.1,3.9-2.2,7.7-3.2,11.6c-0.7,0-1.4,0-2.1,0C435.3,380.6,433.7,375.3,432.2,370"/>
		<path class="st2" d="M453.8,370.1c0.1-0.7,0.7-1.1,1.3-1c0.7,0.1,1.1,0.7,1,1.3c-0.1,0.7-0.7,1.1-1.3,1c-0.5-0.1-1-0.5-1-1
			 M454,374.5h1.8v11.3H454"/>
		<path class="st2" d="M460.6,376.3c1-1.8,3.4-2.7,5.3-1.8c1.5,0.6,2.1,2.4,2.1,3.9c0.1,2.5,0,5,0,7.5c-0.6,0-1.2,0-1.8,0
			c0-2.4,0.1-4.8,0-7.2c0-1.2-0.5-2.6-1.8-2.9c-1.9-0.6-3.8,1.1-3.8,3c-0.1,2.4,0,4.7,0,7.1h-1.8c0-3.8,0-7.6,0-11.3h1.8
			C460.6,375.1,460.6,375.7,460.6,376.3"/>
		<path class="st2" d="M478.8,369.1c0.6,0,1.2,0,1.8,0v16.7h-1.8c0-0.6,0-1.2,0-1.8c-1.3,2.3-4.8,2.8-6.7,1.1
			c-1.4-1.2-1.8-3.2-1.8-5c0-1.8,0.6-3.7,2.1-4.9c1.9-1.5,5.2-1.5,6.5,0.8C478.8,373.7,478.8,371.4,478.8,369.1 M475,375.7
			c-1.4,0.2-2.4,1.5-2.7,2.9c-0.4,1.6-0.3,3.5,0.7,4.9c1.1,1.5,3.6,1.5,4.8,0.1c0.8-0.8,1-2,1-3.2c0-1.2,0.1-2.5-0.7-3.5
			C477.5,375.9,476.2,375.5,475,375.7"/>
		<path class="st2" d="M487.6,374.2c1.6-0.1,3.4,0.1,4.6,1.3c1.4,1.3,1.8,3.2,1.7,5c0,1.6-0.6,3.2-1.8,4.3c-2.4,2.2-7,1.7-8.5-1.3
			c-1.2-2.6-1-6.1,1.3-8C485.6,374.7,486.6,374.4,487.6,374.2 M487.3,375.8c-2.6,0.8-3.1,4.2-2.3,6.5c0.7,2,3.2,2.9,5,2
			c1.2-0.6,1.8-2,1.9-3.2c0.1-1.5,0-3.2-1-4.4C490,375.7,488.5,375.5,487.3,375.8"/>
		<path class="st2" d="M494.6,374.5h1.9c0.7,2.7,1.5,5.4,2.2,8.1c0.2,0.5,0.2,1,0.3,1.6c0.8-3.3,1.9-6.4,2.9-9.7l1.6,0
			c0.8,3.2,1.8,6.4,2.5,9.7c0.7-3.2,1.7-6.4,2.5-9.6c0.6,0,1.2,0,1.8,0c-1.1,3.8-2.2,7.6-3.4,11.4H505c-0.8-3.1-1.9-6.1-2.5-9.2
			c-0.8,3.1-1.9,6.1-2.8,9.2H498C496.8,382.1,495.7,378.3,494.6,374.5"/>
		<path class="st2" d="M514.8,374.2c1.1-0.1,2.3,0,3.3,0.4c0.3,0.6,0.1,1.3,0.1,1.9c-1.3-0.8-3-1.3-4.4-0.5c-0.9,0.5-1,2-0.1,2.6
			c1.3,0.8,3,1.1,4.1,2.2c1.3,1.2,1,3.6-0.5,4.5c-1.8,1.2-4.2,1-6.1,0.2c0-0.7,0-1.3,0-2c1.4,1,3.3,1.6,4.9,0.9
			c0.9-0.5,1-1.9,0.2-2.5c-1.3-1-3.1-1.1-4.3-2.3c-1.1-1.2-0.9-3.3,0.3-4.2C513,374.6,513.9,374.4,514.8,374.2"/>
		<path class="st2" d="M527.2,369.8c0.2,0,0.5-0.1,0.6-0.1c0,5.4,0,10.8,0,16.2h-1.8c0-4.5,0-9,0-13.5c-1.1,0.8-2.3,1.4-3.7,1.8
			c0-0.6,0-1.2,0-1.8C524.2,371.8,525.8,370.9,527.2,369.8"/>
		<path class="st2" d="M534.4,369.8c1.6-0.3,3.3,0.3,4.2,1.6c1.3,1.9,1.4,4.2,1.5,6.4c0,2.3-0.3,4.8-1.8,6.7c-1.4,1.8-4.1,2.2-6,0.9
			c-1.5-1.1-2.1-2.9-2.3-4.6c-0.3-2.6-0.3-5.2,0.6-7.7C531.2,371.4,532.6,370,534.4,369.8 M534.1,371.4c-1.6,0.6-2,2.5-2.3,4.1
			c-0.2,2.1-0.3,4.3,0.2,6.4c0.3,1,0.8,2.1,1.8,2.6c1.2,0.6,2.7,0.1,3.3-1.1c1-1.7,1-3.7,1-5.6c0-1.8-0.1-3.8-1.1-5.4
			C536.5,371.3,535.2,370.9,534.1,371.4"/>
	</g>
	<g>
		<g>
			<polygon class="st0" points="416.4,377.6 432.1,377.6 432.1,363.8 416.4,365.9 			"/>
			<polygon class="st0" points="415.9,377.6 415.9,366 403.8,367.7 403.8,377.6 			"/>
			<polygon class="st0" points="415.9,378 403.8,378 403.8,387.9 415.9,389.6 			"/>
			<polygon class="st0" points="416.4,378 416.4,389.6 432.1,391.8 432.1,378 			"/>
		</g>
		<g>
			<path class="st0" d="M466,370.5c0,0.4-0.1,0.6-0.4,0.9c-0.2,0.2-0.5,0.4-0.9,0.4c-0.3,0-0.6-0.1-0.9-0.3
				c-0.2-0.2-0.4-0.5-0.4-0.9c0-0.3,0.1-0.6,0.4-0.9c0.2-0.2,0.5-0.4,0.9-0.4c0.4,0,0.7,0.1,0.9,0.4
				C465.9,369.9,466,370.2,466,370.5z"/>
		</g>
		<g>
			<path class="st0" d="M462.2,369.6l-4.7,16.6h-2.3l-3.7-13.1h0l-3.7,13.1h-2.3l-4.9-16.6h2.1l3.9,13.9h0l4-13.9h1.9l3.8,13.9h0
				l3.7-13.9H462.2z"/>
			<path class="st0" d="M465.7,386.2h-1.9v-11.9h1.9V386.2z"/>
			<path class="st0" d="M478.5,386.2h-1.9v-6.8c0-2.5-0.9-3.8-2.8-3.8c-0.9,0-1.7,0.4-2.4,1.1c-0.6,0.7-0.9,1.6-0.9,2.7v6.8h-1.9
				v-11.9h1.9v2h0c0.9-1.5,2.2-2.3,3.9-2.3c1.3,0,2.3,0.4,3,1.3c0.7,0.8,1,2.1,1,3.6V386.2z"/>
			<path class="st0" d="M491.7,386.2h-1.9v-2h0c-0.9,1.5-2.3,2.3-4.1,2.3c-1.5,0-2.7-0.5-3.6-1.6c-0.9-1.1-1.3-2.5-1.3-4.3
				c0-2,0.5-3.5,1.5-4.7c1-1.2,2.3-1.8,4-1.8c1.6,0,2.8,0.6,3.6,1.9h0v-7.3h1.9V386.2z M489.8,380.9v-1.7c0-1-0.3-1.8-1-2.4
				c-0.7-0.6-1.5-1-2.4-1c-1.1,0-2.1,0.4-2.7,1.3c-0.7,0.8-1,2-1,3.5c0,1.4,0.3,2.4,1,3.2c0.6,0.8,1.5,1.2,2.6,1.2
				c1,0,1.9-0.4,2.6-1.1C489.4,383,489.8,382,489.8,380.9z"/>
			<path class="st0" d="M505.9,380.3c0,1.9-0.5,3.4-1.6,4.5c-1.1,1.1-2.5,1.7-4.3,1.7c-1.8,0-3.2-0.6-4.2-1.7
				c-1.1-1.1-1.6-2.6-1.6-4.4c0-2,0.5-3.5,1.6-4.6c1.1-1.1,2.6-1.7,4.5-1.7c1.8,0,3.2,0.5,4.2,1.6
				C505.4,376.8,505.9,378.3,505.9,380.3z M503.9,380.3c0-1.5-0.3-2.6-1-3.4c-0.7-0.8-1.6-1.2-2.8-1.2c-1.2,0-2.2,0.4-2.9,1.2
				c-0.7,0.8-1.1,2-1.1,3.4c0,1.4,0.4,2.5,1.1,3.3c0.7,0.8,1.7,1.2,2.9,1.2c1.2,0,2.2-0.4,2.9-1.2
				C503.6,382.9,503.9,381.8,503.9,380.3z"/>
			<path class="st0" d="M523.2,374.4l-3.6,11.9h-2L515,377h0l-2.9,9.2h-1.9l-3.6-11.9h2l2.6,9.6h0.1l2.9-9.6h1.7l2.7,9.6h0.1
				l2.6-9.6H523.2z"/>
			<path class="st0" d="M531.3,383.1c0,1-0.4,1.9-1.2,2.5c-0.8,0.6-1.9,1-3.2,1c-1.1,0-2.1-0.2-3-0.7v-2c0.9,0.8,2,1.1,3.1,1.1
				c1.5,0,2.3-0.6,2.3-1.7c0-0.4-0.1-0.8-0.4-1.1c-0.3-0.3-1-0.7-2-1.1c-1.1-0.4-1.8-0.9-2.2-1.4c-0.4-0.5-0.7-1.2-0.7-2
				c0-1,0.4-1.8,1.2-2.5c0.8-0.7,1.8-1,3-1c0.9,0,1.8,0.2,2.6,0.6v1.9c-0.8-0.6-1.7-0.8-2.7-0.8c-0.6,0-1.1,0.2-1.5,0.5
				c-0.4,0.3-0.6,0.7-0.6,1.2c0,0.5,0.1,0.9,0.4,1.2c0.3,0.3,0.9,0.6,1.8,1c1.1,0.5,1.9,1,2.4,1.5
				C531.1,381.6,531.3,382.3,531.3,383.1z"/>
		</g>
	</g>
	<g>
		<path class="st0" d="M250.6,375.4c0,1.1-0.4,2-1.2,2.6c-0.8,0.6-1.9,0.9-3.3,0.9h-1.8v4.9h-0.8V372h2.9
			C249.2,372,250.6,373.1,250.6,375.4 M244.3,378.2h1.6c1.3,0,2.3-0.2,2.9-0.7c0.6-0.4,0.9-1.1,0.9-2.1c0-0.9-0.3-1.6-0.8-2
			c-0.6-0.4-1.4-0.7-2.6-0.7h-2V378.2z"/>
		<path class="st0" d="M263,377.9c0,1.9-0.5,3.4-1.4,4.4c-0.9,1.1-2.2,1.6-3.9,1.6c-1.6,0-2.9-0.5-3.9-1.6c-0.9-1.1-1.4-2.6-1.4-4.5
			c0-1.9,0.5-3.4,1.4-4.4c0.9-1.1,2.2-1.6,3.9-1.6c1.6,0,2.9,0.5,3.9,1.6C262.6,374.5,263,376,263,377.9 M253.4,377.9
			c0,1.7,0.4,3,1.1,3.9c0.8,0.9,1.8,1.4,3.2,1.4c1.4,0,2.5-0.5,3.3-1.4c0.8-0.9,1.1-2.2,1.1-3.9c0-1.7-0.4-3-1.1-3.9
			c-0.8-0.9-1.8-1.4-3.2-1.4c-1.4,0-2.5,0.5-3.2,1.4C253.8,374.9,253.4,376.2,253.4,377.9"/>
		<path class="st0" d="M275.1,383.8h-0.7l-2.6-9.1c-0.2-0.7-0.4-1.4-0.5-1.8c-0.1,0.5-0.2,1-0.4,1.6c-0.2,0.6-1,3.7-2.6,9.3h-0.7
			l-3.2-11.8h0.9l2.1,7.6c0.1,0.3,0.2,0.6,0.2,0.9c0.1,0.3,0.1,0.5,0.2,0.7c0.1,0.2,0.1,0.4,0.2,0.7c0,0.2,0.1,0.4,0.1,0.6
			c0.1-0.7,0.4-1.8,0.8-3.3l2-7.2h0.9l2.4,8.2c0.3,0.9,0.5,1.7,0.6,2.3c0.1-0.4,0.2-0.8,0.3-1.2c0.1-0.4,0.9-3.5,2.5-9.3h0.8
			L275.1,383.8z"/>
		<polygon class="st0" points="286.9,383.8 280.5,383.8 280.5,372 286.9,372 286.9,372.8 281.3,372.8 281.3,377.2 286.6,377.2 
			286.6,378 281.3,378 281.3,383 286.9,383 		"/>
		<path class="st0" d="M290.4,378.7v5.1h-0.8V372h2.8c1.5,0,2.5,0.3,3.2,0.8c0.7,0.5,1,1.4,1,2.4c0,0.8-0.2,1.5-0.6,2
			c-0.4,0.5-1.1,0.9-1.9,1.2l3.2,5.4h-1l-3-5.1H290.4z M290.4,378h2.2c1,0,1.8-0.2,2.3-0.7c0.5-0.4,0.8-1.1,0.8-2
			c0-0.9-0.3-1.6-0.8-2c-0.5-0.4-1.4-0.6-2.6-0.6h-2V378z"/>
		<polygon class="st0" points="305.8,383.8 299.4,383.8 299.4,372 305.8,372 305.8,372.8 300.2,372.8 300.2,377.2 305.5,377.2 
			305.5,378 300.2,378 300.2,383 305.8,383 		"/>
		<path class="st0" d="M317.5,377.8c0,2-0.5,3.5-1.6,4.5c-1,1-2.6,1.5-4.6,1.5h-2.8V372h3.2c1.9,0,3.3,0.5,4.3,1.5
			C317,374.5,317.5,375.9,317.5,377.8 M316.6,377.8c0-1.7-0.4-3-1.3-3.8c-0.9-0.9-2.1-1.3-3.8-1.3h-2.2v10.3h2
			C314.8,383.1,316.6,381.3,316.6,377.8"/>
		<path class="st0" d="M324.5,372h3.2c1.5,0,2.5,0.2,3.2,0.7c0.7,0.5,1,1.2,1,2.2c0,0.7-0.2,1.3-0.6,1.7c-0.4,0.5-1,0.7-1.8,0.9v0
			c0.9,0.1,1.6,0.4,2.1,0.9c0.4,0.5,0.7,1.1,0.7,1.9c0,1.1-0.4,1.9-1.1,2.5c-0.7,0.6-1.7,0.9-3.1,0.9h-3.6V372z M325.3,377.3h2.6
			c1.1,0,1.9-0.2,2.4-0.6c0.5-0.4,0.8-0.9,0.8-1.7c0-0.8-0.3-1.4-0.9-1.7c-0.6-0.4-1.4-0.5-2.5-0.5h-2.4V377.3z M325.3,378v5.1h2.8
			c2.2,0,3.3-0.9,3.3-2.7c0-1.6-1.1-2.4-3.5-2.4H325.3z"/>
		<polygon class="st0" points="337.5,378.5 341,372 341.9,372 337.9,379.2 337.9,383.8 337.1,383.8 337.1,379.3 333.1,372 
			334.1,372 		"/>
	</g>
	<g>
		<path class="st0" d="M233.2,324.2c0.4,0.2,0.7,0.4,1,0.6c0.3,0.3,0.5,0.6,0.6,1c0.2,0.4,0.2,0.8,0.2,1.2v14.6c0,0.1,0,0.3-0.1,0.3
			c-0.1,0.1-0.2,0.1-0.3,0.1H231c-0.1,0-0.2,0-0.3-0.1c-0.1-0.1-0.1-0.2-0.1-0.3v-13.2h-2.9v13.2c0,0.1,0,0.3-0.1,0.3
			c-0.1,0.1-0.2,0.1-0.3,0.1h-3.3c-0.1,0-0.3,0-0.3-0.1c-0.1-0.1-0.1-0.2-0.1-0.3v-13.2h-2.9v13.2c0,0.3-0.2,0.5-0.5,0.5h-3.6
			c-0.3,0-0.5-0.2-0.5-0.5v-17.1c0-0.3,0.2-0.5,0.5-0.5h15.6C232.5,323.9,232.9,324,233.2,324.2"/>
		<path class="st0" d="M251.3,323.9c0.4,0,0.8,0.1,1.2,0.2c0.4,0.2,0.7,0.4,1,0.6c0.3,0.3,0.5,0.6,0.6,1c0.2,0.4,0.2,0.8,0.2,1.2
			v14.6c0,0.1,0,0.3-0.1,0.3c-0.1,0.1-0.2,0.1-0.3,0.1h-3.6c-0.1,0-0.3,0-0.3-0.1c-0.1-0.1-0.1-0.2-0.1-0.3v-4.6
			c0-0.1,0-0.3-0.1-0.3c-0.1-0.1-0.2-0.1-0.3-0.1h-5.1c-0.1,0-0.3,0-0.3,0.1c-0.1,0.1-0.1,0.2-0.1,0.3v4.6c0,0.3-0.2,0.5-0.5,0.5
			h-3.6c-0.3,0-0.5-0.2-0.5-0.5v-14.6c0-0.4,0.1-0.8,0.2-1.2c0.2-0.4,0.4-0.7,0.6-1c0.3-0.3,0.6-0.5,1-0.6c0.4-0.2,0.8-0.2,1.2-0.2
			H251.3z M249.7,328h-6.1v4.5h6.1V328z"/>
		<path class="st0" d="M270.6,324.1c0.1,0.1,0.1,0.2,0.1,0.3V339c0,0.4-0.1,0.8-0.2,1.2c-0.2,0.4-0.4,0.7-0.6,1
			c-0.3,0.3-0.6,0.5-1,0.6c-0.4,0.2-0.8,0.2-1.2,0.2h-7.8c-0.4,0-0.8-0.1-1.2-0.2c-0.4-0.2-0.7-0.4-1-0.6c-0.3-0.3-0.5-0.6-0.6-1
			c-0.2-0.4-0.2-0.8-0.2-1.2v-5.5c0-0.3,0.2-0.5,0.5-0.5h3.6c0.3,0,0.5,0.2,0.5,0.5v3.7c0,0.1,0,0.2,0.1,0.3
			c0.1,0.1,0.2,0.1,0.3,0.1h3.7c0.1,0,0.3,0,0.3-0.1c0.1-0.1,0.1-0.2,0.1-0.3v-12.7c0-0.1,0-0.3,0.1-0.3c0.1-0.1,0.2-0.1,0.3-0.1
			h3.6C270.3,323.9,270.5,324,270.6,324.1"/>
		<path class="st0" d="M286.9,323.9c0.4,0,0.8,0.1,1.2,0.2c0.4,0.2,0.7,0.4,1,0.6c0.3,0.3,0.5,0.6,0.6,1c0.2,0.4,0.2,0.8,0.2,1.2v12
			c0,0.4-0.1,0.8-0.2,1.2c-0.2,0.4-0.4,0.7-0.6,1c-0.3,0.3-0.6,0.5-1,0.6c-0.4,0.2-0.8,0.2-1.2,0.2h-9.1c-0.4,0-0.8-0.1-1.2-0.2
			c-0.4-0.2-0.7-0.4-1-0.6c-0.3-0.3-0.5-0.6-0.6-1c-0.2-0.4-0.2-0.8-0.2-1.2v-12c0-0.4,0.1-0.8,0.2-1.2c0.2-0.4,0.4-0.7,0.6-1
			s0.6-0.5,1-0.6c0.4-0.2,0.8-0.2,1.2-0.2H286.9z M285.3,328.3h-6.1v9.3h6.1V328.3z"/>
		<path class="st0" d="M309.7,341.6c0.1,0.1,0.1,0.2,0,0.3c-0.1,0.1-0.1,0.1-0.3,0.1h-4.1c-0.1,0-0.3,0-0.4-0.1
			c-0.1-0.1-0.2-0.2-0.3-0.3l-2.7-4.9c0-0.1-0.1-0.1-0.2-0.1h-3.1c-0.1,0-0.1,0-0.1,0.1v4.8c0,0.3-0.2,0.5-0.5,0.5h-3.6
			c-0.3,0-0.5-0.2-0.5-0.5v-17.1c0-0.3,0.2-0.5,0.5-0.5h11.7c0.4,0,0.8,0.1,1.2,0.2c0.4,0.2,0.7,0.4,1,0.6c0.3,0.3,0.5,0.6,0.6,1
			c0.2,0.4,0.2,0.8,0.2,1.2v6.8c0,0.7-0.2,1.2-0.6,1.8c-0.4,0.5-0.9,0.9-1.5,1.1l-0.1,0c-0.1,0-0.1,0.1-0.1,0.2l0,0.1L309.7,341.6z
			 M304.6,328.1h-6.2v4.4h6.2V328.1z"/>
		<path class="st0" d="M334,337.6c0.1,0,0.2,0,0.3,0.1c0.1,0.1,0.1,0.2,0.1,0.3v3.4c0,0.1,0,0.3-0.1,0.3c-0.1,0.1-0.2,0.1-0.3,0.1
			h-11.1c-0.3,0-0.5-0.2-0.5-0.5v-17.1c0-0.3,0.2-0.5,0.5-0.5h3.6c0.3,0,0.5,0.2,0.5,0.5v12.7c0,0.1,0,0.2,0.1,0.3
			c0.1,0.1,0.2,0.1,0.3,0.1H334z"/>
		<path class="st0" d="M350.7,324.1c0.1,0.1,0.1,0.2,0.1,0.3v1.5v0.8v1c0,0.1,0,0.2-0.1,0.3c-0.1,0.1-0.2,0.1-0.3,0.1h-1.8h-5.4
			h-1.4c-0.1,0-0.1,0-0.1,0.1v2.8c0,0.1,0,0.1,0.1,0.1h7.4c0.1,0,0.2,0,0.3,0.1c0.1,0.1,0.1,0.2,0.1,0.3v2.6c0,0.1,0,0.3-0.1,0.3
			c-0.1,0.1-0.2,0.1-0.3,0.1h-7.4c-0.1,0-0.1,0-0.1,0.1v1.3v0v1.5c0,0.1,0,0.1,0.1,0.1h1.1h5.8h1.7c0.1,0,0.3,0,0.3,0.1
			c0.1,0.1,0.1,0.2,0.1,0.3v1v1.3v0.9c0,0.1,0,0.3-0.1,0.3c-0.1,0.1-0.2,0.1-0.3,0.1h-1.5h-9.8h-1.5c-0.3,0-0.5-0.2-0.5-0.5v-0.9
			v-15v-1.2c0-0.1,0-0.3,0.1-0.3c0.1-0.1,0.2-0.1,0.3-0.1h1.9h10.1h0.8C350.5,323.9,350.6,324,350.7,324.1"/>
		<path class="st0" d="M367.1,323.9c0.4,0,0.8,0.1,1.2,0.2c0.4,0.2,0.7,0.4,1,0.6c0.3,0.3,0.5,0.6,0.6,1c0.2,0.4,0.2,0.8,0.2,1.2
			v14.6c0,0.1,0,0.3-0.1,0.3c-0.1,0.1-0.2,0.1-0.3,0.1H366c-0.1,0-0.3,0-0.3-0.1c-0.1-0.1-0.1-0.2-0.1-0.3v-4.6c0-0.1,0-0.3-0.1-0.3
			c-0.1-0.1-0.2-0.1-0.3-0.1H360c-0.1,0-0.3,0-0.3,0.1c-0.1,0.1-0.1,0.2-0.1,0.3v4.6c0,0.3-0.2,0.5-0.5,0.5h-3.6
			c-0.3,0-0.5-0.2-0.5-0.5v-14.6c0-0.4,0.1-0.8,0.2-1.2c0.2-0.4,0.4-0.7,0.6-1c0.3-0.3,0.6-0.5,1-0.6c0.4-0.2,0.8-0.2,1.2-0.2H367.1
			z M365.5,328h-6.1v4.5h6.1V328z"/>
		<path class="st0" d="M389.2,332.3c0.1,0.1,0.1,0.2,0.1,0.3v6.3c0,0.4-0.1,0.8-0.2,1.2c-0.2,0.4-0.4,0.7-0.6,1
			c-0.3,0.3-0.6,0.5-1,0.6c-0.4,0.2-0.8,0.2-1.2,0.2h-9.1c-0.4,0-0.8-0.1-1.2-0.2c-0.4-0.2-0.7-0.4-1-0.6c-0.3-0.3-0.5-0.6-0.6-1
			c-0.2-0.4-0.2-0.8-0.2-1.2v-12c0-0.4,0.1-0.8,0.2-1.2c0.2-0.4,0.4-0.7,0.6-1c0.3-0.3,0.6-0.5,1-0.6c0.4-0.2,0.8-0.2,1.2-0.2h10.7
			c0.1,0,0.3,0,0.3,0.1c0.1,0.1,0.1,0.2,0.1,0.3v3.4c0,0.1,0,0.3-0.1,0.3c-0.1,0.1-0.2,0.1-0.3,0.1h-8.6c-0.1,0-0.3,0-0.3,0.1
			c-0.1,0.1-0.1,0.2-0.1,0.3v8.4c0,0.1,0,0.2,0.1,0.3c0.1,0.1,0.2,0.1,0.3,0.1h5.1c0.1,0,0.2,0,0.3-0.1c0.1-0.1,0.1-0.2,0.1-0.3
			v-4.5c0-0.1,0-0.3,0.1-0.3c0.1-0.1,0.2-0.1,0.3-0.1h3.6C388.9,332.1,389.1,332.2,389.2,332.3"/>
		<path class="st0" d="M408.2,324.1c0.1,0.1,0.1,0.2,0.1,0.3V339c0,0.4-0.1,0.8-0.2,1.2c-0.2,0.4-0.4,0.7-0.6,1
			c-0.3,0.3-0.6,0.5-1,0.6c-0.4,0.2-0.8,0.2-1.2,0.2h-9.1c-0.4,0-0.8-0.1-1.2-0.2c-0.4-0.2-0.7-0.4-1-0.6c-0.3-0.3-0.5-0.6-0.6-1
			c-0.2-0.4-0.2-0.8-0.2-1.2v-14.6c0-0.3,0.2-0.5,0.5-0.5h3.6c0.3,0,0.5,0.2,0.5,0.5v12.7c0,0.1,0,0.2,0.1,0.3
			c0.1,0.1,0.2,0.1,0.3,0.1h5.1c0.1,0,0.2,0,0.3-0.1c0.1-0.1,0.1-0.2,0.1-0.3v-12.7c0-0.1,0-0.3,0.1-0.3c0.1-0.1,0.2-0.1,0.3-0.1
			h3.6C408,323.9,408.1,324,408.2,324.1"/>
		<path class="st0" d="M426.1,324.1c0.1,0.1,0.1,0.2,0.1,0.3v1.5v0.8v1c0,0.1,0,0.2-0.1,0.3c-0.1,0.1-0.2,0.1-0.3,0.1h-1.8h-5.4
			h-1.4c-0.1,0-0.1,0-0.1,0.1v2.8c0,0.1,0,0.1,0.1,0.1h7.4c0.1,0,0.2,0,0.3,0.1c0.1,0.1,0.1,0.2,0.1,0.3v2.6c0,0.1,0,0.3-0.1,0.3
			c-0.1,0.1-0.2,0.1-0.3,0.1h-7.4c-0.1,0-0.1,0-0.1,0.1v1.3v0v1.5c0,0.1,0,0.1,0.1,0.1h1.1h5.8h1.7c0.1,0,0.3,0,0.3,0.1
			c0.1,0.1,0.1,0.2,0.1,0.3v1v1.3v0.9c0,0.1,0,0.3-0.1,0.3c-0.1,0.1-0.2,0.1-0.3,0.1h-1.5h-9.8h-1.5c-0.3,0-0.5-0.2-0.5-0.5v-0.9
			v-15v-1.2c0-0.1,0-0.3,0.1-0.3c0.1-0.1,0.2-0.1,0.3-0.1h1.9h10.1h0.8C425.9,323.9,426,324,426.1,324.1"/>
		<path class="st0" d="M453.8,323.9c0.1,0,0.3,0,0.3,0.1c0.1,0.1,0.1,0.2,0.1,0.3v17.1c0,0.1,0,0.3-0.1,0.3
			c-0.1,0.1-0.2,0.1-0.3,0.1h-3.6c-0.1,0-0.3,0-0.3-0.1c-0.1-0.1-0.1-0.2-0.1-0.3v-6c0-0.1,0-0.2-0.1-0.3c-0.1-0.1-0.2-0.1-0.3-0.1
			h-5.1c-0.1,0-0.3,0-0.3,0.1c-0.1,0.1-0.1,0.2-0.1,0.3v6c0,0.3-0.2,0.5-0.5,0.5h-3.6c-0.3,0-0.5-0.2-0.5-0.5v-17.1
			c0-0.3,0.2-0.5,0.5-0.5h3.6c0.3,0,0.5,0.2,0.5,0.5v5.8c0,0.3,0.2,0.5,0.5,0.5h5.1c0.1,0,0.2,0,0.3-0.1c0.1-0.1,0.1-0.2,0.1-0.3
			v-5.8c0-0.1,0-0.3,0.1-0.3c0.1-0.1,0.2-0.1,0.3-0.1H453.8z"/>
		<path class="st0" d="M470.5,323.9c0.4,0,0.8,0.1,1.2,0.2c0.4,0.2,0.7,0.4,1,0.6c0.3,0.3,0.5,0.6,0.6,1c0.2,0.4,0.2,0.8,0.2,1.2
			v14.6c0,0.1,0,0.3-0.1,0.3c-0.1,0.1-0.2,0.1-0.3,0.1h-3.6c-0.1,0-0.3,0-0.3-0.1c-0.1-0.1-0.1-0.2-0.1-0.3v-4.6
			c0-0.1,0-0.3-0.1-0.3c-0.1-0.1-0.2-0.1-0.3-0.1h-5.1c-0.1,0-0.3,0-0.3,0.1c-0.1,0.1-0.1,0.2-0.1,0.3v4.6c0,0.3-0.2,0.5-0.5,0.5
			h-3.6c-0.3,0-0.5-0.2-0.5-0.5v-14.6c0-0.4,0.1-0.8,0.2-1.2c0.2-0.4,0.4-0.7,0.6-1c0.3-0.3,0.6-0.5,1-0.6c0.4-0.2,0.8-0.2,1.2-0.2
			H470.5z M469,328h-6.1v4.5h6.1V328z"/>
		<path class="st0" d="M482.2,328.4c-0.1,0.1-0.1,0.2-0.1,0.3v8.4c0,0.1,0,0.2,0.1,0.3c0.1,0.1,0.2,0.1,0.3,0.1h8.3
			c0.1,0,0.3,0,0.3,0.1c0.1,0.1,0.1,0.2,0.1,0.3v3.4c0,0.1,0,0.3-0.1,0.3c-0.1,0.1-0.2,0.1-0.3,0.1h-5.4H481h-0.5
			c-0.4,0-0.8-0.1-1.2-0.2c-0.4-0.2-0.7-0.4-1-0.6c-0.3-0.3-0.5-0.6-0.6-1c-0.2-0.4-0.2-0.8-0.2-1.2v-0.5v-1.9v-6v-1.7v-2
			c0-0.4,0.1-0.8,0.2-1.2c0.2-0.4,0.4-0.7,0.6-1c0.3-0.3,0.6-0.5,1-0.6c0.4-0.2,0.8-0.2,1.2-0.2h0.5h9.8c0.1,0,0.3,0,0.3,0.1
			c0.1,0.1,0.1,0.2,0.1,0.3v3.4c0,0.1,0,0.3-0.1,0.3c-0.1,0.1-0.2,0.1-0.3,0.1h-8.3C482.4,328.3,482.3,328.4,482.2,328.4"/>
		<path class="st0" d="M505.7,331.5c-0.1,0.1-0.1,0.1,0,0.2l6,9.9c0.1,0.1,0.1,0.2,0,0.3c-0.1,0.1-0.1,0.1-0.3,0.1h-4.3
			c-0.1,0-0.3,0-0.4-0.1c-0.1-0.1-0.2-0.2-0.3-0.3l-3.9-7c-0.1-0.1-0.1-0.1-0.1,0l-2.1,2.3c-0.1,0.1-0.2,0.2-0.2,0.4
			c-0.1,0.2-0.1,0.3-0.1,0.5v3.8c0,0.3-0.2,0.5-0.5,0.5H496c-0.3,0-0.5-0.2-0.5-0.5v-17.1c0-0.3,0.2-0.5,0.5-0.5h3.6
			c0.3,0,0.5,0.2,0.5,0.5v7.7l6.7-7.8c0.1-0.1,0.2-0.2,0.4-0.3c0.2-0.1,0.3-0.1,0.4-0.1h4.3c0.1,0,0.2,0,0.2,0.1
			c0,0.1,0,0.2-0.1,0.3L505.7,331.5z"/>
		<path class="st0" d="M519.7,341.5c0,0.3-0.2,0.5-0.5,0.5h-3.6c-0.3,0-0.5-0.2-0.5-0.5v-17.1c0-0.3,0.2-0.5,0.5-0.5h3.6
			c0.3,0,0.5,0.2,0.5,0.5V341.5z"/>
		<path class="st0" d="M537,324.2c0.4,0.2,0.7,0.4,1,0.6c0.3,0.3,0.5,0.6,0.6,1c0.2,0.4,0.2,0.8,0.2,1.2v14.6c0,0.1,0,0.3-0.1,0.3
			c-0.1,0.1-0.2,0.1-0.3,0.1h-3.6c-0.1,0-0.2,0-0.3-0.1c-0.1-0.1-0.1-0.2-0.1-0.3v-12.7c0-0.1,0-0.2-0.1-0.3
			c-0.1-0.1-0.2-0.1-0.3-0.1h-5.1c-0.1,0-0.3,0-0.3,0.1c-0.1,0.1-0.1,0.2-0.1,0.3v12.7c0,0.3-0.2,0.5-0.5,0.5h-3.6
			c-0.3,0-0.5-0.2-0.5-0.5v-17.1c0-0.3,0.2-0.5,0.5-0.5h11.7C536.3,323.9,536.7,324,537,324.2"/>
		<path class="st0" d="M557.9,332.3c0.1,0.1,0.1,0.2,0.1,0.3v6.3c0,0.4-0.1,0.8-0.2,1.2c-0.2,0.4-0.4,0.7-0.6,1
			c-0.3,0.3-0.6,0.5-1,0.6c-0.4,0.2-0.8,0.2-1.2,0.2h-9.1c-0.4,0-0.8-0.1-1.2-0.2c-0.4-0.2-0.7-0.4-1-0.6c-0.3-0.3-0.5-0.6-0.6-1
			c-0.2-0.4-0.2-0.8-0.2-1.2v-12c0-0.4,0.1-0.8,0.2-1.2c0.2-0.4,0.4-0.7,0.6-1c0.3-0.3,0.6-0.5,1-0.6c0.4-0.2,0.8-0.2,1.2-0.2h10.7
			c0.1,0,0.3,0,0.3,0.1c0.1,0.1,0.1,0.2,0.1,0.3v3.4c0,0.1,0,0.3-0.1,0.3c-0.1,0.1-0.2,0.1-0.3,0.1h-8.6c-0.1,0-0.3,0-0.3,0.1
			c-0.1,0.1-0.1,0.2-0.1,0.3v8.4c0,0.1,0,0.2,0.1,0.3c0.1,0.1,0.2,0.1,0.3,0.1h5.1c0.1,0,0.2,0,0.3-0.1c0.1-0.1,0.1-0.2,0.1-0.3
			v-4.5c0-0.1,0-0.3,0.1-0.3c0.1-0.1,0.2-0.1,0.3-0.1h3.6C557.7,332.1,557.8,332.2,557.9,332.3"/>
	</g>
	<g>
		<g>
			<path class="st0" d="M324.9,199.5c2.3,1,4.3,2.4,6,4.1c1.7,1.7,3,3.7,4.1,6c1,2.3,1.5,4.8,1.5,7.4v94.8c0,0.9-0.3,1.6-0.9,2.2
				c-0.6,0.6-1.3,0.9-2.2,0.9h-22.7c-0.9,0-1.6-0.3-2.1-0.9c-0.5-0.6-0.8-1.3-0.8-2.2v-86.2h-18.3v86.2c0,0.9-0.3,1.6-0.8,2.2
				c-0.5,0.6-1.3,0.9-2.1,0.9h-20.6c-0.9,0-1.6-0.3-2.2-0.9c-0.6-0.6-0.9-1.3-0.9-2.2v-86.2h-18.3v86.2c0,2.1-1,3.1-3.1,3.1h-22.5
				c-2.1,0-3.1-1-3.1-3.1V201.1c0-2.1,1-3.1,3.1-3.1h98.4C320.1,198,322.5,198.5,324.9,199.5"/>
			<path class="st0" d="M324.9,199.5c2.3,1,4.3,2.4,6,4.1c1.7,1.7,3,3.7,4.1,6c1,2.3,1.5,4.8,1.5,7.4v8.4l-28.7,0.2h-18.3H263h-18.3
				l-28.7-0.2v-24.4c0-2.1,1-3.1,3.1-3.1h98.4C320.1,198,322.5,198.5,324.9,199.5"/>
			<path class="st0" d="M435.4,286.5c0.9,0,1.7,0.3,2.2,0.9c0.6,0.6,0.9,1.4,0.9,2.3v22.1c0,0.9-0.3,1.6-0.9,2.3
				c-0.6,0.6-1.3,0.9-2.2,0.9h-77.7c-2.2,0-3.3-1.1-3.3-3.2V201.2c0-2.1,1.1-3.2,3.3-3.2h23.8c2.2,0,3.3,1.1,3.3,3.2v82.4
				c0,0.9,0.3,1.6,1,2.2c0.6,0.6,1.4,0.8,2.3,0.8H435.4z"/>
			<path class="st0" d="M384.6,314.9h-26.9c-2.2,0-3.3-1.1-3.3-3.2V201.2c0-2.1,1.1-3.2,3.3-3.2h23.8c2.2,0,3.3,1.1,3.3,3.2v82.4
				C384.8,284.4,384.6,314.9,384.6,314.9"/>
			<path class="st0" d="M554.8,198c0.9,0,1.7,0.3,2.3,0.9c0.6,0.6,1,1.4,1,2.3v110.9c0,0.9-0.3,1.6-1,2.3c-0.6,0.6-1.4,0.9-2.3,0.9
				h-24.2c-0.9,0-1.7-0.3-2.3-0.9c-0.6-0.6-1-1.4-1-2.3v-38.7c0-0.9-0.3-1.6-0.9-2.2c-0.6-0.6-1.3-0.8-2.3-0.8h-33.9
				c-0.9,0-1.7,0.3-2.3,0.8c-0.6,0.6-1,1.3-1,2.2v38.7c0,2.1-1.1,3.2-3.3,3.2h-24c-2.2,0-3.3-1.1-3.3-3.2V201.2
				c0-2.1,1.1-3.2,3.3-3.2h24c2.2,0,3.3,1.1,3.3,3.2v37.5c0,2.1,1.1,3.2,3.3,3.2h33.9c0.9,0,1.7-0.3,2.3-0.9
				c0.6-0.6,0.9-1.4,0.9-2.3v-37.5c0-0.9,0.3-1.6,1-2.3c0.6-0.6,1.4-0.9,2.3-0.9H554.8z"/>
			<path class="st0" d="M487,273.4v38.7c0,2.1-1.1,3.2-3.3,3.2h-24c-2.2,0-3.3-1.1-3.3-3.2V201.2c0-2.1,1.1-3.2,3.3-3.2h24
				c2.2,0,3.3,1.1,3.3,3.2v37.5V273.4z"/>
			<path class="st0" d="M554.8,198c0.9,0,1.7,0.3,2.3,0.9c0.6,0.6,1,1.4,1,2.3v110.9c0,0.9-0.3,1.6-1,2.3c-0.6,0.6-1.4,0.9-2.3,0.9
				h-24.2c-0.9,0-1.7-0.3-2.3-0.9c-0.6-0.6-1-1.4-1-2.3v-38.7v-34.7v-37.5c0-0.9,0.3-1.6,1-2.3c0.6-0.6,1.4-0.9,2.3-0.9H554.8z"/>
		</g>
	</g>
</g>
<g class="st1">
	<line class="st3" x1="216" y1="198" x2="558" y2="198"/>
	<line class="st3" x1="216" y1="396" x2="558" y2="396"/>
	<line class="st3" x1="558" y1="198" x2="558" y2="396"/>
	<line class="st3" x1="216" y1="198" x2="216" y2="396"/>
	<line class="st3" x1="216" y1="360" x2="558" y2="360"/>
	<line class="st3" x1="216" y1="342" x2="558" y2="342"/>
	<line class="st3" x1="216" y1="315" x2="558" y2="315"/>
	<line class="st3" x1="234" y1="360" x2="234" y2="396"/>
	<line class="st3" x1="540" y1="360" x2="540" y2="396"/>
	<rect x="180" y="162" class="st3" width="414" height="270"/>
	<line class="st3" x1="216" y1="396" x2="216" y2="432"/>
	<line class="st3" x1="558" y1="396" x2="558" y2="432"/>
	<line class="st3" x1="558" y1="162" x2="558" y2="198"/>
	<line class="st3" x1="594" y1="198" x2="558" y2="198"/>
	<line class="st3" x1="180" y1="198" x2="216" y2="198"/>
	<line class="st3" x1="216" y1="162" x2="216" y2="198"/>
	<line class="st3" x1="180" y1="396" x2="216" y2="396"/>
	<line class="st3" x1="558" y1="396" x2="594" y2="396"/>
	<g class="st4">
		<defs>
			<rect id="SVGID_1_" width="800" height="600"/>
		</defs>
		<clipPath id="SVGID_2_">
			<use xlink:href="#SVGID_1_"  style="overflow:visible;"/>
		</clipPath>
		<path class="st5" d="M197.7,182.4h-1.3v2.3h-2.3v-2.3h-4.7v-1.6l4.9-7.2h2.2v7h1.3V182.4z M194.1,180.5v-1.9c0-0.3,0-0.8,0-1.4
			c0-0.6,0-0.9,0.1-1h-0.1c-0.2,0.4-0.4,0.8-0.7,1.2l-2,3.1H194.1z"/>
		<polygon class="st5" points="200.9,180.3 198.2,176.2 200.8,176.2 202.4,178.9 204.1,176.2 206.7,176.2 204,180.3 206.9,184.7 
			204.2,184.7 202.4,181.7 200.7,184.7 198,184.7 		"/>
		<path class="st5" d="M575.6,182.4h-1.3v2.3H572v-2.3h-4.7v-1.6l4.9-7.2h2.2v7h1.3V182.4z M572,180.5v-1.9c0-0.3,0-0.8,0-1.4
			c0-0.6,0-0.9,0.1-1H572c-0.2,0.4-0.4,0.8-0.7,1.2l-2,3.1H572z"/>
		<polygon class="st5" points="578.8,180.3 576.1,176.2 578.7,176.2 580.3,178.9 582,176.2 584.6,176.2 581.9,180.3 584.8,184.7 
			582.1,184.7 580.3,181.7 578.6,184.7 575.9,184.7 		"/>
		<path class="st5" d="M575.6,417.2h-1.3v2.3H572v-2.3h-4.7v-1.6l4.9-7.2h2.2v7h1.3V417.2z M572,415.4v-1.9c0-0.3,0-0.8,0-1.4
			c0-0.6,0-0.9,0.1-1H572c-0.2,0.4-0.4,0.8-0.7,1.2l-2,3.1H572z"/>
		<polygon class="st5" points="578.8,415.2 576.1,411.1 578.7,411.1 580.3,413.8 582,411.1 584.6,411.1 581.9,415.2 584.8,419.5 
			582.1,419.5 580.3,416.6 578.6,419.5 575.9,419.5 		"/>
		<path class="st5" d="M197.3,417.2H196v2.3h-2.3v-2.3h-4.7v-1.6l4.9-7.2h2.2v7h1.3V417.2z M193.7,415.4v-1.9c0-0.3,0-0.8,0-1.4
			c0-0.6,0-0.9,0.1-1h-0.1c-0.2,0.4-0.4,0.8-0.7,1.2l-2,3.1H193.7z"/>
		<polygon class="st5" points="200.5,415.2 197.8,411.1 200.4,411.1 202,413.8 203.7,411.1 206.3,411.1 203.6,415.2 206.5,419.5 
			203.8,419.5 202,416.6 200.3,419.5 197.6,419.5 		"/>
	</g>
	<text transform="matrix(0 -1 1 0 228.5273 384.9639)" class="st4 st6 st7">2x</text>
	<text transform="matrix(1 0 0 1 218.7227 354.4277)" class="st4 st6 st7">2x</text>
	<text transform="matrix(0 1 -1 0 544.7256 371.0479)" class="st4 st6 st7">2x</text>
	<text transform="matrix(1 0 0 1 542.2158 354.3262)" class="st4 st6 st7">2x</text>
	<g class="st4">
		<defs>
			<rect id="SVGID_3_" width="800" height="600"/>
		</defs>
		<clipPath id="SVGID_4_">
			<use xlink:href="#SVGID_3_"  style="overflow:visible;"/>
		</clipPath>
		<line class="st8" x1="180" y1="324" x2="594" y2="324"/>
		<line class="st8" x1="180" y1="315" x2="216" y2="315"/>
		<line class="st8" x1="558" y1="315" x2="594" y2="315"/>
	</g>
	<text transform="matrix(1 0 0 1 585 323)" class="st4 st6 st7">x</text>
	<text transform="matrix(1 0 0 1 182.0039 323)" class="st4 st6 st7">x</text>
</g>
</svg>
