<?xml version="1.0" encoding="utf-8"?>
<!-- Generator: Adobe Illustrator 22.0.1, SVG Export Plug-In . SVG Version: 6.00 Build 0)  -->
<svg version="1.1" xmlns="http://www.w3.org/2000/svg" xmlns:xlink="http://www.w3.org/1999/xlink" x="0px" y="0px"
	 viewBox="0 0 554.1 383" style="enable-background:new 0 0 554.1 383;" xml:space="preserve">
<style type="text/css">
	.st0{fill:#65676B;}
	.st1{fill:#E31837;}
	.st2{display:none;}
	.st3{display:inline;}
	.st4{fill:#77787B;}
</style>
<g id="Layer_1">
	<g>
		<g>
			<path class="st0" d="M216.7,193.7c-4.8-2.2-10.1-3.8-18.4-3.8c-16.7,0-27.4,13.3-27.4,32.9c0,19.2,9.1,33.9,28,33.9
				c7.7,0,16.1-2.8,20.8-4.8l1.2,22.4c-7.9,2.4-15.9,3.4-27,3.4c-34.1,0-51.2-23.2-51.2-54.9c0-30.1,17.8-53.9,50.2-53.9
				c10.9,0,18.8,1.2,26.2,3.4L216.7,193.7z"/>
			<path class="st0" d="M231.8,171.3h27v103.9h-27V171.3z"/>
			<path class="st0" d="M276.8,171.3h24.4v14.5h0.4c8.2-12.7,20.1-16.9,29.9-16.9c14.1,0,24,5.4,29.7,18.4
				c6.1-12.5,19.1-18.4,31.5-18.4c24.8,0,31.8,17.6,31.8,40.8v65.6h-26.2v-61.9c0-9.7,0-23.4-15-23.4c-17.4,0-19.5,21.4-19.5,34.9
				v50.4h-26.2v-61.9c0-9.7,0-23.4-15-23.4c-17.4,0-19.5,21.4-19.5,34.9v50.4h-26.2V171.3z"/>
			<path class="st0" d="M500.9,193.1c-8.3-2.8-14.3-4.4-24.2-4.4c-7.3,0-15.9,2.6-15.9,11.5c0,16.5,47,6.1,47,43.6
				c0,24.2-21.6,33.9-43.6,33.9c-10.3,0-20.8-1.8-30.7-4.4l1.6-22.2c8.5,4.2,17.4,6.9,26.6,6.9c6.9,0,17.8-2.6,17.8-12.7
				c0-20.4-47-6.5-47-44c0-22.4,19.6-32.3,40.8-32.3c12.7,0,21,2,29.5,3.8L500.9,193.1z"/>
		</g>
	</g>
	<g>
		<path class="st1" d="M128.2,298.8h13.6c-8.9,18.4-20.4,34.7-34.7,48.8C92.9,361.9,79.2,369,66,369c-8.9,0-16.7-3.2-23.4-9.5
			c-6.7-6.4-10.1-15.7-10.1-28c0-10,4.7-29.3,14.1-57.7l29-86.7c6.7-20.3,10.1-32.6,10.1-36.9c0-3.8-0.9-6.6-2.7-8.5
			c-1.8-1.9-4.5-2.8-8.1-2.8c-7.4,0-16.2,5.7-26.4,17.1c-10.2,11.4-17.3,21.8-21.5,31H13.3C23.8,166.3,35.7,150,49,138.1
			c13.4-11.9,25.8-17.9,37.4-17.9c8.9,0,16.2,3,21.9,9.1c5.7,6.1,8.5,14,8.5,23.9c0,10-4.5,28.4-13.4,55.1l-24.3,73.8
			c-8.9,26.7-13.4,43.4-13.4,50.3c0,5.5,1.1,9.6,3.3,12.4c2.2,2.8,5.4,4.1,9.6,4.1C92.6,348.9,109.2,332.2,128.2,298.8z M102.6,45.8
			c0-6.8,2.4-12.6,7.3-17.5c4.9-4.8,10.7-7.2,17.6-7.2c6.8,0,12.7,2.4,17.6,7.2c4.9,4.8,7.3,10.6,7.3,17.5c0,6.8-2.4,12.7-7.3,17.6
			c-4.9,4.9-10.7,7.4-17.6,7.4c-7.1,0-12.9-2.5-17.7-7.5C105,58.2,102.6,52.4,102.6,45.8z"/>
	</g>
	<g>
		<path class="st0" d="M535,159.1c0,4-1.4,7.5-4.3,10.3c-2.9,2.9-6.3,4.3-10.3,4.3c-4,0-7.5-1.4-10.3-4.3c-2.9-2.9-4.3-6.3-4.3-10.3
			c0-4,1.4-7.5,4.3-10.3c2.9-2.9,6.3-4.3,10.3-4.3c4,0,7.5,1.4,10.3,4.3C533.5,151.6,535,155.1,535,159.1z M531.4,159.1
			c0-3.4-1.1-6.2-3.2-8.5c-2.1-2.2-4.7-3.3-7.8-3.3c-3.1,0-5.7,1.1-7.8,3.3c-2.2,2.3-3.2,5.1-3.2,8.5c0,3.4,1.1,6.2,3.2,8.5
			c2.1,2.2,4.7,3.3,7.8,3.3c3.1,0,5.7-1.1,7.9-3.4C530.3,165.3,531.4,162.5,531.4,159.1z M527.1,167.3h-3.2l-4.3-7.1h-1.9v7.1h-3.1
			v-16.6h6.1c4.1,0,6.1,1.6,6.1,4.9c0,2.7-1.4,4.2-4.3,4.4L527.1,167.3z M523.9,155.4c0-1.5-1.1-2.3-3.4-2.3h-2.7v4.7h2.7
			c1.1,0,1.9-0.1,2.4-0.4C523.5,157.1,523.9,156.4,523.9,155.4z"/>
	</g>
</g>
<g id="side" class="st2">
	<g class="st3">
		<path class="st4" d="M269.3,310.3v5.1h5.9v-5.1h1.6v12.1h-1.6v-5.7h-5.9v5.7h-1.6v-12.1H269.3z"/>
		<path class="st4" d="M281.3,311.3c0,0.5-0.4,1-1,1c-0.6,0-1-0.4-1-1c0-0.6,0.4-1,1-1C280.9,310.3,281.3,310.7,281.3,311.3z
			 M279.5,322.5v-8.7h1.6v8.7H279.5z"/>
		<path class="st4" d="M283.7,316.5c0-1,0-1.9-0.1-2.7h1.4l0.1,1.7h0.1c0.4-1.2,1.4-1.9,2.4-1.9c0.2,0,0.3,0,0.4,0.1v1.5
			c-0.2,0-0.3-0.1-0.5-0.1c-1.1,0-1.9,0.8-2.1,2c0,0.2-0.1,0.5-0.1,0.7v4.6h-1.6V316.5z"/>
		<path class="st4" d="M290.2,318.4c0,2.1,1.4,3,3,3c1.1,0,1.8-0.2,2.4-0.5l0.3,1.1c-0.6,0.3-1.5,0.5-2.9,0.5
			c-2.7,0-4.3-1.8-4.3-4.4s1.5-4.7,4.1-4.7c2.8,0,3.6,2.5,3.6,4.1c0,0.3,0,0.6-0.1,0.7H290.2z M294.8,317.2c0-1-0.4-2.6-2.2-2.6
			c-1.6,0-2.3,1.5-2.4,2.6H294.8z"/>
		<path class="st4" d="M308.3,316.8h-4.7v4.4h5.3v1.3H302v-12.1h6.6v1.3h-5v3.8h4.7V316.8z"/>
		<path class="st4" d="M311.4,313.7l1.2,1.9c0.3,0.5,0.6,0.9,0.9,1.4h0.1c0.3-0.5,0.6-1,0.9-1.4l1.2-1.9h1.7l-3,4.2l3.1,4.5h-1.8
			l-1.3-2c-0.3-0.5-0.6-1-0.9-1.5h0c-0.3,0.5-0.6,1-0.9,1.5l-1.3,2h-1.7l3.1-4.4l-3-4.3H311.4z"/>
		<path class="st4" d="M318.9,316.6c0-1.1,0-2-0.1-2.8h1.4l0.1,1.5h0c0.6-1.1,1.7-1.7,3.1-1.7c2.1,0,3.7,1.8,3.7,4.4
			c0,3.1-1.9,4.7-4,4.7c-1.2,0-2.2-0.5-2.7-1.4h0v4.7h-1.6V316.6z M320.5,318.9c0,0.2,0,0.4,0.1,0.6c0.3,1.1,1.2,1.9,2.4,1.9
			c1.7,0,2.6-1.4,2.6-3.4c0-1.7-0.9-3.2-2.6-3.2c-1.1,0-2.1,0.8-2.4,2c-0.1,0.2-0.1,0.4-0.1,0.6V318.9z"/>
		<path class="st4" d="M330,318.4c0,2.1,1.4,3,3,3c1.1,0,1.8-0.2,2.4-0.5l0.3,1.1c-0.6,0.3-1.5,0.5-2.9,0.5c-2.7,0-4.3-1.8-4.3-4.4
			s1.5-4.7,4.1-4.7c2.8,0,3.6,2.5,3.6,4.1c0,0.3,0,0.6-0.1,0.7H330z M334.6,317.2c0-1-0.4-2.6-2.2-2.6c-1.6,0-2.3,1.5-2.4,2.6H334.6
			z"/>
		<path class="st4" d="M344.2,322.1c-0.4,0.2-1.3,0.5-2.5,0.5c-2.6,0-4.3-1.8-4.3-4.4c0-2.7,1.8-4.6,4.7-4.6c0.9,0,1.8,0.2,2.2,0.4
			l-0.4,1.2c-0.4-0.2-1-0.4-1.8-0.4c-2,0-3.1,1.5-3.1,3.3c0,2,1.3,3.3,3,3.3c0.9,0,1.5-0.2,1.9-0.4L344.2,322.1z"/>
		<path class="st4" d="M348.1,311.2v2.5h2.3v1.2h-2.3v4.7c0,1.1,0.3,1.7,1.2,1.7c0.4,0,0.7-0.1,0.9-0.1l0.1,1.2
			c-0.3,0.1-0.8,0.2-1.4,0.2c-0.7,0-1.3-0.2-1.7-0.7c-0.5-0.5-0.6-1.2-0.6-2.3v-4.8h-1.3v-1.2h1.3v-2.1L348.1,311.2z"/>
		<path class="st4" d="M356.9,322.5l-0.1-1.1h-0.1c-0.5,0.7-1.4,1.3-2.7,1.3c-1.8,0-2.7-1.2-2.7-2.5c0-2.1,1.9-3.3,5.2-3.2v-0.2
			c0-0.7-0.2-2-2-2c-0.8,0-1.7,0.3-2.3,0.6l-0.4-1c0.7-0.5,1.8-0.8,2.9-0.8c2.7,0,3.3,1.8,3.3,3.6v3.3c0,0.8,0,1.5,0.1,2.1H356.9z
			 M356.7,318c-1.7,0-3.7,0.3-3.7,2c0,1,0.7,1.5,1.5,1.5c1.1,0,1.9-0.7,2.1-1.5c0.1-0.2,0.1-0.3,0.1-0.5V318z"/>
		<path class="st4" d="M362.5,311.2v2.5h2.3v1.2h-2.3v4.7c0,1.1,0.3,1.7,1.2,1.7c0.4,0,0.7-0.1,0.9-0.1l0.1,1.2
			c-0.3,0.1-0.8,0.2-1.4,0.2c-0.7,0-1.3-0.2-1.7-0.7c-0.4-0.5-0.6-1.2-0.6-2.3v-4.8h-1.4v-1.2h1.4v-2.1L362.5,311.2z"/>
		<path class="st4" d="M368.2,311.3c0,0.5-0.4,1-1,1c-0.6,0-1-0.4-1-1c0-0.6,0.4-1,1-1C367.9,310.3,368.2,310.7,368.2,311.3z
			 M366.5,322.5v-8.7h1.6v8.7H366.5z"/>
		<path class="st4" d="M378.5,318c0,3.2-2.2,4.6-4.3,4.6c-2.4,0-4.2-1.7-4.2-4.5c0-2.9,1.9-4.6,4.3-4.6
			C376.8,313.5,378.5,315.4,378.5,318z M371.6,318.1c0,1.9,1.1,3.3,2.6,3.3c1.5,0,2.6-1.4,2.6-3.4c0-1.5-0.7-3.3-2.6-3.3
			S371.6,316.5,371.6,318.1z"/>
		<path class="st4" d="M380.4,316.1c0-0.9,0-1.6-0.1-2.4h1.4l0.1,1.4h0c0.4-0.8,1.4-1.6,2.9-1.6c1.2,0,3.1,0.7,3.1,3.7v5.2h-1.6v-5
			c0-1.4-0.5-2.6-2-2.6c-1,0-1.9,0.7-2.1,1.6c-0.1,0.2-0.1,0.5-0.1,0.7v5.2h-1.6V316.1z"/>
		<path class="st4" d="M390.1,320.8c0.5,0.3,1.3,0.6,2.1,0.6c1.2,0,1.7-0.6,1.7-1.3c0-0.8-0.5-1.2-1.6-1.6c-1.6-0.6-2.3-1.4-2.3-2.5
			c0-1.4,1.1-2.6,3-2.6c0.9,0,1.7,0.3,2.1,0.5l-0.4,1.2c-0.3-0.2-1-0.5-1.8-0.5c-0.9,0-1.5,0.5-1.5,1.2c0,0.7,0.5,1,1.7,1.5
			c1.5,0.6,2.3,1.3,2.3,2.6c0,1.5-1.2,2.6-3.3,2.6c-1,0-1.8-0.2-2.4-0.6L390.1,320.8z"/>
	</g>
	<g class="st3">
		<path class="st4" d="M413.8,310.3v0.5h-1v2.5h-0.6v-2.5h-1v-0.5H413.8z M417.1,313.2l-0.1-1.8c0-0.2,0-0.5,0-0.8h0
			c-0.1,0.3-0.2,0.6-0.3,0.9l-0.5,1.7h-0.6l-0.5-1.7c-0.1-0.2-0.1-0.6-0.2-0.8h0c0,0.3,0,0.6,0,0.8l-0.1,1.8H414l0.2-3h0.9l0.5,1.5
			c0.1,0.2,0.1,0.5,0.2,0.8h0c0.1-0.3,0.1-0.5,0.2-0.7l0.5-1.5h0.9l0.2,3H417.1z"/>
	</g>
</g>
<g id="bottom" class="st2">
	<g class="st3">
		<path class="st0" d="M132.2,346.3h-1.7v-5.4h-5.6v5.4h-1.7v-11.8h1.7v4.9h5.6v-4.9h1.7V346.3z"/>
		<path class="st0" d="M137.1,335.8h-1.8V334h1.8V335.8z M137,346.3h-1.6v-8.6h1.6V346.3z"/>
		<path class="st0" d="M144.7,339c-0.2-0.1-0.5-0.1-0.9-0.1c-0.7,0-1.3,0.3-1.7,0.9c-0.4,0.6-0.6,1.5-0.6,2.6v3.9h-1.6v-8.6h1.5v1.3
			h0c0.2-0.5,0.5-0.8,0.9-1.1c0.4-0.3,0.8-0.4,1.3-0.4c0.3,0,0.6,0,1,0.1V339z"/>
		<path class="st0" d="M153.7,342.3h-6.1c0,0.8,0.3,1.5,0.9,2.1c0.5,0.5,1.2,0.8,2,0.8c0.5,0,1-0.1,1.6-0.3c0.5-0.2,0.8-0.4,1.1-0.6
			v1.6c-1,0.4-1.9,0.6-2.7,0.6c-1.5,0-2.6-0.4-3.4-1.3c-0.7-0.8-1.1-1.9-1.1-3.4c0-1.3,0.4-2.3,1.1-3.1c0.7-0.8,1.7-1.2,2.9-1.2
			C152.4,337.5,153.7,339.1,153.7,342.3z M152,341.2c0-0.7-0.2-1.2-0.6-1.7c-0.4-0.5-0.9-0.7-1.6-0.7c-0.7,0-1.3,0.3-1.7,0.8
			c-0.3,0.4-0.5,1-0.6,1.6H152z"/>
		<path class="st0" d="M167.3,346.3h-6.6v-11.8h6.6v1.5h-4.9v3.4h4.5v1.5h-4.5v3.9h4.9V346.3z"/>
		<path class="st0" d="M176.8,346.3h-2l-2.1-3.4l-2.1,3.4h-1.9l3.1-4.5l-2.8-4.1h2l1.9,3.1l1.9-3.1h1.8l-2.8,4.1L176.8,346.3z"/>
		<path class="st0" d="M186.5,341.8c0,1.3-0.3,2.4-0.9,3.2c-0.7,1-1.6,1.4-2.8,1.4c-1.3,0-2.3-0.5-2.9-1.4h0v4.7h-1.6v-12.1h1.5v1.2
			h0c0.6-0.9,1.6-1.4,2.9-1.4c1.2,0,2.1,0.4,2.8,1.3C186.2,339.6,186.5,340.6,186.5,341.8z M184.8,342c0-0.9-0.2-1.6-0.5-2.2
			c-0.4-0.7-1-1-1.8-1c-0.8,0-1.5,0.3-1.9,1c-0.4,0.6-0.6,1.3-0.6,2.2c0,0.8,0.2,1.5,0.6,2.1c0.5,0.7,1.1,1.1,1.9,1.1
			c0.8,0,1.4-0.4,1.8-1.1C184.6,343.5,184.8,342.8,184.8,342z"/>
		<path class="st0" d="M195.8,342.3h-6.1c0,0.8,0.3,1.5,0.9,2.1c0.5,0.5,1.2,0.8,2,0.8c0.5,0,1-0.1,1.6-0.3c0.5-0.2,0.8-0.4,1.1-0.6
			v1.6c-1,0.4-1.9,0.6-2.7,0.6c-1.5,0-2.6-0.4-3.4-1.3c-0.7-0.8-1.1-1.9-1.1-3.4c0-1.3,0.4-2.3,1.1-3.1c0.7-0.8,1.7-1.2,2.9-1.2
			C194.6,337.5,195.8,339.1,195.8,342.3z M194.1,341.2c0-0.7-0.2-1.2-0.6-1.7c-0.4-0.5-0.9-0.7-1.6-0.7c-0.7,0-1.3,0.3-1.7,0.8
			c-0.3,0.4-0.5,1-0.6,1.6H194.1z"/>
		<path class="st0" d="M203.6,346.1c-0.5,0.2-1.2,0.4-2,0.4c-1.3,0-2.3-0.4-3.2-1.3c-0.8-0.9-1.2-1.9-1.2-3.2c0-1.3,0.4-2.4,1.2-3.2
			c0.8-0.8,1.9-1.3,3.2-1.3c0.7,0,1.4,0.1,1.9,0.3l-0.1,1.3c-0.6-0.2-1.2-0.4-1.7-0.4c-0.8,0-1.5,0.3-2,1c-0.5,0.6-0.7,1.4-0.7,2.2
			c0,0.9,0.2,1.6,0.7,2.2c0.5,0.7,1.2,1,2.2,1c0.6,0,1.2-0.2,1.7-0.5L203.6,346.1z"/>
		<path class="st0" d="M210.1,346.3c-0.5,0.2-1,0.2-1.3,0.2c-1.8,0-2.6-0.8-2.6-2.5v-5h-1.9v-1.3h1.9v-2l1.6-0.5v2.5h2.3v1.3h-2.3
			v4.7c0,0.5,0.1,0.9,0.4,1.1c0.2,0.3,0.6,0.4,0.9,0.4c0.4,0,0.8-0.1,1.1-0.3V346.3z"/>
		<path class="st0" d="M218.8,346.3h-1.5v-1.1h0c-0.6,0.9-1.5,1.3-2.7,1.3c-1,0-1.7-0.2-2.3-0.6c-0.6-0.5-0.9-1.1-0.9-2
			c0-1,0.5-1.7,1.4-2.2c0.7-0.4,1.6-0.6,2.6-0.6c0.7,0,1.3,0,1.7,0c0-0.8-0.2-1.3-0.5-1.7c-0.3-0.4-0.9-0.6-1.7-0.6
			c-1,0-1.8,0.3-2.5,0.9l-0.1-1.3c0.9-0.5,1.8-0.8,2.8-0.8c1.2,0,2.1,0.3,2.7,0.9c0.5,0.6,0.8,1.5,0.8,2.7v3.6
			C218.7,345.4,218.7,345.9,218.8,346.3z M217.1,342.9v-0.8c-0.1,0-0.3,0-0.5,0c-0.2,0-0.4,0-0.5,0c-2,0-3,0.6-3,1.7
			c0,0.4,0.2,0.8,0.5,1c0.3,0.2,0.7,0.4,1.1,0.4c0.8,0,1.3-0.2,1.8-0.7C216.9,344.1,217.1,343.6,217.1,342.9z"/>
		<path class="st0" d="M226.1,346.3c-0.5,0.2-1,0.2-1.3,0.2c-1.8,0-2.6-0.8-2.6-2.5v-5h-1.9v-1.3h1.9v-2l1.6-0.5v2.5h2.3v1.3h-2.3
			v4.7c0,0.5,0.1,0.9,0.4,1.1c0.2,0.3,0.6,0.4,0.9,0.4c0.4,0,0.8-0.1,1.1-0.3V346.3z"/>
		<path class="st0" d="M229.8,335.8H228V334h1.8V335.8z M229.7,346.3h-1.6v-8.6h1.6V346.3z"/>
		<path class="st0" d="M240.8,342c0,1.3-0.4,2.3-1.2,3.2c-0.8,0.9-1.9,1.3-3.1,1.3c-1.3,0-2.3-0.4-3.2-1.3c-0.8-0.9-1.2-1.9-1.2-3.2
			c0-1.3,0.4-2.4,1.2-3.2c0.8-0.8,1.9-1.3,3.2-1.3c1.3,0,2.3,0.4,3.2,1.3C240.4,339.6,240.8,340.7,240.8,342z M239.1,342
			c0-0.9-0.2-1.6-0.7-2.2c-0.5-0.7-1.2-1-2-1c-0.8,0-1.5,0.3-2,1c-0.5,0.6-0.7,1.4-0.7,2.2c0,0.9,0.2,1.6,0.7,2.2c0.5,0.7,1.2,1,2,1
			c0.9,0,1.5-0.3,2-1C238.9,343.6,239.1,342.8,239.1,342z"/>
		<path class="st0" d="M250.5,346.3h-1.6v-4.5c0-1-0.1-1.8-0.4-2.3c-0.3-0.5-0.8-0.8-1.4-0.8c-0.9,0-1.5,0.3-2,1
			c-0.4,0.6-0.6,1.5-0.6,2.6v4h-1.6v-8.6h1.5v1.4h0c0.2-0.5,0.6-0.9,1.1-1.1c0.5-0.3,1.1-0.4,1.7-0.4c2.1,0,3.2,1.2,3.2,3.7V346.3z"
			/>
		<path class="st0" d="M257.8,343.8c0,0.9-0.3,1.5-0.9,2c-0.6,0.4-1.2,0.7-2.1,0.7c-1,0-1.8-0.2-2.4-0.5l0.1-1.4
			c0.6,0.4,1.3,0.6,2,0.6c0.4,0,0.8-0.1,1.1-0.3c0.4-0.2,0.5-0.5,0.5-1c0-0.4-0.3-0.8-1-1.2c-0.6-0.3-1.2-0.6-1.8-1
			c-0.6-0.5-1-1-1-1.7c0-0.9,0.3-1.5,0.9-2c0.5-0.4,1.3-0.7,2.2-0.7c0.6,0,1.2,0.1,2,0.3l-0.1,1.4c-0.2-0.1-0.4-0.2-0.8-0.3
			c-0.4-0.1-0.6-0.1-0.8-0.1c-0.4,0-0.8,0.1-1.1,0.3c-0.3,0.2-0.5,0.5-0.5,0.8c0,0.5,0.3,0.9,1,1.2c0.6,0.3,1.2,0.6,1.8,0.9
			C257.5,342.4,257.8,343,257.8,343.8z"/>
		<path class="st0" d="M262.2,334.5H261v3.4h-0.7v-3.4h-1.3v-0.7h3.3V334.5z M267.6,337.9h-0.7v-3.1h0l-1.1,3.1h-0.6l-1.2-3.1h0v3.1
			h-0.7v-4.1h1.2l1.1,2.8l1.1-2.8h1.2V337.9z"/>
	</g>
</g>
<g id="Layer_2_copy">
	<g>
	</g>
	<g>
	</g>
	<g>
	</g>
	<g>
	</g>
	<g>
	</g>
	<g>
	</g>
</g>
</svg>
