<?xml version="1.0" encoding="utf-8"?>
<!-- Generator: Adobe Illustrator 21.0.0, SVG Export Plug-In . SVG Version: 6.00 Build 0)  -->
<svg version="1.1" id="Layer_1" xmlns="http://www.w3.org/2000/svg" xmlns:xlink="http://www.w3.org/1999/xlink" x="0px" y="0px"
	 viewBox="0 0 1000 1000" style="enable-background:new 0 0 1000 1000;" xml:space="preserve">
<style type="text/css">
	.st0{fill:#FFFFFF;}
</style>
<g id="Artboard-Copy">
	<g>
		<g>
			<path class="st0" d="M486,0c9.3,0,18.6,0,28,0c0.1,0.6,0.6,0.8,1.1,0.8c6.3,0.1,12.6,0.3,18.8,0.6c9.8,0.5,19.6,1.6,29.3,2.7
				c10.2,1.1,20.3,3.2,30.4,5.2c18.8,3.7,37.3,8.1,55.6,13.8c17.3,5.4,34.3,11.9,51,19.1c20.3,8.8,39.9,18.9,58.8,30.4
				c17.4,10.5,34,22.2,50,34.8c14.3,11.3,27.9,23.4,41.1,35.9c10,9.5,19.1,20,28.3,30.4c7.6,8.7,15,17.5,21.8,26.8
				c12.3,16.7,23.7,34,34,52.1c9.9,17.4,18.8,35.2,26.6,53.6c7.4,17.5,13.8,35.5,19,53.8c3.2,11.3,6.2,22.6,8.6,34.1
				c2.4,11.8,4.6,23.7,6.3,35.6c1.5,10.1,2.7,20.3,3.6,30.5c0.7,8.2,1.5,16.4,1,24.6c0,0.7-0.3,1.6,0.8,1.9c0,10.6,0,21.2,0,31.8
				c-0.9,0.2-0.8,0.9-0.8,1.5c-0.2,13.2-1.6,26.3-3,39.5c-1.4,13.9-3.8,27.7-6.5,41.4c-3.6,18.1-8.4,35.9-14.2,53.4
				c-8.9,27-19.8,53-33.1,78.2c-21.6,41.1-48.6,78.3-80.3,112c-15.2,16.2-31.6,31.1-48.9,44.9c-19.3,15.4-39.6,29.5-61,42
				c-25.9,15.2-52.9,27.9-81.2,38.2c-19.2,7-38.8,12.7-58.7,17.3c-16.3,3.8-32.8,6.8-49.4,8.9c-14.6,1.8-29.3,3.5-44.1,3.3
				c-0.7,0-1.6-0.3-1.9,0.8c-11.9,0-23.8,0-35.7,0c-0.1-0.6-0.6-0.8-1.1-0.8c-8.4,0-16.7-0.8-25-1.5c-10.7-0.9-21.3-2.3-31.9-3.9
				c-17.4-2.6-34.6-6.3-51.6-10.7c-32.1-8.3-62.9-20-92.7-34.6c-29-14.2-56.4-31.3-82.1-51c-15.9-12.2-31.1-25.3-45.5-39.2
				c-17.3-16.8-33.1-34.8-47.8-53.9c-16.8-21.8-31.7-44.8-44.6-69c-19.9-37.4-35-76.6-44.8-117.9C8.9,594.9,4.8,572.1,2.5,549
				c-1.1-10.4-2.1-20.9-1.7-31.4c0-1.2,0.6-2.6-0.7-3.6c0-9.3,0-18.6,0-28c1.3-0.8,0.7-2.1,0.8-3.2c0.3-5.2,0.3-10.5,0.6-15.7
				c0.7-11.2,2-22.3,3.2-33.4c1.1-10.4,2.9-20.7,4.9-31c3.4-17.6,7.8-35.1,13.3-52.3c7.3-23.1,16.3-45.5,26.7-67.4
				c4.7-9.8,9.9-19.3,15.1-28.9c6.6-12,13.9-23.5,21.6-34.8c7.4-10.9,15.4-21.5,23.7-31.8c9.1-11.4,18.6-22.3,28.6-32.8
				c14.4-15.2,29.8-29.2,46-42.4C196,103,207.8,94,220.1,85.7c15.8-10.6,32.1-20.4,49-29.1c15.8-8.2,32.1-15.5,48.7-22.1
				c18.7-7.4,37.7-13.5,57.2-18.5c13-3.3,26.1-6,39.3-8.3c12.2-2.2,24.4-3.9,36.7-5.1c10.3-1,20.6-2.1,31-1.8
				C483.4,0.8,484.9,1.4,486,0z M795.6,566.9c-8.3,8.3-16,15.9-23.6,23.6c-1.9,1.9-3.7,2.7-6.4,2.7c-32.7-0.1-65.5,0-98.2-0.1
				c-2.9,0-4.1,0.5-3.9,3.7c0.3,3.7,0.1,7.3-1.5,10.9c-3.9,8.8-8.6,17.2-13.5,25.5c-9,15.2-20.4,28.4-32.5,41
				c-6.3,6.5-13.3,12.4-20.5,18c-12.2,9.4-25,17.7-38.7,24.8c-10.4,5.4-21.3,9.8-32.2,14c-1.5,0.6-2.2,1-2.2,2.9
				c0.3,13.4,0,26.7,1.4,40.1c1.4,12.6,4.8,24.8,6.8,37.3c1.3,8.3,5.1,15.9,6.6,24.3c5.4,30,19.5,55.7,40.2,77.8
				c9.1,9.7,19.4,18.1,30.9,25c1.9,1.1,3.5,1.6,5.3,1.1c29.4-7.9,57.9-18,85.1-31.5c19.8-9.8,38.8-20.9,57.1-33.4
				c21.7-14.8,41.8-31.4,60.7-49.6c15.4-14.8,29.5-30.8,42.5-47.7c12.4-16.1,23.6-32.9,33.8-50.5c9.5-16.4,17.9-33.3,25.4-50.7
				c7.1-16.5,13.1-33.4,17.8-50.6c6.6-23.9,11.7-48.2,14.3-72.9c1.1-10.8,2.4-21.7,2.7-32.5c0.4-14.9,0.6-29.9-0.4-44.9
				c-0.8-11.5-1.9-22.9-3.2-34.3c-1.8-14.8-4.5-29.4-7.8-43.9c-5.3-23.1-12.5-45.6-21.4-67.6c-8.6-21.2-18.9-41.7-30.6-61.4
				c-10.7-18-22.7-35.1-35.8-51.5c-8.5-10.6-17.5-20.8-26.9-30.6c-15.9-16.7-33.2-31.9-51.5-45.9c-18-13.8-36.9-26.2-56.8-37.1
				c-19.8-10.9-40.3-20.1-61.4-28.1c-30.4-11.4-61.8-18.9-93.9-23.9c-13.4-2.1-27-3.4-40.6-3.7c-16.5-0.4-33-0.7-49.5,0.4
				c-13.2,0.9-26.3,2.2-39.4,4c-12.2,1.6-24.3,3.8-36.3,6.7c-17.2,4.1-34.2,9-50.9,15c-21.1,7.6-41.6,16.6-61.4,27.3
				c-18.6,10.1-36.4,21.4-53.6,33.9c-16.7,12.1-32.2,25.5-47.2,39.7c-12.3,11.6-23.5,24.2-34.3,37.3c-7.8,9.4-15.3,19.1-22.2,29.1
				c-8.4,12.1-16.2,24.7-23.5,37.5c-11,19.1-20.1,39-28.1,59.4c-6,15.2-11,30.7-15.1,46.5c-5.4,20.8-9.5,41.8-11.9,63.3
				c-1.1,10.4-2.5,20.7-2.7,31.1c-0.4,20.2-0.8,40.4,1.2,60.6c1.3,12.6,2.7,25.1,4.7,37.5c3.1,19.6,7.7,38.8,13.5,57.7
				c11.5,37.1,27.4,72.3,48.1,105.3c21.3,34,46.3,64.8,75.7,92.2c17.1,15.9,35.2,30.6,54.5,43.8c22.8,15.6,46.7,28.9,72,40
				c23.2,10.2,47,18.5,71.6,24.9c1.7,0.4,2.8,0,3.8-0.6c15.2-9.8,29-21.3,40.4-35.5c13.2-16.5,23-34.7,28.8-55
				c4.1-14.5,7.3-29.2,10.9-43.8c3.5-14.3,5.9-28.8,6.9-43.5c0.6-9.7,0.1-19.4,0.1-29.1c0-2-1.5-2-2.7-2.5
				c-6.6-2.7-13.3-5.2-19.7-8.2c-17.6-8.3-34.2-18.2-49.5-30.5c-11.8-9.6-22.8-20-32.7-31.5c-9.9-11.6-18.6-24-25.8-37.5
				c-4.2-7.9-9.3-15.8-7.9-25.5c0.4-3-0.8-3.5-3.6-3.5c-31.2,0.1-62.4,0.1-93.6,0.1c-5.2,0-10.9,1.3-15.3-0.5
				c-4.5-1.9-7.7-7-11.5-10.7c-5-4.8-9.9-9.6-15.6-15.1C400,566.9,597.4,566.9,795.6,566.9z M501.8,578.4c-43.2,0-86.4,0-129.6,0
				c-0.9,0-1.8,0.1-2.7,0c-1.4-0.1-2,0.4-2.1,1.9c-0.8,11.5,0.6,22.2,7.1,32.4c12.7,20.1,27.3,38.3,45.6,53.6
				c13,10.9,27,20.2,42.1,27.8c12.2,6.2,25,11,38.1,15.1c1.2,0.4,2.1,0.3,3.3-0.1c16.9-5.1,33.1-11.9,48.5-20.6
				c14.1-8.1,27.3-17.6,39.2-28.6c12.8-11.8,23.8-25.1,33.3-39.7c7.4-11.2,13.8-22.6,11.4-36.7c0-0.3,0-0.5,0-0.8
				c0.5-3.3-0.5-4.5-4.2-4.5C588.5,578.4,545.1,578.4,501.8,578.4z"/>
			<path class="st0" d="M795.8,399c-198.4,0-395.8,0-593.2,0c-0.3-1.4,0.9-1.7,1.6-2.3c7.3-7.4,14.6-14.6,21.9-22
				c1.6-1.7,3.3-2,5.5-2c35.2,0.1,70.4,0,105.6,0.1c3.3,0,3.9-0.9,3.9-4c-0.1-21.7,0.2-43.5-0.3-65.2c-0.1-5.4,2-7.6,6.2-9.4
				c10.1-4.2,20.1-8.3,30.5-11.6c15.5-4.9,31.2-8.7,47.2-11.6c11.7-2.1,23.4-3.4,35.2-4.6c10.1-1.1,20.2-1.3,30.2-2.5
				c6.2-0.7,12.3-0.9,18.4-0.5c11.7,0.7,23.4,2,35.1,3c10.4,0.9,20.8,2.1,31.1,3.8c11.4,1.9,22.6,4.3,33.8,7.1
				c17.6,4.5,34.6,10.6,51.2,18c2.8,1.2,4.2,2.6,4.2,6.2c-0.2,22.5-0.1,45-0.2,67.5c0,3.1,0.9,3.8,3.8,3.7c32.9-0.1,65.7,0,98.6-0.1
				c2.4,0,4,0.6,5.7,2.4C779.5,382.9,787.4,390.7,795.8,399z M501.3,386.7c25.5,0,51,0,76.5,0c18.4,0,36.7,0,55.1,0.1
				c2.5,0,3.2-0.5,3.2-3.1c-0.1-22-0.1-44,0-66c0-1.9-0.5-3.2-2.3-3.9c-19.3-7.3-39-12.7-59.3-16.2c-11.6-2-23.2-3.6-35-4.4
				c-11.3-0.8-22.7-2.2-34-2.5c-14-0.4-27.9,1.6-41.8,2.6c-13.9,1-27.7,3.1-41.3,5.7c-17.4,3.3-34.3,8.4-51,14.4
				c-3.1,1.1-4.1,2.7-4,6.1c0.2,21,0.2,41.9,0,62.9c0,3.3,0.5,4.5,4.3,4.5C414.9,386.7,458.1,386.7,501.3,386.7z"/>
			<path class="st0" d="M714.8,498.1c8.3,13.8,16.4,27.4,24.9,41.5c-10.4,0-20.3,0.1-30.1,0c-2.5,0-2.8-2.8-3.7-4.3
				c-5.4-9-10.6-18.1-15.5-27.4c-1.8-3.4-3.6-5.1-7.8-4.9c-8.7,0.4-8.7,0.1-8.7,8.9c0,8.4-0.1,16.8,0,25.2c0,1.9-0.4,2.7-2.5,2.6
				c-7.4-0.1-14.8-0.2-22.1,0c-2.4,0.1-2.6-0.9-2.6-2.9c0.1-8.9,0-17.9,0-26.8c0-26.8,0-53.6-0.1-80.3c0-2.6,0.5-3.5,3.3-3.4
				c14.5,0.2,29-0.3,43.5,0.2c13.4,0.5,25.6,4.6,34.3,15.7c3.9,5,5.9,10.7,6.7,16.8c1.2,8.6,0.2,17-4,24.8
				C726.9,490.3,721.4,494.8,714.8,498.1z M674,464.5c0,4.4,0,8,0,11.7c0,1.2-0.3,2.3,1.6,2.3c6.6-0.3,13.2,0.5,19.7-0.4
				c7-1,11.1-6.8,10.5-14.6c-0.5-6.5-5.4-10.9-12.1-11c-2.3,0-4.7,0-7,0c-4.1,0.1-9.8-1.5-12,0.6C672.3,455.5,674.3,461.1,674,464.5
				z"/>
			<path class="st0" d="M115.7,482.9c0-17.7,0.1-35.5-0.1-53.2c0-2.9,0.6-3.7,3.6-3.6c7.1,0.2,14.2,0.2,21.3,0
				c2.5-0.1,3.2,0.6,3.2,3.2c-0.1,12.4,0,24.8-0.1,37.3c0,2.4,0.5,3.3,3.1,3.2c11.6-0.2,23.3-0.2,34.9,0c2.9,0,3.3-0.9,3.3-3.5
				c-0.1-12.2,0.1-24.3-0.1-36.5c-0.1-3.2,1-3.8,3.9-3.7c7.1,0.2,14.2,0.1,21.3,0c2.2,0,2.8,0.5,2.8,2.8c-0.1,36-0.1,71.9,0,107.9
				c0,2.2-0.5,2.8-2.8,2.8c-7.5-0.1-15-0.1-22.5,0c-2.3,0-2.7-0.8-2.7-2.9c0.1-12.4,0-24.8,0.1-37.3c0-2.5-0.4-3.5-3.3-3.5
				c-11.6,0.2-23.3,0.2-34.9,0c-2.6,0-3.2,0.7-3.2,3.2c0.1,12.4,0,24.8,0.1,37.3c0,2.5-0.6,3.3-3.2,3.2c-7.2-0.2-14.5-0.2-21.7,0
				c-2.5,0.1-3.2-0.6-3.2-3.2C115.7,518.6,115.7,500.8,115.7,482.9z"/>
			<path class="st0" d="M539.6,466.6c9.7-9.4,19.6-18.8,29.4-28.3c3.6-3.5,6.9-7.2,10.4-10.7c0.9-0.9,1.9-1.5,3.4-1.5
				c10.6,0.1,21.2,0,32.2,0c-1.5,2.9-3.8,4.5-5.8,6.5c-13,13.1-26,26.3-39.2,39.2c-2.5,2.4-2.1,3.8-0.4,6.2
				c15.2,20.2,30.3,40.5,45.4,60.7c-0.4,1.3-1.3,0.8-2,0.8c-9.3,0-18.6,0-27.9,0c-1.8,0-2.8-0.4-4-2.1
				c-10.1-14.1-20.4-27.9-30.6-41.9c-1.4-1.9-1.9-2-3.9-0.4c-5.8,4.5-7.9,10-7.3,17.4c0.7,8.1,0.1,16.3,0.2,24.4
				c0,1.9-0.4,2.7-2.5,2.7c-7.2-0.1-14.5-0.2-21.7,0c-2.4,0.1-3-0.5-3-3c0.1-12,0.1-24.1,0.1-36.1c0-23.7,0-47.4-0.1-71
				c0-2.7,0.6-3.5,3.3-3.4c7,0.2,14,0.2,21,0c2.5-0.1,3,0.7,3,3C539.5,441.9,539.6,454.5,539.6,466.6z"/>
			<path class="st0" d="M840.1,460.9c0-10.5,0.1-21,0-31.4c0-2.3,0.2-3.4,3-3.3c7.4,0.2,14.7,0.2,22.1,0c2.5-0.1,2.9,0.8,2.9,3.1
				c-0.1,20.6,0.4,41.2-0.2,61.7c-0.4,12-2.6,23.7-10.6,33.7c-6.4,8-14.3,13.3-24.2,15.7c-12.6,3-25.3,2.8-37.4-1.9
				c-11.7-4.6-19.9-13.3-24.5-25.1c-2.3-6-3.1-12.3-3.5-18.7c-1.4-21.6-0.1-43.1-0.7-64.7c-0.1-3.2,1-3.8,3.9-3.7
				c6.7,0.2,13.5,0.3,20.2,0c3.7-0.2,4.1,1.1,4.1,4.3c-0.1,19.9-0.1,39.8-0.1,59.8c0,4.2,0.7,8.4,2,12.4c2.3,7.3,7.4,11.7,14.9,13.2
				c9.7,2,20.6-0.8,25.2-11c1.8-4.1,2.9-8.4,2.9-12.9C840.1,481.6,840.1,471.3,840.1,460.9z"/>
			<path class="st0" d="M354.8,539.6c-9.8,0-19.1,0-28.4,0c-1.4,0-2.1-0.6-2.5-1.8c-1.3-4-2.7-7.9-3.9-11.9
				c-0.8-2.5-1.8-3.7-4.8-3.7c-12.7,0.2-25.3,0.2-38,0c-2.5,0-3.6,0.8-4.3,3.2c-1.1,3.9-2.7,7.7-3.9,11.5c-0.6,1.8-1.3,2.7-3.5,2.7
				c-9-0.1-18.1-0.1-27.6-0.1c2.6-6.4,5-12.6,7.5-18.8c5.4-13.5,10.8-27,16.3-40.6c6.2-15.5,12.4-31.1,18.6-46.6
				c0.2-0.6,0.7-1.1,0.8-1.7c0.6-5.6,4.1-6.1,8.8-5.8c5.7,0.4,11.4,0.2,17.1,0c2,0,2.9,0.5,3.6,2.5c4.8,12.4,9.9,24.6,14.8,37
				c4.7,11.9,9.3,23.9,14,35.7C344.3,514,349.5,526.5,354.8,539.6z M296.3,459.8c-3.6,13.1-8.2,24.6-12.5,36.2
				c-0.7,2,0.3,1.9,1.6,1.9c7.2,0,14.5-0.1,21.7,0c2.1,0,2.4-0.7,1.7-2.5c-1.3-3.1-2.4-6.2-3.6-9.3
				C302,477.8,298.8,469.4,296.3,459.8z"/>
			<path class="st0" d="M427.1,542.1c-14.9,0-27.9-4.8-39.1-14.7c-10.5-9.3-16.5-20.9-18.4-34.8c-2.4-17.2,0.8-32.9,11.7-46.7
				c9-11.4,20.7-18.6,34.9-21c19-3.2,36.2,0.8,50.9,13.9c4.4,3.9,7.9,8.5,11.1,13.4c1,1.6,1.4,2.4-1.2,3c-8.2,1.9-16.2,4.1-24.3,6.3
				c-1.1,0.3-1.6,0.4-2.5-0.6c-10.8-11-27.5-12.8-40.2-4.4c-6.3,4.1-9.9,10.5-11.5,18c-1.9,8.8-1.3,17.3,3,25.2
				c5,9.1,12.9,14,23.4,14.4c9,0.4,17-1.6,23.7-7.7c0.2-0.2,0.6-0.2,0.7-0.4c2.7-5.9,7.1-4.4,11.7-3c5.7,1.8,11.5,3.2,17.4,4.5
				c3,0.6,2.8,2.1,1.6,4C468.1,531.6,450.6,542.1,427.1,542.1z"/>
			<path class="st0" d="M532.7,682.4c-1.2,0.2-1.2-0.6-1.4-1.6c-2.8-17-18-28.5-36.6-24.3c-11.3,2.5-18.5,10.4-21.7,21.7
				c-1.4,4.8-1.5,4.9-5.9,2.5c-7.8-4.1-15.5-8.4-22.7-13.6c-1.9-1.4-1.9-2.5-1.1-4.1c0.4-0.8,0.5-1.9,1-2.4
				c4.9-5.6,1.6-9.6-2.3-13.7c-2.6-2.8-5-5.8-7.5-8.7c-1-1.1-1.1-2,0.2-3.2c5.5-5.4,11-10.9,16.4-16.5c1.6-1.7,2.9-1.2,4.3,0
				c4.1,3.5,8.2,6.9,12.3,10.4c1.9,1.6,3.6,2,5.9,0.7c2.8-1.5,5.7-3,8.8-3.7c3.2-0.7,4.1-2.7,4.3-5.3c0.5-5.2,0.9-10.5,1-15.7
				c0-2.3,0.8-2.8,2.9-2.7c7.5,0.1,15,0.1,22.5,0c1.9,0,2.6,0.4,2.8,2.5c0.4,5.7,1.5,11.4,1.9,17.1c0.1,2.2,0.7,3.3,2.7,3.9
				c3.6,1,7,2.3,10.2,4.2c2.1,1.2,3.6,1,5.5-0.7c4.2-3.8,8.7-7.1,13-10.8c1.7-1.5,2.9-1.1,4.2,0.3c5.2,5.3,10.5,10.7,15.9,15.9
				c1.4,1.3,1.6,2,0.1,3.7c-4,4.5-7.6,9.3-11.6,13.8c-1.4,1.5-1.1,2.6-0.4,4.1c0.8,1.7,1.6,3.5,2.5,5.1c2.1,3.7,0.7,5.4-2.4,7.4
				c-6.9,4.6-14.3,8.4-21.4,12.6C535,681.8,533.8,682,532.7,682.4z"/>
			<path class="st0" d="M493,363.6c-6.6,0-6.6,0-4-5.1c5.9-11.7,11.9-23.5,17.8-35.3c1.9-3.8,8-6,11.9-4.3c1.6,0.7,0.5,1.7,0.1,2.5
				c-2.4,5-4.8,9.9-7.2,14.8c-3.6,7.5-7.6,14.8-10.9,22.5C498.9,362.8,496.7,364.7,493,363.6z"/>
			<path class="st0" d="M532.6,356.3c5-4.8,9-9.1,13.5-12.9c2.9-2.5,2.2-3.8-0.1-6.1c-3.9-3.9-8.6-7-12.6-12.2
				c6.7,0.8,13.1-2.2,18,4.5c2.6,3.6,6.4,6.2,9.7,9.2c1.3,1.2,2,2,0.2,3.6c-4.9,4.3-9.7,8.8-14.5,13.3c-0.7,0.6-1.3,0.7-2.1,0.7
				C541.1,356.3,537.5,356.3,532.6,356.3z"/>
			<path class="st0" d="M472.7,325.1c-5.4,5.5-10.2,10.4-15,15.3c4.8,4.7,10,9.7,15.1,14.7c-0.2,0.3-0.4,0.7-0.6,1
				c-6.2,0.1-12.5,1.6-17.5-4.5c-2.9-3.6-6.6-6.5-10.1-9.6c-1.7-1.5-1.3-2.4,0.3-3.7c3.8-3.2,7.7-6.4,11.1-10
				c2.3-2.4,4.7-3.7,8.1-3.3C466.7,325.4,469.4,325.1,472.7,325.1z"/>
		</g>
	</g>
</g>
</svg>
