<?xml version="1.0" encoding="UTF-8"?><svg id="Cloud4" xmlns="http://www.w3.org/2000/svg" viewBox="0 0 702.64 569.87"><defs><style>.cls-1{fill:#7abcd1;}.cls-2{fill:#b0dbe7;}.cls-3{fill:#57a1bd;}</style></defs><path class="cls-2" d="m289.25,431.61c0-31.66-32.25-57.33-72.03-57.33-20.78,0-39.49,7.01-52.63,18.21-12.41-11.21-29.93-18.21-49.36-18.21-37.62,0-68.13,26.2-68.13,58.53,0,2.93.26,5.8.74,8.62.03-.17.07-.33.1-.5,5.1,27.99,33.27,49.41,67.28,49.41,20.15,0,38.25-7.52,50.72-19.47,13.06,10.54,31.2,17.07,51.27,17.07,35.88,0,65.62-20.89,71.11-48.21.03.17.08.33.11.5.53-2.81.81-5.69.81-8.62Z"/><path class="cls-1" d="m289.25,432.64c0-2.93-.28-5.81-.81-8.62-5.22,27.57-35.12,48.71-71.22,48.71-20.06,0-38.21-6.54-51.27-17.07-12.47,11.95-30.57,19.47-50.72,19.47-34.22,0-62.53-21.67-67.38-49.91-.48,2.81-.74,5.69-.74,8.62,0,1.18.05,2.35.13,3.51.01-.17.03-.34.05-.51,2.4,30.46,31.89,54.53,67.94,54.53,20.15,0,38.25-7.52,50.72-19.47,13.06,10.54,31.2,17.07,51.27,17.07,38.1,0,69.26-23.54,71.83-53.35.01.17.04.34.05.51.09-1.16.15-2.32.15-3.5Z"/><path class="cls-3" d="m217.22,483.97c-20.06,0-38.21-6.54-51.27-17.07-12.47,11.95-30.57,19.47-50.72,19.47-36.25,0-65.88-24.33-67.99-55.02-.08,1.15-.13,2.32-.13,3.49,0,32.33,30.5,58.53,68.13,58.53,20.15,0,38.25-7.52,50.72-19.47,13.06,10.54,31.2,17.07,51.27,17.07,39.78,0,72.03-25.67,72.03-57.33,0-1.18-.06-2.34-.15-3.5-2.27,30.03-33.58,53.84-71.89,53.84Z"/><path class="cls-2" d="m641.26,227.47c0-29.4-27.46-54.26-65.19-62.41-7.04-34.36-40.46-60.4-80.65-60.4-37.97,0-69.9,23.23-79.25,54.77-43,1.68-77.24,31.5-77.24,68.04,0,2.47.16,4.9.47,7.3.02-.17.05-.33.08-.5,4.61,33.95,38.89,60.33,80.53,60.33,24.63,0,46.68-9.24,61.55-23.81,16.83,12.87,40.88,20.93,67.6,20.93,47.14,0,85.99-25.09,91.44-57.44.03.17.07.34.09.51.38-2.4.58-4.84.58-7.32Z"/><path class="cls-1" d="m641.26,229.04c0-2.45-.21-4.87-.58-7.25-5.14,32.59-44.15,57.93-91.53,57.93-26.72,0-50.77-8.06-67.6-20.93-14.87,14.57-36.92,23.81-61.55,23.81-41.84,0-76.28-26.64-80.61-60.83-.3,2.39-.47,4.81-.47,7.27,0,.79.04,1.57.07,2.36,0-.17.02-.34.03-.51,1.78,36.3,37.33,65.28,80.97,65.28,24.63,0,46.68-9.24,61.55-23.81,16.83,12.87,40.88,20.93,67.6,20.93,49.44,0,89.76-27.6,91.99-62.23.01.18.03.35.04.53.05-.85.08-1.69.08-2.55Z"/><path class="cls-3" d="m549.15,289.29c-26.72,0-50.77-8.06-67.6-20.93-14.87,14.57-36.92,23.81-61.55,23.81-43.84,0-79.53-29.24-81.01-65.77-.04.88-.07,1.76-.07,2.64,0,37.62,36.3,68.13,81.08,68.13,24.63,0,46.68-9.24,61.55-23.81,16.83,12.87,40.88,20.93,67.6,20.93,50.87,0,92.11-29.21,92.11-65.25,0-.82-.03-1.64-.08-2.45-1.89,34.85-42.37,62.7-92.04,62.7Z"/></svg>