<?xml version="1.0" encoding="utf-8"?>
<!-- Generator: Adobe Illustrator 19.2.1, SVG Export Plug-In . SVG Version: 6.00 Build 0)  -->
<svg version="1.1" id="Layer_1" xmlns="http://www.w3.org/2000/svg" xmlns:xlink="http://www.w3.org/1999/xlink" x="0px" y="0px"
	 viewBox="0 0 915.7 130.1" style="enable-background:new 0 0 915.7 130.1;" xml:space="preserve">
<style type="text/css">
	.st0{fill:#282828;}
</style>
<g>
	<path class="st0" d="M0,33.9c2-0.1,4.1-0.3,6.1-0.3c38.6,0,77.2,0,115.7,0c1.8,0,3.7,0,7.2,0c-8.7,7.2-16.2,13.5-23.8,19.6
		c-0.8,0.6-2.3,0.7-3.4,0.7c-33.1,0-66.2,0-99.4,0c-0.8,0-1.7-0.3-2.5-0.5C0,46.9,0,40.4,0,33.9z"/>
	<path class="st0" d="M613.3,49.4c6.5-3.8,12.5-8.7,19.3-10.9c19.6-6.4,39.7,2.9,48,21.8c6.8,15.4,6.3,31-1.3,46
		c-12.1,24.2-47.3,28-66,8c-0.1,2-0.3,3.6-0.3,5.2c0.1,4.3-2,6.4-6.2,6.3c-4.2,0-6.2-2.2-6.2-6.4c0-37.1,0-74.1,0-111.2
		c0-4.3,2-6.1,6.3-6.1c4.4,0,6.2,2.1,6.2,6.3C613.3,22.3,613.3,36.1,613.3,49.4z M613.1,79.5c0,2.6-0.1,5.1,0,7.7
		c0.5,19.7,19.2,33.3,38.2,27.7c13.9-4.1,22.5-18.7,21-35.8c-1.2-13.7-6.6-24.9-20.5-29.7c-9.8-3.4-19.3-1.6-27.7,4.4
		C615.4,60.1,611,68.5,613.1,79.5z"/>
	<path class="st0" d="M561.7,39c9.7,0,18.7,0,27.7,0c0.3,8.4-2.3,11.2-9.9,11.2c-5.3,0-10.6,0-15.9,0.1c-0.3,0-0.6,0.2-1.3,0.3
		c-0.2,1-0.5,2.1-0.5,3.2c0,15.2,0,30.4,0,45.6c0,1.5,0.1,3.1,0.2,4.6c1.2,10.6,8.8,15.1,18.7,10.8c3.5-1.5,7-4.1,9.7,0.8
		c1.8,3.2-0.7,6.9-5.8,9.4c-16.6,8-34.1-1.7-34.8-20c-0.7-16-0.2-32.1-0.3-48.2c0-2,0-4,0-6.1c-7.6,0-14.6-0.6-21.5,0.2
		c-7.7,0.9-13.5,5.7-16.1,12.8c-2.4,6.6-3.9,13.8-4.4,20.8c-0.7,11.4-0.1,22.9-0.2,34.3c-0.1,5.5-2.7,7.7-7.6,7
		c-4.5-0.6-5.2-3.8-5.2-7.5c0-15.4,0-30.8,0-46.1c0-8.9,0-17.8,0-26.7c0-4.3,1.1-7.4,6.2-7.5c5.1-0.1,6.4,3,6.4,7.3
		c0,3.1,0,6.1,0.4,9.9c9-17.9,25.3-17,41.9-16.2c0-5.1,0.1-9.5,0-13.9c-0.1-4.4,1.6-6.8,6.2-6.7c4.8,0,6.2,2.7,6.1,6.9
		C561.6,29.6,561.7,33.9,561.7,39z"/>
	<path class="st0" d="M267.1,127.1c-36.6,0-61.2-28.5-57.6-66.8c4.8-50.7,52.1-62.9,83-48.9c6.3,2.8,11.5,8.2,16.6,13.1
		c2.6,2.5,3.4,6.6-0.4,9.5c-3.6,2.8-6.5,1.2-9.3-1.8c-12.7-13.6-28.3-17.6-45.8-12.3c-17.9,5.4-27,18.9-30.1,36.7
		c-2.4,13.4-0.5,26.3,6.5,38.1c14.1,23.7,48.5,28.7,67.2,9.7c2-2,3.8-4.4,5.3-6.9c1.8-2.9,4.4-4,6.9-2.3c1.9,1.3,4,4.7,3.5,6.4
		c-1.1,3.8-3.2,7.6-5.9,10.5C296.2,123.1,282.3,127.1,267.1,127.1z"/>
	<path class="st0" d="M704.6,85.7c1.5,13.7,7.5,23.6,20,28c13,4.5,25.6,3.4,36.1-6.9c5.2-5.1,7.6-5.9,10.5-3.1
		c2.8,2.8,1.9,7-2.4,11.7c-0.6,0.6-1.2,1.2-1.9,1.8c-15.4,11.7-32.5,13.2-49.8,6c-16.7-6.9-24.3-20.9-24.9-38.5
		c-0.9-24,11.8-42.2,33-46.7c28.6-6.1,50.8,11.2,50.4,43c-0.1,4.4-2.9,4.8-6.2,4.8c-19.6,0-39.3,0-58.9,0
		C708.6,85.7,706.8,85.7,704.6,85.7z M705.8,74.3c18.6,0,37.3,0,55.9,0c-0.1-15.3-11-26.2-26-26.3C720.1,47.8,706.1,60.1,705.8,74.3
		z"/>
	<path class="st0" d="M842.8,73.1c1.4-14-5.1-22.5-18.2-24.3c-11.1-1.5-20.7,1.6-28,10.3c-2.5,2.9-4.9,5.1-8.6,2.4
		c-3.7-2.8-2.7-6.3-0.5-9.5c1.5-2.2,3.3-4.5,5.4-6.1c14.4-10.7,30.2-12.1,46.5-5.1c9.5,4.1,15.2,12.3,15.6,22.5
		c0.9,18.9,0.7,37.9,0.8,56.9c0,3.9-2.3,5.9-6.3,5.8c-4-0.1-6-2-5.8-6.1c0.1-1.8,0-3.7,0-6.5c-1.6,1.3-2.4,1.9-3.2,2.6
		c-12.4,11.4-26.8,13.7-42.4,8.8c-9.1-2.9-14.5-9.4-15.5-19.1c-1-9.9,2.6-17.8,11.3-22.9c10.8-6.3,22.9-7.7,35-8.7
		C833.4,73.6,838,73.4,842.8,73.1z M842.6,82.8c-9.8,1.2-19.4,2.1-28.9,3.6c-3.8,0.6-7.5,2.2-10.9,4c-5.9,3.1-8.4,8.4-7.4,14.4
		c1,6.2,5.3,9.5,11,10.7C824.1,119.4,846.9,109.4,842.6,82.8z"/>
	<path class="st0" d="M338.5,50.2c0.7-1.1,1.3-2.4,2.2-3.3c10.5-10.7,23.3-12.4,36.9-8.2c13.3,4.1,20,14.6,20.9,27.7
		c1.2,18,0.8,36.2,0.9,54.3c0,4-2.5,5.4-6.1,5.2c-3.9-0.1-5.8-2.1-5.8-6.2c0.1-13.7,0.1-27.3,0-41c0-3.2-0.2-6.5-0.7-9.7
		c-1.9-11.5-8.4-18.5-18.2-20c-12.1-1.8-23.5,3.1-28.1,13.2c-2.1,4.7-3.2,10.1-3.4,15.3c-0.5,13.7-0.1,27.3-0.2,41
		c0,6-3.2,8.7-8.8,7.1c-1.8-0.5-3.2-2.9-4.5-4.6c-0.5-0.7-0.2-2-0.2-3c0-36,0-72.1,0-108.1c0-6.2,1.2-7.5,6.3-7.6
		c5.3-0.1,7.1,1.4,7.1,6.9c0.1,11.8,0,23.6,0,35.4c0,1.6,0.1,3.3,0.2,4.9C337.7,49.7,338.1,50,338.5,50.2z"/>
	<path class="st0" d="M469,73.1c1.3-13.6-5.3-22.3-17.9-24.2c-11.3-1.7-21,1.4-28.5,10.2c-2.5,2.9-5,5.1-8.6,2.4
		c-3.7-2.8-2.7-6.4-0.5-9.6c6.2-9.2,15.4-13.3,25.9-14.6c5.2-0.7,10.6-0.7,15.8,0.1c16.6,2.7,26.4,14.3,26.5,31.3
		c0.2,16.6,0.1,33.1,0,49.7c0,5.6-1.6,7.5-6,7.5c-5,0-6.4-3.1-6.1-7.5c0.1-1.4,0-2.7,0-4.8c-1.3,1-2.3,1.5-3,2.2
		c-12.1,11.4-26.4,13.7-41.8,9.1c-9.8-2.9-15.5-9.9-16.2-20.2C407.7,94.6,412,86.9,421,82c10.6-5.7,22.3-7.1,34.1-8.1
		C459.7,73.6,464.3,73.4,469,73.1z M469,83c-8.8,0.9-17.4,1.5-25.9,2.9c-4.8,0.8-9.6,2.4-14,4.6c-6.3,3.1-8.8,8.6-7.7,14.7
		c0.9,5.3,5.2,9.5,11.7,10.7C451.8,119,472.4,108.5,469,83z"/>
	<path class="st0" d="M157.8,8.6c-8.1,6.8-15.5,13-23,19.1c-0.8,0.7-2.2,0.7-3.4,0.7c-36,0-72.1,0-108.1,0c-0.8,0-1.6-0.3-2.6-0.4
		c0-6.4,0-12.7,0-19.4C66.1,8.6,111.4,8.6,157.8,8.6z"/>
	<path class="st0" d="M63.9,127.4c-5.1-1.2-8.2-3.2-9.7-7.3c-1.7-4.6-0.3-8.3,3.2-11.5C68,98.9,78.6,89.2,89.1,79.5
		c24.2-22.1,48.4-44.3,72.7-66.4c0.5-0.5,0.9-1.2,1.5-1.3c2-0.6,4.1-1,6.1-1.5c-0.6,2.1-0.5,4.7-1.8,6.1
		c-31.8,35.3-63.8,70.4-95.8,105.5C69.8,124.2,66.6,125.6,63.9,127.4z"/>
	<path class="st0" d="M873.9,49.4c-3.4,0-6.1,0-8.8,0c-3.2,0-5.1-2-4.4-4.9c0.5-2,2.3-4.5,4.2-5.3c2.4-0.9,5.3-0.2,9-0.2
		c0-4.6-0.1-8.8,0-12.9c0.1-5.9,1.7-7.6,6.5-7.7c5.3-0.1,6.1,3.3,6.1,7.4c0,4.1,0,8.2,0,12.9c9.5,0,18.7,0,27.8,0
		c-0.2,8.1-2.7,10.6-9.7,10.7c-5.8,0-11.6,0-18.3,0c0,4.5,0,8.7,0,12.9c0.1,12,0.2,23.9,0.3,35.9c0,1.5,0,3.1,0.2,4.6
		c0.9,12,8.5,16.6,19.5,11.6c3.3-1.5,6.6-3.2,8.8,1.1c2.1,4-0.9,6.4-3.8,8.4c-14.4,9.7-34.8,1-36.3-16.2c-1.3-14.2-0.8-28.7-1-43
		C873.9,59.9,873.9,55.1,873.9,49.4z"/>
	<path class="st0" d="M36,79.2c0-7.1,0-13.3,0-19.8c20.8,0,41.4,0,63.2,0C91,66.3,83.6,72.5,76.1,78.7c-0.5,0.4-1.3,0.5-1.9,0.5
		C61.6,79.2,49,79.2,36,79.2z"/>
</g>
</svg>
