<?xml version="1.0" encoding="UTF-8"?><svg id="Cloud3" xmlns="http://www.w3.org/2000/svg" viewBox="0 0 702.64 569.87"><defs><style>.cls-1{fill:#7abcd1;}.cls-2{fill:#b0dbe7;}.cls-3{fill:#57a1bd;}</style></defs><path class="cls-2" d="m678.63,342.61c0-39.61-46.46-71.73-103.77-71.73-21.21,0-40.92,4.4-57.35,11.95-13.62-31.48-47.24-53.74-86.55-53.74-22.7,0-43.5,7.43-59.64,19.76-16.59-49.58-65.55-85.51-123.37-85.51-63.1,0-115.64,42.79-127.08,99.4-50.85.03-92.07,32.67-92.07,72.92,0,3.39.3,6.72.86,9.99.03-.17.07-.33.1-.5,6.43,35.3,44.79,62.43,91.18,62.43,15.89,0,30.84-3.18,43.89-8.79,16.76,18.68,47.71,31.22,83.12,31.22s68.61-13.47,84.89-33.28c21.64,19.28,56.66,31.81,96.19,31.81,35.82,0,67.95-10.29,89.76-26.57,16.17,7.19,35.41,11.36,56.07,11.36,52.15,0,95.3-26.6,102.64-61.24.04.17.08.33.12.5.66-3.26,1.01-6.6,1.01-9.99Z"/><path class="cls-1" d="m678.63,344.61c0-3.39-.35-6.72-1.01-9.99-7.03,34.89-50.35,61.74-102.76,61.74-20.66,0-39.9-4.17-56.07-11.36-21.81,16.28-53.94,26.57-89.76,26.57-39.53,0-74.56-12.53-96.19-31.81-16.29,19.82-48.19,33.28-84.89,33.28s-66.36-12.54-83.12-31.22c-13.05,5.6-28,8.79-43.89,8.79-46.61,0-85.13-27.39-91.28-62.93-.57,3.27-.86,6.6-.86,9.99,0,1.43.06,2.84.16,4.25.01-.17.04-.35.05-.52,3.08,38.07,43.06,68.19,91.94,68.19,15.89,0,30.84-3.18,43.89-8.79,16.76,18.68,47.71,31.22,83.12,31.22s68.61-13.47,84.89-33.28c21.64,19.28,56.66,31.81,96.19,31.81,35.82,0,67.95-10.29,89.76-26.57,16.17,7.19,35.41,11.36,56.07,11.36,54.99,0,99.97-29.57,103.53-66.96.01.16.04.32.05.48.12-1.41.19-2.82.19-4.25Z"/><path class="cls-3" d="m574.87,408.34c-20.66,0-39.9-4.17-56.07-11.36-21.81,16.28-53.94,26.57-89.76,26.57-39.53,0-74.56-12.53-96.19-31.81-16.29,19.82-48.19,33.28-84.89,33.28s-66.36-12.54-83.12-31.22c-13.05,5.6-28,8.79-43.89,8.79-49.09,0-89.21-30.37-91.99-68.67-.1,1.36-.16,2.74-.16,4.12,0,40.27,41.26,72.92,92.15,72.92,15.89,0,30.84-3.18,43.89-8.79,16.76,18.68,47.71,31.22,83.12,31.22s68.61-13.47,84.89-33.28c21.64,19.28,56.66,31.81,96.19,31.81,35.82,0,67.95-10.29,89.76-26.57,16.17,7.19,35.41,11.36,56.07,11.36,57.31,0,103.77-32.11,103.77-71.73,0-1.38-.07-2.76-.19-4.12-3.18,37.63-48.34,67.48-103.58,67.48Z"/></svg>