<?xml version="1.0" encoding="UTF-8"?><svg id="Cloud1" xmlns="http://www.w3.org/2000/svg" viewBox="0 0 702.64 569.87"><defs><style>.cls-1{fill:#7abcd1;}.cls-2{fill:#b0dbe7;}.cls-3{fill:#57a1bd;}</style></defs><path class="cls-2" d="m671.69,295.3c0-41.52-42.18-75.17-94.21-75.17-5.38,0-10.65.37-15.79,1.06-19.03-51.9-74.24-89.44-139.4-89.44-28.72,0-55.51,7.3-78.12,19.91-22.61-12.6-49.4-19.91-78.12-19.91-64.6,0-119.43,36.9-138.91,88.11-2.5-.16-5.03-.24-7.58-.24-52.03,0-94.21,33.66-94.21,75.17,0,6.09.91,12.01,2.63,17.68.05-.17.11-.33.17-.5,10.19,32.73,47.24,56.99,91.41,56.99,18.45,0,35.66-4.24,50.19-11.55,25.75,19.84,59.44,31.87,96.31,31.87,28.72,0,55.51-7.3,78.12-19.91,22.61,12.6,49.4,19.91,78.12,19.91,38.4,0,73.34-13.04,99.46-34.37,15.61,9.15,34.87,14.56,55.72,14.56,44.17,0,81.22-24.26,91.41-56.99.05.17.11.33.17.5,1.71-5.67,2.63-11.59,2.63-17.68Z"/><path class="cls-1" d="m577.49,335.7c-20.85,0-40.12-5.41-55.72-14.56-26.12,21.33-61.06,34.37-99.46,34.37-28.72,0-55.51-7.3-78.12-19.91-22.61,12.6-49.4,19.91-78.12,19.91-36.87,0-70.56-12.02-96.31-31.87-14.53,7.31-31.74,11.55-50.19,11.55-44.4,0-81.61-24.51-91.58-57.49-1.71,5.67-2.63,11.59-2.63,17.68,0,41.52,42.18,75.17,94.21,75.17,18.45,0,35.66-4.24,50.19-11.55,25.75,19.84,59.44,31.87,96.31,31.87,28.72,0,55.51-7.3,78.12-19.91,22.61,12.6,49.4,19.91,78.12,19.91,38.4,0,73.34-13.04,99.46-34.37,15.61,9.15,34.87,14.56,55.72,14.56,52.03,0,94.21-33.66,94.21-75.17,0-6.09-.91-12.01-2.63-17.68-9.97,32.98-47.18,57.49-91.58,57.49Z"/><path class="cls-3" d="m577.49,364.96c-20.85,0-40.12-5.41-55.72-14.56-26.12,21.33-61.06,34.37-99.46,34.37-28.72,0-55.51-7.3-78.12-19.91-22.61,12.6-49.4,19.91-78.12,19.91-36.87,0-70.56-12.02-96.31-31.87-14.53,7.31-31.74,11.55-50.19,11.55-49.98,0-90.86-31.06-94.01-70.3-.13,1.61-.2,3.24-.2,4.88,0,41.52,42.18,75.17,94.21,75.17,18.45,0,35.66-4.24,50.19-11.55,25.75,19.84,59.44,31.87,96.31,31.87,28.72,0,55.51-7.3,78.12-19.91,22.61,12.6,49.4,19.91,78.12,19.91,38.4,0,73.34-13.04,99.46-34.37,15.61,9.15,34.87,14.56,55.72,14.56,52.03,0,94.21-33.66,94.21-75.17,0-1.64-.07-3.27-.2-4.88-3.15,39.25-44.03,70.3-94.01,70.3Z"/><path class="cls-1" d="m671.69,296.89c0-6.09-.91-12.01-2.63-17.68-9.97,32.98-47.18,57.49-91.58,57.49-20.85,0-40.12-5.41-55.72-14.56-26.12,21.33-61.06,34.37-99.46,34.37-28.72,0-55.51-7.3-78.12-19.91-22.61,12.6-49.4,19.91-78.12,19.91-36.87,0-70.56-12.02-96.31-31.87-14.53,7.31-31.74,11.55-50.19,11.55-44.4,0-81.61-24.51-91.58-57.49-1.71,5.67-2.63,11.59-2.63,17.68,0,1.64.07,3.26.2,4.87.08-1,.19-1.99.32-2.98,4.88,37.86,44.95,67.4,93.68,67.4,18.45,0,35.66-4.24,50.19-11.55,25.75,19.84,59.44,31.87,96.31,31.87,28.72,0,55.51-7.3,78.12-19.91,22.61,12.6,49.4,19.91,78.12,19.91,38.4,0,73.34-13.04,99.46-34.37,15.61,9.15,34.87,14.56,55.72,14.56,48.74,0,88.81-29.54,93.68-67.4.13.99.24,1.98.32,2.98.13-1.61.2-3.24.2-4.87Z"/></svg>