<?xml version="1.0" encoding="UTF-8"?><svg id="Cloud2" xmlns="http://www.w3.org/2000/svg" viewBox="0 0 702.64 569.87"><defs><style>.cls-1{fill:#7abcd1;}.cls-2{fill:#b0dbe7;}.cls-3{fill:#57a1bd;}</style></defs><path class="cls-2" d="m687.13,286.54c0-46.59-41.84-84.35-93.45-84.35-10.94,0-21.43,1.7-31.18,4.82.07-1.6.12-3.2.12-4.82,0-64.3-58.11-116.43-129.79-116.43-53.71,0-99.8,29.27-119.53,70.99-18.62-11.8-41.18-18.71-65.5-18.71-53.51,0-98.52,33.45-111.73,78.87-1.31-.04-2.62-.07-3.93-.07-56.58,0-102.44,40.76-102.44,91.05,0,5.14.49,10.17,1.41,15.07.03-.17.07-.33.11-.5,8.31,42.86,50.33,75.48,100.93,75.48,23.88,0,45.84-7.26,63.26-19.43,16.1,32.88,51.62,55.72,92.85,55.72,32.97,0,62.28-14.61,80.94-37.27,20.02,26.8,56.65,44.74,98.53,44.74,55.2,0,101.28-31.18,112.23-72.72,4.48.6,9.06.91,13.73.91,45.71,0,83.75-29.63,91.84-68.78.03.17.08.33.11.5.98-4.89,1.49-9.93,1.49-15.07Zm-124.63-50.39c.06-1.43.1-2.86.11-4.3,0,.16,0,.32,0,.49,0,1.27-.03,2.54-.08,3.81-.01,0-.02,0-.04.01Z"/><path class="cls-1" d="m687.13,291.37c0-5.15-.51-10.18-1.49-15.07-7.87,39.39-46.05,69.28-91.96,69.28-4.66,0-9.25-.31-13.73-.91-10.95,41.54-57.03,72.72-112.23,72.72-41.87,0-78.5-17.95-98.53-44.74-18.66,22.66-47.97,37.27-80.94,37.27-41.23,0-76.75-22.85-92.85-55.72-17.42,12.17-39.39,19.43-63.26,19.43-50.8,0-92.95-32.87-101.04-75.98-.92,4.9-1.41,9.94-1.41,15.07,0,1.4.04,2.79.11,4.17,0-.16.02-.33.03-.49,2.74,48.11,47.49,86.37,102.3,86.37,23.88,0,45.84-7.26,63.26-19.43,16.1,32.88,51.62,55.72,92.85,55.72,32.97,0,62.28-14.61,80.94-37.27,20.02,26.8,56.65,44.74,98.53,44.74,55.2,0,101.28-31.18,112.23-72.72,4.48.6,9.06.91,13.73.91,49.88,0,90.61-35.28,93.29-79.7.01.18.03.36.04.53.08-1.39.12-2.79.12-4.19Z"/><path class="cls-3" d="m593.69,366.09c-4.66,0-9.25-.31-13.73-.91-10.95,41.54-57.03,72.72-112.23,72.72-41.87,0-78.5-17.95-98.53-44.74-18.66,22.66-47.97,37.27-80.94,37.27-41.23,0-76.75-22.85-92.85-55.72-17.42,12.17-39.39,19.43-63.26,19.43-55,0-99.88-38.53-102.33-86.88-.07,1.37-.11,2.74-.11,4.13,0,50.29,45.86,91.05,102.44,91.05,23.88,0,45.84-7.26,63.26-19.43,16.1,32.88,51.62,55.72,92.85,55.72,32.97,0,62.28-14.61,80.94-37.27,20.02,26.8,56.65,44.74,98.53,44.74,55.2,0,101.28-31.18,112.23-72.72,4.48.6,9.06.91,13.73.91,51.61,0,93.45-37.77,93.45-84.35,0-1.38-.04-2.74-.12-4.11-2.42,44.64-43.28,80.16-93.33,80.16Z"/></svg>