<svg id="Layer_1" data-name="Layer 1" xmlns="http://www.w3.org/2000/svg" viewBox="0 0 714.78381 105.60434">
  <title>morgan-stanley</title>
  <g id="layer1">
    <path id="path813" d="M3665.07828,3937.12935v73.3398a8.14916,8.14916,0,0,0,3.84693,7.07338c2.09375,1.40586,5.1664,2.10965,9.30708,2.10961a30.62957,30.62957,0,0,0,6.08056-.86866l0.00007-6.577c-1.03888.06445-1.95864,0.12409-2.97827,0.12409-6.164,0-7.07345-2.4081-7.07338-5.08787v-70.11334h-9.183Zm-193.95956.74457c-6.92148,0-13.17883,2.17108-17.62141,6.08063a19.51723,19.51723,0,0,0-6.7011,14.76724c0.0001,6.26655,2.536,11.163,7.81795,15.01542,4.65846,3.40173,10.82,5.59811,16.75275,7.69385,10.31317,3.66839,19.9792,7.01636,19.9792,16.38046a13.38743,13.38743,0,0,1-4.09511,10.17574c-2.945,2.68437-7.1821,3.971-12.78173,3.971-9.81485,0-16.96022-5.43434-20.972-16.00818l-8.8107,2.35779c1.89763,4.28823,5.12561,10.47674,9.80346,14.64314,5.129,4.60165,11.49563,6.82519,19.48282,6.82519,9.45849,0,16.63855-2.43979,21.34424-7.32157,4.87832-5.082,5.95653-11.58573,5.95653-16.13227,0-6.51505-2.7539-11.54586-8.31432-15.5118-4.85447-3.48211-11.13623-5.72641-17.24912-7.81795-9.96024-3.40595-19.46447-6.64734-19.35873-15.01542a11.55071,11.55071,0,0,1,3.84693-9.05889c2.50564-2.15309,6.07664-3.22645,10.67212-3.22645a19.58917,19.58917,0,0,1,12.40944,3.971,18.28876,18.28876,0,0,1,6.20472,9.92755l8.56252-1.11685C3494.29065,3945.66685,3485.1096,3937.87392,3471.11872,3937.87392Zm-392.51062,1.11685v79.66861h9.183V3945.816l0.24819,0.24819,21.84062,72.59523h7.07338l21.96471-72.59523,0.12409-.24819v72.84342h9.183v-79.66861h-15.26361l-19.48282,64.03272v0.24819l-0.1241-.24819-19.48282-64.03272H3078.6081Zm437.18461,1.61323v19.11054h-8.8107v7.32157h8.8107v43.433a8.00441,8.00441,0,0,0,3.59874,7.07338c2.09769,1.40586,5.1619,2.10965,9.30708,2.10961a32.58278,32.58278,0,0,0,6.20465-.86866l0.00007-6.577c-1.01955.06445-2.08672,0.12409-3.10236,0.12409-6.172,0-6.82526-2.4081-6.82519-5.08787v-40.20659h9.92755v-7.32157h-9.92755V3940.604h-9.183Zm-330.33932,17.99369a23.20289,23.20289,0,0,0-18.86235,8.9348c-4.247,5.43081-6.577,13.10275-6.577,21.59243,0,8.49751,2.33,16.15546,6.577,21.59243a24.37766,24.37766,0,0,0,37.7247,0c4.24752-5.437,6.577-13.09492,6.577-21.59243,0-8.48968-2.32952-16.16158-6.577-21.59243A23.14363,23.14363,0,0,0,3185.45338,3958.59769Zm529.759,0.12409a26.16369,26.16369,0,0,0-10.67212,2.10961,20.80423,20.80423,0,0,0-7.81795,6.08063c-4.16464,5.2151-6.577,12.95744-6.577,22.337-0.00007,10.4391,2.99959,18.40441,8.43842,23.702,5.73708,5.59993,13.04722,6.7011,18.11778,6.7011,13.17575,0,19.63967-7.12889,22.337-13.65038l-7.32157-3.59874c-1.78046,3.97058-5.87066,10.05165-15.01542,10.05165a15.20488,15.20488,0,0,1-12.53354-6.08063c-2.9291-3.81345-4.57563-9.09178-4.59149-15.38771h40.20659v-5.58425c0.00007-9.64612-2.5688-16.83955-7.32157-21.22014C3728.415,3960.46085,3722.738,3958.72178,3715.21243,3958.72178Zm-435.69548.12409c-10.36026,0-25.06707,6.97109-25.06707,30.40313,0,22.75153,14.661,30.40313,24.57069,30.40313,5.78375,0,11.03943-3.20426,14.64314-7.81795l0.49638-.24819v11.1685c0,7.83308-6.77952,12.65763-14.02267,12.65763a43.42415,43.42415,0,0,1-18.366-3.72283v7.942c4.28616,1.83716,11.26129,2.97827,17.24912,2.97827,16.301,0,24.07432-8.9716,24.07432-21.96471v-60.68217h-6.82518l-1.98551,6.20472A17.33484,17.33484,0,0,0,3279.51695,3958.84588Zm59.31713,0c-13.04231,0-19.21729,7.81267-21.84062,12.65763l7.32157,3.84693c1.02748-2.76843,4.72653-9.183,14.64314-9.183,7.81933,0,11.789,3.451,11.789,10.29984v2.10961a1.62045,1.62045,0,0,1-.1241.86866c-0.29043.36665-1.11387,0.6665-3.10236,0.86866-10.94808,1.22149-18.225,3.01956-23.57794,6.45291-5.81107,3.735-9.43118,8.96434-9.43118,16.13227a17.32237,17.32237,0,0,0,17.37322,17.00094c9.66589,0.31005,16.02854-3.71295,19.11054-8.43842,0.23915,3.24687,1.40278,5.10208,3.971,6.45291,2.412,1.28816,6.368,1.032,8.06614.62047v-6.20472c-2.04707-.10221-3.35055-1.07563-3.35055-3.59874v-32.14045c0-5.86453-2.3017-10.67494-6.7011-13.77448C3349.35343,3960.2428,3344.28478,3958.84588,3338.83408,3958.84588Zm63.16405,0c-5.97647,0-12.09273,3.096-17.24912,8.9348v-7.81795h-9.183v58.82075h9.183v-43.68123c3.1248-3.339,10.12858-8.9348,16.50456-8.9348,6.3919,0,9.183,3.13528,9.183,10.17574v42.44029h9.183V3976.095C3419.61954,3963.38626,3410.58149,3958.84588,3401.99813,3958.84588Zm166.16242,0c-13.035,0-19.20884,7.81267-21.84062,12.65763l7.32157,3.84693c1.0314-2.76843,4.726-9.183,14.64314-9.183,7.81843,0,11.789,3.451,11.789,10.29984v2.10961a2.279,2.279,0,0,1-.24819.86866c-0.28652.36665-.9823,0.6665-2.97826,0.86866-10.94818,1.2193-18.2255,3.01956-23.57794,6.45291-5.80761,3.735-9.43117,8.96434-9.43117,16.13227a17.32237,17.32237,0,0,0,17.37322,17.00094c9.65807,0.31005,16.02854-3.71295,19.11054-8.43842,0.2431,3.24544,1.39828,5.10208,3.971,6.45291,2.40738,1.28816,6.36455,1.032,8.06614.62047v-6.20472c-2.04313-.10221-3.35055-1.07563-3.35055-3.59874v-32.14045a16.18744,16.18744,0,0,0-6.82519-13.77448A24.31852,24.31852,0,0,0,3568.16055,3958.84588Zm63.16406,0c-5.99226,0-12.09325,3.096-17.24912,8.9348v-7.81795h-9.183v58.82075h9.183v-43.68123c3.12916-3.3409,10.12062-8.9348,16.50456-8.9348,6.38,0,9.183,3.13528,9.183,10.17574v42.44029h9.183V3976.095C3648.946,3963.38626,3639.908,3958.84588,3631.3246,3958.84588Zm-380.34937.24819c-9.317,0-14.83872,3.61224-19.60692,12.16125v-11.29259h-9.183v58.69666h9.183v-33.2573c2.267-12.08155,8.66331-17.7455,19.60692-17.7455v-8.56252Zm495.01261,0.74457,20.47558,58.32437v0.49638c-1.22363,5.5898-4.76226,12.49013-7.942,14.64314a14.02527,14.02527,0,0,1-8.19023,2.10961,26.73206,26.73206,0,0,1-4.4674-.62047v7.07338a31.79941,31.79941,0,0,0,6.08063.86866,18.39143,18.39143,0,0,0,11.1685-3.35055c3.71341-2.69954,7.82736-9.73535,9.80346-15.76l20.47558-63.78453h-8.9348l-13.4022,45.17036-0.12409.99276-0.24819-.99276-15.76-45.17036h-8.9348Zm-560.53445,6.08063c9.88585,0,15.76,8.67716,15.76,23.20566-0.00009,14.53243-5.87414,23.20565-15.76,23.20565-9.87,0-15.76-8.67323-15.76-23.20565C3169.69332,3974.59641,3175.58341,3965.91926,3185.45338,3965.91926Zm94.684,0.12409c5.1808,0,9.729,2.23855,14.02267,7.56976v28.04534c-2.37661,6.76456-9.18349,10.67212-14.02267,10.67212-9.46982,0-16.00818-5.89669-16.00818-23.57794C3264.12935,3973.88521,3269.997,3966.04335,3280.13742,3966.04335Zm435.32319,0c10.52081,0,15.22435,5.56336,15.26361,17.62141h-30.89951C3700.62489,3971.61649,3705.673,3966.04335,3715.46061,3966.04335Zm-364.46529,20.72377v14.89133c-0.42332,5.14112-10.0308,11.36343-17.8696,10.92031-4.32488-.23719-8.492-3.71973-8.9348-9.43117-0.71777-9.54423,6.45391-13.50688,22.46109-15.26361A13.21145,13.21145,0,0,0,3350.99533,3986.76712Zm229.32647,0v14.89133c-0.42335,5.13886-10.0308,11.36343-17.8696,10.92031-4.31758-.23918-8.50393-3.72171-8.9348-9.43117-0.72912-9.54423,6.45042-13.50688,22.46109-15.26361A13.20949,13.20949,0,0,0,3580.3218,3986.76712Z" transform="translate(-3078.6081 -3937.12935)"/>
  </g>
</svg>
