<svg id="Layer_1" data-name="Layer 1" xmlns="http://www.w3.org/2000/svg" viewBox="0 0 420.52059 106.7052">
  <defs>
    <style>
      .cls-1 {
        fill: #1d1f29;
      }

      .cls-2 {
        fill: #0071ce;
      }
    </style>
  </defs>
  <title>sendgrid</title>
  <g>
    <path class="cls-1" d="M3576.75714,4689.06946a20.37208,20.37208,0,0,1-2.03353,4.27366,29.481,29.481,0,0,0-4.30366-1.66113,20.89914,20.89914,0,0,0-5.75934-.65426,18.7128,18.7128,0,0,0-2.79308.2196,8.64784,8.64784,0,0,0-2.681.832,5.72438,5.72438,0,0,0-1.98826,1.703,4.607,4.607,0,0,0-.80764,2.8276,5.195,5.195,0,0,0,1.7896,4.05746,27.61257,27.61257,0,0,0,4.52665,3.18756c1.63679,0.90952,3.15812,1.83262,4.55779,2.74157a24.08633,24.08633,0,0,1,3.69468,2.97589,12.19921,12.19921,0,0,1,2.4999,3.58431,11.076,11.076,0,0,1,.90556,4.60589,19.2168,19.2168,0,0,1-1.34023,7.09164,15.5426,15.5426,0,0,1-4.1299,5.93819,20.386,20.386,0,0,1-7.065,4.05406,30.00668,30.00668,0,0,1-10.136,1.531,36.89362,36.89362,0,0,1-13.40281-2.54065,22.77915,22.77915,0,0,1,1.04818-4.384c0.5122-1.46587,1.12459-3.00135,1.8496-4.59853a54.15672,54.15672,0,0,0,5.60937,1.73981,22.75083,22.75083,0,0,0,5.54371.72388,16.2999,16.2999,0,0,0,4.17462-.50711,10.245,10.245,0,0,0,3.32566-1.51285,7.7299,7.7299,0,0,0,2.21465-2.46481,7.02011,7.02011,0,0,0,.7935-3.406,4.83293,4.83293,0,0,0-.65822-2.53782,8.13128,8.13128,0,0,0-1.65717-1.95713,14.38468,14.38468,0,0,0-2.39577-1.6334q-1.38381-.75727-2.754-1.626a32.84535,32.84535,0,0,1-7.35029-5.68972,9.8449,9.8449,0,0,1-2.71611-6.91166,16.94983,16.94983,0,0,1,1.37871-6.992,14.09707,14.09707,0,0,1,3.90692-5.18092,17.81734,17.81734,0,0,1,6.12836-3.22435,27.0207,27.0207,0,0,1,8.068-1.11553,37.81575,37.81575,0,0,1,6.88054.56144,39.40113,39.40113,0,0,1,6.09043,1.8213,24.57447,24.57447,0,0,1-1.01422,4.12821Zm33.17339,23.11151a13.44838,13.44838,0,0,1-4.05633,4.06029,23.92376,23.92376,0,0,1-5.76331,2.70648,39.93984,39.93984,0,0,1-6.696,1.56718l-4.85718.79236a8.10189,8.10189,0,0,0,2.31935,5.18148,7.99976,7.99976,0,0,0,5.50183,1.70018,18.8073,18.8073,0,0,0,5.11131-.61974,39.70668,39.70668,0,0,0,4.66928-1.62944,8.03449,8.03449,0,0,1,1.56378,3.51186,23.8928,23.8928,0,0,1,.39,4.384,17.66714,17.66714,0,0,1-2.8593,1.04988,32.99707,32.99707,0,0,1-3.367.802c-1.16307.21733-2.3154,0.38316-3.47847,0.50315-1.15969.11716-2.19031,0.18564-3.10945,0.18564a23.517,23.517,0,0,1-7.57385-1.08667,13.853,13.853,0,0,1-5.21941-3.084,12.154,12.154,0,0,1-3.03984-4.85266,19.55176,19.55176,0,0,1-.97178-6.3372,25.79957,25.79957,0,0,1,1.51851-8.68542,24.94938,24.94938,0,0,1,4.31385-7.6429,21.28645,21.28645,0,0,1,6.80752-5.44353,19.43144,19.43144,0,0,1,9.01538-2.06354,16.5857,16.5857,0,0,1,4.45308.58861,10.15548,10.15548,0,0,1,3.58657,1.77206,8.74878,8.74878,0,0,1,2.39917,2.93,9.13721,9.13721,0,0,1,.86311,4.06256A10.28213,10.28213,0,0,1,3609.93053,4712.181Zm-9.16423-6.58453a3.31154,3.31154,0,0,0-2.4235-.87782,7.19876,7.19876,0,0,0-3.44394.83481,9.34175,9.34175,0,0,0-2.71611,2.20334,14.41454,14.41454,0,0,0-1.99505,3.15361,19.35,19.35,0,0,0-1.26382,3.58657l3.76769-.57786a21.14276,21.14276,0,0,0,4.48873-1.12459,10.134,10.134,0,0,0,2.74724-1.52077,4.49762,4.49762,0,0,0,1.38607-1.70188,4.45257,4.45257,0,0,0,.35883-1.73358,2.94035,2.94035,0,0,0-.90613-2.24182v0Zm48.70991,3.543c-0.09056.81953-.2196,1.68547-0.35543,2.60574l-4.20632,23.75842a33.30483,33.30483,0,0,1-5.28959.43523,28.06166,28.06166,0,0,1-4.98963-.43523l4.05294-22.96323a14.66274,14.66274,0,0,0,.28242-2.7461,4.0687,4.0687,0,0,0-.94009-3.05059,3.81516,3.81516,0,0,0-2.67761-.86933,6.61922,6.61922,0,0,0-2.2803.49806,6.81085,6.81085,0,0,0-2.57008,2.14844,19.44543,19.44543,0,0,0-2.53838,4.60476,38.86646,38.86646,0,0,0-2.106,7.81892l-2.6748,14.55909a34.11552,34.11552,0,0,1-5.27883.43523,28.352,28.352,0,0,1-5.01056-.43523l3.92445-21.366c0.52578-3.0472.9265-5.735,1.18741-8.0804a51.07439,51.07439,0,0,0,.39674-5.45994V4699.244a10.62349,10.62349,0,0,0-.06961-1.18685,26.71534,26.71534,0,0,1,4.77739-.43523,20.95042,20.95042,0,0,1,2.17617.10754c0.72785,0.08037,1.49021.17772,2.3154,0.32713,0.1013,0.38826.19526,0.83934,0.296,1.37588a15.34686,15.34686,0,0,1,.14263,2.40143c0,0.41882-.017.858-0.0351,1.29495-0.02774.42958-.0866,0.95536-0.17714,1.58926a14.46584,14.46584,0,0,1,2.16541-2.8842,14.12305,14.12305,0,0,1,2.97022-2.40143,15.465,15.465,0,0,1,3.58657-1.596,13.29127,13.29127,0,0,1,3.87578-.58692,9.69366,9.69366,0,0,1,6.77639,2.22145q2.42293,2.20135,2.41953,7.3469a19.718,19.718,0,0,1-.146,2.32162v0Zm40.93174-16.08439-4.718,26.22607c-0.52238,3.03248-.90838,5.735-1.15233,8.07247-0.244,2.34257-.35881,4.16443-0.35881,5.46447v1.34532a9.45735,9.45735,0,0,0,.073,1.20156,27.17987,27.17987,0,0,1-4.71455.4341,26.86482,26.86482,0,0,1-4.48137-.4341c-0.1013-.38317-0.202-0.85348-0.2994-1.37928a14.9123,14.9123,0,0,1-.13923-2.389c0-.4358.01076-0.94461,0.0351-1.52077a16.33079,16.33079,0,0,1,.17714-1.81791,18.5549,18.5549,0,0,1-2.4235,3.15982,16.906,16.906,0,0,1-3.11964,2.56725,15.98105,15.98105,0,0,1-3.64939,1.72961,12.88194,12.88194,0,0,1-4.13331.66163c-3.18586,0-5.58163-1.012-7.16975-3.04946a12.60266,12.60266,0,0,1-2.3986-8.03,33.90674,33.90674,0,0,1,1.643-10.50729,26.63482,26.63482,0,0,1,4.85039-8.98482,23.79481,23.79481,0,0,1,8.0023-6.26419,24.93654,24.93654,0,0,1,11.14911-2.36067c0.33788,0,.669.02094,0.97857,0.03792a8.116,8.116,0,0,0,.83594.03169q0.79463-4.26262,1.12119-7.22578a46.53136,46.53136,0,0,0,.32713-4.93416c0-.53258-0.01358-0.97291-0.0351-1.33909-0.02093-.36335-0.06565-0.75444-0.11094-1.19307a25.81044,25.81044,0,0,1,2.83439-.3294c1.055-.06735,1.96391-0.1047,2.74385-0.1047a26.57572,26.57572,0,0,1,4.63815.4341,8.729,8.729,0,0,1,.36223,2.75063,42.29747,42.29747,0,0,1-.86765,7.747h0Zm-13.726,12.56574c-0.41429-.017-0.80822-0.02434-1.188-0.02434a9.85408,9.85408,0,0,0-5.91216,1.733,14.55746,14.55746,0,0,0-4.02125,4.34328,19.20611,19.20611,0,0,0-2.30861,5.61106,23.23451,23.23451,0,0,0-.73123,5.469q0,5.35949,3.55148,5.353c2.30861,0,4.46383-1.39738,6.43794-4.21989,1.98883-2.83609,3.427-6.79847,4.35234-11.92958l1.07932-6.15043a8.533,8.533,0,0,0-1.25986-.18507h0Zm55.19371-16.76469a31.095,31.095,0,0,1-1.91866,4.26857,17.5484,17.5484,0,0,0-4.13329-1.21967,23.21325,23.21325,0,0,0-3.69807-.28921,15.765,15.765,0,0,0-8.29038,2.089,17.67572,17.67572,0,0,0-5.64785,5.4707,24.26261,24.26261,0,0,0-3.25549,7.6429,35.84655,35.84655,0,0,0-1.05156,8.61864c0,4.20632,1.02044,7.19238,3.07492,8.98935a12.01175,12.01175,0,0,0,8.15113,2.66291c0.6752,0,1.42115-.0232,2.24973-0.099a15.122,15.122,0,0,0,1.87676-.249l3.18588-18.17736a20.0977,20.0977,0,0,1,2.758-.39731c0.87387-.073,1.71263-0.11206,2.535-0.11206s1.67529,0.03905,2.56612.11206a16.28822,16.28822,0,0,1,2.64651.39731l-4.55777,25.78687a35.88631,35.88631,0,0,1-7.16977,1.5553,64.48137,64.48137,0,0,1-7.46916.47145,25.68294,25.68294,0,0,1-9.26553-1.531,18.78269,18.78269,0,0,1-6.67171-4.19329,17.19139,17.19139,0,0,1-4.011-6.33493,22.87825,22.87825,0,0,1-1.34419-7.92646,40.49773,40.49773,0,0,1,2.09635-13.1917,34.09657,34.09657,0,0,1,5.90538-10.76537,27.57433,27.57433,0,0,1,9.16818-7.22974,26.38817,26.38817,0,0,1,11.87072-2.64649,38.33091,38.33091,0,0,1,6.09385.43863,21.42,21.42,0,0,1,5.4288,1.66226,30.31259,30.31259,0,0,1-1.1229,4.19669h0Zm29.66039,14.55457a12.81487,12.81487,0,0,1-1.37192,3.62676c-0.29263-.04867-0.60221-0.10357-0.95083-0.14263a10.54414,10.54414,0,0,0-1.2989-.077,10.40169,10.40169,0,0,0-4.8849,1.01931,8.39551,8.39551,0,0,0-3.15869,2.86382,15.19448,15.19448,0,0,0-1.94581,4.44968c-0.48732,1.73754-.92309,3.66241-1.30909,5.79387l-2.67421,14.55909a34.43593,34.43593,0,0,1-5.293.43523,28.18232,28.18232,0,0,1-5.00039-.43523l3.921-21.36606c0.515-3.0472.91518-5.735,1.184-8.0804a50.68577,50.68577,0,0,0,.40355-5.45995V4699.244a9.90465,9.90465,0,0,0-.08038-1.18685,26.86657,26.86657,0,0,1,4.79153-.43523,20.875,20.875,0,0,1,2.16938.10754c0.72049,0.08037,1.49418.17772,2.30859,0.32713,0.11151,0.38826.19866,0.83934,0.2994,1.37588a15.44144,15.44144,0,0,1,.13921,2.40143c0,0.41882-.00736.858-0.02829,1.29495-0.03112.42958-.0866,0.95536-0.18395,1.58926a16.20672,16.20672,0,0,1,1.81053-2.57688,15.00908,15.00908,0,0,1,2.42293-2.27408,11.939,11.939,0,0,1,2.97022-1.63283,10.11971,10.11971,0,0,1,3.58656-.61295,8.43788,8.43788,0,0,1,2.60122.35883,2.09524,2.09524,0,0,1,.08038.58125v0.6554a18.42341,18.42341,0,0,1-.50825,4.19386h0Zm12.45877,32.09351a32.981,32.981,0,0,1-5.21656.43523,29.10969,29.10969,0,0,1-4.85378-.43523l5.22337-29.62926h-4.568a3.21812,3.21812,0,0,0-.0351-0.43184,2.92082,2.92082,0,0,1-.04529-0.50542,16.57343,16.57343,0,0,1,.36562-3.517,19.98373,19.98373,0,0,1,1.08666-3.36358h14.64172ZM3819.554,4693.055l-4.70438,26.22606c-0.53257,3.03248-.91573,5.735-1.15969,8.07247q-0.36593,3.51385-.36223,5.46447v1.34532a11.04636,11.04636,0,0,0,.073,1.20156,27.22985,27.22985,0,0,1-4.70776.4341,26.95047,26.95047,0,0,1-4.495-.4341c-0.09735-.38317-0.19131-0.85348-0.28185-1.37928a13.58017,13.58017,0,0,1-.14657-2.389c0-.4358.01074-0.94461,0.03171-1.52077,0.02435-.58012.0866-1.18514,0.17714-1.81791a18.38591,18.38591,0,0,1-2.41955,3.15982,16.90959,16.90959,0,0,1-3.12021,2.56725,15.88461,15.88461,0,0,1-3.6562,1.72961,12.79125,12.79125,0,0,1-4.12255.66163q-4.78986,0-7.17315-3.04946a12.59643,12.59643,0,0,1-2.389-8.03,34.40171,34.40171,0,0,1,1.62265-10.50729,26.775,26.775,0,0,1,4.86452-8.98482,23.6413,23.6413,0,0,1,7.99834-6.26419,24.906,24.906,0,0,1,11.15645-2.36067c0.3413,0,.66163.02094,0.97518,0.03792a7.94334,7.94334,0,0,0,.82858.03169c0.52635-2.84175.91573-5.25336,1.1212-7.22578a45.6427,45.6427,0,0,0,.32713-4.93416c0-.53258-0.01074-0.97291-0.03793-1.33909-0.02435-.36335-0.05886-0.75444-0.10132-1.19307a26.14025,26.14025,0,0,1,2.8242-.3294c1.05439-.06735,1.9741-0.1047,2.754-0.1047a26.50224,26.50224,0,0,1,4.63135.4341,8.73887,8.73887,0,0,1,.35881,2.75063,41.851,41.851,0,0,1-.86706,7.747h0Zm-13.72257,12.56573c-0.41146-.017-0.81162-0.02434-1.1942-0.02434a9.90663,9.90663,0,0,0-5.90876,1.733,14.666,14.666,0,0,0-4.01163,4.34328,19.44213,19.44213,0,0,0-2.32276,5.61106,24.133,24.133,0,0,0-.72049,5.469q0,5.35949,3.53789,5.353c2.32559,0,4.48139-1.39738,6.45888-4.21989,1.97807-2.83609,3.423-6.79847,4.33876-11.92958l1.09346-6.15043a8.69828,8.69828,0,0,0-1.27116-.18507h0Z" transform="translate(-3409.09354 -4652.96886)"/>
    <path class="cls-2" d="M3527.14846,4700.78794l-0.04528-.14659c-0.2745-.669-0.55013-1.34192-0.84217-2.02279a7.48946,7.48946,0,0,0-1.9011-1.69566,6.23043,6.23043,0,0,0-.93668-0.49919,5.37305,5.37305,0,0,0-.61294-0.25639,11.23654,11.23654,0,0,0-3.82655-.62823,19.68669,19.68669,0,0,0-9.604,2.835c-9.9798,5.945-19.60418,19.82887-24.09178,26.94825l0.28186-.223-1.91525,3.03135c7.8625-.24393,25.69745-0.86084,35.29409-7.39444,11.13156-8.39848,9.17442-17.21181,8.19982-19.94829h0ZM3427.62038,4714.12c10.90291-6.48209,22.108-23.32375,25.88931-29.72265-10.07375.23035-26.36982,1.57963-35.41973,7.51273-6.125,3.88824-10.89159,12.7593-8.25246,19.74793l0.0832,0.17715c0.27506,0.68992.56088,1.39456,0.86707,2.11391a8.91311,8.91311,0,0,0,7.18673,3.01267A19.65781,19.65781,0,0,0,3427.62038,4714.12Zm64.90976-2.30861c-8.21114-2.78175-17.12182-5.409-24.71265-8.11549-0.09735-5.98177-.25016-13.27094-0.43184-19.89848-0.01075-.31864-0.01075-0.62653-0.02773-0.93895-0.01075-.326-0.01755-0.64691-0.02094-0.95989-0.167-5.7084-.35147-10.76085-0.52239-13.79107a131.1806,131.1806,0,0,0-9.97245,14.35987c-0.19866.32487-.39335,0.64068-0.57786,0.9565l-0.28581.47825c-0.00339.01472-.09735,0.17432-0.26827,0.46636a143.86884,143.86884,0,0,1-11.337,16.49925c0.16357,0.2745,9.73531,16.22985,17.28482,28.77181l0.536,0.88914,0.53937,0.8982c3.86163,6.40059,6.99543,11.59283,7.7476,12.79213l-25.96232-8.19529-1.36456-.43636-1.31306-.41769-1.128-.35544c1.09346-9.926,2.89382-30.7097,3.64543-33.93122-4.57872,5.71293-10.10149,11.48869-15.76971,14.86755a21.62972,21.62972,0,0,1-10.61369,3.114,12.13848,12.13848,0,0,1-5.54314-1.21967c-0.16753-.0832-0.33449-0.17093-0.48391-0.26375a209.96633,209.96633,0,0,0,20.14015,34.37494c0.67917,0.92649,1.35155,1.80942,2.01939,2.66461l0.04867,0.064a14.89845,14.89845,0,0,0,11.79375,5.18941,25.32293,25.32293,0,0,0,9.80549-2.18805c10.62049-5.12885,20.21713-20.60029,24.31194-27.20973l0.06962-.11716c0.22979-.37241.44939-0.72048,0.64068-1.02385l0.2162-.34695,0.00339,0.00566c0.073-.1596.17432-0.356,0.31694-0.61238,0.352-.63276.95423-1.62265,1.95713-3.22548,1.32664-2.11448,3.46829-5.41353,6.125-9.0352,0.94688-1.30513,2.00185-2.68611,3.13379-4.10953h0Zm-17.27123-29.88961c0.17432,0.29034.34128,0.58521,0.50485,0.87047,6.35532,10.91989,14.18555,24.38155,16.8111,28.971,4.40837-5.5273,10.063-11.58377,15.8365-15.02149a21.435,21.435,0,0,1,10.57181-3.09474,13.796,13.796,0,0,1,2.76818.2711l0.01755,0.00679-0.0283-.03113c-7.63215-4.66984-18.06813-10.85537-23.61183-14.44024,0.1913-1.40022.38317-2.82025,0.56767-4.22669,0.056-.4392.11093-0.875,0.17715-1.317,0.05264-.46014.11489-0.9231,0.17432-1.37927,0.63729-4.85378,1.21854-9.505,1.647-13.18661,1.17326,1.52869,2.35388,3.15474,3.5413,4.83058l0.76294,1.09346c0.23658,0.33.45957,0.67124,0.69615,1.01592l0.33449,0.4907c5.3626,7.89023,15.944,27.19162,15.944,27.19162l1.16987,0.31468a11.6115,11.6115,0,0,1,1.46587.61182l0.05264,0.03113c-2.04713-4.44515-4.54024-9.25706-7.29539-14.07632-3.46093-6.10176-7.31577-12.229-11.15986-17.7076q-0.53315-.76916-1.07591-1.51624c-0.82859-1.15345-1.647-2.27521-2.47217-3.35452-0.48334-.64181-0.96782-1.26721-1.44493-1.8745a1.489,1.489,0,0,0-.16753-0.18111v-0.01472a16.512,16.512,0,0,0-10.33127-3.23,20.97477,20.97477,0,0,0-9.34591,2.132c-5.0383,2.55367-9.99,7.41595-14.32195,12.71912l7.69214,13.22113c0.17828,0.28865.34864,0.59031,0.51956,0.88065h0Z" transform="translate(-3409.09354 -4652.96886)"/>
    <path class="cls-1" d="M3826.12153,4689.17474a3.12381,3.12381,0,0,1-3.18643-3.19718c0-2.04769,1.3759-3.30132,3.58317-3.30132a3.00581,3.00581,0,0,1,3.09586,3.12813,3.1848,3.1848,0,0,1-3.49263,3.37037h0Zm0.2015-5.77292a2.51648,2.51648,0,1,0,2.4133,2.51971A2.36507,2.36507,0,0,0,3826.323,4683.40181Zm0.55409,4.15764-0.84274-1.2525v0.75444a3.91741,3.91741,0,0,0,.06284.49806h-1.03063v-2.8344l-0.06961-.62144h1.18742a1.20866,1.20866,0,0,1,1.35776,1.12572,1.15524,1.15524,0,0,1-.6752.97517l1.167,1.35494h-1.15689Zm-0.81162-1.71377a0.59306,0.59306,0,0,0,.61972-0.61634,0.53439,0.53439,0,0,0-.61972-0.53371h-0.03171v1.15006h0.03171Z" transform="translate(-3409.09354 -4652.96886)"/>
    <path class="cls-2" d="M3782.57158,4686.80048a32.56851,32.56851,0,0,1-1.31645,4.77682,23.04755,23.04755,0,0,1-2.70875.28695c-0.94009.05094-1.79357,0.07924-2.56612,0.07924-0.73123,0-1.57-.0283-2.53838-0.07924a19.05186,19.05186,0,0,1-2.61479-.28695,24.32155,24.32155,0,0,1,.33052-4.81926,31.75338,31.75338,0,0,1,1.27116-4.8136,17.57558,17.57558,0,0,1,2.75062-.39561c0.961-.08037,1.8315-0.1098,2.61141-0.1098,0.76633,0,1.626.03,2.56273,0.1098a15.76205,15.76205,0,0,1,2.64651.39561A26.52209,26.52209,0,0,1,3782.57158,4686.80048Z" transform="translate(-3409.09354 -4652.96886)"/>
  </g>
</svg>
