<svg id="Layer_1" data-name="Layer 1" xmlns="http://www.w3.org/2000/svg" viewBox="0 0 130.67228 76.68512">
  <defs>
    <style>
      .cls-1 {
        fill: #fff;
      }
    </style>
  </defs>
  <title>mlh</title>
  <g>
    <g id="Layer_1-2" data-name="Layer 1">
      <g id="Major_League_Hacking" data-name="Major League Hacking">
        <g>
          <path class="cls-1" d="M3123.58,4925.88376a1.21042,1.21042,0,0,1,.86421.35585,1.16829,1.16829,0,0,1,.35585.8642v42.06626a1.21037,1.21037,0,0,1-.35585.8642,1.16833,1.16833,0,0,1-.86421.35585h-8.84535a1.21041,1.21041,0,0,1-.8642-0.35585,1.16832,1.16832,0,0,1-.35585-0.8642v-14.69142a1.04963,1.04963,0,0,0-1.11838-1.11838h-12.37841a1.2827,1.2827,0,0,0-.8642.305,1.05694,1.05694,0,0,0-.35585.81336v14.69142a1.07838,1.07838,0,0,1-1.22,1.22h-8.7691a1.07838,1.07838,0,0,1-1.22-1.22v-42.09167a1.07838,1.07838,0,0,1,1.22-1.22h8.7691a1.07838,1.07838,0,0,1,1.22,1.22v14.2339a1.07838,1.07838,0,0,0,1.22,1.22h12.37841a1.057,1.057,0,0,0,.81337-0.35585,1.238,1.238,0,0,0,.305-0.8642v-14.2339a1.21041,1.21041,0,0,1,.35585-0.8642,1.16831,1.16831,0,0,1,.8642-0.35585H3123.58v0.02542Z" transform="translate(-2994.33108 -4925.78209)"/>
          <path class="cls-1" d="M3098.79773,4954.47865v14.666a1.07838,1.07838,0,0,1-1.22,1.22h-8.7691a1.07838,1.07838,0,0,1-1.22-1.22v-42.06625a1.07838,1.07838,0,0,1,1.22-1.22h8.7691a1.07838,1.07838,0,0,1,1.22,1.22v27.40026Z" transform="translate(-2994.33108 -4925.78209)"/>
          <path class="cls-1" d="M3123.58,4925.88376a1.21042,1.21042,0,0,1,.86421.35585,1.16829,1.16829,0,0,1,.35585.8642v42.06626a1.21037,1.21037,0,0,1-.35585.8642,1.16833,1.16833,0,0,1-.86421.35585h-8.84535a1.21041,1.21041,0,0,1-.8642-0.35585,1.16832,1.16832,0,0,1-.35585-0.8642v-42.09167a1.21041,1.21041,0,0,1,.35585-0.8642,1.16831,1.16831,0,0,1,.8642-0.35585H3123.58v0.02542Z" transform="translate(-2994.33108 -4925.78209)"/>
          <path class="cls-1" d="M3080.24283,4959.48593a1.057,1.057,0,0,1,.81337.35585,1.238,1.238,0,0,1,.305.8642v8.38783a1.28267,1.28267,0,0,1-.305.8642,1.05694,1.05694,0,0,1-.81337.35585h-27.45109a1.07838,1.07838,0,0,1-1.22-1.22v-42.09166a1.07838,1.07838,0,0,1,1.22-1.22h8.7691a1.07838,1.07838,0,0,1,1.22,1.22v31.34a1.05694,1.05694,0,0,0,.35585.81336,1.238,1.238,0,0,0,.8642.305h16.2419v0.02542Z" transform="translate(-2994.33108 -4925.78209)"/>
          <path class="cls-1" d="M3062.70463,4970.28844h-9.91289a1.07838,1.07838,0,0,1-1.22-1.22v-42.06625a1.07838,1.07838,0,0,1,1.22-1.22h8.7691a1.07838,1.07838,0,0,1,1.22,1.22v31.34C3062.78088,4958.67257,3062.70463,4970.28844,3062.70463,4970.28844Z" transform="translate(-2994.33108 -4925.78209)"/>
          <path class="cls-1" d="M3037.00736,4926.46837a7.72065,7.72065,0,0,1,2.33843,1.57589,7.43564,7.43564,0,0,1,1.5759,2.33843,7.05558,7.05558,0,0,1,.61,2.89762v35.83892a1.21039,1.21039,0,0,1-.35585.8642,1.16831,1.16831,0,0,1-.8642.35585h-8.84535a1.05694,1.05694,0,0,1-.81336-0.35585,1.238,1.238,0,0,1-.305-0.8642v-32.433h-7.117v32.48379a1.28269,1.28269,0,0,1-.305.8642,1.05694,1.05694,0,0,1-.81336.35585H3014.106a1.2104,1.2104,0,0,1-.8642-0.35585,1.16831,1.16831,0,0,1-.35585-0.8642v-32.48379h-7.117v32.48379a1.07838,1.07838,0,0,1-1.22,1.22h-8.74368a1.07838,1.07838,0,0,1-1.22-1.22v-42.09167a1.07838,1.07838,0,0,1,1.22-1.22h38.32986A7.96511,7.96511,0,0,1,3037.00736,4926.46837Z" transform="translate(-2994.33108 -4925.78209)"/>
          <path class="cls-1" d="M3037.00736,4926.46837a7.72065,7.72065,0,0,1,2.33843,1.57589,7.43564,7.43564,0,0,1,1.5759,2.33843,7.05558,7.05558,0,0,1,.61,2.89762v3.3043l-11.18378.07625H3005.769l-11.18378-.07625v-9.50621a1.07838,1.07838,0,0,1,1.22-1.22h38.32986A7.96511,7.96511,0,0,1,3037.00736,4926.46837Z" transform="translate(-2994.33108 -4925.78209)"/>
          <g>
            <path class="cls-1" d="M3000.91426,4974.91446a0.91185,0.91185,0,0,1,.35585.25418,1.80423,1.80423,0,0,1,.25418.35585,1.33763,1.33763,0,0,1,.10167.45752v5.56647a0.17374,0.17374,0,0,1-.17792.17792h-1.37255a0.17374,0.17374,0,0,1-.17792-0.17792v-5.0327h-1.11838v5.0327a0.17374,0.17374,0,0,1-.17792.17792h-1.24547a0.17374,0.17374,0,0,1-.17792-0.17792v-5.0327h-1.11838v5.0327a0.15112,0.15112,0,0,1-.17792.17792H2994.509a0.15112,0.15112,0,0,1-.17792-0.17792v-6.53234a0.15112,0.15112,0,0,1,.17792-0.17792h5.94774A0.73339,0.73339,0,0,1,3000.91426,4974.91446Z" transform="translate(-2994.33108 -4925.78209)"/>
            <path class="cls-1" d="M3007.80245,4974.81279a0.997,0.997,0,0,1,.45752.10167,0.91184,0.91184,0,0,1,.35585.25418,1.80427,1.80427,0,0,1,.25418.35585,1.33765,1.33765,0,0,1,.10167.45752v5.56647a0.17374,0.17374,0,0,1-.17792.17792h-1.37255a0.17374,0.17374,0,0,1-.17792-0.17792v-1.77924a0.17373,0.17373,0,0,0-.17792-0.17792h-1.95716a0.17374,0.17374,0,0,0-.17792.17792v1.77924a0.15112,0.15112,0,0,1-.17792.17792h-1.37255a0.15112,0.15112,0,0,1-.17792-0.17792V4975.982a1.4393,1.4393,0,0,1,.07625-0.45752,0.91182,0.91182,0,0,1,.25418-0.35585,1.42465,1.42465,0,0,1,.38126-0.25418,1.33763,1.33763,0,0,1,.45752-0.10167h3.43138Zm-0.58461,3.3043v-1.7284h-2.313v1.7284h2.313Z" transform="translate(-2994.33108 -4925.78209)"/>
            <path class="cls-1" d="M3015.17358,4974.86363a0.19416,0.19416,0,0,1,.05083.12709v5.56647a0.99693,0.99693,0,0,1-.10167.45752,1.25139,1.25139,0,0,1-.25418.38126,1.80437,1.80437,0,0,1-.35585.25418,1.33763,1.33763,0,0,1-.45752.10167h-2.94845a0.997,0.997,0,0,1-.45752-0.10167,1.25148,1.25148,0,0,1-.38127-0.25418,1.42451,1.42451,0,0,1-.25418-0.38126,1.33765,1.33765,0,0,1-.10167-0.45752v-2.10967a0.15112,0.15112,0,0,1,.17792-0.17792h1.37256a0.15112,0.15112,0,0,1,.17792.17792v1.42339a0.17374,0.17374,0,0,0,.17792.17792h1.42339a0.17374,0.17374,0,0,0,.17792-0.17792v-4.88019a0.17373,0.17373,0,0,1,.17792-0.17792h1.37255A0.27586,0.27586,0,0,1,3015.17358,4974.86363Z" transform="translate(-2994.33108 -4925.78209)"/>
            <path class="cls-1" d="M3021.42632,4974.81279a0.997,0.997,0,0,1,.45752.10167,0.91185,0.91185,0,0,1,.35585.25418,1.80431,1.80431,0,0,1,.25418.35585,1.33765,1.33765,0,0,1,.10167.45752v4.6006a0.997,0.997,0,0,1-.10167.45752,1.25139,1.25139,0,0,1-.25418.38126,1.80435,1.80435,0,0,1-.35585.25418,1.33764,1.33764,0,0,1-.45752.10167h-3.50764a0.997,0.997,0,0,1-.45752-0.10167,1.25144,1.25144,0,0,1-.38127-0.25418,1.42451,1.42451,0,0,1-.25418-0.38126,1.32938,1.32938,0,0,1-.07625-0.45752v-4.6006a1.43925,1.43925,0,0,1,.07625-0.45752,0.9118,0.9118,0,0,1,.25418-0.35585,1.42465,1.42465,0,0,1,.38127-0.25418,1.33762,1.33762,0,0,1,.45752-0.10167h3.50764Zm-0.58461,1.67756h-2.313v3.55847h2.313v-3.55847Z" transform="translate(-2994.33108 -4925.78209)"/>
            <path class="cls-1" d="M3030.04292,4981.57389a0.07553,0.07553,0,0,1,0,.10167,0.132,0.132,0,0,1-.10167.05084h-1.55048a0.36131,0.36131,0,0,1-.15251-0.05084,0.55462,0.55462,0,0,1-.12709-0.10167l-1.04213-1.88091a0.08581,0.08581,0,0,0-.07625-0.05084h-1.16921a0.05467,0.05467,0,0,0-.05084.05084v1.83007a0.15112,0.15112,0,0,1-.17792.17792h-1.37255a0.15112,0.15112,0,0,1-.17792-0.17792v-6.53234a0.15112,0.15112,0,0,1,.17792-0.17792h4.47351a0.997,0.997,0,0,1,.45752.10167,0.91181,0.91181,0,0,1,.35585.25418,1.80431,1.80431,0,0,1,.25418.35585,1.33765,1.33765,0,0,1,.10167.45752v2.5926a1.15906,1.15906,0,0,1-.78795,1.093h-0.02542c-0.05084.02542-.05084,0.02542-0.02542,0.05084v0.02542Zm-1.95716-5.13437h-2.38926v1.67757h2.38926v-1.67757Z" transform="translate(-2994.33108 -4925.78209)"/>
            <path class="cls-1" d="M3039.3712,4980.04883a0.17374,0.17374,0,0,1,.17792.17792v1.2963a0.17374,0.17374,0,0,1-.17792.17792H3035.101a0.15112,0.15112,0,0,1-.17792-0.17792v-6.53234a0.15112,0.15112,0,0,1,.17792-0.17792h1.37255a0.15112,0.15112,0,0,1,.17792.17792v4.88019a0.17374,0.17374,0,0,0,.17792.17792h2.54177Z" transform="translate(-2994.33108 -4925.78209)"/>
            <path class="cls-1" d="M3042.218,4976.46494v1.06754a0.05467,0.05467,0,0,0,.05083.05084h2.82136a0.17374,0.17374,0,0,1,.17792.17792v0.99129a0.15112,0.15112,0,0,1-.17792.17792h-2.82136a0.05467,0.05467,0,0,0-.05083.05084v1.06754a0.05467,0.05467,0,0,0,.05083.05083h3.3043a0.17374,0.17374,0,0,1,.17792.17792v1.24546a0.17374,0.17374,0,0,1-.17792.17792h-3.93974a0.997,0.997,0,0,1-.45752-0.10167,1.25146,1.25146,0,0,1-.38126-0.25418,1.4246,1.4246,0,0,1-.25418-0.38126,1.32941,1.32941,0,0,1-.07625-0.45752v-4.6006a1.43932,1.43932,0,0,1,.07625-0.45752,0.91182,0.91182,0,0,1,.25418-0.35585,1.4246,1.4246,0,0,1,.38126-0.25418,1.33767,1.33767,0,0,1,.45752-0.10167h3.93974a0.17374,0.17374,0,0,1,.17792.17792v1.24546a0.17374,0.17374,0,0,1-.17792.17792h-3.3043A1.06846,1.06846,0,0,1,3042.218,4976.46494Z" transform="translate(-2994.33108 -4925.78209)"/>
            <path class="cls-1" d="M3051.97837,4974.81279a0.997,0.997,0,0,1,.45752.10167,0.91182,0.91182,0,0,1,.35585.25418,1.80431,1.80431,0,0,1,.25418.35585,1.33765,1.33765,0,0,1,.10167.45752v5.56647a0.17374,0.17374,0,0,1-.17792.17792h-1.37255a0.17374,0.17374,0,0,1-.17792-0.17792v-1.77924a0.17374,0.17374,0,0,0-.17792-0.17792h-2.008a0.17373,0.17373,0,0,0-.17792.17792v1.77924a0.15112,0.15112,0,0,1-.17792.17792h-1.37255a0.15112,0.15112,0,0,1-.17792-0.17792V4975.982a1.4393,1.4393,0,0,1,.07625-0.45752,0.91181,0.91181,0,0,1,.25418-0.35585,1.42458,1.42458,0,0,1,.38127-0.25418,1.33765,1.33765,0,0,1,.45752-0.10167h3.48222Zm-0.61,3.3043v-1.7284h-2.313v1.7284h2.313Z" transform="translate(-2994.33108 -4925.78209)"/>
            <path class="cls-1" d="M3060.417,4978.01542a0.19415,0.19415,0,0,1,.05084.12709v2.4401a0.997,0.997,0,0,1-.10167.45752,1.2515,1.2515,0,0,1-.25418.38126,1.80428,1.80428,0,0,1-.35585.25418,1.33765,1.33765,0,0,1-.45752.10167h-3.48223a0.99694,0.99694,0,0,1-.45751-0.10167,1.25141,1.25141,0,0,1-.38126-0.25418,1.42459,1.42459,0,0,1-.25418-0.38126,1.33767,1.33767,0,0,1-.10167-0.45752v-4.6006a0.997,0.997,0,0,1,.10167-0.45752,0.91183,0.91183,0,0,1,.25418-0.35585,1.4246,1.4246,0,0,1,.38126-0.25418,1.33765,1.33765,0,0,1,.45751-0.10167h4.06683a0.17374,0.17374,0,0,1,.17793.17792v1.2963a0.17374,0.17374,0,0,1-.17793.17792h-3.3043a0.17374,0.17374,0,0,0-.17793.17792v3.20263a0.17374,0.17374,0,0,0,.17793.17792h1.95716a0.17374,0.17374,0,0,0,.17793-0.17792v-1.7284a0.17374,0.17374,0,0,1,.17793-0.17792h1.37255A0.28988,0.28988,0,0,1,3060.417,4978.01542Z" transform="translate(-2994.33108 -4925.78209)"/>
            <path class="cls-1" d="M3067.71192,4974.86363a0.19415,0.19415,0,0,1,.05084.12709v5.56647a0.997,0.997,0,0,1-.10167.45752,1.25149,1.25149,0,0,1-.25418.38126,1.8043,1.8043,0,0,1-.35585.25418,1.33764,1.33764,0,0,1-.45752.10167h-3.50764a0.99694,0.99694,0,0,1-.45752-0.10167,1.25143,1.25143,0,0,1-.38126-0.25418,1.42449,1.42449,0,0,1-.25418-0.38126,1.32932,1.32932,0,0,1-.07625-0.45752v-5.56647a0.15112,0.15112,0,0,1,.17793-0.17792h1.37255a0.15112,0.15112,0,0,1,.17793.17792v4.88019a0.17374,0.17374,0,0,0,.17793.17792h1.95716a0.17374,0.17374,0,0,0,.17793-0.17792v-4.88019a0.17374,0.17374,0,0,1,.17793-0.17792h1.37255A0.39371,0.39371,0,0,1,3067.71192,4974.86363Z" transform="translate(-2994.33108 -4925.78209)"/>
            <path class="cls-1" d="M3071.01621,4976.46494v1.06754a0.05467,0.05467,0,0,0,.05084.05084h2.82136a0.17374,0.17374,0,0,1,.17793.17792v0.99129a0.15112,0.15112,0,0,1-.17793.17792H3071.067a0.05467,0.05467,0,0,0-.05084.05084v1.06754a0.05467,0.05467,0,0,0,.05084.05083h3.3043a0.17374,0.17374,0,0,1,.17793.17792v1.24546a0.17374,0.17374,0,0,1-.17793.17792h-3.93974a0.99694,0.99694,0,0,1-.45752-0.10167,1.25146,1.25146,0,0,1-.38126-0.25418,1.42451,1.42451,0,0,1-.25418-0.38126,1.32932,1.32932,0,0,1-.07625-0.45752v-4.6006a1.43943,1.43943,0,0,1,.07625-0.45752,0.91186,0.91186,0,0,1,.25418-0.35585,1.4246,1.4246,0,0,1,.38126-0.25418,1.33767,1.33767,0,0,1,.45752-0.10167h3.93974a0.17374,0.17374,0,0,1,.17793.17792v1.24546a0.17374,0.17374,0,0,1-.17793.17792h-3.3043A1.06975,1.06975,0,0,1,3071.01621,4976.46494Z" transform="translate(-2994.33108 -4925.78209)"/>
            <path class="cls-1" d="M3085.123,4974.81279a0.17374,0.17374,0,0,1,.17793.17792v6.53234a0.17374,0.17374,0,0,1-.17793.17792h-1.37255a0.17374,0.17374,0,0,1-.17793-0.17792v-2.28759a0.17374,0.17374,0,0,0-.17793-0.17792h-1.95716a0.17374,0.17374,0,0,0-.17793.17792v2.28759a0.15112,0.15112,0,0,1-.17793.17792H3079.709a0.15112,0.15112,0,0,1-.17793-0.17792v-6.53234a0.15112,0.15112,0,0,1,.17793-0.17792h1.37255a0.15112,0.15112,0,0,1,.17793.17792v2.21134a0.15112,0.15112,0,0,0,.17793.17792h1.95716a0.17374,0.17374,0,0,0,.17793-0.17792v-2.21134a0.17374,0.17374,0,0,1,.17793-0.17792h1.37255Z" transform="translate(-2994.33108 -4925.78209)"/>
            <path class="cls-1" d="M3091.50286,4974.81279a0.99694,0.99694,0,0,1,.45751.10167,0.91181,0.91181,0,0,1,.35585.25418,1.80415,1.80415,0,0,1,.25418.35585,1.33756,1.33756,0,0,1,.10167.45752v5.56647a0.17374,0.17374,0,0,1-.17793.17792h-1.37255a0.17374,0.17374,0,0,1-.17793-0.17792v-1.77924a0.17374,0.17374,0,0,0-.17793-0.17792h-1.95716a0.17374,0.17374,0,0,0-.17793.17792v1.77924a0.15112,0.15112,0,0,1-.17793.17792h-1.37255a0.15112,0.15112,0,0,1-.17793-0.17792V4975.982a1.43941,1.43941,0,0,1,.07625-0.45752,0.91187,0.91187,0,0,1,.25418-0.35585,1.42458,1.42458,0,0,1,.38126-0.25418,1.33765,1.33765,0,0,1,.45752-0.10167h3.43142Zm-0.5846,3.3043v-1.7284h-2.313v1.7284h2.313Z" transform="translate(-2994.33108 -4925.78209)"/>
            <path class="cls-1" d="M3095.97637,4976.54119a0.19415,0.19415,0,0,0-.05084.12709v3.20263a0.17374,0.17374,0,0,0,.17793.17792h3.17721a0.17374,0.17374,0,0,1,.17793.17792v1.2963a0.17374,0.17374,0,0,1-.17793.17792h-3.93975a0.99694,0.99694,0,0,1-.45752-0.10167,1.25142,1.25142,0,0,1-.38126-0.25418,1.42449,1.42449,0,0,1-.25418-0.38126,1.32931,1.32931,0,0,1-.07625-0.45752v-4.57518a1.43943,1.43943,0,0,1,.07625-0.45752,0.91186,0.91186,0,0,1,.25418-0.35585,1.4246,1.4246,0,0,1,.38126-0.25418,1.33765,1.33765,0,0,1,.45752-0.10167h3.93974a0.17374,0.17374,0,0,1,.17793.17792v1.2963a0.17374,0.17374,0,0,1-.17793.17792h-3.17721A0.20878,0.20878,0,0,1,3095.97637,4976.54119Z" transform="translate(-2994.33108 -4925.78209)"/>
            <path class="cls-1" d="M3104.97422,4977.73582a0.04766,0.04766,0,0,0,0,.07625l2.313,3.76182a0.07553,0.07553,0,0,1,0,.10167,0.13206,0.13206,0,0,1-.10167.05084h-1.62673a0.36129,0.36129,0,0,1-.15251-0.05084,0.55451,0.55451,0,0,1-.12709-0.10167l-1.49964-2.69428c-0.02542-.02542-0.02542-0.02542-0.05084,0l-0.81337.88962a0.41372,0.41372,0,0,0-.07625.15251,0.43251,0.43251,0,0,0-.02542.17792v1.44881a0.15112,0.15112,0,0,1-.17793.17792h-1.37255a0.15112,0.15112,0,0,1-.17793-0.17792v-6.53234a0.15112,0.15112,0,0,1,.17793-0.17792h1.37255a0.15112,0.15112,0,0,1,.17793.17792v2.923l2.54177-2.97387a0.25375,0.25375,0,0,1,.12709-0.10167,0.47123,0.47123,0,0,1,.17793-0.05084h1.62673a0.13205,0.13205,0,0,1,.10167.05084,0.19212,0.19212,0,0,1-.02542.10167Z" transform="translate(-2994.33108 -4925.78209)"/>
            <path class="cls-1" d="M3110.28652,4981.54848a0.15112,0.15112,0,0,1-.17793.17792H3108.736a0.15112,0.15112,0,0,1-.17793-0.17792v-6.53234a0.15112,0.15112,0,0,1,.17793-0.17792h1.37255a0.15112,0.15112,0,0,1,.17793.17792v6.53234Z" transform="translate(-2994.33108 -4925.78209)"/>
            <path class="cls-1" d="M3116.94595,4974.91446a0.91181,0.91181,0,0,1,.35585.25418,1.80419,1.80419,0,0,1,.25418.35585,1.33758,1.33758,0,0,1,.10167.45752v5.56647a0.17374,0.17374,0,0,1-.17793.17792h-1.398a0.17374,0.17374,0,0,1-.17793-0.17792v-4.85478a0.17374,0.17374,0,0,0-.17793-0.17792h-1.95716a0.17374,0.17374,0,0,0-.17793.17792v4.85478a0.15112,0.15112,0,0,1-.17793.17792h-1.37255a0.15112,0.15112,0,0,1-.17793-0.17792v-6.53234a0.15112,0.15112,0,0,1,.17793-0.17792h4.47351A0.68513,0.68513,0,0,1,3116.94595,4974.91446Z" transform="translate(-2994.33108 -4925.78209)"/>
            <path class="cls-1" d="M3124.95253,4978.01542a0.19419,0.19419,0,0,1,.05084.12709v2.4401a0.99678,0.99678,0,0,1-.10168.45752,1.25134,1.25134,0,0,1-.25418.38126,1.80458,1.80458,0,0,1-.35585.25418,1.33757,1.33757,0,0,1-.45752.10167h-3.50764a0.997,0.997,0,0,1-.45752-0.10167,1.25141,1.25141,0,0,1-.38127-0.25418,1.42449,1.42449,0,0,1-.25418-0.38126,1.32929,1.32929,0,0,1-.07625-0.45752v-4.6006a1.43941,1.43941,0,0,1,.07625-0.45752,0.91186,0.91186,0,0,1,.25418-0.35585,1.42461,1.42461,0,0,1,.38127-0.25418,1.33756,1.33756,0,0,1,.45752-0.10167h4.06683a0.17374,0.17374,0,0,1,.17793.17792v1.2963a0.17374,0.17374,0,0,1-.17793.17792h-3.3043a0.17374,0.17374,0,0,0-.17793.17792v3.20263a0.17374,0.17374,0,0,0,.17793.17792h1.95716a0.17374,0.17374,0,0,0,.17793-0.17792v-1.7284a0.17374,0.17374,0,0,1,.17793-0.17792h1.37256A0.37957,0.37957,0,0,1,3124.95253,4978.01542Z" transform="translate(-2994.33108 -4925.78209)"/>
          </g>
        </g>
      </g>
    </g>
    <g id="Layer_14" data-name="Layer 14">
      <g>
        <g>
          <path class="cls-1" d="M3015.09732,4994.58775a1.80375,1.80375,0,0,1-.66086,1.47422,2.98688,2.98688,0,0,1-1.85549.50835h-1.01671v2.74511h-0.45752v-6.6086h1.62673C3014.30937,4992.68142,3015.09732,4993.31686,3015.09732,4994.58775Zm-3.50764,1.57589h0.915a2.7385,2.7385,0,0,0,1.62673-.38126,1.39719,1.39719,0,0,0,.50835-1.19463,1.34515,1.34515,0,0,0-.48294-1.1438,2.24614,2.24614,0,0,0-1.44881-.38127h-1.093v3.101h-0.02542Z" transform="translate(-2994.33108 -4925.78209)"/>
          <path class="cls-1" d="M3022.1126,4995.98572a3.66182,3.66182,0,0,1-.78795,2.49093,2.71319,2.71319,0,0,1-2.1605.915,2.67819,2.67819,0,0,1-2.1605-.915,3.79566,3.79566,0,0,1-.78795-2.49093,3.66183,3.66183,0,0,1,.78795-2.49093,2.7132,2.7132,0,0,1,2.1605-.915,2.67819,2.67819,0,0,1,2.1605.915A3.74808,3.74808,0,0,1,3022.1126,4995.98572Zm-5.414,0a3.29735,3.29735,0,0,0,.63544,2.18592,2.54784,2.54784,0,0,0,3.66014.02542,3.326,3.326,0,0,0,.63544-2.21134,3.2521,3.2521,0,0,0-.63544-2.18592,2.23614,2.23614,0,0,0-1.83007-.76253,2.27037,2.27037,0,0,0-1.83007.76253A3.29735,3.29735,0,0,0,3016.69864,4995.98572Z" transform="translate(-2994.33108 -4925.78209)"/>
          <path class="cls-1" d="M3028.89912,4999.29h-0.38126l-1.44881-5.109c-0.12709-.40668-0.20334-0.76253-0.2796-1.04213-0.05084.25418-.12709,0.55919-0.20334,0.915-0.10167.33043-.58461,2.08425-1.44881,5.236H3024.756l-1.83007-6.6086h0.48293l1.16922,4.27017c0.05083,0.17793.07625,0.33043,0.12709,0.48293a3.16079,3.16079,0,0,1,.10167.40668l0.07625,0.38126c0.02542,0.12709.05084,0.22876,0.07625,0.35585,0.07625-.40668.22876-1.04213,0.45752-1.88091l1.14379-4.016h0.50835l1.32172,4.6006c0.15251,0.53377.25418,0.96587,0.33043,1.2963l0.15251-.68628c0.05084-.25418.53377-1.98257,1.398-5.21062h0.45752Z" transform="translate(-2994.33108 -4925.78209)"/>
          <path class="cls-1" d="M3035.53314,4999.29h-3.60931v-6.6086h3.60931v0.4321h-3.15179v2.49093h2.97387v0.4321h-2.97387v2.84678h3.15179V4999.29Z" transform="translate(-2994.33108 -4925.78209)"/>
          <path class="cls-1" d="M3037.4903,4996.41781V4999.29h-0.45752v-6.6086h1.57589a3.034,3.034,0,0,1,1.83007.45752,1.5904,1.5904,0,0,1,.58461,1.37255,1.83605,1.83605,0,0,1-.35585,1.11838,1.8874,1.8874,0,0,1-1.06754.66086l1.80466,3.0247h-0.55919l-1.703-2.87219h-1.65215v-0.02541Zm0-.40668h1.27088a1.97117,1.97117,0,0,0,1.2963-.38126,1.33118,1.33118,0,0,0,.45752-1.093,1.26663,1.26663,0,0,0-.45752-1.093,2.4595,2.4595,0,0,0-1.47423-.35585h-1.093v2.923Z" transform="translate(-2994.33108 -4925.78209)"/>
          <path class="cls-1" d="M3046.13231,4999.29H3042.523v-6.6086h3.60931v0.4321h-3.15179v2.49093h2.97387v0.4321h-2.97387v2.84678h3.15179V4999.29Z" transform="translate(-2994.33108 -4925.78209)"/>
          <path class="cls-1" d="M3052.66465,4995.93488a3.32321,3.32321,0,0,1-.8642,2.51635,3.59731,3.59731,0,0,1-2.56719.8642h-1.5759v-6.6086h1.77924a3.24226,3.24226,0,0,1,2.41468.83878A3.17073,3.17073,0,0,1,3052.66465,4995.93488Zm-0.50835,0a2.51183,2.51183,0,0,0-2.82136-2.84677h-1.22v5.79523h1.093A2.60271,2.60271,0,0,0,3052.1563,4995.93488Z" transform="translate(-2994.33108 -4925.78209)"/>
          <path class="cls-1" d="M3056.60439,4992.68142h1.80466a3.1077,3.1077,0,0,1,1.80466.40668,1.46066,1.46066,0,0,1,.5846,1.27088,1.41319,1.41319,0,0,1-.35585.96587,1.74135,1.74135,0,0,1-1.01671.48293v0.02542a2.002,2.002,0,0,1,1.16921.50835,1.44319,1.44319,0,0,1,.38126,1.06754,1.6882,1.6882,0,0,1-.61,1.398,2.64325,2.64325,0,0,1-1.7284.48293h-2.03341v-6.6086h0Zm0.45751,2.94845h1.44881a2.34407,2.34407,0,0,0,1.34713-.305,1.13158,1.13158,0,0,0,.4321-0.96587,1.05032,1.05032,0,0,0-.48293-0.96587,2.69283,2.69283,0,0,0-1.42339-.305h-1.34713v2.54177h0.02541Zm0,0.40668v2.84678h1.55048c1.22,0,1.83008-.50835,1.83008-1.49964,0-.915-0.63544-1.37255-1.93174-1.37255h-1.44881v0.02541Z" transform="translate(-2994.33108 -4925.78209)"/>
          <path class="cls-1" d="M3063.92468,4996.29072l1.93174-3.60931h0.50835l-2.21134,4.06683v2.56719h-0.48293v-2.51635l-2.21134-4.09225h0.53377Z" transform="translate(-2994.33108 -4925.78209)"/>
        </g>
        <g>
          <g>
            <polygon class="cls-1" points="96.892 76.66 96.562 76.66 96.562 64.535 96.892 64.535 96.892 76.66"/>
            <g>
              <path class="cls-1" d="M3080.92911,4990.97843a5.377,5.377,0,0,0-3.81265,1.5759h0a5.46815,5.46815,0,0,0-1.5759,3.81265h0a5.377,5.377,0,0,0,1.5759,3.81265h0a5.46815,5.46815,0,0,0,3.81265,1.5759h0a5.377,5.377,0,0,0,3.81265-1.5759h0a5.46815,5.46815,0,0,0,1.5759-3.81265h0a5.377,5.377,0,0,0-1.5759-3.81265h0a5.46814,5.46814,0,0,0-3.81265-1.5759h0m4.24475,1.1438h0m-4.24475-1.80466a6.07469,6.07469,0,0,1,6.07482,6.07482h0a6.07469,6.07469,0,0,1-6.07482,6.07482h0a6.07469,6.07469,0,0,1-6.07482-6.07482h0a6.07469,6.07469,0,0,1,6.07482-6.07482h0m-4.27017,1.80466h0" transform="translate(-2994.33108 -4925.78209)"/>
              <path class="cls-1" d="M3078.05691,4996.34156a0.52049,0.52049,0,0,0-.55919-0.55919h-0.20334v1.11838h0.20334a0.54735,0.54735,0,0,0,.55919-0.55918h0Zm3.60931,0.38126-1.49964,1.16921-1.37255-1.06755a1.3082,1.3082,0,0,1-1.22.81337h-1.16921v-2.618h1.16921a1.27856,1.27856,0,0,1,1.22.81337l1.37255-1.06755,0.50835,0.40668-1.24546.99129,0.22876,0.17793,1.24546-.99129,0.50835,0.40668-1.24546.99129,0.22876,0.17793,1.24546-.99129v-0.915h0.915v1.85549h0.915v0.76253h-1.80466v-0.915h0Zm2.97386,0.15251h0.915v0.76253h-1.80466v-2.618h0.915v1.85549h-0.02542Z" transform="translate(-2994.33108 -4925.78209)"/>
            </g>
          </g>
          <g>
            <path class="cls-1" d="M3101.7716,4999.97629c-2.77052.25418-5.64273-.15251-6.0494-2.313a3.4936,3.4936,0,0,1,.94046-2.89761v-0.38127a3.75448,3.75448,0,0,0-1.42339,3.81265c0.45752,1.95716,2.923,3.05012,6.71027,2.69427a13.88881,13.88881,0,0,0,4.80394-1.37255v-1.06755A12.7329,12.7329,0,0,1,3101.7716,4999.97629Zm7.29487-5.59189c-0.66086-3.20263-6.86277-3.406-10.87876-.96587v0.2796c3.99058-2.05883,9.68414-2.03341,10.19249.915a2.57268,2.57268,0,0,1-1.34713,2.56719v0.76253A3.20506,3.20506,0,0,0,3109.06647,4994.3844Z" transform="translate(-2994.33108 -4925.78209)"/>
            <path class="cls-1" d="M3106.5247,4993.92688h-0.73711v3.228a0.70746,0.70746,0,0,0,.73711.76253v-3.99058Z" transform="translate(-2994.33108 -4925.78209)"/>
            <path class="cls-1" d="M3097.90811,4995.0961H3097.171v2.10966a0.70746,0.70746,0,0,0,.73711.76253v-2.87219Z" transform="translate(-2994.33108 -4925.78209)"/>
            <rect class="cls-1" x="102.83992" y="68.24646" width="0.71169" height="0.68628"/>
            <path class="cls-1" d="M3102.22912,4997.94287a0.77879,0.77879,0,0,1-.83878-0.81337v-2.79594h0.71169v0.76253h0.53377v0.5846H3102.102v1.398a0.228,0.228,0,0,0,.25418.25418h0.305v0.61h-0.4321" transform="translate(-2994.33108 -4925.78209)"/>
            <path class="cls-1" d="M3103.55084,4996.74825a0.60005,0.60005,0,0,0,.63544.63544,0.73951,0.73951,0,0,0,.66086-0.2796l0.4321,0.4321a1.42945,1.42945,0,0,1-1.11838.45752,1.29058,1.29058,0,0,1-1.34713-1.47422,1.3266,1.3266,0,0,1,1.32172-1.47422,1.26319,1.26319,0,0,1,1.22,1.42339v0.25418h-1.80467m0.5846-1.06755a0.52332,0.52332,0,0,0-.50835.305,0.60375,0.60375,0,0,0-.07625.305h1.11838A0.54217,0.54217,0,0,0,3104.13544,4995.65528Z" transform="translate(-2994.33108 -4925.78209)"/>
            <path class="cls-1" d="M3099.86528,4995.6807a0.26248,0.26248,0,0,1,.305.2796v1.98257h0.71169v-1.98257a0.7704,0.7704,0,0,0-.83878-0.83878H3098.569v2.84678h0.71169v-2.26217h0.5846v-0.02543Z" transform="translate(-2994.33108 -4925.78209)"/>
            <path class="cls-1" d="M3107.31265,4994.48608a0.2796,0.2796,0,1,1,.2796-0.2796A0.28208,0.28208,0,0,1,3107.31265,4994.48608Zm0-.50835a0.22876,0.22876,0,1,0,.22876.22876A0.2278,0.2278,0,0,0,3107.31265,4993.97772Zm0.12709,0.40668h-0.05084l-0.07625-.12709h-0.02542v0.15251h-0.10167v-0.33043c0-.02542,0-0.02542.02542-0.02542h0.07625c0.10167,0,.15251.02542,0.15251,0.10167h0a0.10649,0.10649,0,0,1-.07625.10167l0.07625,0.1271h0Zm-0.07625-.25418a0.06385,0.06385,0,0,0-.07625-0.05084h-0.02542v0.10167h0.05084a0.04148,0.04148,0,0,0,.05083-0.05083h0Z" transform="translate(-2994.33108 -4925.78209)"/>
          </g>
        </g>
      </g>
    </g>
  </g>
</svg>
