<svg id="Layer_1" data-name="Layer 1" xmlns="http://www.w3.org/2000/svg" width="49.45" height="62.06" viewBox="0 0 49.45 62.06">
  <defs>
    <style>
      .cls-1 {
        fill: #ffc933;
      }

      .cls-2 {
        fill: #fff;
      }
    </style>
  </defs>
  <title>pointer</title>
  <g>
    <path class="cls-1" d="M1206.49,1470.81a20.75,20.75,0,0,1,20.73,20.73c0,7.85-11.76,22.52-20.73,31.7-9-9.18-20.73-23.85-20.73-31.7a20.75,20.75,0,0,1,20.73-20.73m0-4a24.73,24.73,0,0,0-24.73,24.73c0,13.66,24.73,37.34,24.73,37.34s24.73-23.68,24.73-37.34a24.73,24.73,0,0,0-24.73-24.73h0Z" transform="translate(-1181.76 -1466.81)"/>
    <path class="cls-2" d="M1207,1484.75a5.62,5.62,0,1,1-5.62,5.62,5.63,5.63,0,0,1,5.62-5.62m0-4a9.62,9.62,0,1,0,9.62,9.62,9.62,9.62,0,0,0-9.62-9.62h0Z" transform="translate(-1181.76 -1466.81)"/>
  </g>
</svg>
