<?xml version="1.0" encoding="utf-8"?>
<!-- Generator: Adobe Illustrator 21.0.0, SVG Export Plug-In . SVG Version: 6.00 Build 0)  -->
<svg version="1.1" id="Layer_1" xmlns="http://www.w3.org/2000/svg" xmlns:xlink="http://www.w3.org/1999/xlink" x="0px" y="0px"
	 viewBox="0 0 519.1 148.7" style="enable-background:new 0 0 519.1 148.7;" xml:space="preserve">
<style type="text/css">
	.st0{fill:#DC2430;}
</style>
<title>usacs-logo</title>
<g id="Layer_2">
	<g id="Layer_1-2">
		<path class="st0" d="M93.3,119.1c-5.3,0.1-10.7-0.7-15.8-2.2c-4.4-1.3-8.5-3.7-11.9-6.8c-3.4-3.3-6-7.3-7.5-11.7
			c-1.9-5.4-2.7-11-2.6-16.7V35.7h23.1v45.5c0,5.9,1.4,10.3,4.1,13.2c2.7,2.8,6.3,4.3,10.9,4.3c4.6,0,8.2-1.4,10.9-4.1
			c2.7-2.7,4.1-7,4.1-12.7V35.7h23.1v45.4c0.1,5.8-0.8,11.6-2.7,17.1c-3.2,9-10.5,16-19.8,18.6C104,118.4,98.6,119.1,93.3,119.1z"/>
		<path class="st0" d="M177.2,119c-7.1,0-14.1-1.1-20.9-3.4c-6.5-2.2-12.4-5.7-17.5-10.2l12.6-15.1c8.2,6.5,17,9.8,26.5,9.8
			c2.4,0.1,4.8-0.4,7-1.5c1.5-0.8,2.4-2.4,2.4-4.1v-0.2c0-0.8-0.2-1.6-0.6-2.3c-0.6-0.8-1.3-1.5-2.2-1.9c-1.3-0.7-2.7-1.4-4.2-1.8
			c-1.8-0.6-4-1.2-6.8-1.8c-4.4-1-8.4-2.1-12.2-3.3c-3.5-1.1-6.8-2.6-9.8-4.7c-5.9-3.9-9.3-10.6-8.9-17.7v-0.2
			c0-3.6,0.7-7.2,2.2-10.5c1.5-3.2,3.6-6,6.3-8.3c3-2.4,6.3-4.3,10-5.4c4.3-1.3,8.7-2,13.2-1.9c6.4-0.1,12.7,0.8,18.8,2.8
			c5.4,1.8,10.5,4.6,14.9,8.2l-11.3,16.1c-3.5-2.5-7.4-4.6-11.5-6c-3.7-1.3-7.5-2-11.4-2c-2.7,0-4.8,0.5-6.1,1.5
			c-1.3,0.8-2,2.2-2,3.7v0.2c0,0.9,0.2,1.7,0.6,2.4c0.6,0.8,1.3,1.5,2.2,1.9c1.4,0.7,2.8,1.3,4.3,1.7c1.8,0.6,4.1,1.2,7,1.8
			c4.3,0.9,8.5,2.1,12.7,3.6c3.4,1.2,6.7,2.9,9.6,5c2.6,1.8,4.6,4.3,6.1,7.1c1.5,3.1,2.2,6.5,2.1,9.9v0.2c0.1,3.9-0.7,7.7-2.4,11.2
			c-1.6,3.3-3.9,6.1-6.7,8.3c-3.1,2.4-6.6,4.2-10.4,5.3C186.3,118.4,181.8,119,177.2,119z"/>
		<path class="st0" d="M249.6,35.1h21.9l34.8,82.4h-24.3l-6-14.6h-31.6l-5.8,14.6h-23.8L249.6,35.1z M269.4,85.4l-9.1-23.3
			l-9.2,23.3L269.4,85.4z"/>
		<path class="st0" d="M353.6,119.2c-5.6,0-11.2-1-16.5-3.2c-5-2-9.6-5-13.4-8.8c-8-8.1-12.4-19-12.3-30.3v-0.2
			c-0.1-11.3,4.3-22.2,12.3-30.2c3.9-3.9,8.5-7,13.6-9.1c5.5-2.2,11.3-3.3,17.2-3.3c3.9,0,7.7,0.4,11.5,1.2c3.3,0.8,6.4,1.9,9.4,3.5
			c2.8,1.5,5.4,3.3,7.7,5.4c2.3,2.1,4.3,4.4,6.1,6.9l-17.1,13.2c-2.1-2.8-4.7-5.2-7.7-7c-3.1-1.8-6.6-2.7-10.2-2.6
			c-2.7,0-5.4,0.5-7.9,1.7c-2.3,1.1-4.4,2.7-6.1,4.6c-1.8,2-3.1,4.4-4,6.9c-1,2.7-1.5,5.5-1.5,8.4v0.2c0,2.9,0.5,5.8,1.5,8.6
			c0.9,2.6,2.3,4.9,4,7c1.7,1.9,3.8,3.5,6.1,4.6c2.5,1.2,5.2,1.7,7.9,1.7c2,0,3.9-0.2,5.8-0.7c1.7-0.4,3.3-1.1,4.8-2
			c1.5-0.9,2.8-2,4.1-3.2c1.3-1.3,2.6-2.6,3.8-4l17.1,12.2c-1.9,2.6-4.1,5.1-6.4,7.4c-2.3,2.3-5,4.3-7.8,5.8c-3.1,1.7-6.4,3-9.8,3.9
			C361.8,118.8,357.7,119.2,353.6,119.2z"/>
		<path class="st0" d="M431.7,119c-7.1,0-14.1-1.1-20.9-3.4c-6.5-2.2-12.4-5.7-17.5-10.2L406,90.2c8.2,6.5,17,9.8,26.5,9.8
			c2.4,0.1,4.8-0.4,7-1.5c1.5-0.8,2.4-2.4,2.4-4.1v-0.2c0-0.8-0.2-1.6-0.6-2.3c-0.6-0.8-1.3-1.5-2.2-1.9c-1.3-0.7-2.7-1.4-4.2-1.8
			c-1.8-0.6-4-1.2-6.8-1.8c-4.4-1-8.4-2.1-12.2-3.3c-3.5-1.1-6.8-2.6-9.8-4.7c-5.9-3.9-9.3-10.6-8.9-17.7v-0.2
			c0-3.6,0.7-7.2,2.2-10.5c1.5-3.2,3.6-6,6.3-8.3c3-2.4,6.3-4.3,10-5.4c4.3-1.3,8.7-2,13.2-1.9c6.4-0.1,12.7,0.8,18.8,2.8
			c5.4,1.8,10.5,4.6,14.9,8.2l-11.3,16.1c-3.5-2.5-7.4-4.6-11.5-6c-3.7-1.3-7.5-2-11.4-2c-2.7,0-4.8,0.5-6.1,1.5
			c-1.3,0.8-2,2.2-2,3.7v0.2c0,0.9,0.2,1.7,0.6,2.4c0.6,0.8,1.3,1.5,2.2,1.9c1.4,0.7,2.8,1.3,4.3,1.7c1.8,0.6,4.1,1.2,7,1.8
			c4.3,0.9,8.5,2.1,12.7,3.6c3.4,1.2,6.7,2.9,9.6,5c2.6,1.8,4.6,4.3,6.1,7.1c1.5,3.1,2.2,6.5,2.1,9.9v0.2c0.1,3.9-0.7,7.7-2.4,11.2
			c-1.6,3.3-3.9,6.1-6.7,8.3c-3.1,2.4-6.6,4.2-10.4,5.3C440.8,118.4,436.2,119,431.7,119z"/>
		<path class="st0" d="M334.8,31.4c0.5-0.2,1.1-0.4,1.6-0.6c-6.3-1.9-12.9,1.6-14.9,7.9c-0.1,0.4-0.2,0.7-0.3,1.1
			C325.3,36.3,329.9,33.4,334.8,31.4z"/>
		<path class="st0" d="M371.9,23.5l-0.8,6.6c1.7,0.5,3.3,1.1,4.9,1.9l1-8.3c6.5-1.3,10.7-7.5,9.4-14s-7.5-10.7-14-9.4
			c-6.5,1.3-10.7,7.5-9.4,14C363.9,18.7,367.3,22.4,371.9,23.5L371.9,23.5z M374.6,5c3.8,0,6.9,3.1,6.9,6.9c0,3.8-3.1,6.9-6.9,6.9
			c-3.8,0-6.9-3.1-6.9-6.9C367.8,8.1,370.9,5,374.6,5z"/>
		<path class="st0" d="M285,50.7c0.7,0.9,1.2,2,1.4,3.2l3.2,7.5c1.3-1.9,2-4.2,2-6.5c0,0,0,0,0-0.1l21.5-5.3c1.5-2.3,3.2-4.4,5-6.4
			l-27.6,6.8c-1.6-3.5-4.8-6-8.5-6.7L285,50.7z"/>
		<path class="st0" d="M420.7,28.4c-1-3.7,1.2-7.4,4.9-8.4c3.7-1,7.4,1.2,8.4,4.9c0.3,1,0.3,2,0.1,3.1c1.7,0.1,3.4,0.3,5,0.5
			c1-6.5-3.4-12.6-9.9-13.6c-6.5-1-12.6,3.4-13.6,9.9c-0.2,1.5-0.2,3.1,0.2,4.6C417.4,29,419.1,28.7,420.7,28.4z"/>
		<path class="st0" d="M367.8,84.4l2.3-2.8l1-8.3l0,0l-4-5c-0.1-0.2-0.3-0.3-0.4-0.5l-2.4,20.2c0.1-0.1,0.1-0.1,0.2-0.2
			C365.7,86.8,366.8,85.6,367.8,84.4z"/>
		<path class="st0" d="M402,84.8l0.8-0.9c-0.1-0.1-0.2-0.1-0.3-0.2c-1.3-0.9-2.5-1.9-3.6-3L402,84.8z"/>
		<path class="st0" d="M393,77.6c0.9,0,1.9-0.1,2.8-0.3c-0.7-0.9-1.3-1.9-1.8-2.8c-0.3-0.6-0.6-1.2-0.9-1.9c0,0,0,0,0,0
			c-3.8,0-6.9-3.1-6.9-6.9c0-2.9,1.9-5.5,4.6-6.5c0-0.4,0-0.7,0.1-1.1l-9.7,7.5c0,0,0,0,0,0.1C381.1,72.3,386.4,77.6,393,77.6z"/>
		<path class="st0" d="M85,65.4c2.9-2.4,7.3-1.9,9.7,1c2.4,2.9,1.9,7.3-1,9.7c-2.5,2-6.1,2-8.7,0v5.2c0,0.2,0,0.4,0,0.6
			c0.5,0.2,1,0.3,1.4,0.5l-0.7,4.8c0.3,1,0.8,2,1.5,2.8c0.8,0.8,1.8,1.5,2.9,1.8l1.4-9.3c6.5-1.2,10.7-7.4,9.5-13.9
			c-0.5-2.7-1.9-5.1-4-6.9l5-7v-8.7l-9.5,13.4c-2.5-0.7-5.1-0.5-7.5,0.4L85,65.4z"/>
		<path class="st0" d="M154.2,121.7c-0.1,0-0.3-0.1-0.4-0.1c-3.2,2-7.4,1-9.4-2.2c-0.5-0.8-0.8-1.7-1-2.7c-1.7-1-3.3-2.1-4.9-3.3
			c0,0.1,0,0.1,0,0.2l-14.8,2.8c-3.8,3-8,5.3-12.6,6.7c-5.8,1.7-11.8,2.6-17.8,2.5c-4.4,0-8.7-0.4-13-1.3l-0.2,1.1
			c-6.3-1.9-13,1.7-14.8,8c-1.9,6.3,1.7,13,8,14.8c6.3,1.9,13-1.7,14.8-8c1.2-4,0.2-8.4-2.7-11.5l53.2-10c1.6,6.4,8.1,10.2,14.5,8.6
			c2.5-0.6,4.7-2,6.3-4C157.7,122.8,155.9,122.2,154.2,121.7z M76.7,143.6c-3.8,0-6.9-3.1-6.9-6.9c0-3.8,3.1-6.9,6.9-6.9
			s6.9,3.1,6.9,6.9c0,0,0,0,0,0C83.6,140.6,80.5,143.6,76.7,143.6z"/>
		<path class="st0" d="M48.9,60.6l-25.3-6.2c-1.1-6.5-7.3-10.8-13.7-9.7S-0.9,52,0.2,58.4s7.3,10.8,13.7,9.7
			c4.6-0.8,8.3-4.2,9.5-8.6l25.5,6.2V60.6z M11.9,63.3c-3.8,0-6.9-3.1-6.9-6.9s3.1-6.9,6.9-6.9s6.9,3.1,6.9,6.9c0,0,0,0,0,0
			C18.8,60.2,15.7,63.3,11.9,63.3z"/>
		<path class="st0" d="M130.6,29.3c4-5.3,2.9-12.7-2.4-16.7c-5.3-4-12.7-2.9-16.7,2.4c-3.2,4.2-3.2,10.1,0,14.3H130.6z M121.1,15.3
			c3.8,0,6.9,3.1,6.9,6.9s-3.1,6.9-6.9,6.9c-1.4,0-2.7-0.4-3.8-1.2l-0.1-0.1c-3.1-2.2-3.8-6.5-1.7-9.5
			C116.8,16.3,118.9,15.3,121.1,15.3z"/>
		<path class="st0" d="M227.4,124c-2.4,2.9-6.7,3.3-9.6,0.9c-0.3-0.3-0.6-0.6-0.9-0.9h-5.8c2.4,6.1,9.3,9.1,15.4,6.7
			c3.1-1.2,5.5-3.6,6.7-6.7H227.4z"/>
		<path class="st0" d="M367.4,124c-0.3,0.1-0.6,0.2-1,0.2c3.3,1.9,4.4,6.1,2.5,9.4c-1.9,3.3-6.1,4.4-9.4,2.5s-4.4-6.1-2.5-9.4
			c0.3-0.5,0.6-0.9,1-1.3c-1.5,0.1-2.9,0.2-4.5,0.2c-0.5,0-1,0-1.5,0c-0.2,0.4-0.3,0.7-0.4,1.1l-3.6-1.4c-4.6-0.5-9.1-1.6-13.4-3.3
			c-3.6-1.5-7-3.3-10.1-5.6l-13.1-5c2.4-6.1-0.6-13-6.7-15.4c-0.2-0.1-0.5-0.2-0.8-0.3l8.2,19.4l1,2.4l38,14.5c1,6.5,7,11,13.5,10
			c6.5-1,11-7,10-13.5c-0.3-2.2-1.2-4.2-2.7-5.9C370.6,123.1,369,123.6,367.4,124z"/>
		<path class="st0" d="M507.2,79.5c-3.1,0-6,1.2-8.2,3.3l-34.8-28.6l-2.9,4.1L496.1,87c-2.4,6.1,0.6,13,6.7,15.4
			c6.1,2.4,13-0.6,15.4-6.7c2.4-6.1-0.6-13-6.7-15.4C510.1,79.8,508.7,79.5,507.2,79.5L507.2,79.5z M507.2,98.3
			c-3.8,0-6.9-3.1-6.9-6.9s3.1-6.9,6.9-6.9c3.8,0,6.9,3.1,6.9,6.9C514,95.2,511,98.3,507.2,98.3L507.2,98.3z"/>
		<path class="st0" d="M156.6,31.1c0.5-3.8,3.9-6.4,7.7-5.9c2,0.2,3.7,1.3,4.8,3c1.7-0.2,3.5-0.3,5.3-0.3c0.1,0,0.1,0,0.2,0
			c-2.2-6.2-9-9.4-15.2-7.2c-5.3,1.9-8.6,7.3-7.8,12.9C153.2,32.6,154.9,31.8,156.6,31.1z"/>
		<path class="st0" d="M454.1,120.5c-1.8,0.9-3.7,1.7-5.7,2.4c3.6,1.2,5.5,5.2,4.2,8.7c-1.2,3.6-5.2,5.5-8.7,4.2
			c-3.6-1.2-5.5-5.2-4.2-8.7c0.3-0.9,0.8-1.7,1.5-2.5c-2.4,0.4-4.9,0.6-7.4,0.7l0.8,1.1c-1.6,6.4,2.2,12.8,8.6,14.5
			s12.8-2.2,14.5-8.6C458.8,128,457.4,123.5,454.1,120.5z"/>
		<path class="st0" d="M208.9,37.8c1.1,0.8,2.2,1.6,3.2,2.4l4.7,3.8l-0.5,0.7l13.9,3.3l-4.7,27.4l8.6-20.3l1-5.9l1.4,0.3l2-4.7
			l-2.5-0.6l3.1-18.1c6.5-1.2,10.7-7.4,9.6-13.9c-1.2-6.5-7.4-10.7-13.9-9.6s-10.7,7.4-9.6,13.9c0.3,1.6,0.9,3.2,1.9,4.5l-14.2,17.7
			L208.9,37.8z M236.9,7.6c3.8,0,6.9,3.1,6.9,6.9s-3.1,6.9-6.9,6.9s-6.9-3.1-6.9-6.9C230,10.6,233.1,7.6,236.9,7.6L236.9,7.6z
			 M230.7,24.6c1,0.6,2.1,1.1,3.3,1.4L231,43.1l-12.8-3L230.7,24.6z"/>
		<path class="st0" d="M175.4,93.5L175.4,93.5c-1-0.3-2.1-0.5-3.3-0.8l0,0l0,0c-0.7-0.2-1.4-0.3-2.1-0.5l-0.3,0.4
			C171.6,93,173.5,93.3,175.4,93.5z"/>
		<polygon class="st0" points="271.6,109.4 267.5,109.4 247,113.8 244.8,119.4 273.2,113.3 		"/>
	</g>
</g>
</svg>
