<?xml version="1.0" encoding="utf-8"?>
<!-- Generator: Adobe Illustrator 19.1.1, SVG Export Plug-In . SVG Version: 6.00 Build 0)  -->
<svg version="1.1" id="Layer_1" xmlns="http://www.w3.org/2000/svg" xmlns:xlink="http://www.w3.org/1999/xlink" x="0px" y="0px"
	 viewBox="-35 145 36 36" style="enable-background:new -35 145 36 36;" xml:space="preserve">
<style type="text/css">
	.st0{fill:#FFC933;}
</style>
<title>dolla</title>
<path class="st0" d="M-16,162.1c2,0.6,4.2,1.3,4.2,4.1c0,2.4-1.8,3.9-4.2,4.2v1.4c0,0.2-0.2,0.3-0.3,0.3h-1.3
	c-0.2,0-0.3-0.2-0.3-0.3v-1.4c-2-0.1-3.7-1.5-4.2-3.5c-0.1-0.2,0-0.4,0.2-0.4l0,0l1.6-0.4c0.2,0,0.4,0.1,0.4,0.2l0,0
	c0.3,0.9,1,1.5,1.9,1.7v-4.1c-2-0.5-4-1.3-4-4c0-2.5,1.8-3.8,4-4.1v-1.6c0-0.2,0.2-0.3,0.3-0.3h1.3c0.2-0.1,0.4,0.1,0.4,0.3v1.6
	c2,0.1,3.7,1.4,4.2,3.4c0.1,0.2-0.1,0.4-0.2,0.4l0,0l-1.7,0.4c-0.2,0.1-0.4,0-0.4-0.2l0,0c-0.3-0.8-1-1.4-1.9-1.6V162.1z M-18,158.2
	c-0.8,0.1-1.5,0.8-1.5,1.6c0,0.9,0.6,1.3,1.5,1.7V158.2z M-16,168c0.9-0.1,1.6-0.9,1.7-1.7c0-1-0.7-1.4-1.7-1.8V168z"/>
</svg>
