<?xml version="1.0" encoding="utf-8"?>
<!-- Generator: Adobe Illustrator 19.1.1, SVG Export Plug-In . SVG Version: 6.00 Build 0)  -->
<svg version="1.1" id="Layer_1" xmlns="http://www.w3.org/2000/svg" xmlns:xlink="http://www.w3.org/1999/xlink" x="0px" y="0px"
	 viewBox="-35 145 36 36" style="enable-background:new -35 145 36 36;" xml:space="preserve">
<style type="text/css">
	.st0{fill:#FFC933;}
	.st1{fill:none;stroke:#FFC933;stroke-width:2;stroke-linecap:round;stroke-miterlimit:10;}
	.st2{fill:none;stroke:#FFC933;stroke-width:2;stroke-linecap:round;stroke-linejoin:round;}
</style>
<g>
	<path class="st0" d="M-17,154.1c1,0,1.8,0.8,2.4,2.1c0.5-0.5,1.2-0.7,1.9-0.7c0.3,0,0.5,0.1,0.8,0.2c1.1,0.5-0.2,1.5-1.4,3.1
		c3.4,1.5,5.5,4.8,5.5,8.4c0,4.2-2.7,4.5-6.5,4.5c-0.8,0-1.7,0-2.6,0s-1.8,0-2.6,0c-3.8,0-6.5-0.4-6.5-4.5c0-3.7,2.3-7.2,5.8-8.5
		c-1.4-1.7-3.2-2.5-2-3.1c0.3-0.1,0.5-0.2,0.8-0.2c0.8,0.1,1.6,0.5,2.2,1C-18.9,155.1-18,154.1-17,154.1 M-17,152.4
		c-1.2,0-2.3,0.5-3,1.5c-0.5-0.2-1-0.3-1.5-0.3s-1.2,0.1-1.6,0.4c-0.7,0.4-1.3,1-1.4,1.8c-0.1,1,0.4,1.9,1.2,2.5
		c-2.9,2.1-4.6,5.4-4.6,9c0,6.4,5.4,6.4,8.4,6.4c0.5,0,0.8,0,1.3,0s0.9,0,1.4,0s0.9,0,1.4,0s0.9,0,1.3,0c2.9,0,8.4,0,8.4-6.4
		c0-3.5-1.7-6.9-4.5-9c0.6-0.6,0.9-1.6,0.8-2.5c-0.2-0.7-0.6-1.4-1.4-1.7c-0.5-0.3-1.1-0.4-1.6-0.4s-0.8,0.1-1.3,0.2
		C-14.7,152.9-15.8,152.4-17,152.4L-17,152.4L-17,152.4z"/>
	<path class="st1" d="M-11,159.1c0,0-6.4,1.9-11.8-0.2"/>
</g>
<path class="st2" d="M-14.6,161.8l1.5-2.6c0,0,3.1,2.4,2.6,7.7"/>
<title>loot</title>
</svg>
