<?xml version="1.0" encoding="utf-8"?>
<!-- Generator: Adobe Illustrator 19.1.1, SVG Export Plug-In . SVG Version: 6.00 Build 0)  -->
<svg version="1.1" id="Layer_1" xmlns="http://www.w3.org/2000/svg" xmlns:xlink="http://www.w3.org/1999/xlink" x="0px" y="0px"
	 viewBox="-35 145 36 36" style="enable-background:new -35 145 36 36;" xml:space="preserve">
<style type="text/css">
	.st0{fill:none;stroke:#FFC933;stroke-width:2;stroke-linecap:round;stroke-linejoin:round;}
</style>
<title>vip</title>
<g>
	<line class="st0" x1="-24.3" y1="160" x2="-24.3" y2="167.7"/>
	<circle class="st0" cx="-24.5" cy="158" r="2"/>
	<path class="st0" d="M-24.5,160c4.7,2.2,10.1,2.2,14.7,0"/>
	<path class="st0" d="M-26.2,168h3.6c0.6,0,1,0.5,1,1l0,0c0,0.6-0.5,1-1,1h-3.6c-0.6,0-1-0.5-1-1l0,0C-27.2,168.5-26.7,168-26.2,168
		z"/>
	<line class="st0" x1="-9.6" y1="160" x2="-9.6" y2="167.7"/>
	<circle class="st0" cx="-9.7" cy="158" r="2"/>
	<path class="st0" d="M-11.4,168h3.6c0.6,0,1,0.5,1,1l0,0c0,0.6-0.5,1-1,1h-3.6c-0.6,0-1-0.5-1-1l0,0C-12.5,168.5-12,168-11.4,168z"
		/>
</g>
</svg>
