<svg id="Layer_1" data-name="Layer 1" xmlns="http://www.w3.org/2000/svg" viewBox="0 0 383.44343 70.95499">
  <title>behance</title>
  <g>
    <path d="M3450.52214,4569.77652a19.701,19.701,0,0,0,4.30039-.43641,10.16462,10.16462,0,0,0,3.61321-1.47742,7.38474,7.38474,0,0,0,2.49245-2.77906,9.6354,9.6354,0,0,0,.91688-4.51484c0-3.59-1.01-6.13795-3.01925-7.68624a12.9306,12.9306,0,0,0-7.99641-2.28583h-16.6716v19.17979h16.36433Zm-0.84715-29.64775a11.09924,11.09924,0,0,0,6.74893-1.95265c1.76395-1.28743,2.61876-3.41563,2.61876-6.33416a8.27726,8.27726,0,0,0-.85481-3.99942,6.34391,6.34391,0,0,0-2.36331-2.42256,9.55019,9.55019,0,0,0-3.37576-1.22294,20.62027,20.62027,0,0,0-3.94389-.34359H3434.1578v16.27531H3449.675Zm1.98357-28.13909a42.84742,42.84742,0,0,1,9.08634.88331,19.8079,19.8079,0,0,1,7.0353,2.87325,13.4758,13.4758,0,0,1,4.54583,5.31283,18.71715,18.71715,0,0,1,1.59341,8.17172,15.27641,15.27641,0,0,1-2.38632,8.7764,17.32917,17.32917,0,0,1-7.10786,5.74408,16.62305,16.62305,0,0,1,9.56673,6.48654,21.4799,21.4799,0,0,1,1.12342,20.30959,17.76984,17.76984,0,0,1-5.509,6.3072,24.24656,24.24656,0,0,1-7.924,3.612,35.35886,35.35886,0,0,1-9.10167,1.17242h-33.75943v-69.64932h32.83722Z" transform="translate(-3418.82133 -4511.98968)"/>
    <path d="M3514.91844,4543.04859c-1.6453-1.822-4.43477-2.80739-7.83612-2.80739a11.90509,11.90509,0,0,0-5.51171,1.13117,11.132,11.132,0,0,0-3.50748,2.77906,9.9282,9.9282,0,0,0-1.85685,3.55276,15.79267,15.79267,0,0,0-.63294,3.32386h22.53731a13.49111,13.49111,0,0,0-3.19222-7.97946h0Zm-15.91509,26.49669c2.074,2.02618,5.07264,3.04516,8.957,3.04516a12.364,12.364,0,0,0,7.23441-2.11416,8.90681,8.90681,0,0,0,3.701-4.47069h12.19849c-1.96032,6.07071-4.93567,10.40468-8.9932,13.01319a26.175,26.175,0,0,1-14.60313,3.92589,29.04272,29.04272,0,0,1-10.75723-1.91,22.87343,22.87343,0,0,1-8.14338-5.42252,24.81407,24.81407,0,0,1-5.12163-8.40424,30.80587,30.80587,0,0,1-1.8106-10.74956,29.59445,29.59445,0,0,1,1.86218-10.54915,24.45637,24.45637,0,0,1,13.45363-14.07487,26.22486,26.22486,0,0,1,10.517-2.05209,23.88154,23.88154,0,0,1,11.20663,2.49374,22.32765,22.32765,0,0,1,7.86453,6.68283,27.35724,27.35724,0,0,1,4.432,9.5719,35.73,35.73,0,0,1,.96353,11.22721h-36.39135c0,3.98642,1.34829,7.7613,3.43,9.7874h0Z" transform="translate(-3418.82133 -4511.98968)"/>
    <path d="M3551.64,4511.98968v26.26158h0.31768a15.86857,15.86857,0,0,1,6.71528-6.36273,18.20236,18.20236,0,0,1,7.98842-1.98357,23.50246,23.50246,0,0,1,9.09909,1.49034,13.63961,13.63961,0,0,1,5.615,4.19563,16.53574,16.53574,0,0,1,2.85666,6.541,40.796,40.796,0,0,1,.83145,8.5166V4581.639h-13.91849v-28.475c0-4.15438-.64823-7.27549-1.9397-9.31717-1.2938-2.04313-3.5873-3.06978-6.901-3.06978-3.74521,0-6.45187,1.13642-8.12813,3.37439-1.70983,2.242-2.53632,5.92874-2.53632,11.05957v26.428h-13.91591v-69.64932H3551.64Z" transform="translate(-3418.82133 -4511.98968)"/>
    <path d="M3622.21688,4558.21072a25.77888,25.77888,0,0,1-2.79976.73625c-1.015.19225-2.07663,0.34859-3.17688,0.488-1.08989.13067-2.21073,0.28168-3.29823,0.4766a24.95463,24.95463,0,0,0-3.06054.79025,8.70653,8.70653,0,0,0-2.60847,1.31334,6.38113,6.38113,0,0,0-1.808,2.09333,6.92265,6.92265,0,0,0-.68177,3.226,6.69,6.69,0,0,0,.68177,3.12378,5.16939,5.16939,0,0,0,1.84155,1.99785,7.76554,7.76554,0,0,0,2.72228,1.02278,16.28033,16.28033,0,0,0,3.20517.28394,12.235,12.235,0,0,0,6.31991-1.35966,9.069,9.069,0,0,0,3.31123-3.27124,10.06894,10.06894,0,0,0,1.28614-3.83912,23.65828,23.65828,0,0,0,.2634-3.13169v-5.1824a6.0208,6.0208,0,0,1-2.19777,1.232h0Zm-27.26369-19.62387a16.3446,16.3446,0,0,1,5.43652-5.17974,23.3117,23.3117,0,0,1,7.45927-2.78681,41.04882,41.04882,0,0,1,8.33972-.83811,56.78943,56.78943,0,0,1,7.7121.53609,23.43536,23.43536,0,0,1,7.10515,2.101,13.8524,13.8524,0,0,1,5.24822,4.36229,12.03681,12.03681,0,0,1,2.06609,7.36985V4570.435a55.63955,55.63955,0,0,0,.38237,6.53706,11.30377,11.30377,0,0,0,1.65806,4.70056l-14.151-.03358a6.89148,6.89148,0,0,1-.91934-2.3684,20.31656,20.31656,0,0,1-.34092-2.48317,17.928,17.928,0,0,1-7.7975,4.79862,31.43787,31.43787,0,0,1-9.15587,1.35862,24.77723,24.77723,0,0,1-6.7177-.88968,15.58919,15.58919,0,0,1-5.44181-2.72756,12.83713,12.83713,0,0,1-3.64687-4.69152,16.01565,16.01565,0,0,1-1.32242-6.75014,14.58392,14.58392,0,0,1,1.534-7.087,12.26821,12.26821,0,0,1,3.88965-4.44365,17.003,17.003,0,0,1,5.46276-2.49108,58.19149,58.19149,0,0,1,6.17023-1.325c2.08667-.319,4.11943-0.57975,6.14691-0.78a36.8821,36.8821,0,0,0,5.36965-.87806,9.46518,9.46518,0,0,0,3.70877-1.71641,3.78815,3.78815,0,0,0,1.26548-3.27608,7.5101,7.5101,0,0,0-.74372-3.56938,5.4374,5.4374,0,0,0-1.9267-2.04168,7.73925,7.73925,0,0,0-2.79972-.98549,23.90811,23.90811,0,0,0-3.44029-.24512,10.37162,10.37162,0,0,0-6.37677,1.76137c-1.56278,1.19308-2.4615,3.156-2.73785,5.89646h-13.89791a15.94919,15.94919,0,0,1,2.4615-8.1178h0Z" transform="translate(-3418.82133 -4511.98968)"/>
    <path d="M3659.09609,4531.221v7.03029h0.31a15.64084,15.64084,0,0,1,6.82375-6.36273,19.82791,19.82791,0,0,1,8.59279-1.98357,23.53668,23.53668,0,0,1,9.12306,1.49034,13.317,13.317,0,0,1,5.61481,4.19563,16.024,16.024,0,0,1,2.89338,6.541,39.901,39.901,0,0,1,.83835,8.5166V4581.639h-13.92378v-28.475c0-4.15438-.65356-7.27549-1.95265-9.31717-1.31733-2.04313-3.59025-3.35388-6.92448-3.35388-3.76826,0-6.51378,1.42052-8.20033,3.65849q-2.54931,3.363-2.53866,11.05957v26.428h-13.7739v-50.418h13.11767Z" transform="translate(-3418.82133 -4511.98968)"/>
    <path d="M3724.11419,4540.2412a9.50751,9.50751,0,0,0-5.54339,1.51092,12.00671,12.00671,0,0,0-3.68416,3.91031,17.10318,17.10318,0,0,0-2.00209,5.2728,29.62384,29.62384,0,0,0-.58976,5.72091,28.44657,28.44657,0,0,0,.58976,5.57724,17.91053,17.91053,0,0,0,1.90423,5.13341,11.23881,11.23881,0,0,0,3.57306,3.75268,9.664,9.664,0,0,0,5.45085,1.471c3.335,0,5.88988-.93117,7.68038-2.77405a13.2563,13.2563,0,0,0,3.3509-7.46533h13.37716q-1.37654,10.03405-7.802,15.32081c-4.29772,3.49844-9.80148,5.2728-16.50328,5.2728a27.7123,27.7123,0,0,1-10.40177-1.91,23.25612,23.25612,0,0,1-8.07446-5.3268,24.68875,24.68875,0,0,1-5.19431-8.159,28.50379,28.50379,0,0,1-1.8487-10.406,33.73375,33.73375,0,0,1,1.71383-10.90033,24.08517,24.08517,0,0,1,5.04616-8.68464,22.95588,22.95588,0,0,1,8.1247-5.72349,27.551,27.551,0,0,1,10.92547-2.05209,32.70352,32.70352,0,0,1,8.64573,1.16241,22.73035,22.73035,0,0,1,7.4079,3.56535,19.12512,19.12512,0,0,1,5.33184,5.93141,19.396,19.396,0,0,1,2.338,8.42749h-13.58346q-1.34881-8.63355-10.23256-8.62765h0Z" transform="translate(-3418.82133 -4511.98968)"/>
    <g>
      <polygon points="73.919 4.672 73.919 11.545 102.151 11.545 102.151 4.672 73.919 4.672 73.919 4.672"/>
      <path d="M3785.13659,4543.04859c-1.66883-1.822-4.47755-2.80739-7.8364-2.80739a12.10971,12.10971,0,0,0-5.54076,1.13117,11.43231,11.43231,0,0,0-3.62855,2.77906,10.43953,10.43953,0,0,0-1.88046,3.55276,17.43943,17.43943,0,0,0-.61889,3.32386h22.70789a13.75083,13.75083,0,0,0-3.20283-7.97946h0Zm-16.088,26.49669c2.08143,2.02618,5.22337,3.04516,9.13767,3.04516a12.27318,12.27318,0,0,0,7.20955-2.11416,8.74247,8.74247,0,0,0,3.7053-4.47069h12.1976q-2.92377,9.10607-8.97629,13.01319a26.21023,26.21023,0,0,1-14.61754,3.92589,28.9,28.9,0,0,1-10.75626-1.91,22.79065,22.79065,0,0,1-8.13261-5.42252,24.39522,24.39522,0,0,1-5.13612-8.40424,30.81231,30.81231,0,0,1-1.801-10.74956,29.57816,29.57816,0,0,1,1.85132-10.54915,24.86134,24.86134,0,0,1,5.29475-8.45082,25.14553,25.14553,0,0,1,8.15113-5.62406,26.37013,26.37013,0,0,1,10.52881-2.05209,23.719,23.719,0,0,1,11.18467,2.49374,22.1587,22.1587,0,0,1,7.87074,6.68283,27.26439,27.26439,0,0,1,4.44054,9.5719,36.23337,36.23337,0,0,1,.98121,11.22721h-36.55052c0,3.98642,1.33037,7.7613,3.417,9.7874h0Z" transform="translate(-3418.82133 -4511.98968)"/>
    </g>
  </g>
</svg>
