<svg id="Layer_1" data-name="Layer 1" xmlns="http://www.w3.org/2000/svg" viewBox="0 0 289.00533 94.75893">
  <defs>
    <style>
      .cls-1 {
        fill: #577ec0;
      }

      .cls-2 {
        fill: #db3236;
      }

      .cls-3 {
        fill: #f3c218;
      }

      .cls-4 {
        fill: #43b654;
      }
    </style>
  </defs>
  <title>google</title>
  <g>
    <path class="cls-1" d="M3125.2104,4386.88273h-33.723v10.00693h23.91683c-1.18154,14.03257-12.85624,20.01687-23.87632,20.01687a26.29652,26.29652,0,0,1-26.40218-26.64168c0-15.1466,11.728-26.81155,26.43307-26.81155a25.95711,25.95711,0,0,1,18.03058,7.2324l7.00675-7.25579s-8.99335-10.01193-25.39544-10.01193c-20.88618-.00028-37.04414,17.62759-37.04414,36.66808a37.24712,37.24712,0,0,0,37.57644,36.85031c19.681,0,34.08755-13.4823,34.08755-33.4193a30.00149,30.00149,0,0,0-.61068-6.637l0.00054,0.0026h0Z" transform="translate(-3054.15656 -4353.41799)"/>
    <path class="cls-2" d="M3152.97306,4388.91706c6.80466,0,13.2527,5.50146,13.2527,14.36629,0,8.67682-6.42113,14.33516-13.28421,14.33516-7.541,0-13.491-6.03989-13.491-14.40394,0-8.18477,5.87616-14.29752,13.52249-14.29752h0Zm-0.1376-9.28151a23.34768,23.34768,0,0,0-23.75455,23.43522c0,12.80358,9.61869,23.82281,23.91674,23.82281a23.17942,23.17942,0,0,0,23.54774-23.54774c0-15.65019-12.335-23.71029-23.70992-23.71029h0Z" transform="translate(-3054.15656 -4353.41799)"/>
    <path class="cls-3" d="M3204.63494,4388.91706c6.80467,0,13.25348,5.50146,13.25348,14.36629,0,8.67682-6.42113,14.33516-13.285,14.33516-7.541,0-13.49021-6.03989-13.49021-14.40394,0-8.18477,5.8754-14.29752,13.52173-14.29752h0Zm-0.1376-9.28151a23.34762,23.34762,0,0,0-23.75448,23.43522c0,12.80358,9.61863,23.82281,23.91744,23.82281a23.17923,23.17923,0,0,0,23.547-23.54774c0-15.65019-12.33419-23.71029-23.70992-23.71029h0Z" transform="translate(-3054.15656 -4353.41799)"/>
    <path class="cls-1" d="M3256.08925,4388.92313c6.22745,0,12.62168,5.31721,12.62168,14.39758,0,9.22963-6.38116,14.31633-12.75923,14.31633-6.77087,0-13.07132-5.49809-13.07132-14.22872,0-9.07167,6.54335-14.48519,13.20887-14.48519h0Zm-0.91927-9.26268c-12.70082,0-22.68453,11.12422-22.68453,23.6102,0,14.22257,11.574,23.65411,22.46547,23.65411,6.73472,0,10.31576-2.67322,12.9591-5.74159v4.65937c0,8.15238-4.94922,13.034-12.421,13.034-7.21744,0-10.83768-5.36657-12.09594-8.41188l-9.08135,3.79626c3.22211,6.81237,9.707,13.916,21.25261,13.916,12.62855,0,22.25335-7.95379,22.25335-24.636v-42.45977h-9.90689v4.00272a16.713,16.713,0,0,0-12.74079-5.42284v-0.00061h0Z" transform="translate(-3054.15656 -4353.41799)"/>
    <path class="cls-2" d="M3322.27979,4388.69168a9.4195,9.4195,0,0,1,8.74393,5.04729l-21.15884,8.84376c-0.9124-6.8468,5.57409-13.89106,12.41491-13.89106h0Zm-0.41277-9.08764c-11.98063,0-22.04043,9.53224-22.04043,23.59777,0,14.88335,11.21275,23.71029,23.19108,23.71029,9.99753,0,16.13352-5.46942,19.79525-10.36981l-8.16819-5.435a13.22406,13.22406,0,0,1-11.57712,6.50452c-6.64247,0-9.697-3.63762-11.58937-7.16117l31.68365-13.14671-1.64488-3.85283c-3.06065-7.54478-10.20048-13.84562-19.64921-13.84562l-0.00077-.00146h0Z" transform="translate(-3054.15656 -4353.41799)"/>
    <polygon class="cls-4" points="230.565 72.091 240.972 72.091 240.972 2.444 230.565 2.444 230.565 72.091 230.565 72.091"/>
  </g>
</svg>
